<?xml version="1.0" standalone="no"?>
<!DOCTYPE svg PUBLIC "-//W3C//DTD SVG 20010904//EN"
 "http://www.w3.org/TR/2001/REC-SVG-20010904/DTD/svg10.dtd">
<svg version="1.0" xmlns="http://www.w3.org/2000/svg"
 width="786.000000pt" height="786.000000pt" viewBox="0 0 786.000000 786.000000"
 preserveAspectRatio="xMidYMid meet">
<metadata>
Created by potrace 1.14, written by Peter Selinger 2001-2017
</metadata>
<g transform="translate(0.000000,786.000000) scale(0.100000,-0.100000)"
fill="#000000" stroke="none">
<path d="M3118 6795 c-2 -2 -37 -6 -78 -10 -142 -12 -224 -21 -270 -30 -14 -3
-41 -7 -60 -9 -19 -3 -60 -10 -90 -16 -30 -6 -67 -13 -82 -15 -15 -2 -46 -9
-70 -16 -24 -6 -54 -13 -68 -15 -14 -3 -32 -7 -40 -10 -8 -3 -26 -8 -40 -10
-78 -14 -384 -116 -545 -181 -103 -42 -401 -185 -490 -235 -171 -98 -452 -288
-551 -374 -12 -11 -46 -39 -75 -64 -51 -43 -252 -241 -275 -271 -78 -105 -206
-351 -249 -480 -15 -43 -26 -81 -26 -84 1 -3 -6 -19 -14 -35 -9 -17 -13 -30
-11 -30 3 0 -1 -18 -9 -40 -8 -22 -12 -40 -10 -40 3 0 1 -10 -4 -23 -5 -12
-11 -42 -15 -67 -3 -25 -8 -56 -11 -70 -20 -94 -26 -425 -11 -552 32 -263 168
-619 332 -863 37 -55 70 -102 73 -105 4 -3 18 -21 31 -40 14 -19 33 -44 43
-55 10 -11 28 -33 40 -48 67 -88 417 -417 443 -417 4 0 55 -36 109 -77 6 -5
64 -44 130 -87 66 -43 131 -86 145 -96 14 -9 32 -19 40 -23 8 -4 29 -16 45
-27 17 -11 38 -23 48 -26 9 -4 17 -10 17 -15 0 -5 4 -9 8 -9 5 0 60 -29 123
-64 63 -35 158 -85 212 -112 78 -38 115 -65 175 -124 43 -41 113 -105 157
-143 44 -37 87 -73 95 -81 8 -7 42 -33 75 -57 33 -24 62 -46 65 -49 3 -4 23
-17 45 -30 22 -13 42 -27 45 -30 12 -14 212 -129 300 -172 143 -69 273 -125
335 -142 6 -2 17 -6 25 -9 38 -14 153 -47 230 -65 110 -27 142 -33 235 -47 22
-3 47 -7 55 -10 14 -3 110 -13 220 -21 63 -5 355 -4 410 1 25 2 79 6 120 10
41 3 82 8 90 10 8 2 38 6 65 10 77 9 143 21 245 41 103 22 93 20 205 48 55 14
138 37 185 51 47 14 92 27 100 30 8 2 31 9 50 16 57 20 65 22 70 23 3 1 10 4
15 7 6 4 35 14 65 24 30 10 60 20 65 24 6 3 12 6 15 7 7 1 41 14 65 24 11 5
63 27 115 49 170 71 343 152 348 164 2 4 9 7 16 7 16 0 143 66 329 171 38 22
73 39 78 39 5 0 9 4 9 8 0 4 12 13 28 20 15 7 36 18 47 25 11 6 38 23 60 36
52 32 227 143 240 153 6 4 64 47 130 94 376 271 604 531 716 819 43 110 58
305 32 412 -7 32 -16 69 -19 83 -11 54 -128 270 -146 270 -4 0 -8 7 -8 14 0
14 -218 241 -265 276 -11 8 -47 36 -80 61 -82 62 -180 129 -240 164 -27 15
-52 31 -55 34 -6 7 -39 25 -215 117 l-139 73 29 12 c33 14 169 102 194 126 75
69 106 107 132 160 30 59 31 64 25 166 -6 121 -27 178 -96 267 -47 60 -181
194 -250 250 -24 19 -57 47 -74 61 -95 79 -408 299 -425 299 -6 0 -11 4 -11 8
0 5 -19 19 -42 32 -24 13 -45 26 -48 30 -11 13 -237 150 -248 150 -7 0 -12 5
-12 10 0 6 -7 10 -15 10 -8 0 -15 5 -15 10 0 6 -4 10 -9 10 -5 0 -46 23 -91
50 -45 28 -85 50 -90 50 -5 0 -10 3 -12 8 -1 4 -21 16 -43 28 -22 12 -80 44
-129 72 -49 29 -91 52 -93 52 -3 0 -17 8 -31 18 -15 10 -65 33 -112 51 -47 18
-103 41 -125 51 -22 10 -51 22 -65 25 -14 4 -38 13 -55 20 -81 35 -490 157
-570 170 -11 2 -31 6 -45 9 -14 4 -36 8 -50 11 -25 5 -51 10 -100 20 -54 10
-95 17 -187 30 -82 12 -100 14 -158 20 -33 4 -76 9 -95 11 -40 5 -627 14 -632
9z"/>
</g>
</svg>
