<?xml version="1.0" standalone="no"?>
<!DOCTYPE svg PUBLIC "-//W3C//DTD SVG 1.1//EN" "http://www.w3.org/Graphics/SVG/1.1/DTD/svg11.dtd" >
<svg xmlns="http://www.w3.org/2000/svg" xmlns:xlink="http://www.w3.org/1999/xlink" version="1.1">
<metadata>
Created by FontForge 20200314 at Wed May 27 18:18:32 2015
 By Unknown
Copyright (c) 2011 ParaType Inc., ParaType Ltd. All rights reserved.
</metadata>
<defs>
<font id="CirceW08-Regular" horiz-adv-x="592" >
  <font-face 
    font-family="CirceW08-Regular"
    font-weight="400"
    font-stretch="normal"
    units-per-em="1000"
    panose-1="2 11 5 2 2 2 3 2 2 3"
    ascent="800"
    descent="-200"
    x-height="450"
    cap-height="700"
    bbox="-534 -392 1681 1005"
    underline-thickness="50"
    underline-position="-125"
    unicode-range="U+0020-FB02"
  />
<missing-glyph horiz-adv-x="225" 
 />
    <glyph glyph-name="uniF3D6" unicode="&#xf350;`" horiz-adv-x="590" 
d="M258 528h74l246 -528h-91l-64 140h-261l-64 -140h-86zM198 220h189l-94 206zM274 580l-40 44l126 142l49 -61z" />
    <glyph glyph-name="uniF3D7" unicode="&#xf355;`" horiz-adv-x="488" 
d="M84 525h340v-80h-255v-140h230v-80h-230v-145h263v-80h-348v525zM232 580l-40 44l126 142l49 -61z" />
    <glyph glyph-name="uniF3D8" unicode="&#xf358;`" horiz-adv-x="656" 
d="M84 0v525h85v-390l328 390h75v-525h-85v390l-328 -390h-75zM302 580l-40 44l126 142l49 -61z" />
    <glyph glyph-name="uniF3D9" unicode="&#xf35e;`" horiz-adv-x="655" 
d="M40 262q0 57 21 106.5t59 85.5t91 57t117 21q61 0 114 -19.5t91 -55t60 -85t22 -110.5q0 -59 -22 -109t-60 -86t-91 -56t-114 -20q-62 0 -114.5 19.5t-91 55t-60.5 85.5t-22 111zM130 262q0 -41 15.5 -76t42 -60.5t62.5 -40t78 -14.5q46 0 82.5 14.5t62 40.5t39 60.5
t13.5 75.5q0 42 -15 77t-41.5 60t-62.5 39t-78 14t-78.5 -14t-63 -39t-41.5 -60t-15 -77zM313 580l-40 44l126 142l49 -61z" />
    <glyph glyph-name="uniF3DA" unicode="&#xf363;`" horiz-adv-x="546" 
d="M339 124q-30 -61 -65.5 -92.5t-86.5 -31.5q-21 0 -39.5 6t-29.5 14l30 72q11 -7 21 -10t22 -3q23 0 37 15t24 33l10 18l-251 380h106l189 -296l143 296h87zM262 580l-40 44l126 142l49 -61z" />
    <glyph glyph-name="uniF3DB" unicode="&#xf36b;`" horiz-adv-x="706" 
d="M537 525h85v-525h-85v525zM233 265q-25 0 -64 -3v-182q15 -1 30 -1.5t32 -0.5q64 0 97.5 24t33.5 73q0 45 -33 67.5t-96 22.5zM169 342q42 3 71 3q108 0 160 -45.5t52 -122.5q0 -84 -61 -131.5t-170 -47.5q-39 0 -75 1t-62 1v525h85v-183zM312 580l-40 44l126 142l49 -61
z" />
    <glyph glyph-name="uniF3DC" unicode="&#xf36d;`" horiz-adv-x="557" 
d="M157 308h272q-14 70 -66.5 107.5t-138.5 37.5q-49 0 -87.5 -9.5t-69.5 -31.5l-34 64q32 24 82 40.5t113 16.5q64 0 117 -19t91.5 -54.5t60 -85.5t21.5 -111t-21 -111t-60 -85.5t-94.5 -55t-123.5 -19.5q-60 0 -110.5 15t-82.5 40l37 71q29 -20 70 -33t96 -13
q82 0 136 39.5t65 116.5h-273v80zM212 580l-40 44l126 142l49 -61z" />
    <glyph glyph-name="uniF3DD" unicode="&#xf36e;`" horiz-adv-x="871" 
d="M84 525h85v-217h112q7 48 28.5 89.5t56.5 71.5t82 47t104 17q64 0 115.5 -19.5t88 -55t56 -85t19.5 -110.5q0 -59 -19.5 -109t-56 -86t-88 -56t-115.5 -20q-55 0 -102.5 17t-83 47.5t-58 74t-28.5 97.5h-111v-228h-85v525zM368 263q0 -41 13.5 -76t38 -60.5t58.5 -40
t76 -14.5q44 0 79 14.5t59 40.5t36.5 60.5t12.5 75.5q0 42 -13.5 77t-38 60t-59 39t-76.5 14q-41 0 -75 -14t-59 -39t-38.5 -60t-13.5 -77zM403 580l-40 44l126 142l49 -61z" />
    <glyph glyph-name="uniF3DE" unicode="&#xf36f;`" horiz-adv-x="534" 
d="M365 180h-112l-134 -180h-101l149 197q-21 9 -39.5 23t-32.5 33t-22.5 42t-8.5 50q0 36 13 69.5t40.5 58.5t70.5 40t102 15q44 0 89 -1.5t71 -1.5v-525h-85v180zM365 260v185q-13 1 -36.5 2t-46.5 1q-65 0 -96.5 -28t-31.5 -70q0 -18 7.5 -33.5t20.5 -27t29 -19t34 -10.5
h120zM262 580l-40 44l126 142l49 -61z" />
    <glyph glyph-name="uniF3DF" unicode="&#xf371;`" horiz-adv-x="488" 
d="M84 654q0 20 14 31.5t34 11.5q16 0 29.5 -11.5t13.5 -31.5q0 -22 -13.5 -34t-29.5 -12q-20 0 -34 12t-14 34zM332 654q0 20 14 31.5t32 11.5q17 0 30.5 -11.5t13.5 -31.5q0 -22 -13.5 -34t-30.5 -12q-18 0 -32 12t-14 34zM228 580l-45 28l85 158l69 -43zM84 525h340v-80
h-255v-140h230v-80h-230v-145h263v-80h-348v525z" />
    <glyph glyph-name="uniF460" unicode="&#x410;`" horiz-adv-x="705" 
d="M316 704h73l301 -704h-91l-90 212h-319l-89 -212h-86zM224 292h252l-126 299zM311 735l-23 48l195 104l30 -68z" />
    <glyph glyph-name="uniF461" unicode="&#x415;`" horiz-adv-x="575" 
d="M105 700h395v-80h-310v-226h280v-80h-280v-234h320v-80h-405v700zM261 735l-23 48l195 104l30 -68z" />
    <glyph glyph-name="uniF462" unicode="&#x418;`" horiz-adv-x="795" 
d="M105 0v700h85v-560l425 560h75v-700h-85v560l-425 -560h-75zM351 735l-23 48l195 104l30 -68z" />
    <glyph glyph-name="uniF463" unicode="&#x41e;`" horiz-adv-x="814" 
d="M50 350q0 76 26.5 142t74 114.5t113 76t143.5 27.5q76 0 141.5 -26.5t113.5 -74t75 -113.5t27 -146q0 -78 -27 -144t-75 -114t-113.5 -75t-141.5 -27t-141.5 26.5t-113.5 74t-75 113.5t-27 146zM140 350q0 -60 20.5 -111t56.5 -88.5t85 -59t105 -21.5q60 0 109 21.5
t84.5 59t54.5 89t19 110.5q0 61 -20.5 112.5t-56.5 88.5t-85 58t-105 21q-57 0 -106 -21t-84.5 -58t-56 -88.5t-20.5 -112.5zM361 735l-23 48l195 104l30 -68z" />
    <glyph glyph-name="uniF464" unicode="&#x423;`" horiz-adv-x="666" 
d="M409 160q-36 -81 -76 -120.5t-98 -39.5q-23 0 -47 7t-38 18l30 72q14 -10 26.5 -14t27.5 -4q30 0 51 20.5t35 50.5l12 26l-317 524h96l262 -439l192 439h86zM306 735l-23 48l195 104l30 -68z" />
    <glyph glyph-name="uniF465" unicode="&#x42b;`" horiz-adv-x="845" 
d="M655 700h85v-700h-85v700zM277 365q-35 0 -87 -6v-278l40 -2t44 -1q87 0 132.5 37t45.5 112q0 67 -45 102.5t-130 35.5zM190 440q29 2 52.5 3.5t40.5 1.5q132 0 195.5 -58.5t63.5 -157.5q0 -111 -73.5 -171t-204.5 -60q-45 0 -86.5 1t-72.5 1v700h85v-260zM361 735
l-23 48l195 104l30 -68z" />
    <glyph glyph-name="uniF466" unicode="&#x42d;`" horiz-adv-x="677" 
d="M193 397h346q-14 110 -89.5 171.5t-193.5 61.5q-47 0 -92.5 -13.5t-84.5 -43.5l-33 64q38 33 98 53t132 20q78 0 142.5 -25.5t111 -72t72 -112.5t25.5 -148q0 -80 -25.5 -146.5t-72 -114.5t-113 -74.5t-148.5 -26.5q-70 0 -130.5 19.5t-102.5 53.5l37 71q39 -29 88 -46.5
t106 -17.5q55 0 103 17t84 49t58.5 77.5t28.5 103.5h-347v80zM241 735l-23 48l195 104l30 -68z" />
    <glyph glyph-name="uniF467" unicode="&#x42e;`" horiz-adv-x="1078" 
d="M105 700h85v-303h151q7 67 35 124.5t72.5 99.5t103.5 65.5t129 23.5q76 0 140 -26.5t110 -74t71.5 -113.5t25.5 -146q0 -78 -25.5 -144t-71.5 -114t-110 -75t-140 -27q-69 0 -128.5 23.5t-105 66.5t-74 103.5t-33.5 133.5h-150v-317h-85v700zM429 350q0 -60 19.5 -111
t53.5 -88.5t80.5 -59t100.5 -21.5q60 0 107.5 21.5t80.5 59t50 89t17 110.5q0 61 -18.5 112.5t-52.5 88.5t-80.5 58t-103.5 21q-55 0 -101.5 -21t-80.5 -58t-53 -88.5t-19 -112.5zM511 735l-23 48l195 104l30 -68z" />
    <glyph glyph-name="uniF468" unicode="&#x42f;`" horiz-adv-x="623" 
d="M433 260h-131l-181 -260h-96l194 275q-27 11 -52 29t-44 42.5t-30.5 55.5t-11.5 69q0 47 16 89.5t49.5 74t85 50t122.5 18.5q18 0 40 -0.5t44.5 -1t43.5 -1t36 -0.5v-700h-85v260zM433 340v280q-17 1 -44.5 2t-50.5 1q-41 0 -72 -11.5t-52 -31t-32 -46.5t-11 -58
q0 -28 10.5 -51t27.5 -41t38.5 -29t44.5 -15h141zM316 735l-23 48l195 104l30 -68z" />
    <glyph glyph-name="uniF469" unicode="&#x401;`" horiz-adv-x="575" 
d="M124 813q0 21 12.5 33t30.5 12q16 0 28.5 -12t12.5 -33q0 -24 -12.5 -36.5t-28.5 -12.5q-18 0 -30.5 12.5t-12.5 36.5zM403 813q0 21 13.5 33t30.5 12q16 0 28.5 -12t12.5 -33q0 -24 -12.5 -36.5t-28.5 -12.5q-17 0 -30.5 12.5t-13.5 36.5zM264 741l-29 15l101 131
l67 -21zM105 700h395v-80h-310v-226h280v-80h-280v-234h320v-80h-405v700z" />
    <glyph glyph-name="uniF46A" unicode="&#x430;`" horiz-adv-x="460" 
d="M75 419q30 19 69 30t81 11q96 0 134.5 -48t38.5 -136v-276h-76v58q-20 -26 -54 -45.5t-90 -19.5q-62 0 -100 36.5t-38 102.5q0 34 13 61t35.5 45t54 27.5t67.5 9.5q26 0 57.5 -6t54.5 -23q0 31 -3.5 57.5t-14 45t-31 29t-53.5 10.5q-42 0 -69.5 -9.5t-54.5 -23.5zM206 65
q44 0 71.5 19t44.5 39v57q-42 30 -101 30q-18 0 -35.5 -4.5t-31 -13.5t-21.5 -23t-8 -33q0 -32 21 -51.5t60 -19.5zM235 531l-48 34l106 157l62 -48z" />
    <glyph glyph-name="uniF46B" unicode="&#x435;`" horiz-adv-x="520" 
d="M452 49q-33 -30 -78.5 -44.5t-90.5 -14.5q-55 0 -99.5 16.5t-76 47.5t-48.5 74.5t-17 96.5q0 49 15.5 92t45 74.5t72.5 50t99 18.5q43 0 81.5 -15t66.5 -42t44.5 -65t16.5 -84q0 -31 -5 -54h-346q5 -64 48 -99.5t109 -35.5q44 0 80 13.5t58 33.5zM270 385q-62 0 -99 -34
t-44 -86h273q-3 56 -37 88t-93 32zM264 531l-48 34l106 157l62 -48z" />
    <glyph glyph-name="uniF46C" unicode="&#x438;`" horiz-adv-x="565" 
d="M72 0v450h80v-335l260 335h80v-450h-80v335l-260 -335h-80zM272 531l-48 34l106 157l62 -48z" />
    <glyph glyph-name="uniF46D" unicode="&#x43e;`" horiz-adv-x="565" 
d="M42 225q0 51 17 94t48.5 74.5t76 49t98.5 17.5t98 -17.5t75.5 -49t49 -74.5t17.5 -94t-17.5 -94t-49 -74.5t-75.5 -49t-98 -17.5t-98.5 17.5t-76 49t-48.5 74.5t-17 94zM127 225q0 -35 11.5 -64.5t32 -50.5t49 -33t62.5 -12t62.5 11.5t49 32.5t32 50.5t11.5 65.5
q0 35 -11.5 64.5t-32 50.5t-49 33t-62.5 12q-33 0 -61.5 -11.5t-49 -32.5t-32.5 -50.5t-12 -65.5zM277 531l-48 34l106 157l62 -48z" />
    <glyph glyph-name="uniF46E" unicode="&#x443;`" horiz-adv-x="491" 
d="M301 0q-25 -60 -46 -99t-41 -61.5t-40.5 -31t-44.5 -8.5q-26 0 -46.5 8t-38.5 20l26 61q11 -5 23.5 -10t26.5 -5q29 0 51 24t45 78l10 24l-216 450h96l132 -286q8 -17 14 -34t13 -34q9 33 21 69l104 285h91zM250 531l-48 34l106 157l62 -48z" />
    <glyph glyph-name="uniF46F" unicode="&#x44b;`" horiz-adv-x="642" 
d="M72 450h80v-135h74q52 0 86 -13t54.5 -34.5t29 -49.5t8.5 -58t-9.5 -58.5t-31 -51t-57.5 -36.5t-89 -14h-145v450zM490 450h80v-450h-80v450zM152 240v-165h58q60 0 84.5 21t24.5 61q0 41 -25 62t-83 21h-59zM300 531l-48 34l106 157l62 -48z" />
    <glyph glyph-name="uniF470" unicode="&#x44d;`" horiz-adv-x="489" 
d="M142 261h221q-10 63 -52.5 93.5t-103.5 30.5q-42 0 -77 -13t-61 -36l-34 60q32 31 79.5 47.5t91.5 16.5q53 0 97.5 -16.5t76 -47.5t49 -74t17.5 -97q0 -49 -17 -92t-47.5 -74.5t-72.5 -50t-91 -18.5q-54 0 -101.5 13t-79.5 44l38 59q23 -21 61.5 -31t76.5 -10
q63 0 103 34t48 97h-222v65zM212 531l-48 34l106 157l62 -48z" />
    <glyph glyph-name="uniF471" unicode="&#x44e;`" horiz-adv-x="760" 
d="M72 450h85v-180h98q7 42 26 76.5t48 60t68 39.5t85 14q53 0 96.5 -17.5t74 -49t47.5 -74.5t17 -94t-17 -94t-48 -74.5t-74.5 -49t-95.5 -17.5q-48 0 -87.5 15t-69 41.5t-48 63t-23.5 80.5h-97v-190h-85v450zM342 225q0 -72 40 -113.5t103 -41.5t102.5 42t39.5 113
q0 34 -10 63t-28.5 49t-45 31.5t-58.5 11.5t-58 -11t-45 -31.5t-29.5 -49t-10.5 -63.5zM377 531l-48 34l106 157l62 -48z" />
    <glyph glyph-name="uniF472" unicode="&#x44f;`" horiz-adv-x="482" 
d="M409 450v-450h-80v150h-87l-110 -150h-97l130 170q-17 4 -34.5 14.5t-31.5 27t-22.5 38.5t-8.5 50q0 29 10.5 56t34 48t62 33.5t94.5 12.5h140zM153 298q0 -17 7.5 -30.5t19.5 -23t27 -14.5t30 -5h92v150h-73q-56 0 -79.5 -23t-23.5 -54zM273 531l-48 34l106 157l62 -48z
" />
    <glyph glyph-name="uniF473" unicode="&#x451;`" horiz-adv-x="520" 
d="M96 602q0 18 11.5 28.5t28.5 10.5q14 0 25.5 -10.5t11.5 -28.5q0 -20 -11.5 -30.5t-25.5 -10.5q-17 0 -28.5 10.5t-11.5 30.5zM360 602q0 18 12 28.5t28 10.5q14 0 25.5 -10.5t11.5 -28.5q0 -20 -11.5 -30.5t-25.5 -10.5q-16 0 -28 10.5t-12 30.5zM240 531l-39 27
l107 157l52 -41zM452 49q-33 -30 -78.5 -44.5t-90.5 -14.5q-55 0 -99.5 16.5t-76 47.5t-48.5 74.5t-17 96.5q0 49 15.5 92t45 74.5t72.5 50t99 18.5q43 0 81.5 -15t66.5 -42t44.5 -65t16.5 -84q0 -31 -5 -54h-346q5 -64 48 -99.5t109 -35.5q44 0 80 13.5t58 33.5zM270 385
q-62 0 -99 -34t-44 -86h273q-3 56 -37 88t-93 32z" />
    <glyph glyph-name="uniFB01" unicode="fi" horiz-adv-x="514" 
d="M364 375h-202v-375h-80v511q0 103 51.5 151t136.5 48q33 0 59 -6.5t46 -17t34.5 -23.5t25.5 -27l-58 -47q-14 19 -37 32.5t-57 13.5q-58 0 -89.5 -30.5t-31.5 -102.5v-52h282v-450h-80v375z" />
    <glyph glyph-name="uniFB02" unicode="fl" horiz-adv-x="561" 
d="M344 607q-14 11 -35 19.5t-47 8.5q-50 0 -75 -29t-25 -92v-64h103v-75h-103v-375h-80v523q0 94 41.5 140.5t116.5 46.5q36 0 65 -8.5t49 -23.5h70v-522q0 -46 12 -67.5t41 -21.5q17 0 31 6t25 14l18 -61q-17 -14 -44 -24t-62 -10q-101 0 -101 128v487z" />
    <glyph glyph-name=".notdef" horiz-adv-x="225" 
 />
    <glyph glyph-name=".null" horiz-adv-x="0" 
 />
    <glyph glyph-name="nonmarkingreturn" horiz-adv-x="333" 
 />
    <glyph glyph-name="space" unicode=" " horiz-adv-x="225" 
 />
    <glyph glyph-name="exclam" unicode="!" horiz-adv-x="310" 
d="M112 700h85v-485h-85v485zM99 54q0 20 15.5 36.5t42.5 16.5q23 0 38 -16.5t15 -36.5q0 -23 -15 -40t-38 -17q-27 0 -42.5 17t-15.5 40z" />
    <glyph glyph-name="quotedbl" unicode="&#x22;" horiz-adv-x="415" 
d="M250 700h80v-223h-80v223zM85 700h80v-223h-80v223z" />
    <glyph glyph-name="numbersign" unicode="#" horiz-adv-x="704" 
d="M384 195h-184l-76 -205l-63 22l68 183h-89v70h115l63 170h-178v70h204l76 205l63 -23l-68 -182h184l76 205l63 -22l-68 -183h94v-70h-120l-63 -170h183v-70h-209l-76 -205l-62 22zM226 265h184l63 170h-184z" />
    <glyph glyph-name="dollar" unicode="$" 
d="M430 179q0 43 -25.5 69t-63.5 45.5t-82 36.5t-82 41.5t-63.5 61t-25.5 94.5q0 34 12 64t34.5 54t54.5 40t73 22v83h80v-82q49 -6 89 -24.5t66 -46.5l-46 -64q-28 28 -62 42.5t-80 14.5q-63 0 -97 -28t-34 -75q0 -43 25.5 -69t63.5 -44.5t82 -35t82 -40.5t63.5 -61
t25.5 -97q0 -38 -13 -69.5t-37 -55.5t-56.5 -39.5t-71.5 -21.5v-94h-80v92q-29 3 -57.5 11.5t-53 22t-44.5 31t-31 38.5l49 58q15 -20 36 -35.5t44 -26t47 -16t46 -5.5q27 0 51 7t42 21t28.5 34t10.5 47z" />
    <glyph glyph-name="percent" unicode="%" horiz-adv-x="877" 
d="M673 710l46 -34l-513 -686l-47 33zM45 537q0 38 14 69t38.5 53.5t58 34.5t72.5 12t72.5 -12t58 -34.5t38.5 -53.5t14 -69t-14 -69t-38.5 -53.5t-58 -35t-72.5 -12.5t-72.5 12.5t-58 35t-38.5 53.5t-14 69zM120 537q0 -24 9 -43.5t24 -33t34.5 -21t40.5 -7.5
q22 0 41.5 7.5t34.5 21t23.5 33t8.5 43.5t-8.5 43t-23.5 32.5t-34.5 21t-41.5 7.5q-45 0 -76.5 -28t-31.5 -76zM466 164q0 38 14 69t38.5 53.5t58 34.5t72.5 12t72.5 -12t58 -34.5t38.5 -53.5t14 -69t-14 -69t-38.5 -53.5t-58 -35t-72.5 -12.5t-72.5 12.5t-58 35t-38.5 53.5
t-14 69zM541 164q0 -24 9 -43.5t24 -33t34.5 -21t40.5 -7.5q22 0 41.5 7.5t34.5 21t23.5 33t8.5 43.5t-8.5 43t-23.5 32.5t-34.5 21t-41.5 7.5q-45 0 -76.5 -28t-31.5 -76z" />
    <glyph glyph-name="ampersand" unicode="&#x26;" horiz-adv-x="744" 
d="M511 92q-33 -43 -85 -72.5t-130 -29.5q-50 0 -91.5 15t-71.5 41.5t-46.5 63t-16.5 80.5t14.5 79.5t37.5 65t53 53.5t61 45q-41 14 -67 47.5t-26 84.5q0 33 12.5 59.5t34 45.5t49.5 29.5t58 10.5q31 0 59 -10.5t49.5 -29.5t34 -45.5t12.5 -59.5q0 -24 -8 -46.5
t-22.5 -40.5t-33.5 -30t-40 -16l170 -219q26 45 42 105t16 132h79q0 -84 -23 -162.5t-65 -138.5l117 -149h-100zM298 70q57 0 97.5 23.5t66.5 62.5l-175 230q-55 -41 -91 -84t-36 -96q0 -30 11 -55t30 -43t44 -28t53 -10zM218 565q0 -32 23 -55.5t56 -23.5q34 0 57 23.5
t23 55.5q0 33 -23.5 56.5t-56.5 23.5t-56 -23t-23 -57z" />
    <glyph glyph-name="quotesingle" unicode="'" horiz-adv-x="250" 
d="M85 700h80v-223h-80v223z" />
    <glyph glyph-name="parenleft" unicode="(" horiz-adv-x="293" 
d="M242 -206q-57 49 -95.5 102t-62.5 107.5t-34 110.5t-10 111t10 110t34 109t63 107t96 105l50 -44q-93 -89 -133 -183t-40 -204q0 -111 44.5 -211.5t128.5 -175.5z" />
    <glyph glyph-name="parenright" unicode=")" horiz-adv-x="293" 
d="M0 -162q84 75 128.5 175.5t44.5 211.5q0 110 -40 204t-133 183l50 44q57 -52 96 -105t63 -107t34 -109t10 -110t-10 -111t-34 -110.5t-62.5 -107.5t-95.5 -102z" />
    <glyph glyph-name="asterisk" unicode="*" horiz-adv-x="479" 
d="M189 657q0 21 15.5 36.5t35.5 15.5q23 0 38 -15.5t15 -36.5q0 -22 -15 -36.5t-38 -14.5q-20 0 -35.5 14.5t-15.5 36.5zM187 375q0 23 16 38.5t36 15.5q21 0 37 -15.5t16 -38.5q0 -20 -16 -36t-37 -16q-20 0 -36 16t-16 36zM305 584q0 22 14.5 37.5t35.5 15.5
q22 0 37.5 -15.5t15.5 -37.5q0 -21 -15.5 -36.5t-37.5 -15.5q-21 0 -35.5 15.5t-14.5 36.5zM305 451q0 22 14.5 37t35.5 15q22 0 37.5 -15t15.5 -37t-15.5 -37.5t-37.5 -15.5q-21 0 -35.5 15.5t-14.5 37.5zM71 451q0 22 15 37t36 15q22 0 37 -15t15 -37t-15 -37.5t-37 -15.5
q-21 0 -36 15.5t-15 37.5zM71 584q0 22 15 37.5t36 15.5q22 0 37 -15.5t15 -37.5q0 -21 -15 -36.5t-37 -15.5q-21 0 -36 15.5t-15 36.5z" />
    <glyph glyph-name="plus" unicode="+" 
d="M69 395h188v191h75v-191h191v-70h-191v-193h-75v193h-188v70z" />
    <glyph glyph-name="comma" unicode="," horiz-adv-x="223" 
d="M54 46q0 23 14.5 38t42.5 15q32 0 52 -26t20 -71q0 -57 -30.5 -95.5t-79.5 -52.5l-22 38q20 7 38.5 23t25.5 44q5 20 4 31.5t-5 18.5q-4 -6 -10 -7.5t-12 -1.5q-15 0 -26.5 13t-11.5 33z" />
    <glyph glyph-name="hyphen" unicode="-" horiz-adv-x="389" 
d="M75 310h239v-75h-239v75z" />
    <glyph glyph-name="period" unicode="." horiz-adv-x="210" 
d="M50 54q0 20 15.5 36.5t41.5 16.5q23 0 38 -16.5t15 -36.5q0 -23 -15 -40t-38 -17q-26 0 -41.5 17t-15.5 40z" />
    <glyph glyph-name="slash" unicode="/" horiz-adv-x="335" 
d="M303 710l62 -23l-332 -895l-63 23z" />
    <glyph glyph-name="zero" unicode="0" horiz-adv-x="564" 
d="M55 350q0 79 13 144.5t41 113t71 74t102 26.5t102 -26.5t70.5 -74t41 -113t13.5 -144.5t-13 -145t-40.5 -113t-70 -73.5t-101.5 -26.5t-102.5 26.5t-71.5 73.5t-41.5 113t-13.5 145zM140 350q0 -136 34.5 -209.5t109.5 -73.5q76 0 108 73.5t32 209.5t-33 209.5t-109 73.5
q-77 0 -109.5 -74.5t-32.5 -208.5z" />
    <glyph glyph-name="one" unicode="1" horiz-adv-x="379" 
d="M203 704h56v-704h-80v589l-102 -80l-42 65z" />
    <glyph glyph-name="two" unicode="2" horiz-adv-x="527" 
d="M45 65q43 42 97 96.5t102 114.5t81 121.5t33 117.5q0 47 -28.5 80t-85.5 33q-42 0 -78 -27.5t-47 -84.5l-68 28q6 39 24.5 69.5t45 51.5t60 32t70.5 11q49 0 85 -15.5t60 -40.5t35.5 -56.5t11.5 -64.5q0 -49 -18 -98.5t-46 -96t-62 -88.5t-67 -76.5t-60 -59.5t-41 -37
h323v-75h-427v65z" />
    <glyph glyph-name="three" unicode="3" horiz-adv-x="532" 
d="M247 -10q-73 0 -129 30.5t-83 89.5l46 57q26 -49 70 -73t93 -24q66 0 102 36t36 90q0 57 -40 89.5t-103 32.5h-55v80h50q23 0 45 9t39 24.5t27 38t10 49.5q0 52 -30 81.5t-84 29.5q-52 0 -86.5 -23t-57.5 -64l-45 55q24 54 75 83t120 29q88 0 140.5 -47t52.5 -130
q0 -57 -27.5 -101t-81.5 -67v-3q33 -5 58 -20.5t42.5 -38.5t26.5 -51t9 -59q0 -47 -17 -84.5t-46.5 -64t-69.5 -40.5t-87 -14z" />
    <glyph glyph-name="four" unicode="4" horiz-adv-x="550" 
d="M343 175h-323v57l290 468h92l-277 -445h218v195h80v-195h97v-80h-97v-175h-80v175z" />
    <glyph glyph-name="five" unicode="5" horiz-adv-x="516" 
d="M143 700h316v-80h-246l-26 -189q11 3 26 5t30 2q48 0 88.5 -15t70 -43.5t46 -68.5t16.5 -90q0 -54 -18 -97t-49.5 -73t-73 -45.5t-87.5 -15.5q-28 0 -57 6.5t-56 19.5t-49.5 33t-38.5 47l46 59q26 -42 70 -63.5t87 -21.5q30 0 56 11t44.5 30.5t29.5 47t11 59.5
q0 31 -12 58.5t-34 47t-53.5 31t-70.5 11.5q-32 0 -62.5 -5.5t-47.5 -12.5z" />
    <glyph glyph-name="six" unicode="6" horiz-adv-x="554" 
d="M50 248q0 96 31.5 175.5t81 138.5t109.5 96.5t118 51.5l33 -61q-47 -12 -92 -38t-82.5 -65t-65 -91t-39.5 -117q21 40 61.5 66.5t103.5 26.5q43 0 79.5 -15.5t63.5 -44t42 -68t15 -87.5q0 -52 -18.5 -93.5t-48.5 -71t-69 -45.5t-80 -16q-59 0 -104 21t-76 56t-47 82
t-16 99zM135 248q0 -36 10 -68t29.5 -56.5t49 -39t68.5 -14.5q29 0 53 11.5t41.5 30.5t27.5 44.5t10 53.5q0 30 -9 57t-27 46.5t-44.5 31t-61.5 11.5q-31 0 -55.5 -10t-43 -25.5t-30.5 -35t-18 -37.5z" />
    <glyph glyph-name="seven" unicode="7" horiz-adv-x="485" 
d="M30 700h420v-52l-258 -648h-88l249 620h-323v80z" />
    <glyph glyph-name="eight" unicode="8" horiz-adv-x="595" 
d="M311 400q22 0 42.5 9t36 24.5t24.5 36.5t9 45q0 27 -10.5 48.5t-27.5 36.5t-40.5 22.5t-48.5 7.5q-52 0 -88 -31t-36 -84q0 -24 9 -45t25 -36.5t36 -24.5t43 -9h26zM288 320q-28 0 -53 -9t-44 -25.5t-30 -39.5t-11 -50t11 -50.5t30.5 -40t46.5 -26t59 -9.5q68 0 108 34.5
t40 91.5q0 30 -11 53t-29.5 38.5t-43 24t-51.5 8.5h-22zM298 -10q-47 0 -89.5 13t-74.5 38t-50.5 60t-18.5 80q0 66 36.5 113t95.5 64v3q-23 8 -43 24t-35 37.5t-23.5 48.5t-8.5 56q0 41 16.5 75t45 58t66.5 37t82 13q43 0 81.5 -13t67.5 -37t45.5 -58t16.5 -75
q0 -51 -30.5 -97.5t-84.5 -67.5v-3q29 -5 54 -19.5t43.5 -36.5t29 -51.5t10.5 -64.5q0 -47 -18.5 -83.5t-50 -62t-74 -38.5t-89.5 -13z" />
    <glyph glyph-name="nine" unicode="9" horiz-adv-x="551" 
d="M501 447q0 -99 -27 -179.5t-74 -139t-111 -94t-138 -44.5l-27 63q118 23 192 100.5t91 202.5q-21 -39 -61 -63t-97 -24q-46 0 -84.5 16.5t-66 45.5t-43 68.5t-15.5 84.5q0 52 19.5 93.5t51 71t71.5 45.5t81 16q58 0 102.5 -20t74.5 -55.5t45.5 -83.5t15.5 -104zM416 447
q0 36 -9 69t-27.5 58.5t-47.5 40.5t-68 15q-29 0 -54.5 -11.5t-44 -30.5t-29.5 -44.5t-11 -53.5q0 -29 9.5 -55t27.5 -46.5t45 -32.5t62 -12q31 0 55.5 9t43 23.5t30.5 33t18 37.5z" />
    <glyph glyph-name="colon" unicode=":" horiz-adv-x="320" 
d="M105 406q0 20 15.5 36.5t41.5 16.5q23 0 38 -16.5t15 -36.5q0 -23 -15 -40t-38 -17q-26 0 -41.5 17t-15.5 40zM105 54q0 20 15.5 36.5t41.5 16.5q23 0 38 -16.5t15 -36.5q0 -23 -15 -40t-38 -17q-26 0 -41.5 17t-15.5 40z" />
    <glyph glyph-name="semicolon" unicode=";" horiz-adv-x="324" 
d="M105 406q0 20 15.5 36.5t41.5 16.5q23 0 38 -16.5t15 -36.5q0 -23 -15 -40t-38 -17q-26 0 -41.5 17t-15.5 40zM105 46q0 23 14.5 38t42.5 15q32 0 52 -26t20 -71q0 -57 -30.5 -95.5t-79.5 -52.5l-22 38q20 7 38.5 23t25.5 44q5 20 4 31.5t-5 18.5q-4 -6 -10 -7.5
t-12 -1.5q-15 0 -26.5 13t-11.5 33z" />
    <glyph glyph-name="less" unicode="&#x3c;" 
d="M57 345v34l440 264v-87l-329 -194l329 -196v-87z" />
    <glyph glyph-name="equal" unicode="=" 
d="M69 485h454v-70h-454v70zM69 305h454v-70h-454v70z" />
    <glyph glyph-name="greater" unicode="&#x3e;" 
d="M95 79v87l329 196l-329 194v87l439 -264v-34z" />
    <glyph glyph-name="question" unicode="?" horiz-adv-x="466" 
d="M350 520q0 23 -9 43t-25.5 35t-38.5 23.5t-49 8.5q-45 0 -79.5 -19t-60.5 -55l-48 53q27 44 78 72.5t115 28.5q48 0 86 -14t64 -37.5t39.5 -55t13.5 -66.5q0 -50 -16 -83t-40 -57.5t-50.5 -43.5t-48 -39.5t-33 -46.5t-4.5 -64l-72 -1q-9 46 0.5 77.5t29.5 54t45.5 40
t48.5 37.5t38.5 45.5t15.5 63.5zM152 54q0 20 15.5 36.5t42.5 16.5q23 0 38 -16.5t15 -36.5q0 -23 -15 -40t-38 -17q-27 0 -42.5 17t-15.5 40z" />
    <glyph glyph-name="at" unicode="@" horiz-adv-x="1006" 
d="M628 47q-24 -24 -60.5 -40.5t-78.5 -16.5q-51 0 -92 16.5t-70.5 47.5t-45 74.5t-15.5 96.5q0 49 19 92t52.5 74.5t80 50t101.5 18.5q54 0 104 -14.5t85 -36.5v-334h21q31 0 56.5 15t43.5 41t27.5 62t9.5 77q0 67 -25.5 125t-71.5 101t-111.5 67.5t-144.5 24.5t-147 -26.5
t-118.5 -74t-79 -114.5t-28.5 -148q0 -78 28.5 -144.5t79 -115t118.5 -76t147 -27.5q57 0 108 12l5 -74q-27 -6 -55.5 -9.5t-57.5 -3.5q-97 0 -179 33.5t-142 92t-93.5 138.5t-33.5 174q0 91 33.5 171t93.5 139.5t142 93.5t179 34q91 0 169.5 -28.5t136 -80t90 -124
t32.5 -159.5q0 -51 -14.5 -99.5t-43 -87t-72 -61.5t-100.5 -23h-83v47zM502 65q39 0 73 18.5t53 40.5v232q-26 15 -54 22t-56 7q-38 0 -69 -13t-52.5 -35.5t-33.5 -52t-12 -63.5q0 -74 42 -115t109 -41z" />
    <glyph glyph-name="A" unicode="A" horiz-adv-x="705" 
d="M316 704h73l301 -704h-91l-90 212h-319l-89 -212h-86zM224 292h252l-126 299z" />
    <glyph glyph-name="B" unicode="B" horiz-adv-x="617" 
d="M105 699q15 0 37.5 1t48.5 1.5t54 1t52 0.5q63 0 106 -13.5t69.5 -36.5t38 -55t11.5 -68q0 -66 -34.5 -105.5t-85.5 -56.5v-2q66 -11 105.5 -52.5t39.5 -113.5q0 -53 -19.5 -91.5t-53.5 -63.5t-80.5 -36.5t-100.5 -11.5q-23 0 -49.5 0.5t-52 1t-48.5 1t-38 1.5v698z
M190 319v-238q17 -2 47.5 -3t60.5 -1q78 0 121 31.5t43 96.5q0 56 -41.5 85t-117.5 29h-113zM295 623q-28 0 -57 -1t-48 -2v-226h112q28 0 52.5 7.5t43 22.5t29 36.5t10.5 50.5q0 112 -142 112z" />
    <glyph glyph-name="C" unicode="C" horiz-adv-x="656" 
d="M626 68q-18 -18 -42.5 -32.5t-53 -24.5t-60.5 -15.5t-65 -5.5q-79 0 -144 25.5t-112 72.5t-73 113.5t-26 148.5q0 75 23.5 141t68.5 114.5t110 76.5t147 28q68 0 121.5 -18t91.5 -50l-39 -64q-35 26 -76.5 39t-96.5 13q-57 0 -105 -20.5t-82.5 -57.5t-53.5 -88.5
t-19 -113.5q0 -63 20 -114.5t56 -88t86 -57t111 -20.5q51 0 97 16.5t82 45.5z" />
    <glyph glyph-name="D" unicode="D" horiz-adv-x="739" 
d="M105 700h12q17 0 39 0.5t46 1t48.5 1t45.5 0.5q105 0 179.5 -28t122 -75.5t69.5 -109.5t22 -131q0 -75 -25 -140.5t-75.5 -114.5t-125.5 -77.5t-175 -28.5q-35 0 -81 1t-91 1h-11v700zM294 623q-32 0 -55 -1t-49 -2v-540q35 -1 63.5 -1.5t37.5 -0.5q75 0 132.5 21
t96.5 58.5t59 89t20 112.5q0 57 -19 105.5t-57.5 83.5t-95.5 55t-133 20z" />
    <glyph glyph-name="E" unicode="E" horiz-adv-x="575" 
d="M105 700h395v-80h-310v-226h280v-80h-280v-234h320v-80h-405v700z" />
    <glyph glyph-name="F" unicode="F" horiz-adv-x="540" 
d="M105 700h395v-80h-310v-248h280v-80h-280v-292h-85v700z" />
    <glyph glyph-name="G" unicode="G" horiz-adv-x="727" 
d="M398 356h269v-269q-23 -23 -54.5 -41t-67 -30.5t-71.5 -19t-69 -6.5q-82 0 -147.5 25.5t-111.5 72.5t-71 113.5t-25 148.5q0 75 24.5 141t69.5 114.5t108.5 76.5t141.5 28q72 0 124.5 -17t95.5 -51l-37 -68q-31 28 -76.5 42t-96.5 14q-59 0 -107.5 -20t-83 -56.5
t-54 -88.5t-19.5 -115q0 -64 19.5 -115.5t54.5 -88t84 -56.5t109 -20q25 0 51 4.5t50 13t44.5 19.5t34.5 25v144h-189v80z" />
    <glyph glyph-name="H" unicode="H" horiz-adv-x="765" 
d="M575 317h-385v-317h-85v700h85v-303h385v303h85v-700h-85v317z" />
    <glyph glyph-name="I" unicode="I" horiz-adv-x="335" 
d="M125 700h85v-700h-85v700z" />
    <glyph glyph-name="J" unicode="J" horiz-adv-x="374" 
d="M269 159q0 -79 -36 -124t-117 -45q-35 0 -63.5 11.5t-42.5 25.5l29 65q12 -9 29.5 -15.5t36.5 -6.5q46 0 62.5 29t16.5 74v527h85v-541z" />
    <glyph glyph-name="K" unicode="K" horiz-adv-x="653" 
d="M305 371l328 -371h-109l-317 365l307 335h103zM105 700h85v-700h-85v700z" />
    <glyph glyph-name="L" unicode="L" horiz-adv-x="550" 
d="M105 700h85v-620h345v-80h-430v700z" />
    <glyph glyph-name="M" unicode="M" horiz-adv-x="892" 
d="M105 700h86l263 -359l252 359h81v-700h-85v566l-248 -348h-13l-251 345v-563h-85v700z" />
    <glyph glyph-name="N" unicode="N" horiz-adv-x="795" 
d="M622 0l-437 550v-550h-80v700h68l437 -552v552h80v-700h-68z" />
    <glyph glyph-name="O" unicode="O" horiz-adv-x="814" 
d="M50 350q0 76 26.5 142t74 114.5t113 76t143.5 27.5q76 0 141.5 -26.5t113.5 -74t75 -113.5t27 -146q0 -78 -27 -144t-75 -114t-113.5 -75t-141.5 -27t-141.5 26.5t-113.5 74t-75 113.5t-27 146zM140 350q0 -60 20.5 -111t56.5 -88.5t85 -59t105 -21.5q60 0 109 21.5
t84.5 59t54.5 89t19 110.5q0 61 -20.5 112.5t-56.5 88.5t-85 58t-105 21q-57 0 -106 -21t-84.5 -58t-56 -88.5t-20.5 -112.5z" />
    <glyph glyph-name="P" unicode="P" horiz-adv-x="597" 
d="M105 0v700q15 0 39 0.5t50.5 0.5t51.5 0.5t42 0.5q75 0 125 -18.5t79.5 -49t42 -69.5t12.5 -80q0 -43 -15.5 -82.5t-46.5 -70t-78.5 -49t-111.5 -18.5q-21 0 -50 1t-55 3v-269h-85zM296 622q-21 0 -51 -0.5t-55 -1.5v-270q26 -2 51 -3.5t51 -1.5q78 0 121.5 37.5
t43.5 103.5q0 63 -38.5 99.5t-122.5 36.5z" />
    <glyph glyph-name="Q" unicode="Q" horiz-adv-x="814" 
d="M50 350q0 76 26.5 142t74 114.5t113 76t143.5 27.5q76 0 141.5 -26.5t113.5 -74t75 -113.5t27 -146q0 -79 -28 -145.5t-77 -114.5l77 -90h-100l-37 43q-42 -26 -90 -39.5t-102 -13.5q-76 0 -141.5 26.5t-113.5 74t-75 113.5t-27 146zM140 350q0 -60 20.5 -111t56.5 -88.5
t85 -59t105 -21.5q39 0 74 9.5t64 26.5l-61 73l56 51l64 -75q33 38 51.5 87.5t18.5 107.5q0 61 -20.5 112.5t-56.5 88.5t-85 58t-105 21q-57 0 -106 -21t-84.5 -58t-56 -88.5t-20.5 -112.5z" />
    <glyph glyph-name="R" unicode="R" horiz-adv-x="643" 
d="M105 0v700q15 0 43 0.5t58 0.5t54.5 0.5t32.5 0.5q72 0 119.5 -16.5t76.5 -45t41 -66.5t12 -80q0 -41 -13 -74t-34 -58t-48.5 -42t-56.5 -24l233 -296h-104l-215 280h-114v-280h-85zM288 622q-17 0 -45 -0.5t-53 -1.5v-260h103q30 0 59 9t51 26.5t35.5 42t13.5 55.5
q0 27 -8 50.5t-27.5 41t-51 27.5t-77.5 10z" />
    <glyph glyph-name="S" unicode="S" horiz-adv-x="549" 
d="M409 179q0 43 -25.5 69t-63.5 45.5t-82 36.5t-82 41.5t-63.5 61t-25.5 94.5q0 38 14.5 71.5t41.5 58t66 39t89 14.5q61 0 112 -20t81 -53l-46 -64q-28 28 -62 42.5t-80 14.5q-59 0 -92.5 -28t-33.5 -75q0 -43 25.5 -69t63.5 -44.5t82 -35t82 -40.5t63.5 -61t25.5 -97
q0 -43 -18 -78t-48.5 -60t-72 -38.5t-89.5 -13.5q-32 0 -66 7t-64 20.5t-54 33t-37 44.5l49 58q15 -20 36 -35.5t44 -26t47 -16t46 -5.5q27 0 52 7t44 21t30 34t11 47z" />
    <glyph glyph-name="T" unicode="T" horiz-adv-x="595" 
d="M10 700h575v-80h-245v-620h-85v620h-245v80z" />
    <glyph glyph-name="U" unicode="U" horiz-adv-x="751" 
d="M656 292q0 -80 -22 -137t-59.5 -93.5t-86.5 -53.5t-103 -17q-63 0 -116 19.5t-92 58t-60.5 96t-21.5 134.5v401h85v-385q0 -115 53 -179.5t152 -64.5q87 0 136.5 59t49.5 179v391h85v-408z" />
    <glyph glyph-name="V" unicode="V" horiz-adv-x="656" 
d="M363 -4h-63l-295 704h91l238 -576l231 576h86z" />
    <glyph glyph-name="W" unicode="W" horiz-adv-x="970" 
d="M758 0h-78l-192 563l-188 -563h-78l-212 700h96l163 -557l181 557h82l186 -557l159 557h83z" />
    <glyph glyph-name="X" unicode="X" horiz-adv-x="664" 
d="M387 356l257 -356h-101l-212 291l-211 -291h-100l257 356l-246 344h100l203 -280l200 280h101z" />
    <glyph glyph-name="Y" unicode="Y" horiz-adv-x="604" 
d="M343 300v-300h-85v300l-248 400h98l196 -320l197 320h93z" />
    <glyph glyph-name="Z" unicode="Z" horiz-adv-x="635" 
d="M60 700h525v-57l-430 -563h440v-80h-555v57l428 563h-408v80z" />
    <glyph glyph-name="bracketleft" unicode="[" horiz-adv-x="320" 
d="M60 650h250v-75h-170v-700h170v-75h-250v850z" />
    <glyph glyph-name="backslash" unicode="\" horiz-adv-x="335" 
d="M365 -185l-63 -23l-332 895l62 23z" />
    <glyph glyph-name="bracketright" unicode="]" horiz-adv-x="320" 
d="M260 -200h-250v75h170v700h-170v75h250v-850z" />
    <glyph glyph-name="asciicircum" unicode="^" horiz-adv-x="492" 
d="M220 708h54l178 -258h-87l-119 176l-119 -176h-87z" />
    <glyph glyph-name="underscore" unicode="_" horiz-adv-x="312" 
d="M0 -120h312v-80h-312v80z" />
    <glyph glyph-name="grave" unicode="`" horiz-adv-x="290" 
d="M60 673l63 48l107 -156l-49 -34z" />
    <glyph glyph-name="a" unicode="a" horiz-adv-x="460" 
d="M75 419q30 19 69 30t81 11q96 0 134.5 -48t38.5 -136v-276h-76v58q-20 -26 -54 -45.5t-90 -19.5q-62 0 -100 36.5t-38 102.5q0 34 13 61t35.5 45t54 27.5t67.5 9.5q26 0 57.5 -6t54.5 -23q0 31 -3.5 57.5t-14 45t-31 29t-53.5 10.5q-42 0 -69.5 -9.5t-54.5 -23.5zM206 65
q44 0 71.5 19t44.5 39v57q-42 30 -101 30q-18 0 -35.5 -4.5t-31 -13.5t-21.5 -23t-8 -33q0 -32 21 -51.5t60 -19.5z" />
    <glyph glyph-name="b" unicode="b" horiz-adv-x="549" 
d="M72 700h80v-293q24 22 61.5 37.5t78.5 15.5q50 0 90 -17t67.5 -47t42 -72t14.5 -92q0 -56 -18 -100.5t-50.5 -76t-78.5 -48.5t-103 -17q-54 0 -103 14.5t-81 37.5v658zM274 385q-39 0 -72 -18.5t-50 -39.5v-231q27 -18 53 -24.5t55 -6.5q34 0 63.5 11t51 31.5t34 50.5
t12.5 68q0 76 -40.5 117.5t-106.5 41.5z" />
    <glyph glyph-name="c" unicode="c" horiz-adv-x="488" 
d="M456 65q-29 -37 -75 -56t-98 -19q-54 0 -98 16.5t-76 47.5t-49.5 74.5t-17.5 96.5q0 49 17 92t47.5 74.5t72 50t91.5 18.5q54 0 99.5 -13.5t77.5 -45.5l-37 -63q-29 26 -61.5 36.5t-67.5 10.5q-30 0 -58 -11.5t-49.5 -32.5t-34 -50.5t-12.5 -65.5q0 -37 13 -66.5
t35 -50.5t51.5 -32t62.5 -11q41 0 73.5 16t55.5 42z" />
    <glyph glyph-name="d" unicode="d" horiz-adv-x="554" 
d="M402 57q-25 -27 -61 -46t-82 -19q-50 0 -90 16.5t-68 46.5t-43.5 72.5t-15.5 94.5t18.5 96t51.5 75.5t78 49t98 17.5q36 0 63.5 -7.5t50.5 -24.5v272h80v-700h-80v57zM274 67q39 0 73 18.5t55 41.5v223q-55 35 -111 35q-33 0 -63 -11t-52.5 -32t-35.5 -51t-13 -67t11 -66
t31 -49.5t46.5 -31t58.5 -10.5z" />
    <glyph glyph-name="e" unicode="e" horiz-adv-x="520" 
d="M452 49q-33 -30 -78.5 -44.5t-90.5 -14.5q-55 0 -99.5 16.5t-76 47.5t-48.5 74.5t-17 96.5q0 49 15.5 92t45 74.5t72.5 50t99 18.5q43 0 81.5 -15t66.5 -42t44.5 -65t16.5 -84q0 -31 -5 -54h-346q5 -64 48 -99.5t109 -35.5q44 0 80 13.5t58 33.5zM270 385q-62 0 -99 -34
t-44 -86h273q-3 56 -37 88t-93 32z" />
    <glyph glyph-name="f" unicode="f" horiz-adv-x="330" 
d="M82 523q0 94 41.5 140.5t116.5 46.5q41 0 72 -11.5t48 -28.5l-28 -61q-14 12 -33.5 19t-45.5 7q-43 0 -67 -29t-24 -92v-64h150v-75h-150v-375h-80v523z" />
    <glyph glyph-name="g" unicode="g" horiz-adv-x="494" 
d="M10 -65q0 55 39.5 89t104.5 48q-6 8 -8.5 17.5t-2.5 19.5q0 23 12 38q-48 20 -74.5 59t-26.5 89q0 34 13 64t37 52.5t58 35.5t76 13q33 0 62 -8.5t52 -24.5l132 32l2 -65l-85 -21q21 -35 21 -78q0 -34 -13 -63.5t-37 -51.5t-58 -34.5t-76 -12.5h-15t-15 1q-3 -6 -4 -12.5
t-1 -12.5q0 -18 9 -30q7 0 13.5 0.5t13.5 0.5q49 0 91 -9t72.5 -27t48 -45t17.5 -64q0 -36 -17.5 -63t-48 -44.5t-72.5 -26.5t-91 -9t-91 8.5t-72.5 26t-48 44.5t-17.5 64zM85 -65q0 -38 42 -58t112 -20t112 20t42 58t-41 59t-113 21t-113 -21t-41 -59zM129 295
q0 -42 29.5 -69.5t79.5 -27.5q48 0 78.5 26.5t30.5 70.5q0 42 -29 71t-80 29q-50 0 -79.5 -29t-29.5 -71z" />
    <glyph glyph-name="h" unicode="h" horiz-adv-x="549" 
d="M72 700h80v-302q25 26 64.5 43t82.5 17q88 0 137.5 -47t49.5 -153v-258h-80v247q0 136 -126 136q-38 0 -72.5 -16.5t-55.5 -40.5v-326h-80v700z" />
    <glyph glyph-name="i" unicode="i" horiz-adv-x="268" 
d="M94 450h80v-450h-80v450zM84 619q0 22 15.5 35t36.5 13q19 0 34 -13t15 -35q0 -25 -15 -38.5t-34 -13.5q-21 0 -36.5 13.5t-15.5 38.5z" />
    <glyph glyph-name="j" unicode="j" horiz-adv-x="266" 
d="M178 -33q0 -83 -33 -129t-108 -46q-32 0 -59 9t-41 20l23 64q12 -8 26.5 -13t32.5 -5q43 0 61 28t18 78v477h80v-483zM87 619q0 22 15.5 35t36.5 13q19 0 34 -13t15 -35q0 -25 -15 -38.5t-34 -13.5q-21 0 -36.5 13.5t-15.5 38.5z" />
    <glyph glyph-name="k" unicode="k" horiz-adv-x="491" 
d="M266 241l215 -241h-109l-203 235l186 215h102zM72 700h80v-700h-80v700z" />
    <glyph glyph-name="l" unicode="l" horiz-adv-x="290" 
d="M72 700h80v-544q0 -46 12 -67.5t41 -21.5q17 0 31.5 6t25.5 14l18 -61q-18 -14 -44.5 -24t-61.5 -10q-102 0 -102 128v580z" />
    <glyph glyph-name="m" unicode="m" horiz-adv-x="803" 
d="M740 0h-80v273q0 110 -97 110q-41 0 -71.5 -18.5t-46.5 -46.5q1 -6 1 -15v-17v-286h-80v290q0 42 -24 67.5t-72 25.5q-39 0 -70 -18t-48 -43v-322h-80v450h80v-57q25 29 65 47t84 18q53 0 88 -21.5t48 -56.5q24 35 65.5 56.5t92.5 21.5q31 0 57.5 -8t46 -27t30.5 -50.5
t11 -77.5v-295z" />
    <glyph glyph-name="n" unicode="n" horiz-adv-x="549" 
d="M72 450h80v-55q23 26 62.5 44.5t84.5 18.5q88 0 137.5 -46t49.5 -152v-260h-80v245q0 71 -32 104.5t-95 33.5q-38 0 -71.5 -16.5t-55.5 -41.5v-325h-80v450z" />
    <glyph glyph-name="o" unicode="o" horiz-adv-x="565" 
d="M42 225q0 51 17 94t48.5 74.5t76 49t98.5 17.5t98 -17.5t75.5 -49t49 -74.5t17.5 -94t-17.5 -94t-49 -74.5t-75.5 -49t-98 -17.5t-98.5 17.5t-76 49t-48.5 74.5t-17 94zM127 225q0 -35 11.5 -64.5t32 -50.5t49 -33t62.5 -12t62.5 11.5t49 32.5t32 50.5t11.5 65.5
q0 35 -11.5 64.5t-32 50.5t-49 33t-62.5 12q-33 0 -61.5 -11.5t-49 -32.5t-32.5 -50.5t-12 -65.5z" />
    <glyph glyph-name="p" unicode="p" horiz-adv-x="556" 
d="M72 450h80v-53q23 27 64.5 45t88.5 18q48 0 86.5 -17t65.5 -47t41.5 -72t14.5 -92q0 -51 -16.5 -95.5t-47.5 -77t-74 -51t-96 -18.5q-36 0 -69.5 7.5t-57.5 23.5v-221h-80v650zM282 385q-40 0 -74.5 -18t-55.5 -44v-223q30 -20 59 -27.5t61 -7.5q36 0 65 12.5t49 34
t31 51.5t11 66q0 34 -9.5 62.5t-28.5 49.5t-46 32.5t-62 11.5z" />
    <glyph glyph-name="q" unicode="q" horiz-adv-x="557" 
d="M404 36q-27 -21 -62 -33.5t-69 -12.5q-53 0 -95.5 16.5t-72.5 47.5t-46.5 74.5t-16.5 96.5q0 49 19 92t52.5 74.5t80 50t101.5 18.5q54 0 104 -14.5t85 -36.5v-609h-80v236zM283 65q36 0 69.5 16t51.5 38v237q-26 15 -54 22t-56 7q-38 0 -69 -13t-52.5 -35.5t-33.5 -52
t-12 -63.5q0 -35 11 -63.5t31.5 -49t49.5 -32t64 -11.5z" />
    <glyph glyph-name="r" unicode="r" horiz-adv-x="340" 
d="M72 450h80v-53q17 26 43.5 43.5t69.5 17.5q28 0 43.5 -4.5t26.5 -12.5l-28 -75q-17 10 -29 13.5t-32 3.5q-39 0 -60 -19.5t-34 -44.5v-319h-80v450z" />
    <glyph glyph-name="s" unicode="s" horiz-adv-x="430" 
d="M300 122q0 23 -18 36t-45 22.5t-58.5 19t-58.5 25.5t-45 41.5t-18 66.5q0 60 43 93.5t110 33.5q56 0 95.5 -16.5t59.5 -36.5l-38 -61q-20 18 -49 31t-64 13q-34 0 -53 -16.5t-19 -39.5q0 -24 18 -37.5t45 -23.5t58.5 -19.5t58.5 -24.5t45 -39.5t18 -63.5
q0 -36 -14.5 -61.5t-38.5 -42t-55.5 -24.5t-65.5 -8q-27 0 -53.5 6.5t-49 16.5t-39 22.5t-24.5 24.5l45 57q10 -11 25 -21.5t33 -18.5t36.5 -12.5t35.5 -4.5q32 0 56 15.5t24 46.5z" />
    <glyph glyph-name="t" unicode="t" horiz-adv-x="353" 
d="M62 575h80v-125h165v-75h-165v-196q0 -54 18.5 -83t61.5 -29q23 0 41 8t30 17l25 -62q-18 -15 -47.5 -26.5t-67.5 -11.5q-76 0 -108.5 46t-32.5 133v404z" />
    <glyph glyph-name="u" unicode="u" horiz-adv-x="540" 
d="M467 0h-80v64q-23 -29 -64 -51.5t-95 -22.5q-75 0 -120.5 46.5t-45.5 145.5v268h80v-250q0 -64 27 -99.5t89 -35.5q39 0 73.5 20t55.5 47v318h80v-450z" />
    <glyph glyph-name="v" unicode="v" horiz-adv-x="476" 
d="M272 -4h-58l-209 454h94l109 -243q10 -22 20 -48.5t18 -51.5q8 25 17.5 52t19.5 50l103 241h85z" />
    <glyph glyph-name="w" unicode="w" horiz-adv-x="706" 
d="M552 -4h-70l-112 293q-5 14 -9 27.5t-8 27.5q-5 -16 -9 -30t-10 -28l-109 -290h-66l-149 454h86l88 -284q5 -17 8.5 -32t8.5 -31q5 15 8.5 29.5t10.5 33.5l102 284h69l103 -283q6 -16 11 -32t10 -33q7 34 18 69l82 279h81z" />
    <glyph glyph-name="x" unicode="x" horiz-adv-x="507" 
d="M311 233l171 -233h-98l-132 182l-134 -182h-93l170 229l-160 221h98l122 -170l124 170h93z" />
    <glyph glyph-name="y" unicode="y" horiz-adv-x="491" 
d="M301 0q-25 -60 -46 -99t-41 -61.5t-40.5 -31t-44.5 -8.5q-26 0 -46.5 8t-38.5 20l26 61q11 -5 23.5 -10t26.5 -5q29 0 51 24t45 78l10 24l-216 450h96l132 -286q8 -17 14 -34t13 -34q9 33 21 69l104 285h91z" />
    <glyph glyph-name="z" unicode="z" horiz-adv-x="485" 
d="M60 450h380v-56l-282 -319h277v-75h-390v56l281 319h-266v75z" />
    <glyph glyph-name="braceleft" unicode="{" horiz-adv-x="335" 
d="M110 92q0 30 -8.5 49t-21.5 30t-29 15t-31 4v70q13 0 29 4.5t29.5 17t22.5 34t9 54.5v139q0 69 30 105t108 36h67v-75h-48q-43 0 -60 -21t-17 -72v-142q0 -49 -20.5 -79t-54.5 -35q32 -4 53.5 -30t21.5 -84v-145q0 -50 20 -71t63 -21h42v-75h-71q-65 0 -99.5 31
t-34.5 104v157z" />
    <glyph glyph-name="bar" unicode="|" horiz-adv-x="330" 
d="M125 700h80v-700h-80v700z" />
    <glyph glyph-name="braceright" unicode="}" horiz-adv-x="335" 
d="M225 -65q0 -73 -34.5 -104t-100.5 -31h-70v75h42q43 0 63 21t20 71v145q0 58 21.5 84t53.5 30q-34 5 -54.5 35t-20.5 79v142q0 51 -17.5 72t-59.5 21h-48v75h67q77 0 107.5 -36.5t30.5 -104.5v-139q0 -33 9 -54.5t22.5 -34t29 -17t29.5 -4.5v-70q-15 0 -31 -4t-29 -15
t-21.5 -30t-8.5 -49v-157z" />
    <glyph glyph-name="asciitilde" unicode="~" 
d="M50 358q32 34 67 53t69 19q31 0 60 -11t57.5 -24.5t57 -24.5t57.5 -11q23 0 47 12.5t44 32.5l32 -55q-29 -27 -60.5 -43.5t-63.5 -16.5q-30 0 -59 11t-57 24.5t-56 24.5t-55 11q-29 0 -55.5 -16t-48.5 -37z" />
    <glyph glyph-name="uni00A0" unicode="&#xa0;" horiz-adv-x="225" 
 />
    <glyph glyph-name="exclamdown" unicode="&#xa1;" horiz-adv-x="310" 
d="M198 -243h-85v485h85v-485zM211 403q0 -20 -15.5 -36.5t-42.5 -16.5q-23 0 -38 16.5t-15 36.5q0 23 15 40t38 17q27 0 42.5 -17t15.5 -40z" />
    <glyph glyph-name="cent" unicode="&#xa2;" 
d="M503 65q-25 -32 -62 -50t-81 -23v-112h-80v114q-44 7 -79 26.5t-60 49.5t-38.5 69t-13.5 86q0 44 14 83.5t39 70t60.5 51t77.5 27.5v109h80v-108q41 -5 74.5 -18.5t59.5 -38.5l-37 -63q-29 26 -61.5 36.5t-67.5 10.5q-30 0 -58 -11.5t-49.5 -32.5t-34 -50.5t-12.5 -65.5
q0 -37 13 -66.5t35 -50.5t51.5 -32t62.5 -11q41 0 73.5 16t55.5 42z" />
    <glyph glyph-name="sterling" unicode="&#xa3;" 
d="M75 340h79q-8 19 -17.5 37.5t-17.5 39t-13.5 44t-5.5 53.5q0 39 15 74.5t43.5 62t68 42t89.5 15.5q63 0 111 -20.5t80 -55.5l-45 -62q-61 58 -144 58q-29 0 -53 -9.5t-40.5 -26t-25.5 -38t-9 -45.5q0 -28 6 -49.5t15 -41t18.5 -38t17.5 -40.5h162v-65h-150v-9
q0 -45 -17 -79t-37 -60q27 -3 53 -11t52 -17t51.5 -16t51.5 -7q28 0 54 9t55 37l36 -62q-32 -32 -70 -48t-77 -16q-29 0 -57.5 8t-56.5 18t-56.5 18t-57.5 8t-57 -14.5t-54 -40.5l-34 63q20 22 41 36.5t43 23.5q22 28 37 61t15 74v12t-1 12h-98v65z" />
    <glyph glyph-name="currency" unicode="&#xa4;" 
d="M69 345q0 76 41 135l-83 85l50 50l83 -85q27 20 61 31t75 11t74.5 -11t60.5 -30l88 87l50 -50l-88 -87q20 -29 31 -64t11 -72q0 -76 -42 -135l85 -85l-49 -49l-85 84q-27 -20 -61 -31t-75 -11q-42 0 -75.5 11t-60.5 31l-88 -88l-49 49l87 89q-20 29 -30.5 63.5
t-10.5 71.5zM144 345q0 -32 10.5 -60.5t30 -50t47.5 -34t64 -12.5q37 0 65 12.5t47.5 34t29.5 50t10 60.5q0 33 -10.5 61.5t-30 50t-47.5 33.5t-64 12q-35 0 -63.5 -12.5t-48 -33.5t-30 -49.5t-10.5 -61.5z" />
    <glyph glyph-name="yen" unicode="&#xa5;" 
d="M68 364h146l-195 336h98l181 -320l182 320h93l-198 -336h147v-65h-185v-105h185v-65h-185v-129h-85v129h-184v65h184v105h-184v65z" />
    <glyph glyph-name="brokenbar" unicode="&#xa6;" horiz-adv-x="330" 
d="M125 440v260h80v-260h-80zM205 260v-260h-80v260h80z" />
    <glyph glyph-name="section" unicode="&#xa7;" horiz-adv-x="524" 
d="M65 249q0 63 34.5 110.5t97.5 64.5q-34 19 -58 53t-24 82q0 29 11 55t31.5 45t50.5 30t68 11q51 0 83.5 -20.5t51.5 -44.5l-48 -54q-14 16 -32.5 30t-52.5 14q-35 0 -59 -23.5t-24 -57.5q0 -41 25.5 -67.5t61.5 -44.5q41 -3 74 -18t56 -39.5t35 -56.5t12 -69
q0 -63 -35.5 -110.5t-98.5 -64.5q33 -19 57.5 -52t24.5 -81q0 -29 -11 -55t-31.5 -45t-50.5 -30t-68 -11q-51 0 -84 20t-52 45l48 54q7 -8 15 -16t18 -14t23 -10t30 -4q35 0 59 23.5t24 57.5q0 41 -26 67t-63 44q-41 4 -73 19.5t-54 39.5t-34 55.5t-12 67.5zM145 249
q0 -23 8.5 -43.5t24 -36t37 -24.5t47.5 -9q27 0 48.5 9t36.5 24.5t23.5 36t8.5 43.5t-8.5 43.5t-24 36.5t-37 25t-47.5 9t-47.5 -9t-37 -24.5t-24 -36.5t-8.5 -44z" />
    <glyph glyph-name="dieresis" unicode="&#xa8;" horiz-adv-x="415" 
d="M60 610q0 21 13.5 33.5t33.5 12.5q17 0 30.5 -12.5t13.5 -33.5q0 -24 -13.5 -37t-30.5 -13q-20 0 -33.5 13t-13.5 37zM263 610q0 21 14 33.5t34 12.5q17 0 30.5 -12.5t13.5 -33.5q0 -24 -13.5 -37t-30.5 -13q-20 0 -34 13t-14 37z" />
    <glyph glyph-name="copyright" unicode="&#xa9;" horiz-adv-x="1018" 
d="M75 221q0 91 33 170t91.5 137.5t137.5 92.5t172 34t172 -34t137.5 -92.5t91.5 -137.5t33 -170t-33 -170t-91.5 -137.5t-137.5 -92.5t-172 -34t-172 34t-137.5 92.5t-91.5 137.5t-33 170zM145 220q0 -75 27.5 -141t76 -115.5t115 -78t145.5 -28.5q78 0 145 28.5t115.5 78
t76 115.5t27.5 141t-27.5 141.5t-76 116t-115.5 78.5t-145 29q-79 0 -145.5 -29t-115 -78.5t-76 -116t-27.5 -141.5zM690 65q-29 -37 -75 -56t-98 -19q-54 0 -98 16.5t-76 47.5t-49.5 74.5t-17.5 96.5q0 49 17 92t47.5 74.5t72 50t91.5 18.5q54 0 99.5 -13.5t77.5 -45.5
l-37 -63q-29 26 -61.5 36.5t-67.5 10.5q-30 0 -58 -11.5t-49.5 -32.5t-34 -50.5t-12.5 -65.5q0 -37 13 -66.5t35 -50.5t51.5 -32t62.5 -11q41 0 73.5 16t55.5 42z" />
    <glyph glyph-name="ordfeminine" unicode="&#xaa;" horiz-adv-x="425" 
d="M84 620q22 16 54 27t76 11q29 0 55 -8t45 -24t30 -40t11 -57v-204h-70v47q-17 -21 -45.5 -36t-78.5 -15q-51 0 -81 30.5t-30 72.5q0 53 33.5 80.5t92.5 27.5q66 0 109 -25v5q0 45 -22 65.5t-62 20.5q-28 0 -49 -6.5t-38 -18.5zM195 380q29 0 51 11t39 25v46
q-17 8 -40.5 14t-45.5 6q-32 0 -53 -13.5t-21 -37.5q0 -23 19 -37t51 -14z" />
    <glyph glyph-name="guillemotleft" unicode="&#xab;" horiz-adv-x="530" 
d="M235 248v4l188 216l52 -46l-148 -172l147 -173l-54 -47zM45 248v4l188 216l52 -46l-148 -172l147 -173l-54 -47z" />
    <glyph glyph-name="logicalnot" unicode="&#xac;" 
d="M59 395h474v-201h-70v131h-404v70z" />
    <glyph glyph-name="uni00AD" unicode="&#xad;" horiz-adv-x="389" 
d="M75 310h239v-75h-239v75z" />
    <glyph glyph-name="registered" unicode="&#xae;" horiz-adv-x="618" 
d="M50 497q0 53 20 100t55.5 82t83 55.5t101.5 20.5q53 0 100 -20.5t82 -55.5t55.5 -82t20.5 -100q0 -54 -20.5 -102t-55.5 -83t-82 -55.5t-100 -20.5q-54 0 -101.5 20.5t-83 55.5t-55.5 83t-20 102zM115 496q0 -40 15.5 -75.5t41.5 -61.5t61.5 -41.5t75.5 -15.5t75.5 15.5
t61.5 41.5t41.5 61.5t15.5 75.5t-15.5 75.5t-41.5 61.5t-61.5 41.5t-75.5 15.5t-75.5 -15.5t-61.5 -41.5t-41.5 -61.5t-15.5 -75.5zM211 360v280h98q59 0 83.5 -25t24.5 -62q0 -29 -17 -51t-43 -30l74 -112h-65l-63 101h-37v-101h-55zM266 600v-99h39q24 0 40.5 14t16.5 37
q0 22 -15.5 35t-44.5 13h-36z" />
    <glyph glyph-name="macron" unicode="&#xaf;" horiz-adv-x="384" 
d="M60 645h264v-65h-264v65z" />
    <glyph glyph-name="degree" unicode="&#xb0;" horiz-adv-x="410" 
d="M50 569q0 33 12 61.5t33 49.5t49 33t60 12t60.5 -11.5t49.5 -31.5t33.5 -48.5t12.5 -61.5t-12.5 -61.5t-33.5 -49.5t-49.5 -33.5t-60.5 -12.5t-60 12t-49 32.5t-33 48.5t-12 61zM120 570q0 -35 25 -60t60 -25q17 0 32.5 6.5t27 18t18.5 27t7 33.5q0 35 -25 60t-60 25
q-18 0 -33.5 -7t-27 -18.5t-18 -27t-6.5 -32.5z" />
    <glyph glyph-name="plusminus" unicode="&#xb1;" 
d="M69 480h188v191h75v-191h191v-70h-191v-123h-75v123h-188v70zM69 235h454v-70h-454v70z" />
    <glyph glyph-name="uni00B2" unicode="&#xb2;" horiz-adv-x="349" 
d="M35 401q27 18 60.5 40t62.5 46.5t49 50.5t20 51q0 23 -15.5 39t-45.5 16q-24 0 -44.5 -16t-24.5 -42l-59 21q8 46 45 71.5t90 25.5q65 0 96.5 -31t31.5 -76q0 -35 -21 -65.5t-49.5 -54.5t-57.5 -41.5t-46 -25.5h192v-60h-284v51z" />
    <glyph glyph-name="uni00B3" unicode="&#xb3;" horiz-adv-x="350" 
d="M169 344q-46 0 -85 17t-59 53l41 38q12 -23 38 -36.5t54 -13.5q38 0 57.5 15t19.5 38q0 20 -18 33.5t-53 13.5h-34v50h30q26 0 44 14.5t18 36.5q0 21 -17 33t-46 12q-34 0 -55.5 -14t-33.5 -31l-34 38q15 27 49 45.5t88 18.5q56 0 90 -23t34 -65q0 -31 -19.5 -53
t-54.5 -31v-1q43 -3 65 -27.5t22 -55.5q0 -24 -11 -43.5t-30.5 -33t-45 -21t-54.5 -7.5z" />
    <glyph glyph-name="acute" unicode="&#xb4;" horiz-adv-x="288" 
d="M108 531l-48 34l106 157l62 -48z" />
    <glyph glyph-name="uni00B5" unicode="&#xb5;" horiz-adv-x="545" 
d="M472 0h-80v64q-23 -29 -64 -51.5t-95 -22.5q-49 0 -86 20v-210h-80v650h80v-250q0 -64 27 -99.5t89 -35.5q39 0 73.5 20t55.5 47v318h80v-450z" />
    <glyph glyph-name="uni00B5" unicode="&#x3bc;" horiz-adv-x="545" 
d="M472 0h-80v64q-23 -29 -64 -51.5t-95 -22.5q-49 0 -86 20v-210h-80v650h80v-250q0 -64 27 -99.5t89 -35.5q39 0 73.5 20t55.5 47v318h80v-450z" />
    <glyph glyph-name="paragraph" unicode="&#xb6;" horiz-adv-x="461" 
d="M45 481q0 51 15.5 91.5t44 69t67.5 43.5t87 15h172v-75h-94v-638q0 -94 -39 -144.5t-126 -50.5q-35 0 -66 12t-48 29l33 58q12 -9 32 -16.5t43 -7.5q28 0 46 9.5t28 26.5t13.5 39t3.5 48v273q-43 0 -81.5 15t-67.5 43t-46 68.5t-17 91.5z" />
    <glyph glyph-name="periodcentered" unicode="&#xb7;" horiz-adv-x="225" 
d="M57 299q0 20 15.5 36.5t41.5 16.5q23 0 38 -16.5t15 -36.5q0 -23 -15 -40t-38 -17q-26 0 -41.5 17t-15.5 40z" />
    <glyph glyph-name="cedilla" unicode="&#xb8;" horiz-adv-x="351" 
d="M84 -132q15 -10 34 -16.5t37 -6.5q24 0 40 9.5t16 26.5q0 18 -13 28.5t-45 10.5h-6v80h43v-43q51 -3 76 -24t25 -56q0 -36 -32.5 -59t-93.5 -23q-38 0 -62.5 11t-42.5 23z" />
    <glyph glyph-name="uni00B9" unicode="&#xb9;" horiz-adv-x="252" 
d="M127 701h50v-351h-70v269l-58 -37l-27 48z" />
    <glyph glyph-name="ordmasculine" unicode="&#xba;" horiz-adv-x="476" 
d="M55 489q0 38 14 69t38.5 53.5t58 34.5t72.5 12t72.5 -12t58 -34.5t38.5 -53.5t14 -69t-14 -69t-38.5 -53.5t-58 -35t-72.5 -12.5t-72.5 12.5t-58 35t-38.5 53.5t-14 69zM130 489q0 -24 9 -43.5t24 -33t34.5 -21t40.5 -7.5q22 0 41.5 7.5t34.5 21t23.5 33t8.5 43.5
t-8.5 43t-23.5 32.5t-34.5 21t-41.5 7.5q-45 0 -76.5 -28t-31.5 -76z" />
    <glyph glyph-name="guillemotright" unicode="&#xbb;" horiz-adv-x="530" 
d="M300 30l-54 47l147 173l-148 172l52 46l188 -216v-4zM110 30l-54 47l147 173l-148 172l52 46l188 -216v-4z" />
    <glyph glyph-name="onequarter" unicode="&#xbc;" horiz-adv-x="673" 
d="M137 701h50v-351h-70v269l-58 -37l-27 48zM564 710l46 -34l-513 -686l-47 33zM529 79h-194v46l168 225h67l-163 -216h122v91h65v-91h59v-55h-59v-79h-65v79z" />
    <glyph glyph-name="onehalf" unicode="&#xbd;" horiz-adv-x="689" 
d="M137 701h50v-351h-70v269l-58 -37l-27 48zM544 710l46 -34l-513 -686l-47 33zM365 51q27 18 60.5 40t62.5 46.5t49 50.5t20 51q0 23 -15.5 39t-45.5 16q-24 0 -44.5 -16t-24.5 -42l-59 21q8 46 45 71.5t90 25.5q65 0 96.5 -31t31.5 -76q0 -35 -21 -65.5t-49.5 -54.5
t-57.5 -41.5t-46 -25.5h192v-60h-284v51z" />
    <glyph glyph-name="threequarters" unicode="&#xbe;" horiz-adv-x="723" 
d="M624 710l46 -34l-513 -686l-47 33zM579 79h-194v46l168 225h67l-163 -216h122v91h65v-91h59v-55h-59v-79h-65v79zM174 344q-46 0 -85 17t-59 53l41 38q12 -23 38 -36.5t54 -13.5q38 0 57.5 15t19.5 38q0 20 -18 33.5t-53 13.5h-34v50h30q26 0 44 14.5t18 36.5
q0 21 -17 33t-46 12q-34 0 -55.5 -14t-33.5 -31l-34 38q15 27 49 45.5t88 18.5q56 0 90 -23t34 -65q0 -31 -19.5 -53t-54.5 -31v-1q43 -3 65 -27.5t22 -55.5q0 -24 -11 -43.5t-30.5 -33t-45 -21t-54.5 -7.5z" />
    <glyph glyph-name="questiondown" unicode="&#xbf;" horiz-adv-x="466" 
d="M116 -63q0 -23 9 -43t25.5 -35t38.5 -23.5t49 -8.5q45 0 79.5 19t60.5 55l48 -53q-27 -44 -78 -72.5t-115 -28.5q-48 0 -86 14t-64 37.5t-39.5 55t-13.5 66.5q0 49 16 82.5t40 58t50.5 43.5t48 39.5t33 46.5t4.5 64l72 1q9 -47 -0.5 -78t-29.5 -53.5t-45.5 -40
t-48.5 -37.5t-38.5 -45.5t-15.5 -63.5zM314 403q0 -20 -15.5 -36.5t-42.5 -16.5q-23 0 -38 16.5t-15 36.5q0 23 15 40t38 17q27 0 42.5 -17t15.5 -40z" />
    <glyph glyph-name="Agrave" unicode="&#xc0;" horiz-adv-x="705" 
d="M316 704h73l301 -704h-91l-90 212h-319l-89 -212h-86zM224 292h252l-126 299zM193 819l30 68l195 -104l-23 -48z" />
    <glyph glyph-name="Aacute" unicode="&#xc1;" horiz-adv-x="705" 
d="M316 704h73l301 -704h-91l-90 212h-319l-89 -212h-86zM224 292h252l-126 299zM311 735l-23 48l195 104l30 -68z" />
    <glyph glyph-name="Acircumflex" unicode="&#xc2;" horiz-adv-x="705" 
d="M316 704h73l301 -704h-91l-90 212h-319l-89 -212h-86zM224 292h252l-126 299zM348 882h4l174 -103l-33 -46l-143 76l-144 -76l-29 45z" />
    <glyph glyph-name="Atilde" unicode="&#xc3;" horiz-adv-x="705" 
d="M316 704h73l301 -704h-91l-90 212h-319l-89 -212h-86zM224 292h252l-126 299zM178 811q21 23 47.5 35t52.5 12q22 0 41 -6.5t36.5 -14t35 -13.5t37.5 -6q17 0 36.5 6t38.5 26l22 -50q-21 -28 -46.5 -40t-55.5 -12q-20 0 -38.5 6t-37 13.5t-37.5 14t-40 6.5q-33 0 -66 -27
z" />
    <glyph glyph-name="Adieresis" unicode="&#xc4;" horiz-adv-x="705" 
d="M316 704h73l301 -704h-91l-90 212h-319l-89 -212h-86zM224 292h252l-126 299zM182 813q0 21 16 33t39 12q20 0 36 -12t16 -33q0 -23 -16 -35.5t-36 -12.5q-23 0 -39 12.5t-16 35.5zM414 813q0 21 16.5 33t39.5 12q20 0 35.5 -11.5t15.5 -33.5q0 -23 -15.5 -35.5
t-35.5 -12.5q-23 0 -39.5 12.5t-16.5 35.5z" />
    <glyph glyph-name="Aring" unicode="&#xc5;" horiz-adv-x="705" 
d="M227 792q0 25 10 43t26.5 30t39 17.5t48.5 5.5t49 -5.5t40 -17.5t27 -30t10 -43q0 -39 -23.5 -63.5t-61.5 -32.5l298 -696h-91l-90 212h-319l-89 -212h-86l297 696q-37 8 -61 32t-24 64zM224 292h252l-126 299zM287 792q0 -28 18.5 -41.5t46.5 -13.5q27 0 46 13.5
t19 41.5q0 27 -19 39t-46 12q-28 0 -46.5 -12t-18.5 -39z" />
    <glyph glyph-name="AE" unicode="&#xc6;" horiz-adv-x="956" 
d="M881 620h-310v-226h280v-80h-280v-234h320v-80h-405v216h-250l-152 -216h-99l503 700h393v-80zM292 296h194v275z" />
    <glyph glyph-name="Ccedilla" unicode="&#xc7;" horiz-adv-x="656" 
d="M302 -127q15 -11 35.5 -19.5t38.5 -8.5q24 0 40 9.5t16 26.5q0 18 -13 28.5t-45 10.5h-6v72q-71 6 -129.5 33.5t-100.5 74t-65 110t-23 140.5q0 75 23.5 141t68.5 114.5t110 76.5t147 28q68 0 121.5 -18t91.5 -50l-39 -64q-35 26 -76.5 39t-96.5 13q-57 0 -105 -20.5
t-82.5 -57.5t-53.5 -88.5t-19 -113.5q0 -63 20 -114.5t56 -88t86 -57t111 -20.5q51 0 97 16.5t82 45.5l34 -64q-35 -35 -93 -55.5t-122 -22.5v-33q56 -3 81 -24t25 -56q0 -36 -32.5 -59t-90.5 -23q-45 0 -72.5 12t-45.5 24z" />
    <glyph glyph-name="Egrave" unicode="&#xc8;" horiz-adv-x="575" 
d="M105 700h395v-80h-310v-226h280v-80h-280v-234h320v-80h-405v700zM158 819l30 68l195 -104l-23 -48z" />
    <glyph glyph-name="Eacute" unicode="&#xc9;" horiz-adv-x="575" 
d="M105 700h395v-80h-310v-226h280v-80h-280v-234h320v-80h-405v700zM251 735l-23 48l195 104l30 -68z" />
    <glyph glyph-name="Ecircumflex" unicode="&#xca;" horiz-adv-x="575" 
d="M105 700h395v-80h-310v-226h280v-80h-280v-234h320v-80h-405v700zM300 882h4l174 -103l-33 -46l-143 76l-144 -76l-29 45z" />
    <glyph glyph-name="Edieresis" unicode="&#xcb;" horiz-adv-x="575" 
d="M105 700h395v-80h-310v-226h280v-80h-280v-234h320v-80h-405v700zM136 813q0 21 16 33t39 12q20 0 36 -12t16 -33q0 -23 -16 -35.5t-36 -12.5q-23 0 -39 12.5t-16 35.5zM368 813q0 21 16.5 33t39.5 12q20 0 35.5 -11.5t15.5 -33.5q0 -23 -15.5 -35.5t-35.5 -12.5
q-23 0 -39.5 12.5t-16.5 35.5z" />
    <glyph glyph-name="Igrave" unicode="&#xcc;" horiz-adv-x="335" 
d="M125 700h85v-700h-85v700zM-2 819l30 68l195 -104l-23 -48z" />
    <glyph glyph-name="Iacute" unicode="&#xcd;" horiz-adv-x="335" 
d="M125 700h85v-700h-85v700zM136 735l-23 48l195 104l30 -68z" />
    <glyph glyph-name="Icircumflex" unicode="&#xce;" horiz-adv-x="335" 
d="M125 700h85v-700h-85v700zM164 882h4l174 -103l-33 -46l-143 76l-144 -76l-29 45z" />
    <glyph glyph-name="Idieresis" unicode="&#xcf;" horiz-adv-x="335" 
d="M125 700h85v-700h-85v700zM-2 813q0 21 16 33t39 12q20 0 36 -12t16 -33q0 -23 -16 -35.5t-36 -12.5q-23 0 -39 12.5t-16 35.5zM230 813q0 21 16.5 33t39.5 12q20 0 35.5 -11.5t15.5 -33.5q0 -23 -15.5 -35.5t-35.5 -12.5q-23 0 -39.5 12.5t-16.5 35.5z" />
    <glyph glyph-name="Eth" unicode="&#xd0;" horiz-adv-x="754" 
d="M10 391h110v309h12q17 0 39 0.5t46 1t48.5 1t45.5 0.5q105 0 179.5 -28t122 -75.5t69.5 -109.5t22 -131q0 -75 -25 -140.5t-75.5 -114.5t-125.5 -77.5t-175 -28.5q-35 0 -81 1t-91 1h-11v316h-110v75zM309 623q-32 0 -55 -1t-49 -2v-229h188v-75h-188v-236
q35 -1 63.5 -1.5t37.5 -0.5q75 0 132.5 21t96.5 58.5t59 89t20 112.5q0 57 -19 105.5t-57.5 83.5t-95.5 55t-133 20z" />
    <glyph glyph-name="Ntilde" unicode="&#xd1;" horiz-adv-x="795" 
d="M622 0l-437 550v-550h-80v700h68l437 -552v552h80v-700h-68zM230 811q21 23 47.5 35t52.5 12q22 0 41 -6.5t36.5 -14t35 -13.5t37.5 -6q17 0 36.5 6t38.5 26l22 -50q-21 -28 -46.5 -40t-55.5 -12q-20 0 -38.5 6t-37 13.5t-37.5 14t-40 6.5q-33 0 -66 -27z" />
    <glyph glyph-name="Ograve" unicode="&#xd2;" horiz-adv-x="814" 
d="M50 350q0 76 26.5 142t74 114.5t113 76t143.5 27.5q76 0 141.5 -26.5t113.5 -74t75 -113.5t27 -146q0 -78 -27 -144t-75 -114t-113.5 -75t-141.5 -27t-141.5 26.5t-113.5 74t-75 113.5t-27 146zM140 350q0 -60 20.5 -111t56.5 -88.5t85 -59t105 -21.5q60 0 109 21.5
t84.5 59t54.5 89t19 110.5q0 61 -20.5 112.5t-56.5 88.5t-85 58t-105 21q-57 0 -106 -21t-84.5 -58t-56 -88.5t-20.5 -112.5zM278 819l30 68l195 -104l-23 -48z" />
    <glyph glyph-name="Oacute" unicode="&#xd3;" horiz-adv-x="814" 
d="M50 350q0 76 26.5 142t74 114.5t113 76t143.5 27.5q76 0 141.5 -26.5t113.5 -74t75 -113.5t27 -146q0 -78 -27 -144t-75 -114t-113.5 -75t-141.5 -27t-141.5 26.5t-113.5 74t-75 113.5t-27 146zM140 350q0 -60 20.5 -111t56.5 -88.5t85 -59t105 -21.5q60 0 109 21.5
t84.5 59t54.5 89t19 110.5q0 61 -20.5 112.5t-56.5 88.5t-85 58t-105 21q-57 0 -106 -21t-84.5 -58t-56 -88.5t-20.5 -112.5zM361 735l-23 48l195 104l30 -68z" />
    <glyph glyph-name="Ocircumflex" unicode="&#xd4;" horiz-adv-x="814" 
d="M50 350q0 76 26.5 142t74 114.5t113 76t143.5 27.5q76 0 141.5 -26.5t113.5 -74t75 -113.5t27 -146q0 -78 -27 -144t-75 -114t-113.5 -75t-141.5 -27t-141.5 26.5t-113.5 74t-75 113.5t-27 146zM140 350q0 -60 20.5 -111t56.5 -88.5t85 -59t105 -21.5q60 0 109 21.5
t84.5 59t54.5 89t19 110.5q0 61 -20.5 112.5t-56.5 88.5t-85 58t-105 21q-57 0 -106 -21t-84.5 -58t-56 -88.5t-20.5 -112.5zM407 882h4l174 -103l-33 -46l-143 76l-144 -76l-29 45z" />
    <glyph glyph-name="Otilde" unicode="&#xd5;" horiz-adv-x="814" 
d="M50 350q0 76 26.5 142t74 114.5t113 76t143.5 27.5q76 0 141.5 -26.5t113.5 -74t75 -113.5t27 -146q0 -78 -27 -144t-75 -114t-113.5 -75t-141.5 -27t-141.5 26.5t-113.5 74t-75 113.5t-27 146zM140 350q0 -60 20.5 -111t56.5 -88.5t85 -59t105 -21.5q60 0 109 21.5
t84.5 59t54.5 89t19 110.5q0 61 -20.5 112.5t-56.5 88.5t-85 58t-105 21q-57 0 -106 -21t-84.5 -58t-56 -88.5t-20.5 -112.5zM232 811q21 23 47.5 35t52.5 12q22 0 41 -6.5t36.5 -14t35 -13.5t37.5 -6q17 0 36.5 6t38.5 26l22 -50q-21 -28 -46.5 -40t-55.5 -12
q-20 0 -38.5 6t-37 13.5t-37.5 14t-40 6.5q-33 0 -66 -27z" />
    <glyph glyph-name="Odieresis" unicode="&#xd6;" horiz-adv-x="814" 
d="M50 350q0 76 26.5 142t74 114.5t113 76t143.5 27.5q76 0 141.5 -26.5t113.5 -74t75 -113.5t27 -146q0 -78 -27 -144t-75 -114t-113.5 -75t-141.5 -27t-141.5 26.5t-113.5 74t-75 113.5t-27 146zM140 350q0 -60 20.5 -111t56.5 -88.5t85 -59t105 -21.5q60 0 109 21.5
t84.5 59t54.5 89t19 110.5q0 61 -20.5 112.5t-56.5 88.5t-85 58t-105 21q-57 0 -106 -21t-84.5 -58t-56 -88.5t-20.5 -112.5zM236 813q0 21 16 33t39 12q20 0 36 -12t16 -33q0 -23 -16 -35.5t-36 -12.5q-23 0 -39 12.5t-16 35.5zM468 813q0 21 16.5 33t39.5 12
q20 0 35.5 -11.5t15.5 -33.5q0 -23 -15.5 -35.5t-35.5 -12.5q-23 0 -39.5 12.5t-16.5 35.5z" />
    <glyph glyph-name="multiply" unicode="&#xd7;" 
d="M161 545l135 -136l135 136l49 -50l-135 -135l137 -136l-50 -50l-136 136l-137 -136l-49 50l136 136l-135 135z" />
    <glyph glyph-name="Oslash" unicode="&#xd8;" horiz-adv-x="814" 
d="M50 350q0 76 26.5 142t74 114.5t113 76t143.5 27.5q68 0 126.5 -21t104.5 -59l44 43l46 -47l-43 -42q38 -46 58.5 -105t20.5 -129q0 -78 -27 -144t-75 -114t-113.5 -75t-141.5 -27q-71 0 -132 22.5t-108 64.5l-45 -44l-47 48l46 45q-34 45 -52.5 101.5t-18.5 122.5z
M674 350q0 50 -14 93t-39 78l-392 -383q35 -32 80.5 -50t97.5 -18q60 0 109 21.5t84.5 59t54.5 89t19 110.5zM140 350q0 -46 12 -86.5t34 -74.5l390 381q-34 29 -77 44.5t-92 15.5q-57 0 -106 -21t-84.5 -58t-56 -88.5t-20.5 -112.5z" />
    <glyph glyph-name="Ugrave" unicode="&#xd9;" horiz-adv-x="751" 
d="M656 292q0 -80 -22 -137t-59.5 -93.5t-86.5 -53.5t-103 -17q-63 0 -116 19.5t-92 58t-60.5 96t-21.5 134.5v401h85v-385q0 -115 53 -179.5t152 -64.5q87 0 136.5 59t49.5 179v391h85v-408zM233 819l30 68l195 -104l-23 -48z" />
    <glyph glyph-name="Uacute" unicode="&#xda;" horiz-adv-x="751" 
d="M656 292q0 -80 -22 -137t-59.5 -93.5t-86.5 -53.5t-103 -17q-63 0 -116 19.5t-92 58t-60.5 96t-21.5 134.5v401h85v-385q0 -115 53 -179.5t152 -64.5q87 0 136.5 59t49.5 179v391h85v-408zM326 735l-23 48l195 104l30 -68z" />
    <glyph glyph-name="Ucircumflex" unicode="&#xdb;" horiz-adv-x="751" 
d="M656 292q0 -80 -22 -137t-59.5 -93.5t-86.5 -53.5t-103 -17q-63 0 -116 19.5t-92 58t-60.5 96t-21.5 134.5v401h85v-385q0 -115 53 -179.5t152 -64.5q87 0 136.5 59t49.5 179v391h85v-408zM371 882h4l174 -103l-33 -46l-143 76l-144 -76l-29 45z" />
    <glyph glyph-name="Udieresis" unicode="&#xdc;" horiz-adv-x="751" 
d="M656 292q0 -80 -22 -137t-59.5 -93.5t-86.5 -53.5t-103 -17q-63 0 -116 19.5t-92 58t-60.5 96t-21.5 134.5v401h85v-385q0 -115 53 -179.5t152 -64.5q87 0 136.5 59t49.5 179v391h85v-408zM201 813q0 21 16 33t39 12q20 0 36 -12t16 -33q0 -23 -16 -35.5t-36 -12.5
q-23 0 -39 12.5t-16 35.5zM433 813q0 21 16.5 33t39.5 12q20 0 35.5 -11.5t15.5 -33.5q0 -23 -15.5 -35.5t-35.5 -12.5q-23 0 -39.5 12.5t-16.5 35.5z" />
    <glyph glyph-name="Yacute" unicode="&#xdd;" horiz-adv-x="604" 
d="M343 300v-300h-85v300l-248 400h98l196 -320l197 320h93zM256 735l-23 48l195 104l30 -68z" />
    <glyph glyph-name="Thorn" unicode="&#xde;" horiz-adv-x="597" 
d="M105 0v700h85v-105q9 0 22.5 0.5t28 0.5t27 0.5t20.5 0.5q75 0 125 -18.5t79.5 -49t42 -69.5t12.5 -80q0 -43 -15.5 -82.5t-46.5 -70t-78.5 -49t-111.5 -18.5q-21 0 -50 1t-55 3v-164h-85zM289 517q-10 0 -23.5 -0.5t-27.5 -1t-26.5 -1t-21.5 -0.5v-269q26 -2 51 -3.5
t51 -1.5q78 0 121.5 37.5t43.5 103.5q0 63 -40.5 99.5t-127.5 36.5z" />
    <glyph glyph-name="germandbls" unicode="&#xdf;" horiz-adv-x="546" 
d="M421 154q0 27 -13.5 46.5t-34 36t-44 31t-44 31.5t-34 38t-13.5 51q0 36 14.5 59t32.5 41.5t32.5 36.5t14.5 44q0 29 -24 47.5t-56 18.5q-51 0 -74 -32.5t-23 -104.5v-500h-80v510q0 105 49.5 153.5t138.5 48.5q33 0 61 -9.5t49 -27t32.5 -40.5t11.5 -50
q0 -37 -14.5 -59.5t-32.5 -40.5t-32.5 -35.5t-14.5 -44.5q0 -26 13.5 -44t34 -33t44 -29t44 -33.5t34 -46t13.5 -65.5q0 -34 -11.5 -63.5t-32 -51.5t-49 -34.5t-61.5 -12.5q-52 0 -88 20t-55 45l27 61q16 -19 40 -35t57 -16q35 0 61.5 23t26.5 66z" />
    <glyph glyph-name="agrave" unicode="&#xe0;" horiz-adv-x="460" 
d="M75 419q30 19 69 30t81 11q96 0 134.5 -48t38.5 -136v-276h-76v58q-20 -26 -54 -45.5t-90 -19.5q-62 0 -100 36.5t-38 102.5q0 34 13 61t35.5 45t54 27.5t67.5 9.5q26 0 57.5 -6t54.5 -23q0 31 -3.5 57.5t-14 45t-31 29t-53.5 10.5q-42 0 -69.5 -9.5t-54.5 -23.5zM206 65
q44 0 71.5 19t44.5 39v57q-42 30 -101 30q-18 0 -35.5 -4.5t-31 -13.5t-21.5 -23t-8 -33q0 -32 21 -51.5t60 -19.5zM130 673l63 48l107 -156l-49 -34z" />
    <glyph glyph-name="aacute" unicode="&#xe1;" horiz-adv-x="460" 
d="M75 419q30 19 69 30t81 11q96 0 134.5 -48t38.5 -136v-276h-76v58q-20 -26 -54 -45.5t-90 -19.5q-62 0 -100 36.5t-38 102.5q0 34 13 61t35.5 45t54 27.5t67.5 9.5q26 0 57.5 -6t54.5 -23q0 31 -3.5 57.5t-14 45t-31 29t-53.5 10.5q-42 0 -69.5 -9.5t-54.5 -23.5zM206 65
q44 0 71.5 19t44.5 39v57q-42 30 -101 30q-18 0 -35.5 -4.5t-31 -13.5t-21.5 -23t-8 -33q0 -32 21 -51.5t60 -19.5zM215 531l-48 34l106 157l62 -48z" />
    <glyph glyph-name="acircumflex" unicode="&#xe2;" horiz-adv-x="460" 
d="M75 419q30 19 69 30t81 11q96 0 134.5 -48t38.5 -136v-276h-76v58q-20 -26 -54 -45.5t-90 -19.5q-62 0 -100 36.5t-38 102.5q0 34 13 61t35.5 45t54 27.5t67.5 9.5q26 0 57.5 -6t54.5 -23q0 31 -3.5 57.5t-14 45t-31 29t-53.5 10.5q-42 0 -69.5 -9.5t-54.5 -23.5zM206 65
q44 0 71.5 19t44.5 39v57q-42 30 -101 30q-18 0 -35.5 -4.5t-31 -13.5t-21.5 -23t-8 -33q0 -32 21 -51.5t60 -19.5zM371 574l-38 -48l-104 91l-104 -90l-38 47l141 133h4z" />
    <glyph glyph-name="atilde" unicode="&#xe3;" horiz-adv-x="460" 
d="M75 419q30 19 69 30t81 11q96 0 134.5 -48t38.5 -136v-276h-76v58q-20 -26 -54 -45.5t-90 -19.5q-62 0 -100 36.5t-38 102.5q0 34 13 61t35.5 45t54 27.5t67.5 9.5q26 0 57.5 -6t54.5 -23q0 31 -3.5 57.5t-14 45t-31 29t-53.5 10.5q-42 0 -69.5 -9.5t-54.5 -23.5zM206 65
q44 0 71.5 19t44.5 39v57q-42 30 -101 30q-18 0 -35.5 -4.5t-31 -13.5t-21.5 -23t-8 -33q0 -32 21 -51.5t60 -19.5zM66 594q29 32 57 46t53 14q18 0 32 -7t27 -15t26 -15t28 -7q20 0 34.5 8.5t36.5 26.5l28 -41q-56 -59 -106 -59q-17 0 -30.5 7t-26.5 15t-26.5 15t-30.5 7
q-15 0 -32.5 -9t-36.5 -23z" />
    <glyph glyph-name="adieresis" unicode="&#xe4;" horiz-adv-x="460" 
d="M75 419q30 19 69 30t81 11q96 0 134.5 -48t38.5 -136v-276h-76v58q-20 -26 -54 -45.5t-90 -19.5q-62 0 -100 36.5t-38 102.5q0 34 13 61t35.5 45t54 27.5t67.5 9.5q26 0 57.5 -6t54.5 -23q0 31 -3.5 57.5t-14 45t-31 29t-53.5 10.5q-42 0 -69.5 -9.5t-54.5 -23.5zM206 65
q44 0 71.5 19t44.5 39v57q-42 30 -101 30q-18 0 -35.5 -4.5t-31 -13.5t-21.5 -23t-8 -33q0 -32 21 -51.5t60 -19.5zM83 610q0 21 13.5 33.5t33.5 12.5q17 0 30.5 -12.5t13.5 -33.5q0 -24 -13.5 -37t-30.5 -13q-20 0 -33.5 13t-13.5 37zM286 610q0 21 14 33.5t34 12.5
q17 0 30.5 -12.5t13.5 -33.5q0 -24 -13.5 -37t-30.5 -13q-20 0 -34 13t-14 37z" />
    <glyph glyph-name="aring" unicode="&#xe5;" horiz-adv-x="460" 
d="M75 419q30 19 69 30t81 11q96 0 134.5 -48t38.5 -136v-276h-76v58q-20 -26 -54 -45.5t-90 -19.5q-62 0 -100 36.5t-38 102.5q0 34 13 61t35.5 45t54 27.5t67.5 9.5q26 0 57.5 -6t54.5 -23q0 31 -3.5 57.5t-14 45t-31 29t-53.5 10.5q-42 0 -69.5 -9.5t-54.5 -23.5zM206 65
q44 0 71.5 19t44.5 39v57q-42 30 -101 30q-18 0 -35.5 -4.5t-31 -13.5t-21.5 -23t-8 -33q0 -32 21 -51.5t60 -19.5zM116 613q0 23 8.5 43t24 35t36.5 24t45 9q25 0 46 -9t36.5 -24t24.5 -35t9 -43t-9 -43t-24.5 -35t-36.5 -23.5t-46 -8.5q-24 0 -45 8.5t-36.5 23.5t-24 35
t-8.5 43zM168 614q0 -28 18 -47t45 -19t45 19t18 47q0 27 -18 46t-45 19t-45 -19t-18 -46z" />
    <glyph glyph-name="ae" unicode="&#xe6;" horiz-adv-x="775" 
d="M225 460q54 0 88 -15t54 -44q29 27 70 43t92 16q43 0 81.5 -15t66.5 -42t44.5 -65t16.5 -84q0 -31 -5 -54h-335v-62q21 -35 57 -54t89 -19q44 0 80 13.5t58 33.5l25 -63q-33 -30 -78.5 -44.5t-90.5 -14.5q-58 0 -103.5 18.5t-77.5 51.5q-42 -38 -81.5 -52.5t-81.5 -14.5
q-74 0 -114 36.5t-40 102.5q0 34 13 61t35.5 45t54 27.5t67.5 9.5q13 0 28.5 -1t30.5 -3t28 -4.5t21 -5.5q3 60 -18 92t-80 32q-42 0 -69.5 -9.5t-54.5 -23.5l-21 67q30 19 69 30t81 11zM398 265h257q-3 56 -37 88t-93 32q-42 0 -75.5 -18t-53.5 -51q1 -9 1.5 -19t0.5 -21
v-11zM206 68q44 0 69.5 17.5t42.5 37.5v73q-25 7 -46.5 10.5t-50.5 3.5q-18 0 -35.5 -4.5t-31 -13.5t-21.5 -23t-8 -33q0 -32 23 -50t58 -18z" />
    <glyph glyph-name="ccedilla" unicode="&#xe7;" horiz-adv-x="488" 
d="M183 -132q15 -10 34 -16.5t37 -6.5q24 0 40 9.5t16 26.5q0 18 -13 28.5t-45 10.5h-6v72q-46 5 -83.5 24t-64.5 49t-41.5 70.5t-14.5 89.5t17 92t47.5 74.5t72 50t91.5 18.5q54 0 99.5 -13.5t77.5 -45.5l-37 -63q-29 26 -61.5 36.5t-67.5 10.5q-30 0 -58 -11.5
t-49.5 -32.5t-34 -50.5t-12.5 -65.5q0 -37 13 -66.5t35 -50.5t51.5 -32t62.5 -11q41 0 73.5 16t55.5 42l38 -58q-28 -36 -72 -54.5t-95 -20.5v-33q51 -3 76 -24t25 -56q0 -36 -32.5 -59t-93.5 -23q-38 0 -62.5 11t-42.5 23z" />
    <glyph glyph-name="egrave" unicode="&#xe8;" horiz-adv-x="520" 
d="M452 49q-33 -30 -78.5 -44.5t-90.5 -14.5q-55 0 -99.5 16.5t-76 47.5t-48.5 74.5t-17 96.5q0 49 15.5 92t45 74.5t72.5 50t99 18.5q43 0 81.5 -15t66.5 -42t44.5 -65t16.5 -84q0 -31 -5 -54h-346q5 -64 48 -99.5t109 -35.5q44 0 80 13.5t58 33.5zM270 385q-62 0 -99 -34
t-44 -86h273q-3 56 -37 88t-93 32zM165 673l63 48l107 -156l-49 -34z" />
    <glyph glyph-name="eacute" unicode="&#xe9;" horiz-adv-x="520" 
d="M452 49q-33 -30 -78.5 -44.5t-90.5 -14.5q-55 0 -99.5 16.5t-76 47.5t-48.5 74.5t-17 96.5q0 49 15.5 92t45 74.5t72.5 50t99 18.5q43 0 81.5 -15t66.5 -42t44.5 -65t16.5 -84q0 -31 -5 -54h-346q5 -64 48 -99.5t109 -35.5q44 0 80 13.5t58 33.5zM270 385q-62 0 -99 -34
t-44 -86h273q-3 56 -37 88t-93 32zM270 531l-48 34l106 157l62 -48z" />
    <glyph glyph-name="ecircumflex" unicode="&#xea;" horiz-adv-x="520" 
d="M452 49q-33 -30 -78.5 -44.5t-90.5 -14.5q-55 0 -99.5 16.5t-76 47.5t-48.5 74.5t-17 96.5q0 49 15.5 92t45 74.5t72.5 50t99 18.5q43 0 81.5 -15t66.5 -42t44.5 -65t16.5 -84q0 -31 -5 -54h-346q5 -64 48 -99.5t109 -35.5q44 0 80 13.5t58 33.5zM270 385q-62 0 -99 -34
t-44 -86h273q-3 56 -37 88t-93 32zM411 574l-38 -48l-104 91l-104 -90l-38 47l141 133h4z" />
    <glyph glyph-name="edieresis" unicode="&#xeb;" horiz-adv-x="520" 
d="M452 49q-33 -30 -78.5 -44.5t-90.5 -14.5q-55 0 -99.5 16.5t-76 47.5t-48.5 74.5t-17 96.5q0 49 15.5 92t45 74.5t72.5 50t99 18.5q43 0 81.5 -15t66.5 -42t44.5 -65t16.5 -84q0 -31 -5 -54h-346q5 -64 48 -99.5t109 -35.5q44 0 80 13.5t58 33.5zM270 385q-62 0 -99 -34
t-44 -86h273q-3 56 -37 88t-93 32zM119 610q0 21 13.5 33.5t33.5 12.5q17 0 30.5 -12.5t13.5 -33.5q0 -24 -13.5 -37t-30.5 -13q-20 0 -33.5 13t-13.5 37zM322 610q0 21 14 33.5t34 12.5q17 0 30.5 -12.5t13.5 -33.5q0 -24 -13.5 -37t-30.5 -13q-20 0 -34 13t-14 37z" />
    <glyph glyph-name="igrave" unicode="&#xec;" horiz-adv-x="268" 
d="M94 450h80v-450h-80v450zM6 673l63 48l107 -156l-49 -34z" />
    <glyph glyph-name="iacute" unicode="&#xed;" horiz-adv-x="268" 
d="M94 450h80v-450h-80v450zM126 531l-48 34l106 157l62 -48z" />
    <glyph glyph-name="icircumflex" unicode="&#xee;" horiz-adv-x="268" 
d="M94 450h80v-450h-80v450zM276 574l-38 -48l-104 91l-104 -90l-38 47l141 133h4z" />
    <glyph glyph-name="idieresis" unicode="&#xef;" horiz-adv-x="268" 
d="M94 450h80v-450h-80v450zM-13 610q0 21 13.5 33.5t33.5 12.5q17 0 30.5 -12.5t13.5 -33.5q0 -24 -13.5 -37t-30.5 -13q-20 0 -33.5 13t-13.5 37zM190 610q0 21 14 33.5t34 12.5q17 0 30.5 -12.5t13.5 -33.5q0 -24 -13.5 -37t-30.5 -13q-20 0 -34 13t-14 37z" />
    <glyph glyph-name="eth" unicode="&#xf0;" horiz-adv-x="565" 
d="M173 583l96 40q-50 44 -103 72l90 15q45 -24 84 -57l105 45l23 -71l-72 -30q30 -36 53.5 -77t39.5 -84.5t24.5 -88t8.5 -87.5q0 -63 -17.5 -113.5t-49 -85t-75.5 -53t-98 -18.5t-98.5 17.5t-76 49t-48.5 74.5t-17 94t17 94t48.5 74.5t76 49t98.5 17.5q44 0 79.5 -21.5
t55.5 -57.5q-12 52 -36 98.5t-57 86.5l-128 -54zM127 225q0 -35 11.5 -64.5t32 -50.5t49 -33t62.5 -12q35 0 64.5 14t50 39.5t31.5 62.5t9 84q-5 23 -18 44.5t-32.5 38.5t-46 27t-58.5 10q-33 0 -61.5 -11.5t-49 -32.5t-32.5 -50.5t-12 -65.5z" />
    <glyph glyph-name="ntilde" unicode="&#xf1;" horiz-adv-x="549" 
d="M72 450h80v-55q23 26 62.5 44.5t84.5 18.5q88 0 137.5 -46t49.5 -152v-260h-80v245q0 71 -32 104.5t-95 33.5q-38 0 -71.5 -16.5t-55.5 -41.5v-325h-80v450zM111 594q29 32 57 46t53 14q18 0 32 -7t27 -15t26 -15t28 -7q20 0 34.5 8.5t36.5 26.5l28 -41q-56 -59 -106 -59
q-17 0 -30.5 7t-26.5 15t-26.5 15t-30.5 7q-15 0 -32.5 -9t-36.5 -23z" />
    <glyph glyph-name="ograve" unicode="&#xf2;" horiz-adv-x="565" 
d="M42 225q0 51 17 94t48.5 74.5t76 49t98.5 17.5t98 -17.5t75.5 -49t49 -74.5t17.5 -94t-17.5 -94t-49 -74.5t-75.5 -49t-98 -17.5t-98.5 17.5t-76 49t-48.5 74.5t-17 94zM127 225q0 -35 11.5 -64.5t32 -50.5t49 -33t62.5 -12t62.5 11.5t49 32.5t32 50.5t11.5 65.5
q0 35 -11.5 64.5t-32 50.5t-49 33t-62.5 12q-33 0 -61.5 -11.5t-49 -32.5t-32.5 -50.5t-12 -65.5zM169 673l63 48l107 -156l-49 -34z" />
    <glyph glyph-name="oacute" unicode="&#xf3;" horiz-adv-x="565" 
d="M42 225q0 51 17 94t48.5 74.5t76 49t98.5 17.5t98 -17.5t75.5 -49t49 -74.5t17.5 -94t-17.5 -94t-49 -74.5t-75.5 -49t-98 -17.5t-98.5 17.5t-76 49t-48.5 74.5t-17 94zM127 225q0 -35 11.5 -64.5t32 -50.5t49 -33t62.5 -12t62.5 11.5t49 32.5t32 50.5t11.5 65.5
q0 35 -11.5 64.5t-32 50.5t-49 33t-62.5 12q-33 0 -61.5 -11.5t-49 -32.5t-32.5 -50.5t-12 -65.5zM274 531l-48 34l106 157l62 -48z" />
    <glyph glyph-name="ocircumflex" unicode="&#xf4;" horiz-adv-x="565" 
d="M42 225q0 51 17 94t48.5 74.5t76 49t98.5 17.5t98 -17.5t75.5 -49t49 -74.5t17.5 -94t-17.5 -94t-49 -74.5t-75.5 -49t-98 -17.5t-98.5 17.5t-76 49t-48.5 74.5t-17 94zM127 225q0 -35 11.5 -64.5t32 -50.5t49 -33t62.5 -12t62.5 11.5t49 32.5t32 50.5t11.5 65.5
q0 35 -11.5 64.5t-32 50.5t-49 33t-62.5 12q-33 0 -61.5 -11.5t-49 -32.5t-32.5 -50.5t-12 -65.5zM424 574l-38 -48l-104 91l-104 -90l-38 47l141 133h4z" />
    <glyph glyph-name="otilde" unicode="&#xf5;" horiz-adv-x="565" 
d="M42 225q0 51 17 94t48.5 74.5t76 49t98.5 17.5t98 -17.5t75.5 -49t49 -74.5t17.5 -94t-17.5 -94t-49 -74.5t-75.5 -49t-98 -17.5t-98.5 17.5t-76 49t-48.5 74.5t-17 94zM127 225q0 -35 11.5 -64.5t32 -50.5t49 -33t62.5 -12t62.5 11.5t49 32.5t32 50.5t11.5 65.5
q0 35 -11.5 64.5t-32 50.5t-49 33t-62.5 12q-33 0 -61.5 -11.5t-49 -32.5t-32.5 -50.5t-12 -65.5zM119 594q29 32 57 46t53 14q18 0 32 -7t27 -15t26 -15t28 -7q20 0 34.5 8.5t36.5 26.5l28 -41q-56 -59 -106 -59q-17 0 -30.5 7t-26.5 15t-26.5 15t-30.5 7q-15 0 -32.5 -9
t-36.5 -23z" />
    <glyph glyph-name="odieresis" unicode="&#xf6;" horiz-adv-x="565" 
d="M42 225q0 51 17 94t48.5 74.5t76 49t98.5 17.5t98 -17.5t75.5 -49t49 -74.5t17.5 -94t-17.5 -94t-49 -74.5t-75.5 -49t-98 -17.5t-98.5 17.5t-76 49t-48.5 74.5t-17 94zM127 225q0 -35 11.5 -64.5t32 -50.5t49 -33t62.5 -12t62.5 11.5t49 32.5t32 50.5t11.5 65.5
q0 35 -11.5 64.5t-32 50.5t-49 33t-62.5 12q-33 0 -61.5 -11.5t-49 -32.5t-32.5 -50.5t-12 -65.5zM139 610q0 21 13.5 33.5t33.5 12.5q17 0 30.5 -12.5t13.5 -33.5q0 -24 -13.5 -37t-30.5 -13q-20 0 -33.5 13t-13.5 37zM342 610q0 21 14 33.5t34 12.5q17 0 30.5 -12.5
t13.5 -33.5q0 -24 -13.5 -37t-30.5 -13q-20 0 -34 13t-14 37z" />
    <glyph glyph-name="divide" unicode="&#xf7;" 
d="M246 564q0 17 13 32.5t37 15.5q23 0 36 -15.5t13 -32.5q0 -20 -13 -35.5t-36 -15.5q-24 0 -37 15.5t-13 35.5zM246 157q0 17 13 32t37 15q22 0 35.5 -15t13.5 -32q0 -20 -13 -35.5t-36 -15.5q-24 0 -37 15.5t-13 35.5zM69 395h454v-70h-454v70z" />
    <glyph glyph-name="oslash" unicode="&#xf8;" horiz-adv-x="565" 
d="M42 225q0 51 17 94t48.5 74.5t76 49t98.5 17.5q46 0 84.5 -13t68.5 -36l46 44l44 -49l-45 -43q42 -59 42 -138q0 -51 -17.5 -94t-49 -74.5t-75.5 -49t-98 -17.5q-44 0 -80.5 11.5t-65.5 31.5l-50 -47l-45 51l46 44q-22 29 -33.5 65.5t-11.5 78.5zM127 225q0 -50 21 -86
l228 216q-41 30 -94 30q-33 0 -61.5 -11.5t-49 -32.5t-32.5 -50.5t-12 -65.5zM437 225q0 22 -5 42t-13 37l-224 -214q37 -25 87 -25q34 0 62.5 11.5t49 32.5t32 50.5t11.5 65.5z" />
    <glyph glyph-name="ugrave" unicode="&#xf9;" horiz-adv-x="540" 
d="M467 0h-80v64q-23 -29 -64 -51.5t-95 -22.5q-75 0 -120.5 46.5t-45.5 145.5v268h80v-250q0 -64 27 -99.5t89 -35.5q39 0 73.5 20t55.5 47v318h80v-450zM154 673l63 48l107 -156l-49 -34z" />
    <glyph glyph-name="uacute" unicode="&#xfa;" horiz-adv-x="540" 
d="M467 0h-80v64q-23 -29 -64 -51.5t-95 -22.5q-75 0 -120.5 46.5t-45.5 145.5v268h80v-250q0 -64 27 -99.5t89 -35.5q39 0 73.5 20t55.5 47v318h80v-450zM264 531l-48 34l106 157l62 -48z" />
    <glyph glyph-name="ucircumflex" unicode="&#xfb;" horiz-adv-x="540" 
d="M467 0h-80v64q-23 -29 -64 -51.5t-95 -22.5q-75 0 -120.5 46.5t-45.5 145.5v268h80v-250q0 -64 27 -99.5t89 -35.5q39 0 73.5 20t55.5 47v318h80v-450zM408 574l-38 -48l-104 91l-104 -90l-38 47l141 133h4z" />
    <glyph glyph-name="udieresis" unicode="&#xfc;" horiz-adv-x="540" 
d="M467 0h-80v64q-23 -29 -64 -51.5t-95 -22.5q-75 0 -120.5 46.5t-45.5 145.5v268h80v-250q0 -64 27 -99.5t89 -35.5q39 0 73.5 20t55.5 47v318h80v-450zM121 610q0 21 13.5 33.5t33.5 12.5q17 0 30.5 -12.5t13.5 -33.5q0 -24 -13.5 -37t-30.5 -13q-20 0 -33.5 13t-13.5 37
zM324 610q0 21 14 33.5t34 12.5q17 0 30.5 -12.5t13.5 -33.5q0 -24 -13.5 -37t-30.5 -13q-20 0 -34 13t-14 37z" />
    <glyph glyph-name="yacute" unicode="&#xfd;" horiz-adv-x="491" 
d="M301 0q-25 -60 -46 -99t-41 -61.5t-40.5 -31t-44.5 -8.5q-26 0 -46.5 8t-38.5 20l26 61q11 -5 23.5 -10t26.5 -5q29 0 51 24t45 78l10 24l-216 450h96l132 -286q8 -17 14 -34t13 -34q9 33 21 69l104 285h91zM235 531l-48 34l106 157l62 -48z" />
    <glyph glyph-name="thorn" unicode="&#xfe;" horiz-adv-x="556" 
d="M72 700h80v-298q26 25 65.5 41.5t87.5 16.5t86.5 -17t65.5 -47t41.5 -72t14.5 -92q0 -51 -16.5 -95.5t-47.5 -77t-74 -51t-96 -18.5q-36 0 -69.5 7.5t-57.5 23.5v-221h-80v900zM282 385q-40 0 -74.5 -18t-55.5 -44v-223q30 -20 59 -27.5t61 -7.5q36 0 65 12.5t49 34
t31 51.5t11 66q0 34 -9.5 62.5t-28.5 49.5t-46 32.5t-62 11.5z" />
    <glyph glyph-name="ydieresis" unicode="&#xff;" horiz-adv-x="491" 
d="M301 0q-25 -60 -46 -99t-41 -61.5t-40.5 -31t-44.5 -8.5q-26 0 -46.5 8t-38.5 20l26 61q11 -5 23.5 -10t26.5 -5q29 0 51 24t45 78l10 24l-216 450h96l132 -286q8 -17 14 -34t13 -34q9 33 21 69l104 285h91zM103 610q0 21 13.5 33.5t33.5 12.5q17 0 30.5 -12.5
t13.5 -33.5q0 -24 -13.5 -37t-30.5 -13q-20 0 -33.5 13t-13.5 37zM306 610q0 21 14 33.5t34 12.5q17 0 30.5 -12.5t13.5 -33.5q0 -24 -13.5 -37t-30.5 -13q-20 0 -34 13t-14 37z" />
    <glyph glyph-name="Amacron" unicode="&#x100;" horiz-adv-x="705" 
d="M316 704h73l301 -704h-91l-90 212h-319l-89 -212h-86zM224 292h252l-126 299zM200 835h304v-65h-304v65z" />
    <glyph glyph-name="amacron" unicode="&#x101;" horiz-adv-x="460" 
d="M75 419q30 19 69 30t81 11q96 0 134.5 -48t38.5 -136v-276h-76v58q-20 -26 -54 -45.5t-90 -19.5q-62 0 -100 36.5t-38 102.5q0 34 13 61t35.5 45t54 27.5t67.5 9.5q26 0 57.5 -6t54.5 -23q0 31 -3.5 57.5t-14 45t-31 29t-53.5 10.5q-42 0 -69.5 -9.5t-54.5 -23.5zM206 65
q44 0 71.5 19t44.5 39v57q-42 30 -101 30q-18 0 -35.5 -4.5t-31 -13.5t-21.5 -23t-8 -33q0 -32 21 -51.5t60 -19.5zM101 645h264v-65h-264v65z" />
    <glyph glyph-name="Abreve" unicode="&#x102;" horiz-adv-x="705" 
d="M316 704h73l301 -704h-91l-90 212h-319l-89 -212h-86zM224 292h252l-126 299zM213 880q9 -10 21.5 -21.5t30 -21t40 -16t51.5 -6.5q50 0 85 20.5t55 44.5l31 -42q-12 -18 -29 -35t-39 -29.5t-48 -20.5t-55 -8q-33 0 -62 9t-51.5 23t-39.5 30t-26 31z" />
    <glyph glyph-name="abreve" unicode="&#x103;" horiz-adv-x="460" 
d="M75 419q30 19 69 30t81 11q96 0 134.5 -48t38.5 -136v-276h-76v58q-20 -26 -54 -45.5t-90 -19.5q-62 0 -100 36.5t-38 102.5q0 34 13 61t35.5 45t54 27.5t67.5 9.5q26 0 57.5 -6t54.5 -23q0 31 -3.5 57.5t-14 45t-31 29t-53.5 10.5q-42 0 -69.5 -9.5t-54.5 -23.5zM206 65
q44 0 71.5 19t44.5 39v57q-42 30 -101 30q-18 0 -35.5 -4.5t-31 -13.5t-21.5 -23t-8 -33q0 -32 21 -51.5t60 -19.5zM116 681q7 -9 17.5 -19.5t24.5 -20t31.5 -15.5t40.5 -6q39 0 68 19t47 41l29 -39q-11 -15 -24 -30t-31 -27.5t-40.5 -20.5t-51.5 -8q-31 0 -55.5 9.5
t-43 22.5t-30.5 27.5t-19 25.5z" />
    <glyph glyph-name="Aogonek" unicode="&#x104;" horiz-adv-x="705" 
d="M685 -175q-13 -11 -36.5 -18t-49.5 -7q-22 0 -43.5 4.5t-39 15.5t-28.5 28.5t-11 43.5q0 45 35 73.5t84 40.5l-87 206h-319l-89 -212h-86l301 704h73l301 -704h-19q-23 -1 -43.5 -7.5t-36 -17.5t-25 -26t-9.5 -31t6 -26t15 -16t19.5 -8.5t19.5 -2.5q11 0 21 1.5t23 7.5z
M224 292h252l-126 299z" />
    <glyph glyph-name="aogonek" unicode="&#x105;" horiz-adv-x="460" 
d="M407 -175q-13 -11 -36.5 -18t-49.5 -7q-22 0 -43.5 4.5t-39 15.5t-28.5 28.5t-11 43.5q0 23 10 41.5t26.5 33t39 24.5t47.5 16v51q-20 -26 -54 -45.5t-90 -19.5q-62 0 -100 36.5t-38 102.5q0 34 13 61t35.5 45t54 27.5t67.5 9.5q26 0 57.5 -6t54.5 -23q0 31 -3.5 57.5
t-14 45t-31 29t-53.5 10.5q-42 0 -69.5 -9.5t-54.5 -23.5l-21 64q30 19 69 30t81 11q96 0 134.5 -48t38.5 -136v-276q-23 0 -44.5 -6.5t-38 -17.5t-26.5 -26t-10 -32q0 -16 6 -26t15 -16t19.5 -8.5t19.5 -2.5q11 0 21 1.5t23 7.5zM206 65q44 0 71.5 19t44.5 39v57
q-42 30 -101 30q-18 0 -35.5 -4.5t-31 -13.5t-21.5 -23t-8 -33q0 -32 21 -51.5t60 -19.5z" />
    <glyph glyph-name="Cacute" unicode="&#x106;" horiz-adv-x="656" 
d="M626 68q-18 -18 -42.5 -32.5t-53 -24.5t-60.5 -15.5t-65 -5.5q-79 0 -144 25.5t-112 72.5t-73 113.5t-26 148.5q0 75 23.5 141t68.5 114.5t110 76.5t147 28q68 0 121.5 -18t91.5 -50l-39 -64q-35 26 -76.5 39t-96.5 13q-57 0 -105 -20.5t-82.5 -57.5t-53.5 -88.5
t-19 -113.5q0 -63 20 -114.5t56 -88t86 -57t111 -20.5q51 0 97 16.5t82 45.5zM336 735l-23 48l195 104l30 -68z" />
    <glyph glyph-name="cacute" unicode="&#x107;" horiz-adv-x="488" 
d="M456 65q-29 -37 -75 -56t-98 -19q-54 0 -98 16.5t-76 47.5t-49.5 74.5t-17.5 96.5q0 49 17 92t47.5 74.5t72 50t91.5 18.5q54 0 99.5 -13.5t77.5 -45.5l-37 -63q-29 26 -61.5 36.5t-67.5 10.5q-30 0 -58 -11.5t-49.5 -32.5t-34 -50.5t-12.5 -65.5q0 -37 13 -66.5
t35 -50.5t51.5 -32t62.5 -11q41 0 73.5 16t55.5 42zM262 531l-48 34l106 157l62 -48z" />
    <glyph glyph-name="Ccircumflex" unicode="&#x108;" horiz-adv-x="656" 
d="M626 68q-18 -18 -42.5 -32.5t-53 -24.5t-60.5 -15.5t-65 -5.5q-79 0 -144 25.5t-112 72.5t-73 113.5t-26 148.5q0 75 23.5 141t68.5 114.5t110 76.5t147 28q68 0 121.5 -18t91.5 -50l-39 -64q-35 26 -76.5 39t-96.5 13q-57 0 -105 -20.5t-82.5 -57.5t-53.5 -88.5
t-19 -113.5q0 -63 20 -114.5t56 -88t86 -57t111 -20.5q51 0 97 16.5t82 45.5zM387 882h4l174 -103l-33 -46l-143 76l-144 -76l-29 45z" />
    <glyph glyph-name="ccircumflex" unicode="&#x109;" horiz-adv-x="488" 
d="M456 65q-29 -37 -75 -56t-98 -19q-54 0 -98 16.5t-76 47.5t-49.5 74.5t-17.5 96.5q0 49 17 92t47.5 74.5t72 50t91.5 18.5q54 0 99.5 -13.5t77.5 -45.5l-37 -63q-29 26 -61.5 36.5t-67.5 10.5q-30 0 -58 -11.5t-49.5 -32.5t-34 -50.5t-12.5 -65.5q0 -37 13 -66.5
t35 -50.5t51.5 -32t62.5 -11q41 0 73.5 16t55.5 42zM418 574l-38 -48l-104 91l-104 -90l-38 47l141 133h4z" />
    <glyph glyph-name="Cdotaccent" unicode="&#x10a;" horiz-adv-x="656" 
d="M626 68q-18 -18 -42.5 -32.5t-53 -24.5t-60.5 -15.5t-65 -5.5q-79 0 -144 25.5t-112 72.5t-73 113.5t-26 148.5q0 75 23.5 141t68.5 114.5t110 76.5t147 28q68 0 121.5 -18t91.5 -50l-39 -64q-35 26 -76.5 39t-96.5 13q-57 0 -105 -20.5t-82.5 -57.5t-53.5 -88.5
t-19 -113.5q0 -63 20 -114.5t56 -88t86 -57t111 -20.5q51 0 97 16.5t82 45.5zM325 817q0 24 17 37.5t40 13.5q21 0 37.5 -13.5t16.5 -37.5q0 -26 -16.5 -40t-37.5 -14q-23 0 -40 14t-17 40z" />
    <glyph glyph-name="cdotaccent" unicode="&#x10b;" horiz-adv-x="488" 
d="M456 65q-29 -37 -75 -56t-98 -19q-54 0 -98 16.5t-76 47.5t-49.5 74.5t-17.5 96.5q0 49 17 92t47.5 74.5t72 50t91.5 18.5q54 0 99.5 -13.5t77.5 -45.5l-37 -63q-29 26 -61.5 36.5t-67.5 10.5q-30 0 -58 -11.5t-49.5 -32.5t-34 -50.5t-12.5 -65.5q0 -37 13 -66.5
t35 -50.5t51.5 -32t62.5 -11q41 0 73.5 16t55.5 42zM226 619q0 22 15.5 35t36.5 13q19 0 34 -13t15 -35q0 -25 -15 -38.5t-34 -13.5q-21 0 -36.5 13.5t-15.5 38.5z" />
    <glyph glyph-name="Ccaron" unicode="&#x10c;" horiz-adv-x="656" 
d="M626 68q-18 -18 -42.5 -32.5t-53 -24.5t-60.5 -15.5t-65 -5.5q-79 0 -144 25.5t-112 72.5t-73 113.5t-26 148.5q0 75 23.5 141t68.5 114.5t110 76.5t147 28q68 0 121.5 -18t91.5 -50l-39 -64q-35 26 -76.5 39t-96.5 13q-57 0 -105 -20.5t-82.5 -57.5t-53.5 -88.5
t-19 -113.5q0 -63 20 -114.5t56 -88t86 -57t111 -20.5q51 0 97 16.5t82 45.5zM215 841l33 46l144 -81l143 81l30 -45l-171 -104h-4z" />
    <glyph glyph-name="ccaron" unicode="&#x10d;" horiz-adv-x="488" 
d="M456 65q-29 -37 -75 -56t-98 -19q-54 0 -98 16.5t-76 47.5t-49.5 74.5t-17.5 96.5q0 49 17 92t47.5 74.5t72 50t91.5 18.5q54 0 99.5 -13.5t77.5 -45.5l-37 -63q-29 26 -61.5 36.5t-67.5 10.5q-30 0 -58 -11.5t-49.5 -32.5t-34 -50.5t-12.5 -65.5q0 -37 13 -66.5
t35 -50.5t51.5 -32t62.5 -11q41 0 73.5 16t55.5 42zM133 662l39 48l104 -103l104 102l37 -47l-140 -133h-4z" />
    <glyph glyph-name="Dcaron" unicode="&#x10e;" horiz-adv-x="739" 
d="M105 700h12q17 0 39 0.5t46 1t48.5 1t45.5 0.5q105 0 179.5 -28t122 -75.5t69.5 -109.5t22 -131q0 -75 -25 -140.5t-75.5 -114.5t-125.5 -77.5t-175 -28.5q-35 0 -81 1t-91 1h-11v700zM294 623q-32 0 -55 -1t-49 -2v-540q35 -1 63.5 -1.5t37.5 -0.5q75 0 132.5 21
t96.5 58.5t59 89t20 112.5q0 57 -19 105.5t-57.5 83.5t-95.5 55t-133 20zM160 841l33 46l144 -81l143 81l30 -45l-171 -104h-4z" />
    <glyph glyph-name="dcaron" unicode="&#x10f;" horiz-adv-x="554" 
d="M402 57q-25 -27 -61 -46t-82 -19q-50 0 -90 16.5t-68 46.5t-43.5 72.5t-15.5 94.5t18.5 96t51.5 75.5t78 49t98 17.5q36 0 63.5 -7.5t50.5 -24.5v272h80v-700h-80v57zM274 67q39 0 73 18.5t55 41.5v223q-55 35 -111 35q-33 0 -63 -11t-52.5 -32t-35.5 -51t-13 -67t11 -66
t31 -49.5t46.5 -31t58.5 -10.5zM649 700q8 -16 8 -38q0 -30 -7.5 -55t-19.5 -44t-27.5 -32.5t-31.5 -21.5l-36 35q21 18 34 46.5t13 62.5q0 15 -3 26t-8 21h78z" />
    <glyph glyph-name="Dcroat" unicode="&#x110;" horiz-adv-x="754" 
d="M10 391h110v309h12q17 0 39 0.5t46 1t48.5 1t45.5 0.5q105 0 179.5 -28t122 -75.5t69.5 -109.5t22 -131q0 -75 -25 -140.5t-75.5 -114.5t-125.5 -77.5t-175 -28.5q-35 0 -81 1t-91 1h-11v316h-110v75zM309 623q-32 0 -55 -1t-49 -2v-229h188v-75h-188v-236
q35 -1 63.5 -1.5t37.5 -0.5q75 0 132.5 21t96.5 58.5t59 89t20 112.5q0 57 -19 105.5t-57.5 83.5t-95.5 55t-133 20z" />
    <glyph glyph-name="dcroat" unicode="&#x111;" horiz-adv-x="554" 
d="M245 599h157v101h80v-101h92v-65h-92v-534h-80v57q-25 -27 -61 -46t-82 -19q-50 0 -90 16.5t-68 46.5t-43.5 72.5t-15.5 94.5t18.5 96t51.5 75.5t78 49t98 17.5q36 0 63.5 -7.5t50.5 -24.5v106h-157v65zM274 67q39 0 73 18.5t55 41.5v223q-55 35 -111 35q-33 0 -63 -11
t-52.5 -32t-35.5 -51t-13 -67t11 -66t31 -49.5t46.5 -31t58.5 -10.5z" />
    <glyph glyph-name="Emacron" unicode="&#x112;" horiz-adv-x="575" 
d="M105 700h395v-80h-310v-226h280v-80h-280v-234h320v-80h-405v700zM150 835h304v-65h-304v65z" />
    <glyph glyph-name="emacron" unicode="&#x113;" horiz-adv-x="520" 
d="M452 49q-33 -30 -78.5 -44.5t-90.5 -14.5q-55 0 -99.5 16.5t-76 47.5t-48.5 74.5t-17 96.5q0 49 15.5 92t45 74.5t72.5 50t99 18.5q43 0 81.5 -15t66.5 -42t44.5 -65t16.5 -84q0 -31 -5 -54h-346q5 -64 48 -99.5t109 -35.5q44 0 80 13.5t58 33.5zM270 385q-62 0 -99 -34
t-44 -86h273q-3 56 -37 88t-93 32zM132 645h264v-65h-264v65z" />
    <glyph glyph-name="Edotaccent" unicode="&#x116;" horiz-adv-x="575" 
d="M105 700h395v-80h-310v-226h280v-80h-280v-234h320v-80h-405v700zM250 817q0 24 17 37.5t40 13.5q21 0 37.5 -13.5t16.5 -37.5q0 -26 -16.5 -40t-37.5 -14q-23 0 -40 14t-17 40z" />
    <glyph glyph-name="edotaccent" unicode="&#x117;" horiz-adv-x="520" 
d="M452 49q-33 -30 -78.5 -44.5t-90.5 -14.5q-55 0 -99.5 16.5t-76 47.5t-48.5 74.5t-17 96.5q0 49 15.5 92t45 74.5t72.5 50t99 18.5q43 0 81.5 -15t66.5 -42t44.5 -65t16.5 -84q0 -31 -5 -54h-346q5 -64 48 -99.5t109 -35.5q44 0 80 13.5t58 33.5zM270 385q-62 0 -99 -34
t-44 -86h273q-3 56 -37 88t-93 32zM215 619q0 22 15.5 35t36.5 13q19 0 34 -13t15 -35q0 -25 -15 -38.5t-34 -13.5q-21 0 -36.5 13.5t-15.5 38.5z" />
    <glyph glyph-name="Eogonek" unicode="&#x118;" horiz-adv-x="575" 
d="M105 700h395v-80h-310v-226h280v-80h-280v-234h320v-80h-5q-23 -1 -43.5 -7.5t-36 -17.5t-25 -26t-9.5 -31t6 -26t15 -16t19.5 -8.5t19.5 -2.5q11 0 21 1.5t23 7.5l24 -49q-13 -11 -36.5 -18t-49.5 -7q-22 0 -43.5 4.5t-39 15.5t-28.5 28.5t-11 43.5q0 40 28 67t70 41
h-304v700z" />
    <glyph glyph-name="eogonek" unicode="&#x119;" horiz-adv-x="520" 
d="M452 49q-32 -29 -74 -43q-30 -20 -48.5 -41.5t-18.5 -46.5q0 -16 6.5 -26t15.5 -16t19.5 -8.5t19.5 -2.5q11 0 21 1.5t23 7.5l24 -49q-13 -11 -36.5 -18t-49.5 -7q-22 0 -44 4.5t-39.5 15.5t-28.5 28.5t-11 43.5q0 31 19.5 55t52.5 44q-5 0 -10 -0.5t-10 -0.5
q-55 0 -99.5 16.5t-76 47.5t-48.5 74.5t-17 96.5q0 49 15.5 92t45 74.5t72.5 50t99 18.5q43 0 81.5 -15t66.5 -42t44.5 -65t16.5 -84q0 -31 -5 -54h-346q5 -64 48 -99.5t109 -35.5q44 0 80 13.5t58 33.5zM270 385q-62 0 -99 -34t-44 -86h273q-3 56 -37 88t-93 32z" />
    <glyph glyph-name="Ecaron" unicode="&#x11a;" horiz-adv-x="575" 
d="M105 700h395v-80h-310v-226h280v-80h-280v-234h320v-80h-405v700zM135 841l33 46l144 -81l143 81l30 -45l-171 -104h-4z" />
    <glyph glyph-name="ecaron" unicode="&#x11b;" horiz-adv-x="520" 
d="M452 49q-33 -30 -78.5 -44.5t-90.5 -14.5q-55 0 -99.5 16.5t-76 47.5t-48.5 74.5t-17 96.5q0 49 15.5 92t45 74.5t72.5 50t99 18.5q43 0 81.5 -15t66.5 -42t44.5 -65t16.5 -84q0 -31 -5 -54h-346q5 -64 48 -99.5t109 -35.5q44 0 80 13.5t58 33.5zM270 385q-62 0 -99 -34
t-44 -86h273q-3 56 -37 88t-93 32zM131 662l39 48l104 -103l104 102l37 -47l-140 -133h-4z" />
    <glyph glyph-name="Gcircumflex" unicode="&#x11c;" horiz-adv-x="727" 
d="M398 356h269v-269q-23 -23 -54.5 -41t-67 -30.5t-71.5 -19t-69 -6.5q-82 0 -147.5 25.5t-111.5 72.5t-71 113.5t-25 148.5q0 75 24.5 141t69.5 114.5t108.5 76.5t141.5 28q72 0 124.5 -17t95.5 -51l-37 -68q-31 28 -76.5 42t-96.5 14q-59 0 -107.5 -20t-83 -56.5
t-54 -88.5t-19.5 -115q0 -64 19.5 -115.5t54.5 -88t84 -56.5t109 -20q25 0 51 4.5t50 13t44.5 19.5t34.5 25v144h-189v80zM387 882h4l174 -103l-33 -46l-143 76l-144 -76l-29 45z" />
    <glyph glyph-name="gcircumflex" unicode="&#x11d;" horiz-adv-x="494" 
d="M10 -65q0 55 39.5 89t104.5 48q-6 8 -8.5 17.5t-2.5 19.5q0 23 12 38q-48 20 -74.5 59t-26.5 89q0 34 13 64t37 52.5t58 35.5t76 13q33 0 62 -8.5t52 -24.5l132 32l2 -65l-85 -21q21 -35 21 -78q0 -34 -13 -63.5t-37 -51.5t-58 -34.5t-76 -12.5h-15t-15 1q-3 -6 -4 -12.5
t-1 -12.5q0 -18 9 -30q7 0 13.5 0.5t13.5 0.5q49 0 91 -9t72.5 -27t48 -45t17.5 -64q0 -36 -17.5 -63t-48 -44.5t-72.5 -26.5t-91 -9t-91 8.5t-72.5 26t-48 44.5t-17.5 64zM85 -65q0 -38 42 -58t112 -20t112 20t42 58t-41 59t-113 21t-113 -21t-41 -59zM129 295
q0 -42 29.5 -69.5t79.5 -27.5q48 0 78.5 26.5t30.5 70.5q0 42 -29 71t-80 29q-50 0 -79.5 -29t-29.5 -71zM384 574l-38 -48l-104 91l-104 -90l-38 47l141 133h4z" />
    <glyph glyph-name="Gbreve" unicode="&#x11e;" horiz-adv-x="727" 
d="M398 356h269v-269q-23 -23 -54.5 -41t-67 -30.5t-71.5 -19t-69 -6.5q-82 0 -147.5 25.5t-111.5 72.5t-71 113.5t-25 148.5q0 75 24.5 141t69.5 114.5t108.5 76.5t141.5 28q72 0 124.5 -17t95.5 -51l-37 -68q-31 28 -76.5 42t-96.5 14q-59 0 -107.5 -20t-83 -56.5
t-54 -88.5t-19.5 -115q0 -64 19.5 -115.5t54.5 -88t84 -56.5t109 -20q25 0 51 4.5t50 13t44.5 19.5t34.5 25v144h-189v80zM262 880q9 -10 21.5 -21.5t30 -21t40 -16t51.5 -6.5q50 0 85 20.5t55 44.5l31 -42q-12 -18 -29 -35t-39 -29.5t-48 -20.5t-55 -8q-33 0 -62 9
t-51.5 23t-39.5 30t-26 31z" />
    <glyph glyph-name="gbreve" unicode="&#x11f;" horiz-adv-x="494" 
d="M10 -65q0 55 39.5 89t104.5 48q-6 8 -8.5 17.5t-2.5 19.5q0 23 12 38q-48 20 -74.5 59t-26.5 89q0 34 13 64t37 52.5t58 35.5t76 13q33 0 62 -8.5t52 -24.5l132 32l2 -65l-85 -21q21 -35 21 -78q0 -34 -13 -63.5t-37 -51.5t-58 -34.5t-76 -12.5h-15t-15 1q-3 -6 -4 -12.5
t-1 -12.5q0 -18 9 -30q7 0 13.5 0.5t13.5 0.5q49 0 91 -9t72.5 -27t48 -45t17.5 -64q0 -36 -17.5 -63t-48 -44.5t-72.5 -26.5t-91 -9t-91 8.5t-72.5 26t-48 44.5t-17.5 64zM85 -65q0 -38 42 -58t112 -20t112 20t42 58t-41 59t-113 21t-113 -21t-41 -59zM129 295
q0 -42 29.5 -69.5t79.5 -27.5q48 0 78.5 26.5t30.5 70.5q0 42 -29 71t-80 29q-50 0 -79.5 -29t-29.5 -71zM129 681q7 -9 17.5 -19.5t24.5 -20t31.5 -15.5t40.5 -6q39 0 68 19t47 41l29 -39q-11 -15 -24 -30t-31 -27.5t-40.5 -20.5t-51.5 -8q-31 0 -55.5 9.5t-43 22.5
t-30.5 27.5t-19 25.5z" />
    <glyph glyph-name="Gdotaccent" unicode="&#x120;" horiz-adv-x="727" 
d="M398 356h269v-269q-23 -23 -54.5 -41t-67 -30.5t-71.5 -19t-69 -6.5q-82 0 -147.5 25.5t-111.5 72.5t-71 113.5t-25 148.5q0 75 24.5 141t69.5 114.5t108.5 76.5t141.5 28q72 0 124.5 -17t95.5 -51l-37 -68q-31 28 -76.5 42t-96.5 14q-59 0 -107.5 -20t-83 -56.5
t-54 -88.5t-19.5 -115q0 -64 19.5 -115.5t54.5 -88t84 -56.5t109 -20q25 0 51 4.5t50 13t44.5 19.5t34.5 25v144h-189v80zM325 817q0 24 17 37.5t40 13.5q21 0 37.5 -13.5t16.5 -37.5q0 -26 -16.5 -40t-37.5 -14q-23 0 -40 14t-17 40z" />
    <glyph glyph-name="gdotaccent" unicode="&#x121;" horiz-adv-x="494" 
d="M10 -65q0 55 39.5 89t104.5 48q-6 8 -8.5 17.5t-2.5 19.5q0 23 12 38q-48 20 -74.5 59t-26.5 89q0 34 13 64t37 52.5t58 35.5t76 13q33 0 62 -8.5t52 -24.5l132 32l2 -65l-85 -21q21 -35 21 -78q0 -34 -13 -63.5t-37 -51.5t-58 -34.5t-76 -12.5h-15t-15 1q-3 -6 -4 -12.5
t-1 -12.5q0 -18 9 -30q7 0 13.5 0.5t13.5 0.5q49 0 91 -9t72.5 -27t48 -45t17.5 -64q0 -36 -17.5 -63t-48 -44.5t-72.5 -26.5t-91 -9t-91 8.5t-72.5 26t-48 44.5t-17.5 64zM85 -65q0 -38 42 -58t112 -20t112 20t42 58t-41 59t-113 21t-113 -21t-41 -59zM129 295
q0 -42 29.5 -69.5t79.5 -27.5q48 0 78.5 26.5t30.5 70.5q0 42 -29 71t-80 29q-50 0 -79.5 -29t-29.5 -71zM189 619q0 22 15.5 35t36.5 13q19 0 34 -13t15 -35q0 -25 -15 -38.5t-34 -13.5q-21 0 -36.5 13.5t-15.5 38.5z" />
    <glyph glyph-name="Gcommaaccent" unicode="&#x122;" horiz-adv-x="727" 
d="M398 356h269v-269q-23 -23 -54.5 -41t-67 -30.5t-71.5 -19t-69 -6.5q-82 0 -147.5 25.5t-111.5 72.5t-71 113.5t-25 148.5q0 75 24.5 141t69.5 114.5t108.5 76.5t141.5 28q72 0 124.5 -17t95.5 -51l-37 -68q-31 28 -76.5 42t-96.5 14q-59 0 -107.5 -20t-83 -56.5
t-54 -88.5t-19.5 -115q0 -64 19.5 -115.5t54.5 -88t84 -56.5t109 -20q25 0 51 4.5t50 13t44.5 19.5t34.5 25v144h-189v80zM426 -46q12 -3 20.5 -15.5t8.5 -33.5q0 -24 -9 -42.5t-23.5 -32t-33 -22t-37.5 -12.5l-23 36q25 10 35.5 25t10.5 37q0 17 -6.5 26.5t-17.5 14.5z" />
    <glyph glyph-name="gcommaaccent" unicode="&#x123;" horiz-adv-x="494" 
d="M10 -65q0 55 39.5 89t104.5 48q-6 8 -8.5 17.5t-2.5 19.5q0 23 12 38q-48 20 -74.5 59t-26.5 89q0 34 13 64t37 52.5t58 35.5t76 13q33 0 62 -8.5t52 -24.5l132 32l2 -65l-85 -21q21 -35 21 -78q0 -34 -13 -63.5t-37 -51.5t-58 -34.5t-76 -12.5h-15t-15 1q-3 -6 -4 -12.5
t-1 -12.5q0 -18 9 -30q7 0 13.5 0.5t13.5 0.5q49 0 91 -9t72.5 -27t48 -45t17.5 -64q0 -36 -17.5 -63t-48 -44.5t-72.5 -26.5t-91 -9t-91 8.5t-72.5 26t-48 44.5t-17.5 64zM85 -65q0 -38 42 -58t112 -20t112 20t42 58t-41 59t-113 21t-113 -21t-41 -59zM129 295
q0 -42 29.5 -69.5t79.5 -27.5q48 0 78.5 26.5t30.5 70.5q0 42 -29 71t-80 29q-50 0 -79.5 -29t-29.5 -71zM210 543q-12 3 -20.5 15.5t-8.5 33.5q0 24 9 42t23.5 31.5t33 22.5t37.5 13l23 -36q-25 -10 -35.5 -25t-10.5 -37q0 -17 6.5 -26.5t17.5 -14.5z" />
    <glyph glyph-name="Hcircumflex" unicode="&#x124;" horiz-adv-x="765" 
d="M575 317h-385v-317h-85v700h85v-303h385v303h85v-700h-85v317zM380 882h4l174 -103l-33 -46l-143 76l-144 -76l-29 45z" />
    <glyph glyph-name="hcircumflex" unicode="&#x125;" horiz-adv-x="549" 
d="M72 700h80v-302q25 26 64.5 43t82.5 17q88 0 137.5 -47t49.5 -153v-258h-80v247q0 136 -126 136q-38 0 -72.5 -16.5t-55.5 -40.5v-326h-80v700zM154 882h4l174 -103l-33 -46l-143 76l-144 -76l-29 45z" />
    <glyph glyph-name="Hbar" unicode="&#x126;" horiz-adv-x="775" 
d="M25 589h85v111h85v-111h385v111h85v-111h85v-75h-85v-514h-85v317h-385v-317h-85v514h-85v75zM580 397v117h-385v-117h385z" />
    <glyph glyph-name="hbar" unicode="&#x127;" horiz-adv-x="574" 
d="M-20 595h117v105h80v-105h162v-75h-162v-122q25 26 64.5 43t82.5 17q88 0 137.5 -47t49.5 -153v-258h-80v247q0 136 -126 136q-38 0 -72.5 -16.5t-55.5 -40.5v-326h-80v520h-117v75z" />
    <glyph glyph-name="Imacron" unicode="&#x12a;" horiz-adv-x="335" 
d="M125 700h85v-700h-85v700zM18 835h304v-65h-304v65z" />
    <glyph glyph-name="imacron" unicode="&#x12b;" horiz-adv-x="268" 
d="M94 450h80v-450h-80v450zM2 645h264v-65h-264v65z" />
    <glyph glyph-name="Iogonek" unicode="&#x12e;" horiz-adv-x="335" 
d="M219 -175q-13 -11 -36.5 -18t-49.5 -7q-22 0 -43.5 4.5t-39 15.5t-28.5 28.5t-11 43.5q0 22 9 40t24.5 32t36 24.5t44.5 16.5v695h85v-700h-5q-23 -1 -43.5 -7.5t-36 -17.5t-25 -26t-9.5 -31t6 -26t15 -16t19.5 -8.5t19.5 -2.5q11 0 21 1.5t23 7.5z" />
    <glyph glyph-name="iogonek" unicode="&#x12f;" horiz-adv-x="268" 
d="M182 -175q-13 -11 -36.5 -18t-49.5 -7q-22 0 -43.5 4.5t-39 15.5t-28.5 28.5t-11 43.5q0 22 9.5 40.5t26 33t38.5 24.5t46 16v444h80v-450h-6q-23 -1 -43.5 -7.5t-36 -17.5t-25 -26t-9.5 -31t6 -26t15 -16t19.5 -8.5t19.5 -2.5q11 0 21 1.5t23 7.5zM81 619q0 22 15.5 35
t36.5 13q19 0 34 -13t15 -35q0 -25 -15 -38.5t-34 -13.5q-21 0 -36.5 13.5t-15.5 38.5z" />
    <glyph glyph-name="Idotaccent" unicode="&#x130;" horiz-adv-x="335" 
d="M125 700h85v-700h-85v700zM112 817q0 24 17 37.5t40 13.5q21 0 37.5 -13.5t16.5 -37.5q0 -26 -16.5 -40t-37.5 -14q-23 0 -40 14t-17 40z" />
    <glyph glyph-name="dotlessi" unicode="&#x131;" horiz-adv-x="268" 
d="M94 450h80v-450h-80v450z" />
    <glyph glyph-name="Jcircumflex" unicode="&#x134;" horiz-adv-x="374" 
d="M269 159q0 -79 -36 -124t-117 -45q-35 0 -63.5 11.5t-42.5 25.5l29 65q12 -9 29.5 -15.5t36.5 -6.5q46 0 62.5 29t16.5 74v527h85v-541zM218 882h4l174 -103l-33 -46l-143 76l-144 -76l-29 45z" />
    <glyph glyph-name="jcircumflex" unicode="&#x135;" horiz-adv-x="266" 
d="M178 -33q0 -83 -33 -129t-108 -46q-32 0 -59 9t-41 20l23 64q12 -8 26.5 -13t32.5 -5q43 0 61 28t18 78v477h80v-483zM280 574l-38 -48l-104 91l-104 -90l-38 47l141 133h4z" />
    <glyph glyph-name="Kcommaaccent" unicode="&#x136;" horiz-adv-x="653" 
d="M305 371l328 -371h-109l-317 365l307 335h103zM105 700h85v-700h-85v700zM346 -46q12 -3 20.5 -15.5t8.5 -33.5q0 -24 -9 -42.5t-23.5 -32t-33 -22t-37.5 -12.5l-23 36q25 10 35.5 25t10.5 37q0 17 -6.5 26.5t-17.5 14.5z" />
    <glyph glyph-name="kcommaaccent" unicode="&#x137;" horiz-adv-x="491" 
d="M266 241l215 -241h-109l-203 235l186 215h102zM72 700h80v-700h-80v700zM260 -46q12 -3 20.5 -15.5t8.5 -33.5q0 -24 -9 -42.5t-23.5 -32t-33 -22t-37.5 -12.5l-23 36q25 10 35.5 25t10.5 37q0 17 -6.5 26.5t-17.5 14.5z" />
    <glyph glyph-name="Lacute" unicode="&#x139;" horiz-adv-x="550" 
d="M105 700h85v-620h345v-80h-430v700zM236 735l-23 48l195 104l30 -68z" />
    <glyph glyph-name="lacute" unicode="&#x13a;" horiz-adv-x="290" 
d="M72 700h80v-544q0 -46 12 -67.5t41 -21.5q17 0 31.5 6t25.5 14l18 -61q-18 -14 -44.5 -24t-61.5 -10q-102 0 -102 128v580zM93 735l-23 48l195 104l30 -68z" />
    <glyph glyph-name="Lcommaaccent" unicode="&#x13b;" horiz-adv-x="550" 
d="M105 700h85v-620h345v-80h-430v700zM336 -46q12 -3 20.5 -15.5t8.5 -33.5q0 -24 -9 -42.5t-23.5 -32t-33 -22t-37.5 -12.5l-23 36q25 10 35.5 25t10.5 37q0 17 -6.5 26.5t-17.5 14.5z" />
    <glyph glyph-name="lcommaaccent" unicode="&#x13c;" horiz-adv-x="290" 
d="M72 700h80v-544q0 -46 12 -67.5t41 -21.5q17 0 31.5 6t25.5 14l18 -61q-18 -14 -44.5 -24t-61.5 -10q-102 0 -102 128v580zM193 -46q12 -3 20.5 -15.5t8.5 -33.5q0 -24 -9 -42.5t-23.5 -32t-33 -22t-37.5 -12.5l-23 36q25 10 35.5 25t10.5 37q0 17 -6.5 26.5t-17.5 14.5z
" />
    <glyph glyph-name="Lcaron" unicode="&#x13d;" horiz-adv-x="550" 
d="M105 700h85v-620h345v-80h-430v700zM434 700q8 -16 8 -38q0 -30 -7.5 -55t-19.5 -44t-27.5 -32.5t-31.5 -21.5l-36 35q21 18 34 46.5t13 62.5q0 15 -3 26t-8 21h78z" />
    <glyph glyph-name="lcaron" unicode="&#x13e;" horiz-adv-x="290" 
d="M72 700h80v-544q0 -46 12 -67.5t41 -21.5q17 0 31.5 6t25.5 14l18 -61q-18 -14 -44.5 -24t-61.5 -10q-102 0 -102 128v580zM324 700q8 -16 8 -38q0 -30 -7.5 -55t-19.5 -44t-27.5 -32.5t-31.5 -21.5l-36 35q21 18 34 46.5t13 62.5q0 15 -3 26t-8 21h78z" />
    <glyph glyph-name="Ldot" unicode="&#x13f;" horiz-adv-x="550" 
d="M105 700h85v-620h345v-80h-430v700zM368 374q0 20 15.5 36.5t41.5 16.5q23 0 38 -16.5t15 -36.5q0 -23 -15 -40t-38 -17q-26 0 -41.5 17t-15.5 40z" />
    <glyph glyph-name="ldot" unicode="&#x140;" horiz-adv-x="324" 
d="M72 700h80v-544q0 -46 12 -67.5t41 -21.5q17 0 31.5 6t25.5 14l18 -61q-18 -14 -44.5 -24t-61.5 -10q-102 0 -102 128v580zM226 326q0 22 15.5 35t36.5 13q19 0 34 -13t15 -35q0 -25 -15 -38.5t-34 -13.5q-21 0 -36.5 13.5t-15.5 38.5z" />
    <glyph glyph-name="Lslash" unicode="&#x141;" horiz-adv-x="560" 
d="M25 302l90 43v355h85v-314l176 86v-82l-176 -86v-224h345v-80h-430v263l-90 -44v83z" />
    <glyph glyph-name="lslash" unicode="&#x142;" horiz-adv-x="320" 
d="M15 305l77 37v358h80v-320l105 51v-82l-105 -51v-142q0 -46 12 -67.5t41 -21.5q17 0 31.5 6t25.5 14l18 -61q-18 -14 -44.5 -24t-61.5 -10q-102 0 -102 128v139l-77 -37v83z" />
    <glyph glyph-name="Nacute" unicode="&#x143;" horiz-adv-x="795" 
d="M622 0l-437 550v-550h-80v700h68l437 -552v552h80v-700h-68zM361 735l-23 48l195 104l30 -68z" />
    <glyph glyph-name="nacute" unicode="&#x144;" horiz-adv-x="549" 
d="M72 450h80v-55q23 26 62.5 44.5t84.5 18.5q88 0 137.5 -46t49.5 -152v-260h-80v245q0 71 -32 104.5t-95 33.5q-38 0 -71.5 -16.5t-55.5 -41.5v-325h-80v450zM271 531l-48 34l106 157l62 -48z" />
    <glyph glyph-name="Ncommaaccent" unicode="&#x145;" horiz-adv-x="795" 
d="M622 0l-437 550v-550h-80v700h68l437 -552v552h80v-700h-68zM421 -46q12 -3 20.5 -15.5t8.5 -33.5q0 -24 -9 -42.5t-23.5 -32t-33 -22t-37.5 -12.5l-23 36q25 10 35.5 25t10.5 37q0 17 -6.5 26.5t-17.5 14.5z" />
    <glyph glyph-name="ncommaaccent" unicode="&#x146;" horiz-adv-x="549" 
d="M72 450h80v-55q23 26 62.5 44.5t84.5 18.5q88 0 137.5 -46t49.5 -152v-260h-80v245q0 71 -32 104.5t-95 33.5q-38 0 -71.5 -16.5t-55.5 -41.5v-325h-80v450zM299 -46q12 -3 20.5 -15.5t8.5 -33.5q0 -24 -9 -42.5t-23.5 -32t-33 -22t-37.5 -12.5l-23 36q25 10 35.5 25
t10.5 37q0 17 -6.5 26.5t-17.5 14.5z" />
    <glyph glyph-name="Ncaron" unicode="&#x147;" horiz-adv-x="795" 
d="M622 0l-437 550v-550h-80v700h68l437 -552v552h80v-700h-68zM222 841l33 46l144 -81l143 81l30 -45l-171 -104h-4z" />
    <glyph glyph-name="ncaron" unicode="&#x148;" horiz-adv-x="549" 
d="M72 450h80v-55q23 26 62.5 44.5t84.5 18.5q88 0 137.5 -46t49.5 -152v-260h-80v245q0 71 -32 104.5t-95 33.5q-38 0 -71.5 -16.5t-55.5 -41.5v-325h-80v450zM131 662l39 48l104 -103l104 102l37 -47l-140 -133h-4z" />
    <glyph glyph-name="Omacron" unicode="&#x14c;" horiz-adv-x="814" 
d="M50 350q0 76 26.5 142t74 114.5t113 76t143.5 27.5q76 0 141.5 -26.5t113.5 -74t75 -113.5t27 -146q0 -78 -27 -144t-75 -114t-113.5 -75t-141.5 -27t-141.5 26.5t-113.5 74t-75 113.5t-27 146zM140 350q0 -60 20.5 -111t56.5 -88.5t85 -59t105 -21.5q60 0 109 21.5
t84.5 59t54.5 89t19 110.5q0 61 -20.5 112.5t-56.5 88.5t-85 58t-105 21q-57 0 -106 -21t-84.5 -58t-56 -88.5t-20.5 -112.5zM260 835h304v-65h-304v65z" />
    <glyph glyph-name="omacron" unicode="&#x14d;" horiz-adv-x="565" 
d="M42 225q0 51 17 94t48.5 74.5t76 49t98.5 17.5t98 -17.5t75.5 -49t49 -74.5t17.5 -94t-17.5 -94t-49 -74.5t-75.5 -49t-98 -17.5t-98.5 17.5t-76 49t-48.5 74.5t-17 94zM127 225q0 -35 11.5 -64.5t32 -50.5t49 -33t62.5 -12t62.5 11.5t49 32.5t32 50.5t11.5 65.5
q0 35 -11.5 64.5t-32 50.5t-49 33t-62.5 12q-33 0 -61.5 -11.5t-49 -32.5t-32.5 -50.5t-12 -65.5zM155 645h264v-65h-264v65z" />
    <glyph glyph-name="Ohungarumlaut" unicode="&#x150;" horiz-adv-x="814" 
d="M50 350q0 76 26.5 142t74 114.5t113 76t143.5 27.5q76 0 141.5 -26.5t113.5 -74t75 -113.5t27 -146q0 -78 -27 -144t-75 -114t-113.5 -75t-141.5 -27t-141.5 26.5t-113.5 74t-75 113.5t-27 146zM140 350q0 -60 20.5 -111t56.5 -88.5t85 -59t105 -21.5q60 0 109 21.5
t84.5 59t54.5 89t19 110.5q0 61 -20.5 112.5t-56.5 88.5t-85 58t-105 21q-57 0 -106 -21t-84.5 -58t-56 -88.5t-20.5 -112.5zM483 735l-33 35l157 117l55 -51zM306 735l-34 32l128 120l67 -36z" />
    <glyph glyph-name="ohungarumlaut" unicode="&#x151;" horiz-adv-x="565" 
d="M42 225q0 51 17 94t48.5 74.5t76 49t98.5 17.5t98 -17.5t75.5 -49t49 -74.5t17.5 -94t-17.5 -94t-49 -74.5t-75.5 -49t-98 -17.5t-98.5 17.5t-76 49t-48.5 74.5t-17 94zM127 225q0 -35 11.5 -64.5t32 -50.5t49 -33t62.5 -12t62.5 11.5t49 32.5t32 50.5t11.5 65.5
q0 35 -11.5 64.5t-32 50.5t-49 33t-62.5 12q-33 0 -61.5 -11.5t-49 -32.5t-32.5 -50.5t-12 -65.5zM360 531l-48 34l114 151l59 -45zM205 531l-48 34l103 158l58 -43z" />
    <glyph glyph-name="OE" unicode="&#x152;" horiz-adv-x="1042" 
d="M572 28q-34 -18 -77 -28t-90 -10q-79 0 -144 25.5t-112 72.5t-73 113.5t-26 148.5q0 75 23.5 141t68.5 114.5t110 76.5t147 28q51 0 94.5 -10.5t78.5 -29.5v30h395v-80h-310v-226h280v-80h-280v-234h320v-80h-405v28zM413 70q90 0 159 46v462q-35 26 -76.5 39t-95.5 13
q-57 0 -105 -20.5t-82.5 -57.5t-53.5 -88.5t-19 -113.5q0 -63 20 -114.5t56 -88t86 -57t111 -20.5z" />
    <glyph glyph-name="oe" unicode="&#x153;" horiz-adv-x="837" 
d="M769 49q-32 -30 -77.5 -44.5t-90.5 -14.5q-98 0 -161 51q-63 -51 -158 -51q-54 0 -98.5 17.5t-76 49t-48.5 74.5t-17 94t17 94t48.5 74.5t76 49t98.5 17.5q47 0 86.5 -13.5t69.5 -38.5q29 24 67.5 38t86.5 14q43 0 81 -15t66.5 -42t44.5 -65t16 -84q0 -31 -5 -54h-345
q5 -64 47.5 -99.5t109.5 -35.5q44 0 79.5 13.5t57.5 33.5zM282 65q32 0 59.5 10t47.5 27q-29 52 -29 123q0 68 29 123q-20 17 -46.5 27t-60.5 10q-33 0 -61.5 -11.5t-49.5 -32.5t-32.5 -50.5t-11.5 -65.5q0 -35 11.5 -64.5t32 -50.5t49 -33t62.5 -12zM587 385
q-62 0 -98.5 -34t-43.5 -86h273q-4 56 -38 88t-93 32z" />
    <glyph glyph-name="Racute" unicode="&#x154;" horiz-adv-x="643" 
d="M105 0v700q15 0 43 0.5t58 0.5t54.5 0.5t32.5 0.5q72 0 119.5 -16.5t76.5 -45t41 -66.5t12 -80q0 -41 -13 -74t-34 -58t-48.5 -42t-56.5 -24l233 -296h-104l-215 280h-114v-280h-85zM288 622q-17 0 -45 -0.5t-53 -1.5v-260h103q30 0 59 9t51 26.5t35.5 42t13.5 55.5
q0 27 -8 50.5t-27.5 41t-51 27.5t-77.5 10zM231 735l-23 48l195 104l30 -68z" />
    <glyph glyph-name="racute" unicode="&#x155;" horiz-adv-x="340" 
d="M72 450h80v-53q17 26 43.5 43.5t69.5 17.5q28 0 43.5 -4.5t26.5 -12.5l-28 -75q-17 10 -29 13.5t-32 3.5q-39 0 -60 -19.5t-34 -44.5v-319h-80v450zM185 531l-48 34l106 157l62 -48z" />
    <glyph glyph-name="Rcommaaccent" unicode="&#x156;" horiz-adv-x="643" 
d="M105 0v700q15 0 43 0.5t58 0.5t54.5 0.5t32.5 0.5q72 0 119.5 -16.5t76.5 -45t41 -66.5t12 -80q0 -41 -13 -74t-34 -58t-48.5 -42t-56.5 -24l233 -296h-104l-215 280h-114v-280h-85zM288 622q-17 0 -45 -0.5t-53 -1.5v-260h103q30 0 59 9t51 26.5t35.5 42t13.5 55.5
q0 27 -8 50.5t-27.5 41t-51 27.5t-77.5 10zM341 -46q12 -3 20.5 -15.5t8.5 -33.5q0 -24 -9 -42.5t-23.5 -32t-33 -22t-37.5 -12.5l-23 36q25 10 35.5 25t10.5 37q0 17 -6.5 26.5t-17.5 14.5z" />
    <glyph glyph-name="rcommaaccent" unicode="&#x157;" horiz-adv-x="340" 
d="M72 450h80v-53q17 26 43.5 43.5t69.5 17.5q28 0 43.5 -4.5t26.5 -12.5l-28 -75q-17 10 -29 13.5t-32 3.5q-39 0 -60 -19.5t-34 -44.5v-319h-80v450zM184 -46q12 -3 20.5 -15.5t8.5 -33.5q0 -24 -9 -42.5t-23.5 -32t-33 -22t-37.5 -12.5l-23 36q25 10 35.5 25t10.5 37
q0 17 -6.5 26.5t-17.5 14.5z" />
    <glyph glyph-name="Rcaron" unicode="&#x158;" horiz-adv-x="643" 
d="M105 0v700q15 0 43 0.5t58 0.5t54.5 0.5t32.5 0.5q72 0 119.5 -16.5t76.5 -45t41 -66.5t12 -80q0 -41 -13 -74t-34 -58t-48.5 -42t-56.5 -24l233 -296h-104l-215 280h-114v-280h-85zM288 622q-17 0 -45 -0.5t-53 -1.5v-260h103q30 0 59 9t51 26.5t35.5 42t13.5 55.5
q0 27 -8 50.5t-27.5 41t-51 27.5t-77.5 10zM115 841l33 46l144 -81l143 81l30 -45l-171 -104h-4z" />
    <glyph glyph-name="rcaron" unicode="&#x159;" horiz-adv-x="340" 
d="M72 450h80v-53q17 26 43.5 43.5t69.5 17.5q28 0 43.5 -4.5t26.5 -12.5l-28 -75q-17 10 -29 13.5t-32 3.5q-39 0 -60 -19.5t-34 -44.5v-319h-80v450zM51 662l39 48l104 -103l104 102l37 -47l-140 -133h-4z" />
    <glyph glyph-name="Sacute" unicode="&#x15a;" horiz-adv-x="549" 
d="M409 179q0 43 -25.5 69t-63.5 45.5t-82 36.5t-82 41.5t-63.5 61t-25.5 94.5q0 38 14.5 71.5t41.5 58t66 39t89 14.5q61 0 112 -20t81 -53l-46 -64q-28 28 -62 42.5t-80 14.5q-59 0 -92.5 -28t-33.5 -75q0 -43 25.5 -69t63.5 -44.5t82 -35t82 -40.5t63.5 -61t25.5 -97
q0 -43 -18 -78t-48.5 -60t-72 -38.5t-89.5 -13.5q-32 0 -66 7t-64 20.5t-54 33t-37 44.5l49 58q15 -20 36 -35.5t44 -26t47 -16t46 -5.5q27 0 52 7t44 21t30 34t11 47zM239 735l-23 48l195 104l30 -68z" />
    <glyph glyph-name="sacute" unicode="&#x15b;" horiz-adv-x="430" 
d="M300 122q0 23 -18 36t-45 22.5t-58.5 19t-58.5 25.5t-45 41.5t-18 66.5q0 60 43 93.5t110 33.5q56 0 95.5 -16.5t59.5 -36.5l-38 -61q-20 18 -49 31t-64 13q-34 0 -53 -16.5t-19 -39.5q0 -24 18 -37.5t45 -23.5t58.5 -19.5t58.5 -24.5t45 -39.5t18 -63.5
q0 -36 -14.5 -61.5t-38.5 -42t-55.5 -24.5t-65.5 -8q-27 0 -53.5 6.5t-49 16.5t-39 22.5t-24.5 24.5l45 57q10 -11 25 -21.5t33 -18.5t36.5 -12.5t35.5 -4.5q32 0 56 15.5t24 46.5zM206 531l-48 34l106 157l62 -48z" />
    <glyph glyph-name="Scircumflex" unicode="&#x15c;" horiz-adv-x="549" 
d="M409 179q0 43 -25.5 69t-63.5 45.5t-82 36.5t-82 41.5t-63.5 61t-25.5 94.5q0 38 14.5 71.5t41.5 58t66 39t89 14.5q61 0 112 -20t81 -53l-46 -64q-28 28 -62 42.5t-80 14.5q-59 0 -92.5 -28t-33.5 -75q0 -43 25.5 -69t63.5 -44.5t82 -35t82 -40.5t63.5 -61t25.5 -97
q0 -43 -18 -78t-48.5 -60t-72 -38.5t-89.5 -13.5q-32 0 -66 7t-64 20.5t-54 33t-37 44.5l49 58q15 -20 36 -35.5t44 -26t47 -16t46 -5.5q27 0 52 7t44 21t30 34t11 47zM270 882h4l174 -103l-33 -46l-143 76l-144 -76l-29 45z" />
    <glyph glyph-name="scircumflex" unicode="&#x15d;" horiz-adv-x="430" 
d="M300 122q0 23 -18 36t-45 22.5t-58.5 19t-58.5 25.5t-45 41.5t-18 66.5q0 60 43 93.5t110 33.5q56 0 95.5 -16.5t59.5 -36.5l-38 -61q-20 18 -49 31t-64 13q-34 0 -53 -16.5t-19 -39.5q0 -24 18 -37.5t45 -23.5t58.5 -19.5t58.5 -24.5t45 -39.5t18 -63.5
q0 -36 -14.5 -61.5t-38.5 -42t-55.5 -24.5t-65.5 -8q-27 0 -53.5 6.5t-49 16.5t-39 22.5t-24.5 24.5l45 57q10 -11 25 -21.5t33 -18.5t36.5 -12.5t35.5 -4.5q32 0 56 15.5t24 46.5zM358 574l-38 -48l-104 91l-104 -90l-38 47l141 133h4z" />
    <glyph glyph-name="Scedilla" unicode="&#x15e;" horiz-adv-x="549" 
d="M178 -127q15 -11 35.5 -19.5t38.5 -8.5q24 0 40 9.5t16 26.5q0 18 -13 28.5t-45 10.5h-6v71q-30 3 -59.5 11t-55.5 21.5t-46.5 31.5t-32.5 40l49 58q15 -20 36 -35.5t44 -26t47 -16t46 -5.5q27 0 52 7t44 21t30 34t11 47q0 43 -25.5 69t-63.5 45.5t-82 36.5t-82 41.5
t-63.5 61t-25.5 94.5q0 38 14.5 71.5t41.5 58t66 39t89 14.5q61 0 112 -20t81 -53l-46 -64q-28 28 -62 42.5t-80 14.5q-59 0 -92.5 -28t-33.5 -75q0 -43 25.5 -69t63.5 -44.5t82 -35t82 -40.5t63.5 -61t25.5 -97q0 -41 -16.5 -75t-45 -58.5t-67 -39t-83.5 -16.5v-34
q56 -3 81 -24t25 -56q0 -36 -32.5 -59t-90.5 -23q-45 0 -72.5 12t-45.5 24z" />
    <glyph glyph-name="scedilla" unicode="&#x15f;" horiz-adv-x="430" 
d="M118 -132q15 -10 34 -16.5t37 -6.5q24 0 40 9.5t16 26.5q0 18 -13 28.5t-45 10.5h-6v72q-47 6 -84.5 26.5t-51.5 41.5l45 57q10 -11 25 -21.5t33 -18.5t36.5 -12.5t35.5 -4.5q32 0 56 15.5t24 46.5q0 23 -18 36t-45 22.5t-58.5 19t-58.5 25.5t-45 41.5t-18 66.5
q0 60 43 93.5t110 33.5q56 0 95.5 -16.5t59.5 -36.5l-38 -61q-20 18 -49 31t-64 13q-34 0 -53 -16.5t-19 -39.5q0 -24 18 -37.5t45 -23.5t58.5 -19.5t58.5 -24.5t45 -39.5t18 -63.5q0 -34 -13 -59t-35.5 -41.5t-51.5 -25.5t-61 -10v-33q51 -3 76 -24t25 -56q0 -36 -32.5 -59
t-93.5 -23q-38 0 -62.5 11t-42.5 23z" />
    <glyph glyph-name="Scaron" unicode="&#x160;" horiz-adv-x="549" 
d="M409 179q0 43 -25.5 69t-63.5 45.5t-82 36.5t-82 41.5t-63.5 61t-25.5 94.5q0 38 14.5 71.5t41.5 58t66 39t89 14.5q61 0 112 -20t81 -53l-46 -64q-28 28 -62 42.5t-80 14.5q-59 0 -92.5 -28t-33.5 -75q0 -43 25.5 -69t63.5 -44.5t82 -35t82 -40.5t63.5 -61t25.5 -97
q0 -43 -18 -78t-48.5 -60t-72 -38.5t-89.5 -13.5q-32 0 -66 7t-64 20.5t-54 33t-37 44.5l49 58q15 -20 36 -35.5t44 -26t47 -16t46 -5.5q27 0 52 7t44 21t30 34t11 47zM103 841l33 46l144 -81l143 81l30 -45l-171 -104h-4z" />
    <glyph glyph-name="scaron" unicode="&#x161;" horiz-adv-x="430" 
d="M300 122q0 23 -18 36t-45 22.5t-58.5 19t-58.5 25.5t-45 41.5t-18 66.5q0 60 43 93.5t110 33.5q56 0 95.5 -16.5t59.5 -36.5l-38 -61q-20 18 -49 31t-64 13q-34 0 -53 -16.5t-19 -39.5q0 -24 18 -37.5t45 -23.5t58.5 -19.5t58.5 -24.5t45 -39.5t18 -63.5
q0 -36 -14.5 -61.5t-38.5 -42t-55.5 -24.5t-65.5 -8q-27 0 -53.5 6.5t-49 16.5t-39 22.5t-24.5 24.5l45 57q10 -11 25 -21.5t33 -18.5t36.5 -12.5t35.5 -4.5q32 0 56 15.5t24 46.5zM72 662l39 48l104 -103l104 102l37 -47l-140 -133h-4z" />
    <glyph glyph-name="Tcommaaccent" unicode="&#x162;" horiz-adv-x="595" 
d="M210 -127q15 -11 35.5 -19.5t38.5 -8.5q24 0 40 9.5t16 26.5q0 18 -13 28.5t-45 10.5h-6v80h-21v620h-245v80h575v-80h-245v-620h-21v-43q56 -3 81 -24t25 -56q0 -36 -32.5 -59t-90.5 -23q-45 0 -72.5 12t-45.5 24z" />
    <glyph glyph-name="tcommaaccent" unicode="&#x163;" horiz-adv-x="353" 
d="M91 -132q15 -10 34 -16.5t37 -6.5q24 0 40 9.5t16 26.5q0 18 -13 28.5t-45 10.5h-6v79q-49 14 -70.5 57.5t-21.5 114.5v404h80v-125h165v-75h-165v-196q0 -54 18.5 -83t61.5 -29q23 0 41 8t30 17l25 -62q-18 -15 -47.5 -26.5t-67.5 -11.5h-6v-35q51 -3 76 -24t25 -56
q0 -36 -32.5 -59t-93.5 -23q-38 0 -62.5 11t-42.5 23z" />
    <glyph glyph-name="Tcaron" unicode="&#x164;" horiz-adv-x="595" 
d="M10 700h575v-80h-245v-620h-85v620h-245v80zM119 841l33 46l144 -81l143 81l30 -45l-171 -104h-4z" />
    <glyph glyph-name="tcaron" unicode="&#x165;" horiz-adv-x="353" 
d="M62 575h80v-125h165v-75h-165v-196q0 -54 18.5 -83t61.5 -29q23 0 41 8t30 17l25 -62q-18 -15 -47.5 -26.5t-67.5 -11.5q-76 0 -108.5 46t-32.5 133v404zM324 700q8 -16 8 -38q0 -30 -7.5 -55t-19.5 -44t-27.5 -32.5t-31.5 -21.5l-36 35q21 18 34 46.5t13 62.5
q0 15 -3 26t-8 21h78z" />
    <glyph glyph-name="Umacron" unicode="&#x16a;" horiz-adv-x="751" 
d="M656 292q0 -80 -22 -137t-59.5 -93.5t-86.5 -53.5t-103 -17q-63 0 -116 19.5t-92 58t-60.5 96t-21.5 134.5v401h85v-385q0 -115 53 -179.5t152 -64.5q87 0 136.5 59t49.5 179v391h85v-408zM228 835h304v-65h-304v65z" />
    <glyph glyph-name="umacron" unicode="&#x16b;" horiz-adv-x="540" 
d="M467 0h-80v64q-23 -29 -64 -51.5t-95 -22.5q-75 0 -120.5 46.5t-45.5 145.5v268h80v-250q0 -64 27 -99.5t89 -35.5q39 0 73.5 20t55.5 47v318h80v-450zM135 645h264v-65h-264v65z" />
    <glyph glyph-name="Ubreve" unicode="&#x16c;" horiz-adv-x="751" 
d="M656 292q0 -80 -22 -137t-59.5 -93.5t-86.5 -53.5t-103 -17q-63 0 -116 19.5t-92 58t-60.5 96t-21.5 134.5v401h85v-385q0 -115 53 -179.5t152 -64.5q87 0 136.5 59t49.5 179v391h85v-408zM234 880q9 -10 21.5 -21.5t30 -21t40 -16t51.5 -6.5q50 0 85 20.5t55 44.5
l31 -42q-12 -18 -29 -35t-39 -29.5t-48 -20.5t-55 -8q-33 0 -62 9t-51.5 23t-39.5 30t-26 31z" />
    <glyph glyph-name="ubreve" unicode="&#x16d;" horiz-adv-x="540" 
d="M467 0h-80v64q-23 -29 -64 -51.5t-95 -22.5q-75 0 -120.5 46.5t-45.5 145.5v268h80v-250q0 -64 27 -99.5t89 -35.5q39 0 73.5 20t55.5 47v318h80v-450zM156 681q7 -9 17.5 -19.5t24.5 -20t31.5 -15.5t40.5 -6q39 0 68 19t47 41l29 -39q-11 -15 -24 -30t-31 -27.5
t-40.5 -20.5t-51.5 -8q-31 0 -55.5 9.5t-43 22.5t-30.5 27.5t-19 25.5z" />
    <glyph glyph-name="Uring" unicode="&#x16e;" horiz-adv-x="751" 
d="M656 292q0 -80 -22 -137t-59.5 -93.5t-86.5 -53.5t-103 -17q-63 0 -116 19.5t-92 58t-60.5 96t-21.5 134.5v401h85v-385q0 -115 53 -179.5t152 -64.5q87 0 136.5 59t49.5 179v391h85v-408zM251 792q0 25 10 43t26.5 30t39 17.5t48.5 5.5t49 -5.5t40 -17.5t27 -30t10 -43
t-10 -43.5t-27 -31t-40 -19t-49 -6.5q-51 0 -87.5 25t-36.5 75zM311 792q0 -28 18.5 -41.5t46.5 -13.5q27 0 46 13.5t19 41.5q0 27 -19 39t-46 12q-28 0 -46.5 -12t-18.5 -39z" />
    <glyph glyph-name="uring" unicode="&#x16f;" horiz-adv-x="540" 
d="M467 0h-80v64q-23 -29 -64 -51.5t-95 -22.5q-75 0 -120.5 46.5t-45.5 145.5v268h80v-250q0 -64 27 -99.5t89 -35.5q39 0 73.5 20t55.5 47v318h80v-450zM152 613q0 23 8.5 43t24 35t36.5 24t45 9q25 0 46 -9t36.5 -24t24.5 -35t9 -43t-9 -43t-24.5 -35t-36.5 -23.5
t-46 -8.5q-24 0 -45 8.5t-36.5 23.5t-24 35t-8.5 43zM204 614q0 -28 18 -47t45 -19t45 19t18 47q0 27 -18 46t-45 19t-45 -19t-18 -46z" />
    <glyph glyph-name="Uhungarumlaut" unicode="&#x170;" horiz-adv-x="751" 
d="M656 292q0 -80 -22 -137t-59.5 -93.5t-86.5 -53.5t-103 -17q-63 0 -116 19.5t-92 58t-60.5 96t-21.5 134.5v401h85v-385q0 -115 53 -179.5t152 -64.5q87 0 136.5 59t49.5 179v391h85v-408zM438 735l-33 35l157 117l55 -51zM261 735l-34 32l128 120l67 -36z" />
    <glyph glyph-name="uhungarumlaut" unicode="&#x171;" horiz-adv-x="540" 
d="M467 0h-80v64q-23 -29 -64 -51.5t-95 -22.5q-75 0 -120.5 46.5t-45.5 145.5v268h80v-250q0 -64 27 -99.5t89 -35.5q39 0 73.5 20t55.5 47v318h80v-450zM345 531l-48 34l114 151l59 -45zM190 531l-48 34l103 158l58 -43z" />
    <glyph glyph-name="Uogonek" unicode="&#x172;" horiz-adv-x="751" 
d="M656 292q0 -66 -15 -116t-41.5 -86t-62.5 -58t-77 -32q-33 -16 -54.5 -35.5t-21.5 -46.5q0 -16 6 -26t15 -16t19.5 -8.5t19.5 -2.5q11 0 21 1.5t23 7.5l24 -49q-13 -11 -36.5 -18t-49.5 -7q-22 0 -43.5 4.5t-39 15.5t-28.5 28.5t-11 43.5q0 35 22.5 58.5t57.5 40.5
q-63 0 -116 19.5t-91.5 58t-60 96t-21.5 134.5v401h85v-385q0 -115 53 -179.5t152 -64.5q87 0 136.5 59t49.5 179v391h85v-408z" />
    <glyph glyph-name="uogonek" unicode="&#x173;" horiz-adv-x="540" 
d="M476 -175q-13 -11 -36.5 -18t-49.5 -7q-22 0 -43.5 4.5t-39 15.5t-28.5 28.5t-11 43.5q0 22 9.5 40.5t25.5 32.5t38 24.5t46 16.5v58q-23 -29 -64 -51.5t-95 -22.5q-75 0 -120.5 46.5t-45.5 145.5v268h80v-250q0 -64 27 -99.5t89 -35.5q39 0 73.5 20t55.5 47v318h80v-450
h-5q-23 -1 -43.5 -7.5t-36 -17.5t-25 -26t-9.5 -31t6 -26t15 -16t19.5 -8.5t19.5 -2.5q11 0 21 1.5t23 7.5z" />
    <glyph glyph-name="Ydieresis" unicode="&#x178;" horiz-adv-x="604" 
d="M343 300v-300h-85v300l-248 400h98l196 -320l197 320h93zM132 813q0 21 16 33t39 12q20 0 36 -12t16 -33q0 -23 -16 -35.5t-36 -12.5q-23 0 -39 12.5t-16 35.5zM364 813q0 21 16.5 33t39.5 12q20 0 35.5 -11.5t15.5 -33.5q0 -23 -15.5 -35.5t-35.5 -12.5
q-23 0 -39.5 12.5t-16.5 35.5z" />
    <glyph glyph-name="Zacute" unicode="&#x179;" horiz-adv-x="635" 
d="M60 700h525v-57l-430 -563h440v-80h-555v57l428 563h-408v80zM276 735l-23 48l195 104l30 -68z" />
    <glyph glyph-name="zacute" unicode="&#x17a;" horiz-adv-x="485" 
d="M60 450h380v-56l-282 -319h277v-75h-390v56l281 319h-266v75zM239 531l-48 34l106 157l62 -48z" />
    <glyph glyph-name="Zdotaccent" unicode="&#x17b;" horiz-adv-x="635" 
d="M60 700h525v-57l-430 -563h440v-80h-555v57l428 563h-408v80zM260 817q0 24 17 37.5t40 13.5q21 0 37.5 -13.5t16.5 -37.5q0 -26 -16.5 -40t-37.5 -14q-23 0 -40 14t-17 40z" />
    <glyph glyph-name="zdotaccent" unicode="&#x17c;" horiz-adv-x="485" 
d="M60 450h380v-56l-282 -319h277v-75h-390v56l281 319h-266v75zM189 619q0 22 15.5 35t36.5 13q19 0 34 -13t15 -35q0 -25 -15 -38.5t-34 -13.5q-21 0 -36.5 13.5t-15.5 38.5z" />
    <glyph glyph-name="Zcaron" unicode="&#x17d;" horiz-adv-x="635" 
d="M60 700h525v-57l-430 -563h440v-80h-555v57l428 563h-408v80zM145 841l33 46l144 -81l143 81l30 -45l-171 -104h-4z" />
    <glyph glyph-name="zcaron" unicode="&#x17e;" horiz-adv-x="485" 
d="M60 450h380v-56l-282 -319h277v-75h-390v56l281 319h-266v75zM105 662l39 48l104 -103l104 102l37 -47l-140 -133h-4z" />
    <glyph glyph-name="longs" unicode="&#x17f;" horiz-adv-x="255" 
d="M82 523q0 94 41.5 140.5t116.5 46.5q41 0 72 -11.5t48 -28.5l-28 -61q-14 12 -33.5 19t-45.5 7q-43 0 -67 -29t-24 -92v-514h-80v523z" />
    <glyph glyph-name="uni018F" unicode="&#x18f;" horiz-adv-x="779" 
d="M637 397q-6 54 -28.5 97.5t-58.5 73.5t-84.5 46t-106.5 16q-47 0 -93 -13.5t-84 -43.5l-34 64q38 33 98 53t132 20q78 0 143 -25.5t111 -72t71.5 -112.5t25.5 -148q0 -80 -24.5 -146.5t-69.5 -114.5t-109.5 -74.5t-143.5 -26.5t-143.5 29t-109 82.5t-66.5 128.5t-15 167
h589zM381 70q56 0 101.5 18t79 50t53.5 77.5t25 101.5h-504q2 -51 19.5 -95.5t49 -78.5t76 -53.5t100.5 -19.5z" />
    <glyph glyph-name="florin" unicode="&#x192;" 
d="M365 450h144v-75h-157l-72 -408q-8 -42 -19 -74.5t-29.5 -55t-45 -34t-63.5 -11.5q-32 0 -59 9t-41 20l22 64q12 -8 27 -13t32 -5q44 0 65.5 28.5t30.5 79.5l71 400h-139v75h152l13 73q18 96 56 141.5t113 45.5q41 0 72.5 -11.5t48.5 -28.5l-28 -61q-14 12 -33.5 19
t-45.5 7q-43 0 -67 -28.5t-36 -92.5z" />
    <glyph glyph-name="uni01DD" unicode="&#x1dd;" horiz-adv-x="520" 
d="M73 400q33 30 81 45t93 15q55 0 98 -17t72.5 -47.5t45 -74t15.5 -96.5q0 -49 -15.5 -92t-44.5 -74.5t-72 -50t-97 -18.5q-45 0 -83.5 14.5t-67 41.5t-45 65t-16.5 85q0 16 1.5 32t3.5 27h346q-2 28 -12.5 51.5t-29.5 41t-45.5 27.5t-59.5 10q-44 0 -82.5 -13.5
t-60.5 -33.5zM253 65q60 0 97.5 35.5t42.5 89.5h-273q2 -61 37 -93t96 -32z" />
    <glyph glyph-name="Scommaaccent" unicode="&#x218;" horiz-adv-x="549" 
d="M409 179q0 43 -25.5 69t-63.5 45.5t-82 36.5t-82 41.5t-63.5 61t-25.5 94.5q0 38 14.5 71.5t41.5 58t66 39t89 14.5q61 0 112 -20t81 -53l-46 -64q-28 28 -62 42.5t-80 14.5q-59 0 -92.5 -28t-33.5 -75q0 -43 25.5 -69t63.5 -44.5t82 -35t82 -40.5t63.5 -61t25.5 -97
q0 -43 -18 -78t-48.5 -60t-72 -38.5t-89.5 -13.5q-32 0 -66 7t-64 20.5t-54 33t-37 44.5l49 58q15 -20 36 -35.5t44 -26t47 -16t46 -5.5q27 0 52 7t44 21t30 34t11 47zM304 -46q12 -3 20.5 -15.5t8.5 -33.5q0 -24 -9 -42.5t-23.5 -32t-33 -22t-37.5 -12.5l-23 36
q25 10 35.5 25t10.5 37q0 17 -6.5 26.5t-17.5 14.5z" />
    <glyph glyph-name="scommaaccent" unicode="&#x219;" horiz-adv-x="430" 
d="M300 122q0 23 -18 36t-45 22.5t-58.5 19t-58.5 25.5t-45 41.5t-18 66.5q0 60 43 93.5t110 33.5q56 0 95.5 -16.5t59.5 -36.5l-38 -61q-20 18 -49 31t-64 13q-34 0 -53 -16.5t-19 -39.5q0 -24 18 -37.5t45 -23.5t58.5 -19.5t58.5 -24.5t45 -39.5t18 -63.5
q0 -36 -14.5 -61.5t-38.5 -42t-55.5 -24.5t-65.5 -8q-27 0 -53.5 6.5t-49 16.5t-39 22.5t-24.5 24.5l45 57q10 -11 25 -21.5t33 -18.5t36.5 -12.5t35.5 -4.5q32 0 56 15.5t24 46.5zM245 -46q12 -3 20.5 -15.5t8.5 -33.5q0 -24 -9 -42.5t-23.5 -32t-33 -22t-37.5 -12.5
l-23 36q25 10 35.5 25t10.5 37q0 17 -6.5 26.5t-17.5 14.5z" />
    <glyph glyph-name="uni021A" unicode="&#x21a;" horiz-adv-x="595" 
d="M10 700h575v-80h-245v-620h-85v620h-245v80zM321 -46q12 -3 20.5 -15.5t8.5 -33.5q0 -24 -9 -42.5t-23.5 -32t-33 -22t-37.5 -12.5l-23 36q25 10 35.5 25t10.5 37q0 17 -6.5 26.5t-17.5 14.5z" />
    <glyph glyph-name="uni021B" unicode="&#x21b;" horiz-adv-x="353" 
d="M62 575h80v-125h165v-75h-165v-196q0 -54 18.5 -83t61.5 -29q23 0 41 8t30 17l25 -62q-18 -15 -47.5 -26.5t-67.5 -11.5q-76 0 -108.5 46t-32.5 133v404zM208 -46q12 -3 20.5 -15.5t8.5 -33.5q0 -24 -9 -42.5t-23.5 -32t-33 -22t-37.5 -12.5l-23 36q25 10 35.5 25
t10.5 37q0 17 -6.5 26.5t-17.5 14.5z" />
    <glyph glyph-name="uni0237" unicode="&#x237;" horiz-adv-x="266" 
d="M178 -33q0 -83 -33 -129t-108 -46q-32 0 -59 9t-41 20l23 64q12 -8 26.5 -13t32.5 -5q43 0 61 28t18 78v477h80v-483z" />
    <glyph glyph-name="uni0259" unicode="&#x259;" horiz-adv-x="520" 
d="M73 400q33 30 81 45t93 15q55 0 98 -17t72.5 -47.5t45 -74t15.5 -96.5q0 -49 -15.5 -92t-44.5 -74.5t-72 -50t-97 -18.5q-45 0 -83.5 14.5t-67 41.5t-45 65t-16.5 85q0 16 1.5 32t3.5 27h346q-2 28 -12.5 51.5t-29.5 41t-45.5 27.5t-59.5 10q-44 0 -82.5 -13.5
t-60.5 -33.5zM253 65q60 0 97.5 35.5t42.5 89.5h-273q2 -61 37 -93t96 -32z" />
    <glyph glyph-name="afii57929" unicode="&#x2bc;" horiz-adv-x="242" 
d="M153 670q13 -14 21 -36t8 -46q0 -30 -7.5 -53.5t-19.5 -42t-27.5 -31.5t-30.5 -22l-37 35q23 17 35 42.5t12 54.5q0 19 -6 34.5t-15 24.5z" />
    <glyph glyph-name="circumflex" unicode="&#x2c6;" horiz-adv-x="404" 
d="M344 574l-38 -48l-104 91l-104 -90l-38 47l141 133h4z" />
    <glyph glyph-name="caron" unicode="&#x2c7;" horiz-adv-x="404" 
d="M60 662l39 48l104 -103l104 102l37 -47l-140 -133h-4z" />
    <glyph glyph-name="breve" unicode="&#x2d8;" horiz-adv-x="415" 
d="M97 681q7 -9 17.5 -19.5t24.5 -20t31.5 -15.5t40.5 -6q39 0 68 19t47 41l29 -39q-11 -15 -24 -30t-31 -27.5t-40.5 -20.5t-51.5 -8q-31 0 -55.5 9.5t-43 22.5t-30.5 27.5t-19 25.5z" />
    <glyph glyph-name="dotaccent" unicode="&#x2d9;" horiz-adv-x="221" 
d="M60 619q0 22 15.5 35t36.5 13q19 0 34 -13t15 -35q0 -25 -15 -38.5t-34 -13.5q-21 0 -36.5 13.5t-15.5 38.5z" />
    <glyph glyph-name="ring" unicode="&#x2da;" horiz-adv-x="350" 
d="M60 613q0 23 8.5 43t24 35t36.5 24t45 9q25 0 46 -9t36.5 -24t24.5 -35t9 -43t-9 -43t-24.5 -35t-36.5 -23.5t-46 -8.5q-24 0 -45 8.5t-36.5 23.5t-24 35t-8.5 43zM112 614q0 -28 18 -47t45 -19t45 19t18 47q0 27 -18 46t-45 19t-45 -19t-18 -46z" />
    <glyph glyph-name="ogonek" unicode="&#x2db;" horiz-adv-x="328" 
d="M268 -175q-13 -11 -36.5 -18t-49.5 -7q-22 0 -43.5 4.5t-39 15.5t-28.5 28.5t-11 43.5q0 31 18 54.5t47 39t64 23t70 7.5v-16q-23 0 -44.5 -6.5t-38 -17.5t-26.5 -26t-10 -32q0 -16 6 -26t15 -16t19.5 -8.5t19.5 -2.5q11 0 21 1.5t23 7.5z" />
    <glyph glyph-name="tilde" unicode="&#x2dc;" horiz-adv-x="442" 
d="M60 594q29 32 57 46t53 14q18 0 32 -7t27 -15t26 -15t28 -7q20 0 34.5 8.5t36.5 26.5l28 -41q-56 -59 -106 -59q-17 0 -30.5 7t-26.5 15t-26.5 15t-30.5 7q-15 0 -32.5 -9t-36.5 -23z" />
    <glyph glyph-name="hungarumlaut" unicode="&#x2dd;" horiz-adv-x="448" 
d="M263 531l-48 34l114 151l59 -45zM108 531l-48 34l103 158l58 -43z" />
    <glyph glyph-name="gravecomb" unicode="&#x300;" horiz-adv-x="0" 
d="M-390 673l63 48l107 -156l-49 -34z" />
    <glyph glyph-name="acutecomb" unicode="&#x301;" horiz-adv-x="0" 
d="M-273 531l-48 34l106 157l62 -48z" />
    <glyph glyph-name="Delta" unicode="&#x394;" horiz-adv-x="726" 
d="M333 708h53l310 -708h-666zM153 80h416l-212 484z" />
    <glyph glyph-name="Delta" unicode="&#x2206;" horiz-adv-x="726" 
d="M333 708h53l310 -708h-666zM153 80h416l-212 484z" />
    <glyph glyph-name="Omega" unicode="&#x3a9;" horiz-adv-x="816" 
d="M68 80h169q-35 12 -67.5 38t-58 64t-40.5 85.5t-15 102.5q0 76 27.5 138.5t75 107.5t111.5 69.5t138 24.5q75 0 139.5 -24.5t111.5 -69.5t74 -107.5t27 -138.5q0 -57 -15.5 -105t-41 -85.5t-58.5 -62.5t-67 -37h169v-80h-286v80q48 12 86.5 38.5t65.5 63t42 81.5t15 93
q0 56 -18.5 105.5t-53 87t-83 59.5t-107.5 22q-60 0 -108.5 -22t-82.5 -59.5t-52.5 -87.5t-18.5 -106q0 -45 14.5 -89.5t41.5 -82t65.5 -65t86.5 -38.5v-80h-286v80z" />
    <glyph glyph-name="Omega" unicode="&#x2126;" horiz-adv-x="816" 
d="M68 80h169q-35 12 -67.5 38t-58 64t-40.5 85.5t-15 102.5q0 76 27.5 138.5t75 107.5t111.5 69.5t138 24.5q75 0 139.5 -24.5t111.5 -69.5t74 -107.5t27 -138.5q0 -57 -15.5 -105t-41 -85.5t-58.5 -62.5t-67 -37h169v-80h-286v80q48 12 86.5 38.5t65.5 63t42 81.5t15 93
q0 56 -18.5 105.5t-53 87t-83 59.5t-107.5 22q-60 0 -108.5 -22t-82.5 -59.5t-52.5 -87.5t-18.5 -106q0 -45 14.5 -89.5t41.5 -82t65.5 -65t86.5 -38.5v-80h-286v80z" />
    <glyph glyph-name="pi" unicode="&#x3c0;" horiz-adv-x="635" 
d="M46 450h536v-75h-90v-229q0 -42 9 -60.5t32 -18.5q14 0 28.5 6t25.5 14l18 -61q-18 -14 -44 -24t-59 -10q-45 0 -67.5 28t-22.5 90v265h-192v-61q0 -98 -12.5 -160t-36 -97.5t-57.5 -49t-78 -13.5l-6 78q22 -1 41.5 8.5t34.5 35t23.5 70t9.5 113.5l1 76h-94v75z" />
    <glyph glyph-name="afii10023" unicode="&#x401;" horiz-adv-x="575" 
d="M105 700h395v-80h-310v-226h280v-80h-280v-234h320v-80h-405v700zM139 813q0 21 16 33t39 12q20 0 36 -12t16 -33q0 -23 -16 -35.5t-36 -12.5q-23 0 -39 12.5t-16 35.5zM371 813q0 21 16.5 33t39.5 12q20 0 35.5 -11.5t15.5 -33.5q0 -23 -15.5 -35.5t-35.5 -12.5
q-23 0 -39.5 12.5t-16.5 35.5z" />
    <glyph glyph-name="afii10051" unicode="&#x402;" horiz-adv-x="762" 
d="M712 204q0 -56 -12.5 -96.5t-35.5 -66.5t-55 -38.5t-71 -12.5q-18 0 -34.5 3.5t-30.5 9t-24.5 12t-15.5 12.5l29 65q12 -9 29.5 -15.5t36.5 -6.5q45 0 72 30.5t27 101.5q0 75 -36 108t-104 33q-53 0 -87.5 -16t-59.5 -32v-295h-85v620h-245v80h575v-80h-245v-247
q27 18 66 34t97 16q44 0 82.5 -11t66.5 -36.5t44 -67.5t16 -104z" />
    <glyph glyph-name="afii10052" unicode="&#x403;" horiz-adv-x="505" 
d="M105 700h390v-80h-305v-620h-85v700zM281 735l-23 48l195 104l30 -68z" />
    <glyph glyph-name="afii10053" unicode="&#x404;" horiz-adv-x="677" 
d="M483 317h-347q6 -60 30 -106t62 -77.5t87 -47.5t105 -16q57 0 103.5 17.5t85.5 46.5l33 -71q-42 -34 -100 -53.5t-129 -19.5q-82 0 -149 25.5t-114.5 72t-73.5 113t-26 149.5q0 79 25.5 145t71.5 114t111 74.5t143 26.5q72 0 132 -20t98 -53l-39 -64q-38 30 -84 43.5
t-93 13.5q-58 0 -106 -16.5t-84 -47t-58 -73.5t-29 -96h345v-80z" />
    <glyph glyph-name="afii10054" unicode="&#x405;" horiz-adv-x="549" 
d="M409 179q0 43 -25.5 69t-63.5 45.5t-82 36.5t-82 41.5t-63.5 61t-25.5 94.5q0 38 14.5 71.5t41.5 58t66 39t89 14.5q61 0 112 -20t81 -53l-46 -64q-28 28 -62 42.5t-80 14.5q-59 0 -92.5 -28t-33.5 -75q0 -43 25.5 -69t63.5 -44.5t82 -35t82 -40.5t63.5 -61t25.5 -97
q0 -43 -18 -78t-48.5 -60t-72 -38.5t-89.5 -13.5q-32 0 -66 7t-64 20.5t-54 33t-37 44.5l49 58q15 -20 36 -35.5t44 -26t47 -16t46 -5.5q27 0 52 7t44 21t30 34t11 47z" />
    <glyph glyph-name="afii10055" unicode="&#x406;" horiz-adv-x="335" 
d="M125 700h85v-700h-85v700z" />
    <glyph glyph-name="afii10056" unicode="&#x407;" horiz-adv-x="335" 
d="M43 813q0 21 14 33t34 12q18 0 32 -12t14 -33q0 -23 -14 -35.5t-32 -12.5q-20 0 -34 12.5t-14 35.5zM199 813q0 21 14 33t34 12q18 0 32 -12t14 -33q0 -23 -14 -35.5t-32 -12.5q-20 0 -34 12.5t-14 35.5zM125 700h85v-700h-85v700z" />
    <glyph glyph-name="afii10057" unicode="&#x408;" horiz-adv-x="374" 
d="M269 159q0 -79 -36 -124t-117 -45q-35 0 -63.5 11.5t-42.5 25.5l29 65q12 -9 29.5 -15.5t36.5 -6.5q46 0 62.5 29t16.5 74v527h85v-541z" />
    <glyph glyph-name="afii10058" unicode="&#x409;" horiz-adv-x="1023" 
d="M536 620h-254l-12 -132q-10 -111 -24.5 -191.5t-32.5 -136t-39.5 -88.5t-45.5 -50.5t-50 -21.5t-53 0l1 85q12 -1 27 2t31 18t32 45t30 83.5t26 133t20 193.5l10 140h419v-260q29 2 52.5 3.5t40.5 1.5q132 0 195.5 -58.5t63.5 -157.5q0 -112 -73.5 -171.5t-204.5 -59.5
q-45 0 -86.5 1t-72.5 1v620zM708 365q-35 0 -87 -6v-278l40 -2t44 -1q87 0 132.5 37t45.5 112q0 67 -45 102.5t-130 35.5z" />
    <glyph glyph-name="afii10059" unicode="&#x40a;" horiz-adv-x="1052" 
d="M105 700h85v-279h375v279h85v-275q29 2 52.5 3.5t40.5 1.5q132 0 195.5 -57t63.5 -152q0 -106 -73.5 -164.5t-204.5 -58.5q-36 0 -70 1t-63 1h-26v341h-375v-341h-85v700zM650 81l40 -2t44 -1q87 0 132.5 35.5t45.5 106.5q0 63 -45 96.5t-130 33.5q-35 0 -87 -6v-263z
" />
    <glyph glyph-name="afii10060" unicode="&#x40b;" horiz-adv-x="762" 
d="M10 700h575v-80h-245v-247q26 19 68.5 34.5t99.5 15.5q41 0 78 -12t65 -39t44.5 -69.5t16.5 -103.5v-199h-85v177q0 45 -10 77t-28.5 51.5t-45 28.5t-58.5 9q-48 0 -83.5 -15.5t-61.5 -32.5v-295h-85v620h-245v80z" />
    <glyph glyph-name="afii10061" unicode="&#x40c;" horiz-adv-x="653" 
d="M305 371l328 -371h-109l-317 365l307 335h103zM105 700h85v-700h-85v700zM311 735l-23 48l195 104l30 -68z" />
    <glyph glyph-name="afii10062" unicode="&#x40e;" horiz-adv-x="666" 
d="M409 160q-36 -81 -76 -120.5t-98 -39.5q-23 0 -47 7t-38 18l30 72q14 -10 26.5 -14t27.5 -4q30 0 51 20.5t35 50.5l12 26l-317 524h96l262 -439l192 439h86zM239 860q11 -31 37.5 -48t69.5 -17q39 0 67 16t36 49h80q-3 -28 -18.5 -51t-40 -39.5t-56.5 -25.5t-68 -9
q-79 0 -128.5 35t-58.5 90h80z" />
    <glyph glyph-name="afii10145" unicode="&#x40f;" horiz-adv-x="750" 
d="M105 700h85v-620h370v620h85v-700h-231v-155h-80v155h-229v700z" />
    <glyph glyph-name="afii10017" unicode="&#x410;" horiz-adv-x="705" 
d="M316 704h73l301 -704h-91l-90 212h-319l-89 -212h-86zM224 292h252l-126 299z" />
    <glyph glyph-name="afii10018" unicode="&#x411;" horiz-adv-x="612" 
d="M105 700h396v-80h-311v-201q26 3 56.5 4.5t50.5 1.5q118 0 181.5 -55.5t63.5 -150.5q0 -109 -71 -166t-198 -57q-54 0 -95.5 2t-72.5 2v700zM292 345q-20 0 -47 -1.5t-55 -4.5v-259q23 -2 46.5 -3t49.5 -1q87 0 129 36.5t42 100.5q0 58 -40.5 95t-124.5 37z" />
    <glyph glyph-name="afii10019" unicode="&#x412;" horiz-adv-x="617" 
d="M105 699q15 0 37.5 1t48.5 1.5t54 1t52 0.5q63 0 106 -13.5t69.5 -36.5t38 -55t11.5 -68q0 -66 -34.5 -105.5t-85.5 -56.5v-2q66 -11 105.5 -52.5t39.5 -113.5q0 -53 -19.5 -91.5t-53.5 -63.5t-80.5 -36.5t-100.5 -11.5q-23 0 -49.5 0.5t-52 1t-48.5 1t-38 1.5v698z
M190 319v-238q17 -2 47.5 -3t60.5 -1q78 0 121 31.5t43 96.5q0 56 -41.5 85t-117.5 29h-113zM295 623q-28 0 -57 -1t-48 -2v-226h112q28 0 52.5 7.5t43 22.5t29 36.5t10.5 50.5q0 112 -142 112z" />
    <glyph glyph-name="afii10020" unicode="&#x413;" horiz-adv-x="505" 
d="M105 700h390v-80h-305v-620h-85v700z" />
    <glyph glyph-name="afii10021" unicode="&#x414;" horiz-adv-x="749" 
d="M15 80h75q11 13 28 48.5t34.5 95t32 143t20.5 193.5l7 140h412v-620h95v-210h-80v130h-544v-130h-80v210zM285 495q-6 -90 -19 -162t-28 -124t-29.5 -84.5t-24.5 -44.5h355v540h-245z" />
    <glyph glyph-name="afii10022" unicode="&#x415;" horiz-adv-x="575" 
d="M105 700h395v-80h-310v-226h280v-80h-280v-234h320v-80h-405v700z" />
    <glyph glyph-name="afii10024" unicode="&#x416;" horiz-adv-x="934" 
d="M620 366l294 -366h-99l-288 365l277 335h99zM424 700h85v-700h-85v700zM31 700h99l277 -335l-288 -365h-99l294 365z" />
    <glyph glyph-name="afii10025" unicode="&#x417;" horiz-adv-x="578" 
d="M269 -10q-40 0 -75.5 9.5t-65 24.5t-52 35t-36.5 41l47 57q17 -20 38.5 -36t45.5 -27.5t48 -17.5t45 -6q34 0 63 8.5t50.5 25.5t33.5 42t12 58q0 52 -35.5 83t-101.5 31h-81v80h75q22 0 43 8.5t37 24t26 37.5t10 48q0 57 -36.5 85.5t-90.5 28.5q-52 0 -89.5 -20
t-69.5 -58l-50 56q35 46 92 74t126 28q91 0 147 -48t56 -138q0 -44 -25 -89t-76 -71v-3q64 -12 96 -58.5t32 -106.5q0 -48 -19.5 -86.5t-52 -65t-76 -40.5t-91.5 -14z" />
    <glyph glyph-name="afii10026" unicode="&#x418;" horiz-adv-x="795" 
d="M105 0v700h85v-560l425 560h75v-700h-85v560l-425 -560h-75z" />
    <glyph glyph-name="afii10027" unicode="&#x419;" horiz-adv-x="795" 
d="M105 0v700h85v-560l425 560h75v-700h-85v560l-425 -560h-75zM297 860q11 -31 37.5 -48t69.5 -17q39 0 67 16t36 49h80q-3 -28 -18.5 -51t-40 -39.5t-56.5 -25.5t-68 -9q-79 0 -128.5 35t-58.5 90h80z" />
    <glyph glyph-name="afii10028" unicode="&#x41a;" horiz-adv-x="653" 
d="M305 371l328 -371h-109l-317 365l307 335h103zM105 700h85v-700h-85v700z" />
    <glyph glyph-name="afii10029" unicode="&#x41b;" horiz-adv-x="726" 
d="M536 620h-254l-12 -132q-10 -111 -24.5 -191.5t-32.5 -136t-39.5 -88.5t-45.5 -50.5t-50 -21.5t-53 0l1 85q12 -1 27 2t31 18t32 45t30 83.5t26 133t20 193.5l10 140h419v-700h-85v620z" />
    <glyph glyph-name="afii10030" unicode="&#x41c;" horiz-adv-x="892" 
d="M105 700h86l263 -359l252 359h81v-700h-85v566l-248 -348h-13l-251 345v-563h-85v700z" />
    <glyph glyph-name="afii10031" unicode="&#x41d;" horiz-adv-x="765" 
d="M575 317h-385v-317h-85v700h85v-303h385v303h85v-700h-85v317z" />
    <glyph glyph-name="afii10032" unicode="&#x41e;" horiz-adv-x="814" 
d="M50 350q0 76 26.5 142t74 114.5t113 76t143.5 27.5q76 0 141.5 -26.5t113.5 -74t75 -113.5t27 -146q0 -78 -27 -144t-75 -114t-113.5 -75t-141.5 -27t-141.5 26.5t-113.5 74t-75 113.5t-27 146zM140 350q0 -60 20.5 -111t56.5 -88.5t85 -59t105 -21.5q60 0 109 21.5
t84.5 59t54.5 89t19 110.5q0 61 -20.5 112.5t-56.5 88.5t-85 58t-105 21q-57 0 -106 -21t-84.5 -58t-56 -88.5t-20.5 -112.5z" />
    <glyph glyph-name="afii10033" unicode="&#x41f;" horiz-adv-x="760" 
d="M570 620h-380v-620h-85v700h550v-700h-85v620z" />
    <glyph glyph-name="afii10034" unicode="&#x420;" horiz-adv-x="597" 
d="M105 0v700q15 0 39 0.5t50.5 0.5t51.5 0.5t42 0.5q75 0 125 -18.5t79.5 -49t42 -69.5t12.5 -80q0 -43 -15.5 -82.5t-46.5 -70t-78.5 -49t-111.5 -18.5q-21 0 -50 1t-55 3v-269h-85zM296 622q-21 0 -51 -0.5t-55 -1.5v-270q26 -2 51 -3.5t51 -1.5q78 0 121.5 37.5
t43.5 103.5q0 63 -38.5 99.5t-122.5 36.5z" />
    <glyph glyph-name="afii10035" unicode="&#x421;" horiz-adv-x="656" 
d="M626 68q-18 -18 -42.5 -32.5t-53 -24.5t-60.5 -15.5t-65 -5.5q-79 0 -144 25.5t-112 72.5t-73 113.5t-26 148.5q0 75 23.5 141t68.5 114.5t110 76.5t147 28q68 0 121.5 -18t91.5 -50l-39 -64q-35 26 -76.5 39t-96.5 13q-57 0 -105 -20.5t-82.5 -57.5t-53.5 -88.5
t-19 -113.5q0 -63 20 -114.5t56 -88t86 -57t111 -20.5q51 0 97 16.5t82 45.5z" />
    <glyph glyph-name="afii10036" unicode="&#x422;" horiz-adv-x="595" 
d="M10 700h575v-80h-245v-620h-85v620h-245v80z" />
    <glyph glyph-name="afii10037" unicode="&#x423;" horiz-adv-x="666" 
d="M409 160q-36 -81 -76 -120.5t-98 -39.5q-23 0 -47 7t-38 18l30 72q14 -10 26.5 -14t27.5 -4q30 0 51 20.5t35 50.5l12 26l-317 524h96l262 -439l192 439h86z" />
    <glyph glyph-name="afii10038" unicode="&#x424;" horiz-adv-x="834" 
d="M373 84h-1q-74 0 -135 18t-105 53.5t-68 87t-24 117.5t24 117t67.5 86.5t105 54t136.5 18.5v72h85v-72q76 0 138 -19t106 -54t68 -86.5t24 -116.5q0 -66 -24.5 -117.5t-68.5 -86.5t-105.5 -53.5t-134.5 -18.5h-3v-92h-85v92zM458 557v-395h2q113 0 178.5 49.5t65.5 148.5
q0 93 -63.5 145t-181.5 52h-1zM130 360q0 -49 17 -86t48.5 -62t76.5 -37.5t100 -12.5h1v395q-115 0 -179 -52t-64 -145z" />
    <glyph glyph-name="afii10039" unicode="&#x425;" horiz-adv-x="664" 
d="M387 356l257 -356h-101l-212 291l-211 -291h-100l257 356l-246 344h100l203 -280l200 280h101z" />
    <glyph glyph-name="afii10040" unicode="&#x426;" horiz-adv-x="775" 
d="M105 700h85v-620h375v620h85v-620h95v-210h-80v130h-560v700z" />
    <glyph glyph-name="afii10041" unicode="&#x427;" horiz-adv-x="650" 
d="M545 0h-85v306q-27 -20 -75.5 -37t-109.5 -17q-42 0 -80 12t-67 38.5t-46 69t-17 103.5v225h85v-202q0 -45 11 -77t30.5 -51.5t46.5 -28.5t59 -9q51 0 93 17t70 36v315h85v-700z" />
    <glyph glyph-name="afii10042" unicode="&#x428;" horiz-adv-x="995" 
d="M105 700h85v-620h265v620h85v-620h265v620h85v-700h-785v700z" />
    <glyph glyph-name="afii10043" unicode="&#x429;" horiz-adv-x="1015" 
d="M105 700h85v-620h265v620h85v-620h265v620h85v-620h95v-210h-80v130h-800v700z" />
    <glyph glyph-name="afii10044" unicode="&#x42a;" horiz-adv-x="669" 
d="M5 700h252v-260q29 2 55 3.5t43 1.5q136 0 200 -58.5t64 -157.5q0 -111 -74 -171t-209 -60q-45 0 -89 1t-75 1v620h-167v80zM349 365q-17 0 -41.5 -1.5t-50.5 -4.5v-278q20 -1 42.5 -2t46.5 -1q87 0 135 36.5t48 112.5q0 69 -47.5 103.5t-132.5 34.5z" />
    <glyph glyph-name="afii10045" unicode="&#x42b;" horiz-adv-x="845" 
d="M655 700h85v-700h-85v700zM277 365q-35 0 -87 -6v-278l40 -2t44 -1q87 0 132.5 37t45.5 112q0 67 -45 102.5t-130 35.5zM190 440q29 2 52.5 3.5t40.5 1.5q132 0 195.5 -58.5t63.5 -157.5q0 -111 -73.5 -171t-204.5 -60q-45 0 -86.5 1t-72.5 1v700h85v-260z" />
    <glyph glyph-name="afii10046" unicode="&#x42c;" horiz-adv-x="602" 
d="M282 365q-17 0 -41.5 -1.5t-50.5 -4.5v-278q20 -1 42.5 -2t46.5 -1q87 0 135 36.5t48 112.5q0 69 -47.5 103.5t-132.5 34.5zM190 440q29 2 55 3.5t43 1.5q136 0 200 -58.5t64 -157.5q0 -111 -74 -171t-209 -60q-45 0 -89 1t-75 1v700h85v-260z" />
    <glyph glyph-name="afii10047" unicode="&#x42d;" horiz-adv-x="677" 
d="M193 397h346q-14 110 -89.5 171.5t-193.5 61.5q-47 0 -92.5 -13.5t-84.5 -43.5l-33 64q38 33 98 53t132 20q78 0 142.5 -25.5t111 -72t72 -112.5t25.5 -148q0 -80 -25.5 -146.5t-72 -114.5t-113 -74.5t-148.5 -26.5q-70 0 -130.5 19.5t-102.5 53.5l37 71q39 -29 88 -46.5
t106 -17.5q55 0 103 17t84 49t58.5 77.5t28.5 103.5h-347v80z" />
    <glyph glyph-name="afii10048" unicode="&#x42e;" horiz-adv-x="1078" 
d="M105 700h85v-303h151q7 67 35 124.5t72.5 99.5t103.5 65.5t129 23.5q76 0 140 -26.5t110 -74t71.5 -113.5t25.5 -146q0 -78 -25.5 -144t-71.5 -114t-110 -75t-140 -27q-69 0 -128.5 23.5t-105 66.5t-74 103.5t-33.5 133.5h-150v-317h-85v700zM429 350q0 -60 19.5 -111
t53.5 -88.5t80.5 -59t100.5 -21.5q60 0 107.5 21.5t80.5 59t50 89t17 110.5q0 61 -18.5 112.5t-52.5 88.5t-80.5 58t-103.5 21q-55 0 -101.5 -21t-80.5 -58t-53 -88.5t-19 -112.5z" />
    <glyph glyph-name="afii10049" unicode="&#x42f;" horiz-adv-x="623" 
d="M433 260h-131l-181 -260h-96l194 275q-27 11 -52 29t-44 42.5t-30.5 55.5t-11.5 69q0 47 16 89.5t49.5 74t85 50t122.5 18.5q18 0 40 -0.5t44.5 -1t43.5 -1t36 -0.5v-700h-85v260zM433 340v280q-17 1 -44.5 2t-50.5 1q-41 0 -72 -11.5t-52 -31t-32 -46.5t-11 -58
q0 -28 10.5 -51t27.5 -41t38.5 -29t44.5 -15h141z" />
    <glyph glyph-name="afii10065" unicode="&#x430;" horiz-adv-x="460" 
d="M75 419q30 19 69 30t81 11q96 0 134.5 -48t38.5 -136v-276h-76v58q-20 -26 -54 -45.5t-90 -19.5q-62 0 -100 36.5t-38 102.5q0 34 13 61t35.5 45t54 27.5t67.5 9.5q26 0 57.5 -6t54.5 -23q0 31 -3.5 57.5t-14 45t-31 29t-53.5 10.5q-42 0 -69.5 -9.5t-54.5 -23.5zM206 65
q44 0 71.5 19t44.5 39v57q-42 30 -101 30q-18 0 -35.5 -4.5t-31 -13.5t-21.5 -23t-8 -33q0 -32 21 -51.5t60 -19.5z" />
    <glyph glyph-name="afii10066" unicode="&#x431;" horiz-adv-x="552" 
d="M463 647q-21 -28 -45.5 -39t-53 -17t-61 -11.5t-69.5 -22.5q-32 -14 -52.5 -38t-33.5 -53.5t-19.5 -62t-8.5 -63.5h2q11 24 29.5 43t42 33t50.5 21.5t56 7.5q48 0 87 -16t66 -45.5t41.5 -70.5t14.5 -92q0 -47 -17 -89t-47.5 -73.5t-73 -50t-93.5 -18.5q-55 0 -99 19.5
t-75 55.5t-47.5 88t-16.5 117q0 50 6 104.5t24 104.5t50.5 90.5t86.5 63.5q39 17 71 22.5t57.5 10t46.5 13t38 31.5zM125 255q0 -44 11 -79t31 -59.5t48 -38t61 -13.5t60 12t46.5 32.5t30.5 48t11 59.5q0 66 -37 109.5t-107 43.5q-32 0 -58 -10t-46 -26t-33 -36.5t-18 -42.5
z" />
    <glyph glyph-name="afii10067" unicode="&#x432;" horiz-adv-x="494" 
d="M72 450q29 0 71.5 2t91.5 2q95 0 144.5 -27.5t49.5 -88.5q0 -40 -24.5 -68.5t-65.5 -34.5v-2q54 -10 79.5 -37t25.5 -69q0 -64 -50.5 -97.5t-156.5 -33.5q-42 0 -88 2t-77 2v450zM152 202v-138q18 -1 41.5 -2t50.5 -1q56 0 85.5 18.5t29.5 53.5t-28.5 52t-82.5 17h-96z
M241 389q-27 0 -50.5 -1t-38.5 -2v-134h101q40 0 65.5 18.5t25.5 51.5q0 37 -29.5 52t-73.5 15z" />
    <glyph glyph-name="afii10068" unicode="&#x433;" horiz-adv-x="362" 
d="M72 450h285v-75h-205v-375h-80v450z" />
    <glyph glyph-name="afii10069" unicode="&#x434;" horiz-adv-x="539" 
d="M10 75h56q23 29 43 96t26 160l7 119h307v-375h75v-185h-75v110h-364v-110h-75v185zM212 300q-8 -87 -26.5 -145.5t-34.5 -79.5h218v300h-152z" />
    <glyph glyph-name="afii10070" unicode="&#x435;" horiz-adv-x="520" 
d="M452 49q-33 -30 -78.5 -44.5t-90.5 -14.5q-55 0 -99.5 16.5t-76 47.5t-48.5 74.5t-17 96.5q0 49 15.5 92t45 74.5t72.5 50t99 18.5q43 0 81.5 -15t66.5 -42t44.5 -65t16.5 -84q0 -31 -5 -54h-346q5 -64 48 -99.5t109 -35.5q44 0 80 13.5t58 33.5zM270 385q-62 0 -99 -34
t-44 -86h273q-3 56 -37 88t-93 32z" />
    <glyph glyph-name="afii10072" unicode="&#x436;" horiz-adv-x="679" 
d="M489 233l175 -233h-99l-167 233l155 217h99zM298 450h80v-450h-80v450zM24 450h100l154 -217l-165 -233h-98l172 233z" />
    <glyph glyph-name="afii10073" unicode="&#x437;" horiz-adv-x="462" 
d="M221 -10q-25 0 -53 4.5t-53.5 12.5t-47 19t-32.5 25l41 60q29 -23 66.5 -36t66.5 -13q51 0 84.5 20t33.5 54q0 28 -23 43t-65 15h-76v65h71q34 0 56 18.5t22 45.5q0 31 -26 48t-70 17q-47 0 -79.5 -16t-55.5 -34l-31 62q28 29 76 44.5t102 15.5q83 0 126 -32.5t43 -88.5
q0 -33 -18 -62t-61 -44v-2q48 -5 71 -36t23 -70q0 -32 -14 -57t-39.5 -42t-60.5 -26.5t-77 -9.5z" />
    <glyph glyph-name="afii10074" unicode="&#x438;" horiz-adv-x="565" 
d="M72 0v450h80v-335l260 335h80v-450h-80v335l-260 -335h-80z" />
    <glyph glyph-name="afii10075" unicode="&#x439;" horiz-adv-x="565" 
d="M72 0v450h80v-335l260 335h80v-450h-80v335l-260 -335h-80zM211 680q6 -79 77 -79q67 0 73 79h75q0 -30 -10.5 -55.5t-30 -44t-46.5 -29.5t-61 -11q-37 0 -65.5 11t-47.5 29.5t-29 44t-10 55.5h75z" />
    <glyph glyph-name="afii10076" unicode="&#x43a;" horiz-adv-x="498" 
d="M269 235l216 -235h-111l-203 230l190 220h105zM72 450h80v-450h-80v450z" />
    <glyph glyph-name="afii10077" unicode="&#x43b;" horiz-adv-x="532" 
d="M380 370h-158l-5 -76q-8 -96 -24 -155t-39 -91t-53 -43t-65 -11l-6 78q13 -1 30 6.5t33 33t29 73t17 125.5l8 140h313v-450h-80v370z" />
    <glyph glyph-name="afii10078" unicode="&#x43c;" horiz-adv-x="626" 
d="M72 450h73l173 -223l164 223h71v-450h-80v328l-156 -209h-3l-162 209v-328h-80v450z" />
    <glyph glyph-name="afii10079" unicode="&#x43d;" horiz-adv-x="555" 
d="M402 190h-250v-190h-80v450h80v-185h250v185h80v-450h-80v190z" />
    <glyph glyph-name="afii10080" unicode="&#x43e;" horiz-adv-x="565" 
d="M42 225q0 51 17 94t48.5 74.5t76 49t98.5 17.5t98 -17.5t75.5 -49t49 -74.5t17.5 -94t-17.5 -94t-49 -74.5t-75.5 -49t-98 -17.5t-98.5 17.5t-76 49t-48.5 74.5t-17 94zM127 225q0 -35 11.5 -64.5t32 -50.5t49 -33t62.5 -12t62.5 11.5t49 32.5t32 50.5t11.5 65.5
q0 35 -11.5 64.5t-32 50.5t-49 33t-62.5 12q-33 0 -61.5 -11.5t-49 -32.5t-32.5 -50.5t-12 -65.5z" />
    <glyph glyph-name="afii10081" unicode="&#x43f;" horiz-adv-x="550" 
d="M397 375h-245v-375h-80v450h405v-450h-80v375z" />
    <glyph glyph-name="afii10082" unicode="&#x440;" horiz-adv-x="556" 
d="M72 450h80v-53q23 27 64.5 45t88.5 18q48 0 86.5 -17t65.5 -47t41.5 -72t14.5 -92q0 -51 -16.5 -95.5t-47.5 -77t-74 -51t-96 -18.5q-36 0 -69.5 7.5t-57.5 23.5v-221h-80v650zM282 385q-40 0 -74.5 -18t-55.5 -44v-223q30 -20 59 -27.5t61 -7.5q36 0 65 12.5t49 34
t31 51.5t11 66q0 34 -9.5 62.5t-28.5 49.5t-46 32.5t-62 11.5z" />
    <glyph glyph-name="afii10083" unicode="&#x441;" horiz-adv-x="488" 
d="M456 65q-29 -37 -75 -56t-98 -19q-54 0 -98 16.5t-76 47.5t-49.5 74.5t-17.5 96.5q0 49 17 92t47.5 74.5t72 50t91.5 18.5q54 0 99.5 -13.5t77.5 -45.5l-37 -63q-29 26 -61.5 36.5t-67.5 10.5q-30 0 -58 -11.5t-49.5 -32.5t-34 -50.5t-12.5 -65.5q0 -37 13 -66.5
t35 -50.5t51.5 -32t62.5 -11q41 0 73.5 16t55.5 42z" />
    <glyph glyph-name="afii10084" unicode="&#x442;" horiz-adv-x="440" 
d="M15 450h410v-80h-165v-370h-80v370h-165v80z" />
    <glyph glyph-name="afii10085" unicode="&#x443;" horiz-adv-x="491" 
d="M301 0q-25 -60 -46 -99t-41 -61.5t-40.5 -31t-44.5 -8.5q-26 0 -46.5 8t-38.5 20l26 61q11 -5 23.5 -10t26.5 -5q29 0 51 24t45 78l10 24l-216 450h96l132 -286q8 -17 14 -34t13 -34q9 33 21 69l104 285h91z" />
    <glyph glyph-name="afii10086" unicode="&#x444;" horiz-adv-x="675" 
d="M297 -10h-11q-58 0 -103.5 18t-76.5 49.5t-47.5 74.5t-16.5 93q0 46 16 88.5t47 75t76.5 52t103.5 19.5h12v240h80v-240h13q56 0 101 -18t76.5 -50t48 -75t16.5 -92q0 -50 -15.5 -93t-46 -74.5t-76 -49.5t-104.5 -18h-13v-190h-80v190zM127 225q0 -70 42 -115t120 -45h8
v320h-13q-39 0 -68 -13t-49 -34.5t-30 -50.5t-10 -62zM377 385v-320h9q79 0 120 44.5t41 115.5q0 31 -10 60t-30 51t-49.5 35.5t-67.5 13.5h-13z" />
    <glyph glyph-name="afii10087" unicode="&#x445;" horiz-adv-x="507" 
d="M311 233l171 -233h-98l-132 182l-134 -182h-93l170 229l-160 221h98l122 -170l124 170h93z" />
    <glyph glyph-name="afii10088" unicode="&#x446;" horiz-adv-x="562" 
d="M72 450h80v-375h240v375h80v-375h75v-185h-75v110h-400v450z" />
    <glyph glyph-name="afii10089" unicode="&#x447;" horiz-adv-x="482" 
d="M410 0h-80v175q-23 -14 -55 -23.5t-70 -9.5q-160 0 -160 172v136h85v-127q0 -54 25.5 -80t71.5 -26q34 0 61 8.5t42 19.5v205h80v-450z" />
    <glyph glyph-name="afii10090" unicode="&#x448;" horiz-adv-x="715" 
d="M72 450h80v-375h165v375h80v-375h165v375h80v-450h-570v450z" />
    <glyph glyph-name="afii10091" unicode="&#x449;" horiz-adv-x="732" 
d="M72 450h80v-375h165v375h80v-375h165v375h80v-375h75v-185h-75v110h-570v450z" />
    <glyph glyph-name="afii10092" unicode="&#x44a;" horiz-adv-x="509" 
d="M5 450h209v-135h82q52 0 86 -13t54.5 -34.5t29 -49.5t8.5 -58t-9.5 -58.5t-31.5 -51t-58 -36.5t-89 -14h-152v375h-129v75zM214 240v-165h66q60 0 84.5 21t24.5 61q0 41 -25 62t-83 21h-67z" />
    <glyph glyph-name="afii10093" unicode="&#x44b;" horiz-adv-x="642" 
d="M72 450h80v-135h74q52 0 86 -13t54.5 -34.5t29 -49.5t8.5 -58t-9.5 -58.5t-31 -51t-57.5 -36.5t-89 -14h-145v450zM490 450h80v-450h-80v450zM152 240v-165h58q60 0 84.5 21t24.5 61q0 41 -25 62t-83 21h-59z" />
    <glyph glyph-name="afii10094" unicode="&#x44c;" horiz-adv-x="447" 
d="M72 450h80v-135h82q52 0 86 -13t54.5 -34.5t29 -49.5t8.5 -58t-9.5 -58.5t-31.5 -51t-58 -36.5t-89 -14h-152v450zM152 240v-165h66q60 0 84.5 21t24.5 61q0 41 -25 62t-83 21h-67z" />
    <glyph glyph-name="afii10095" unicode="&#x44d;" horiz-adv-x="489" 
d="M142 261h221q-10 63 -52.5 93.5t-103.5 30.5q-42 0 -77 -13t-61 -36l-34 60q32 31 79.5 47.5t91.5 16.5q53 0 97.5 -16.5t76 -47.5t49 -74t17.5 -97q0 -49 -17 -92t-47.5 -74.5t-72.5 -50t-91 -18.5q-54 0 -101.5 13t-79.5 44l38 59q23 -21 61.5 -31t76.5 -10
q63 0 103 34t48 97h-222v65z" />
    <glyph glyph-name="afii10096" unicode="&#x44e;" horiz-adv-x="760" 
d="M72 450h85v-180h98q7 42 26 76.5t48 60t68 39.5t85 14q53 0 96.5 -17.5t74 -49t47.5 -74.5t17 -94t-17 -94t-48 -74.5t-74.5 -49t-95.5 -17.5q-48 0 -87.5 15t-69 41.5t-48 63t-23.5 80.5h-97v-190h-85v450zM342 225q0 -72 40 -113.5t103 -41.5t102.5 42t39.5 113
q0 34 -10 63t-28.5 49t-45 31.5t-58.5 11.5t-58 -11t-45 -31.5t-29.5 -49t-10.5 -63.5z" />
    <glyph glyph-name="afii10097" unicode="&#x44f;" horiz-adv-x="482" 
d="M409 450v-450h-80v150h-87l-110 -150h-97l130 170q-17 4 -34.5 14.5t-31.5 27t-22.5 38.5t-8.5 50q0 29 10.5 56t34 48t62 33.5t94.5 12.5h140zM153 298q0 -17 7.5 -30.5t19.5 -23t27 -14.5t30 -5h92v150h-73q-56 0 -79.5 -23t-23.5 -54z" />
    <glyph glyph-name="afii10071" unicode="&#x451;" horiz-adv-x="520" 
d="M452 49q-33 -30 -78.5 -44.5t-90.5 -14.5q-55 0 -99.5 16.5t-76 47.5t-48.5 74.5t-17 96.5q0 49 15.5 92t45 74.5t72.5 50t99 18.5q43 0 81.5 -15t66.5 -42t44.5 -65t16.5 -84q0 -31 -5 -54h-346q5 -64 48 -99.5t109 -35.5q44 0 80 13.5t58 33.5zM270 385q-62 0 -99 -34
t-44 -86h273q-3 56 -37 88t-93 32zM121 610q0 21 13.5 33.5t33.5 12.5q17 0 30.5 -12.5t13.5 -33.5q0 -24 -13.5 -37t-30.5 -13q-20 0 -33.5 13t-13.5 37zM324 610q0 21 14 33.5t34 12.5q17 0 30.5 -12.5t13.5 -33.5q0 -24 -13.5 -37t-30.5 -13q-20 0 -34 13t-14 37z" />
    <glyph glyph-name="afii10099" unicode="&#x452;" horiz-adv-x="596" 
d="M5 525h130v175h80v-175h180v-65h-180v-152q25 26 64.5 43t82.5 17q88 0 137.5 -46.5t49.5 -150.5q0 -60 -12 -116t-34 -104t-54.5 -87t-72.5 -64h-87q47 33 81 74.5t55.5 87.5t32 94t10.5 95q0 142 -126 142q-38 0 -72 -16t-55 -41v-236h-80v460h-130v65z" />
    <glyph glyph-name="afii10100" unicode="&#x453;" horiz-adv-x="362" 
d="M72 450h285v-75h-205v-375h-80v450zM224 531l-48 34l106 157l62 -48z" />
    <glyph glyph-name="afii10101" unicode="&#x454;" horiz-adv-x="489" 
d="M346 196h-222q4 -33 18.5 -57.5t36.5 -41t49.5 -24.5t58.5 -8q34 0 71.5 10t60.5 31l33 -59q-32 -31 -79 -44t-97 -13q-52 0 -95 17.5t-74 49t-48 74.5t-17 94q0 54 17.5 97t49.5 74t76 47.5t98 16.5q44 0 91.5 -16.5t78.5 -47.5l-33 -60q-26 23 -61 36t-78 13
q-60 0 -103 -30.5t-54 -93.5h222v-65z" />
    <glyph glyph-name="afii10102" unicode="&#x455;" horiz-adv-x="430" 
d="M300 122q0 23 -18 36t-45 22.5t-58.5 19t-58.5 25.5t-45 41.5t-18 66.5q0 60 43 93.5t110 33.5q56 0 95.5 -16.5t59.5 -36.5l-38 -61q-20 18 -49 31t-64 13q-34 0 -53 -16.5t-19 -39.5q0 -24 18 -37.5t45 -23.5t58.5 -19.5t58.5 -24.5t45 -39.5t18 -63.5
q0 -36 -14.5 -61.5t-38.5 -42t-55.5 -24.5t-65.5 -8q-27 0 -53.5 6.5t-49 16.5t-39 22.5t-24.5 24.5l45 57q10 -11 25 -21.5t33 -18.5t36.5 -12.5t35.5 -4.5q32 0 56 15.5t24 46.5z" />
    <glyph glyph-name="afii10103" unicode="&#x456;" horiz-adv-x="268" 
d="M94 450h80v-450h-80v450zM84 619q0 22 15.5 35t36.5 13q19 0 34 -13t15 -35q0 -25 -15 -38.5t-34 -13.5q-21 0 -36.5 13.5t-15.5 38.5z" />
    <glyph glyph-name="afii10104" unicode="&#x457;" horiz-adv-x="293" 
d="M35 608q0 19 13 30.5t31 11.5q15 0 27.5 -11.5t12.5 -30.5q0 -20 -12.5 -32t-27.5 -12q-18 0 -31 12t-13 32zM175 608q0 19 13 30.5t30 11.5q16 0 28 -11.5t12 -30.5q0 -20 -12 -32t-28 -12q-17 0 -30 12t-13 32zM106 450h80v-450h-80v450z" />
    <glyph glyph-name="afii10105" unicode="&#x458;" horiz-adv-x="273" 
d="M178 -33q0 -83 -33 -129t-108 -46q-32 0 -59 9t-41 20l23 64q12 -8 26.5 -13t32.5 -5q43 0 61 28t18 78v477h80v-483zM87 619q0 22 15.5 35t36.5 13q19 0 34 -13t15 -35q0 -25 -15 -38.5t-34 -13.5q-21 0 -36.5 13.5t-15.5 38.5z" />
    <glyph glyph-name="afii10106" unicode="&#x459;" horiz-adv-x="742" 
d="M380 370h-158l-5 -76q-8 -96 -24 -155t-39 -91t-53 -43t-65 -11l-6 78q13 -1 30 6.5t33 33t29 73t17 125.5l8 140h313v-135h69q52 0 86 -13t54.5 -34.5t29 -49.5t8.5 -58t-9.5 -58.5t-31.5 -51t-58 -36.5t-89 -14h-139v370zM460 240v-165h53q60 0 84.5 21t24.5 61
q0 41 -25 62t-83 21h-54z" />
    <glyph glyph-name="afii10107" unicode="&#x45a;" horiz-adv-x="764" 
d="M72 450h80v-175h250v175h80v-145h69q52 0 86 -12t54.5 -33t29 -48t8.5 -57t-9.5 -57.5t-31 -49.5t-57.5 -35t-89 -13h-140v200h-250v-200h-80v450zM482 230v-155h53q60 0 84.5 18.5t24.5 58.5q0 41 -25 59.5t-83 18.5h-54z" />
    <glyph glyph-name="afii10108" unicode="&#x45b;" horiz-adv-x="596" 
d="M5 525h130v175h80v-175h180v-65h-180v-152q25 26 64.5 43t82.5 17q88 0 137.5 -47t49.5 -153v-168h-80v157q0 136 -127 136q-38 0 -72 -16t-55 -41v-236h-80v460h-130v65z" />
    <glyph glyph-name="afii10109" unicode="&#x45c;" horiz-adv-x="498" 
d="M269 235l216 -235h-111l-203 230l190 220h105zM72 450h80v-450h-80v450zM245 531l-48 34l106 157l62 -48z" />
    <glyph glyph-name="afii10110" unicode="&#x45e;" horiz-adv-x="491" 
d="M301 0q-25 -60 -46 -99t-41 -61.5t-40.5 -31t-44.5 -8.5q-26 0 -46.5 8t-38.5 20l26 61q11 -5 23.5 -10t26.5 -5q29 0 51 24t45 78l10 24l-216 450h96l132 -286q8 -17 14 -34t13 -34q9 33 21 69l104 285h91zM176 680q6 -79 77 -79q67 0 73 79h75q0 -30 -10.5 -55.5
t-30 -44t-46.5 -29.5t-61 -11q-37 0 -65.5 11t-47.5 29.5t-29 44t-10 55.5h75z" />
    <glyph glyph-name="afii10193" unicode="&#x45f;" horiz-adv-x="540" 
d="M72 450h80v-375h235v375h80v-450h-160v-125h-75v125h-160v450z" />
    <glyph glyph-name="afii10146" unicode="&#x462;" horiz-adv-x="639" 
d="M227 600h157v-80h-157v-100q29 2 55 3.5t43 1.5q136 0 200 -53.5t64 -152.5q0 -111 -74 -166t-209 -55q-45 0 -89 1t-75 1v520h-132v80h132v100h85v-100zM319 345q-17 0 -41.5 -1.5t-50.5 -4.5v-258q20 -1 42.5 -2t46.5 -1q87 0 135 31.5t48 107.5q0 69 -47.5 98.5
t-132.5 29.5z" />
    <glyph glyph-name="afii10194" unicode="&#x463;" horiz-adv-x="506" 
d="M5 450h129v250h80v-250h150v-75h-150v-90h79q52 0 86 -11.5t54.5 -31.5t29 -46.5t8.5 -56.5t-9.5 -55t-31 -44t-57.5 -29.5t-89 -10.5h-150v375h-129v75zM214 210v-135h78q54 0 74 18t20 50q0 31 -20.5 49t-73.5 18h-78z" />
    <glyph glyph-name="afii10147" unicode="&#x472;" horiz-adv-x="814" 
d="M50 350q0 76 26.5 142t74 114.5t113 76t143.5 27.5q76 0 141.5 -26.5t113.5 -74t75 -113.5t27 -146q0 -78 -27 -144t-75 -114t-113.5 -75t-141.5 -27t-141.5 26.5t-113.5 74t-75 113.5t-27 146zM287 357q-20 0 -40.5 -6t-39 -15t-34.5 -20t-28 -21q9 -49 32.5 -90.5
t58 -71.5t78 -46.5t93.5 -16.5q57 0 103.5 19t81 53t55.5 80.5t25 100.5q-29 -20 -66 -33.5t-71 -13.5q-39 0 -69 12.5t-58 28t-56.5 28t-64.5 12.5zM541 351q34 0 70 16.5t58 36.5q-9 50 -32.5 91.5t-58 71.5t-78.5 46.5t-93 16.5q-54 0 -100.5 -18.5t-81.5 -51.5
t-57 -79.5t-27 -101.5q32 23 71 38t76 15q40 0 70.5 -12.5t58.5 -28t57 -28t67 -12.5z" />
    <glyph glyph-name="afii10195" unicode="&#x473;" horiz-adv-x="575" 
d="M42 225q0 51 17.5 94t49.5 74.5t77 49t101 17.5t101 -17.5t77 -49t49.5 -74.5t17.5 -94t-17.5 -94t-49.5 -74.5t-77 -49t-101 -17.5t-101 17.5t-77 49t-49.5 74.5t-17.5 94zM203 227q-19 0 -39 -8t-40 -29q5 -33 20 -58t36.5 -42t49 -26t57.5 -9q63 0 109.5 37t54.5 109
q-21 -17 -42 -25t-40 -8q-25 0 -46.5 9t-41 20.5t-38.5 20.5t-40 9zM379 223q17 0 35.5 7t35.5 25q-10 68 -56 104t-107 36q-31 0 -59 -9.5t-50.5 -28.5t-37 -46.5t-17.5 -63.5q22 18 44.5 26.5t39.5 8.5q26 0 48.5 -9t43 -20.5t40.5 -20.5t40 -9z" />
    <glyph glyph-name="afii10148" unicode="&#x474;" horiz-adv-x="659" 
d="M363 -4h-63l-295 704h91l238 -575l148 427q18 52 36 85.5t40.5 50.5t51.5 18.5t69 -8.5l-13 -75q-23 9 -39.5 5.5t-29.5 -18.5t-25 -42t-25 -64z" />
    <glyph glyph-name="afii10196" unicode="&#x475;" horiz-adv-x="485" 
d="M277 -4h-58l-214 454h94l114 -243q10 -22 19.5 -47.5t17.5 -50.5q8 25 16.5 51t16.5 49l49 128q15 40 30.5 66.5t35 39.5t45.5 14t62 -10l-13 -74q-18 9 -31.5 6.5t-25 -14t-21.5 -31.5t-21 -46z" />
    <glyph glyph-name="afii10050" unicode="&#x490;" horiz-adv-x="505" 
d="M105 700h310v125h80v-205h-305v-620h-85v700z" />
    <glyph glyph-name="afii10098" unicode="&#x491;" horiz-adv-x="362" 
d="M72 450h210v105h75v-180h-205v-375h-80v450z" />
    <glyph glyph-name="uni1E9E" unicode="&#x1e9e;" horiz-adv-x="644" 
d="M499 173q0 32 -18 61.5t-48 57.5t-68.5 55t-79.5 54l135 191q-14 15 -41 26.5t-61 11.5q-55 0 -91.5 -33.5t-36.5 -108.5v-490h-85v488q0 59 16.5 101.5t45.5 69.5t68.5 40t86.5 13q56 0 108 -24.5t94 -73.5l-137 -185q37 -23 73.5 -51.5t65 -61.5t46 -71.5t17.5 -81.5
q0 -39 -15 -71t-39.5 -54t-55 -34t-61.5 -12t-55 5.5t-43.5 14t-34.5 19.5t-28 23l38 66q23 -20 46 -34t58 -14q19 0 37 7t32 20t22.5 32.5t8.5 43.5z" />
    <glyph glyph-name="uni2010" unicode="&#x2010;" horiz-adv-x="389" 
d="M75 310h239v-75h-239v75z" />
    <glyph glyph-name="uni2011" unicode="&#x2011;" horiz-adv-x="389" 
d="M75 310h239v-75h-239v75z" />
    <glyph glyph-name="figuredash" unicode="&#x2012;" horiz-adv-x="594" 
d="M90 389h414v-70h-414v70z" />
    <glyph glyph-name="endash" unicode="&#x2013;" horiz-adv-x="594" 
d="M90 305h414v-70h-414v70z" />
    <glyph glyph-name="emdash" unicode="&#x2014;" horiz-adv-x="804" 
d="M90 305h624v-70h-624v70z" />
    <glyph glyph-name="afii00208" unicode="&#x2015;" horiz-adv-x="804" 
d="M90 305h624v-70h-624v70z" />
    <glyph glyph-name="quoteleft" unicode="&#x2018;" horiz-adv-x="239" 
d="M94 511q-13 14 -21 36t-8 46q0 30 7.5 54t19.5 42.5t27.5 31.5t30.5 22l37 -36q-23 -16 -35 -41.5t-12 -54.5q0 -20 6 -35t15 -24z" />
    <glyph glyph-name="quoteright" unicode="&#x2019;" horiz-adv-x="239" 
d="M145 740q13 -14 21 -36t8 -46q0 -30 -7.5 -53.5t-19.5 -42t-27.5 -31.5t-30.5 -22l-37 35q23 17 35 42.5t12 54.5q0 19 -6 34.5t-15 24.5z" />
    <glyph glyph-name="quotesinglbase" unicode="&#x201a;" horiz-adv-x="239" 
d="M145 75q13 -14 21 -36t8 -46q0 -30 -7.5 -53.5t-19.5 -42t-27.5 -31.5t-30.5 -22l-37 35q23 17 35 42.5t12 54.5q0 19 -6 34.5t-15 24.5z" />
    <glyph glyph-name="quotedblleft" unicode="&#x201c;" horiz-adv-x="384" 
d="M239 511q-13 14 -21 36t-8 46q0 30 7.5 54t19.5 42.5t27.5 31.5t30.5 22l37 -36q-23 -16 -35 -41.5t-12 -54.5q0 -20 6 -35t15 -24zM94 511q-13 14 -21 36t-8 46q0 30 7.5 54t19.5 42.5t27.5 31.5t30.5 22l37 -36q-23 -16 -35 -41.5t-12 -54.5q0 -20 6 -35t15 -24z" />
    <glyph glyph-name="quotedblright" unicode="&#x201d;" horiz-adv-x="384" 
d="M290 740q13 -14 21 -36t8 -46q0 -30 -7.5 -53.5t-19.5 -42t-27.5 -31.5t-30.5 -22l-37 35q23 17 35 42.5t12 54.5q0 19 -6 34.5t-15 24.5zM145 740q13 -14 21 -36t8 -46q0 -30 -7.5 -53.5t-19.5 -42t-27.5 -31.5t-30.5 -22l-37 35q23 17 35 42.5t12 54.5q0 19 -6 34.5
t-15 24.5z" />
    <glyph glyph-name="quotedblbase" unicode="&#x201e;" horiz-adv-x="384" 
d="M290 75q13 -14 21 -36t8 -46q0 -30 -7.5 -53.5t-19.5 -42t-27.5 -31.5t-30.5 -22l-37 35q23 17 35 42.5t12 54.5q0 19 -6 34.5t-15 24.5zM145 75q13 -14 21 -36t8 -46q0 -30 -7.5 -53.5t-19.5 -42t-27.5 -31.5t-30.5 -22l-37 35q23 17 35 42.5t12 54.5q0 19 -6 34.5
t-15 24.5z" />
    <glyph glyph-name="dagger" unicode="&#x2020;" horiz-adv-x="459" 
d="M40 480h152v220h75v-220h152v-70h-152v-510h-75v510h-152v70z" />
    <glyph glyph-name="daggerdbl" unicode="&#x2021;" horiz-adv-x="459" 
d="M40 480h152v220h75v-220h152v-70h-152v-190h152v-70h-152v-250h-75v250h-152v70h152v190h-152v70z" />
    <glyph glyph-name="bullet" unicode="&#x2022;" horiz-adv-x="230" 
d="M30 263q0 35 24.5 60t59.5 25q18 0 33.5 -7t27 -18.5t18.5 -27t7 -32.5t-7 -32.5t-18.5 -27t-27 -18.5t-33.5 -7q-35 0 -59.5 25t-24.5 60z" />
    <glyph glyph-name="ellipsis" unicode="&#x2026;" horiz-adv-x="850" 
d="M670 54q0 20 15.5 36.5t41.5 16.5q23 0 38 -16.5t15 -36.5q0 -23 -15 -40t-38 -17q-26 0 -41.5 17t-15.5 40zM370 54q0 20 15.5 36.5t41.5 16.5q23 0 38 -16.5t15 -36.5q0 -23 -15 -40t-38 -17q-26 0 -41.5 17t-15.5 40zM70 54q0 20 15.5 36.5t41.5 16.5q23 0 38 -16.5
t15 -36.5q0 -23 -15 -40t-38 -17q-26 0 -41.5 17t-15.5 40z" />
    <glyph glyph-name="perthousand" unicode="&#x2030;" horiz-adv-x="1300" 
d="M889 164q0 38 14 69t38.5 53.5t58 34.5t72.5 12t72.5 -12t58 -34.5t38.5 -53.5t14 -69t-14 -69t-38.5 -53.5t-58 -35t-72.5 -12.5t-72.5 12.5t-58 35t-38.5 53.5t-14 69zM964 164q0 -24 9 -43.5t24 -33t34.5 -21t40.5 -7.5q22 0 41.5 7.5t34.5 21t23.5 33t8.5 43.5
t-8.5 43t-23.5 32.5t-34.5 21t-41.5 7.5q-45 0 -76.5 -28t-31.5 -76zM673 710l46 -34l-513 -686l-47 33zM45 537q0 38 14 69t38.5 53.5t58 34.5t72.5 12t72.5 -12t58 -34.5t38.5 -53.5t14 -69t-14 -69t-38.5 -53.5t-58 -35t-72.5 -12.5t-72.5 12.5t-58 35t-38.5 53.5t-14 69
zM120 537q0 -24 9 -43.5t24 -33t34.5 -21t40.5 -7.5q22 0 41.5 7.5t34.5 21t23.5 33t8.5 43.5t-8.5 43t-23.5 32.5t-34.5 21t-41.5 7.5q-45 0 -76.5 -28t-31.5 -76zM466 164q0 38 14 69t38.5 53.5t58 34.5t72.5 12t72.5 -12t58 -34.5t38.5 -53.5t14 -69t-14 -69t-38.5 -53.5
t-58 -35t-72.5 -12.5t-72.5 12.5t-58 35t-38.5 53.5t-14 69zM541 164q0 -24 9 -43.5t24 -33t34.5 -21t40.5 -7.5q22 0 41.5 7.5t34.5 21t23.5 33t8.5 43.5t-8.5 43t-23.5 32.5t-34.5 21t-41.5 7.5q-45 0 -76.5 -28t-31.5 -76z" />
    <glyph glyph-name="guilsinglleft" unicode="&#x2039;" horiz-adv-x="340" 
d="M45 248v4l188 216l52 -46l-148 -172l147 -173l-54 -47z" />
    <glyph glyph-name="guilsinglright" unicode="&#x203a;" horiz-adv-x="340" 
d="M110 30l-54 47l147 173l-148 172l52 46l188 -216v-4z" />
    <glyph glyph-name="fraction" unicode="&#x2044;" horiz-adv-x="200" 
d="M334 710l46 -34l-513 -686l-47 33z" />
    <glyph glyph-name="uni2070" unicode="&#x2070;" horiz-adv-x="384" 
d="M40 525q0 37 9.5 70t28.5 57t47.5 38t66.5 14q37 0 65.5 -14t48 -38.5t29 -57t9.5 -69.5q0 -38 -9.5 -70.5t-28.5 -56.5t-47.5 -38t-65.5 -14q-38 0 -66.5 13.5t-48 37.5t-29 56.5t-9.5 71.5zM115 525q0 -60 21 -89.5t57 -29.5q76 0 76 119t-77 119q-38 0 -57.5 -30.5
t-19.5 -88.5z" />
    <glyph glyph-name="uni2074" unicode="&#x2074;" horiz-adv-x="353" 
d="M209 429h-194v46l168 225h67l-163 -216h122v91h65v-91h59v-55h-59v-79h-65v79z" />
    <glyph glyph-name="uni2075" unicode="&#x2075;" horiz-adv-x="337" 
d="M87 700h208v-55h-159l-13 -82q8 2 21 4.5t28 2.5q58 0 93 -28.5t35 -77.5q0 -57 -40.5 -88.5t-100.5 -31.5q-47 0 -82.5 14.5t-54.5 43.5l37 38q14 -19 38 -30t50 -11q38 0 58.5 17t20.5 45q0 26 -23.5 42.5t-68.5 16.5q-18 0 -38 -2t-31 -6z" />
    <glyph glyph-name="uni2076" unicode="&#x2076;" horiz-adv-x="380" 
d="M37 480q0 46 19 86t52 70t76.5 48t91.5 21l14 -48q-65 -8 -113 -43t-64 -92q14 18 41.5 31.5t62.5 13.5q59 0 93.5 -29.5t34.5 -77.5q0 -26 -11.5 -47t-31 -36.5t-46 -24t-56.5 -8.5q-81 0 -122 39t-41 97zM112 471q1 -27 22.5 -49.5t65.5 -22.5q31 0 50.5 17.5
t19.5 41.5q0 25 -18.5 42t-55.5 17q-32 0 -53.5 -15t-30.5 -31z" />
    <glyph glyph-name="uni2077" unicode="&#x2077;" horiz-adv-x="313" 
d="M17 700h278v-42l-157 -308h-76l152 290h-197v60z" />
    <glyph glyph-name="uni2078" unicode="&#x2078;" horiz-adv-x="393" 
d="M204 555q26 0 43.5 13.5t17.5 33.5q0 23 -20 35.5t-49 12.5t-48.5 -12.5t-19.5 -35.5q0 -20 18.5 -33.5t43.5 -13.5h14zM192 505q-32 0 -54.5 -14.5t-22.5 -37.5q0 -24 22 -39t59 -15q35 0 58.5 14.5t23.5 39.5t-21.5 38.5t-53.5 13.5h-11zM197 344q-33 0 -60.5 6.5
t-48 19.5t-32 30.5t-11.5 40.5q0 34 20.5 56.5t54.5 31.5v2q-27 8 -44.5 29.5t-17.5 53.5q0 42 39 66.5t99 24.5t99.5 -24.5t39.5 -66.5q0 -26 -16 -49t-50 -34v-1q35 -6 57 -28t22 -56q0 -24 -11.5 -43t-31.5 -32t-47.5 -20t-60.5 -7z" />
    <glyph glyph-name="uni2079" unicode="&#x2079;" horiz-adv-x="380" 
d="M343 561q0 -48 -18 -87.5t-50.5 -67.5t-77.5 -44t-98 -18l-10 50q37 4 69 15.5t56 29t37.5 40t15.5 48.5q-14 -21 -41.5 -35.5t-62.5 -14.5q-59 0 -93.5 31.5t-34.5 78.5q0 26 11.5 48t31 37.5t46 24t56.5 8.5q81 0 122 -39.5t41 -104.5zM268 574q-2 31 -23 53.5
t-65 22.5q-31 0 -50.5 -17t-19.5 -41q0 -25 18.5 -45t55.5 -20q32 0 53.5 15t30.5 32z" />
    <glyph glyph-name="uni207A" unicode="&#x207a;" horiz-adv-x="360" 
d="M45 557h106v105h55v-105h109v-55h-109v-105h-55v105h-106v55z" />
    <glyph glyph-name="uni207B" unicode="&#x207b;" horiz-adv-x="360" 
d="M45 557h270v-55h-270v55z" />
    <glyph glyph-name="uni207C" unicode="&#x207c;" horiz-adv-x="360" 
d="M45 487h270v-55h-270v55zM45 627h270v-55h-270v55z" />
    <glyph glyph-name="uni207D" unicode="&#x207d;" horiz-adv-x="212" 
d="M161 307q-37 19 -62 45t-40.5 54.5t-22 58.5t-6.5 58q0 55 30 112t102 103l37 -40q-51 -35 -75 -77.5t-24 -97.5q0 -56 27.5 -101t74.5 -74z" />
    <glyph glyph-name="uni207E" unicode="&#x207e;" horiz-adv-x="212" 
d="M51 738q37 -20 62 -45.5t40.5 -54t22 -58.5t6.5 -58q0 -55 -30 -112.5t-102 -102.5l-37 40q51 34 75 77t24 98q0 56 -27.5 100.5t-74.5 74.5z" />
    <glyph glyph-name="uni2080" unicode="&#x2080;" horiz-adv-x="384" 
d="M40 175q0 37 9.5 70t28.5 57t47.5 38t66.5 14q37 0 65.5 -14t48 -38.5t29 -57t9.5 -69.5q0 -38 -9.5 -70.5t-28.5 -56.5t-47.5 -38t-65.5 -14q-38 0 -66.5 13.5t-48 37.5t-29 56.5t-9.5 71.5zM115 175q0 -60 21 -89.5t57 -29.5q76 0 76 119t-77 119q-38 0 -57.5 -30.5
t-19.5 -88.5z" />
    <glyph glyph-name="uni2081" unicode="&#x2081;" horiz-adv-x="252" 
d="M127 351h50v-351h-70v269l-58 -37l-27 48z" />
    <glyph glyph-name="uni2082" unicode="&#x2082;" horiz-adv-x="349" 
d="M35 51q27 18 60.5 40t62.5 46.5t49 50.5t20 51q0 23 -15.5 39t-45.5 16q-24 0 -44.5 -16t-24.5 -42l-59 21q8 46 45 71.5t90 25.5q65 0 96.5 -31t31.5 -76q0 -35 -21 -65.5t-49.5 -54.5t-57.5 -41.5t-46 -25.5h192v-60h-284v51z" />
    <glyph glyph-name="uni2083" unicode="&#x2083;" horiz-adv-x="350" 
d="M169 -6q-46 0 -85 17t-59 53l41 38q12 -23 38 -36.5t54 -13.5q38 0 57.5 15t19.5 38q0 20 -18 33.5t-53 13.5h-34v50h30q26 0 44 14.5t18 36.5q0 21 -17 33t-46 12q-34 0 -55.5 -14t-33.5 -31l-34 38q15 27 49 45.5t88 18.5q56 0 90 -23t34 -65q0 -31 -19.5 -53
t-54.5 -31v-1q43 -3 65 -27.5t22 -55.5q0 -24 -11 -43.5t-30.5 -33t-45 -21t-54.5 -7.5z" />
    <glyph glyph-name="uni2084" unicode="&#x2084;" horiz-adv-x="353" 
d="M209 79h-194v46l168 225h67l-163 -216h122v91h65v-91h59v-55h-59v-79h-65v79z" />
    <glyph glyph-name="uni2085" unicode="&#x2085;" horiz-adv-x="337" 
d="M87 350h208v-55h-159l-13 -82q8 2 21 4.5t28 2.5q58 0 93 -28.5t35 -77.5q0 -57 -40.5 -88.5t-100.5 -31.5q-47 0 -82.5 14.5t-54.5 43.5l37 38q14 -19 38 -30t50 -11q38 0 58.5 17t20.5 45q0 26 -23.5 42.5t-68.5 16.5q-18 0 -38 -2t-31 -6z" />
    <glyph glyph-name="uni2086" unicode="&#x2086;" horiz-adv-x="380" 
d="M37 130q0 46 19 86t52 70t76.5 48t91.5 21l14 -48q-65 -8 -113 -43t-64 -92q14 18 41.5 31.5t62.5 13.5q59 0 93.5 -29.5t34.5 -77.5q0 -26 -11.5 -47t-31 -36.5t-46 -24t-56.5 -8.5q-81 0 -122 39t-41 97zM112 121q1 -27 22.5 -49.5t65.5 -22.5q31 0 50.5 17.5
t19.5 41.5q0 25 -18.5 42t-55.5 17q-32 0 -53.5 -15t-30.5 -31z" />
    <glyph glyph-name="uni2087" unicode="&#x2087;" horiz-adv-x="313" 
d="M17 350h278v-42l-157 -308h-76l152 290h-197v60z" />
    <glyph glyph-name="uni2088" unicode="&#x2088;" horiz-adv-x="393" 
d="M204 205q26 0 43.5 13.5t17.5 33.5q0 23 -20 35.5t-49 12.5t-48.5 -12.5t-19.5 -35.5q0 -20 18.5 -33.5t43.5 -13.5h14zM192 155q-32 0 -54.5 -14.5t-22.5 -37.5q0 -24 22 -39t59 -15q35 0 58.5 14.5t23.5 39.5t-21.5 38.5t-53.5 13.5h-11zM197 -6q-33 0 -60.5 6.5
t-48 19.5t-32 30.5t-11.5 40.5q0 34 20.5 56.5t54.5 31.5v2q-27 8 -44.5 29.5t-17.5 53.5q0 42 39 66.5t99 24.5t99.5 -24.5t39.5 -66.5q0 -26 -16 -49t-50 -34v-1q35 -6 57 -28t22 -56q0 -24 -11.5 -43t-31.5 -32t-47.5 -20t-60.5 -7z" />
    <glyph glyph-name="uni2089" unicode="&#x2089;" horiz-adv-x="380" 
d="M343 211q0 -48 -18 -87.5t-50.5 -67.5t-77.5 -44t-98 -18l-10 50q37 4 69 15.5t56 29t37.5 40t15.5 48.5q-14 -21 -41.5 -35.5t-62.5 -14.5q-59 0 -93.5 31.5t-34.5 78.5q0 26 11.5 48t31 37.5t46 24t56.5 8.5q81 0 122 -39.5t41 -104.5zM268 224q-2 31 -23 53.5
t-65 22.5q-31 0 -50.5 -17t-19.5 -41q0 -25 18.5 -45t55.5 -20q32 0 53.5 15t30.5 32z" />
    <glyph glyph-name="uni208A" unicode="&#x208a;" horiz-adv-x="360" 
d="M45 207h106v105h55v-105h109v-55h-109v-105h-55v105h-106v55z" />
    <glyph glyph-name="uni208B" unicode="&#x208b;" horiz-adv-x="360" 
d="M45 207h270v-55h-270v55z" />
    <glyph glyph-name="uni208C" unicode="&#x208c;" horiz-adv-x="360" 
d="M45 137h270v-55h-270v55zM45 277h270v-55h-270v55z" />
    <glyph glyph-name="uni208D" unicode="&#x208d;" horiz-adv-x="212" 
d="M161 -43q-37 19 -62 45t-40.5 54.5t-22 58.5t-6.5 58q0 55 30 112t102 103l37 -40q-51 -35 -75 -77.5t-24 -97.5q0 -56 27.5 -101t74.5 -74z" />
    <glyph glyph-name="uni208E" unicode="&#x208e;" horiz-adv-x="212" 
d="M51 388q37 -20 62 -45.5t40.5 -54t22 -58.5t6.5 -58q0 -55 -30 -112.5t-102 -102.5l-37 40q51 34 75 77t24 98q0 56 -27.5 100.5t-74.5 74.5z" />
    <glyph glyph-name="Euro" unicode="&#x20ac;" 
d="M44 475h74q16 52 45 95t70.5 74t94 48.5t114.5 17.5q38 0 75 -8.5t60 -20.5l-31 -73q-20 10 -47 16t-57 6q-79 0 -140 -41t-90 -114h299l-24 -65h-292q-2 -14 -3.5 -29t-1.5 -31q0 -24 3 -45h266l-21 -65h-230q29 -79 94.5 -124.5t153.5 -45.5q31 0 55.5 5t40.5 13
l14 -77q-17 -9 -50 -15t-67 -6q-63 0 -117.5 17.5t-98 49.5t-74.5 78.5t-46 104.5h-94l25 65h58q-1 11 -1.5 22t-0.5 23q0 15 1 30t3 30h-86z" />
    <glyph glyph-name="uni20B4" unicode="&#x20b4;" horiz-adv-x="600" 
d="M73 477h305q8 10 12 29t4 40q0 15 -5 30t-16 27t-28.5 19.5t-43.5 7.5q-42 0 -74.5 -13t-58.5 -39l-41 60q30 35 76.5 53.5t100.5 18.5q41 0 74 -11.5t56 -31.5t35.5 -48t12.5 -61q0 -23 -7.5 -45t-18.5 -36h71v-65h-112q-32 -32 -69 -54.5t-68 -50.5h249v-65h-308
q-13 -14 -21 -33t-8 -42q0 -24 10 -42t27.5 -30t40 -18.5t47.5 -6.5q38 0 77 16.5t68 52.5l43 -54q-32 -46 -83.5 -70.5t-116.5 -24.5q-36 0 -71 10.5t-62 31.5t-43.5 51.5t-16.5 70.5q0 25 8 47.5t22 40.5h-67v65h114q30 29 68 52.5t71 52.5h-253v65z" />
    <glyph glyph-name="uni20B6" unicode="&#x20b6;" horiz-adv-x="600" 
d="M19 373h106v327q15 0 39 0.5t50.5 0.5t51.5 0.5t42 0.5q75 0 125 -16t79.5 -43t42 -63t12.5 -77q0 -42 -15.5 -78t-46.5 -62t-78.5 -40.5t-111.5 -14.5h-105v-105h173v-65h-173v-138h-85v138h-106v65h106v105h-106v65zM316 622q-21 0 -51 -0.5t-55 -1.5v-247h102
q78 0 121.5 30.5t43.5 93.5t-38.5 94t-122.5 31z" />
    <glyph glyph-name="uni20B6" unicode="&#x20cf;" horiz-adv-x="600" 
d="M19 373h106v327q15 0 39 0.5t50.5 0.5t51.5 0.5t42 0.5q75 0 125 -16t79.5 -43t42 -63t12.5 -77q0 -42 -15.5 -78t-46.5 -62t-78.5 -40.5t-111.5 -14.5h-105v-105h173v-65h-173v-138h-85v138h-106v65h106v105h-106v65zM316 622q-21 0 -51 -0.5t-55 -1.5v-247h102
q78 0 121.5 30.5t43.5 93.5t-38.5 94t-122.5 31z" />
    <glyph glyph-name="uni20B6" unicode="&#x20ce;" horiz-adv-x="600" 
d="M19 373h106v327q15 0 39 0.5t50.5 0.5t51.5 0.5t42 0.5q75 0 125 -16t79.5 -43t42 -63t12.5 -77q0 -42 -15.5 -78t-46.5 -62t-78.5 -40.5t-111.5 -14.5h-105v-105h173v-65h-173v-138h-85v138h-106v65h106v105h-106v65zM316 622q-21 0 -51 -0.5t-55 -1.5v-247h102
q78 0 121.5 30.5t43.5 93.5t-38.5 94t-122.5 31z" />
    <glyph glyph-name="uni20B6" unicode="&#x20cd;" horiz-adv-x="600" 
d="M19 373h106v327q15 0 39 0.5t50.5 0.5t51.5 0.5t42 0.5q75 0 125 -16t79.5 -43t42 -63t12.5 -77q0 -42 -15.5 -78t-46.5 -62t-78.5 -40.5t-111.5 -14.5h-105v-105h173v-65h-173v-138h-85v138h-106v65h106v105h-106v65zM316 622q-21 0 -51 -0.5t-55 -1.5v-247h102
q78 0 121.5 30.5t43.5 93.5t-38.5 94t-122.5 31z" />
    <glyph glyph-name="uni20B6" unicode="&#x20cc;" horiz-adv-x="600" 
d="M19 373h106v327q15 0 39 0.5t50.5 0.5t51.5 0.5t42 0.5q75 0 125 -16t79.5 -43t42 -63t12.5 -77q0 -42 -15.5 -78t-46.5 -62t-78.5 -40.5t-111.5 -14.5h-105v-105h173v-65h-173v-138h-85v138h-106v65h106v105h-106v65zM316 622q-21 0 -51 -0.5t-55 -1.5v-247h102
q78 0 121.5 30.5t43.5 93.5t-38.5 94t-122.5 31z" />
    <glyph glyph-name="uni20B6" unicode="&#x20cb;" horiz-adv-x="600" 
d="M19 373h106v327q15 0 39 0.5t50.5 0.5t51.5 0.5t42 0.5q75 0 125 -16t79.5 -43t42 -63t12.5 -77q0 -42 -15.5 -78t-46.5 -62t-78.5 -40.5t-111.5 -14.5h-105v-105h173v-65h-173v-138h-85v138h-106v65h106v105h-106v65zM316 622q-21 0 -51 -0.5t-55 -1.5v-247h102
q78 0 121.5 30.5t43.5 93.5t-38.5 94t-122.5 31z" />
    <glyph glyph-name="uni20B6" unicode="&#x20ca;" horiz-adv-x="600" 
d="M19 373h106v327q15 0 39 0.5t50.5 0.5t51.5 0.5t42 0.5q75 0 125 -16t79.5 -43t42 -63t12.5 -77q0 -42 -15.5 -78t-46.5 -62t-78.5 -40.5t-111.5 -14.5h-105v-105h173v-65h-173v-138h-85v138h-106v65h106v105h-106v65zM316 622q-21 0 -51 -0.5t-55 -1.5v-247h102
q78 0 121.5 30.5t43.5 93.5t-38.5 94t-122.5 31z" />
    <glyph glyph-name="uni20B6" unicode="&#x20c9;" horiz-adv-x="600" 
d="M19 373h106v327q15 0 39 0.5t50.5 0.5t51.5 0.5t42 0.5q75 0 125 -16t79.5 -43t42 -63t12.5 -77q0 -42 -15.5 -78t-46.5 -62t-78.5 -40.5t-111.5 -14.5h-105v-105h173v-65h-173v-138h-85v138h-106v65h106v105h-106v65zM316 622q-21 0 -51 -0.5t-55 -1.5v-247h102
q78 0 121.5 30.5t43.5 93.5t-38.5 94t-122.5 31z" />
    <glyph glyph-name="uni20B6" unicode="&#x20c8;" horiz-adv-x="600" 
d="M19 373h106v327q15 0 39 0.5t50.5 0.5t51.5 0.5t42 0.5q75 0 125 -16t79.5 -43t42 -63t12.5 -77q0 -42 -15.5 -78t-46.5 -62t-78.5 -40.5t-111.5 -14.5h-105v-105h173v-65h-173v-138h-85v138h-106v65h106v105h-106v65zM316 622q-21 0 -51 -0.5t-55 -1.5v-247h102
q78 0 121.5 30.5t43.5 93.5t-38.5 94t-122.5 31z" />
    <glyph glyph-name="uni20B6" unicode="&#x20c7;" horiz-adv-x="600" 
d="M19 373h106v327q15 0 39 0.5t50.5 0.5t51.5 0.5t42 0.5q75 0 125 -16t79.5 -43t42 -63t12.5 -77q0 -42 -15.5 -78t-46.5 -62t-78.5 -40.5t-111.5 -14.5h-105v-105h173v-65h-173v-138h-85v138h-106v65h106v105h-106v65zM316 622q-21 0 -51 -0.5t-55 -1.5v-247h102
q78 0 121.5 30.5t43.5 93.5t-38.5 94t-122.5 31z" />
    <glyph glyph-name="uni20B6" unicode="&#x20c6;" horiz-adv-x="600" 
d="M19 373h106v327q15 0 39 0.5t50.5 0.5t51.5 0.5t42 0.5q75 0 125 -16t79.5 -43t42 -63t12.5 -77q0 -42 -15.5 -78t-46.5 -62t-78.5 -40.5t-111.5 -14.5h-105v-105h173v-65h-173v-138h-85v138h-106v65h106v105h-106v65zM316 622q-21 0 -51 -0.5t-55 -1.5v-247h102
q78 0 121.5 30.5t43.5 93.5t-38.5 94t-122.5 31z" />
    <glyph glyph-name="uni20B6" unicode="&#x20c5;" horiz-adv-x="600" 
d="M19 373h106v327q15 0 39 0.5t50.5 0.5t51.5 0.5t42 0.5q75 0 125 -16t79.5 -43t42 -63t12.5 -77q0 -42 -15.5 -78t-46.5 -62t-78.5 -40.5t-111.5 -14.5h-105v-105h173v-65h-173v-138h-85v138h-106v65h106v105h-106v65zM316 622q-21 0 -51 -0.5t-55 -1.5v-247h102
q78 0 121.5 30.5t43.5 93.5t-38.5 94t-122.5 31z" />
    <glyph glyph-name="uni20B6" unicode="&#x20c4;" horiz-adv-x="600" 
d="M19 373h106v327q15 0 39 0.5t50.5 0.5t51.5 0.5t42 0.5q75 0 125 -16t79.5 -43t42 -63t12.5 -77q0 -42 -15.5 -78t-46.5 -62t-78.5 -40.5t-111.5 -14.5h-105v-105h173v-65h-173v-138h-85v138h-106v65h106v105h-106v65zM316 622q-21 0 -51 -0.5t-55 -1.5v-247h102
q78 0 121.5 30.5t43.5 93.5t-38.5 94t-122.5 31z" />
    <glyph glyph-name="uni20B6" unicode="&#x20c3;" horiz-adv-x="600" 
d="M19 373h106v327q15 0 39 0.5t50.5 0.5t51.5 0.5t42 0.5q75 0 125 -16t79.5 -43t42 -63t12.5 -77q0 -42 -15.5 -78t-46.5 -62t-78.5 -40.5t-111.5 -14.5h-105v-105h173v-65h-173v-138h-85v138h-106v65h106v105h-106v65zM316 622q-21 0 -51 -0.5t-55 -1.5v-247h102
q78 0 121.5 30.5t43.5 93.5t-38.5 94t-122.5 31z" />
    <glyph glyph-name="uni20B6" unicode="&#x20c2;" horiz-adv-x="600" 
d="M19 373h106v327q15 0 39 0.5t50.5 0.5t51.5 0.5t42 0.5q75 0 125 -16t79.5 -43t42 -63t12.5 -77q0 -42 -15.5 -78t-46.5 -62t-78.5 -40.5t-111.5 -14.5h-105v-105h173v-65h-173v-138h-85v138h-106v65h106v105h-106v65zM316 622q-21 0 -51 -0.5t-55 -1.5v-247h102
q78 0 121.5 30.5t43.5 93.5t-38.5 94t-122.5 31z" />
    <glyph glyph-name="uni20B6" unicode="&#x20c1;" horiz-adv-x="600" 
d="M19 373h106v327q15 0 39 0.5t50.5 0.5t51.5 0.5t42 0.5q75 0 125 -16t79.5 -43t42 -63t12.5 -77q0 -42 -15.5 -78t-46.5 -62t-78.5 -40.5t-111.5 -14.5h-105v-105h173v-65h-173v-138h-85v138h-106v65h106v105h-106v65zM316 622q-21 0 -51 -0.5t-55 -1.5v-247h102
q78 0 121.5 30.5t43.5 93.5t-38.5 94t-122.5 31z" />
    <glyph glyph-name="uni20B6" unicode="&#x20c0;" horiz-adv-x="600" 
d="M19 373h106v327q15 0 39 0.5t50.5 0.5t51.5 0.5t42 0.5q75 0 125 -16t79.5 -43t42 -63t12.5 -77q0 -42 -15.5 -78t-46.5 -62t-78.5 -40.5t-111.5 -14.5h-105v-105h173v-65h-173v-138h-85v138h-106v65h106v105h-106v65zM316 622q-21 0 -51 -0.5t-55 -1.5v-247h102
q78 0 121.5 30.5t43.5 93.5t-38.5 94t-122.5 31z" />
    <glyph glyph-name="uni20B6" unicode="&#x20bf;" horiz-adv-x="600" 
d="M19 373h106v327q15 0 39 0.5t50.5 0.5t51.5 0.5t42 0.5q75 0 125 -16t79.5 -43t42 -63t12.5 -77q0 -42 -15.5 -78t-46.5 -62t-78.5 -40.5t-111.5 -14.5h-105v-105h173v-65h-173v-138h-85v138h-106v65h106v105h-106v65zM316 622q-21 0 -51 -0.5t-55 -1.5v-247h102
q78 0 121.5 30.5t43.5 93.5t-38.5 94t-122.5 31z" />
    <glyph glyph-name="uni20B6" unicode="&#x20be;" horiz-adv-x="600" 
d="M19 373h106v327q15 0 39 0.5t50.5 0.5t51.5 0.5t42 0.5q75 0 125 -16t79.5 -43t42 -63t12.5 -77q0 -42 -15.5 -78t-46.5 -62t-78.5 -40.5t-111.5 -14.5h-105v-105h173v-65h-173v-138h-85v138h-106v65h106v105h-106v65zM316 622q-21 0 -51 -0.5t-55 -1.5v-247h102
q78 0 121.5 30.5t43.5 93.5t-38.5 94t-122.5 31z" />
    <glyph glyph-name="uni20B6" unicode="&#x20bd;" horiz-adv-x="600" 
d="M19 373h106v327q15 0 39 0.5t50.5 0.5t51.5 0.5t42 0.5q75 0 125 -16t79.5 -43t42 -63t12.5 -77q0 -42 -15.5 -78t-46.5 -62t-78.5 -40.5t-111.5 -14.5h-105v-105h173v-65h-173v-138h-85v138h-106v65h106v105h-106v65zM316 622q-21 0 -51 -0.5t-55 -1.5v-247h102
q78 0 121.5 30.5t43.5 93.5t-38.5 94t-122.5 31z" />
    <glyph glyph-name="uni20B6" unicode="&#x20bc;" horiz-adv-x="600" 
d="M19 373h106v327q15 0 39 0.5t50.5 0.5t51.5 0.5t42 0.5q75 0 125 -16t79.5 -43t42 -63t12.5 -77q0 -42 -15.5 -78t-46.5 -62t-78.5 -40.5t-111.5 -14.5h-105v-105h173v-65h-173v-138h-85v138h-106v65h106v105h-106v65zM316 622q-21 0 -51 -0.5t-55 -1.5v-247h102
q78 0 121.5 30.5t43.5 93.5t-38.5 94t-122.5 31z" />
    <glyph glyph-name="uni20B6" unicode="&#x20bb;" horiz-adv-x="600" 
d="M19 373h106v327q15 0 39 0.5t50.5 0.5t51.5 0.5t42 0.5q75 0 125 -16t79.5 -43t42 -63t12.5 -77q0 -42 -15.5 -78t-46.5 -62t-78.5 -40.5t-111.5 -14.5h-105v-105h173v-65h-173v-138h-85v138h-106v65h106v105h-106v65zM316 622q-21 0 -51 -0.5t-55 -1.5v-247h102
q78 0 121.5 30.5t43.5 93.5t-38.5 94t-122.5 31z" />
    <glyph glyph-name="uni20B6" unicode="&#x20ba;" horiz-adv-x="600" 
d="M19 373h106v327q15 0 39 0.5t50.5 0.5t51.5 0.5t42 0.5q75 0 125 -16t79.5 -43t42 -63t12.5 -77q0 -42 -15.5 -78t-46.5 -62t-78.5 -40.5t-111.5 -14.5h-105v-105h173v-65h-173v-138h-85v138h-106v65h106v105h-106v65zM316 622q-21 0 -51 -0.5t-55 -1.5v-247h102
q78 0 121.5 30.5t43.5 93.5t-38.5 94t-122.5 31z" />
    <glyph glyph-name="uni20B6" unicode="&#x20b9;" horiz-adv-x="600" 
d="M19 373h106v327q15 0 39 0.5t50.5 0.5t51.5 0.5t42 0.5q75 0 125 -16t79.5 -43t42 -63t12.5 -77q0 -42 -15.5 -78t-46.5 -62t-78.5 -40.5t-111.5 -14.5h-105v-105h173v-65h-173v-138h-85v138h-106v65h106v105h-106v65zM316 622q-21 0 -51 -0.5t-55 -1.5v-247h102
q78 0 121.5 30.5t43.5 93.5t-38.5 94t-122.5 31z" />
    <glyph glyph-name="uni20B6" unicode="&#x20b7;" horiz-adv-x="600" 
d="M19 373h106v327q15 0 39 0.5t50.5 0.5t51.5 0.5t42 0.5q75 0 125 -16t79.5 -43t42 -63t12.5 -77q0 -42 -15.5 -78t-46.5 -62t-78.5 -40.5t-111.5 -14.5h-105v-105h173v-65h-173v-138h-85v138h-106v65h106v105h-106v65zM316 622q-21 0 -51 -0.5t-55 -1.5v-247h102
q78 0 121.5 30.5t43.5 93.5t-38.5 94t-122.5 31z" />
    <glyph glyph-name="afii61352" unicode="&#x2116;" horiz-adv-x="1176" 
d="M602 0l-417 550v-550h-80v700h68l417 -552v552h80v-700h-68zM740 489q0 38 14 69t38.5 53.5t58 34.5t72.5 12t72.5 -12t58 -34.5t38.5 -53.5t14 -69t-14 -69t-38.5 -53.5t-58 -35t-72.5 -12.5t-72.5 12.5t-58 35t-38.5 53.5t-14 69zM815 489q0 -24 9 -43.5t24 -33
t34.5 -21t40.5 -7.5q22 0 41.5 7.5t34.5 21t23.5 33t8.5 43.5t-8.5 43t-23.5 32.5t-34.5 21t-41.5 7.5q-45 0 -76.5 -28t-31.5 -76zM775 260h296v-75h-296v75z" />
    <glyph glyph-name="trademark" unicode="&#x2122;" horiz-adv-x="847" 
d="M380 700h69l133 -140l126 140h66v-315h-75v219l-119 -132h-2l-122 132v-219h-76v315zM15 700h318v-73h-122v-242h-75v242h-121v73z" />
    <glyph glyph-name="arrowleft" unicode="&#x2190;" horiz-adv-x="643" 
d="M379 499l-186 -186h410v-80h-411l187 -187l-56 -56l-283 283l283 282z" />
    <glyph glyph-name="arrowup" unicode="&#x2191;" horiz-adv-x="645" 
d="M40 280l282 283l283 -283l-56 -57l-187 187v-410h-80v409l-186 -186z" />
    <glyph glyph-name="arrowright" unicode="&#x2192;" horiz-adv-x="643" 
d="M320 555l283 -282l-283 -283l-57 56l187 187h-410v80h409l-186 186z" />
    <glyph glyph-name="arrowdown" unicode="&#x2193;" horiz-adv-x="645" 
d="M96 319l186 -186v410h80v-411l187 187l56 -56l-283 -283l-282 283z" />
    <glyph glyph-name="partialdiff" unicode="&#x2202;" horiz-adv-x="588" 
d="M42 202q0 52 18 98.5t51 82t78.5 56.5t100.5 21q35 0 63 -8.5t49 -21.5t35.5 -29t22.5 -32q0 54 -15 101t-46.5 83t-80.5 58t-118 27l12 72q159 -6 246 -96t87 -249q0 -73 -18 -141t-54 -120t-89.5 -83t-123.5 -31q-49 0 -89.5 16t-69 44.5t-44 67.5t-15.5 84zM127 209
q0 -29 10 -55.5t28.5 -46t44.5 -31t59 -11.5q41 0 73.5 19.5t56 51t37.5 72t18 83.5q-22 37 -60 65.5t-100 28.5q-36 0 -66.5 -14t-53 -38t-35 -56t-12.5 -68z" />
    <glyph glyph-name="product" unicode="&#x220f;" horiz-adv-x="880" 
d="M690 620h-500v-820h-85v900h670v-900h-85v820z" />
    <glyph glyph-name="summation" unicode="&#x2211;" horiz-adv-x="635" 
d="M40 643v57h555v-80h-435l278 -370l-283 -370h440v-80h-555v57l300 393z" />
    <glyph glyph-name="minus" unicode="&#x2212;" 
d="M69 395h454v-70h-454v70z" />
    <glyph glyph-name="uni2215" unicode="&#x2215;" horiz-adv-x="335" 
d="M303 710l62 -23l-332 -895l-63 23z" />
    <glyph glyph-name="radical" unicode="&#x221a;" horiz-adv-x="603" 
d="M5 450h161l168 -315l131 565h278v-80h-208l-148 -624h-68l-208 374h-106v80z" />
    <glyph glyph-name="infinity" unicode="&#x221e;" horiz-adv-x="746" 
d="M547 183q-30 0 -55 8.5t-46 22.5t-39.5 32.5t-34.5 38.5q-15 -20 -31.5 -38.5t-36.5 -32.5t-44 -22.5t-53 -8.5t-57 11t-50 31t-36 49.5t-14 66.5q0 31 11.5 60t32.5 51.5t50.5 35.5t65.5 13q27 0 50 -8.5t42.5 -23t36.5 -33.5t33 -39q15 20 31.5 39t37 33.5t46.5 23
t59 8.5q34 0 62 -12.5t47.5 -34t30 -51.5t10.5 -66q0 -29 -10 -56.5t-29 -49.5t-47 -35t-63 -13zM532 431q-39 0 -66.5 -26t-53.5 -62q28 -37 58 -63.5t69 -26.5q20 0 35 7.5t25.5 19.5t16 27.5t5.5 31.5q0 37 -22.5 64.5t-66.5 27.5zM215 253q40 0 67 24.5t50 59.5
q-28 38 -55 66t-61 28q-42 0 -66.5 -26.5t-24.5 -63.5q0 -21 8 -37.5t21 -28t29 -17t32 -5.5z" />
    <glyph glyph-name="integral" unicode="&#x222b;" horiz-adv-x="330" 
d="M162 -17q0 -82 -25 -132t-94 -57q-11 -2 -23 -1.5t-24 1.5q-24 2 -44 10t-31 17l22 64q12 -8 27 -13t32 -5q48 0 64 33.5t16 87.5v535q0 86 35.5 132t99.5 52q24 3 49 0q33 -3 56.5 -13.5t37.5 -23.5l-28 -61q-12 9 -26.5 15.5t-37.5 8.5q-15 1 -29 -1t-25 -7
q-23 -10 -37.5 -36.5t-14.5 -74.5v-531v0z" />
    <glyph glyph-name="approxequal" unicode="&#x2248;" 
d="M50 268q32 34 67 53t69 19q31 0 60 -11t57.5 -24.5t57 -24.5t57.5 -11q23 0 47 12.5t44 32.5l32 -55q-29 -27 -60.5 -43.5t-63.5 -16.5q-30 0 -59 11t-57 24.5t-56 24.5t-55 11q-29 0 -55.5 -16t-48.5 -37zM50 448q32 34 67 53t69 19q31 0 60 -11t57.5 -24.5t57 -24.5
t57.5 -11q23 0 47 12.5t44 32.5l32 -55q-29 -27 -60.5 -43.5t-63.5 -16.5q-30 0 -59 11t-57 24.5t-56 24.5t-55 11q-29 0 -55.5 -16t-48.5 -37z" />
    <glyph glyph-name="notequal" unicode="&#x2260;" 
d="M69 485h235l84 225l62 -23l-75 -202h148v-70h-174l-41 -110h215v-70h-241l-91 -245l-63 23l83 222h-142v70h168l41 110h-209v70z" />
    <glyph glyph-name="lessequal" unicode="&#x2264;" 
d="M57 329l440 -263v-77l-440 266v74zM57 435v34l440 264v-87l-329 -194l329 -196v-87z" />
    <glyph glyph-name="greaterequal" unicode="&#x2265;" 
d="M534 255l-439 -266v77l439 263v-74zM95 169v87l329 196l-329 194v87l439 -264v-34z" />
    <glyph glyph-name="lozenge" unicode="&#x25ca;" horiz-adv-x="478" 
d="M40 249l168 267h63l167 -256l-168 -264h-63zM239 71l118 189l-118 177l-118 -187z" />
    <glyph glyph-name="spade" unicode="&#x2660;" horiz-adv-x="632" 
d="M316 510q39 -25 84 -64t83.5 -82.5t63.5 -87t25 -77.5q0 -19 -7 -37.5t-21 -33.5t-36 -24t-53 -9q-48 0 -79 21.5t-52 50.5q13 -54 37 -96.5t70 -70.5h-230q38 27 64 68.5t41 95.5q-21 -29 -52 -49t-77 -20q-31 0 -53 9t-36.5 24t-21 33.5t-6.5 38.5q0 34 25 77
t63.5 86.5t83.5 82.5t84 64z" />
    <glyph glyph-name="club" unicode="&#x2663;" horiz-adv-x="612" 
d="M177 381q0 27 10 50.5t27.5 41t41 27.5t50.5 10t50.5 -10t41 -27.5t27.5 -41t10 -50.5q0 -5 -0.5 -9.5t-1.5 -9.5q25 -2 46.5 -13t37.5 -28t25.5 -39.5t9.5 -47.5q0 -27 -10 -50.5t-27.5 -41t-41 -27.5t-50.5 -10q-32 0 -59.5 14.5t-44.5 38.5q13 -48 36.5 -90t65.5 -68
h-230q35 24 60 67t40 89q-17 -22 -44.5 -36.5t-57.5 -14.5q-27 0 -50.5 10t-41 27.5t-27.5 41t-10 50.5q0 25 9 47.5t25 39.5t37.5 28t46.5 13q-1 5 -1 9.5v9.5z" />
    <glyph glyph-name="heart" unicode="&#x2665;" horiz-adv-x="649" 
d="M325 0q-41 31 -87.5 77t-86 97t-65.5 102.5t-26 93.5q0 24 7 47.5t21.5 41.5t37.5 29.5t55 11.5q27 0 48.5 -8.5t39 -23t31.5 -33.5t25 -39q10 20 24 39t31.5 33.5t39 23t48.5 8.5q32 0 55 -11.5t37.5 -29.5t21.5 -41t7 -47q0 -42 -26 -93.5t-65.5 -103t-86 -97.5
t-86.5 -77z" />
    <glyph glyph-name="diamond" unicode="&#x2666;" horiz-adv-x="583" 
d="M523 249q-64 -64 -121 -131t-111 -137q-103 136 -231 268q64 67 120.5 134t110.5 135q55 -70 112 -137t120 -132z" />
    <glyph glyph-name="uniF350" unicode="&#xf350;" horiz-adv-x="590" 
d="M258 528h74l246 -528h-91l-64 140h-261l-64 -140h-86zM198 220h189l-94 206z" />
    <glyph glyph-name="uniF351" unicode="&#xf351;" horiz-adv-x="521" 
d="M84 525h347v-80h-262v-125q19 2 45.5 3t46.5 1q99 0 151.5 -40.5t52.5 -116.5q0 -88 -58 -129.5t-164 -41.5q-48 0 -90.5 2t-68.5 2v525zM252 245q-17 0 -39.5 -1t-43.5 -3v-162q19 -1 39 -2t44 -1q67 0 97.5 22.5t30.5 64.5q0 39 -30 60.5t-98 21.5z" />
    <glyph glyph-name="uniF352" unicode="&#xf352;" horiz-adv-x="524" 
d="M84 524q12 0 33.5 1t46 1.5t50.5 1t47 0.5q52 0 87.5 -10t58 -28t32.5 -41.5t10 -50.5q0 -48 -27 -79.5t-70 -43.5v-1q56 -8 86 -37.5t30 -83.5q0 -41 -16 -70t-44.5 -48.5t-67.5 -28.5t-84 -9q-20 0 -44.5 0.5t-48.5 1t-45 1t-34 1.5v523zM169 228v-147q6 -1 17 -1.5
t24 -1t26.5 -1t25.5 -0.5q58 0 89.5 19t31.5 60q0 35 -30 53.5t-86 18.5h-98zM260 448q-10 0 -23 -0.5t-25.5 -1t-24 -1t-18.5 -0.5v-142h96q41 0 70 19t29 54t-25 53.5t-79 18.5z" />
    <glyph glyph-name="uniF353" unicode="&#xf353;" horiz-adv-x="427" 
d="M84 525h333v-80h-248v-445h-85v525z" />
    <glyph glyph-name="uniF354" unicode="&#xf354;" horiz-adv-x="621" 
d="M11 80h63q9 10 23 36t27.5 68.5t25 101.5t15.5 134l6 105h349v-445h78v-175h-80v95h-427v-95h-80v175zM245 362q-5 -62 -15 -110.5t-21.5 -84t-22.5 -57t-19 -30.5h268v365h-182z" />
    <glyph glyph-name="uniF355" unicode="&#xf355;" horiz-adv-x="488" 
d="M84 525h340v-80h-255v-140h230v-80h-230v-145h263v-80h-348v525z" />
    <glyph glyph-name="uniF356" unicode="&#xf356;" horiz-adv-x="784" 
d="M537 276l231 -276h-103l-223 274l214 251h104zM350 525h85v-525h-85v525zM24 525h104l215 -251l-224 -274h-104l232 274z" />
    <glyph glyph-name="uniF357" unicode="&#xf357;" horiz-adv-x="495" 
d="M234 -9q-36 0 -68 7.5t-58.5 20t-46 28t-30.5 31.5l47 57q27 -29 68 -46.5t88 -17.5q57 0 88.5 22t31.5 61q0 33 -26 53t-82 20h-78v80h74q17 0 33 5.5t28.5 15t20 23t7.5 29.5q0 36 -26 54t-68 18q-89 0 -140 -57l-49 57q29 35 78 57.5t113 22.5q38 0 70.5 -9.5
t56 -27.5t37 -45t13.5 -61q0 -36 -18.5 -68.5t-56.5 -47.5v-3q49 -8 73.5 -43.5t24.5 -80.5q0 -36 -15 -65t-42.5 -49t-65 -30.5t-82.5 -10.5z" />
    <glyph glyph-name="uniF358" unicode="&#xf358;" horiz-adv-x="656" 
d="M84 0v525h85v-390l328 390h75v-525h-85v390l-328 -390h-75z" />
    <glyph glyph-name="uniF359" unicode="&#xf359;" horiz-adv-x="656" 
d="M84 0v525h85v-390l328 390h75v-525h-85v390l-328 -390h-75zM250 680q0 -33 20.5 -49t56.5 -16q33 0 53 16t20 49h75q0 -60 -40 -92.5t-108 -32.5q-75 0 -113.5 32.5t-38.5 92.5h75z" />
    <glyph glyph-name="uniF35A" unicode="&#xf35a;" horiz-adv-x="554" 
d="M280 280l259 -280h-116l-247 274l239 251h111zM84 525h85v-525h-85v525z" />
    <glyph glyph-name="uniF35B" unicode="&#xf35b;" horiz-adv-x="601" 
d="M432 445h-192l-10 -99q-12 -117 -32 -187.5t-47 -107.5t-60.5 -46.5t-71.5 -4.5l2 82q16 -2 35 5.5t37.5 41t34.5 102t26 189.5l8 105h355v-525h-85v445z" />
    <glyph glyph-name="uniF35C" unicode="&#xf35c;" horiz-adv-x="740" 
d="M84 525h86l207 -251l198 251h81v-525h-85v396l-194 -240h-12l-196 237v-393h-85v525z" />
    <glyph glyph-name="uniF35D" unicode="&#xf35d;" horiz-adv-x="640" 
d="M471 228h-302v-228h-85v525h85v-217h302v217h85v-525h-85v228z" />
    <glyph glyph-name="uniF35E" unicode="&#xf35e;" horiz-adv-x="655" 
d="M40 262q0 57 21 106.5t59 85.5t91 57t117 21q61 0 114 -19.5t91 -55t60 -85t22 -110.5q0 -59 -22 -109t-60 -86t-91 -56t-114 -20q-62 0 -114.5 19.5t-91 55t-60.5 85.5t-22 111zM130 262q0 -41 15.5 -76t42 -60.5t62.5 -40t78 -14.5q46 0 82.5 14.5t62 40.5t39 60.5
t13.5 75.5q0 42 -15 77t-41.5 60t-62.5 39t-78 14t-78.5 -14t-63 -39t-41.5 -60t-15 -77z" />
    <glyph glyph-name="uniF35F" unicode="&#xf35f;" horiz-adv-x="639" 
d="M470 445h-301v-445h-85v525h471v-525h-85v445z" />
    <glyph glyph-name="uniF360" unicode="&#xf360;" horiz-adv-x="499" 
d="M84 0v525q12 0 32.5 0.5t43.5 0.5t45 0.5t36 0.5q63 0 104.5 -14.5t67 -38.5t36 -56t10.5 -66q0 -36 -13 -68.5t-39.5 -56.5t-65.5 -38t-91 -14q-15 0 -38 0.5t-43 2.5v-178h-85zM249 447q-17 0 -40 -0.5t-40 -1.5v-186q20 -2 39 -3t39 -1q59 0 90.5 26t31.5 71
q0 43 -28 69t-92 26z" />
    <glyph glyph-name="uniF361" unicode="&#xf361;" horiz-adv-x="542" 
d="M514 50q-28 -27 -78 -43t-105 -16q-66 0 -119.5 19.5t-91.5 54.5t-59 85t-21 112q0 55 18.5 104t55 86t90 58.5t123.5 21.5q57 0 101.5 -14.5t74.5 -37.5l-39 -64q-28 17 -60 26.5t-77 9.5q-44 0 -80 -13.5t-62 -38t-40.5 -60t-14.5 -78.5t15 -78t42 -60t65.5 -39
t86.5 -14q39 0 76 11t66 32z" />
    <glyph glyph-name="uniF362" unicode="&#xf362;" horiz-adv-x="492" 
d="M8 525h476v-80h-196v-445h-85v445h-195v80z" />
    <glyph glyph-name="uniF363" unicode="&#xf363;" horiz-adv-x="546" 
d="M339 124q-30 -61 -65.5 -92.5t-86.5 -31.5q-21 0 -39.5 6t-29.5 14l30 72q11 -7 21 -10t22 -3q23 0 37 15t24 33l10 18l-251 380h106l189 -296l143 296h87z" />
    <glyph glyph-name="uniF364" unicode="&#xf364;" horiz-adv-x="690" 
d="M301 54q-60 0 -110 14.5t-85.5 42t-55 67.5t-19.5 92q0 51 19.5 91t55 67.5t85.5 42t110 15.5v45h85v-45q61 0 111.5 -14.5t86.5 -41.5t55.5 -67.5t19.5 -92.5q0 -51 -20 -91.5t-56 -68t-86 -42t-110 -14.5h-1v-60h-85v60zM569 270q0 58 -46.5 97.5t-136.5 40.5v-277
q88 0 135.5 37.5t47.5 101.5zM121 270q0 -63 47.5 -101t132.5 -38v277q-44 0 -77.5 -11t-56 -30t-34.5 -44t-12 -53z" />
    <glyph glyph-name="uniF365" unicode="&#xf365;" horiz-adv-x="550" 
d="M330 267l207 -267h-105l-158 202l-156 -202h-106l207 267l-198 258h106l149 -194l148 194h105z" />
    <glyph glyph-name="uniF366" unicode="&#xf366;" horiz-adv-x="648" 
d="M84 525h85v-445h292v445h85v-445h79v-175h-80v95h-461v525z" />
    <glyph glyph-name="uniF367" unicode="&#xf367;" horiz-adv-x="548" 
d="M464 0h-85v219q-22 -14 -59.5 -25.5t-86.5 -11.5q-33 0 -65.5 8.5t-57.5 28.5t-40.5 51.5t-15.5 78.5v176h85v-146q0 -63 31 -90t81 -27q42 0 73.5 10.5t54.5 24.5v228h85v-525z" />
    <glyph glyph-name="uniF368" unicode="&#xf368;" horiz-adv-x="822" 
d="M84 525h85v-445h199v445h85v-445h200v445h85v-525h-654v525z" />
    <glyph glyph-name="uniF369" unicode="&#xf369;" horiz-adv-x="840" 
d="M84 525h85v-445h199v445h85v-445h200v445h85v-445h79v-175h-80v95h-653v525z" />
    <glyph glyph-name="uniF36A" unicode="&#xf36a;" horiz-adv-x="553" 
d="M5 525h217v-183q22 2 41 2.5t33 0.5q113 0 165.5 -45t52.5 -123q0 -84 -61.5 -131.5t-174.5 -47.5q-40 0 -77.5 1t-63.5 1v445h-132v80zM290 265q-29 0 -68 -3v-182q16 -1 34 -1.5t37 -0.5q60 0 95.5 23t35.5 74q0 45 -34.5 67.5t-99.5 22.5z" />
    <glyph glyph-name="uniF36B" unicode="&#xf36b;" horiz-adv-x="706" 
d="M537 525h85v-525h-85v525zM233 265q-25 0 -64 -3v-182q15 -1 30 -1.5t32 -0.5q64 0 97.5 24t33.5 73q0 45 -33 67.5t-96 22.5zM169 342q42 3 71 3q108 0 160 -45.5t52 -122.5q0 -84 -61 -131.5t-170 -47.5q-39 0 -75 1t-62 1v525h85v-183z" />
    <glyph glyph-name="uniF36C" unicode="&#xf36c;" horiz-adv-x="500" 
d="M236 265q-28 0 -67 -3v-182q15 -1 31.5 -1.5t33.5 -0.5q64 0 100.5 23t36.5 74q0 45 -34.5 67.5t-100.5 22.5zM169 342q21 2 40.5 2.5t33.5 0.5q112 0 165 -45t53 -123q0 -84 -62 -131.5t-175 -47.5q-39 0 -76.5 1t-63.5 1v525h85v-183z" />
    <glyph glyph-name="uniF36D" unicode="&#xf36d;" horiz-adv-x="557" 
d="M157 308h272q-14 70 -66.5 107.5t-138.5 37.5q-49 0 -87.5 -9.5t-69.5 -31.5l-34 64q32 24 82 40.5t113 16.5q64 0 117 -19t91.5 -54.5t60 -85.5t21.5 -111t-21 -111t-60 -85.5t-94.5 -55t-123.5 -19.5q-60 0 -110.5 15t-82.5 40l37 71q29 -20 70 -33t96 -13
q82 0 136 39.5t65 116.5h-273v80z" />
    <glyph glyph-name="uniF36E" unicode="&#xf36e;" horiz-adv-x="871" 
d="M84 525h85v-217h112q7 48 28.5 89.5t56.5 71.5t82 47t104 17q64 0 115.5 -19.5t88 -55t56 -85t19.5 -110.5q0 -59 -19.5 -109t-56 -86t-88 -56t-115.5 -20q-55 0 -102.5 17t-83 47.5t-58 74t-28.5 97.5h-111v-228h-85v525zM368 263q0 -41 13.5 -76t38 -60.5t58.5 -40
t76 -14.5q44 0 79 14.5t59 40.5t36.5 60.5t12.5 75.5q0 42 -13.5 77t-38 60t-59 39t-76.5 14q-41 0 -75 -14t-59 -39t-38.5 -60t-13.5 -77z" />
    <glyph glyph-name="uniF36F" unicode="&#xf36f;" horiz-adv-x="534" 
d="M365 180h-112l-134 -180h-101l149 197q-21 9 -39.5 23t-32.5 33t-22.5 42t-8.5 50q0 36 13 69.5t40.5 58.5t70.5 40t102 15q44 0 89 -1.5t71 -1.5v-525h-85v180zM365 260v185q-13 1 -36.5 2t-46.5 1q-65 0 -96.5 -28t-31.5 -70q0 -18 7.5 -33.5t20.5 -27t29 -19t34 -10.5
h120z" />
    <glyph glyph-name="uniF371" unicode="&#xf371;" horiz-adv-x="488" 
d="M84 525h340v-80h-255v-140h230v-80h-230v-145h263v-80h-348v525zM119 654q0 20 14 31.5t34 11.5q16 0 29.5 -11.5t13.5 -31.5q0 -22 -13.5 -34t-29.5 -12q-20 0 -34 12t-14 34zM297 654q0 20 14 31.5t32 11.5q17 0 30.5 -11.5t13.5 -31.5q0 -22 -13.5 -34t-30.5 -12
q-18 0 -32 12t-14 34z" />
    <glyph glyph-name="uniF372" unicode="&#xf372;" horiz-adv-x="630" 
d="M590 158q0 -87 -40 -126.5t-105 -39.5q-32 0 -57.5 10.5t-34.5 20.5l28 65q10 -7 24.5 -11.5t28.5 -4.5q32 0 51.5 18.5t19.5 63.5q0 46 -26.5 67t-76.5 21q-41 0 -67.5 -11.5t-46.5 -22.5v-208h-85v445h-195v80h476v-80h-196v-155q24 11 54 21.5t76 10.5q36 0 67.5 -9
t54.5 -28.5t36.5 -50.5t13.5 -76z" />
    <glyph glyph-name="uniF373" unicode="&#xf373;" horiz-adv-x="427" 
d="M84 525h333v-80h-248v-445h-85v525zM227 580l-40 44l126 142l49 -61z" />
    <glyph glyph-name="uniF374" unicode="&#xf374;" horiz-adv-x="558" 
d="M401 226h-274q12 -77 71 -115.5t143 -38.5q52 0 90.5 13t68.5 33l32 -71q-32 -25 -81 -40t-109 -15q-68 0 -124 19t-95.5 54t-61 85t-21.5 113q0 60 21.5 109.5t59.5 85.5t91.5 55.5t117.5 19.5q63 0 113 -16.5t81 -40.5l-38 -64q-31 22 -73.5 31.5t-79.5 9.5
q-94 0 -144 -39t-61 -108h273v-80z" />
    <glyph glyph-name="uniF375" unicode="&#xf375;" horiz-adv-x="485" 
d="M355 143q0 27 -22.5 43.5t-56 29t-72.5 24.5t-72.5 30t-56 46t-22.5 73q0 29 11.5 55t35.5 45.5t61.5 31t90.5 11.5q23 0 49.5 -5t51.5 -14t46.5 -21t35.5 -27l-39 -63q-14 12 -32.5 21t-38.5 15.5t-40 10t-37 3.5q-49 0 -77 -17.5t-28 -49.5q0 -26 22.5 -41.5t56 -27
t72.5 -23.5t72.5 -30.5t56 -48t22.5 -76.5q0 -33 -15 -60.5t-41.5 -46.5t-62.5 -29.5t-78 -10.5q-32 0 -64 6t-60.5 16.5t-51.5 26t-38 34.5l49 58q13 -13 32.5 -24t42 -19.5t47 -13t48.5 -4.5q20 0 38.5 4.5t32.5 13.5t22.5 22.5t8.5 31.5z" />
    <glyph glyph-name="uniF376" unicode="&#xf376;" horiz-adv-x="281" 
d="M98 525h85v-525h-85v525z" />
    <glyph glyph-name="uniF377" unicode="&#xf377;" horiz-adv-x="297" 
d="M38 653q0 19 12.5 30.5t30.5 11.5q15 0 27.5 -11.5t12.5 -30.5q0 -20 -12.5 -32t-27.5 -12q-18 0 -30.5 12t-12.5 32zM177 653q0 19 13 30.5t31 11.5q15 0 27.5 -11.5t12.5 -30.5q0 -20 -12.5 -32t-27.5 -12q-18 0 -31 12t-13 32zM106 525h85v-525h-85v525z" />
    <glyph glyph-name="uniF378" unicode="&#xf378;" horiz-adv-x="315" 
d="M231 123q0 -63 -31.5 -97t-100.5 -34q-31 0 -56.5 10t-36.5 21l29 65q10 -7 24 -11.5t28 -4.5q34 0 46.5 18t12.5 47v388h85v-402z" />
    <glyph glyph-name="uniF379" unicode="&#xf379;" horiz-adv-x="839" 
d="M432 445h-190l-11 -99q-13 -117 -33.5 -187.5t-47.5 -107.5t-60 -46.5t-71 -4.5l2 85q16 -2 35 5t37.5 40t34.5 101t26 189l8 105h355v-183q42 3 70 3q108 0 160 -45.5t52 -122.5q0 -85 -60.5 -132t-170.5 -47q-39 0 -75 1t-61 1v445zM580 265q-26 0 -63 -3v-182
q14 -1 29 -1.5t32 -0.5q64 0 97.5 24t33.5 73q0 45 -33 67.5t-96 22.5z" />
    <glyph glyph-name="uniF37A" unicode="&#xf37a;" horiz-adv-x="870" 
d="M84 525h85v-200h294v200h85v-196q42 3 70 3q109 0 161 -44t52 -117q0 -80 -61 -126.5t-170 -46.5q-39 0 -75.5 1t-61.5 1v245h-294v-245h-85v525zM548 80q15 -1 29.5 -1.5t32.5 -0.5q64 0 97.5 23t33.5 68q0 40 -33.5 62t-95.5 22q-14 0 -29 -1t-35 -3v-169z" />
    <glyph glyph-name="uniF37B" unicode="&#xf37b;" horiz-adv-x="630" 
d="M8 525h476v-80h-196v-161q22 14 56 23.5t76 9.5q33 0 64 -8.5t54.5 -28.5t37.5 -52t14 -79v-149h-85v126q0 60 -28 85.5t-76 25.5q-38 0 -65.5 -9t-47.5 -22v-206h-85v445h-195v80z" />
    <glyph glyph-name="uniF37C" unicode="&#xf37c;" horiz-adv-x="554" 
d="M280 280l259 -280h-116l-247 274l239 251h111zM84 525h85v-525h-85v525zM257 580l-40 44l126 142l49 -61z" />
    <glyph glyph-name="uniF37E" unicode="&#xf37e;" horiz-adv-x="546" 
d="M339 124q-30 -61 -65.5 -92.5t-86.5 -31.5q-21 0 -39.5 6t-29.5 14l30 72q11 -7 21 -10t22 -3q23 0 37 15t24 33l10 18l-251 380h106l189 -296l143 296h87zM203 680q0 -33 20.5 -49t56.5 -16q33 0 53 16t20 49h75q0 -60 -40 -92.5t-108 -32.5q-75 0 -113.5 32.5
t-38.5 92.5h75z" />
    <glyph glyph-name="uniF37F" unicode="&#xf37f;" horiz-adv-x="631" 
d="M84 525h85v-445h293v445h85v-525h-192v-115h-80v115h-191v525z" />
    <glyph glyph-name="uniF381" unicode="&#xf381;" horiz-adv-x="515" 
d="M5 457h94v68h85v-68h130v-70h-130v-65q21 2 40.5 2.5t33.5 0.5q112 0 165 -40t53 -118q0 -84 -62 -126.5t-175 -42.5q-39 0 -76.5 1t-63.5 1v387h-94v70zM251 250q-28 0 -67 -3v-172q15 -1 31.5 -1.5t33.5 -0.5q64 0 100.5 22t36.5 70q0 43 -34.5 64t-100.5 21z" />
    <glyph glyph-name="uniF389" unicode="&#xf389;" horiz-adv-x="655" 
d="M40 262q0 57 21 106.5t59 85.5t91 57t117 21q61 0 114 -19.5t91 -55t60 -85t22 -110.5q0 -59 -22 -109t-60 -86t-91 -56t-114 -20q-62 0 -114.5 19.5t-91 55t-60.5 85.5t-22 111zM224 268q-26 0 -48.5 -10t-43.5 -29q6 -35 23.5 -64t43 -50t58.5 -32.5t71 -11.5
q76 0 126 39t65 100q-40 -28 -83 -28q-32 0 -59 13.5t-52.5 29.5t-50 29.5t-50.5 13.5zM443 257q20 0 41 8.5t39 24.5q-5 36 -22 66t-43 51.5t-59 33t-71 11.5q-72 0 -123.5 -38t-68.5 -101q22 15 45 22.5t44 7.5q34 0 61.5 -13.5t53 -29.5t50.5 -29.5t53 -13.5z" />
    <glyph glyph-name="uniF38A" unicode="&#xf38a;" horiz-adv-x="541" 
d="M306 -2h-64l-241 527h96l180 -410l108 290q15 42 31.5 69t37 41t46.5 16t61 -7v-69q-36 11 -60.5 -10.5t-45.5 -75.5z" />
    <glyph glyph-name="uniF393" unicode="&#xf393;" horiz-adv-x="432" 
d="M84 525h258v90h80v-170h-253v-445h-85v525z" />
    <glyph glyph-name="uniF3CF" unicode="&#xf3cf;" horiz-adv-x="976" 
d="M487 0l-323 386v-386h-80v525h68l323 -387v387h80v-525h-68zM607 367q0 30 11.5 54t32.5 41.5t49.5 27t62.5 9.5t63 -9.5t50 -27t32.5 -41.5t11.5 -54t-11.5 -54.5t-32.5 -42t-50 -27t-63 -9.5t-62.5 9.5t-49.5 27t-32.5 42t-11.5 54.5zM682 367q0 -32 24 -50t57 -18
q35 0 58.5 18t23.5 50q0 31 -24 49t-58 18t-57.5 -18t-23.5 -49zM637 191h253v-75h-253v75z" />
    <glyph glyph-name="uniF3D0" unicode="&#xf3d0;" horiz-adv-x="420" 
d="M135 680q0 -33 20.5 -49t56.5 -16q33 0 53 16t20 49h75q0 -60 -40 -92.5t-108 -32.5q-75 0 -113.5 32.5t-38.5 92.5h75z" />
    <glyph glyph-name="uniF400" unicode="&#xf400;" horiz-adv-x="0" 
d="M-273 531l-48 34l106 157l62 -48z" />
    <glyph glyph-name="uniF401" unicode="&#xf401;" horiz-adv-x="0" 
d="M-471 735l-23 48l195 104l30 -68z" />
    <glyph glyph-name="uniF406" unicode="&#xf406;" horiz-adv-x="470" 
d="M96 880q9 -10 21.5 -21.5t30 -21t40 -16t51.5 -6.5q50 0 85 20.5t55 44.5l31 -42q-12 -18 -29 -35t-39 -29.5t-48 -20.5t-55 -8q-33 0 -62 9t-51.5 23t-39.5 30t-26 31z" />
    <glyph glyph-name="uniF407" unicode="&#xf407;" horiz-adv-x="361" 
d="M86 -127q15 -11 35.5 -19.5t38.5 -8.5q24 0 40 9.5t16 26.5q0 18 -13 28.5t-45 10.5h-6v80h43v-43q56 -3 81 -24t25 -56q0 -36 -32.5 -59t-90.5 -23q-45 0 -72.5 12t-45.5 24z" />
    <glyph glyph-name="uniF408" unicode="&#xf408;" horiz-adv-x="469" 
d="M231 882h4l174 -103l-33 -46l-143 76l-144 -76l-29 45z" />
    <glyph glyph-name="uniF409" unicode="&#xf409;" horiz-adv-x="246" 
d="M157 -46q12 -3 20.5 -15.5t8.5 -33.5q0 -24 -9 -42.5t-23.5 -32t-33 -22t-37.5 -12.5l-23 36q25 10 35.5 25t10.5 37q0 17 -6.5 26.5t-17.5 14.5z" />
    <glyph glyph-name="uniF40A" unicode="&#xf40a;" horiz-adv-x="242" 
d="M153 758q13 -14 21 -36t8 -46q0 -30 -7.5 -53.5t-19.5 -42t-27.5 -31.5t-30.5 -22l-37 35q23 17 35 42.5t12 54.5q0 19 -6 34.5t-15 24.5z" />
    <glyph glyph-name="uniF40B" unicode="&#xf40b;" horiz-adv-x="231" 
d="M60 817q0 24 17 37.5t40 13.5q21 0 37.5 -13.5t16.5 -37.5q0 -26 -16.5 -40t-37.5 -14q-23 0 -40 14t-17 40z" />
    <glyph glyph-name="uniF40C" unicode="&#xf40c;" horiz-adv-x="370" 
d="M60 792q0 25 10 43t26.5 30t39 17.5t48.5 5.5t49 -5.5t40 -17.5t27 -30t10 -43t-10 -43.5t-27 -31t-40 -19t-49 -6.5q-51 0 -87.5 25t-36.5 75zM120 792q0 -28 18.5 -41.5t46.5 -13.5q27 0 46 13.5t19 41.5q0 27 -19 39t-46 12q-28 0 -46.5 -12t-18.5 -39z" />
    <glyph glyph-name="uniF40D" unicode="&#xf40d;" horiz-adv-x="467" 
d="M60 811q21 23 47.5 35t52.5 12q22 0 41 -6.5t36.5 -14t35 -13.5t37.5 -6q17 0 36.5 6t38.5 26l22 -50q-21 -28 -46.5 -40t-55.5 -12q-20 0 -38.5 6t-37 13.5t-37.5 14t-40 6.5q-33 0 -66 -27z" />
    <glyph glyph-name="uniF40E" unicode="&#xf40e;" horiz-adv-x="328" 
d="M268 -175q-13 -11 -36.5 -18t-49.5 -7q-22 0 -43.5 4.5t-39 15.5t-28.5 28.5t-11 43.5q0 31 18 54.5t47 39t64 23t70 7.5v-16q-23 0 -44.5 -6.5t-38 -17.5t-26.5 -26t-10 -32q0 -16 6 -26t15 -16t19.5 -8.5t19.5 -2.5q11 0 21 1.5t23 7.5z" />
    <glyph glyph-name="uniF410" unicode="&#xf410;" horiz-adv-x="0" 
d="M-534 819l30 68l195 -104l-23 -48z" />
    <glyph glyph-name="uniF416" unicode="&#xf416;" horiz-adv-x="246" 
d="M157 -46q12 -3 20.5 -15.5t8.5 -33.5q0 -24 -9 -42.5t-23.5 -32t-33 -22t-37.5 -12.5l-23 36q25 10 35.5 25t10.5 37q0 17 -6.5 26.5t-17.5 14.5z" />
    <glyph glyph-name="uniF418" unicode="&#xf418;" horiz-adv-x="242" 
d="M153 564q13 -14 21 -36t8 -46q0 -30 -7.5 -53.5t-19.5 -42t-27.5 -31.5t-30.5 -22l-37 35q23 17 35 42.5t12 54.5q0 19 -6 34.5t-15 24.5z" />
    <glyph glyph-name="uniF447" unicode="&#xf447;" horiz-adv-x="492" 
d="M160 -132q15 -10 34 -16.5t37 -6.5q24 0 40 9.5t16 26.5q0 18 -13 28.5t-45 10.5h-6v80h-20v445h-195v80h476v-80h-196v-445h-22v-43q51 -3 76 -24t25 -56q0 -36 -32.5 -59t-93.5 -23q-38 0 -62.5 11t-42.5 23z" />
    <glyph glyph-name="uniF44E" unicode="&#xf44e;" horiz-adv-x="623" 
d="M492 307q-10 69 -63 107t-134 38q-45 0 -78 -9.5t-64 -31.5l-33 64q31 24 76 40.5t108 16.5q64 0 116 -19t88.5 -54.5t56 -85.5t19.5 -111t-20.5 -111t-57 -85.5t-88 -55t-113.5 -19.5q-65 0 -117.5 22t-88 63t-51.5 99.5t-9 131.5h453zM304 71q90 0 137.5 44t53.5 112
h-368q0 -32 12.5 -60.5t35.5 -49.5t55.5 -33.5t73.5 -12.5z" />
    <glyph glyph-name="uniF639" unicode="&#xf639;" 
d="M69 350q0 79 13 144.5t41 113t71 74t102 26.5t102 -26.5t70.5 -74t41 -113t13.5 -144.5t-13 -145t-40.5 -113t-70 -73.5t-101.5 -26.5t-102.5 26.5t-71.5 73.5t-41.5 113t-13.5 145zM154 350q0 -136 34.5 -209.5t109.5 -73.5q76 0 108 73.5t32 209.5t-33 209.5t-109 73.5
q-77 0 -109.5 -74.5t-32.5 -208.5z" />
    <glyph glyph-name="uniF63A" unicode="&#xf63a;" 
d="M84 65q43 42 97 96.5t102 114.5t81 121.5t33 117.5q0 47 -28.5 80t-85.5 33q-42 0 -78 -27.5t-47 -84.5l-68 28q6 39 24.5 69.5t45 51.5t60 32t70.5 11q49 0 85 -15.5t60 -40.5t35.5 -56.5t11.5 -64.5q0 -49 -18 -98.5t-46 -96t-62 -88.5t-67 -76.5t-60 -59.5t-41 -37
h323v-75h-427v65z" />
    <glyph glyph-name="uniF63B" unicode="&#xf63b;" 
d="M289 -10q-73 0 -129 30.5t-83 89.5l46 57q26 -49 70 -73t93 -24q66 0 102 36t36 90q0 57 -40 89.5t-103 32.5h-55v80h50q23 0 45 9t39 24.5t27 38t10 49.5q0 52 -30 81.5t-84 29.5q-52 0 -86.5 -23t-57.5 -64l-45 55q24 54 75 83t120 29q88 0 140.5 -47t52.5 -130
q0 -57 -27.5 -101t-81.5 -67v-3q33 -5 58 -20.5t42.5 -38.5t26.5 -51t9 -59q0 -47 -17 -84.5t-46.5 -64t-69.5 -40.5t-87 -14z" />
    <glyph glyph-name="uniF63C" unicode="&#xf63c;" 
d="M372 175h-323v57l290 468h92l-277 -445h218v195h80v-195h97v-80h-97v-175h-80v175z" />
    <glyph glyph-name="uniF63D" unicode="&#xf63d;" 
d="M179 700h316v-80h-246l-26 -189q11 3 26 5t30 2q48 0 88.5 -15t70 -43.5t46 -68.5t16.5 -90q0 -54 -18 -97t-49.5 -73t-73 -45.5t-87.5 -15.5q-28 0 -57 6.5t-56 19.5t-49.5 33t-38.5 47l46 59q26 -42 70 -63.5t87 -21.5q30 0 56 11t44.5 30.5t29.5 47t11 59.5
q0 31 -12 58.5t-34 47t-53.5 31t-70.5 11.5q-32 0 -62.5 -5.5t-47.5 -12.5z" />
    <glyph glyph-name="uniF63E" unicode="&#xf63e;" 
d="M60 248q0 96 31.5 175.5t81 138.5t109.5 96.5t118 51.5l33 -61q-47 -12 -92 -38t-82.5 -65t-65 -91t-39.5 -117q21 40 61.5 66.5t103.5 26.5q43 0 79.5 -15.5t63.5 -44t42 -68t15 -87.5q0 -52 -18.5 -93.5t-48.5 -71t-69 -45.5t-80 -16q-59 0 -104 21t-76 56t-47 82
t-16 99zM145 248q0 -36 10 -68t29.5 -56.5t49 -39t68.5 -14.5q29 0 53 11.5t41.5 30.5t27.5 44.5t10 53.5q0 30 -9 57t-27 46.5t-44.5 31t-61.5 11.5q-31 0 -55.5 -10t-43 -25.5t-30.5 -35t-18 -37.5z" />
    <glyph glyph-name="uniF63F" unicode="&#xf63f;" 
d="M93 700h420v-52l-258 -648h-88l249 620h-323v80z" />
    <glyph glyph-name="uniF640" unicode="&#xf640;" 
d="M310 400q22 0 42.5 9t36 24.5t24.5 36.5t9 45q0 27 -10.5 48.5t-27.5 36.5t-40.5 22.5t-48.5 7.5q-52 0 -88 -31t-36 -84q0 -24 9 -45t25 -36.5t36 -24.5t43 -9h26zM287 320q-28 0 -53 -9t-44 -25.5t-30 -39.5t-11 -50t11 -50.5t30.5 -40t46.5 -26t59 -9.5q68 0 108 34.5
t40 91.5q0 30 -11 53t-29.5 38.5t-43 24t-51.5 8.5h-22zM297 -10q-47 0 -89.5 13t-74.5 38t-50.5 60t-18.5 80q0 66 36.5 113t95.5 64v3q-23 8 -43 24t-35 37.5t-23.5 48.5t-8.5 56q0 41 16.5 75t45 58t66.5 37t82 13q43 0 81.5 -13t67.5 -37t45.5 -58t16.5 -75
q0 -51 -30.5 -97.5t-84.5 -67.5v-3q29 -5 54 -19.5t43.5 -36.5t29 -51.5t10.5 -64.5q0 -47 -18.5 -83.5t-50 -62t-74 -38.5t-89.5 -13z" />
    <glyph glyph-name="uniF641" unicode="&#xf641;" 
d="M529 447q0 -99 -27 -179.5t-74 -139t-111 -94t-138 -44.5l-27 63q118 23 192 100.5t91 202.5q-21 -39 -61 -63t-97 -24q-46 0 -84.5 16.5t-66 45.5t-43 68.5t-15.5 84.5q0 52 19.5 93.5t51 71t71.5 45.5t81 16q58 0 102.5 -20t74.5 -55.5t45.5 -83.5t15.5 -104zM444 447
q0 36 -9 69t-27.5 58.5t-47.5 40.5t-68 15q-29 0 -54.5 -11.5t-44 -30.5t-29.5 -44.5t-11 -53.5q0 -29 9.5 -55t27.5 -46.5t45 -32.5t62 -12q31 0 55.5 9t43 23.5t30.5 33t18 37.5z" />
    <glyph glyph-name="uniF643" unicode="&#xf643;" 
d="M36 250q0 51 17.5 98t51 83t81.5 57.5t110 21.5q61 0 109.5 -21.5t82 -57.5t51 -83t17.5 -98t-17.5 -98t-51 -83t-82 -57.5t-109.5 -21.5q-62 0 -110 21.5t-81.5 57.5t-51 83t-17.5 98zM121 250q0 -36 12 -69t34.5 -57.5t55 -39t73.5 -14.5q42 0 74.5 14.5t55 39t34 57.5
t11.5 69q0 37 -12 70t-35 57.5t-55.5 38.5t-72.5 14q-41 0 -73 -14t-55 -38.5t-35 -57.5t-12 -70z" />
    <glyph glyph-name="uniF644" unicode="&#xf644;" 
d="M296 508h55v-508h-85v405l-105 -71l-27 71z" />
    <glyph glyph-name="uniF645" unicode="&#xf645;" 
d="M84 60q42 17 96 43t102.5 59.5t81.5 73.5t33 85q0 48 -28 79t-83 31q-21 0 -42 -6t-39.5 -19t-33 -33t-21.5 -48l-53 49q9 32 28 57.5t45 43t56.5 27t61.5 9.5q50 0 85.5 -13.5t58.5 -37t34 -55t11 -66.5q0 -51 -23.5 -94t-56.5 -76.5t-68.5 -56t-59.5 -32.5h242v-80
h-427v60z" />
    <glyph glyph-name="uniF646" unicode="&#xf646;" horiz-adv-x="532" 
d="M247 -210q-73 0 -129 30.5t-83 89.5l46 57q26 -49 70 -73t93 -24q66 0 102 36t36 90q0 57 -40 89.5t-103 32.5h-55v80h50q23 0 45 9t39 24.5t27 38t10 49.5q0 52 -30 81.5t-84 29.5q-52 0 -86.5 -23t-57.5 -64l-45 55q24 54 75 83t120 29q88 0 140.5 -47t52.5 -130
q0 -57 -27.5 -101t-81.5 -67v-3q33 -5 58 -20.5t42.5 -38.5t26.5 -51t9 -59q0 -47 -17 -84.5t-46.5 -64t-69.5 -40.5t-87 -14z" />
    <glyph glyph-name="uniF647" unicode="&#xf647;" 
d="M372 0h-323v57l277 443h92l-264 -420h218v195h80v-195h97v-80h-97v-200h-80v200z" />
    <glyph glyph-name="uniF648" unicode="&#xf648;" 
d="M179 500h316v-80h-246l-26 -189q11 3 26 5t30 2q48 0 88.5 -15t70 -43.5t46 -68.5t16.5 -90q0 -54 -18 -97t-49.5 -73t-73 -45.5t-87.5 -15.5q-28 0 -57 6.5t-56 19.5t-49.5 33t-38.5 47l46 59q26 -42 70 -63.5t87 -21.5q30 0 56 11t44.5 30.5t29.5 47t11 59.5
q0 31 -12 58.5t-34 47t-53.5 31t-70.5 11.5q-32 0 -62.5 -5.5t-47.5 -12.5z" />
    <glyph glyph-name="uniF649" unicode="&#xf649;" 
d="M60 248q0 96 31.5 175.5t81 138.5t109.5 96.5t118 51.5l33 -61q-47 -12 -92 -38t-82.5 -65t-65 -91t-39.5 -117q21 40 61.5 66.5t103.5 26.5q43 0 79.5 -15.5t63.5 -44t42 -68t15 -87.5q0 -52 -18.5 -93.5t-48.5 -71t-69 -45.5t-80 -16q-59 0 -104 21t-76 56t-47 82
t-16 99zM145 248q0 -36 10 -68t29.5 -56.5t49 -39t68.5 -14.5q29 0 53 11.5t41.5 30.5t27.5 44.5t10 53.5q0 30 -9 57t-27 46.5t-44.5 31t-61.5 11.5q-31 0 -55.5 -10t-43 -25.5t-30.5 -35t-18 -37.5z" />
    <glyph glyph-name="uniF64A" unicode="&#xf64a;" 
d="M93 500h420v-52l-258 -648h-88l249 620h-323v80z" />
    <glyph glyph-name="uniF64B" unicode="&#xf64b;" 
d="M310 400q22 0 42.5 9t36 24.5t24.5 36.5t9 45q0 27 -10.5 48.5t-27.5 36.5t-40.5 22.5t-48.5 7.5q-52 0 -88 -31t-36 -84q0 -24 9 -45t25 -36.5t36 -24.5t43 -9h26zM287 320q-28 0 -53 -9t-44 -25.5t-30 -39.5t-11 -50t11 -50.5t30.5 -40t46.5 -26t59 -9.5q68 0 108 34.5
t40 91.5q0 30 -11 53t-29.5 38.5t-43 24t-51.5 8.5h-22zM297 -10q-47 0 -89.5 13t-74.5 38t-50.5 60t-18.5 80q0 66 36.5 113t95.5 64v3q-23 8 -43 24t-35 37.5t-23.5 48.5t-8.5 56q0 41 16.5 75t45 58t66.5 37t82 13q43 0 81.5 -13t67.5 -37t45.5 -58t16.5 -75
q0 -51 -30.5 -97.5t-84.5 -67.5v-3q29 -5 54 -19.5t43.5 -36.5t29 -51.5t10.5 -64.5q0 -47 -18.5 -83.5t-50 -62t-74 -38.5t-89.5 -13z" />
    <glyph glyph-name="uniF64C" unicode="&#xf64c;" 
d="M529 247q0 -99 -27 -179.5t-74 -139t-111 -94t-138 -44.5l-27 63q118 23 192 100.5t91 202.5q-21 -39 -61 -63t-97 -24q-46 0 -84.5 16.5t-66 45.5t-43 68.5t-15.5 84.5q0 52 19.5 93.5t51 71t71.5 45.5t81 16q58 0 102.5 -20t74.5 -55.5t45.5 -83.5t15.5 -104zM444 247
q0 36 -9 69t-27.5 58.5t-47.5 40.5t-68 15q-29 0 -54.5 -11.5t-44 -30.5t-29.5 -44.5t-11 -53.5q0 -29 9.5 -55t27.5 -46.5t45 -32.5t62 -12q31 0 55.5 9t43 23.5t30.5 33t18 37.5z" />
    <glyph glyph-name="uniF66D" unicode="&#xf66d;" horiz-adv-x="590" 
d="M258 528h74l246 -528h-91l-64 140h-261l-64 -140h-86zM198 220h189l-94 206zM184 726q7 -9 17.5 -19.5t24.5 -20t31.5 -15.5t40.5 -6q39 0 68 19t47 41l29 -39q-11 -15 -24 -30t-31 -27.5t-40.5 -20.5t-51.5 -8q-31 0 -55.5 9.5t-43 22.5t-30.5 27.5t-19 25.5z" />
    <glyph glyph-name="uniF66E" unicode="&#xf66e;" horiz-adv-x="590" 
d="M258 528h74l246 -528h-91l-64 140h-261l-64 -140h-86zM198 220h189l-94 206zM163 690h264v-65h-264v65z" />
    <glyph glyph-name="uniF66F" unicode="&#xf66f;" horiz-adv-x="590" 
d="M571 -175q-13 -11 -36.5 -18t-49.5 -7q-22 0 -43.5 4.5t-39 15.5t-28.5 28.5t-11 43.5q0 22 9.5 40.5t26 33t38.5 24.5t47 16l-61 134h-261l-64 -140h-86l246 528h74l246 -528h-16q-23 0 -44.5 -6.5t-38 -17.5t-26.5 -26t-10 -32q0 -16 6 -26t15 -16t19.5 -8.5t19.5 -2.5
q11 0 21 1.5t23 7.5zM198 220h189l-94 206z" />
    <glyph glyph-name="uniF671" unicode="&#xf671;" horiz-adv-x="542" 
d="M514 50q-28 -27 -78 -43t-105 -16q-66 0 -119.5 19.5t-91.5 54.5t-59 85t-21 112q0 55 18.5 104t55 86t90 58.5t123.5 21.5q57 0 101.5 -14.5t74.5 -37.5l-39 -64q-28 17 -60 26.5t-77 9.5q-44 0 -80 -13.5t-62 -38t-40.5 -60t-14.5 -78.5t15 -78t42 -60t65.5 -39
t86.5 -14q39 0 76 11t66 32zM293 580l-40 44l126 142l49 -61z" />
    <glyph glyph-name="uniF672" unicode="&#xf672;" horiz-adv-x="542" 
d="M514 50q-28 -27 -78 -43t-105 -16q-66 0 -119.5 19.5t-91.5 54.5t-59 85t-21 112q0 55 18.5 104t55 86t90 58.5t123.5 21.5q57 0 101.5 -14.5t74.5 -37.5l-39 -64q-28 17 -60 26.5t-77 9.5q-44 0 -80 -13.5t-62 -38t-40.5 -60t-14.5 -78.5t15 -78t42 -60t65.5 -39
t86.5 -14q39 0 76 11t66 32zM165 697l39 48l109 -89l109 88l37 -47l-145 -118h-4z" />
    <glyph glyph-name="uniF673" unicode="&#xf673;" horiz-adv-x="542" 
d="M514 50q-28 -27 -78 -43t-105 -16q-66 0 -119.5 19.5t-91.5 54.5t-59 85t-21 112q0 55 18.5 104t55 86t90 58.5t123.5 21.5q57 0 101.5 -14.5t74.5 -37.5l-39 -64q-28 17 -60 26.5t-77 9.5q-44 0 -80 -13.5t-62 -38t-40.5 -60t-14.5 -78.5t15 -78t42 -60t65.5 -39
t86.5 -14q39 0 76 11t66 32zM465 624l-38 -48l-113 89l-115 -88l-38 47l151 118h4z" />
    </font>
</defs>
</svg>
