<?xml version="1.0" standalone="no"?>
<!DOCTYPE svg PUBLIC "-//W3C//DTD SVG 1.1//EN" "http://www.w3.org/Graphics/SVG/1.1/DTD/svg11.dtd" >
<svg xmlns="http://www.w3.org/2000/svg" xmlns:xlink="http://www.w3.org/1999/xlink" version="1.1">
<metadata>
Created by FontForge 20200314 at Wed May 27 18:18:52 2015
 By Unknown
Copyright (c) 2011 ParaType Inc., ParaType Ltd. All rights reserved.
</metadata>
<defs>
<font id="CirceW08-Bold" horiz-adv-x="596" >
  <font-face 
    font-family="CirceW08-Bold"
    font-weight="700"
    font-stretch="normal"
    units-per-em="1000"
    panose-1="2 11 6 2 2 2 3 2 2 3"
    ascent="800"
    descent="-200"
    x-height="450"
    cap-height="700"
    bbox="-512 -423 1676 1012"
    underline-thickness="50"
    underline-position="-125"
    unicode-range="U+0020-FB02"
  />
<missing-glyph horiz-adv-x="212" 
 />
    <glyph glyph-name="uniF3D6" unicode="&#xf350;`" horiz-adv-x="611" 
d="M251 526h109l245 -526h-131l-49 108h-247l-49 -108h-123zM229 222h145l-72 161zM283 570l-55 64l133 142l71 -88z" />
    <glyph glyph-name="uniF3D7" unicode="&#xf355;`" horiz-adv-x="498" 
d="M78 525h359v-115h-237v-88h213v-115h-213v-92h246v-115h-368v525zM229 570l-55 64l133 142l71 -88z" />
    <glyph glyph-name="uniF3D8" unicode="&#xf358;`" horiz-adv-x="663" 
d="M78 0v525h122v-330l278 330h107v-525h-122v330l-278 -330h-107zM304 570l-55 64l133 142l71 -88z" />
    <glyph glyph-name="uniF3D9" unicode="&#xf35e;`" horiz-adv-x="659" 
d="M35 261q0 57 21 106.5t60 86t93 57.5t120 21q64 0 118 -19t93.5 -54t61.5 -85t22 -113q0 -60 -22 -110t-61.5 -86t-93.5 -56t-118 -20q-63 0 -117 19t-93.5 54t-61.5 85.5t-22 113.5zM165 261q0 -33 12.5 -62t35 -50t52 -33t64.5 -12q40 0 71 12t52 33.5t31.5 50
t10.5 61.5q0 36 -12.5 64.5t-35 49t-52.5 31.5t-65 11q-36 0 -66 -11t-51.5 -31.5t-34 -49t-12.5 -64.5zM314 570l-55 64l133 142l71 -88z" />
    <glyph glyph-name="uniF3DA" unicode="&#xf363;`" horiz-adv-x="567" 
d="M362 128q-29 -61 -69.5 -94.5t-99.5 -33.5q-25 0 -45.5 7.5t-32.5 15.5l43 104q12 -7 20 -9.5t21 -2.5q18 0 28.5 9.5t16.5 20.5l9 14l-244 366h154l152 -245l119 245h126zM274 570l-55 64l133 142l71 -88z" />
    <glyph glyph-name="uniF3DB" unicode="&#xf36b;`" horiz-adv-x="736" 
d="M535 525h123v-525h-123v525zM247 250h-21.5t-25.5 -2v-133q13 -2 23.5 -2h22.5q46 0 70.5 17.5t24.5 53.5q0 34 -25.5 50t-68.5 16zM200 362q17 2 32 2.5t25 0.5q109 0 161.5 -48.5t52.5 -129.5q0 -42 -16 -77t-46.5 -59.5t-75.5 -38.5t-102 -14q-45 0 -86 1t-67 1v525
h122v-163zM334 570l-55 64l133 142l71 -88z" />
    <glyph glyph-name="uniF3DC" unicode="&#xf36d;`" horiz-adv-x="562" 
d="M154 325h240q-17 47 -59 70.5t-108 23.5q-51 0 -88.5 -9t-67.5 -29l-47 92q30 23 83 42t125 19q64 0 118 -19.5t93.5 -55t61.5 -86t22 -111.5q0 -63 -22 -113.5t-62.5 -85.5t-98 -53.5t-128.5 -18.5q-63 0 -116 16t-81 39l52 103q25 -17 63.5 -30t96.5 -13q62 0 107 24
t60 80h-244v115zM214 570l-55 64l133 142l71 -88z" />
    <glyph glyph-name="uniF3DD" unicode="&#xf36e;`" horiz-adv-x="877" 
d="M78 525h122v-200h83q9 45 31.5 83.5t57 66.5t81 43.5t103.5 15.5q66 0 119 -19t90 -54t57 -85t20 -113q0 -60 -20 -110t-57 -86t-90 -56t-119 -20q-54 0 -100.5 15t-82.5 43t-59.5 69t-31.5 92h-82v-210h-122v525zM408 263q0 -34 11 -62.5t30.5 -49.5t47.5 -33t63 -12
q38 0 66.5 12t47.5 33.5t28.5 50t9.5 61.5q0 71 -41 113.5t-111 42.5q-68 0 -110 -42.5t-42 -113.5zM395 570l-55 64l133 142l71 -88z" />
    <glyph glyph-name="uniF3DE" unicode="&#xf36f;`" horiz-adv-x="559" 
d="M358 160h-92l-110 -160h-145l136 187q-37 21 -63 57t-26 90q0 37 13.5 72t42.5 62t74.5 43.5t109.5 16.5q25 0 52 -0.5t51.5 -1t45.5 -1t34 -0.5v-525h-123v160zM358 275v135q-8 1 -30 2t-42 1q-48 0 -73 -19.5t-25 -51.5q0 -29 21 -45.5t47 -21.5h102zM254 570l-55 64
l133 142l71 -88z" />
    <glyph glyph-name="uniF3DF" unicode="&#xf371;`" horiz-adv-x="498" 
d="M89 645q0 28 19 44t46 16q21 0 39.5 -16t18.5 -44q0 -30 -18.5 -46t-39.5 -16q-27 0 -46 16t-19 46zM308 645q0 28 19 44t45 16q23 0 41.5 -16t18.5 -44q0 -30 -18.5 -46t-41.5 -16q-26 0 -45 16t-19 46zM78 525h359v-115h-237v-88h213v-115h-213v-92h246v-115h-368v525z
M254 660l-55 64l133 142l71 -88z" />
    <glyph glyph-name="uniF460" unicode="&#x410;`" horiz-adv-x="715" 
d="M303 702h108l296 -702h-131l-73 179h-299l-73 -179h-124zM251 294h205l-102 249zM304 731l-32 69l214 111l43 -99z" />
    <glyph glyph-name="uniF461" unicode="&#x415;`" horiz-adv-x="575" 
d="M97 700h405v-115h-282v-174h252v-115h-252v-181h292v-115h-415v700zM264 731l-32 69l214 111l43 -99z" />
    <glyph glyph-name="uniF462" unicode="&#x418;`" horiz-adv-x="792" 
d="M97 0v700h123v-498l367 498h108v-700h-123v497l-367 -497h-108zM354 731l-32 69l214 111l43 -99z" />
    <glyph glyph-name="uniF463" unicode="&#x41e;`" horiz-adv-x="819" 
d="M45 350q0 76 26.5 142t74.5 114.5t115 76.5t148 28q78 0 145 -26t115.5 -73t76.5 -113.5t28 -148.5q0 -79 -28 -145t-76.5 -114t-115.5 -75t-145 -27t-144.5 25.5t-115.5 73t-76.5 114t-27.5 148.5zM175 350q0 -53 18 -98t49.5 -78t74.5 -51.5t92 -18.5q55 0 98.5 19
t74 52t46.5 78t16 97q0 54 -18 99.5t-50 78t-75 50.5t-92 18q-50 0 -93 -18t-74.5 -50.5t-49 -78t-17.5 -99.5zM364 731l-32 69l214 111l43 -99z" />
    <glyph glyph-name="uniF464" unicode="&#x423;`" horiz-adv-x="683" 
d="M433 163q-36 -81 -80 -122t-110 -41q-27 0 -54.5 8.5t-41.5 19.5l43 104q14 -10 25.5 -13.5t26.5 -3.5q25 0 41.5 13t27.5 36l10 24l-309 512h139l229 -391l167 391h124zM312 731l-32 69l214 111l43 -99z" />
    <glyph glyph-name="uniF465" unicode="&#x42b;`" horiz-adv-x="864" 
d="M645 700h122v-700h-122v700zM288 350q-14 0 -30.5 -1.5t-37.5 -3.5v-229q17 -1 32.5 -2t33.5 -1q68 0 103 30.5t35 92.5q0 57 -35.5 85.5t-100.5 28.5zM220 460q23 3 43 4t35 1q130 0 193 -61.5t63 -164.5q0 -56 -19 -100.5t-55.5 -75.5t-89 -48t-119.5 -17
q-50 0 -96.5 1t-77.5 1v700h123v-240zM369 731l-32 69l214 111l43 -99z" />
    <glyph glyph-name="uniF466" unicode="&#x42d;`" horiz-adv-x="673" 
d="M187 414h312q-18 88 -85 135t-167 47q-42 0 -84.5 -13t-79.5 -41l-48 92q37 32 98.5 54.5t142.5 22.5q77 0 142 -25.5t111.5 -72.5t72.5 -113.5t26 -148.5t-25.5 -149t-73.5 -114t-115.5 -73t-151.5 -26q-73 0 -135.5 20.5t-99.5 52.5l53 103q33 -26 79 -43.5t101 -17.5
q45 0 85.5 12.5t72.5 37t54 61t30 84.5h-315v115zM234 731l-32 69l214 111l43 -99z" />
    <glyph glyph-name="uniF467" unicode="&#x42e;`" horiz-adv-x="1081" 
d="M97 700h123v-286h119q10 64 38.5 118.5t72.5 94t102.5 62t128.5 22.5q78 0 143 -26t112.5 -73t73.5 -113.5t26 -148.5q0 -79 -26 -145t-73.5 -114t-112.5 -75t-143 -27q-67 0 -126 22t-104.5 62.5t-75.5 97.5t-38 128h-117v-299h-123v700zM464 350q0 -53 17 -98t47 -78
t70.5 -51.5t86.5 -18.5q55 0 96.5 19t69 52t41.5 78t14 97q0 54 -16 99.5t-45 78t-70 50.5t-90 18q-47 0 -87.5 -18t-70 -50.5t-46.5 -78t-17 -99.5zM514 731l-32 69l214 111l43 -99z" />
    <glyph glyph-name="uniF468" unicode="&#x42f;`" horiz-adv-x="633" 
d="M413 242h-101l-157 -242h-138l179 267q-24 12 -46.5 30.5t-39.5 42.5t-27 54.5t-10 66.5q0 48 16.5 92t51 77.5t89 53t131.5 19.5q17 0 40.5 -0.5t48 -1t47.5 -1t38 -0.5v-700h-122v242zM413 357v228q-13 1 -37 2t-40 1q-61 0 -97 -33t-36 -86q0 -24 8.5 -43t22 -33
t31 -23t36.5 -13h112zM312 731l-32 69l214 111l43 -99z" />
    <glyph glyph-name="uniF469" unicode="&#x401;`" horiz-adv-x="575" 
d="M97 824q0 29 17 46t42 17q20 0 37.5 -17t17.5 -46q0 -32 -17.5 -49.5t-37.5 -17.5q-25 0 -42 17.5t-17 49.5zM399 824q0 29 18 46t42 17q21 0 37.5 -17t16.5 -46q0 -32 -16.5 -49.5t-37.5 -17.5q-24 0 -42 17.5t-18 49.5zM268 740l-41 19l75 152l99 -27zM97 700h405v-115
h-282v-174h252v-115h-252v-181h292v-115h-415v700z" />
    <glyph glyph-name="uniF46A" unicode="&#x430;`" horiz-adv-x="463" 
d="M70 418q29 17 71.5 30t87.5 13q50 0 84.5 -12.5t55.5 -36.5t30.5 -58.5t9.5 -79.5v-274h-100v52q-18 -26 -52.5 -42t-80.5 -16q-62 0 -101.5 36t-39.5 102q0 37 13 64.5t35 45.5t52 27t64 9q30 0 57.5 -8.5t44.5 -20.5q2 57 -15.5 86.5t-68.5 29.5q-39 0 -66 -10t-52 -21
zM214 91q36 0 56 13t31 28v46q-29 22 -79 22q-29 0 -50.5 -13.5t-21.5 -42.5q0 -26 18.5 -39.5t45.5 -13.5zM244 517l-69 48l105 165l90 -68z" />
    <glyph glyph-name="uniF46B" unicode="&#x435;`" horiz-adv-x="516" 
d="M450 45q-34 -29 -79 -42.5t-93 -13.5q-54 0 -99 17t-76.5 48t-49 74.5t-17.5 96.5q0 49 16.5 92t47 75t74.5 50.5t100 18.5q43 0 82 -15t68 -42.5t46 -66t17 -85.5q0 -21 -1.5 -35t-5.5 -27h-325q8 -51 44.5 -78t90.5 -27q42 0 74.5 12.5t52.5 28.5zM269 365
q-52 0 -80.5 -26.5t-37.5 -71.5h221q1 42 -26 70t-77 28zM271 517l-69 48l105 165l90 -68z" />
    <glyph glyph-name="uniF46C" unicode="&#x438;`" horiz-adv-x="568" 
d="M64 0v450h115v-285l210 285h115v-450h-115v285l-210 -285h-115zM280 517l-69 48l105 165l90 -68z" />
    <glyph glyph-name="uniF46D" unicode="&#x43e;`" horiz-adv-x="562" 
d="M36 225q0 51 17.5 94t49.5 74.5t77 49.5t101 18t101 -18t77 -49.5t49.5 -74.5t17.5 -94t-17.5 -94t-49.5 -74.5t-77 -49.5t-101 -18t-101 18t-77 49.5t-49.5 74.5t-17.5 94zM159 225q0 -57 34.5 -93t87.5 -36q54 0 88.5 35t34.5 94q0 28 -9.5 52t-26 40.5t-39 26
t-48.5 9.5t-48 -9t-38.5 -25.5t-26 -40.5t-9.5 -53zM285 517l-69 48l105 165l90 -68z" />
    <glyph glyph-name="uniF46E" unicode="&#x443;`" horiz-adv-x="503" 
d="M321 0q-25 -60 -46 -99t-41 -61.5t-41 -31t-46 -8.5q-31 0 -54 10.5t-43 24.5l37 87q9 -5 21 -10.5t26 -5.5q41 0 69 70l10 24l-208 450h138l105 -246q7 -17 12 -32.5t10 -32.5q3 16 6.5 32.5t9.5 33.5l81 245h131zM256 517l-69 48l105 165l90 -68z" />
    <glyph glyph-name="uniF46F" unicode="&#x44b;`" horiz-adv-x="676" 
d="M64 450h115v-123h56q57 0 95.5 -13t61 -35t32 -50t9.5 -58q0 -32 -11 -63t-35.5 -55t-64 -38.5t-96.5 -14.5h-162v450zM497 450h115v-450h-115v450zM179 235v-135h45q47 0 67 18t20 49t-19.5 49.5t-66.5 18.5h-46zM316 517l-69 48l105 165l90 -68z" />
    <glyph glyph-name="uniF470" unicode="&#x44d;`" horiz-adv-x="496" 
d="M140 266h200q-11 49 -47 72t-82 23q-39 0 -69.5 -13t-59.5 -34l-47 80q16 17 37 29.5t44.5 21t47.5 12.5t45 4q58 0 104.5 -16.5t79 -47.5t50 -74.5t17.5 -97.5q0 -49 -16 -92t-47 -75t-75.5 -50.5t-101.5 -18.5q-66 0 -111 17.5t-76 49.5l54 76q19 -17 51.5 -30
t74.5 -13q51 0 85 25t43 75h-201v77zM218 517l-69 48l105 165l90 -68z" />
    <glyph glyph-name="uniF471" unicode="&#x44e;`" horiz-adv-x="772" 
d="M64 450h122v-163h80q9 39 28.5 71t48.5 55t67.5 35.5t83.5 12.5q55 0 99.5 -18t76 -49.5t49 -74.5t17.5 -94t-17.5 -94t-49.5 -74.5t-76.5 -49.5t-98.5 -18q-47 0 -86 13.5t-68 37.5t-48.5 57.5t-27.5 74.5h-78v-172h-122v450zM389 225q0 -58 30.5 -89.5t77.5 -31.5
q48 0 78.5 32t30.5 89q0 56 -29 88.5t-80 32.5q-48 0 -78 -32.5t-30 -88.5zM393 517l-69 48l105 165l90 -68z" />
    <glyph glyph-name="uniF472" unicode="&#x44f;`" horiz-adv-x="495" 
d="M431 450v-450h-115v135h-64l-93 -135h-132l120 160q-15 5 -30 15.5t-28 27t-21 38t-8 49.5q0 33 12 62t39 50.5t69.5 34.5t103.5 13h147zM183 282q0 -28 23 -45t50 -17h60v130h-51q-42 0 -62 -21t-20 -47zM277 517l-69 48l105 165l90 -68z" />
    <glyph glyph-name="uniF473" unicode="&#x451;`" horiz-adv-x="516" 
d="M72 588q0 25 15.5 39t37.5 14q19 0 34.5 -14t15.5 -39q0 -27 -15.5 -41.5t-34.5 -14.5q-22 0 -37.5 14.5t-15.5 41.5zM361 588q0 25 15.5 39t37.5 14q20 0 35 -14t15 -39q0 -27 -15 -41.5t-35 -14.5q-22 0 -37.5 14.5t-15.5 41.5zM248 517l-53 38l104 164l75 -57zM450 45
q-34 -29 -79 -42.5t-93 -13.5q-54 0 -99 17t-76.5 48t-49 74.5t-17.5 96.5q0 49 16.5 92t47 75t74.5 50.5t100 18.5q43 0 82 -15t68 -42.5t46 -66t17 -85.5q0 -21 -1.5 -35t-5.5 -27h-325q8 -51 44.5 -78t90.5 -27q42 0 74.5 12.5t52.5 28.5zM269 365q-52 0 -80.5 -26.5
t-37.5 -71.5h221q1 42 -26 70t-77 28z" />
    <glyph glyph-name="uniFB01" unicode="fi" horiz-adv-x="530" 
d="M362 342h-178v-342h-115v506q0 53 14.5 92t41 64t63 37t81.5 12q40 0 71 -8t54.5 -21.5t40 -30t27.5 -34.5l-83 -65q-13 20 -35 35.5t-54 15.5q-52 0 -79 -23.5t-27 -83.5v-46h293v-450h-115v342z" />
    <glyph glyph-name="uniFB02" unicode="fl" horiz-adv-x="570" 
d="M334 579q-13 9 -32 16.5t-39 7.5q-39 0 -59 -21t-20 -68v-64h81v-108h-81v-342h-115v523q0 94 42.5 141t117.5 47q71 0 118 -30h102v-510q0 -38 9.5 -55.5t29.5 -17.5q14 0 25.5 5t22.5 13l24 -88q-20 -16 -49 -27t-70 -11q-52 0 -79.5 32.5t-27.5 101.5v455z" />
    <glyph glyph-name=".notdef" horiz-adv-x="212" 
 />
    <glyph glyph-name=".null" horiz-adv-x="0" 
 />
    <glyph glyph-name="nonmarkingreturn" horiz-adv-x="333" 
 />
    <glyph glyph-name="space" unicode=" " horiz-adv-x="212" 
 />
    <glyph glyph-name="exclam" unicode="!" horiz-adv-x="310" 
d="M94 700h122v-458h-122v458zM78 75q0 13 5.5 26.5t16 24t25 17t33.5 6.5q16 0 29.5 -6.5t23 -17t15 -24t5.5 -26.5q0 -15 -5.5 -29.5t-15 -26t-23 -18t-29.5 -6.5q-38 0 -59 24.5t-21 55.5z" />
    <glyph glyph-name="quotedbl" unicode="&#x22;" horiz-adv-x="432" 
d="M249 700h115v-241h-115v241zM67 700h115v-241h-115v241z" />
    <glyph glyph-name="numbersign" unicode="#" horiz-adv-x="724" 
d="M372 180h-153l-71 -191l-89 31l59 160h-78v100h115l52 140h-167v100h205l71 191l89 -32l-59 -159h151l71 191l89 -31l-59 -160h86v-100h-123l-52 -140h175v-100h-212l-70 -191l-89 32zM256 280h153l51 140h-152z" />
    <glyph glyph-name="dollar" unicode="$" 
d="M398 186q0 34 -23.5 56.5t-58.5 40.5t-76.5 35.5t-76.5 43t-58.5 62.5t-23.5 94q0 33 11.5 63t33 55t52 43t68.5 26v85h115v-83q95 -15 146 -71l-66 -92q-26 25 -54 38.5t-70 13.5q-54 0 -80 -21t-26 -56q0 -36 23.5 -58.5t58.5 -40t76.5 -34.5t76.5 -41.5t58.5 -62
t23.5 -95.5q0 -38 -12 -69.5t-34 -56.5t-53 -42t-68 -24v-95h-115v94q-28 4 -54.5 13t-49.5 22.5t-41 31t-28 38.5l70 84q31 -40 75.5 -59.5t85.5 -19.5q44 0 69 21t25 61z" />
    <glyph glyph-name="percent" unicode="%" horiz-adv-x="911" 
d="M675 711l65 -49l-504 -673l-66 46zM37 531q0 40 14.5 73t41 56.5t62.5 36t79 12.5t79 -12.5t62 -36t41 -56.5t15 -73t-15 -73t-41 -56.5t-62 -36.5t-79 -13t-79 13t-62.5 36.5t-41 56.5t-14.5 73zM145 531q0 -40 26 -63t63 -23q39 0 64.5 23t25.5 63q0 39 -26 62t-64 23
t-63.5 -23t-25.5 -62zM479 169q0 40 14.5 73t41 56.5t62.5 36t79 12.5t79 -12.5t62 -36t41 -56.5t15 -73t-15 -73t-41 -56.5t-62 -36.5t-79 -13t-79 13t-62.5 36.5t-41 56.5t-14.5 73zM587 169q0 -40 26 -63t63 -23q39 0 64.5 23t25.5 63q0 39 -26 62t-64 23t-63.5 -23
t-25.5 -62z" />
    <glyph glyph-name="ampersand" unicode="&#x26;" horiz-adv-x="753" 
d="M501 73q-15 -16 -34 -31t-44 -27t-56.5 -19t-71.5 -7q-53 0 -96.5 15t-74.5 42t-47.5 63.5t-16.5 80.5t12.5 78t34 61.5t49.5 50.5t59 45q-36 17 -58 50.5t-22 83.5q0 36 13.5 64t36.5 47.5t53 30t63 10.5t63 -10.5t53 -30t36.5 -47.5t13.5 -64q0 -23 -7 -45t-19.5 -40
t-29 -31t-34.5 -19l136 -177q18 35 32.5 85t14.5 118h114q0 -84 -24.5 -161t-67.5 -134l121 -155h-143zM299 104q47 0 79.5 16t53.5 45l-142 194q-51 -41 -75.5 -73.5t-24.5 -72.5q0 -23 8.5 -43t23 -34.5t34.5 -23t43 -8.5zM242 559q0 -23 16.5 -40.5t42.5 -17.5t42.5 17.5
t16.5 40.5q0 25 -17.5 42t-41.5 17q-25 0 -42 -16.5t-17 -42.5z" />
    <glyph glyph-name="quotesingle" unicode="'" horiz-adv-x="250" 
d="M67 700h115v-241h-115v241z" />
    <glyph glyph-name="parenleft" unicode="(" horiz-adv-x="315" 
d="M242 -206q-57 49 -95.5 102t-62.5 107.5t-34 110.5t-10 111t10 110t34 109t63 107t96 105l71 -63q-82 -81 -120.5 -169.5t-38.5 -198.5q0 -55 12 -107t33 -99.5t50.5 -88t64.5 -73.5z" />
    <glyph glyph-name="parenright" unicode=")" horiz-adv-x="315" 
d="M0 -143q35 33 64.5 73.5t50.5 88t33 99.5t12 107q0 110 -38.5 198.5t-120.5 169.5l71 63q57 -52 96 -105t63 -107t34 -109t10 -110t-10 -111t-34 -110.5t-62.5 -107.5t-95.5 -102z" />
    <glyph glyph-name="asterisk" unicode="*" horiz-adv-x="540" 
d="M199 638q0 29 21 50.5t52 21.5q29 0 50.5 -21.5t21.5 -50.5q0 -31 -21.5 -52t-50.5 -21q-31 0 -52 21t-21 52zM197 332q0 30 21 52t51 22q29 0 50.5 -22t21.5 -52q0 -29 -21.5 -50t-50.5 -21q-30 0 -51 21t-21 50zM339 568q0 29 22 51t51 22q30 0 51.5 -22t21.5 -51
q0 -30 -21.5 -51t-51.5 -21q-29 0 -51 21t-22 51zM339 405q0 30 22 52t51 22q30 0 51.5 -22t21.5 -52q0 -29 -21.5 -50t-51.5 -21q-29 0 -51 21t-22 50zM55 405q0 30 21.5 52t50.5 22q31 0 52.5 -22t21.5 -52q0 -29 -21.5 -50t-52.5 -21q-29 0 -50.5 21t-21.5 50zM55 568
q0 29 21.5 51t50.5 22q31 0 52.5 -22t21.5 -51q0 -30 -21.5 -51t-52.5 -21q-29 0 -50.5 21t-21.5 51z" />
    <glyph glyph-name="plus" unicode="+" 
d="M66 410h177v181h108v-181h179v-100h-179v-183h-108v183h-177v100z" />
    <glyph glyph-name="comma" unicode="," horiz-adv-x="252" 
d="M47 64q0 32 19.5 52.5t57.5 20.5q41 0 64.5 -31.5t23.5 -80.5q0 -64 -33.5 -108.5t-93.5 -61.5l-31 54q19 7 34.5 18.5t26.5 34.5q7 14 9.5 26t-0.5 20q-5 -6 -12.5 -7t-13.5 -1q-20 0 -35.5 18t-15.5 46z" />
    <glyph glyph-name="hyphen" unicode="-" horiz-adv-x="376" 
d="M62 327h252v-107h-252v107z" />
    <glyph glyph-name="period" unicode="." horiz-adv-x="243" 
d="M45 75q0 13 5.5 26.5t16 24t25 17t33.5 6.5q16 0 29.5 -6.5t23 -17t15 -24t5.5 -26.5q0 -15 -5.5 -29.5t-15 -26t-23 -18t-29.5 -6.5q-38 0 -59 24.5t-21 55.5z" />
    <glyph glyph-name="slash" unicode="/" horiz-adv-x="359" 
d="M300 711l89 -33l-330 -886l-89 33z" />
    <glyph glyph-name="zero" unicode="0" horiz-adv-x="554" 
d="M42 350q0 80 14 146t43 113t73.5 73t104.5 26t104 -26t73 -73t43 -113t14 -146t-14 -146t-42.5 -113t-72 -73t-103.5 -26t-105 26t-74 73t-43.5 113t-14.5 146zM165 350q0 -129 28.5 -190t85.5 -61q60 0 85 60.5t25 190.5t-26 190t-86 60t-86 -61t-26 -189z" />
    <glyph glyph-name="one" unicode="1" horiz-adv-x="389" 
d="M201 702h83v-702h-115v538l-86 -65l-61 95z" />
    <glyph glyph-name="two" unicode="2" horiz-adv-x="524" 
d="M37 92q43 42 93.5 92t94.5 104t73.5 108.5t29.5 105.5q0 42 -22.5 66.5t-66.5 24.5q-38 0 -64 -24.5t-37 -69.5l-96 43q14 77 70 121.5t140 44.5q50 0 87 -15.5t62 -41t37 -58.5t12 -68q0 -49 -15.5 -96t-40.5 -89.5t-55.5 -80t-59.5 -67.5t-54 -52t-39 -33h291v-107
h-440v92z" />
    <glyph glyph-name="three" unicode="3" horiz-adv-x="530" 
d="M244 -11q-81 0 -137.5 32t-84.5 86l65 84q26 -39 65 -63t85 -24q57 0 85 28.5t28 68.5q0 48 -34.5 73.5t-95.5 25.5h-50v115h45q21 0 40.5 6.5t34.5 19t24 30t9 40.5q0 38 -22 61.5t-67 23.5q-42 0 -74 -18.5t-58 -56.5l-64 81q29 54 82 81.5t125 27.5q45 0 82 -12.5
t63.5 -35.5t41 -56t14.5 -74q0 -119 -107 -166v-3q33 -6 58 -21t42 -37t25.5 -50t8.5 -59q0 -48 -17.5 -86.5t-48.5 -65.5t-73 -41.5t-90 -14.5z" />
    <glyph glyph-name="four" unicode="4" horiz-adv-x="565" 
d="M335 162h-320v85l270 453h132l-253 -423h171v173h115v-173h90v-115h-90v-162h-115v162z" />
    <glyph glyph-name="five" unicode="5" horiz-adv-x="514" 
d="M127 700h331v-115h-230l-20 -139q8 2 18.5 3t21.5 1q46 0 86.5 -15.5t70 -44.5t46.5 -70t17 -93q0 -57 -19 -101t-51.5 -74.5t-76.5 -46.5t-94 -16q-28 0 -57.5 6.5t-57 19t-51 31t-39.5 43.5l66 87q23 -33 62.5 -52.5t79.5 -19.5q51 0 83 33t32 85q0 53 -39 88.5
t-110 35.5q-34 0 -66.5 -5.5t-48.5 -12.5z" />
    <glyph glyph-name="six" unicode="6" horiz-adv-x="559" 
d="M45 248q0 96 32 175t82.5 138.5t111.5 97.5t118 52l47 -87q-43 -13 -83 -35.5t-74 -54.5t-59.5 -73.5t-38.5 -92.5q22 30 56.5 47.5t87.5 17.5q40 0 75.5 -15.5t62.5 -43.5t42.5 -67.5t15.5 -87.5q0 -55 -19.5 -98t-51.5 -72t-72.5 -44.5t-82.5 -15.5q-59 0 -105 20.5
t-78.5 56t-49.5 82.5t-17 100zM167 247q0 -30 8.5 -56t24.5 -45.5t40 -30.5t56 -11q24 0 43 9t32.5 23.5t20.5 34t7 40.5q0 48 -28.5 81.5t-84.5 33.5q-24 0 -43 -7t-33.5 -18.5t-25 -25.5t-17.5 -28z" />
    <glyph glyph-name="seven" unicode="7" horiz-adv-x="497" 
d="M25 700h440v-77l-248 -623h-126l236 585h-302v115z" />
    <glyph glyph-name="eight" unicode="8" horiz-adv-x="600" 
d="M310 417q20 0 36.5 7.5t28.5 20t18.5 28.5t6.5 34q0 43 -28.5 66t-73.5 23t-72 -25t-27 -64q0 -18 6.5 -34t18.5 -28.5t29 -20t38 -7.5h19zM293 302q-22 0 -42.5 -7t-36 -19.5t-25 -31t-9.5 -41.5q0 -42 31 -70.5t88 -28.5q63 0 92.5 28.5t28.5 70.5q-1 49 -32.5 74
t-77.5 25h-17zM300 -11q-51 0 -95.5 13.5t-77 38t-51.5 60t-19 80.5q0 68 34.5 114t85.5 63v3q-41 17 -70.5 60.5t-29.5 105.5q0 41 17.5 75t47.5 58t70.5 37.5t86.5 13.5t87 -13.5t71.5 -37.5t48 -58t17.5 -75q0 -51 -28.5 -97t-79.5 -68v-3q26 -5 49 -19t40.5 -36
t27.5 -50.5t10 -62.5q0 -48 -18.5 -86t-51.5 -63.5t-77 -39t-95 -13.5z" />
    <glyph glyph-name="nine" unicode="9" horiz-adv-x="555" 
d="M510 444q0 -101 -28 -181.5t-76.5 -138t-114 -92t-140.5 -43.5l-38 91q109 22 174.5 84t86.5 160q-22 -30 -55 -46.5t-78 -16.5q-44 0 -82.5 16.5t-67 45.5t-45 68.5t-16.5 86.5q0 55 20.5 98.5t53.5 73.5t74.5 45.5t83.5 15.5q58 0 104.5 -20t78 -55t48.5 -84.5
t17 -107.5zM388 445q0 30 -8 57.5t-23.5 48t-39.5 33t-55 12.5q-24 0 -44.5 -9.5t-35 -24.5t-22.5 -35t-8 -41q0 -23 8 -44t23 -37.5t36.5 -26t49.5 -9.5q47 0 76 23.5t43 52.5z" />
    <glyph glyph-name="colon" unicode=":" horiz-adv-x="318" 
d="M82 387q0 13 5.5 26.5t16 24t25 17t33.5 6.5q16 0 29.5 -6.5t23 -17t15 -24t5.5 -26.5q0 -15 -5.5 -29.5t-15 -26t-23 -18t-29.5 -6.5q-38 0 -59 24.5t-21 55.5zM82 75q0 13 5.5 26.5t16 24t25 17t33.5 6.5q16 0 29.5 -6.5t23 -17t15 -24t5.5 -26.5q0 -15 -5.5 -29.5
t-15 -26t-23 -18t-29.5 -6.5q-38 0 -59 24.5t-21 55.5z" />
    <glyph glyph-name="semicolon" unicode=";" horiz-adv-x="324" 
d="M82 387q0 13 5.5 26.5t16 24t25 17t33.5 6.5q16 0 29.5 -6.5t23 -17t15 -24t5.5 -26.5q0 -15 -5.5 -29.5t-15 -26t-23 -18t-29.5 -6.5q-38 0 -59 24.5t-21 55.5zM83 64q0 32 19.5 52.5t57.5 20.5q41 0 64.5 -31.5t23.5 -80.5q0 -64 -33.5 -108.5t-93.5 -61.5l-31 54
q19 7 34.5 18.5t26.5 34.5q7 14 9.5 26t-0.5 20q-5 -6 -12.5 -7t-13.5 -1q-20 0 -35.5 18t-15.5 46z" />
    <glyph glyph-name="less" unicode="&#x3c;" 
d="M49 337v49l464 269v-124l-306 -169l306 -171v-125z" />
    <glyph glyph-name="equal" unicode="=" 
d="M66 505h464v-100h-464v100zM66 315h464v-100h-464v100z" />
    <glyph glyph-name="greater" unicode="&#x3e;" 
d="M82 66v125l307 171l-307 169v124l465 -269v-49z" />
    <glyph glyph-name="question" unicode="?" horiz-adv-x="473" 
d="M325 510q0 18 -7 33.5t-19.5 27t-30 18.5t-37.5 7q-42 0 -70.5 -16t-52.5 -48l-68 77q27 44 78.5 73t119.5 29q50 0 89 -14t66 -38t41 -56t14 -68q0 -49 -15 -83t-36.5 -58.5t-46.5 -43t-45.5 -37.5t-31.5 -41.5t-6 -53.5l-105 -1q-7 44 2 73.5t27 51t41.5 38.5t44 34.5
t34.5 40t14 55.5zM140 75q0 13 5.5 26.5t15.5 24t25 17t33 6.5q16 0 30 -6.5t23.5 -17t15 -24t5.5 -26.5q0 -31 -20.5 -55.5t-53.5 -24.5q-37 0 -58 24.5t-21 55.5z" />
    <glyph glyph-name="at" unicode="@" horiz-adv-x="996" 
d="M599 36q-23 -21 -54.5 -34t-69.5 -13q-51 0 -91.5 17t-69.5 48t-44.5 74.5t-15.5 96.5q0 49 19 92t53 75t81.5 50.5t104.5 18.5q58 0 112 -15.5t90 -38.5v-300h20q42 0 69.5 44.5t27.5 121.5q0 58 -22.5 110t-64 91t-101.5 61.5t-135 22.5q-71 0 -133 -23t-109 -66
t-74 -104.5t-27 -139.5q0 -73 27 -134t73.5 -105.5t109 -69t133.5 -24.5q57 0 108 12l5 -107q-27 -6 -55.5 -9.5t-57.5 -3.5q-97 0 -179.5 33t-143 91.5t-94.5 139.5t-34 177q0 92 34 172.5t94.5 140t143 93.5t179.5 34q91 0 170 -28t136.5 -79t90.5 -123.5t33 -161.5
q0 -51 -14 -99.5t-42.5 -86.5t-70.5 -61.5t-97 -25.5h-115v36zM496 96q31 0 58.5 14t44.5 33v188q-20 10 -42 16t-46 6q-33 0 -58 -11t-42 -29t-25.5 -42t-8.5 -51q0 -60 33 -92t86 -32z" />
    <glyph glyph-name="A" unicode="A" horiz-adv-x="715" 
d="M303 702h108l296 -702h-131l-73 179h-299l-73 -179h-124zM251 294h205l-102 249z" />
    <glyph glyph-name="B" unicode="B" horiz-adv-x="617" 
d="M97 698q15 1 38.5 1.5t51 1.5t57 1.5t55.5 0.5q63 0 106.5 -13.5t71 -36.5t40 -55t12.5 -68q0 -60 -27.5 -99t-72.5 -60v-2q52 -13 87.5 -53t35.5 -110q0 -54 -20 -93.5t-54.5 -65.5t-82.5 -38.5t-103 -12.5q-24 0 -51.5 0.5t-54.5 1t-50.5 1.5t-38.5 2v697zM220 301
v-185q13 -2 34 -3.5t47 -1.5q63 0 95.5 25.5t32.5 75.5q0 45 -32 67t-90 22h-87zM297 588q-44 0 -77 -3v-177h83q43 0 73.5 22.5t30.5 70.5q0 43 -30 65t-80 22z" />
    <glyph glyph-name="C" unicode="C" horiz-adv-x="655" 
d="M630 68q-17 -18 -41 -32.5t-53.5 -25t-62.5 -16t-67 -5.5q-80 0 -146.5 25.5t-114 73t-74 114t-26.5 148.5q0 75 23.5 141t69 115t112 77t153.5 28q69 0 123.5 -19.5t89.5 -51.5l-55 -91q-32 21 -68.5 34t-89.5 13q-49 0 -90.5 -17t-72 -49t-48 -77.5t-17.5 -102.5
q0 -55 17.5 -100t49.5 -77.5t76.5 -50.5t98.5 -18q45 0 87.5 14t78.5 42z" />
    <glyph glyph-name="D" unicode="D" horiz-adv-x="741" 
d="M97 700h13q16 0 41 0.5t52.5 1t54 1t45.5 0.5q105 0 179.5 -28t122 -75.5t69.5 -110.5t22 -132q0 -74 -25 -139.5t-75.5 -114t-125.5 -77t-175 -28.5q-16 0 -37.5 0.5t-46 0.5t-50.5 0.5t-50 0.5h-14v700zM301 588q-22 0 -41 -0.5t-40 -2.5v-470q26 -2 46 -2h33
q63 0 113 17.5t84 49t52 76.5t18 101q0 53 -18 95.5t-52 72.5t-83 46.5t-112 16.5z" />
    <glyph glyph-name="E" unicode="E" horiz-adv-x="575" 
d="M97 700h405v-115h-282v-174h252v-115h-252v-181h292v-115h-415v700z" />
    <glyph glyph-name="F" unicode="F" horiz-adv-x="537" 
d="M97 700h400v-115h-277v-198h247v-115h-247v-272h-123v700z" />
    <glyph glyph-name="G" unicode="G" horiz-adv-x="727" 
d="M388 377h284v-290q-23 -23 -54.5 -41.5t-67 -31t-71.5 -19t-69 -6.5q-86 0 -153.5 25.5t-114.5 73t-72 114t-25 148.5q0 75 24.5 141t70 115t110 77t144.5 28q75 0 128.5 -18.5t96.5 -52.5l-52 -98q-26 25 -69 39.5t-89 14.5q-51 0 -93.5 -16.5t-74 -48t-49 -77.5
t-17.5 -104q0 -56 17 -101.5t48 -77.5t75 -49.5t97 -17.5q20 0 41.5 4t41.5 10.5t36 15.5t26 18v110h-169v115z" />
    <glyph glyph-name="H" unicode="H" horiz-adv-x="759" 
d="M540 299h-320v-299h-123v700h123v-286h320v286h122v-700h-122v299z" />
    <glyph glyph-name="I" unicode="I" horiz-adv-x="347" 
d="M112 700h123v-700h-123v700z" />
    <glyph glyph-name="J" unicode="J" horiz-adv-x="390" 
d="M293 165q0 -85 -41.5 -130.5t-127.5 -45.5q-40 0 -72.5 13.5t-46.5 29.5l40 94q12 -9 28.5 -15.5t33.5 -6.5q34 0 48.5 22t14.5 60v514h123v-535z" />
    <glyph glyph-name="K" unicode="K" horiz-adv-x="672" 
d="M97 700h123v-332l276 332h148l-288 -326l306 -374h-156l-286 361v-361h-123v700z" />
    <glyph glyph-name="L" unicode="L" horiz-adv-x="547" 
d="M97 700h123v-585h315v-115h-438v700z" />
    <glyph glyph-name="M" unicode="M" horiz-adv-x="901" 
d="M97 700h124l239 -327l228 327h116v-700h-122v506l-221 -311h-18l-223 308v-503h-123v700z" />
    <glyph glyph-name="N" unicode="N" horiz-adv-x="792" 
d="M597 0l-385 485v-485h-115v700h98l385 -487v487h115v-700h-98z" />
    <glyph glyph-name="O" unicode="O" horiz-adv-x="819" 
d="M45 350q0 76 26.5 142t74.5 114.5t115 76.5t148 28q78 0 145 -26t115.5 -73t76.5 -113.5t28 -148.5q0 -79 -28 -145t-76.5 -114t-115.5 -75t-145 -27t-144.5 25.5t-115.5 73t-76.5 114t-27.5 148.5zM175 350q0 -53 18 -98t49.5 -78t74.5 -51.5t92 -18.5q55 0 98.5 19
t74 52t46.5 78t16 97q0 54 -18 99.5t-50 78t-75 50.5t-92 18q-50 0 -93 -18t-74.5 -50.5t-49 -78t-17.5 -99.5z" />
    <glyph glyph-name="P" unicode="P" horiz-adv-x="612" 
d="M97 0v700q15 0 41 0.5t55 0.5t57 0.5t46 0.5q77 0 129 -19t83.5 -50.5t45 -72t13.5 -83.5q0 -45 -16.5 -86t-49 -72.5t-80 -50t-110.5 -18.5q-16 0 -42 0.5t-49 2.5v-253h-123zM308 587q-19 0 -41 -0.5t-47 -1.5v-215q22 -2 44 -3.5t43 -1.5q27 0 51 6.5t41.5 20.5
t27.5 35.5t10 50.5q0 55 -33 82t-96 27z" />
    <glyph glyph-name="Q" unicode="Q" horiz-adv-x="819" 
d="M45 350q0 76 26.5 142t74.5 114.5t115 76.5t148 28q78 0 145 -26t115.5 -73t76.5 -113.5t28 -148.5q0 -75 -25.5 -138.5t-70.5 -111.5l86 -100h-143l-29 33q-80 -44 -183 -44q-78 0 -144.5 25.5t-115.5 73t-76.5 114t-27.5 148.5zM175 350q0 -53 18 -98t49.5 -78
t74.5 -51.5t92 -18.5q56 0 105 22l-59 69l80 72l62 -73q23 32 35 71.5t12 84.5q0 54 -18 99.5t-50 78t-75 50.5t-92 18q-50 0 -93 -18t-74.5 -50.5t-49 -78t-17.5 -99.5z" />
    <glyph glyph-name="R" unicode="R" horiz-adv-x="658" 
d="M97 0v700q15 0 47 0.5t66.5 0.5t63 0.5t36.5 0.5q72 0 120.5 -16.5t78 -46t42.5 -69t13 -84.5t-13 -79t-33 -58.5t-43.5 -40t-45.5 -22.5l219 -286h-149l-193 262h-86v-262h-123zM304 587q-17 0 -38 -0.5t-46 -1.5v-208h80q27 0 51 6.5t42.5 20t29.5 34t11 47.5
q0 21 -6.5 39.5t-21.5 32.5t-40 22t-62 8z" />
    <glyph glyph-name="S" unicode="S" horiz-adv-x="553" 
d="M378 186q0 34 -23.5 56.5t-58.5 40.5t-76.5 35.5t-76.5 43t-58.5 62.5t-23.5 94q0 39 15 74.5t43 61.5t68.5 41.5t91.5 15.5q65 0 116.5 -20t83.5 -55l-66 -92q-26 25 -54 38.5t-70 13.5q-46 0 -72 -21t-26 -56q0 -36 23.5 -58.5t58.5 -40t76.5 -34.5t76.5 -41.5
t58.5 -62t23.5 -95.5q0 -44 -18 -80.5t-49.5 -62.5t-74.5 -40.5t-92 -14.5q-34 0 -69 7t-66.5 21t-56 34.5t-37.5 47.5l70 84q31 -40 75.5 -59.5t85.5 -19.5q44 0 73 21t29 61z" />
    <glyph glyph-name="T" unicode="T" horiz-adv-x="597" 
d="M10 700h577v-115h-227v-585h-123v585h-227v115z" />
    <glyph glyph-name="U" unicode="U" horiz-adv-x="751" 
d="M663 290q0 -80 -23 -137t-61 -93.5t-88.5 -53.5t-105.5 -17q-65 0 -120 19.5t-94.5 58t-61.5 96t-22 134.5v403h123v-377q0 -49 10.5 -89.5t32 -69t54.5 -44.5t78 -16q80 0 118 54t38 157v385h122v-410z" />
    <glyph glyph-name="V" unicode="V" horiz-adv-x="656" 
d="M378 -2h-93l-288 702h131l208 -519l199 519h123z" />
    <glyph glyph-name="W" unicode="W" horiz-adv-x="985" 
d="M780 0h-115l-169 506l-166 -506h-116l-209 700h138l141 -499l156 499h122l160 -500l140 500h118z" />
    <glyph glyph-name="X" unicode="X" horiz-adv-x="669" 
d="M414 357l245 -357h-144l-181 263l-180 -263h-144l245 357l-234 343h144l172 -253l169 253h144z" />
    <glyph glyph-name="Y" unicode="Y" horiz-adv-x="629" 
d="M375 292v-292h-123v292l-247 408h140l174 -293l172 293h133z" />
    <glyph glyph-name="Z" unicode="Z" horiz-adv-x="642" 
d="M60 700h532v-85l-388 -500h398v-115h-562v84l387 501h-367v115z" />
    <glyph glyph-name="bracketleft" unicode="[" horiz-adv-x="350" 
d="M60 650h275v-108h-160v-635h160v-107h-275v850z" />
    <glyph glyph-name="backslash" unicode="\" horiz-adv-x="359" 
d="M389 -175l-90 -33l-329 886l88 33z" />
    <glyph glyph-name="bracketright" unicode="]" horiz-adv-x="350" 
d="M290 -200h-275v107h160v635h-160v108h275v-850z" />
    <glyph glyph-name="asciicircum" unicode="^" horiz-adv-x="507" 
d="M215 708h79l183 -258h-125l-98 143l-100 -143h-124z" />
    <glyph glyph-name="underscore" unicode="_" horiz-adv-x="344" 
d="M0 -85h344v-115h-344v115z" />
    <glyph glyph-name="grave" unicode="`" horiz-adv-x="315" 
d="M60 660l91 68l104 -163l-68 -48z" />
    <glyph glyph-name="a" unicode="a" horiz-adv-x="463" 
d="M70 418q29 17 71.5 30t87.5 13q50 0 84.5 -12.5t55.5 -36.5t30.5 -58.5t9.5 -79.5v-274h-100v52q-18 -26 -52.5 -42t-80.5 -16q-62 0 -101.5 36t-39.5 102q0 37 13 64.5t35 45.5t52 27t64 9q30 0 57.5 -8.5t44.5 -20.5q2 57 -15.5 86.5t-68.5 29.5q-39 0 -66 -10t-52 -21
zM214 91q36 0 56 13t31 28v46q-29 22 -79 22q-29 0 -50.5 -13.5t-21.5 -42.5q0 -26 18.5 -39.5t45.5 -13.5z" />
    <glyph glyph-name="b" unicode="b" horiz-adv-x="548" 
d="M64 700h115v-278q21 17 52 28t67 11q50 0 90 -17t67.5 -47.5t42 -72.5t14.5 -92q0 -56 -18 -100.5t-51.5 -76.5t-81 -49t-106.5 -17q-56 0 -108 15t-83 35v661zM271 353q-30 0 -54 -13t-38 -30v-191q36 -23 82 -23q54 0 91 33.5t37 94.5q0 65 -34.5 97t-83.5 32z" />
    <glyph glyph-name="c" unicode="c" horiz-adv-x="487" 
d="M459 67q-29 -38 -76.5 -58t-102.5 -20t-100 17t-77 48t-49.5 74.5t-17.5 96.5q0 49 17 92t48 75t74 50.5t94 18.5q56 0 102.5 -14.5t78.5 -46.5l-54 -91q-26 25 -53.5 34.5t-58.5 9.5q-24 0 -46.5 -9t-40 -25.5t-28 -40t-10.5 -53.5t10.5 -54t28.5 -40.5t41.5 -25.5
t49.5 -9q37 0 65.5 15.5t50.5 39.5z" />
    <glyph glyph-name="d" unicode="d" horiz-adv-x="556" 
d="M377 47q-23 -24 -54 -39.5t-75 -15.5q-48 0 -87.5 16.5t-67 46.5t-42.5 72t-15 93q0 53 18 97.5t51 76.5t78.5 49.5t99.5 17.5q30 0 52.5 -5.5t41.5 -16.5v261h115v-700h-115v47zM272 99q32 0 58.5 13t46.5 33v181q-44 27 -89 27q-26 0 -49 -8.5t-41 -25t-28.5 -40.5
t-10.5 -55q0 -30 9 -53.5t24.5 -39t36 -24t43.5 -8.5z" />
    <glyph glyph-name="e" unicode="e" horiz-adv-x="516" 
d="M450 45q-34 -29 -79 -42.5t-93 -13.5q-54 0 -99 17t-76.5 48t-49 74.5t-17.5 96.5q0 49 16.5 92t47 75t74.5 50.5t100 18.5q43 0 82 -15t68 -42.5t46 -66t17 -85.5q0 -21 -1.5 -35t-5.5 -27h-325q8 -51 44.5 -78t90.5 -27q42 0 74.5 12.5t52.5 28.5zM269 365
q-52 0 -80.5 -26.5t-37.5 -71.5h221q1 42 -26 70t-77 28z" />
    <glyph glyph-name="f" unicode="f" horiz-adv-x="325" 
d="M69 523q0 94 42.5 141t117.5 47q41 0 75 -12t51 -30l-39 -88q-11 11 -28.5 16.5t-37.5 5.5q-29 0 -47.5 -21t-18.5 -68v-64h122v-108h-122v-342h-115v523z" />
    <glyph glyph-name="g" unicode="g" horiz-adv-x="499" 
d="M5 -61q0 57 40.5 91t105.5 48q-8 14 -8 31q0 19 10 32q-51 20 -79 60.5t-28 90.5q0 34 13.5 64.5t38 53.5t60 37t80.5 14q34 0 63 -8.5t52 -23.5l136 30l4 -92l-75 -17q11 -28 11 -58q0 -34 -13.5 -64t-38.5 -52.5t-60.5 -36t-78.5 -13.5h-8q-2 -5 -2 -9v-8q0 -13 6 -23
h5q49 0 92 -9t74.5 -27t49.5 -45.5t18 -65.5t-18 -65.5t-49.5 -45.5t-74.5 -27t-92 -9t-92 8.5t-74.5 26.5t-49.5 45.5t-18 66.5zM112 -61q0 -26 34 -40.5t93 -14.5t92.5 14t33.5 41q0 25 -31.5 40t-94.5 15q-62 0 -94.5 -15t-32.5 -40zM154 292q0 -32 22.5 -52.5
t61.5 -20.5q37 0 60.5 19.5t23.5 53.5q0 32 -21.5 54t-62.5 22q-39 0 -61.5 -22.5t-22.5 -53.5z" />
    <glyph glyph-name="h" unicode="h" horiz-adv-x="546" 
d="M64 700h115v-291q22 21 56 35t73 14q41 0 75 -11t58.5 -34.5t38 -61t13.5 -90.5v-261h-115v246q0 51 -26 77.5t-74 26.5q-58 0 -99 -41v-309h-115v700z" />
    <glyph glyph-name="i" unicode="i" horiz-adv-x="277" 
d="M81 450h115v-450h-115v450zM69 612q0 31 21.5 49t50.5 18q25 0 45.5 -18t20.5 -49q0 -35 -20.5 -53.5t-45.5 -18.5q-29 0 -50.5 18.5t-21.5 53.5z" />
    <glyph glyph-name="j" unicode="j" horiz-adv-x="284" 
d="M202 -33q0 -83 -33 -129t-108 -46q-36 0 -66 9.5t-44 22.5l31 91q12 -8 24 -12t27 -4q30 0 42 21.5t12 56.5v473h115v-483zM76 612q0 31 21.5 49t50.5 18q25 0 45.5 -18t20.5 -49q0 -35 -20.5 -53.5t-45.5 -18.5q-29 0 -50.5 18.5t-21.5 53.5z" />
    <glyph glyph-name="k" unicode="k" horiz-adv-x="514" 
d="M318 244l189 -244h-148l-178 235l161 215h145zM64 700h115v-700h-115v700z" />
    <glyph glyph-name="l" unicode="l" horiz-adv-x="299" 
d="M64 700h115v-529q0 -38 9.5 -55.5t29.5 -17.5q14 0 25 5t22 13l24 -88q-20 -16 -49 -27t-70 -11q-52 0 -79 32.5t-27 101.5v576z" />
    <glyph glyph-name="m" unicode="m" horiz-adv-x="800" 
d="M747 0h-115v264q0 42 -18 64t-59 22q-32 0 -56.5 -14.5t-36.5 -37.5q0 -5 0.5 -15t0.5 -18v-265h-115v272q0 35 -19 56.5t-56 21.5q-31 0 -55 -12.5t-39 -35.5v-302h-115v450h115v-50q24 27 61.5 42.5t79.5 15.5q52 0 85.5 -20.5t45.5 -51.5q24 32 61.5 52t90.5 20
q31 0 57 -8.5t45.5 -27.5t30.5 -50.5t11 -77.5v-294z" />
    <glyph glyph-name="n" unicode="n" horiz-adv-x="546" 
d="M64 450h115v-45q20 22 54 37.5t75 15.5t75 -10.5t58.5 -33.5t38 -60t13.5 -90v-264h-115v244q0 54 -26.5 80t-74.5 26q-29 0 -53.5 -11.5t-44.5 -31.5v-307h-115v450z" />
    <glyph glyph-name="o" unicode="o" horiz-adv-x="562" 
d="M36 225q0 51 17.5 94t49.5 74.5t77 49.5t101 18t101 -18t77 -49.5t49.5 -74.5t17.5 -94t-17.5 -94t-49.5 -74.5t-77 -49.5t-101 -18t-101 18t-77 49.5t-49.5 74.5t-17.5 94zM159 225q0 -57 34.5 -93t87.5 -36q54 0 88.5 35t34.5 94q0 28 -9.5 52t-26 40.5t-39 26
t-48.5 9.5t-48 -9t-38.5 -25.5t-26 -40.5t-9.5 -53z" />
    <glyph glyph-name="p" unicode="p" horiz-adv-x="558" 
d="M64 450h115v-43q21 23 58 38.5t81 15.5q46 0 84 -17t64.5 -47.5t41 -72.5t14.5 -92q0 -51 -17 -95.5t-48 -77.5t-75 -51.5t-98 -18.5q-30 0 -57.5 5.5t-47.5 16.5v-211h-115v650zM282 353q-29 0 -55.5 -13t-47.5 -36v-182q23 -15 44.5 -20.5t50.5 -5.5q30 0 53.5 10
t39.5 28t24.5 42.5t8.5 52.5q0 54 -30.5 89t-87.5 35z" />
    <glyph glyph-name="q" unicode="q" horiz-adv-x="559" 
d="M381 23q-26 -17 -55 -25.5t-56 -8.5q-54 0 -97.5 17t-73.5 48t-46.5 74.5t-16.5 96.5q0 49 19 92t53 75t81.5 50.5t104.5 18.5q58 0 112 -15.5t90 -38.5v-607h-115v223zM285 96q27 0 53 11.5t43 29.5v194q-20 10 -42 16t-46 6q-33 0 -58 -11t-42 -29t-25.5 -42t-8.5 -51
q0 -54 34 -89t92 -35z" />
    <glyph glyph-name="r" unicode="r" horiz-adv-x="354" 
d="M64 450h115v-44q16 22 39 37t64 15q28 0 43.5 -4.5t26.5 -12.5l-41 -108q-17 10 -28.5 13.5t-29.5 3.5q-30 0 -47 -14t-27 -34v-302h-115v450z" />
    <glyph glyph-name="s" unicode="s" horiz-adv-x="444" 
d="M292 127q0 18 -18 28.5t-45 18.5t-58.5 17t-58.5 25t-45 41.5t-18 66.5q0 33 12.5 58.5t35 43t52.5 26.5t65 9q66 0 108 -18.5t63 -38.5l-43 -82q-20 16 -53 29.5t-69 13.5q-26 0 -41 -12t-15 -27q0 -19 18 -29.5t45 -18.5t58.5 -17t58.5 -24t45 -39.5t18 -64.5
q0 -67 -49.5 -105.5t-132.5 -38.5q-31 0 -61.5 7.5t-56 19t-44 25t-26.5 25.5l56 75q10 -11 27 -21t36.5 -18t39.5 -12.5t37 -4.5q25 0 42 10.5t17 31.5z" />
    <glyph glyph-name="t" unicode="t" horiz-adv-x="360" 
d="M54 575h115v-125h145v-108h-145v-164q0 -37 12.5 -59t41.5 -22q23 0 40 8.5t29 17.5l35 -89q-20 -17 -54.5 -30.5t-78.5 -13.5q-77 0 -108.5 47t-31.5 134v404z" />
    <glyph glyph-name="u" unicode="u" horiz-adv-x="535" 
d="M471 0h-115v55q-20 -25 -55.5 -45.5t-88.5 -20.5q-33 0 -62 11t-50 33.5t-33.5 58t-12.5 83.5v275h115v-251q0 -45 19 -74t67 -29q29 0 55 14.5t46 40.5v299h115v-450z" />
    <glyph glyph-name="v" unicode="v" horiz-adv-x="481" 
d="M289 -2h-85l-207 452h137l83 -193q9 -20 18.5 -48t15.5 -54q6 26 15 54t18 50l78 191h121z" />
    <glyph glyph-name="w" unicode="w" horiz-adv-x="721" 
d="M574 -2h-103l-96 250q-5 13 -8 26.5t-7 26.5q-6 -29 -16 -55l-95 -248h-98l-146 452h123l72 -245q5 -17 7.5 -30.5t5.5 -29.5q4 14 7 27.5t10 32.5l84 245h102l87 -244q5 -15 9 -30.5t8 -31.5q3 16 6.5 32t7.5 33l66 241h116z" />
    <glyph glyph-name="x" unicode="x" horiz-adv-x="522" 
d="M344 235l160 -235h-140l-105 162l-109 -162h-133l160 229l-150 221h141l95 -149l98 149h133z" />
    <glyph glyph-name="y" unicode="y" horiz-adv-x="503" 
d="M321 0q-25 -60 -46 -99t-41 -61.5t-41 -31t-46 -8.5q-31 0 -54 10.5t-43 24.5l37 87q9 -5 21 -10.5t26 -5.5q41 0 69 70l10 24l-208 450h138l105 -246q7 -17 12 -32.5t10 -32.5q3 16 6.5 32.5t9.5 33.5l81 245h131z" />
    <glyph glyph-name="z" unicode="z" horiz-adv-x="490" 
d="M57 450h390v-83l-244 -260h239v-107h-400v83l244 259h-229v108z" />
    <glyph glyph-name="braceleft" unicode="{" horiz-adv-x="362" 
d="M110 77q0 30 -8.5 49t-21.5 30t-29 15t-31 4v100q13 0 29 4.5t29.5 17t22.5 34t9 54.5v112q0 77 34.5 115t122.5 38h75v-108h-46q-40 0 -55.5 -17.5t-15.5 -67.5v-117q0 -49 -20.5 -79t-54.5 -35q32 -4 53.5 -30t21.5 -84v-119q0 -46 17.5 -66t59.5 -20h40v-107h-82
q-72 0 -111 33t-39 113v131z" />
    <glyph glyph-name="bar" unicode="|" horiz-adv-x="340" 
d="M112 700h115v-700h-115v700z" />
    <glyph glyph-name="braceright" unicode="}" horiz-adv-x="362" 
d="M252 -54q0 -80 -39 -113t-110 -33h-83v107h40q42 0 59.5 20t17.5 66v119q0 58 21.5 84t53.5 30q-34 5 -54.5 35t-20.5 79v117q0 50 -15.5 67.5t-55.5 17.5h-46v108h75q44 0 74 -9.5t48.5 -28.5t26.5 -48t8 -67v-112q0 -33 9 -54.5t22.5 -34t29 -17t29.5 -4.5v-100
q-15 0 -31 -4t-29 -15t-21.5 -30t-8.5 -49v-131z" />
    <glyph glyph-name="asciitilde" unicode="~" 
d="M42 362q32 36 70 58t76 22q31 0 60 -10.5t58 -23.5t57.5 -23.5t57.5 -10.5q23 0 47 13t41 32l45 -79q-29 -27 -64 -46.5t-70 -19.5q-30 0 -59 10.5t-57 23.5t-55.5 23.5t-53.5 10.5q-32 0 -58 -17.5t-45 -36.5z" />
    <glyph glyph-name="uni00A0" unicode="&#xa0;" horiz-adv-x="212" 
 />
    <glyph glyph-name="exclamdown" unicode="&#xa1;" horiz-adv-x="310" 
d="M216 -244h-122v458h122v-458zM232 381q0 -13 -5.5 -26.5t-16 -24t-25 -17t-33.5 -6.5q-16 0 -29.5 6.5t-23 17t-15 24t-5.5 26.5q0 15 5.5 29.5t15 26t23 18t29.5 6.5q38 0 59 -24.5t21 -55.5z" />
    <glyph glyph-name="cent" unicode="&#xa2;" 
d="M510 67q-23 -30 -57 -48.5t-75 -25.5v-113h-115v117q-81 18 -128.5 78t-47.5 150q0 42 12.5 79.5t35.5 68t55.5 51.5t72.5 30v110h115v-107q37 -6 68.5 -20t54.5 -37l-54 -91q-26 25 -53.5 34.5t-58.5 9.5q-24 0 -46.5 -9t-40 -25.5t-28 -40t-10.5 -53.5t10.5 -54
t28.5 -40.5t41.5 -25.5t49.5 -9q37 0 65.5 15.5t50.5 39.5z" />
    <glyph glyph-name="sterling" unicode="&#xa3;" 
d="M68 357h80q-8 18 -17.5 35t-17.5 36t-13 40t-5 47q0 41 16.5 76t46.5 61t71.5 41t91.5 15q66 0 114.5 -21.5t81.5 -57.5l-63 -90q-30 28 -60 41t-68 13q-45 0 -73 -25t-28 -62q0 -23 6 -41.5t15 -35.5t19 -34t17 -38h150v-92h-140q-5 -33 -20.5 -59.5t-34.5 -48.5
q22 -5 44.5 -13t44 -15.5t43.5 -12.5t44 -5q28 0 53.5 8.5t54.5 36.5l51 -90q-32 -33 -74 -51.5t-87 -18.5q-29 0 -57.5 8t-56.5 18t-56.5 18t-57.5 8t-55.5 -15.5t-50.5 -39.5l-46 92q41 48 94 67q20 26 33 53.5t14 59.5h-104v92z" />
    <glyph glyph-name="currency" unicode="&#xa4;" 
d="M68 342q0 70 35 125l-77 79l70 70l78 -79q26 15 57 23.5t67 8.5t66.5 -8.5t56.5 -23.5l81 80l70 -70l-79 -79q17 -28 26.5 -60t9.5 -66q0 -33 -9 -65t-26 -59l77 -76l-71 -71l-77 77q-53 -33 -125 -33t-125 33l-79 -80l-71 71l79 79q-17 28 -25.5 59.5t-8.5 64.5z
M175 342q0 -26 8.5 -49t24 -40.5t38.5 -27.5t52 -10q30 0 53 10t38.5 27.5t23.5 40.5t8 49q0 57 -32.5 92t-90.5 35q-57 0 -90 -35t-33 -92z" />
    <glyph glyph-name="yen" unicode="&#xa5;" 
d="M66 385h118l-173 315h140l151 -293l150 293h133l-176 -315h121v-93h-172v-82h172v-93h-172v-117h-122v117h-170v93h170v82h-170v93z" />
    <glyph glyph-name="brokenbar" unicode="&#xa6;" horiz-adv-x="340" 
d="M112 440v260h115v-260h-115zM227 260v-260h-115v260h115z" />
    <glyph glyph-name="section" unicode="&#xa7;" horiz-adv-x="524" 
d="M57 249q0 60 31 106.5t91 66.5q-31 20 -51.5 54t-20.5 81q0 28 11 54t32.5 46t53.5 31.5t74 11.5q49 0 85 -20.5t59 -49.5l-69 -77q-14 16 -29.5 27.5t-41.5 11.5q-24 0 -42 -17t-18 -41q0 -34 20 -58t52 -43q42 -5 74 -21t54 -40.5t33 -55.5t11 -67q0 -60 -30.5 -106.5
t-90.5 -66.5q30 -20 49.5 -54t19.5 -79q0 -29 -11 -55t-32.5 -45.5t-53.5 -31t-74 -11.5q-48 0 -84 20.5t-59 49.5l69 77q14 -16 29.5 -28t40.5 -12t42.5 17.5t17.5 41.5q0 35 -19 57.5t-52 41.5q-42 5 -73.5 21t-53.5 40.5t-33 56t-11 66.5zM172 249q0 -15 6 -30.5t17 -28
t28 -20t39 -7.5q23 0 40 7.5t28 19.5t16 27.5t5 31.5t-5.5 31.5t-17 27.5t-28 19.5t-38.5 7.5t-38.5 -7.5t-28 -19.5t-17.5 -27.5t-6 -31.5z" />
    <glyph glyph-name="dieresis" unicode="&#xa8;" horiz-adv-x="443" 
d="M60 599q0 30 19.5 47t45.5 17q23 0 41.5 -17t18.5 -47q0 -32 -18.5 -49.5t-41.5 -17.5q-26 0 -45.5 17.5t-19.5 49.5zM259 599q0 30 19 47t45 17q23 0 41.5 -17t18.5 -47q0 -32 -18.5 -49.5t-41.5 -17.5q-26 0 -45 17.5t-19 49.5z" />
    <glyph glyph-name="copyright" unicode="&#xa9;" horiz-adv-x="1018" 
d="M72 221q0 91 33.5 171t92.5 138.5t138.5 92.5t172.5 34t172.5 -34t138 -92.5t92 -138.5t33.5 -171q0 -92 -33.5 -171.5t-92 -138.5t-138 -93t-172.5 -34t-172.5 34t-138.5 93t-92.5 138.5t-33.5 171.5zM172 220q0 -69 25.5 -130t70.5 -107t107 -72.5t135 -26.5
q72 0 133.5 26.5t106.5 72.5t70 107t25 130q0 70 -25 131t-70 107t-106.5 72.5t-133.5 26.5q-73 0 -135 -26.5t-107 -72.5t-70.5 -107t-25.5 -131zM695 67q-29 -38 -76.5 -58t-102.5 -20t-100 17t-77 48t-49.5 74.5t-17.5 96.5q0 49 17 92t48 75t74 50.5t94 18.5
q56 0 102.5 -14.5t78.5 -46.5l-54 -91q-26 25 -53.5 34.5t-58.5 9.5q-24 0 -46.5 -9t-40 -25.5t-28 -40t-10.5 -53.5t10.5 -54t28.5 -40.5t41.5 -25.5t49.5 -9q37 0 65.5 15.5t50.5 39.5z" />
    <glyph glyph-name="ordfeminine" unicode="&#xaa;" horiz-adv-x="445" 
d="M81 620q23 14 57.5 26t88.5 12q29 0 56.5 -8t49 -24.5t34.5 -42.5t13 -61v-215h-100v43q-18 -21 -45.5 -34.5t-78.5 -13.5q-26 0 -46.5 8.5t-34.5 23.5t-22 35t-8 42q0 57 34 86.5t95 29.5q62 0 106 -21q-2 36 -21.5 51.5t-51.5 15.5q-29 0 -50.5 -6t-35.5 -14zM207 387
q20 0 38.5 7t34.5 18v31q-16 6 -34 10t-37 4q-29 0 -43 -10t-14 -25t13 -25t42 -10z" />
    <glyph glyph-name="guillemotleft" unicode="&#xab;" horiz-adv-x="561" 
d="M247 248v4l197 226l75 -67l-139 -161l138 -163l-78 -65zM37 248v4l197 226l75 -67l-139 -161l138 -163l-78 -65z" />
    <glyph glyph-name="logicalnot" unicode="&#xac;" 
d="M51 410h494v-231h-100v131h-394v100z" />
    <glyph glyph-name="uni00AD" unicode="&#xad;" horiz-adv-x="376" 
d="M62 327h252v-107h-252v107z" />
    <glyph glyph-name="registered" unicode="&#xae;" horiz-adv-x="663" 
d="M45 497q0 59 22.5 111t61.5 90.5t91.5 61t112.5 22.5q59 0 111 -22.5t90.5 -61t61 -90.5t22.5 -111q0 -60 -22.5 -112.5t-61 -91.5t-90.5 -61.5t-111 -22.5q-60 0 -112.5 22.5t-91.5 61.5t-61.5 91.5t-22.5 112.5zM137 496q0 -40 15.5 -75.5t41.5 -61.5t61.5 -41.5
t75.5 -15.5t75.5 15.5t61.5 41.5t41.5 61.5t15.5 75.5t-15.5 75.5t-41.5 61.5t-61.5 41.5t-75.5 15.5t-75.5 -15.5t-61.5 -41.5t-41.5 -61.5t-15.5 -75.5zM221 360v280h117q60 0 87 -25.5t27 -67.5q0 -30 -16 -51.5t-37 -29.5l58 -106h-89l-43 88h-27v-88h-77zM298 585v-82
h29q23 0 35 13t12 30q0 18 -11.5 28.5t-35.5 10.5h-29z" />
    <glyph glyph-name="macron" unicode="&#xaf;" horiz-adv-x="399" 
d="M60 642h279v-92h-279v92z" />
    <glyph glyph-name="degree" unicode="&#xb0;" horiz-adv-x="425" 
d="M45 568q0 36 13 67t35.5 53.5t53 35.5t64.5 13q35 0 65.5 -12t53.5 -33.5t36.5 -51.5t13.5 -66t-13.5 -67t-36.5 -54.5t-53.5 -37t-65.5 -13.5q-34 0 -64.5 12.5t-53 35t-35.5 53t-13 65.5zM145 570q0 -28 20 -48t47 -20q28 0 48 20t20 48t-20 47.5t-48 19.5
q-27 0 -47 -19.5t-20 -47.5z" />
    <glyph glyph-name="plusminus" unicode="&#xb1;" 
d="M66 502h177v181h108v-181h179v-100h-179v-103h-108v103h-177v100zM66 255h464v-100h-464v100z" />
    <glyph glyph-name="uni00B2" unicode="&#xb2;" horiz-adv-x="363" 
d="M30 423q29 17 61 36.5t59 40t44.5 41t17.5 39.5q0 18 -11.5 28.5t-31.5 10.5q-21 0 -36 -16t-18 -34l-83 29q8 49 46.5 77.5t100.5 28.5q69 0 104.5 -31t35.5 -80q0 -33 -18 -59t-43.5 -45.5t-52.5 -33t-45 -20.5h175v-85h-305v73z" />
    <glyph glyph-name="uni00B3" unicode="&#xb3;" horiz-adv-x="361" 
d="M175 344q-51 0 -94 18t-64 56l58 53q10 -18 33.5 -32t49.5 -14q32 0 46.5 10t14.5 25q0 13 -13.5 22.5t-45.5 9.5h-30v70h28q23 0 35.5 9.5t12.5 24.5q0 13 -11.5 21t-33.5 8q-30 0 -51 -12.5t-34 -28.5l-48 55q17 26 53.5 46.5t99.5 20.5q58 0 95.5 -23.5t37.5 -65.5
q0 -32 -21 -53t-56 -29v-1q45 -3 67 -27t22 -56q0 -25 -12.5 -45t-33 -33.5t-48 -21t-57.5 -7.5z" />
    <glyph glyph-name="acute" unicode="&#xb4;" horiz-adv-x="315" 
d="M129 517l-69 48l105 165l90 -68z" />
    <glyph glyph-name="uni00B5" unicode="&#xb5;" horiz-adv-x="542" 
d="M478 0h-115v55q-20 -25 -55.5 -45.5t-88.5 -20.5q-21 0 -43 5v-194h-115v650h115v-260q2 -42 21.5 -68t64.5 -26q29 0 55 14.5t46 40.5v299h115v-450z" />
    <glyph glyph-name="uni00B5" unicode="&#x3bc;" horiz-adv-x="542" 
d="M478 0h-115v55q-20 -25 -55.5 -45.5t-88.5 -20.5q-21 0 -43 5v-194h-115v650h115v-260q2 -42 21.5 -68t64.5 -26q29 0 55 14.5t46 40.5v299h115v-450z" />
    <glyph glyph-name="paragraph" unicode="&#xb6;" horiz-adv-x="491" 
d="M37 481q0 51 17 91.5t46.5 69t70 43.5t88.5 15h207v-108h-94v-584q0 -216 -187 -216q-40 0 -75.5 14.5t-54.5 34.5l45 83q12 -9 32.5 -17t44.5 -8t39.5 9t24.5 24t12.5 35.5t3.5 44.5v251q-43 0 -82.5 15t-70 43t-49 68.5t-18.5 91.5z" />
    <glyph glyph-name="periodcentered" unicode="&#xb7;" horiz-adv-x="212" 
d="M29 302q0 13 5.5 26.5t16 24t25 17t33.5 6.5q16 0 29.5 -6.5t23 -17t15 -24t5.5 -26.5q0 -15 -5.5 -29.5t-15 -26t-23 -18t-29.5 -6.5q-38 0 -59 24.5t-21 55.5z" />
    <glyph glyph-name="cedilla" unicode="&#xb8;" horiz-adv-x="378" 
d="M94 -112q14 -11 32.5 -18.5t37.5 -7.5q17 0 28 6.5t11 18.5q0 14 -9 21t-32 7h-6v85h58v-35q104 -6 104 -85q0 -38 -34.5 -63t-103.5 -25q-48 0 -75.5 14.5t-44.5 27.5z" />
    <glyph glyph-name="uni00B9" unicode="&#xb9;" horiz-adv-x="269" 
d="M129 699h72v-349h-100v234l-48 -28l-37 68z" />
    <glyph glyph-name="ordmasculine" unicode="&#xba;" horiz-adv-x="499" 
d="M52 480q0 40 14.5 73t41 56.5t62.5 36t79 12.5t79 -12.5t62 -36t41 -56.5t15 -73t-15 -73t-41 -56.5t-62 -36.5t-79 -13t-79 13t-62.5 36.5t-41 56.5t-14.5 73zM160 480q0 -40 26 -63t63 -23q39 0 64.5 23t25.5 63q0 39 -26 62t-64 23t-63.5 -23t-25.5 -62z" />
    <glyph glyph-name="guillemotright" unicode="&#xbb;" horiz-adv-x="561" 
d="M331 22l-78 65l138 163l-139 161l75 67l197 -226v-4zM121 22l-78 65l138 163l-139 161l75 67l197 -226v-4z" />
    <glyph glyph-name="onequarter" unicode="&#xbc;" horiz-adv-x="693" 
d="M134 699h72v-349h-100v234l-48 -28l-37 68zM550 711l65 -49l-504 -673l-66 46zM525 70h-193v67l155 213h95l-148 -202h91v77h92v-77h56v-78h-56v-70h-92v70z" />
    <glyph glyph-name="onehalf" unicode="&#xbd;" horiz-adv-x="710" 
d="M134 699h72v-349h-100v234l-48 -28l-37 68zM540 711l65 -49l-504 -673l-66 46zM365 73q29 17 61 36.5t59 40t44.5 41t17.5 39.5q0 18 -11.5 28.5t-31.5 10.5q-21 0 -36 -16t-18 -34l-83 29q8 49 46.5 77.5t100.5 28.5q69 0 104.5 -31t35.5 -80q0 -33 -18 -59t-43.5 -45.5
t-52.5 -33t-45 -20.5h175v-85h-305v73z" />
    <glyph glyph-name="threequarters" unicode="&#xbe;" horiz-adv-x="753" 
d="M620 711l65 -49l-504 -673l-66 46zM585 70h-193v67l155 213h95l-148 -202h91v77h92v-77h56v-78h-56v-70h-92v70zM182 344q-51 0 -94 18t-64 56l58 53q10 -18 33.5 -32t49.5 -14q32 0 46.5 10t14.5 25q0 13 -13.5 22.5t-45.5 9.5h-30v70h28q23 0 35.5 9.5t12.5 24.5
q0 13 -11.5 21t-33.5 8q-30 0 -51 -12.5t-34 -28.5l-48 55q17 26 53.5 46.5t99.5 20.5q58 0 95.5 -23.5t37.5 -65.5q0 -32 -21 -53t-56 -29v-1q45 -3 67 -27t22 -56q0 -25 -12.5 -45t-33 -33.5t-48 -21t-57.5 -7.5z" />
    <glyph glyph-name="questiondown" unicode="&#xbf;" horiz-adv-x="473" 
d="M148 -54q0 -18 7 -33.5t19.5 -27t30 -18.5t37.5 -7q42 0 70.5 16t52.5 48l68 -77q-27 -44 -78.5 -73t-119.5 -29q-50 0 -89 14t-66 38t-41 56t-14 68q0 49 15 83t36.5 58.5t46.5 43t45.5 37.5t31.5 41t6 54l105 1q7 -44 -2 -73.5t-27 -51t-41.5 -38.5t-44 -34.5
t-34.5 -40t-14 -55.5zM333 381q0 -13 -5.5 -26.5t-15.5 -24t-25 -17t-33 -6.5q-17 0 -30.5 6.5t-23 17t-15 24t-5.5 26.5q0 31 20.5 55.5t53.5 24.5q37 0 58 -24.5t21 -55.5z" />
    <glyph glyph-name="Agrave" unicode="&#xc0;" horiz-adv-x="715" 
d="M303 702h108l296 -702h-131l-73 179h-299l-73 -179h-124zM251 294h205l-102 249zM185 812l43 99l214 -111l-32 -69z" />
    <glyph glyph-name="Aacute" unicode="&#xc1;" horiz-adv-x="715" 
d="M303 702h108l296 -702h-131l-73 179h-299l-73 -179h-124zM251 294h205l-102 249zM304 731l-32 69l214 111l43 -99z" />
    <glyph glyph-name="Acircumflex" unicode="&#xc2;" horiz-adv-x="715" 
d="M303 702h108l296 -702h-131l-73 179h-299l-73 -179h-124zM251 294h205l-102 249zM353 904h4l179 -111l-45 -65l-136 71l-136 -71l-41 64z" />
    <glyph glyph-name="Atilde" unicode="&#xc3;" horiz-adv-x="715" 
d="M303 702h108l296 -702h-131l-73 179h-299l-73 -179h-124zM251 294h205l-102 249zM176 826q22 25 52.5 39.5t59.5 14.5q22 0 40 -5.5t34 -12t32.5 -12t36.5 -5.5q17 0 37 6t39 26l31 -73q-41 -59 -115 -59q-19 0 -36 5.5t-34 12t-35.5 12t-39.5 5.5q-33 0 -66 -27z" />
    <glyph glyph-name="Adieresis" unicode="&#xc4;" horiz-adv-x="715" 
d="M303 702h108l296 -702h-131l-73 179h-299l-73 -179h-124zM251 294h205l-102 249zM167 825q0 29 22.5 45.5t54.5 16.5q27 0 49 -16.5t22 -45.5q0 -32 -22 -49t-49 -17q-32 0 -54.5 17t-22.5 49zM399 825q0 29 22.5 45.5t54.5 16.5q28 0 49.5 -16.5t21.5 -45.5
q0 -32 -21.5 -49t-49.5 -17q-32 0 -54.5 17t-22.5 49z" />
    <glyph glyph-name="Aring" unicode="&#xc5;" horiz-adv-x="715" 
d="M216 800q0 28 11 48.5t29.5 33.5t44 19.5t54.5 6.5q30 0 56 -6.5t45.5 -19.5t30.5 -33.5t11 -48.5q0 -41 -23.5 -66.5t-61.5 -36.5l294 -697h-131l-73 179h-299l-73 -179h-124l294 697q-38 11 -61.5 36t-23.5 67zM251 294h205l-102 249zM301 800q0 -24 16 -35.5t39 -11.5
q24 0 40.5 11.5t16.5 35.5t-16.5 34.5t-40.5 10.5q-23 0 -39 -10.5t-16 -34.5z" />
    <glyph glyph-name="AE" unicode="&#xc6;" horiz-adv-x="951" 
d="M473 181h-233l-126 -181h-142l503 700h403v-115h-282v-174h252v-115h-252v-181h292v-115h-415v181zM321 296h152v218z" />
    <glyph glyph-name="Ccedilla" unicode="&#xc7;" horiz-adv-x="655" 
d="M291 -105q13 -11 34 -22t40 -11q17 0 28 6.5t11 18.5q0 14 -9 21t-32 7h-6v77q-70 7 -127.5 36t-98.5 75.5t-63.5 109t-22.5 137.5t23.5 141t69 115t112 77t153.5 28q69 0 123.5 -19.5t89.5 -51.5l-55 -91q-32 21 -68.5 34t-89.5 13q-49 0 -90.5 -17t-72 -49t-48 -77.5
t-17.5 -102.5q0 -55 17.5 -100t49.5 -77.5t76.5 -50.5t98.5 -18q45 0 87.5 14t78.5 42l47 -92q-32 -35 -90.5 -56t-124.5 -23v-24q59 -3 85 -25t26 -60t-34.5 -63t-98.5 -25q-57 0 -89.5 16t-49.5 29z" />
    <glyph glyph-name="Egrave" unicode="&#xc8;" horiz-adv-x="575" 
d="M97 700h405v-115h-282v-174h252v-115h-252v-181h292v-115h-415v700zM137 812l43 99l214 -111l-32 -69z" />
    <glyph glyph-name="Eacute" unicode="&#xc9;" horiz-adv-x="575" 
d="M97 700h405v-115h-282v-174h252v-115h-252v-181h292v-115h-415v700zM249 731l-32 69l214 111l43 -99z" />
    <glyph glyph-name="Ecircumflex" unicode="&#xca;" horiz-adv-x="575" 
d="M97 700h405v-115h-282v-174h252v-115h-252v-181h292v-115h-415v700zM296 904h4l179 -111l-45 -65l-136 71l-136 -71l-41 64z" />
    <glyph glyph-name="Edieresis" unicode="&#xcb;" horiz-adv-x="575" 
d="M97 700h405v-115h-282v-174h252v-115h-252v-181h292v-115h-415v700zM113 825q0 29 22.5 45.5t54.5 16.5q27 0 49 -16.5t22 -45.5q0 -32 -22 -49t-49 -17q-32 0 -54.5 17t-22.5 49zM345 825q0 29 22.5 45.5t54.5 16.5q28 0 49.5 -16.5t21.5 -45.5q0 -32 -21.5 -49
t-49.5 -17q-32 0 -54.5 17t-22.5 49z" />
    <glyph glyph-name="Igrave" unicode="&#xcc;" horiz-adv-x="347" 
d="M112 700h123v-700h-123v700zM-8 812l43 99l214 -111l-32 -69z" />
    <glyph glyph-name="Iacute" unicode="&#xcd;" horiz-adv-x="347" 
d="M112 700h123v-700h-123v700zM132 731l-32 69l214 111l43 -99z" />
    <glyph glyph-name="Icircumflex" unicode="&#xce;" horiz-adv-x="347" 
d="M112 700h123v-700h-123v700zM169 904h4l179 -111l-45 -65l-136 71l-136 -71l-41 64z" />
    <glyph glyph-name="Idieresis" unicode="&#xcf;" horiz-adv-x="347" 
d="M112 700h123v-700h-123v700zM-17 825q0 29 22.5 45.5t54.5 16.5q27 0 49 -16.5t22 -45.5q0 -32 -22 -49t-49 -17q-32 0 -54.5 17t-22.5 49zM215 825q0 29 22.5 45.5t54.5 16.5q28 0 49.5 -16.5t21.5 -45.5q0 -32 -21.5 -49t-49.5 -17q-32 0 -54.5 17t-22.5 49z" />
    <glyph glyph-name="Eth" unicode="&#xd0;" horiz-adv-x="749" 
d="M10 405h95v295h13q16 0 40.5 0.5t52 1t54 1t46.5 0.5q105 0 179.5 -28t122 -75.5t69.5 -110.5t22 -132q0 -74 -25 -139.5t-75.5 -114t-125.5 -77t-175 -28.5q-16 0 -37.5 0.5t-46.5 0.5t-50.5 0.5t-49.5 0.5h-14v297h-95v108zM309 588q-23 0 -42 -0.5t-40 -2.5v-180h177
v-108h-177v-182q26 -2 46.5 -2h33.5q63 0 113 17.5t84 49t52 76.5t18 101q0 53 -18 95.5t-52 72.5t-83 46.5t-112 16.5z" />
    <glyph glyph-name="Ntilde" unicode="&#xd1;" horiz-adv-x="792" 
d="M597 0l-385 485v-485h-115v700h98l385 -487v487h115v-700h-98zM222 826q22 25 52.5 39.5t59.5 14.5q22 0 40 -5.5t34 -12t32.5 -12t36.5 -5.5q17 0 37 6t39 26l31 -73q-41 -59 -115 -59q-19 0 -36 5.5t-34 12t-35.5 12t-39.5 5.5q-33 0 -66 -27z" />
    <glyph glyph-name="Ograve" unicode="&#xd2;" horiz-adv-x="819" 
d="M45 350q0 76 26.5 142t74.5 114.5t115 76.5t148 28q78 0 145 -26t115.5 -73t76.5 -113.5t28 -148.5q0 -79 -28 -145t-76.5 -114t-115.5 -75t-145 -27t-144.5 25.5t-115.5 73t-76.5 114t-27.5 148.5zM175 350q0 -53 18 -98t49.5 -78t74.5 -51.5t92 -18.5q55 0 98.5 19
t74 52t46.5 78t16 97q0 54 -18 99.5t-50 78t-75 50.5t-92 18q-50 0 -93 -18t-74.5 -50.5t-49 -78t-17.5 -99.5zM257 812l43 99l214 -111l-32 -69z" />
    <glyph glyph-name="Oacute" unicode="&#xd3;" horiz-adv-x="819" 
d="M45 350q0 76 26.5 142t74.5 114.5t115 76.5t148 28q78 0 145 -26t115.5 -73t76.5 -113.5t28 -148.5q0 -79 -28 -145t-76.5 -114t-115.5 -75t-145 -27t-144.5 25.5t-115.5 73t-76.5 114t-27.5 148.5zM175 350q0 -53 18 -98t49.5 -78t74.5 -51.5t92 -18.5q55 0 98.5 19
t74 52t46.5 78t16 97q0 54 -18 99.5t-50 78t-75 50.5t-92 18q-50 0 -93 -18t-74.5 -50.5t-49 -78t-17.5 -99.5zM364 731l-32 69l214 111l43 -99z" />
    <glyph glyph-name="Ocircumflex" unicode="&#xd4;" horiz-adv-x="819" 
d="M45 350q0 76 26.5 142t74.5 114.5t115 76.5t148 28q78 0 145 -26t115.5 -73t76.5 -113.5t28 -148.5q0 -79 -28 -145t-76.5 -114t-115.5 -75t-145 -27t-144.5 25.5t-115.5 73t-76.5 114t-27.5 148.5zM175 350q0 -53 18 -98t49.5 -78t74.5 -51.5t92 -18.5q55 0 98.5 19
t74 52t46.5 78t16 97q0 54 -18 99.5t-50 78t-75 50.5t-92 18q-50 0 -93 -18t-74.5 -50.5t-49 -78t-17.5 -99.5zM408 904h4l179 -111l-45 -65l-136 71l-136 -71l-41 64z" />
    <glyph glyph-name="Otilde" unicode="&#xd5;" horiz-adv-x="819" 
d="M45 350q0 76 26.5 142t74.5 114.5t115 76.5t148 28q78 0 145 -26t115.5 -73t76.5 -113.5t28 -148.5q0 -79 -28 -145t-76.5 -114t-115.5 -75t-145 -27t-144.5 25.5t-115.5 73t-76.5 114t-27.5 148.5zM175 350q0 -53 18 -98t49.5 -78t74.5 -51.5t92 -18.5q55 0 98.5 19
t74 52t46.5 78t16 97q0 54 -18 99.5t-50 78t-75 50.5t-92 18q-50 0 -93 -18t-74.5 -50.5t-49 -78t-17.5 -99.5zM224 826q22 25 52.5 39.5t59.5 14.5q22 0 40 -5.5t34 -12t32.5 -12t36.5 -5.5q17 0 37 6t39 26l31 -73q-41 -59 -115 -59q-19 0 -36 5.5t-34 12t-35.5 12
t-39.5 5.5q-33 0 -66 -27z" />
    <glyph glyph-name="Odieresis" unicode="&#xd6;" horiz-adv-x="819" 
d="M45 350q0 76 26.5 142t74.5 114.5t115 76.5t148 28q78 0 145 -26t115.5 -73t76.5 -113.5t28 -148.5q0 -79 -28 -145t-76.5 -114t-115.5 -75t-145 -27t-144.5 25.5t-115.5 73t-76.5 114t-27.5 148.5zM175 350q0 -53 18 -98t49.5 -78t74.5 -51.5t92 -18.5q55 0 98.5 19
t74 52t46.5 78t16 97q0 54 -18 99.5t-50 78t-75 50.5t-92 18q-50 0 -93 -18t-74.5 -50.5t-49 -78t-17.5 -99.5zM216 825q0 29 22.5 45.5t54.5 16.5q27 0 49 -16.5t22 -45.5q0 -32 -22 -49t-49 -17q-32 0 -54.5 17t-22.5 49zM448 825q0 29 22.5 45.5t54.5 16.5
q28 0 49.5 -16.5t21.5 -45.5q0 -32 -21.5 -49t-49.5 -17q-32 0 -54.5 17t-22.5 49z" />
    <glyph glyph-name="multiply" unicode="&#xd7;" 
d="M170 559l128 -128l128 128l71 -71l-128 -128l129 -129l-71 -71l-129 129l-129 -129l-71 71l129 129l-128 128z" />
    <glyph glyph-name="Oslash" unicode="&#xd8;" horiz-adv-x="819" 
d="M45 350q0 76 26.5 142t74.5 114.5t115 76.5t148 28q64 0 120 -18t102 -50l40 39l66 -67l-38 -37q35 -45 55 -102t20 -126q0 -79 -28 -145t-76.5 -114t-115.5 -75t-145 -27q-69 0 -128 19.5t-106 56.5l-42 -41l-67 68l43 42q-31 44 -47.5 98t-16.5 118zM644 350
q0 39 -10 73.5t-27 63.5l-341 -333q29 -24 65 -37t78 -13q55 0 98.5 19t74 52t46.5 78t16 97zM175 350q0 -68 29 -123l338 329q-29 19 -62 29.5t-71 10.5q-50 0 -93 -18t-74.5 -50.5t-49 -78t-17.5 -99.5z" />
    <glyph glyph-name="Ugrave" unicode="&#xd9;" horiz-adv-x="751" 
d="M663 290q0 -80 -23 -137t-61 -93.5t-88.5 -53.5t-105.5 -17q-65 0 -120 19.5t-94.5 58t-61.5 96t-22 134.5v403h123v-377q0 -49 10.5 -89.5t32 -69t54.5 -44.5t78 -16q80 0 118 54t38 157v385h122v-410zM210 812l43 99l214 -111l-32 -69z" />
    <glyph glyph-name="Uacute" unicode="&#xda;" horiz-adv-x="751" 
d="M663 290q0 -80 -23 -137t-61 -93.5t-88.5 -53.5t-105.5 -17q-65 0 -120 19.5t-94.5 58t-61.5 96t-22 134.5v403h123v-377q0 -49 10.5 -89.5t32 -69t54.5 -44.5t78 -16q80 0 118 54t38 157v385h122v-410zM327 731l-32 69l214 111l43 -99z" />
    <glyph glyph-name="Ucircumflex" unicode="&#xdb;" horiz-adv-x="751" 
d="M663 290q0 -80 -23 -137t-61 -93.5t-88.5 -53.5t-105.5 -17q-65 0 -120 19.5t-94.5 58t-61.5 96t-22 134.5v403h123v-377q0 -49 10.5 -89.5t32 -69t54.5 -44.5t78 -16q80 0 118 54t38 157v385h122v-410zM370 904h4l179 -111l-45 -65l-136 71l-136 -71l-41 64z" />
    <glyph glyph-name="Udieresis" unicode="&#xdc;" horiz-adv-x="751" 
d="M663 290q0 -80 -23 -137t-61 -93.5t-88.5 -53.5t-105.5 -17q-65 0 -120 19.5t-94.5 58t-61.5 96t-22 134.5v403h123v-377q0 -49 10.5 -89.5t32 -69t54.5 -44.5t78 -16q80 0 118 54t38 157v385h122v-410zM178 825q0 29 22.5 45.5t54.5 16.5q27 0 49 -16.5t22 -45.5
q0 -32 -22 -49t-49 -17q-32 0 -54.5 17t-22.5 49zM410 825q0 29 22.5 45.5t54.5 16.5q28 0 49.5 -16.5t21.5 -45.5q0 -32 -21.5 -49t-49.5 -17q-32 0 -54.5 17t-22.5 49z" />
    <glyph glyph-name="Yacute" unicode="&#xdd;" horiz-adv-x="629" 
d="M375 292v-292h-123v292l-247 408h140l174 -293l172 293h133zM267 731l-32 69l214 111l43 -99z" />
    <glyph glyph-name="Thorn" unicode="&#xde;" horiz-adv-x="612" 
d="M97 0v700h123v-103q6 0 16.5 0.5t21.5 0.5t21.5 0.5t16.5 0.5q77 0 129 -19t83.5 -50t45 -71.5t13.5 -83.5q0 -45 -16.5 -86t-49 -72.5t-80 -50.5t-110.5 -19q-16 0 -42 1t-49 3v-151h-123zM298 484h-18.5t-21.5 -0.5t-21 -1t-17 -1.5v-214q22 -2 44 -3.5t43 -1.5
q27 0 51 7t41.5 21t27.5 35.5t10 50.5q0 54 -35.5 81t-103.5 27z" />
    <glyph glyph-name="germandbls" unicode="&#xdf;" horiz-adv-x="551" 
d="M398 160q0 22 -12 39t-30 31.5t-39.5 28.5t-39.5 30.5t-30 37.5t-12 49q0 39 13 63t28 41.5t28 33t13 37.5q0 23 -18.5 37.5t-46.5 14.5q-39 0 -57 -27t-18 -86v-491h-115v501q0 111 55 161t152 50q37 0 68 -11t53.5 -29.5t35.5 -44t13 -53.5q0 -38 -12.5 -60t-28 -38.5
t-28 -33t-12.5 -42.5q0 -24 12 -40.5t30 -30.5t39.5 -27.5t39.5 -32.5t30 -45.5t12 -65.5q0 -34 -11.5 -64.5t-32.5 -53.5t-50.5 -36.5t-64.5 -13.5q-52 0 -88.5 17.5t-57.5 41.5l37 88q17 -17 36 -28.5t45 -11.5q27 0 45.5 16t18.5 48z" />
    <glyph glyph-name="agrave" unicode="&#xe0;" horiz-adv-x="463" 
d="M70 418q29 17 71.5 30t87.5 13q50 0 84.5 -12.5t55.5 -36.5t30.5 -58.5t9.5 -79.5v-274h-100v52q-18 -26 -52.5 -42t-80.5 -16q-62 0 -101.5 36t-39.5 102q0 37 13 64.5t35 45.5t52 27t64 9q30 0 57.5 -8.5t44.5 -20.5q2 57 -15.5 86.5t-68.5 29.5q-39 0 -66 -10t-52 -21
zM214 91q36 0 56 13t31 28v46q-29 22 -79 22q-29 0 -50.5 -13.5t-21.5 -42.5q0 -26 18.5 -39.5t45.5 -13.5zM121 660l91 68l104 -163l-68 -48z" />
    <glyph glyph-name="aacute" unicode="&#xe1;" horiz-adv-x="463" 
d="M70 418q29 17 71.5 30t87.5 13q50 0 84.5 -12.5t55.5 -36.5t30.5 -58.5t9.5 -79.5v-274h-100v52q-18 -26 -52.5 -42t-80.5 -16q-62 0 -101.5 36t-39.5 102q0 37 13 64.5t35 45.5t52 27t64 9q30 0 57.5 -8.5t44.5 -20.5q2 57 -15.5 86.5t-68.5 29.5q-39 0 -66 -10t-52 -21
zM214 91q36 0 56 13t31 28v46q-29 22 -79 22q-29 0 -50.5 -13.5t-21.5 -42.5q0 -26 18.5 -39.5t45.5 -13.5zM224 517l-69 48l105 165l90 -68z" />
    <glyph glyph-name="acircumflex" unicode="&#xe2;" horiz-adv-x="463" 
d="M70 418q29 17 71.5 30t87.5 13q50 0 84.5 -12.5t55.5 -36.5t30.5 -58.5t9.5 -79.5v-274h-100v52q-18 -26 -52.5 -42t-80.5 -16q-62 0 -101.5 36t-39.5 102q0 37 13 64.5t35 45.5t52 27t64 9q30 0 57.5 -8.5t44.5 -20.5q2 57 -15.5 86.5t-68.5 29.5q-39 0 -66 -10t-52 -21
zM214 91q36 0 56 13t31 28v46q-29 22 -79 22q-29 0 -50.5 -13.5t-21.5 -42.5q0 -26 18.5 -39.5t45.5 -13.5zM385 572l-54 -68l-101 81l-102 -79l-52 67l153 133h4z" />
    <glyph glyph-name="atilde" unicode="&#xe3;" horiz-adv-x="463" 
d="M70 418q29 17 71.5 30t87.5 13q50 0 84.5 -12.5t55.5 -36.5t30.5 -58.5t9.5 -79.5v-274h-100v52q-18 -26 -52.5 -42t-80.5 -16q-62 0 -101.5 36t-39.5 102q0 37 13 64.5t35 45.5t52 27t64 9q30 0 57.5 -8.5t44.5 -20.5q2 57 -15.5 86.5t-68.5 29.5q-39 0 -66 -10t-52 -21
zM214 91q36 0 56 13t31 28v46q-29 22 -79 22q-29 0 -50.5 -13.5t-21.5 -42.5q0 -26 18.5 -39.5t45.5 -13.5zM55 590q29 36 60.5 52.5t60.5 16.5q18 0 32 -6.5t27.5 -14.5t27 -14.5t28.5 -6.5q23 0 36 8t33 23l39 -58q-28 -31 -58 -48t-59 -17q-17 0 -31 6.5t-27.5 14
t-27.5 14t-31 6.5q-15 0 -31.5 -8.5t-31.5 -19.5z" />
    <glyph glyph-name="adieresis" unicode="&#xe4;" horiz-adv-x="463" 
d="M70 418q29 17 71.5 30t87.5 13q50 0 84.5 -12.5t55.5 -36.5t30.5 -58.5t9.5 -79.5v-274h-100v52q-18 -26 -52.5 -42t-80.5 -16q-62 0 -101.5 36t-39.5 102q0 37 13 64.5t35 45.5t52 27t64 9q30 0 57.5 -8.5t44.5 -20.5q2 57 -15.5 86.5t-68.5 29.5q-39 0 -66 -10t-52 -21
zM214 91q36 0 56 13t31 28v46q-29 22 -79 22q-29 0 -50.5 -13.5t-21.5 -42.5q0 -26 18.5 -39.5t45.5 -13.5zM74 599q0 30 19.5 47t45.5 17q23 0 41.5 -17t18.5 -47q0 -32 -18.5 -49.5t-41.5 -17.5q-26 0 -45.5 17.5t-19.5 49.5zM273 599q0 30 19 47t45 17q23 0 41.5 -17
t18.5 -47q0 -32 -18.5 -49.5t-41.5 -17.5q-26 0 -45 17.5t-19 49.5z" />
    <glyph glyph-name="aring" unicode="&#xe5;" horiz-adv-x="463" 
d="M70 418q29 17 71.5 30t87.5 13q50 0 84.5 -12.5t55.5 -36.5t30.5 -58.5t9.5 -79.5v-274h-100v52q-18 -26 -52.5 -42t-80.5 -16q-62 0 -101.5 36t-39.5 102q0 37 13 64.5t35 45.5t52 27t64 9q30 0 57.5 -8.5t44.5 -20.5q2 57 -15.5 86.5t-68.5 29.5q-39 0 -66 -10t-52 -21
zM214 91q36 0 56 13t31 28v46q-29 22 -79 22q-29 0 -50.5 -13.5t-21.5 -42.5q0 -26 18.5 -39.5t45.5 -13.5zM111 612q0 25 9.5 46.5t26 38t40 26t50.5 9.5q28 0 51.5 -9.5t40.5 -26t26.5 -38t9.5 -46.5q0 -24 -9.5 -45.5t-26.5 -37.5t-40.5 -25.5t-51.5 -9.5
q-27 0 -50.5 9.5t-40 25.5t-26 37.5t-9.5 45.5zM185 613q0 -23 15 -40t39 -17q23 0 37.5 17t14.5 40t-14.5 39.5t-37.5 16.5q-24 0 -39 -16.5t-15 -39.5z" />
    <glyph glyph-name="ae" unicode="&#xe6;" horiz-adv-x="759" 
d="M229 461q49 0 82.5 -12t55.5 -35q29 22 67 34.5t83 12.5q43 0 82 -15t68 -42.5t46 -66t17 -85.5q0 -21 -2 -35t-5 -27h-314v-43q14 -28 46 -45t77 -17q42 0 75 12.5t53 28.5l32 -81q-35 -28 -79.5 -42t-89.5 -14q-108 0 -173 59q-46 -36 -84 -46.5t-70 -10.5
q-79 0 -120 38.5t-41 108.5q0 65 45.5 102.5t118.5 37.5q26 0 57 -7t45 -15q5 53 -16.5 81t-62.5 28q-44 0 -71 -10t-52 -21l-29 84q29 17 71.5 30t87.5 13zM409 267h206q-2 42 -28.5 70t-78.5 28q-29 0 -56.5 -13.5t-44.5 -43.5q1 -8 1.5 -16.5t0.5 -17.5v-7zM214 91
q30 0 51 12t35 26l1 57q-36 14 -79 14q-30 0 -51 -15t-21 -41q0 -22 16 -37.5t48 -15.5z" />
    <glyph glyph-name="ccedilla" unicode="&#xe7;" horiz-adv-x="487" 
d="M173 -112q14 -11 32.5 -18.5t37.5 -7.5q17 0 28 6.5t11 18.5q0 14 -9 21t-32 7h-6v78q-91 13 -145 74.5t-54 157.5q0 49 17 92t48 75t74 50.5t94 18.5q56 0 102.5 -14.5t78.5 -46.5l-54 -91q-26 25 -53.5 34.5t-58.5 9.5q-24 0 -46.5 -9t-40 -25.5t-28 -40t-10.5 -53.5
t10.5 -54t28.5 -40.5t41.5 -25.5t49.5 -9q37 0 65.5 15.5t50.5 39.5l54 -84q-27 -36 -71 -56t-95 -22v-24q104 -6 104 -85q0 -38 -34.5 -63t-103.5 -25q-48 0 -75.5 14.5t-44.5 27.5z" />
    <glyph glyph-name="egrave" unicode="&#xe8;" horiz-adv-x="516" 
d="M450 45q-34 -29 -79 -42.5t-93 -13.5q-54 0 -99 17t-76.5 48t-49 74.5t-17.5 96.5q0 49 16.5 92t47 75t74.5 50.5t100 18.5q43 0 82 -15t68 -42.5t46 -66t17 -85.5q0 -21 -1.5 -35t-5.5 -27h-325q8 -51 44.5 -78t90.5 -27q42 0 74.5 12.5t52.5 28.5zM269 365
q-52 0 -80.5 -26.5t-37.5 -71.5h221q1 42 -26 70t-77 28zM161 660l91 68l104 -163l-68 -48z" />
    <glyph glyph-name="eacute" unicode="&#xe9;" horiz-adv-x="516" 
d="M450 45q-34 -29 -79 -42.5t-93 -13.5q-54 0 -99 17t-76.5 48t-49 74.5t-17.5 96.5q0 49 16.5 92t47 75t74.5 50.5t100 18.5q43 0 82 -15t68 -42.5t46 -66t17 -85.5q0 -21 -1.5 -35t-5.5 -27h-325q8 -51 44.5 -78t90.5 -27q42 0 74.5 12.5t52.5 28.5zM269 365
q-52 0 -80.5 -26.5t-37.5 -71.5h221q1 42 -26 70t-77 28zM274 517l-69 48l105 165l90 -68z" />
    <glyph glyph-name="ecircumflex" unicode="&#xea;" horiz-adv-x="516" 
d="M450 45q-34 -29 -79 -42.5t-93 -13.5q-54 0 -99 17t-76.5 48t-49 74.5t-17.5 96.5q0 49 16.5 92t47 75t74.5 50.5t100 18.5q43 0 82 -15t68 -42.5t46 -66t17 -85.5q0 -21 -1.5 -35t-5.5 -27h-325q8 -51 44.5 -78t90.5 -27q42 0 74.5 12.5t52.5 28.5zM269 365
q-52 0 -80.5 -26.5t-37.5 -71.5h221q1 42 -26 70t-77 28zM423 572l-54 -68l-101 81l-102 -79l-52 67l153 133h4z" />
    <glyph glyph-name="edieresis" unicode="&#xeb;" horiz-adv-x="516" 
d="M450 45q-34 -29 -79 -42.5t-93 -13.5q-54 0 -99 17t-76.5 48t-49 74.5t-17.5 96.5q0 49 16.5 92t47 75t74.5 50.5t100 18.5q43 0 82 -15t68 -42.5t46 -66t17 -85.5q0 -21 -1.5 -35t-5.5 -27h-325q8 -51 44.5 -78t90.5 -27q42 0 74.5 12.5t52.5 28.5zM269 365
q-52 0 -80.5 -26.5t-37.5 -71.5h221q1 42 -26 70t-77 28zM107 599q0 30 19.5 47t45.5 17q23 0 41.5 -17t18.5 -47q0 -32 -18.5 -49.5t-41.5 -17.5q-26 0 -45.5 17.5t-19.5 49.5zM306 599q0 30 19 47t45 17q23 0 41.5 -17t18.5 -47q0 -32 -18.5 -49.5t-41.5 -17.5
q-26 0 -45 17.5t-19 49.5z" />
    <glyph glyph-name="igrave" unicode="&#xec;" horiz-adv-x="277" 
d="M81 450h115v-450h-115v450zM-4 660l91 68l104 -163l-68 -48z" />
    <glyph glyph-name="iacute" unicode="&#xed;" horiz-adv-x="277" 
d="M81 450h115v-450h-115v450zM132 517l-69 48l105 165l90 -68z" />
    <glyph glyph-name="icircumflex" unicode="&#xee;" horiz-adv-x="277" 
d="M81 450h115v-450h-115v450zM293 572l-54 -68l-101 81l-102 -79l-52 67l153 133h4z" />
    <glyph glyph-name="idieresis" unicode="&#xef;" horiz-adv-x="277" 
d="M81 450h115v-450h-115v450zM-23 599q0 30 19.5 47t45.5 17q23 0 41.5 -17t18.5 -47q0 -32 -18.5 -49.5t-41.5 -17.5q-26 0 -45.5 17.5t-19.5 49.5zM176 599q0 30 19 47t45 17q23 0 41.5 -17t18.5 -47q0 -32 -18.5 -49.5t-41.5 -17.5q-26 0 -45 17.5t-19 49.5z" />
    <glyph glyph-name="eth" unicode="&#xf0;" horiz-adv-x="562" 
d="M156 595l82 29q-42 39 -88 68l129 19q34 -20 67 -48l104 37l32 -102l-59 -21q25 -36 44.5 -75.5t32.5 -80t19.5 -80.5t6.5 -77q0 -65 -17.5 -116t-49.5 -86.5t-77 -54t-101 -18.5t-101 18t-77 49.5t-49.5 74.5t-17.5 94t17.5 94t49.5 74.5t77 49.5t101 18
q29 0 54.5 -12.5t40.5 -32.5q-11 33 -26 63.5t-35 58.5l-126 -45zM159 225q0 -57 34.5 -93t87.5 -36q58 0 92.5 46t30.5 127q-11 36 -43 60t-80 24q-26 0 -48 -9t-38.5 -25.5t-26 -40.5t-9.5 -53z" />
    <glyph glyph-name="ntilde" unicode="&#xf1;" horiz-adv-x="546" 
d="M64 450h115v-45q20 22 54 37.5t75 15.5t75 -10.5t58.5 -33.5t38 -60t13.5 -90v-264h-115v244q0 54 -26.5 80t-74.5 26q-29 0 -53.5 -11.5t-44.5 -31.5v-307h-115v450zM99 590q29 36 60.5 52.5t60.5 16.5q18 0 32 -6.5t27.5 -14.5t27 -14.5t28.5 -6.5q23 0 36 8t33 23
l39 -58q-28 -31 -58 -48t-59 -17q-17 0 -31 6.5t-27.5 14t-27.5 14t-31 6.5q-15 0 -31.5 -8.5t-31.5 -19.5z" />
    <glyph glyph-name="ograve" unicode="&#xf2;" horiz-adv-x="562" 
d="M36 225q0 51 17.5 94t49.5 74.5t77 49.5t101 18t101 -18t77 -49.5t49.5 -74.5t17.5 -94t-17.5 -94t-49.5 -74.5t-77 -49.5t-101 -18t-101 18t-77 49.5t-49.5 74.5t-17.5 94zM159 225q0 -57 34.5 -93t87.5 -36q54 0 88.5 35t34.5 94q0 28 -9.5 52t-26 40.5t-39 26
t-48.5 9.5t-48 -9t-38.5 -25.5t-26 -40.5t-9.5 -53zM157 660l91 68l104 -163l-68 -48z" />
    <glyph glyph-name="oacute" unicode="&#xf3;" horiz-adv-x="562" 
d="M36 225q0 51 17.5 94t49.5 74.5t77 49.5t101 18t101 -18t77 -49.5t49.5 -74.5t17.5 -94t-17.5 -94t-49.5 -74.5t-77 -49.5t-101 -18t-101 18t-77 49.5t-49.5 74.5t-17.5 94zM159 225q0 -57 34.5 -93t87.5 -36q54 0 88.5 35t34.5 94q0 28 -9.5 52t-26 40.5t-39 26
t-48.5 9.5t-48 -9t-38.5 -25.5t-26 -40.5t-9.5 -53zM280 517l-69 48l105 165l90 -68z" />
    <glyph glyph-name="ocircumflex" unicode="&#xf4;" horiz-adv-x="562" 
d="M36 225q0 51 17.5 94t49.5 74.5t77 49.5t101 18t101 -18t77 -49.5t49.5 -74.5t17.5 -94t-17.5 -94t-49.5 -74.5t-77 -49.5t-101 -18t-101 18t-77 49.5t-49.5 74.5t-17.5 94zM159 225q0 -57 34.5 -93t87.5 -36q54 0 88.5 35t34.5 94q0 28 -9.5 52t-26 40.5t-39 26
t-48.5 9.5t-48 -9t-38.5 -25.5t-26 -40.5t-9.5 -53zM437 572l-54 -68l-101 81l-102 -79l-52 67l153 133h4z" />
    <glyph glyph-name="otilde" unicode="&#xf5;" horiz-adv-x="562" 
d="M36 225q0 51 17.5 94t49.5 74.5t77 49.5t101 18t101 -18t77 -49.5t49.5 -74.5t17.5 -94t-17.5 -94t-49.5 -74.5t-77 -49.5t-101 -18t-101 18t-77 49.5t-49.5 74.5t-17.5 94zM159 225q0 -57 34.5 -93t87.5 -36q54 0 88.5 35t34.5 94q0 28 -9.5 52t-26 40.5t-39 26
t-48.5 9.5t-48 -9t-38.5 -25.5t-26 -40.5t-9.5 -53zM107 590q29 36 60.5 52.5t60.5 16.5q18 0 32 -6.5t27.5 -14.5t27 -14.5t28.5 -6.5q23 0 36 8t33 23l39 -58q-28 -31 -58 -48t-59 -17q-17 0 -31 6.5t-27.5 14t-27.5 14t-31 6.5q-15 0 -31.5 -8.5t-31.5 -19.5z" />
    <glyph glyph-name="odieresis" unicode="&#xf6;" horiz-adv-x="562" 
d="M36 225q0 51 17.5 94t49.5 74.5t77 49.5t101 18t101 -18t77 -49.5t49.5 -74.5t17.5 -94t-17.5 -94t-49.5 -74.5t-77 -49.5t-101 -18t-101 18t-77 49.5t-49.5 74.5t-17.5 94zM159 225q0 -57 34.5 -93t87.5 -36q54 0 88.5 35t34.5 94q0 28 -9.5 52t-26 40.5t-39 26
t-48.5 9.5t-48 -9t-38.5 -25.5t-26 -40.5t-9.5 -53zM126 599q0 30 19.5 47t45.5 17q23 0 41.5 -17t18.5 -47q0 -32 -18.5 -49.5t-41.5 -17.5q-26 0 -45.5 17.5t-19.5 49.5zM325 599q0 30 19 47t45 17q23 0 41.5 -17t18.5 -47q0 -32 -18.5 -49.5t-41.5 -17.5q-26 0 -45 17.5
t-19 49.5z" />
    <glyph glyph-name="divide" unicode="&#xf7;" 
d="M230 557q0 24 17.5 44.5t50.5 20.5q32 0 49.5 -20.5t17.5 -44.5q0 -26 -17.5 -48t-49.5 -22q-33 0 -50.5 22t-17.5 48zM230 164q0 23 17.5 44.5t50.5 21.5q15 0 27.5 -6t21.5 -15.5t13.5 -21t4.5 -23.5q0 -27 -17.5 -48.5t-49.5 -21.5q-33 0 -50.5 21.5t-17.5 48.5z
M66 410h464v-100h-464v100z" />
    <glyph glyph-name="oslash" unicode="&#xf8;" horiz-adv-x="577" 
d="M84 81q-48 60 -48 144q0 51 18.5 94t52 74.5t80 49.5t102.5 18q47 0 86.5 -12.5t71.5 -35.5l39 36l41 -48l-35 -32q23 -29 36 -65.5t13 -78.5q0 -51 -18.5 -94t-51.5 -74.5t-79.5 -49.5t-102.5 -18q-47 0 -87 12t-72 35l-39 -36l-42 49zM419 225q0 36 -15 63l-188 -173
q32 -19 73 -19q59 0 94.5 35t35.5 94zM159 225q0 -35 14 -63l188 172q-32 19 -72 19q-57 0 -93.5 -34.5t-36.5 -93.5z" />
    <glyph glyph-name="ugrave" unicode="&#xf9;" horiz-adv-x="535" 
d="M471 0h-115v55q-20 -25 -55.5 -45.5t-88.5 -20.5q-33 0 -62 11t-50 33.5t-33.5 58t-12.5 83.5v275h115v-251q0 -45 19 -74t67 -29q29 0 55 14.5t46 40.5v299h115v-450zM139 660l91 68l104 -163l-68 -48z" />
    <glyph glyph-name="uacute" unicode="&#xfa;" horiz-adv-x="535" 
d="M471 0h-115v55q-20 -25 -55.5 -45.5t-88.5 -20.5q-33 0 -62 11t-50 33.5t-33.5 58t-12.5 83.5v275h115v-251q0 -45 19 -74t67 -29q29 0 55 14.5t46 40.5v299h115v-450zM270 517l-69 48l105 165l90 -68z" />
    <glyph glyph-name="ucircumflex" unicode="&#xfb;" horiz-adv-x="535" 
d="M471 0h-115v55q-20 -25 -55.5 -45.5t-88.5 -20.5q-33 0 -62 11t-50 33.5t-33.5 58t-12.5 83.5v275h115v-251q0 -45 19 -74t67 -29q29 0 55 14.5t46 40.5v299h115v-450zM421 572l-54 -68l-101 81l-102 -79l-52 67l153 133h4z" />
    <glyph glyph-name="udieresis" unicode="&#xfc;" horiz-adv-x="535" 
d="M471 0h-115v55q-20 -25 -55.5 -45.5t-88.5 -20.5q-33 0 -62 11t-50 33.5t-33.5 58t-12.5 83.5v275h115v-251q0 -45 19 -74t67 -29q29 0 55 14.5t46 40.5v299h115v-450zM103 599q0 30 19.5 47t45.5 17q23 0 41.5 -17t18.5 -47q0 -32 -18.5 -49.5t-41.5 -17.5
q-26 0 -45.5 17.5t-19.5 49.5zM302 599q0 30 19 47t45 17q23 0 41.5 -17t18.5 -47q0 -32 -18.5 -49.5t-41.5 -17.5q-26 0 -45 17.5t-19 49.5z" />
    <glyph glyph-name="yacute" unicode="&#xfd;" horiz-adv-x="503" 
d="M321 0q-25 -60 -46 -99t-41 -61.5t-41 -31t-46 -8.5q-31 0 -54 10.5t-43 24.5l37 87q9 -5 21 -10.5t26 -5.5q41 0 69 70l10 24l-208 450h138l105 -246q7 -17 12 -32.5t10 -32.5q3 16 6.5 32.5t9.5 33.5l81 245h131zM246 517l-69 48l105 165l90 -68z" />
    <glyph glyph-name="thorn" unicode="&#xfe;" horiz-adv-x="558" 
d="M64 700h115v-286q23 20 58.5 33.5t80.5 13.5q46 0 84 -17t64.5 -47.5t41 -72.5t14.5 -92q0 -51 -17 -95.5t-48 -77.5t-75 -51.5t-98 -18.5q-30 0 -57.5 5.5t-47.5 16.5v-211h-115v900zM282 353q-29 0 -55.5 -13t-47.5 -36v-182q23 -15 44.5 -20.5t50.5 -5.5q30 0 53.5 10
t39.5 28t24.5 42.5t8.5 52.5q0 54 -30.5 89t-87.5 35z" />
    <glyph glyph-name="ydieresis" unicode="&#xff;" horiz-adv-x="503" 
d="M321 0q-25 -60 -46 -99t-41 -61.5t-41 -31t-46 -8.5q-31 0 -54 10.5t-43 24.5l37 87q9 -5 21 -10.5t26 -5.5q41 0 69 70l10 24l-208 450h138l105 -246q7 -17 12 -32.5t10 -32.5q3 16 6.5 32.5t9.5 33.5l81 245h131zM97 599q0 30 19.5 47t45.5 17q23 0 41.5 -17t18.5 -47
q0 -32 -18.5 -49.5t-41.5 -17.5q-26 0 -45.5 17.5t-19.5 49.5zM296 599q0 30 19 47t45 17q23 0 41.5 -17t18.5 -47q0 -32 -18.5 -49.5t-41.5 -17.5q-26 0 -45 17.5t-19 49.5z" />
    <glyph glyph-name="Amacron" unicode="&#x100;" horiz-adv-x="715" 
d="M303 702h108l296 -702h-131l-73 179h-299l-73 -179h-124zM251 294h205l-102 249zM202 852h309v-92h-309v92z" />
    <glyph glyph-name="amacron" unicode="&#x101;" horiz-adv-x="463" 
d="M70 418q29 17 71.5 30t87.5 13q50 0 84.5 -12.5t55.5 -36.5t30.5 -58.5t9.5 -79.5v-274h-100v52q-18 -26 -52.5 -42t-80.5 -16q-62 0 -101.5 36t-39.5 102q0 37 13 64.5t35 45.5t52 27t64 9q30 0 57.5 -8.5t44.5 -20.5q2 57 -15.5 86.5t-68.5 29.5q-39 0 -66 -10t-52 -21
zM214 91q36 0 56 13t31 28v46q-29 22 -79 22q-29 0 -50.5 -13.5t-21.5 -42.5q0 -26 18.5 -39.5t45.5 -13.5zM96 642h279v-92h-279v92z" />
    <glyph glyph-name="Abreve" unicode="&#x102;" horiz-adv-x="715" 
d="M303 702h108l296 -702h-131l-73 179h-299l-73 -179h-124zM251 294h205l-102 249zM219 900q9 -10 22 -21t30 -20.5t39.5 -15.5t51.5 -6q50 0 85 20t55 43l43 -60q-12 -20 -31 -38.5t-42.5 -33t-51.5 -23t-58 -8.5q-35 0 -65 9.5t-55 24.5t-43.5 33.5t-29.5 36.5z" />
    <glyph glyph-name="abreve" unicode="&#x103;" horiz-adv-x="463" 
d="M70 418q29 17 71.5 30t87.5 13q50 0 84.5 -12.5t55.5 -36.5t30.5 -58.5t9.5 -79.5v-274h-100v52q-18 -26 -52.5 -42t-80.5 -16q-62 0 -101.5 36t-39.5 102q0 37 13 64.5t35 45.5t52 27t64 9q30 0 57.5 -8.5t44.5 -20.5q2 57 -15.5 86.5t-68.5 29.5q-39 0 -66 -10t-52 -21
zM214 91q36 0 56 13t31 28v46q-29 22 -79 22q-29 0 -50.5 -13.5t-21.5 -42.5q0 -26 18.5 -39.5t45.5 -13.5zM120 681q8 -9 18 -18.5t23.5 -18t30.5 -14t38 -5.5q38 0 67 17.5t45 37.5l40 -56q-10 -15 -24 -31.5t-32.5 -30t-43.5 -22t-57 -8.5q-33 0 -58.5 10t-45 24.5
t-32.5 30t-20 27.5z" />
    <glyph glyph-name="Aogonek" unicode="&#x104;" horiz-adv-x="715" 
d="M704 -168q-13 -13 -42 -22.5t-61 -9.5q-26 0 -50 5t-42.5 16.5t-30 29t-11.5 43.5q0 42 31 68.5t77 40.5l-72 176h-299l-73 -179h-124l296 702h108l296 -702h-21q-22 0 -41 -6t-33 -16t-22 -22t-8 -24q0 -23 15 -31.5t30 -8.5q12 0 20.5 2t21.5 8zM251 294h205l-102 249z
" />
    <glyph glyph-name="aogonek" unicode="&#x105;" horiz-adv-x="463" 
d="M422 -168q-13 -13 -42 -22.5t-61 -9.5q-26 0 -50 5t-42.5 16.5t-30 29t-11.5 43.5q0 44 36.5 72t87.5 41v45q-18 -26 -52.5 -42t-80.5 -16q-62 0 -101.5 36t-39.5 102q0 37 13 64.5t35 45.5t52 27t64 9q30 0 57.5 -8.5t44.5 -20.5q2 57 -15.5 86.5t-68.5 29.5
q-39 0 -66 -10t-52 -21l-29 84q29 17 71.5 30t87.5 13q50 0 84.5 -12.5t55.5 -36.5t30.5 -58.5t9.5 -79.5v-274q-23 0 -42.5 -6t-34.5 -15.5t-23.5 -21.5t-8.5 -25q0 -23 15 -31.5t30 -8.5q12 0 20.5 2t21.5 8zM214 91q36 0 56 13t31 28v46q-29 22 -79 22q-29 0 -50.5 -13.5
t-21.5 -42.5q0 -26 18.5 -39.5t45.5 -13.5z" />
    <glyph glyph-name="Cacute" unicode="&#x106;" horiz-adv-x="655" 
d="M630 68q-17 -18 -41 -32.5t-53.5 -25t-62.5 -16t-67 -5.5q-80 0 -146.5 25.5t-114 73t-74 114t-26.5 148.5q0 75 23.5 141t69 115t112 77t153.5 28q69 0 123.5 -19.5t89.5 -51.5l-55 -91q-32 21 -68.5 34t-89.5 13q-49 0 -90.5 -17t-72 -49t-48 -77.5t-17.5 -102.5
q0 -55 17.5 -100t49.5 -77.5t76.5 -50.5t98.5 -18q45 0 87.5 14t78.5 42zM332 731l-32 69l214 111l43 -99z" />
    <glyph glyph-name="cacute" unicode="&#x107;" horiz-adv-x="487" 
d="M459 67q-29 -38 -76.5 -58t-102.5 -20t-100 17t-77 48t-49.5 74.5t-17.5 96.5q0 49 17 92t48 75t74 50.5t94 18.5q56 0 102.5 -14.5t78.5 -46.5l-54 -91q-26 25 -53.5 34.5t-58.5 9.5q-24 0 -46.5 -9t-40 -25.5t-28 -40t-10.5 -53.5t10.5 -54t28.5 -40.5t41.5 -25.5
t49.5 -9q37 0 65.5 15.5t50.5 39.5zM265 517l-69 48l105 165l90 -68z" />
    <glyph glyph-name="Ccircumflex" unicode="&#x108;" horiz-adv-x="655" 
d="M630 68q-17 -18 -41 -32.5t-53.5 -25t-62.5 -16t-67 -5.5q-80 0 -146.5 25.5t-114 73t-74 114t-26.5 148.5q0 75 23.5 141t69 115t112 77t153.5 28q69 0 123.5 -19.5t89.5 -51.5l-55 -91q-32 21 -68.5 34t-89.5 13q-49 0 -90.5 -17t-72 -49t-48 -77.5t-17.5 -102.5
q0 -55 17.5 -100t49.5 -77.5t76.5 -50.5t98.5 -18q45 0 87.5 14t78.5 42zM383 904h4l179 -111l-45 -65l-136 71l-136 -71l-41 64z" />
    <glyph glyph-name="ccircumflex" unicode="&#x109;" horiz-adv-x="487" 
d="M459 67q-29 -38 -76.5 -58t-102.5 -20t-100 17t-77 48t-49.5 74.5t-17.5 96.5q0 49 17 92t48 75t74 50.5t94 18.5q56 0 102.5 -14.5t78.5 -46.5l-54 -91q-26 25 -53.5 34.5t-58.5 9.5q-24 0 -46.5 -9t-40 -25.5t-28 -40t-10.5 -53.5t10.5 -54t28.5 -40.5t41.5 -25.5
t49.5 -9q37 0 65.5 15.5t50.5 39.5zM431 572l-54 -68l-101 81l-102 -79l-52 67l153 133h4z" />
    <glyph glyph-name="Cdotaccent" unicode="&#x10a;" horiz-adv-x="655" 
d="M630 68q-17 -18 -41 -32.5t-53.5 -25t-62.5 -16t-67 -5.5q-80 0 -146.5 25.5t-114 73t-74 114t-26.5 148.5q0 75 23.5 141t69 115t112 77t153.5 28q69 0 123.5 -19.5t89.5 -51.5l-55 -91q-32 21 -68.5 34t-89.5 13q-49 0 -90.5 -17t-72 -49t-48 -77.5t-17.5 -102.5
q0 -55 17.5 -100t49.5 -77.5t76.5 -50.5t98.5 -18q45 0 87.5 14t78.5 42zM304 831q0 33 23.5 52t55.5 19q29 0 52 -19t23 -52q0 -36 -23 -55.5t-52 -19.5q-32 0 -55.5 19.5t-23.5 55.5z" />
    <glyph glyph-name="cdotaccent" unicode="&#x10b;" horiz-adv-x="487" 
d="M459 67q-29 -38 -76.5 -58t-102.5 -20t-100 17t-77 48t-49.5 74.5t-17.5 96.5q0 49 17 92t48 75t74 50.5t94 18.5q56 0 102.5 -14.5t78.5 -46.5l-54 -91q-26 25 -53.5 34.5t-58.5 9.5q-24 0 -46.5 -9t-40 -25.5t-28 -40t-10.5 -53.5t10.5 -54t28.5 -40.5t41.5 -25.5
t49.5 -9q37 0 65.5 15.5t50.5 39.5zM203 612q0 31 21.5 49t50.5 18q25 0 45.5 -18t20.5 -49q0 -35 -20.5 -53.5t-45.5 -18.5q-29 0 -50.5 18.5t-21.5 53.5z" />
    <glyph glyph-name="Ccaron" unicode="&#x10c;" horiz-adv-x="655" 
d="M630 68q-17 -18 -41 -32.5t-53.5 -25t-62.5 -16t-67 -5.5q-80 0 -146.5 25.5t-114 73t-74 114t-26.5 148.5q0 75 23.5 141t69 115t112 77t153.5 28q69 0 123.5 -19.5t89.5 -51.5l-55 -91q-32 21 -68.5 34t-89.5 13q-49 0 -90.5 -17t-72 -49t-48 -77.5t-17.5 -102.5
q0 -55 17.5 -100t49.5 -77.5t76.5 -50.5t98.5 -18q45 0 87.5 14t78.5 42zM208 846l45 65l136 -79l135 79l41 -64l-174 -112h-4z" />
    <glyph glyph-name="ccaron" unicode="&#x10d;" horiz-adv-x="487" 
d="M459 67q-29 -38 -76.5 -58t-102.5 -20t-100 17t-77 48t-49.5 74.5t-17.5 96.5q0 49 17 92t48 75t74 50.5t94 18.5q56 0 102.5 -14.5t78.5 -46.5l-54 -91q-26 25 -53.5 34.5t-58.5 9.5q-24 0 -46.5 -9t-40 -25.5t-28 -40t-10.5 -53.5t10.5 -54t28.5 -40.5t41.5 -25.5
t49.5 -9q37 0 65.5 15.5t50.5 39.5zM115 643l54 68l101 -92l102 90l52 -67l-153 -133h-4z" />
    <glyph glyph-name="Dcaron" unicode="&#x10e;" horiz-adv-x="741" 
d="M97 700h13q16 0 41 0.5t52.5 1t54 1t45.5 0.5q105 0 179.5 -28t122 -75.5t69.5 -110.5t22 -132q0 -74 -25 -139.5t-75.5 -114t-125.5 -77t-175 -28.5q-16 0 -37.5 0.5t-46 0.5t-50.5 0.5t-50 0.5h-14v700zM301 588q-22 0 -41 -0.5t-40 -2.5v-470q26 -2 46 -2h33
q63 0 113 17.5t84 49t52 76.5t18 101q0 53 -18 95.5t-52 72.5t-83 46.5t-112 16.5zM156 846l45 65l136 -79l135 79l41 -64l-174 -112h-4z" />
    <glyph glyph-name="dcaron" unicode="&#x10f;" horiz-adv-x="556" 
d="M377 47q-23 -24 -54 -39.5t-75 -15.5q-48 0 -87.5 16.5t-67 46.5t-42.5 72t-15 93q0 53 18 97.5t51 76.5t78.5 49.5t99.5 17.5q30 0 52.5 -5.5t41.5 -16.5v261h115v-700h-115v47zM272 99q32 0 58.5 13t46.5 33v181q-44 27 -89 27q-26 0 -49 -8.5t-41 -25t-28.5 -40.5
t-10.5 -55q0 -30 9 -53.5t24.5 -39t36 -24t43.5 -8.5zM675 700q4 -8 5 -17.5t1 -17.5q0 -35 -9 -63t-23 -49.5t-31.5 -36.5t-35.5 -25l-53 50q21 20 33 49t12 61q0 16 -3 27t-8 22h112z" />
    <glyph glyph-name="Dcroat" unicode="&#x110;" horiz-adv-x="749" 
d="M10 405h95v295h13q16 0 40.5 0.5t52 1t54 1t46.5 0.5q105 0 179.5 -28t122 -75.5t69.5 -110.5t22 -132q0 -74 -25 -139.5t-75.5 -114t-125.5 -77t-175 -28.5q-16 0 -37.5 0.5t-46.5 0.5t-50.5 0.5t-49.5 0.5h-14v297h-95v108zM309 588q-23 0 -42 -0.5t-40 -2.5v-180h177
v-108h-177v-182q26 -2 46.5 -2h33.5q63 0 113 17.5t84 49t52 76.5t18 101q0 53 -18 95.5t-52 72.5t-83 46.5t-112 16.5z" />
    <glyph glyph-name="dcroat" unicode="&#x111;" horiz-adv-x="556" 
d="M247 613h130v87h115v-87h79v-93h-79v-520h-115v47q-23 -24 -54 -39.5t-75 -15.5q-48 0 -87.5 16.5t-67 46.5t-42.5 72t-15 93q0 53 18 97.5t51 76.5t78.5 49.5t99.5 17.5q30 0 52.5 -5.5t41.5 -16.5v81h-130v93zM272 99q32 0 58.5 13t46.5 33v181q-44 27 -89 27
q-26 0 -49 -8.5t-41 -25t-28.5 -40.5t-10.5 -55q0 -30 9 -53.5t24.5 -39t36 -24t43.5 -8.5z" />
    <glyph glyph-name="Emacron" unicode="&#x112;" horiz-adv-x="575" 
d="M97 700h405v-115h-282v-174h252v-115h-252v-181h292v-115h-415v700zM145 852h309v-92h-309v92z" />
    <glyph glyph-name="emacron" unicode="&#x113;" horiz-adv-x="516" 
d="M450 45q-34 -29 -79 -42.5t-93 -13.5q-54 0 -99 17t-76.5 48t-49 74.5t-17.5 96.5q0 49 16.5 92t47 75t74.5 50.5t100 18.5q43 0 82 -15t68 -42.5t46 -66t17 -85.5q0 -21 -1.5 -35t-5.5 -27h-325q8 -51 44.5 -78t90.5 -27q42 0 74.5 12.5t52.5 28.5zM269 365
q-52 0 -80.5 -26.5t-37.5 -71.5h221q1 42 -26 70t-77 28zM125 642h279v-92h-279v92z" />
    <glyph glyph-name="Edotaccent" unicode="&#x116;" horiz-adv-x="575" 
d="M97 700h405v-115h-282v-174h252v-115h-252v-181h292v-115h-415v700zM227 831q0 33 23.5 52t55.5 19q29 0 52 -19t23 -52q0 -36 -23 -55.5t-52 -19.5q-32 0 -55.5 19.5t-23.5 55.5z" />
    <glyph glyph-name="edotaccent" unicode="&#x117;" horiz-adv-x="516" 
d="M450 45q-34 -29 -79 -42.5t-93 -13.5q-54 0 -99 17t-76.5 48t-49 74.5t-17.5 96.5q0 49 16.5 92t47 75t74.5 50.5t100 18.5q43 0 82 -15t68 -42.5t46 -66t17 -85.5q0 -21 -1.5 -35t-5.5 -27h-325q8 -51 44.5 -78t90.5 -27q42 0 74.5 12.5t52.5 28.5zM269 365
q-52 0 -80.5 -26.5t-37.5 -71.5h221q1 42 -26 70t-77 28zM197 612q0 31 21.5 49t50.5 18q25 0 45.5 -18t20.5 -49q0 -35 -20.5 -53.5t-45.5 -18.5q-29 0 -50.5 18.5t-21.5 53.5z" />
    <glyph glyph-name="Eogonek" unicode="&#x118;" horiz-adv-x="575" 
d="M97 700h405v-115h-282v-174h252v-115h-252v-181h292v-115h-5q-22 0 -41 -6t-33 -16t-22 -22t-8 -24q0 -23 15 -31.5t30 -8.5q12 0 20.5 2t21.5 8l35 -70q-13 -13 -42 -22.5t-61 -9.5q-26 0 -50 5t-42.5 16.5t-30 29t-11.5 43.5q0 39 28.5 65.5t70.5 40.5h-290v700z" />
    <glyph glyph-name="eogonek" unicode="&#x119;" horiz-adv-x="516" 
d="M450 45q-13 -11 -27.5 -19.5t-30.5 -15.5q-31 -19 -48.5 -38.5t-17.5 -39.5q0 -23 15 -31.5t30 -8.5q12 0 20.5 2t21.5 8l35 -70q-13 -13 -42 -22.5t-61 -9.5q-26 0 -50 5t-42.5 16.5t-30 29t-11.5 43.5q0 29 20 52.5t55 42.5h-8q-54 0 -99 17t-76.5 48t-49 74.5
t-17.5 96.5q0 49 16.5 92t47 75t74.5 50.5t100 18.5q43 0 82 -15t68 -42.5t46 -66t17 -85.5q0 -21 -1.5 -35t-5.5 -27h-325q8 -51 44.5 -78t90.5 -27q42 0 74.5 12.5t52.5 28.5zM269 365q-52 0 -80.5 -26.5t-37.5 -71.5h221q1 42 -26 70t-77 28z" />
    <glyph glyph-name="Ecaron" unicode="&#x11a;" horiz-adv-x="575" 
d="M97 700h405v-115h-282v-174h252v-115h-252v-181h292v-115h-415v700zM128 846l45 65l136 -79l135 79l41 -64l-174 -112h-4z" />
    <glyph glyph-name="ecaron" unicode="&#x11b;" horiz-adv-x="516" 
d="M450 45q-34 -29 -79 -42.5t-93 -13.5q-54 0 -99 17t-76.5 48t-49 74.5t-17.5 96.5q0 49 16.5 92t47 75t74.5 50.5t100 18.5q43 0 82 -15t68 -42.5t46 -66t17 -85.5q0 -21 -1.5 -35t-5.5 -27h-325q8 -51 44.5 -78t90.5 -27q42 0 74.5 12.5t52.5 28.5zM269 365
q-52 0 -80.5 -26.5t-37.5 -71.5h221q1 42 -26 70t-77 28zM119 643l54 68l101 -92l102 90l52 -67l-153 -133h-4z" />
    <glyph glyph-name="Gcircumflex" unicode="&#x11c;" horiz-adv-x="727" 
d="M388 377h284v-290q-23 -23 -54.5 -41.5t-67 -31t-71.5 -19t-69 -6.5q-86 0 -153.5 25.5t-114.5 73t-72 114t-25 148.5q0 75 24.5 141t70 115t110 77t144.5 28q75 0 128.5 -18.5t96.5 -52.5l-52 -98q-26 25 -69 39.5t-89 14.5q-51 0 -93.5 -16.5t-74 -48t-49 -77.5
t-17.5 -104q0 -56 17 -101.5t48 -77.5t75 -49.5t97 -17.5q20 0 41.5 4t41.5 10.5t36 15.5t26 18v110h-169v115zM383 904h4l179 -111l-45 -65l-136 71l-136 -71l-41 64z" />
    <glyph glyph-name="gcircumflex" unicode="&#x11d;" horiz-adv-x="499" 
d="M5 -61q0 57 40.5 91t105.5 48q-8 14 -8 31q0 19 10 32q-51 20 -79 60.5t-28 90.5q0 34 13.5 64.5t38 53.5t60 37t80.5 14q34 0 63 -8.5t52 -23.5l136 30l4 -92l-75 -17q11 -28 11 -58q0 -34 -13.5 -64t-38.5 -52.5t-60.5 -36t-78.5 -13.5h-8q-2 -5 -2 -9v-8q0 -13 6 -23
h5q49 0 92 -9t74.5 -27t49.5 -45.5t18 -65.5t-18 -65.5t-49.5 -45.5t-74.5 -27t-92 -9t-92 8.5t-74.5 26.5t-49.5 45.5t-18 66.5zM112 -61q0 -26 34 -40.5t93 -14.5t92.5 14t33.5 41q0 25 -31.5 40t-94.5 15q-62 0 -94.5 -15t-32.5 -40zM154 292q0 -32 22.5 -52.5
t61.5 -20.5q37 0 60.5 19.5t23.5 53.5q0 32 -21.5 54t-62.5 22q-39 0 -61.5 -22.5t-22.5 -53.5zM398 572l-54 -68l-101 81l-102 -79l-52 67l153 133h4z" />
    <glyph glyph-name="Gbreve" unicode="&#x11e;" horiz-adv-x="727" 
d="M388 377h284v-290q-23 -23 -54.5 -41.5t-67 -31t-71.5 -19t-69 -6.5q-86 0 -153.5 25.5t-114.5 73t-72 114t-25 148.5q0 75 24.5 141t70 115t110 77t144.5 28q75 0 128.5 -18.5t96.5 -52.5l-52 -98q-26 25 -69 39.5t-89 14.5q-51 0 -93.5 -16.5t-74 -48t-49 -77.5
t-17.5 -104q0 -56 17 -101.5t48 -77.5t75 -49.5t97 -17.5q20 0 41.5 4t41.5 10.5t36 15.5t26 18v110h-169v115zM264 900q9 -10 22 -21t30 -20.5t39.5 -15.5t51.5 -6q50 0 85 20t55 43l43 -60q-12 -20 -31 -38.5t-42.5 -33t-51.5 -23t-58 -8.5q-35 0 -65 9.5t-55 24.5
t-43.5 33.5t-29.5 36.5z" />
    <glyph glyph-name="gbreve" unicode="&#x11f;" horiz-adv-x="499" 
d="M5 -61q0 57 40.5 91t105.5 48q-8 14 -8 31q0 19 10 32q-51 20 -79 60.5t-28 90.5q0 34 13.5 64.5t38 53.5t60 37t80.5 14q34 0 63 -8.5t52 -23.5l136 30l4 -92l-75 -17q11 -28 11 -58q0 -34 -13.5 -64t-38.5 -52.5t-60.5 -36t-78.5 -13.5h-8q-2 -5 -2 -9v-8q0 -13 6 -23
h5q49 0 92 -9t74.5 -27t49.5 -45.5t18 -65.5t-18 -65.5t-49.5 -45.5t-74.5 -27t-92 -9t-92 8.5t-74.5 26.5t-49.5 45.5t-18 66.5zM112 -61q0 -26 34 -40.5t93 -14.5t92.5 14t33.5 41q0 25 -31.5 40t-94.5 15q-62 0 -94.5 -15t-32.5 -40zM154 292q0 -32 22.5 -52.5
t61.5 -20.5q37 0 60.5 19.5t23.5 53.5q0 32 -21.5 54t-62.5 22q-39 0 -61.5 -22.5t-22.5 -53.5zM133 681q8 -9 18 -18.5t23.5 -18t30.5 -14t38 -5.5q38 0 67 17.5t45 37.5l40 -56q-10 -15 -24 -31.5t-32.5 -30t-43.5 -22t-57 -8.5q-33 0 -58.5 10t-45 24.5t-32.5 30
t-20 27.5z" />
    <glyph glyph-name="Gdotaccent" unicode="&#x120;" horiz-adv-x="727" 
d="M388 377h284v-290q-23 -23 -54.5 -41.5t-67 -31t-71.5 -19t-69 -6.5q-86 0 -153.5 25.5t-114.5 73t-72 114t-25 148.5q0 75 24.5 141t70 115t110 77t144.5 28q75 0 128.5 -18.5t96.5 -52.5l-52 -98q-26 25 -69 39.5t-89 14.5q-51 0 -93.5 -16.5t-74 -48t-49 -77.5
t-17.5 -104q0 -56 17 -101.5t48 -77.5t75 -49.5t97 -17.5q20 0 41.5 4t41.5 10.5t36 15.5t26 18v110h-169v115zM299 831q0 33 23.5 52t55.5 19q29 0 52 -19t23 -52q0 -36 -23 -55.5t-52 -19.5q-32 0 -55.5 19.5t-23.5 55.5z" />
    <glyph glyph-name="gdotaccent" unicode="&#x121;" horiz-adv-x="499" 
d="M5 -61q0 57 40.5 91t105.5 48q-8 14 -8 31q0 19 10 32q-51 20 -79 60.5t-28 90.5q0 34 13.5 64.5t38 53.5t60 37t80.5 14q34 0 63 -8.5t52 -23.5l136 30l4 -92l-75 -17q11 -28 11 -58q0 -34 -13.5 -64t-38.5 -52.5t-60.5 -36t-78.5 -13.5h-8q-2 -5 -2 -9v-8q0 -13 6 -23
h5q49 0 92 -9t74.5 -27t49.5 -45.5t18 -65.5t-18 -65.5t-49.5 -45.5t-74.5 -27t-92 -9t-92 8.5t-74.5 26.5t-49.5 45.5t-18 66.5zM112 -61q0 -26 34 -40.5t93 -14.5t92.5 14t33.5 41q0 25 -31.5 40t-94.5 15q-62 0 -94.5 -15t-32.5 -40zM154 292q0 -32 22.5 -52.5
t61.5 -20.5q37 0 60.5 19.5t23.5 53.5q0 32 -21.5 54t-62.5 22q-39 0 -61.5 -22.5t-22.5 -53.5zM169 612q0 31 21.5 49t50.5 18q25 0 45.5 -18t20.5 -49q0 -35 -20.5 -53.5t-45.5 -18.5q-29 0 -50.5 18.5t-21.5 53.5z" />
    <glyph glyph-name="Gcommaaccent" unicode="&#x122;" horiz-adv-x="727" 
d="M388 377h284v-290q-23 -23 -54.5 -41.5t-67 -31t-71.5 -19t-69 -6.5q-86 0 -153.5 25.5t-114.5 73t-72 114t-25 148.5q0 75 24.5 141t70 115t110 77t144.5 28q75 0 128.5 -18.5t96.5 -52.5l-52 -98q-26 25 -69 39.5t-89 14.5q-51 0 -93.5 -16.5t-74 -48t-49 -77.5
t-17.5 -104q0 -56 17 -101.5t48 -77.5t75 -49.5t97 -17.5q20 0 41.5 4t41.5 10.5t36 15.5t26 18v110h-169v115zM451 -33q8 -5 14 -16.5t6 -32.5q0 -27 -11.5 -48.5t-29.5 -37t-40 -25.5t-43 -13l-34 50q26 11 34.5 25.5t8.5 34.5q0 26 -17 38z" />
    <glyph glyph-name="gcommaaccent" unicode="&#x123;" horiz-adv-x="499" 
d="M5 -61q0 57 40.5 91t105.5 48q-8 14 -8 31q0 19 10 32q-51 20 -79 60.5t-28 90.5q0 34 13.5 64.5t38 53.5t60 37t80.5 14q34 0 63 -8.5t52 -23.5l136 30l4 -92l-75 -17q11 -28 11 -58q0 -34 -13.5 -64t-38.5 -52.5t-60.5 -36t-78.5 -13.5h-8q-2 -5 -2 -9v-8q0 -13 6 -23
h5q49 0 92 -9t74.5 -27t49.5 -45.5t18 -65.5t-18 -65.5t-49.5 -45.5t-74.5 -27t-92 -9t-92 8.5t-74.5 26.5t-49.5 45.5t-18 66.5zM112 -61q0 -26 34 -40.5t93 -14.5t92.5 14t33.5 41q0 25 -31.5 40t-94.5 15q-62 0 -94.5 -15t-32.5 -40zM154 292q0 -32 22.5 -52.5
t61.5 -20.5q37 0 60.5 19.5t23.5 53.5q0 32 -21.5 54t-62.5 22q-39 0 -61.5 -22.5t-22.5 -53.5zM191 530q-8 5 -14 16.5t-6 32.5q0 27 11.5 48t29.5 37t40 26t43 13l34 -50q-26 -11 -34.5 -25.5t-8.5 -34.5q0 -26 17 -38z" />
    <glyph glyph-name="Hcircumflex" unicode="&#x124;" horiz-adv-x="760" 
d="M540 299h-320v-299h-123v700h123v-286h320v286h122v-700h-122v299zM377 904h4l179 -111l-45 -65l-136 71l-136 -71l-41 64z" />
    <glyph glyph-name="hcircumflex" unicode="&#x125;" horiz-adv-x="546" 
d="M64 700h115v-291q22 21 56 35t73 14q41 0 75 -11t58.5 -34.5t38 -61t13.5 -90.5v-261h-115v246q0 51 -26 77.5t-74 26.5q-58 0 -99 -41v-309h-115v700zM150 904h4l179 -111l-45 -65l-136 71l-136 -71l-41 64z" />
    <glyph glyph-name="Hbar" unicode="&#x126;" horiz-adv-x="770" 
d="M22 613h80v87h123v-87h320v87h122v-87h80v-107h-80v-506h-122v299h-320v-299h-123v506h-80v107zM545 414v92h-320v-92h320z" />
    <glyph glyph-name="hbar" unicode="&#x127;" horiz-adv-x="583" 
d="M-5 612h106v88h115v-88h148v-107h-148v-96q22 21 56 35t73 14q41 0 75 -11t58.5 -34.5t38 -61t13.5 -90.5v-261h-115v246q0 51 -26 77.5t-74 26.5q-58 0 -99 -41v-309h-115v505h-106v107z" />
    <glyph glyph-name="Imacron" unicode="&#x12a;" horiz-adv-x="347" 
d="M112 700h123v-700h-123v700zM23 852h309v-92h-309v92z" />
    <glyph glyph-name="imacron" unicode="&#x12b;" horiz-adv-x="277" 
d="M81 450h115v-450h-115v450zM-1 642h279v-92h-279v92z" />
    <glyph glyph-name="Iogonek" unicode="&#x12e;" horiz-adv-x="347" 
d="M248 -168q-13 -13 -42 -22.5t-61 -9.5q-26 0 -50 5t-42.5 16.5t-30 29t-11.5 43.5q0 39 29 65.5t72 40.5v700h123v-700q-23 0 -42.5 -6t-34.5 -15.5t-23.5 -21.5t-8.5 -25q0 -23 15 -31.5t30 -8.5q12 0 20.5 2t21.5 8z" />
    <glyph glyph-name="iogonek" unicode="&#x12f;" horiz-adv-x="277" 
d="M209 -168q-13 -13 -42 -22.5t-61 -9.5q-26 0 -50 5t-42.5 16.5t-30 29t-11.5 43.5q0 42 31.5 68.5t77.5 40.5v447h115v-450h-5q-22 0 -41 -6t-33 -16t-22 -22t-8 -24q0 -23 15 -31.5t30 -8.5q12 0 20.5 2t21.5 8zM66 612q0 31 21.5 49t50.5 18q25 0 45.5 -18t20.5 -49
q0 -35 -20.5 -53.5t-45.5 -18.5q-29 0 -50.5 18.5t-21.5 53.5z" />
    <glyph glyph-name="Idotaccent" unicode="&#x130;" horiz-adv-x="347" 
d="M112 700h123v-700h-123v700zM97 831q0 33 23.5 52t55.5 19q29 0 52 -19t23 -52q0 -36 -23 -55.5t-52 -19.5q-32 0 -55.5 19.5t-23.5 55.5z" />
    <glyph glyph-name="dotlessi" unicode="&#x131;" horiz-adv-x="277" 
d="M81 450h115v-450h-115v450z" />
    <glyph glyph-name="Jcircumflex" unicode="&#x134;" horiz-adv-x="390" 
d="M293 165q0 -85 -41.5 -130.5t-127.5 -45.5q-40 0 -72.5 13.5t-46.5 29.5l40 94q12 -9 28.5 -15.5t33.5 -6.5q34 0 48.5 22t14.5 60v514h123v-535zM226 904h4l179 -111l-45 -65l-136 71l-136 -71l-41 64z" />
    <glyph glyph-name="jcircumflex" unicode="&#x135;" horiz-adv-x="284" 
d="M202 -33q0 -83 -33 -129t-108 -46q-36 0 -66 9.5t-44 22.5l31 91q12 -8 24 -12t27 -4q30 0 42 21.5t12 56.5v473h115v-483zM299 572l-54 -68l-101 81l-102 -79l-52 67l153 133h4z" />
    <glyph glyph-name="Kcommaaccent" unicode="&#x136;" horiz-adv-x="672" 
d="M97 700h123v-332l276 332h148l-288 -326l306 -374h-156l-286 361v-361h-123v700zM381 -33q8 -5 14 -16.5t6 -32.5q0 -27 -11.5 -48.5t-29.5 -37t-40 -25.5t-43 -13l-34 50q26 11 34.5 25.5t8.5 34.5q0 26 -17 38z" />
    <glyph glyph-name="kcommaaccent" unicode="&#x137;" horiz-adv-x="514" 
d="M318 244l189 -244h-148l-178 235l161 215h145zM64 700h115v-700h-115v700zM292 -33q8 -5 14 -16.5t6 -32.5q0 -27 -11.5 -48.5t-29.5 -37t-40 -25.5t-43 -13l-34 50q26 11 34.5 25.5t8.5 34.5q0 26 -17 38z" />
    <glyph glyph-name="Lacute" unicode="&#x139;" horiz-adv-x="547" 
d="M97 700h123v-585h315v-115h-438v700zM227 731l-32 69l214 111l43 -99z" />
    <glyph glyph-name="lacute" unicode="&#x13a;" horiz-adv-x="299" 
d="M64 700h115v-529q0 -38 9.5 -55.5t29.5 -17.5q14 0 25 5t22 13l24 -88q-20 -16 -49 -27t-70 -11q-52 0 -79 32.5t-27 101.5v576zM103 731l-32 69l214 111l43 -99z" />
    <glyph glyph-name="Lcommaaccent" unicode="&#x13b;" horiz-adv-x="547" 
d="M97 700h123v-585h315v-115h-438v700zM356 -33q8 -5 14 -16.5t6 -32.5q0 -27 -11.5 -48.5t-29.5 -37t-40 -25.5t-43 -13l-34 50q26 11 34.5 25.5t8.5 34.5q0 26 -17 38z" />
    <glyph glyph-name="lcommaaccent" unicode="&#x13c;" horiz-adv-x="299" 
d="M64 700h115v-529q0 -38 9.5 -55.5t29.5 -17.5q14 0 25 5t22 13l24 -88q-20 -16 -49 -27t-70 -11q-52 0 -79 32.5t-27 101.5v576zM222 -33q8 -5 14 -16.5t6 -32.5q0 -27 -11.5 -48.5t-29.5 -37t-40 -25.5t-43 -13l-34 50q26 11 34.5 25.5t8.5 34.5q0 26 -17 38z" />
    <glyph glyph-name="Lcaron" unicode="&#x13d;" horiz-adv-x="547" 
d="M97 700h123v-585h315v-115h-438v700zM468 700q4 -8 5 -17.5t1 -17.5q0 -35 -9 -63t-23 -49.5t-31.5 -36.5t-35.5 -25l-53 50q21 20 33 49t12 61q0 16 -3 27t-8 22h112z" />
    <glyph glyph-name="lcaron" unicode="&#x13e;" horiz-adv-x="299" 
d="M64 700h115v-529q0 -38 9.5 -55.5t29.5 -17.5q14 0 25 5t22 13l24 -88q-20 -16 -49 -27t-70 -11q-52 0 -79 32.5t-27 101.5v576zM368 700q4 -8 5 -17.5t1 -17.5q0 -35 -9 -63t-23 -49.5t-31.5 -36.5t-35.5 -25l-53 50q21 20 33 49t12 61q0 16 -3 27t-8 22h112z" />
    <glyph glyph-name="Ldot" unicode="&#x13f;" horiz-adv-x="547" 
d="M97 700h123v-585h315v-115h-438v700zM356 375q0 13 5.5 26.5t16 24t25 17t33.5 6.5q16 0 29.5 -6.5t23 -17t15 -24t5.5 -26.5q0 -15 -5.5 -29.5t-15 -26t-23 -18t-29.5 -6.5q-38 0 -59 24.5t-21 55.5z" />
    <glyph glyph-name="ldot" unicode="&#x140;" horiz-adv-x="350" 
d="M64 700h115v-529q0 -38 9.5 -55.5t29.5 -17.5q14 0 25 5t22 13l24 -88q-20 -16 -49 -27t-70 -11q-52 0 -79 32.5t-27 101.5v576zM228 338q0 31 21.5 49t50.5 18q25 0 45.5 -18t20.5 -49q0 -35 -20.5 -53.5t-45.5 -18.5q-29 0 -50.5 18.5t-21.5 53.5z" />
    <glyph glyph-name="Lslash" unicode="&#x141;" horiz-adv-x="557" 
d="M22 322l85 39v339h123v-282l163 75v-117l-163 -76v-185h315v-115h-438v243l-85 -39v118z" />
    <glyph glyph-name="lslash" unicode="&#x142;" horiz-adv-x="329" 
d="M12 320l72 33v347h115v-294l94 43v-118l-94 -43v-117q0 -38 9.5 -55.5t29.5 -17.5q14 0 25 5t22 13l24 -88q-20 -16 -49 -27t-70 -11q-52 0 -79 32.5t-27 101.5v111l-72 -33v118z" />
    <glyph glyph-name="Nacute" unicode="&#x143;" horiz-adv-x="792" 
d="M597 0l-385 485v-485h-115v700h98l385 -487v487h115v-700h-98zM354 731l-32 69l214 111l43 -99z" />
    <glyph glyph-name="nacute" unicode="&#x144;" horiz-adv-x="546" 
d="M64 450h115v-45q20 22 54 37.5t75 15.5t75 -10.5t58.5 -33.5t38 -60t13.5 -90v-264h-115v244q0 54 -26.5 80t-74.5 26q-29 0 -53.5 -11.5t-44.5 -31.5v-307h-115v450zM279 517l-69 48l105 165l90 -68z" />
    <glyph glyph-name="Ncommaaccent" unicode="&#x145;" horiz-adv-x="792" 
d="M597 0l-385 485v-485h-115v700h98l385 -487v487h115v-700h-98zM443 -33q8 -5 14 -16.5t6 -32.5q0 -27 -11.5 -48.5t-29.5 -37t-40 -25.5t-43 -13l-34 50q26 11 34.5 25.5t8.5 34.5q0 26 -17 38z" />
    <glyph glyph-name="ncommaaccent" unicode="&#x146;" horiz-adv-x="546" 
d="M64 450h115v-45q20 22 54 37.5t75 15.5t75 -10.5t58.5 -33.5t38 -60t13.5 -90v-264h-115v244q0 54 -26.5 80t-74.5 26q-29 0 -53.5 -11.5t-44.5 -31.5v-307h-115v450zM318 -33q8 -5 14 -16.5t6 -32.5q0 -27 -11.5 -48.5t-29.5 -37t-40 -25.5t-43 -13l-34 50
q26 11 34.5 25.5t8.5 34.5q0 26 -17 38z" />
    <glyph glyph-name="Ncaron" unicode="&#x147;" horiz-adv-x="792" 
d="M597 0l-385 485v-485h-115v700h98l385 -487v487h115v-700h-98zM218 846l45 65l136 -79l135 79l41 -64l-174 -112h-4z" />
    <glyph glyph-name="ncaron" unicode="&#x148;" horiz-adv-x="546" 
d="M64 450h115v-45q20 22 54 37.5t75 15.5t75 -10.5t58.5 -33.5t38 -60t13.5 -90v-264h-115v244q0 54 -26.5 80t-74.5 26q-29 0 -53.5 -11.5t-44.5 -31.5v-307h-115v450zM118 643l54 68l101 -92l102 90l52 -67l-153 -133h-4z" />
    <glyph glyph-name="Omacron" unicode="&#x14c;" horiz-adv-x="819" 
d="M45 350q0 76 26.5 142t74.5 114.5t115 76.5t148 28q78 0 145 -26t115.5 -73t76.5 -113.5t28 -148.5q0 -79 -28 -145t-76.5 -114t-115.5 -75t-145 -27t-144.5 25.5t-115.5 73t-76.5 114t-27.5 148.5zM175 350q0 -53 18 -98t49.5 -78t74.5 -51.5t92 -18.5q55 0 98.5 19
t74 52t46.5 78t16 97q0 54 -18 99.5t-50 78t-75 50.5t-92 18q-50 0 -93 -18t-74.5 -50.5t-49 -78t-17.5 -99.5zM262 852h309v-92h-309v92z" />
    <glyph glyph-name="omacron" unicode="&#x14d;" horiz-adv-x="562" 
d="M36 225q0 51 17.5 94t49.5 74.5t77 49.5t101 18t101 -18t77 -49.5t49.5 -74.5t17.5 -94t-17.5 -94t-49.5 -74.5t-77 -49.5t-101 -18t-101 18t-77 49.5t-49.5 74.5t-17.5 94zM159 225q0 -57 34.5 -93t87.5 -36q54 0 88.5 35t34.5 94q0 28 -9.5 52t-26 40.5t-39 26
t-48.5 9.5t-48 -9t-38.5 -25.5t-26 -40.5t-9.5 -53zM149 642h279v-92h-279v92z" />
    <glyph glyph-name="Ohungarumlaut" unicode="&#x150;" horiz-adv-x="819" 
d="M45 350q0 76 26.5 142t74.5 114.5t115 76.5t148 28q78 0 145 -26t115.5 -73t76.5 -113.5t28 -148.5q0 -79 -28 -145t-76.5 -114t-115.5 -75t-145 -27t-144.5 25.5t-115.5 73t-76.5 114t-27.5 148.5zM175 350q0 -53 18 -98t49.5 -78t74.5 -51.5t92 -18.5q55 0 98.5 19
t74 52t46.5 78t16 97q0 54 -18 99.5t-50 78t-75 50.5t-92 18q-50 0 -93 -18t-74.5 -50.5t-49 -78t-17.5 -99.5zM487 731l-47 49l158 131l80 -72zM307 731l-49 46l114 134l99 -51z" />
    <glyph glyph-name="ohungarumlaut" unicode="&#x151;" horiz-adv-x="562" 
d="M36 225q0 51 17.5 94t49.5 74.5t77 49.5t101 18t101 -18t77 -49.5t49.5 -74.5t17.5 -94t-17.5 -94t-49.5 -74.5t-77 -49.5t-101 -18t-101 18t-77 49.5t-49.5 74.5t-17.5 94zM159 225q0 -57 34.5 -93t87.5 -36q54 0 88.5 35t34.5 94q0 28 -9.5 52t-26 40.5t-39 26
t-48.5 9.5t-48 -9t-38.5 -25.5t-26 -40.5t-9.5 -53zM367 517l-69 48l116 156l85 -65zM204 517l-69 48l101 166l82 -61z" />
    <glyph glyph-name="OE" unicode="&#x152;" horiz-adv-x="1038" 
d="M560 20q-33 -14 -72.5 -22.5t-81.5 -8.5q-80 0 -146.5 25.5t-114 73t-74 114t-26.5 148.5q0 75 23.5 141t69 115t112 77t153.5 28q45 0 85 -9t72 -25v23h405v-115h-282v-174h252v-115h-252v-181h292v-115h-415v20zM417 104q38 0 74.5 10t68.5 30v405q-32 21 -68.5 34
t-88.5 13q-49 0 -90.5 -17t-72 -49t-48 -77.5t-17.5 -102.5q0 -55 17.5 -100t49.5 -77.5t76.5 -50.5t98.5 -18z" />
    <glyph glyph-name="oe" unicode="&#x153;" horiz-adv-x="833" 
d="M766 45q-33 -29 -78.5 -42.5t-93.5 -13.5q-94 0 -156 48q-63 -48 -157 -48q-56 0 -101 18t-77 49.5t-49.5 74.5t-17.5 94t17.5 94t49.5 74.5t77 49.5t101 18q48 0 87 -13t70 -37q29 23 67.5 36.5t85.5 13.5q43 0 82 -15t68 -42.5t46 -66t17 -85.5q0 -21 -1.5 -35
t-5.5 -27h-325q8 -51 44 -78t90 -27q42 0 75 12.5t53 28.5zM281 96q28 0 50.5 9t38.5 23q-17 45 -17 97q0 53 18 97q-16 13 -38 22t-52 9q-26 0 -48 -9t-39 -25.5t-26.5 -40.5t-9.5 -53q0 -57 34.5 -93t88.5 -36zM586 365q-52 0 -80.5 -26.5t-37.5 -71.5h221q1 42 -26.5 70
t-76.5 28z" />
    <glyph glyph-name="Racute" unicode="&#x154;" horiz-adv-x="658" 
d="M97 0v700q15 0 47 0.5t66.5 0.5t63 0.5t36.5 0.5q72 0 120.5 -16.5t78 -46t42.5 -69t13 -84.5t-13 -79t-33 -58.5t-43.5 -40t-45.5 -22.5l219 -286h-149l-193 262h-86v-262h-123zM304 587q-17 0 -38 -0.5t-46 -1.5v-208h80q27 0 51 6.5t42.5 20t29.5 34t11 47.5
q0 21 -6.5 39.5t-21.5 32.5t-40 22t-62 8zM239 731l-32 69l214 111l43 -99z" />
    <glyph glyph-name="racute" unicode="&#x155;" horiz-adv-x="354" 
d="M64 450h115v-44q16 22 39 37t64 15q28 0 43.5 -4.5t26.5 -12.5l-41 -108q-17 10 -28.5 13.5t-29.5 3.5q-30 0 -47 -14t-27 -34v-302h-115v450zM191 517l-69 48l105 165l90 -68z" />
    <glyph glyph-name="Rcommaaccent" unicode="&#x156;" horiz-adv-x="658" 
d="M97 0v700q15 0 47 0.5t66.5 0.5t63 0.5t36.5 0.5q72 0 120.5 -16.5t78 -46t42.5 -69t13 -84.5t-13 -79t-33 -58.5t-43.5 -40t-45.5 -22.5l219 -286h-149l-193 262h-86v-262h-123zM304 587q-17 0 -38 -0.5t-46 -1.5v-208h80q27 0 51 6.5t42.5 20t29.5 34t11 47.5
q0 21 -6.5 39.5t-21.5 32.5t-40 22t-62 8zM373 -33q8 -5 14 -16.5t6 -32.5q0 -27 -11.5 -48.5t-29.5 -37t-40 -25.5t-43 -13l-34 50q26 11 34.5 25.5t8.5 34.5q0 26 -17 38z" />
    <glyph glyph-name="rcommaaccent" unicode="&#x157;" horiz-adv-x="354" 
d="M64 450h115v-44q16 22 39 37t64 15q28 0 43.5 -4.5t26.5 -12.5l-41 -108q-17 10 -28.5 13.5t-29.5 3.5q-30 0 -47 -14t-27 -34v-302h-115v450zM216 -33q8 -5 14 -16.5t6 -32.5q0 -27 -11.5 -48.5t-29.5 -37t-40 -25.5t-43 -13l-34 50q26 11 34.5 25.5t8.5 34.5
q0 26 -17 38z" />
    <glyph glyph-name="Rcaron" unicode="&#x158;" horiz-adv-x="658" 
d="M97 0v700q15 0 47 0.5t66.5 0.5t63 0.5t36.5 0.5q72 0 120.5 -16.5t78 -46t42.5 -69t13 -84.5t-13 -79t-33 -58.5t-43.5 -40t-45.5 -22.5l219 -286h-149l-193 262h-86v-262h-123zM304 587q-17 0 -38 -0.5t-46 -1.5v-208h80q27 0 51 6.5t42.5 20t29.5 34t11 47.5
q0 21 -6.5 39.5t-21.5 32.5t-40 22t-62 8zM123 846l45 65l136 -79l135 79l41 -64l-174 -112h-4z" />
    <glyph glyph-name="rcaron" unicode="&#x159;" horiz-adv-x="354" 
d="M64 450h115v-44q16 22 39 37t64 15q28 0 43.5 -4.5t26.5 -12.5l-41 -108q-17 10 -28.5 13.5t-29.5 3.5q-30 0 -47 -14t-27 -34v-302h-115v450zM43 643l54 68l101 -92l102 90l52 -67l-153 -133h-4z" />
    <glyph glyph-name="Sacute" unicode="&#x15a;" horiz-adv-x="553" 
d="M378 186q0 34 -23.5 56.5t-58.5 40.5t-76.5 35.5t-76.5 43t-58.5 62.5t-23.5 94q0 39 15 74.5t43 61.5t68.5 41.5t91.5 15.5q65 0 116.5 -20t83.5 -55l-66 -92q-26 25 -54 38.5t-70 13.5q-46 0 -72 -21t-26 -56q0 -36 23.5 -58.5t58.5 -40t76.5 -34.5t76.5 -41.5
t58.5 -62t23.5 -95.5q0 -44 -18 -80.5t-49.5 -62.5t-74.5 -40.5t-92 -14.5q-34 0 -69 7t-66.5 21t-56 34.5t-37.5 47.5l70 84q31 -40 75.5 -59.5t85.5 -19.5q44 0 73 21t29 61zM241 731l-32 69l214 111l43 -99z" />
    <glyph glyph-name="sacute" unicode="&#x15b;" horiz-adv-x="444" 
d="M292 127q0 18 -18 28.5t-45 18.5t-58.5 17t-58.5 25t-45 41.5t-18 66.5q0 33 12.5 58.5t35 43t52.5 26.5t65 9q66 0 108 -18.5t63 -38.5l-43 -82q-20 16 -53 29.5t-69 13.5q-26 0 -41 -12t-15 -27q0 -19 18 -29.5t45 -18.5t58.5 -17t58.5 -24t45 -39.5t18 -64.5
q0 -67 -49.5 -105.5t-132.5 -38.5q-31 0 -61.5 7.5t-56 19t-44 25t-26.5 25.5l56 75q10 -11 27 -21t36.5 -18t39.5 -12.5t37 -4.5q25 0 42 10.5t17 31.5zM214 517l-69 48l105 165l90 -68z" />
    <glyph glyph-name="Scircumflex" unicode="&#x15c;" horiz-adv-x="553" 
d="M378 186q0 34 -23.5 56.5t-58.5 40.5t-76.5 35.5t-76.5 43t-58.5 62.5t-23.5 94q0 39 15 74.5t43 61.5t68.5 41.5t91.5 15.5q65 0 116.5 -20t83.5 -55l-66 -92q-26 25 -54 38.5t-70 13.5q-46 0 -72 -21t-26 -56q0 -36 23.5 -58.5t58.5 -40t76.5 -34.5t76.5 -41.5
t58.5 -62t23.5 -95.5q0 -44 -18 -80.5t-49.5 -62.5t-74.5 -40.5t-92 -14.5q-34 0 -69 7t-66.5 21t-56 34.5t-37.5 47.5l70 84q31 -40 75.5 -59.5t85.5 -19.5q44 0 73 21t29 61zM272 904h4l179 -111l-45 -65l-136 71l-136 -71l-41 64z" />
    <glyph glyph-name="scircumflex" unicode="&#x15d;" horiz-adv-x="444" 
d="M292 127q0 18 -18 28.5t-45 18.5t-58.5 17t-58.5 25t-45 41.5t-18 66.5q0 33 12.5 58.5t35 43t52.5 26.5t65 9q66 0 108 -18.5t63 -38.5l-43 -82q-20 16 -53 29.5t-69 13.5q-26 0 -41 -12t-15 -27q0 -19 18 -29.5t45 -18.5t58.5 -17t58.5 -24t45 -39.5t18 -64.5
q0 -67 -49.5 -105.5t-132.5 -38.5q-31 0 -61.5 7.5t-56 19t-44 25t-26.5 25.5l56 75q10 -11 27 -21t36.5 -18t39.5 -12.5t37 -4.5q25 0 42 10.5t17 31.5zM377 572l-54 -68l-101 81l-102 -79l-52 67l153 133h4z" />
    <glyph glyph-name="Scedilla" unicode="&#x15e;" horiz-adv-x="553" 
d="M173 -105q13 -11 34 -22t40 -11q17 0 28 6.5t11 18.5q0 14 -9 21t-32 7h-6v76q-30 3 -60 12t-56.5 22.5t-46.5 32t-31 41.5l70 84q31 -40 75.5 -59.5t85.5 -19.5q44 0 73 21t29 61q0 34 -23.5 56.5t-58.5 40.5t-76.5 35.5t-76.5 43t-58.5 62.5t-23.5 94q0 39 15 74.5
t43 61.5t68.5 41.5t91.5 15.5q65 0 116.5 -20t83.5 -55l-66 -92q-26 25 -54 38.5t-70 13.5q-46 0 -72 -21t-26 -56q0 -36 23.5 -58.5t58.5 -40t76.5 -34.5t76.5 -41.5t58.5 -62t23.5 -95.5q0 -42 -16 -76.5t-44.5 -60t-67 -41.5t-83.5 -19v-25q59 -3 85 -25t26 -60
t-34.5 -63t-98.5 -25q-57 0 -89.5 16t-49.5 29z" />
    <glyph glyph-name="scedilla" unicode="&#x15f;" horiz-adv-x="444" 
d="M118 -112q14 -11 32.5 -18.5t37.5 -7.5q17 0 28 6.5t11 18.5q0 14 -9 21t-32 7h-6v79q-25 4 -48 12t-42 18t-33 21t-20 21l56 75q10 -11 27 -21t36.5 -18t39.5 -12.5t37 -4.5q25 0 42 10.5t17 31.5q0 18 -18 28.5t-45 18.5t-58.5 17t-58.5 25t-45 41.5t-18 66.5
q0 33 12.5 58.5t35 43t52.5 26.5t65 9q66 0 108 -18.5t63 -38.5l-43 -82q-20 16 -53 29.5t-69 13.5q-26 0 -41 -12t-15 -27q0 -19 18 -29.5t45 -18.5t58.5 -17t58.5 -24t45 -39.5t18 -64.5q0 -65 -46 -102.5t-123 -40.5v-25q104 -6 104 -85q0 -38 -34.5 -63t-103.5 -25
q-48 0 -75.5 14.5t-44.5 27.5z" />
    <glyph glyph-name="Scaron" unicode="&#x160;" horiz-adv-x="553" 
d="M378 186q0 34 -23.5 56.5t-58.5 40.5t-76.5 35.5t-76.5 43t-58.5 62.5t-23.5 94q0 39 15 74.5t43 61.5t68.5 41.5t91.5 15.5q65 0 116.5 -20t83.5 -55l-66 -92q-26 25 -54 38.5t-70 13.5q-46 0 -72 -21t-26 -56q0 -36 23.5 -58.5t58.5 -40t76.5 -34.5t76.5 -41.5
t58.5 -62t23.5 -95.5q0 -44 -18 -80.5t-49.5 -62.5t-74.5 -40.5t-92 -14.5q-34 0 -69 7t-66.5 21t-56 34.5t-37.5 47.5l70 84q31 -40 75.5 -59.5t85.5 -19.5q44 0 73 21t29 61zM100 846l45 65l136 -79l135 79l41 -64l-174 -112h-4z" />
    <glyph glyph-name="scaron" unicode="&#x161;" horiz-adv-x="444" 
d="M292 127q0 18 -18 28.5t-45 18.5t-58.5 17t-58.5 25t-45 41.5t-18 66.5q0 33 12.5 58.5t35 43t52.5 26.5t65 9q66 0 108 -18.5t63 -38.5l-43 -82q-20 16 -53 29.5t-69 13.5q-26 0 -41 -12t-15 -27q0 -19 18 -29.5t45 -18.5t58.5 -17t58.5 -24t45 -39.5t18 -64.5
q0 -67 -49.5 -105.5t-132.5 -38.5q-31 0 -61.5 7.5t-56 19t-44 25t-26.5 25.5l56 75q10 -11 27 -21t36.5 -18t39.5 -12.5t37 -4.5q25 0 42 10.5t17 31.5zM67 643l54 68l101 -92l102 90l52 -67l-153 -133h-4z" />
    <glyph glyph-name="Tcommaaccent" unicode="&#x162;" horiz-adv-x="597" 
d="M205 -105q13 -11 34 -22t40 -11q17 0 28 6.5t11 18.5q0 14 -9 21t-32 7h-6v85h-34v585h-227v115h577v-115h-227v-585h-31v-35q59 -3 85 -25t26 -60t-34.5 -63t-98.5 -25q-57 0 -89.5 16t-49.5 29z" />
    <glyph glyph-name="tcommaaccent" unicode="&#x163;" horiz-adv-x="360" 
d="M88 -112q14 -11 32.5 -18.5t37.5 -7.5q17 0 28 6.5t11 18.5q0 14 -9 21t-32 7h-6v82q-49 14 -69.5 58.5t-20.5 115.5v404h115v-125h145v-108h-145v-164q0 -37 12.5 -59t41.5 -22q23 0 40 8.5t29 17.5l35 -89q-20 -16 -52 -29t-73 -15v-25q104 -6 104 -85q0 -38 -34.5 -63
t-103.5 -25q-48 0 -75.5 14.5t-44.5 27.5z" />
    <glyph glyph-name="Tcaron" unicode="&#x164;" horiz-adv-x="597" 
d="M10 700h577v-115h-227v-585h-123v585h-227v115zM115 846l45 65l136 -79l135 79l41 -64l-174 -112h-4z" />
    <glyph glyph-name="tcaron" unicode="&#x165;" horiz-adv-x="360" 
d="M54 575h115v-125h145v-108h-145v-164q0 -37 12.5 -59t41.5 -22q23 0 40 8.5t29 17.5l35 -89q-20 -17 -54.5 -30.5t-78.5 -13.5q-77 0 -108.5 47t-31.5 134v404zM363 700q4 -8 5 -17.5t1 -17.5q0 -35 -9 -63t-23 -49.5t-31.5 -36.5t-35.5 -25l-53 50q21 20 33 49t12 61
q0 16 -3 27t-8 22h112z" />
    <glyph glyph-name="Umacron" unicode="&#x16a;" horiz-adv-x="751" 
d="M663 290q0 -80 -23 -137t-61 -93.5t-88.5 -53.5t-105.5 -17q-65 0 -120 19.5t-94.5 58t-61.5 96t-22 134.5v403h123v-377q0 -49 10.5 -89.5t32 -69t54.5 -44.5t78 -16q80 0 118 54t38 157v385h122v-410zM228 852h309v-92h-309v92z" />
    <glyph glyph-name="umacron" unicode="&#x16b;" horiz-adv-x="535" 
d="M471 0h-115v55q-20 -25 -55.5 -45.5t-88.5 -20.5q-33 0 -62 11t-50 33.5t-33.5 58t-12.5 83.5v275h115v-251q0 -45 19 -74t67 -29q29 0 55 14.5t46 40.5v299h115v-450zM124 642h279v-92h-279v92z" />
    <glyph glyph-name="Ubreve" unicode="&#x16c;" horiz-adv-x="751" 
d="M663 290q0 -80 -23 -137t-61 -93.5t-88.5 -53.5t-105.5 -17q-65 0 -120 19.5t-94.5 58t-61.5 96t-22 134.5v403h123v-377q0 -49 10.5 -89.5t32 -69t54.5 -44.5t78 -16q80 0 118 54t38 157v385h122v-410zM234 900q9 -10 22 -21t30 -20.5t39.5 -15.5t51.5 -6q50 0 85 20
t55 43l43 -60q-12 -20 -31 -38.5t-42.5 -33t-51.5 -23t-58 -8.5q-35 0 -65 9.5t-55 24.5t-43.5 33.5t-29.5 36.5z" />
    <glyph glyph-name="ubreve" unicode="&#x16d;" horiz-adv-x="535" 
d="M471 0h-115v55q-20 -25 -55.5 -45.5t-88.5 -20.5q-33 0 -62 11t-50 33.5t-33.5 58t-12.5 83.5v275h115v-251q0 -45 19 -74t67 -29q29 0 55 14.5t46 40.5v299h115v-450zM157 681q8 -9 18 -18.5t23.5 -18t30.5 -14t38 -5.5q38 0 67 17.5t45 37.5l40 -56q-10 -15 -24 -31.5
t-32.5 -30t-43.5 -22t-57 -8.5q-33 0 -58.5 10t-45 24.5t-32.5 30t-20 27.5z" />
    <glyph glyph-name="Uring" unicode="&#x16e;" horiz-adv-x="751" 
d="M663 290q0 -80 -23 -137t-61 -93.5t-88.5 -53.5t-105.5 -17q-65 0 -120 19.5t-94.5 58t-61.5 96t-22 134.5v403h123v-377q0 -49 10.5 -89.5t32 -69t54.5 -44.5t78 -16q80 0 118 54t38 157v385h122v-410zM236 800q0 28 11 48.5t29.5 33.5t44 19.5t54.5 6.5q30 0 56 -6.5
t45.5 -19.5t30.5 -33.5t11 -48.5q0 -27 -11 -48t-30.5 -34.5t-45.5 -20.5t-56 -7q-29 0 -54.5 7t-44 20.5t-29.5 34.5t-11 48zM321 800q0 -24 16 -35.5t39 -11.5q24 0 40.5 11.5t16.5 35.5t-16.5 34.5t-40.5 10.5q-23 0 -39 -10.5t-16 -34.5z" />
    <glyph glyph-name="uring" unicode="&#x16f;" horiz-adv-x="535" 
d="M471 0h-115v55q-20 -25 -55.5 -45.5t-88.5 -20.5q-33 0 -62 11t-50 33.5t-33.5 58t-12.5 83.5v275h115v-251q0 -45 19 -74t67 -29q29 0 55 14.5t46 40.5v299h115v-450zM137 612q0 25 9.5 46.5t26 38t40 26t50.5 9.5q28 0 51.5 -9.5t40.5 -26t26.5 -38t9.5 -46.5
q0 -24 -9.5 -45.5t-26.5 -37.5t-40.5 -25.5t-51.5 -9.5q-27 0 -50.5 9.5t-40 25.5t-26 37.5t-9.5 45.5zM211 613q0 -23 15 -40t39 -17q23 0 37.5 17t14.5 40t-14.5 39.5t-37.5 16.5q-24 0 -39 -16.5t-15 -39.5z" />
    <glyph glyph-name="Uhungarumlaut" unicode="&#x170;" horiz-adv-x="751" 
d="M663 290q0 -80 -23 -137t-61 -93.5t-88.5 -53.5t-105.5 -17q-65 0 -120 19.5t-94.5 58t-61.5 96t-22 134.5v403h123v-377q0 -49 10.5 -89.5t32 -69t54.5 -44.5t78 -16q80 0 118 54t38 157v385h122v-410zM439 731l-47 49l158 131l80 -72zM259 731l-49 46l114 134l99 -51z
" />
    <glyph glyph-name="uhungarumlaut" unicode="&#x171;" horiz-adv-x="535" 
d="M471 0h-115v55q-20 -25 -55.5 -45.5t-88.5 -20.5q-33 0 -62 11t-50 33.5t-33.5 58t-12.5 83.5v275h115v-251q0 -45 19 -74t67 -29q29 0 55 14.5t46 40.5v299h115v-450zM349 517l-69 48l116 156l85 -65zM186 517l-69 48l101 166l82 -61z" />
    <glyph glyph-name="Uogonek" unicode="&#x172;" horiz-adv-x="751" 
d="M663 290q0 -64 -14.5 -113.5t-40.5 -85t-61 -58t-75 -33.5q-31 -14 -49.5 -31t-18.5 -37q0 -23 15 -31.5t30 -8.5q12 0 20.5 2t21.5 8l35 -70q-13 -13 -42 -22.5t-61 -9.5q-26 0 -50 5t-42.5 16.5t-30 29t-11.5 43.5q0 34 22 56.5t57 38.5q-62 3 -113.5 23.5t-89 58.5
t-58 94.5t-20.5 131.5v403h123v-377q0 -49 10.5 -89.5t32 -69t54.5 -44.5t78 -16q80 0 118 54t38 157v385h122v-410z" />
    <glyph glyph-name="uogonek" unicode="&#x173;" horiz-adv-x="535" 
d="M484 -168q-13 -13 -42 -22.5t-61 -9.5q-26 0 -50 5t-42.5 16.5t-30 29t-11.5 43.5q0 42 31.5 68.5t77.5 40.5v52q-20 -25 -55.5 -45.5t-88.5 -20.5q-33 0 -62 11t-50 33.5t-33.5 58t-12.5 83.5v275h115v-251q0 -45 19 -74t67 -29q29 0 55 14.5t46 40.5v299h115v-450h-5
q-22 0 -41 -6t-33 -16t-22 -22t-8 -24q0 -23 15 -31.5t30 -8.5q12 0 20.5 2t21.5 8z" />
    <glyph glyph-name="Ydieresis" unicode="&#x178;" horiz-adv-x="629" 
d="M375 292v-292h-123v292l-247 408h140l174 -293l172 293h133zM124 825q0 29 22.5 45.5t54.5 16.5q27 0 49 -16.5t22 -45.5q0 -32 -22 -49t-49 -17q-32 0 -54.5 17t-22.5 49zM356 825q0 29 22.5 45.5t54.5 16.5q28 0 49.5 -16.5t21.5 -45.5q0 -32 -21.5 -49t-49.5 -17
q-32 0 -54.5 17t-22.5 49z" />
    <glyph glyph-name="Zacute" unicode="&#x179;" horiz-adv-x="642" 
d="M60 700h532v-85l-388 -500h398v-115h-562v84l387 501h-367v115zM277 731l-32 69l214 111l43 -99z" />
    <glyph glyph-name="zacute" unicode="&#x17a;" horiz-adv-x="490" 
d="M57 450h390v-83l-244 -260h239v-107h-400v83l244 259h-229v108zM245 517l-69 48l105 165l90 -68z" />
    <glyph glyph-name="Zdotaccent" unicode="&#x17b;" horiz-adv-x="642" 
d="M60 700h532v-85l-388 -500h398v-115h-562v84l387 501h-367v115zM247 831q0 33 23.5 52t55.5 19q29 0 52 -19t23 -52q0 -36 -23 -55.5t-52 -19.5q-32 0 -55.5 19.5t-23.5 55.5z" />
    <glyph glyph-name="zdotaccent" unicode="&#x17c;" horiz-adv-x="490" 
d="M57 450h390v-83l-244 -260h239v-107h-400v83l244 259h-229v108zM173 612q0 31 21.5 49t50.5 18q25 0 45.5 -18t20.5 -49q0 -35 -20.5 -53.5t-45.5 -18.5q-29 0 -50.5 18.5t-21.5 53.5z" />
    <glyph glyph-name="Zcaron" unicode="&#x17d;" horiz-adv-x="642" 
d="M60 700h532v-85l-388 -500h398v-115h-562v84l387 501h-367v115zM148 846l45 65l136 -79l135 79l41 -64l-174 -112h-4z" />
    <glyph glyph-name="zcaron" unicode="&#x17e;" horiz-adv-x="490" 
d="M57 450h390v-83l-244 -260h239v-107h-400v83l244 259h-229v108zM98 643l54 68l101 -92l102 90l52 -67l-153 -133h-4z" />
    <glyph glyph-name="longs" unicode="&#x17f;" horiz-adv-x="258" 
d="M69 523q0 94 42.5 141t117.5 47q41 0 75 -12t51 -30l-39 -88q-11 11 -28.5 16.5t-37.5 5.5q-29 0 -47.5 -21t-18.5 -68v-514h-115v523z" />
    <glyph glyph-name="uni018F" unicode="&#x18f;" horiz-adv-x="781" 
d="M603 414q-18 87 -84 134.5t-164 47.5q-42 0 -84.5 -13t-80.5 -41l-47 92q37 32 98.5 54.5t142.5 22.5q77 0 142 -25.5t111.5 -72.5t72.5 -113.5t26 -148.5t-25 -149t-71.5 -114t-112 -73t-145.5 -26t-146.5 29.5t-112 84.5t-66.5 133.5t-10 177.5h556zM380 104
q94 0 153 50.5t75 144.5h-434q3 -39 18 -74.5t41.5 -62t63 -42.5t83.5 -16z" />
    <glyph glyph-name="florin" unicode="&#x192;" 
d="M392 450h115v-108h-134l-66 -375q-8 -41 -19 -73.5t-29 -55t-44.5 -34.5t-63.5 -12q-36 0 -66 9.5t-44 22.5l31 91q12 -8 24 -12t28 -4q29 0 45 21.5t23 57.5l64 364h-117v108h136l13 73q18 96 55.5 142t112.5 46q41 0 74.5 -12t50.5 -30l-39 -88q-11 11 -28.5 16.5
t-37.5 5.5q-29 0 -47 -21t-26 -68z" />
    <glyph glyph-name="uni01DD" unicode="&#x1dd;" horiz-adv-x="516" 
d="M71 405q34 29 80 42.5t94 13.5q54 0 97.5 -17t74 -48t47 -74.5t16.5 -96.5q0 -49 -14.5 -92t-43 -75t-71.5 -50.5t-99 -18.5q-47 0 -88 15t-71 42.5t-47 66t-17 85.5q0 40 7 64h330q-8 48 -43.5 75.5t-89.5 27.5q-42 0 -76 -12.5t-54 -28.5zM253 85q51 0 79.5 27t36.5 73
h-221q-1 -44 26.5 -72t78.5 -28z" />
    <glyph glyph-name="Scommaaccent" unicode="&#x218;" horiz-adv-x="553" 
d="M378 186q0 34 -23.5 56.5t-58.5 40.5t-76.5 35.5t-76.5 43t-58.5 62.5t-23.5 94q0 39 15 74.5t43 61.5t68.5 41.5t91.5 15.5q65 0 116.5 -20t83.5 -55l-66 -92q-26 25 -54 38.5t-70 13.5q-46 0 -72 -21t-26 -56q0 -36 23.5 -58.5t58.5 -40t76.5 -34.5t76.5 -41.5
t58.5 -62t23.5 -95.5q0 -44 -18 -80.5t-49.5 -62.5t-74.5 -40.5t-92 -14.5q-34 0 -69 7t-66.5 21t-56 34.5t-37.5 47.5l70 84q31 -40 75.5 -59.5t85.5 -19.5q44 0 73 21t29 61zM333 -33q8 -5 14 -16.5t6 -32.5q0 -27 -11.5 -48.5t-29.5 -37t-40 -25.5t-43 -13l-34 50
q26 11 34.5 25.5t8.5 34.5q0 26 -17 38z" />
    <glyph glyph-name="scommaaccent" unicode="&#x219;" horiz-adv-x="444" 
d="M292 127q0 18 -18 28.5t-45 18.5t-58.5 17t-58.5 25t-45 41.5t-18 66.5q0 33 12.5 58.5t35 43t52.5 26.5t65 9q66 0 108 -18.5t63 -38.5l-43 -82q-20 16 -53 29.5t-69 13.5q-26 0 -41 -12t-15 -27q0 -19 18 -29.5t45 -18.5t58.5 -17t58.5 -24t45 -39.5t18 -64.5
q0 -67 -49.5 -105.5t-132.5 -38.5q-31 0 -61.5 7.5t-56 19t-44 25t-26.5 25.5l56 75q10 -11 27 -21t36.5 -18t39.5 -12.5t37 -4.5q25 0 42 10.5t17 31.5zM274 -33q8 -5 14 -16.5t6 -32.5q0 -27 -11.5 -48.5t-29.5 -37t-40 -25.5t-43 -13l-34 50q26 11 34.5 25.5t8.5 34.5
q0 26 -17 38z" />
    <glyph glyph-name="uni021A" unicode="&#x21a;" horiz-adv-x="597" 
d="M10 700h577v-115h-227v-585h-123v585h-227v115zM341 -33q8 -5 14 -16.5t6 -32.5q0 -27 -11.5 -48.5t-29.5 -37t-40 -25.5t-43 -13l-34 50q26 11 34.5 25.5t8.5 34.5q0 26 -17 38z" />
    <glyph glyph-name="uni021B" unicode="&#x21b;" horiz-adv-x="360" 
d="M54 575h115v-125h145v-108h-145v-164q0 -37 12.5 -59t41.5 -22q23 0 40 8.5t29 17.5l35 -89q-20 -17 -54.5 -30.5t-78.5 -13.5q-77 0 -108.5 47t-31.5 134v404zM222 -33q8 -5 14 -16.5t6 -32.5q0 -27 -11.5 -48.5t-29.5 -37t-40 -25.5t-43 -13l-34 50q26 11 34.5 25.5
t8.5 34.5q0 26 -17 38z" />
    <glyph glyph-name="uni0237" unicode="&#x237;" horiz-adv-x="284" 
d="M202 -33q0 -83 -33 -129t-108 -46q-36 0 -66 9.5t-44 22.5l31 91q12 -8 24 -12t27 -4q30 0 42 21.5t12 56.5v473h115v-483z" />
    <glyph glyph-name="uni0259" unicode="&#x259;" horiz-adv-x="516" 
d="M71 405q34 29 80 42.5t94 13.5q54 0 97.5 -17t74 -48t47 -74.5t16.5 -96.5q0 -49 -14.5 -92t-43 -75t-71.5 -50.5t-99 -18.5q-47 0 -88 15t-71 42.5t-47 66t-17 85.5q0 40 7 64h330q-8 48 -43.5 75.5t-89.5 27.5q-42 0 -76 -12.5t-54 -28.5zM253 85q51 0 79.5 27t36.5 73
h-221q-1 -44 26.5 -72t78.5 -28z" />
    <glyph glyph-name="afii57929" unicode="&#x2bc;" horiz-adv-x="273" 
d="M179 685q16 -17 25 -42.5t9 -50.5q0 -35 -9.5 -63t-24.5 -49t-32.5 -36t-33.5 -24l-53 49q22 18 33.5 43.5t11.5 53.5q0 19 -6 35t-17 27z" />
    <glyph glyph-name="circumflex" unicode="&#x2c6;" horiz-adv-x="429" 
d="M369 572l-54 -68l-101 81l-102 -79l-52 67l153 133h4z" />
    <glyph glyph-name="caron" unicode="&#x2c7;" horiz-adv-x="429" 
d="M60 643l54 68l101 -92l102 90l52 -67l-153 -133h-4z" />
    <glyph glyph-name="breve" unicode="&#x2d8;" horiz-adv-x="433" 
d="M111 681q8 -9 18 -18.5t23.5 -18t30.5 -14t38 -5.5q38 0 67 17.5t45 37.5l40 -56q-10 -15 -24 -31.5t-32.5 -30t-43.5 -22t-57 -8.5q-33 0 -58.5 10t-45 24.5t-32.5 30t-20 27.5z" />
    <glyph glyph-name="dotaccent" unicode="&#x2d9;" horiz-adv-x="258" 
d="M60 612q0 31 21.5 49t50.5 18q25 0 45.5 -18t20.5 -49q0 -35 -20.5 -53.5t-45.5 -18.5q-29 0 -50.5 18.5t-21.5 53.5z" />
    <glyph glyph-name="ring" unicode="&#x2da;" horiz-adv-x="374" 
d="M60 612q0 25 9.5 46.5t26 38t40 26t50.5 9.5q28 0 51.5 -9.5t40.5 -26t26.5 -38t9.5 -46.5q0 -24 -9.5 -45.5t-26.5 -37.5t-40.5 -25.5t-51.5 -9.5q-27 0 -50.5 9.5t-40 25.5t-26 37.5t-9.5 45.5zM134 613q0 -23 15 -40t39 -17q23 0 37.5 17t14.5 40t-14.5 39.5
t-37.5 16.5q-24 0 -39 -16.5t-15 -39.5z" />
    <glyph glyph-name="ogonek" unicode="&#x2db;" horiz-adv-x="357" 
d="M297 -168q-13 -13 -42 -22.5t-61 -9.5q-26 0 -50 5t-42.5 16.5t-30 29t-11.5 43.5q0 33 20.5 56.5t53 39t72.5 23t78 7.5v-20q-23 0 -42.5 -6t-34.5 -15.5t-23.5 -21.5t-8.5 -25q0 -23 15 -31.5t30 -8.5q12 0 20.5 2t21.5 8z" />
    <glyph glyph-name="tilde" unicode="&#x2dc;" horiz-adv-x="464" 
d="M60 590q29 36 60.5 52.5t60.5 16.5q18 0 32 -6.5t27.5 -14.5t27 -14.5t28.5 -6.5q23 0 36 8t33 23l39 -58q-28 -31 -58 -48t-59 -17q-17 0 -31 6.5t-27.5 14t-27.5 14t-31 6.5q-15 0 -31.5 -8.5t-31.5 -19.5z" />
    <glyph glyph-name="hungarumlaut" unicode="&#x2dd;" horiz-adv-x="484" 
d="M292 517l-69 48l116 156l85 -65zM129 517l-69 48l101 166l82 -61z" />
    <glyph glyph-name="gravecomb" unicode="&#x300;" horiz-adv-x="0" 
d="M-394 660l91 68l104 -163l-68 -48z" />
    <glyph glyph-name="acutecomb" unicode="&#x301;" horiz-adv-x="0" 
d="M-241 517l-69 48l105 165l90 -68z" />
    <glyph glyph-name="Delta" unicode="&#x394;" horiz-adv-x="741" 
d="M328 708h78l310 -708h-691zM203 115h330l-169 387z" />
    <glyph glyph-name="Delta" unicode="&#x2206;" horiz-adv-x="741" 
d="M328 708h78l310 -708h-691zM203 115h330l-169 387z" />
    <glyph glyph-name="Omega" unicode="&#x3a9;" horiz-adv-x="823" 
d="M54 115h157q-27 9 -55 32t-50.5 57.5t-36.5 79.5t-14 96q0 76 28 137.5t76 104.5t113 66t140 23q76 0 141.5 -23t113.5 -66t75 -104.5t27 -137.5q0 -55 -15 -100t-38 -78.5t-50.5 -55.5t-53.5 -31h156v-115h-313v115q43 12 77 36.5t58 57.5t36.5 71.5t12.5 79.5
q0 46 -15.5 88.5t-45 75.5t-71.5 52.5t-95 19.5q-56 0 -98.5 -19.5t-71 -52.5t-43 -76.5t-14.5 -90.5q0 -35 12 -73.5t35.5 -72.5t57.5 -60t78 -36v-115h-314v115z" />
    <glyph glyph-name="Omega" unicode="&#x2126;" horiz-adv-x="823" 
d="M54 115h157q-27 9 -55 32t-50.5 57.5t-36.5 79.5t-14 96q0 76 28 137.5t76 104.5t113 66t140 23q76 0 141.5 -23t113.5 -66t75 -104.5t27 -137.5q0 -55 -15 -100t-38 -78.5t-50.5 -55.5t-53.5 -31h156v-115h-313v115q43 12 77 36.5t58 57.5t36.5 71.5t12.5 79.5
q0 46 -15.5 88.5t-45 75.5t-71.5 52.5t-95 19.5q-56 0 -98.5 -19.5t-71 -52.5t-43 -76.5t-14.5 -90.5q0 -35 12 -73.5t35.5 -72.5t57.5 -60t78 -36v-115h-314v115z" />
    <glyph glyph-name="pi" unicode="&#x3c0;" horiz-adv-x="627" 
d="M42 450h534v-108h-77v-176q0 -36 8 -52t25 -16q13 0 24 5t22 13l24 -88q-20 -16 -49 -27t-69 -11q-48 0 -74 30.5t-26 98.5v223h-145v-45q0 -93 -13 -152t-39 -93.5t-64 -47.5t-88 -13l-10 112q18 -1 35.5 5.5t31 26t22 54.5t10.5 91l1 62h-83v108z" />
    <glyph glyph-name="afii10023" unicode="&#x401;" horiz-adv-x="575" 
d="M97 700h405v-115h-282v-174h252v-115h-252v-181h292v-115h-415v700zM119 825q0 29 22.5 45.5t54.5 16.5q27 0 49 -16.5t22 -45.5q0 -32 -22 -49t-49 -17q-32 0 -54.5 17t-22.5 49zM351 825q0 29 22.5 45.5t54.5 16.5q28 0 49.5 -16.5t21.5 -45.5q0 -32 -21.5 -49
t-49.5 -17q-32 0 -54.5 17t-22.5 49z" />
    <glyph glyph-name="afii10051" unicode="&#x402;" horiz-adv-x="764" 
d="M719 203q0 -110 -48.5 -162t-130.5 -52q-20 0 -39 4t-35 10.5t-27.5 14t-17.5 14.5l41 94q12 -9 28.5 -15.5t33.5 -6.5q33 0 53 22.5t20 74.5q0 58 -29 82.5t-82 24.5q-45 0 -74 -11.5t-52 -25.5v-271h-123v585h-227v115h577v-115h-227v-202q25 15 61 27.5t88 12.5
q43 0 81.5 -11t67 -36.5t45 -67.5t16.5 -105z" />
    <glyph glyph-name="afii10052" unicode="&#x403;" horiz-adv-x="507" 
d="M97 700h395v-115h-272v-585h-123v700zM284 731l-32 69l214 111l43 -99z" />
    <glyph glyph-name="afii10053" unicode="&#x404;" horiz-adv-x="673" 
d="M486 299h-315q8 -50 31.5 -86.5t57.5 -60.5t76.5 -36t87.5 -12q54 0 99 17.5t78 43.5l45 -103q-37 -32 -98 -52.5t-134 -20.5q-84 0 -152 25t-116.5 72t-74.5 113.5t-26 150.5q0 80 26 146.5t72.5 114t111.5 74t142 26.5q81 0 142.5 -22.5t98.5 -54.5l-55 -92
q-37 28 -79.5 41t-84.5 13q-100 0 -164 -47.5t-82 -134.5h313v-115z" />
    <glyph glyph-name="afii10054" unicode="&#x405;" horiz-adv-x="553" 
d="M378 186q0 34 -23.5 56.5t-58.5 40.5t-76.5 35.5t-76.5 43t-58.5 62.5t-23.5 94q0 39 15 74.5t43 61.5t68.5 41.5t91.5 15.5q65 0 116.5 -20t83.5 -55l-66 -92q-26 25 -54 38.5t-70 13.5q-46 0 -72 -21t-26 -56q0 -36 23.5 -58.5t58.5 -40t76.5 -34.5t76.5 -41.5
t58.5 -62t23.5 -95.5q0 -44 -18 -80.5t-49.5 -62.5t-74.5 -40.5t-92 -14.5q-34 0 -69 7t-66.5 21t-56 34.5t-37.5 47.5l70 84q31 -40 75.5 -59.5t85.5 -19.5q44 0 73 21t29 61z" />
    <glyph glyph-name="afii10055" unicode="&#x406;" horiz-adv-x="347" 
d="M112 700h123v-700h-123v700z" />
    <glyph glyph-name="afii10056" unicode="&#x407;" horiz-adv-x="347" 
d="M26 825q0 29 19.5 45.5t46.5 16.5q25 0 44 -16.5t19 -45.5q0 -32 -19 -49t-44 -17q-27 0 -46.5 17t-19.5 49zM193 825q0 29 19.5 45.5t47.5 16.5q24 0 43 -16.5t19 -45.5q0 -32 -19 -49t-43 -17q-28 0 -47.5 17t-19.5 49zM112 700h123v-700h-123v700z" />
    <glyph glyph-name="afii10057" unicode="&#x408;" horiz-adv-x="390" 
d="M293 165q0 -85 -41.5 -130.5t-127.5 -45.5q-40 0 -72.5 13.5t-46.5 29.5l40 94q12 -9 28.5 -15.5t33.5 -6.5q34 0 48.5 22t14.5 60v514h123v-535z" />
    <glyph glyph-name="afii10058" unicode="&#x409;" horiz-adv-x="1011" 
d="M510 585h-204l-14 -132q-15 -153 -40 -245.5t-58.5 -141t-76.5 -61.5t-95 -5l3 122q13 -2 28 0.5t29.5 16t29 41.5t27.5 77.5t23.5 123t18.5 179.5l10 140h441v-240q23 3 43 4t34 1q130 0 193.5 -61.5t63.5 -164.5q0 -113 -74 -177t-209 -64q-51 0 -97 1t-76 1v585z
M699 350q-14 0 -30.5 -1.5t-36.5 -3.5v-229q17 -1 32 -2t33 -1q68 0 103.5 30.5t35.5 92.5q0 57 -36 85.5t-101 28.5z" />
    <glyph glyph-name="afii10059" unicode="&#x40a;" horiz-adv-x="1032" 
d="M97 700h123v-262h310v262h122v-257q24 2 44 3t34 1q65 0 113.5 -15.5t80.5 -44t47.5 -68.5t15.5 -89q0 -53 -19 -96t-55.5 -73t-89 -46.5t-119.5 -16.5q-51 0 -97 1t-76 1h-1v323h-310v-323h-123v700zM652 116q17 -1 32.5 -2t33.5 -1q68 0 103.5 28.5t35.5 85.5
q0 51 -36 78t-101 27q-14 0 -30.5 -1t-37.5 -4v-211z" />
    <glyph glyph-name="afii10060" unicode="&#x40b;" horiz-adv-x="765" 
d="M10 700h577v-115h-227v-202q25 16 62 28t88 12q40 0 77.5 -11.5t67 -38t47.5 -69t18 -104.5v-200h-122v164q0 42 -9 69.5t-25.5 44t-38.5 23.5t-47 7q-36 0 -65 -11t-53 -27v-270h-123v585h-227v115z" />
    <glyph glyph-name="afii10061" unicode="&#x40c;" horiz-adv-x="672" 
d="M97 700h123v-332l276 332h148l-288 -326l306 -374h-156l-286 361v-361h-123v700zM329 731l-32 69l214 111l43 -99z" />
    <glyph glyph-name="afii10062" unicode="&#x40e;" horiz-adv-x="683" 
d="M433 163q-36 -81 -80 -122t-110 -41q-27 0 -54.5 8.5t-41.5 19.5l43 104q14 -10 25.5 -13.5t26.5 -3.5q25 0 41.5 13t27.5 36l10 24l-309 512h139l229 -391l167 391h124zM271 870q12 -58 85 -58q34 0 55.5 13t24.5 45h115q-1 -32 -16 -58.5t-41 -45.5t-61.5 -29
t-76.5 -10q-91 0 -143 39.5t-57 103.5h115z" />
    <glyph glyph-name="afii10145" unicode="&#x40f;" horiz-adv-x="742" 
d="M97 700h123v-585h302v585h123v-700h-217v-153h-115v153h-216v700z" />
    <glyph glyph-name="afii10017" unicode="&#x410;" horiz-adv-x="715" 
d="M303 702h108l296 -702h-131l-73 179h-299l-73 -179h-124zM251 294h205l-102 249z" />
    <glyph glyph-name="afii10018" unicode="&#x411;" horiz-adv-x="614" 
d="M97 700h409v-115h-286v-156q20 3 47.5 4.5t46.5 1.5q55 0 98.5 -15t74 -42.5t46.5 -66.5t16 -87q0 -109 -70 -168.5t-200 -59.5q-61 0 -106 2t-76 2v700zM304 320q-17 0 -39 -1.5t-45 -4.5v-199q21 -2 39.5 -3t38.5 -1q69 0 99 28.5t30 75.5q0 45 -29 75t-94 30z" />
    <glyph glyph-name="afii10019" unicode="&#x412;" horiz-adv-x="617" 
d="M97 698q15 1 38.5 1.5t51 1.5t57 1.5t55.5 0.5q63 0 106.5 -13.5t71 -36.5t40 -55t12.5 -68q0 -60 -27.5 -99t-72.5 -60v-2q52 -13 87.5 -53t35.5 -110q0 -54 -20 -93.5t-54.5 -65.5t-82.5 -38.5t-103 -12.5q-24 0 -51.5 0.5t-54.5 1t-50.5 1.5t-38.5 2v697zM220 301
v-185q13 -2 34 -3.5t47 -1.5q63 0 95.5 25.5t32.5 75.5q0 45 -32 67t-90 22h-87zM297 588q-44 0 -77 -3v-177h83q43 0 73.5 22.5t30.5 70.5q0 43 -30 65t-80 22z" />
    <glyph glyph-name="afii10020" unicode="&#x413;" horiz-adv-x="507" 
d="M97 700h395v-115h-272v-585h-123v700z" />
    <glyph glyph-name="afii10021" unicode="&#x414;" horiz-adv-x="756" 
d="M12 115h75q11 13 27.5 48t33 90.5t29.5 132t18 174.5l7 140h434v-585h95v-240h-115v125h-489v-125h-115v240zM310 463q-5 -68 -16 -126.5t-23.5 -104t-26 -75.5t-22.5 -42h292v470h-193z" />
    <glyph glyph-name="afii10022" unicode="&#x415;" horiz-adv-x="575" 
d="M97 700h405v-115h-282v-174h252v-115h-252v-181h292v-115h-415v700z" />
    <glyph glyph-name="afii10024" unicode="&#x416;" horiz-adv-x="954" 
d="M21 700h141l254 -334v334h122v-334l253 334h142l-263 -334l274 -366h-142l-264 363v-363h-122v363l-265 -363h-141l274 365z" />
    <glyph glyph-name="afii10025" unicode="&#x417;" horiz-adv-x="585" 
d="M275 -11q-47 0 -85 10.5t-68 27.5t-51.5 38t-35.5 42l67 83q16 -18 36 -34t42 -27.5t45 -18t44 -6.5q25 0 48.5 6t41.5 19t28.5 32.5t10.5 46.5q0 42 -31 67t-93 25h-72v115h68q19 0 37.5 6t32.5 18t22.5 29t8.5 39q0 45 -29 67t-73 22q-85 0 -142 -76l-71 82
q35 48 95 78.5t132 30.5q46 0 84.5 -12.5t66.5 -37t43.5 -60.5t15.5 -82q0 -41 -22.5 -83t-71.5 -71v-3q63 -16 92 -61t29 -105q0 -48 -20.5 -86.5t-54.5 -65.5t-78 -41t-92 -14z" />
    <glyph glyph-name="afii10026" unicode="&#x418;" horiz-adv-x="792" 
d="M97 0v700h123v-498l367 498h108v-700h-123v497l-367 -497h-108z" />
    <glyph glyph-name="afii10027" unicode="&#x419;" horiz-adv-x="792" 
d="M97 0v700h123v-498l367 498h108v-700h-123v497l-367 -497h-108zM323 870q12 -58 85 -58q34 0 55.5 13t24.5 45h115q-1 -32 -16 -58.5t-41 -45.5t-61.5 -29t-76.5 -10q-91 0 -143 39.5t-57 103.5h115z" />
    <glyph glyph-name="afii10028" unicode="&#x41a;" horiz-adv-x="672" 
d="M97 700h123v-332l276 332h148l-288 -326l306 -374h-156l-286 361v-361h-123v700z" />
    <glyph glyph-name="afii10029" unicode="&#x41b;" horiz-adv-x="729" 
d="M510 585h-204l-14 -132q-15 -153 -40 -245.5t-58.5 -141t-76.5 -61.5t-95 -5l3 122q13 -2 28 0.5t29.5 16t29 41.5t27.5 77.5t23.5 123t18.5 179.5l10 140h441v-700h-122v585z" />
    <glyph glyph-name="afii10030" unicode="&#x41c;" horiz-adv-x="901" 
d="M97 700h124l239 -327l228 327h116v-700h-122v506l-221 -311h-18l-223 308v-503h-123v700z" />
    <glyph glyph-name="afii10031" unicode="&#x41d;" horiz-adv-x="759" 
d="M540 299h-320v-299h-123v700h123v-286h320v286h122v-700h-122v299z" />
    <glyph glyph-name="afii10032" unicode="&#x41e;" horiz-adv-x="819" 
d="M45 350q0 76 26.5 142t74.5 114.5t115 76.5t148 28q78 0 145 -26t115.5 -73t76.5 -113.5t28 -148.5q0 -79 -28 -145t-76.5 -114t-115.5 -75t-145 -27t-144.5 25.5t-115.5 73t-76.5 114t-27.5 148.5zM175 350q0 -53 18 -98t49.5 -78t74.5 -51.5t92 -18.5q55 0 98.5 19
t74 52t46.5 78t16 97q0 54 -18 99.5t-50 78t-75 50.5t-92 18q-50 0 -93 -18t-74.5 -50.5t-49 -78t-17.5 -99.5z" />
    <glyph glyph-name="afii10033" unicode="&#x41f;" horiz-adv-x="752" 
d="M532 585h-312v-585h-123v700h558v-700h-123v585z" />
    <glyph glyph-name="afii10034" unicode="&#x420;" horiz-adv-x="612" 
d="M97 0v700q15 0 41 0.5t55 0.5t57 0.5t46 0.5q77 0 129 -19t83.5 -50.5t45 -72t13.5 -83.5q0 -45 -16.5 -86t-49 -72.5t-80 -50t-110.5 -18.5q-16 0 -42 0.5t-49 2.5v-253h-123zM308 587q-19 0 -41 -0.5t-47 -1.5v-215q22 -2 44 -3.5t43 -1.5q27 0 51 6.5t41.5 20.5
t27.5 35.5t10 50.5q0 55 -33 82t-96 27z" />
    <glyph glyph-name="afii10035" unicode="&#x421;" horiz-adv-x="655" 
d="M630 68q-17 -18 -41 -32.5t-53.5 -25t-62.5 -16t-67 -5.5q-80 0 -146.5 25.5t-114 73t-74 114t-26.5 148.5q0 75 23.5 141t69 115t112 77t153.5 28q69 0 123.5 -19.5t89.5 -51.5l-55 -91q-32 21 -68.5 34t-89.5 13q-49 0 -90.5 -17t-72 -49t-48 -77.5t-17.5 -102.5
q0 -55 17.5 -100t49.5 -77.5t76.5 -50.5t98.5 -18q45 0 87.5 14t78.5 42z" />
    <glyph glyph-name="afii10036" unicode="&#x422;" horiz-adv-x="597" 
d="M10 700h577v-115h-227v-585h-123v585h-227v115z" />
    <glyph glyph-name="afii10037" unicode="&#x423;" horiz-adv-x="683" 
d="M433 163q-36 -81 -80 -122t-110 -41q-27 0 -54.5 8.5t-41.5 19.5l43 104q14 -10 25.5 -13.5t26.5 -3.5q25 0 41.5 13t27.5 36l10 24l-309 512h139l229 -391l167 391h124z" />
    <glyph glyph-name="afii10038" unicode="&#x424;" horiz-adv-x="839" 
d="M358 85q-72 0 -131.5 18t-102 53t-66 86.5t-23.5 117.5t23.5 116.5t66 85.5t102 53.5t131.5 19.5v73h123v-73q72 -1 131 -20t102 -54t66.5 -86t23.5 -115q0 -66 -23.5 -117t-66.5 -86t-102 -53.5t-131 -18.5v-93h-123v93zM674 360q0 71 -47 115.5t-146 46.5v-324
q193 2 193 162zM165 360q0 -79 50 -120t143 -42v324q-97 -1 -145 -45.5t-48 -116.5z" />
    <glyph glyph-name="afii10039" unicode="&#x425;" horiz-adv-x="669" 
d="M414 357l245 -357h-144l-181 263l-180 -263h-144l245 357l-234 343h144l172 -253l169 253h144z" />
    <glyph glyph-name="afii10040" unicode="&#x426;" horiz-adv-x="770" 
d="M97 700h123v-585h307v585h123v-585h95v-240h-115v125h-533v700z" />
    <glyph glyph-name="afii10041" unicode="&#x427;" horiz-adv-x="667" 
d="M570 0h-123v287q-25 -18 -67.5 -33t-99.5 -15q-40 0 -78 11.5t-68 38t-48.5 69t-18.5 105.5v237h123v-202q0 -42 9.5 -70t26 -44.5t39 -23t48.5 -6.5q41 0 74.5 13.5t59.5 31.5v301h123v-700z" />
    <glyph glyph-name="afii10042" unicode="&#x428;" horiz-adv-x="997" 
d="M97 700h123v-585h217v585h123v-585h217v585h123v-700h-803v700z" />
    <glyph glyph-name="afii10043" unicode="&#x429;" horiz-adv-x="1020" 
d="M97 700h123v-585h217v585h123v-585h217v585h123v-585h95v-240h-115v125h-783v700z" />
    <glyph glyph-name="afii10044" unicode="&#x42a;" horiz-adv-x="673" 
d="M7 700h276v-240q24 3 45 4t36 1q68 0 117.5 -16t82 -45.5t48.5 -71.5t16 -93q0 -56 -19 -100.5t-56 -75.5t-91.5 -48t-124.5 -17q-50 0 -97.5 1t-78.5 1v585h-154v115zM354 350q-14 0 -32 -1.5t-39 -3.5v-229l34 -2t35 -1q68 0 107 29t39 94q0 60 -39.5 87t-104.5 27z
" />
    <glyph glyph-name="afii10045" unicode="&#x42b;" horiz-adv-x="864" 
d="M645 700h122v-700h-122v700zM288 350q-14 0 -30.5 -1.5t-37.5 -3.5v-229q17 -1 32.5 -2t33.5 -1q68 0 103 30.5t35 92.5q0 57 -35.5 85.5t-100.5 28.5zM220 460q23 3 43 4t35 1q130 0 193 -61.5t63 -164.5q0 -56 -19 -100.5t-55.5 -75.5t-89 -48t-119.5 -17
q-50 0 -96.5 1t-77.5 1v700h123v-240z" />
    <glyph glyph-name="afii10046" unicode="&#x42c;" horiz-adv-x="609" 
d="M290 350q-14 0 -31.5 -1.5t-38.5 -3.5v-229q17 -1 33.5 -2t34.5 -1q68 0 107 29t39 94q0 60 -39.5 87t-104.5 27zM220 460q23 3 44.5 4t35.5 1q68 0 117.5 -16t82 -45.5t48.5 -71.5t16 -93q0 -56 -19 -100.5t-56 -75.5t-91 -48t-124 -17q-51 0 -98.5 1t-78.5 1v700h123
v-240z" />
    <glyph glyph-name="afii10047" unicode="&#x42d;" horiz-adv-x="673" 
d="M187 414h312q-18 88 -85 135t-167 47q-42 0 -84.5 -13t-79.5 -41l-48 92q37 32 98.5 54.5t142.5 22.5q77 0 142 -25.5t111.5 -72.5t72.5 -113.5t26 -148.5t-25.5 -149t-73.5 -114t-115.5 -73t-151.5 -26q-73 0 -135.5 20.5t-99.5 52.5l53 103q33 -26 79 -43.5t101 -17.5
q45 0 85.5 12.5t72.5 37t54 61t30 84.5h-315v115z" />
    <glyph glyph-name="afii10048" unicode="&#x42e;" horiz-adv-x="1081" 
d="M97 700h123v-286h119q10 64 38.5 118.5t72.5 94t102.5 62t128.5 22.5q78 0 143 -26t112.5 -73t73.5 -113.5t26 -148.5q0 -79 -26 -145t-73.5 -114t-112.5 -75t-143 -27q-67 0 -126 22t-104.5 62.5t-75.5 97.5t-38 128h-117v-299h-123v700zM464 350q0 -53 17 -98t47 -78
t70.5 -51.5t86.5 -18.5q55 0 96.5 19t69 52t41.5 78t14 97q0 54 -16 99.5t-45 78t-70 50.5t-90 18q-47 0 -87.5 -18t-70 -50.5t-46.5 -78t-17 -99.5z" />
    <glyph glyph-name="afii10049" unicode="&#x42f;" horiz-adv-x="632" 
d="M413 242h-101l-157 -242h-138l179 267q-24 12 -46.5 30.5t-39.5 42.5t-27 54.5t-10 66.5q0 48 16.5 92t51 77.5t89 53t131.5 19.5q17 0 40.5 -0.5t48 -1t47.5 -1t38 -0.5v-700h-122v242zM413 357v228q-13 1 -37 2t-40 1q-61 0 -97 -33t-36 -86q0 -24 8.5 -43t22 -33
t31 -23t36.5 -13h112z" />
    <glyph glyph-name="afii10065" unicode="&#x430;" horiz-adv-x="463" 
d="M70 418q29 17 71.5 30t87.5 13q50 0 84.5 -12.5t55.5 -36.5t30.5 -58.5t9.5 -79.5v-274h-100v52q-18 -26 -52.5 -42t-80.5 -16q-62 0 -101.5 36t-39.5 102q0 37 13 64.5t35 45.5t52 27t64 9q30 0 57.5 -8.5t44.5 -20.5q2 57 -15.5 86.5t-68.5 29.5q-39 0 -66 -10t-52 -21
zM214 91q36 0 56 13t31 28v46q-29 22 -79 22q-29 0 -50.5 -13.5t-21.5 -42.5q0 -26 18.5 -39.5t45.5 -13.5z" />
    <glyph glyph-name="afii10066" unicode="&#x431;" horiz-adv-x="548" 
d="M462 617q-22 -26 -46.5 -37.5t-52 -18t-57 -13t-62.5 -22.5q-49 -23 -70.5 -68.5t-26.5 -99.5h2q21 37 64.5 60.5t93.5 23.5q46 0 84 -15.5t65 -44.5t41.5 -69.5t14.5 -91.5q0 -47 -17 -89.5t-48 -74t-74.5 -50t-96.5 -18.5q-57 0 -102 20t-76.5 57t-48.5 89.5t-17 118.5
q0 55 7.5 110t26.5 104t52 87.5t84 60.5q37 16 66.5 22t53 11t43 13.5t37.5 28.5zM155 250q0 -33 8.5 -61t23.5 -48.5t37 -32.5t49 -12t48.5 9.5t36.5 26t23 38.5t8 46q0 51 -28 85t-83 34q-48 0 -80 -25t-43 -60z" />
    <glyph glyph-name="afii10067" unicode="&#x432;" horiz-adv-x="502" 
d="M64 450q29 1 76.5 3t100.5 2q99 0 151.5 -28t52.5 -90q0 -41 -25 -68t-59 -32v-2q48 -11 72 -38t24 -66q0 -67 -52.5 -101.5t-161.5 -34.5q-21 0 -46 1t-49.5 1.5t-46.5 1.5t-37 1v450zM179 191v-100q13 -1 34 -2.5t42 -1.5q38 0 59.5 14.5t21.5 37.5q0 26 -22 39t-63 13
h-72zM251 362q-20 0 -41.5 -0.5t-30.5 -1.5v-99h75q29 0 49 13t20 39q0 25 -20 37t-52 12z" />
    <glyph glyph-name="afii10068" unicode="&#x433;" horiz-adv-x="374" 
d="M64 450h302v-108h-187v-342h-115v450z" />
    <glyph glyph-name="afii10069" unicode="&#x434;" horiz-adv-x="556" 
d="M10 107h57q24 32 41 95t22 140l7 108h332v-343h75v-212h-108v105h-319v-105h-107v212zM241 296q-7 -72 -23 -120t-31 -69h167v235h-110z" />
    <glyph glyph-name="afii10070" unicode="&#x435;" horiz-adv-x="516" 
d="M450 45q-34 -29 -79 -42.5t-93 -13.5q-54 0 -99 17t-76.5 48t-49 74.5t-17.5 96.5q0 49 16.5 92t47 75t74.5 50.5t100 18.5q43 0 82 -15t68 -42.5t46 -66t17 -85.5q0 -21 -1.5 -35t-5.5 -27h-325q8 -51 44.5 -78t90.5 -27q42 0 74.5 12.5t52.5 28.5zM269 365
q-52 0 -80.5 -26.5t-37.5 -71.5h221q1 42 -26 70t-77 28z" />
    <glyph glyph-name="afii10072" unicode="&#x436;" horiz-adv-x="709" 
d="M540 232l161 -232h-136l-150 232l138 218h136zM295 450h115v-450h-115v450zM16 450h140l134 -218l-146 -232h-137l159 232z" />
    <glyph glyph-name="afii10073" unicode="&#x437;" horiz-adv-x="472" 
d="M223 -11q-30 0 -59.5 6t-56 16t-47.5 23.5t-33 29.5l59 72q10 -11 25 -21t32.5 -17.5t35.5 -12t34 -4.5q45 0 68.5 15.5t23.5 39.5q0 23 -17.5 37t-50.5 14h-84v77h79q29 0 44.5 16.5t15.5 38.5q0 23 -20.5 36t-58.5 13q-39 0 -70.5 -17t-52.5 -35l-48 69q31 36 80 56
t113 20q90 0 135 -34.5t45 -93.5q0 -32 -21.5 -59t-61.5 -41v-2q48 -9 71.5 -38t23.5 -68q0 -32 -14.5 -57t-41.5 -42.5t-64.5 -27t-83.5 -9.5z" />
    <glyph glyph-name="afii10074" unicode="&#x438;" horiz-adv-x="568" 
d="M64 0v450h115v-285l210 285h115v-450h-115v285l-210 -285h-115z" />
    <glyph glyph-name="afii10075" unicode="&#x439;" horiz-adv-x="568" 
d="M64 0v450h115v-285l210 285h115v-450h-115v285l-210 -285h-115zM236 675q0 -28 11.5 -50.5t40.5 -22.5q26 0 37 22.5t11 50.5h105q0 -32 -9.5 -60.5t-29 -49.5t-48 -33t-66.5 -12q-42 0 -72 12t-48.5 33t-27.5 49t-9 61h105z" />
    <glyph glyph-name="afii10076" unicode="&#x43a;" horiz-adv-x="515" 
d="M317 236l194 -236h-150l-178 227l162 223h145zM64 450h115v-450h-115v450z" />
    <glyph glyph-name="afii10077" unicode="&#x43b;" horiz-adv-x="539" 
d="M360 335h-119l-3 -48q-8 -92 -24 -149.5t-40.5 -90t-59 -44.5t-79.5 -12l-10 112q15 -2 31 6t30.5 31t25.5 64t15 106l7 140h341v-450h-115v335z" />
    <glyph glyph-name="afii10078" unicode="&#x43c;" horiz-adv-x="631" 
d="M64 450h104l153 -188l145 188h101v-450h-115v275l-133 -168h-3l-137 168v-275h-115v450z" />
    <glyph glyph-name="afii10079" unicode="&#x43d;" horiz-adv-x="555" 
d="M376 172h-197v-172h-115v450h115v-170h197v170h115v-450h-115v172z" />
    <glyph glyph-name="afii10080" unicode="&#x43e;" horiz-adv-x="562" 
d="M36 225q0 51 17.5 94t49.5 74.5t77 49.5t101 18t101 -18t77 -49.5t49.5 -74.5t17.5 -94t-17.5 -94t-49.5 -74.5t-77 -49.5t-101 -18t-101 18t-77 49.5t-49.5 74.5t-17.5 94zM159 225q0 -57 34.5 -93t87.5 -36q54 0 88.5 35t34.5 94q0 28 -9.5 52t-26 40.5t-39 26
t-48.5 9.5t-48 -9t-38.5 -25.5t-26 -40.5t-9.5 -53z" />
    <glyph glyph-name="afii10081" unicode="&#x43f;" horiz-adv-x="550" 
d="M371 342h-192v-342h-115v450h422v-450h-115v342z" />
    <glyph glyph-name="afii10082" unicode="&#x440;" horiz-adv-x="558" 
d="M64 450h115v-43q21 23 58 38.5t81 15.5q46 0 84 -17t64.5 -47.5t41 -72.5t14.5 -92q0 -51 -17 -95.5t-48 -77.5t-75 -51.5t-98 -18.5q-30 0 -57.5 5.5t-47.5 16.5v-211h-115v650zM282 353q-29 0 -55.5 -13t-47.5 -36v-182q23 -15 44.5 -20.5t50.5 -5.5q30 0 53.5 10
t39.5 28t24.5 42.5t8.5 52.5q0 54 -30.5 89t-87.5 35z" />
    <glyph glyph-name="afii10083" unicode="&#x441;" horiz-adv-x="487" 
d="M459 67q-29 -38 -76.5 -58t-102.5 -20t-100 17t-77 48t-49.5 74.5t-17.5 96.5q0 49 17 92t48 75t74 50.5t94 18.5q56 0 102.5 -14.5t78.5 -46.5l-54 -91q-26 25 -53.5 34.5t-58.5 9.5q-24 0 -46.5 -9t-40 -25.5t-28 -40t-10.5 -53.5t10.5 -54t28.5 -40.5t41.5 -25.5
t49.5 -9q37 0 65.5 15.5t50.5 39.5z" />
    <glyph glyph-name="afii10084" unicode="&#x442;" horiz-adv-x="445" 
d="M17 450h410v-115h-147v-335h-115v335h-148v115z" />
    <glyph glyph-name="afii10085" unicode="&#x443;" horiz-adv-x="503" 
d="M321 0q-25 -60 -46 -99t-41 -61.5t-41 -31t-46 -8.5q-31 0 -54 10.5t-43 24.5l37 87q9 -5 21 -10.5t26 -5.5q41 0 69 70l10 24l-208 450h138l105 -246q7 -17 12 -32.5t10 -32.5q3 16 6.5 32.5t9.5 33.5l81 245h131z" />
    <glyph glyph-name="afii10086" unicode="&#x444;" horiz-adv-x="687" 
d="M286 -11h-6q-59 0 -104.5 18t-76.5 49.5t-47 75t-16 93.5q0 46 16 88.5t46.5 75.5t76 52.5t104.5 19.5h7v239h115v-239h8q58 0 103 -18.5t76 -50t47 -75t16 -92.5q0 -50 -15 -93.5t-45 -75t-75.5 -49.5t-106.5 -18h-8v-189h-115v189zM401 353v-257h4q63 0 93 36t30 93
q0 25 -7 48t-22 41t-37.5 28.5t-52.5 10.5h-8zM159 225q0 -57 30.5 -93t93.5 -36h3v257h-8q-32 0 -54.5 -10.5t-37 -28t-21 -40.5t-6.5 -49z" />
    <glyph glyph-name="afii10087" unicode="&#x445;" horiz-adv-x="522" 
d="M344 235l160 -235h-140l-105 162l-109 -162h-133l160 229l-150 221h141l95 -149l98 149h133z" />
    <glyph glyph-name="afii10088" unicode="&#x446;" horiz-adv-x="566" 
d="M64 450h115v-343h185v343h115v-343h75v-212h-108v105h-382v450z" />
    <glyph glyph-name="afii10089" unicode="&#x447;" horiz-adv-x="491" 
d="M427 0h-115v155q-21 -11 -50.5 -18.5t-61.5 -7.5q-87 0 -125 45.5t-38 131.5v144h123v-130q0 -42 19 -62.5t54 -20.5q22 0 44 5t35 13v195h115v-450z" />
    <glyph glyph-name="afii10090" unicode="&#x448;" horiz-adv-x="728" 
d="M64 450h115v-343h127v343h115v-343h128v343h115v-450h-600v450z" />
    <glyph glyph-name="afii10091" unicode="&#x449;" horiz-adv-x="751" 
d="M64 450h115v-343h127v343h115v-343h128v343h115v-343h75v-212h-108v105h-567v450z" />
    <glyph glyph-name="afii10092" unicode="&#x44a;" horiz-adv-x="536" 
d="M15 450h232v-123h63q57 0 95.5 -13t61 -35t32 -50t9.5 -58q0 -32 -11 -63t-35.5 -55t-64 -38.5t-96.5 -14.5h-169v342h-117v108zM247 235v-135h52q47 0 66.5 18t19.5 49t-19.5 49.5t-65.5 18.5h-53z" />
    <glyph glyph-name="afii10093" unicode="&#x44b;" horiz-adv-x="676" 
d="M64 450h115v-123h56q57 0 95.5 -13t61 -35t32 -50t9.5 -58q0 -32 -11 -63t-35.5 -55t-64 -38.5t-96.5 -14.5h-162v450zM497 450h115v-450h-115v450zM179 235v-135h45q47 0 67 18t20 49t-19.5 49.5t-66.5 18.5h-46z" />
    <glyph glyph-name="afii10094" unicode="&#x44c;" horiz-adv-x="467" 
d="M64 450h115v-123h62q57 0 95.5 -13t61 -35t32 -50t9.5 -58q0 -32 -11 -63t-35.5 -55t-64 -38.5t-96.5 -14.5h-168v450zM179 235v-135h51q47 0 67 18t20 49t-19.5 49.5t-66.5 18.5h-52z" />
    <glyph glyph-name="afii10095" unicode="&#x44d;" horiz-adv-x="496" 
d="M140 266h200q-11 49 -47 72t-82 23q-39 0 -69.5 -13t-59.5 -34l-47 80q16 17 37 29.5t44.5 21t47.5 12.5t45 4q58 0 104.5 -16.5t79 -47.5t50 -74.5t17.5 -97.5q0 -49 -16 -92t-47 -75t-75.5 -50.5t-101.5 -18.5q-66 0 -111 17.5t-76 49.5l54 76q19 -17 51.5 -30
t74.5 -13q51 0 85 25t43 75h-201v77z" />
    <glyph glyph-name="afii10096" unicode="&#x44e;" horiz-adv-x="772" 
d="M64 450h122v-163h80q9 39 28.5 71t48.5 55t67.5 35.5t83.5 12.5q55 0 99.5 -18t76 -49.5t49 -74.5t17.5 -94t-17.5 -94t-49.5 -74.5t-76.5 -49.5t-98.5 -18q-47 0 -86 13.5t-68 37.5t-48.5 57.5t-27.5 74.5h-78v-172h-122v450zM389 225q0 -58 30.5 -89.5t77.5 -31.5
q48 0 78.5 32t30.5 89q0 56 -29 88.5t-80 32.5q-48 0 -78 -32.5t-30 -88.5z" />
    <glyph glyph-name="afii10097" unicode="&#x44f;" horiz-adv-x="495" 
d="M431 450v-450h-115v135h-64l-93 -135h-132l120 160q-15 5 -30 15.5t-28 27t-21 38t-8 49.5q0 33 12 62t39 50.5t69.5 34.5t103.5 13h147zM183 282q0 -28 23 -45t50 -17h60v130h-51q-42 0 -62 -21t-20 -47z" />
    <glyph glyph-name="afii10071" unicode="&#x451;" horiz-adv-x="516" 
d="M450 45q-34 -29 -79 -42.5t-93 -13.5q-54 0 -99 17t-76.5 48t-49 74.5t-17.5 96.5q0 49 16.5 92t47 75t74.5 50.5t100 18.5q43 0 82 -15t68 -42.5t46 -66t17 -85.5q0 -21 -1.5 -35t-5.5 -27h-325q8 -51 44.5 -78t90.5 -27q42 0 74.5 12.5t52.5 28.5zM269 365
q-52 0 -80.5 -26.5t-37.5 -71.5h221q1 42 -26 70t-77 28zM109 599q0 30 19.5 47t45.5 17q23 0 41.5 -17t18.5 -47q0 -32 -18.5 -49.5t-41.5 -17.5q-26 0 -45.5 17.5t-19.5 49.5zM308 599q0 30 19 47t45 17q23 0 41.5 -17t18.5 -47q0 -32 -18.5 -49.5t-41.5 -17.5
q-26 0 -45 17.5t-19 49.5z" />
    <glyph glyph-name="afii10099" unicode="&#x452;" horiz-adv-x="590" 
d="M7 525h118v175h115v-175h158v-93h-158v-118q22 21 56 35t73 14q41 0 75 -11t58.5 -34t38 -60t13.5 -88q0 -66 -13 -123t-35 -104t-52.5 -83t-64.5 -60h-123q85 69 128.5 158.5t43.5 183.5q0 57 -25.5 85t-72.5 28q-59 0 -100 -41v-214h-115v432h-118v93z" />
    <glyph glyph-name="afii10100" unicode="&#x453;" horiz-adv-x="374" 
d="M64 450h302v-108h-187v-342h-115v450zM235 517l-69 48l105 165l90 -68z" />
    <glyph glyph-name="afii10101" unicode="&#x454;" horiz-adv-x="495" 
d="M356 189h-202q11 -50 48 -75t89 -25q42 0 71 13t48 30l54 -76q-32 -32 -73 -49.5t-107 -17.5q-59 0 -105 18.5t-78 50.5t-48.5 75t-16.5 92q0 54 17.5 97.5t50 74.5t79 47.5t104.5 16.5q21 0 45 -4t47 -12.5t44.5 -21t37.5 -29.5l-47 -80q-24 21 -56.5 34t-72.5 13
q-46 0 -82 -23t-48 -72h201v-77z" />
    <glyph glyph-name="afii10102" unicode="&#x455;" horiz-adv-x="444" 
d="M292 127q0 18 -18 28.5t-45 18.5t-58.5 17t-58.5 25t-45 41.5t-18 66.5q0 33 12.5 58.5t35 43t52.5 26.5t65 9q66 0 108 -18.5t63 -38.5l-43 -82q-20 16 -53 29.5t-69 13.5q-26 0 -41 -12t-15 -27q0 -19 18 -29.5t45 -18.5t58.5 -17t58.5 -24t45 -39.5t18 -64.5
q0 -67 -49.5 -105.5t-132.5 -38.5q-31 0 -61.5 7.5t-56 19t-44 25t-26.5 25.5l56 75q10 -11 27 -21t36.5 -18t39.5 -12.5t37 -4.5q25 0 42 10.5t17 31.5z" />
    <glyph glyph-name="afii10103" unicode="&#x456;" horiz-adv-x="277" 
d="M81 450h115v-450h-115v450zM69 612q0 31 21.5 49t50.5 18q25 0 45.5 -18t20.5 -49q0 -35 -20.5 -53.5t-45.5 -18.5q-29 0 -50.5 18.5t-21.5 53.5z" />
    <glyph glyph-name="afii10104" unicode="&#x457;" horiz-adv-x="315" 
d="M25 597q0 26 17 41t42 15q20 0 37 -15t17 -41q0 -29 -17 -44t-37 -15q-25 0 -42 15t-17 44zM177 597q0 26 17.5 41t41.5 15q21 0 37.5 -15t16.5 -41q0 -29 -16.5 -44t-37.5 -15q-24 0 -41.5 15t-17.5 44zM113 450h115v-450h-115v450z" />
    <glyph glyph-name="afii10105" unicode="&#x458;" horiz-adv-x="284" 
d="M202 -33q0 -83 -33 -129t-108 -46q-36 0 -66 9.5t-44 22.5l31 91q12 -8 24 -12t27 -4q30 0 42 21.5t12 56.5v473h115v-483zM76 612q0 31 21.5 49t50.5 18q25 0 45.5 -18t20.5 -49q0 -35 -20.5 -53.5t-45.5 -18.5q-29 0 -50.5 18.5t-21.5 53.5z" />
    <glyph glyph-name="afii10106" unicode="&#x459;" horiz-adv-x="742" 
d="M360 335h-119l-3 -48q-8 -92 -24 -149.5t-40.5 -90t-59 -44.5t-79.5 -12l-10 112q15 -2 31 6t30.5 31t25.5 64t15 106l7 140h341v-123h42q57 0 95.5 -13t61 -35t32 -50t9.5 -58q0 -32 -11 -63t-35.5 -55t-64 -38.5t-96.5 -14.5h-148v335zM475 235v-135h31q47 0 66.5 18
t19.5 49t-19.5 49.5t-65.5 18.5h-32z" />
    <glyph glyph-name="afii10107" unicode="&#x45a;" horiz-adv-x="759" 
d="M376 177h-197v-177h-115v450h115v-165h197v165h115v-128h42q57 0 95.5 -12.5t61 -34t32 -49t9.5 -57.5q0 -33 -11 -63.5t-35.5 -54t-64 -37.5t-96.5 -14h-148v177zM491 230v-130h31q47 0 67 16.5t20 48.5q0 31 -19.5 48t-66.5 17h-32z" />
    <glyph glyph-name="afii10108" unicode="&#x45b;" horiz-adv-x="590" 
d="M7 525h118v175h115v-175h158v-93h-158v-118q22 21 56 35t73 14q41 0 75 -11t58.5 -34.5t38 -61t13.5 -90.5v-166h-115v151q0 51 -26 77.5t-73 26.5q-59 0 -100 -41v-214h-115v432h-118v93z" />
    <glyph glyph-name="afii10109" unicode="&#x45c;" horiz-adv-x="515" 
d="M317 236l194 -236h-150l-178 227l162 223h145zM64 450h115v-450h-115v450zM258 517l-69 48l105 165l90 -68z" />
    <glyph glyph-name="afii10110" unicode="&#x45e;" horiz-adv-x="503" 
d="M321 0q-25 -60 -46 -99t-41 -61.5t-41 -31t-46 -8.5q-31 0 -54 10.5t-43 24.5l37 87q9 -5 21 -10.5t26 -5.5q41 0 69 70l10 24l-208 450h138l105 -246q7 -17 12 -32.5t10 -32.5q3 16 6.5 32.5t9.5 33.5l81 245h131zM208 675q0 -28 11.5 -50.5t40.5 -22.5q26 0 37 22.5
t11 50.5h105q0 -32 -9.5 -60.5t-29 -49.5t-48 -33t-66.5 -12q-42 0 -72 12t-48.5 33t-27.5 49t-9 61h105z" />
    <glyph glyph-name="afii10193" unicode="&#x45f;" horiz-adv-x="540" 
d="M64 450h115v-343h182v343h115v-450h-152v-118h-108v118h-152v450z" />
    <glyph glyph-name="afii10146" unicode="&#x462;" horiz-adv-x="648" 
d="M258 620h148v-115h-148v-75q24 3 45 4t36 1q136 0 200 -54t64 -157q0 -112 -75 -169t-216 -57q-50 0 -97.5 1t-78.5 1v505h-121v115h121v80h122v-80zM329 320q-14 0 -32 -1.5t-39 -3.5v-199l34 -2t35 -1q34 0 61 5t46 17t29 33t10 53q0 30 -10.5 49t-29.5 30t-45.5 15.5
t-58.5 4.5z" />
    <glyph glyph-name="afii10194" unicode="&#x463;" horiz-adv-x="517" 
d="M7 450h118v250h115v-250h136v-93h-136v-60h51q57 0 95.5 -11t61 -29.5t32 -44.5t9.5 -56q0 -32 -11 -60.5t-35.5 -49.5t-64 -33.5t-96.5 -12.5h-157v357h-118v93zM240 212v-120h40q47 0 67 14.5t20 45.5t-19.5 45.5t-66.5 14.5h-41z" />
    <glyph glyph-name="afii10147" unicode="&#x472;" horiz-adv-x="819" 
d="M45 350q0 76 26.5 142t74.5 114.5t115 76.5t148 28q78 0 145 -26t115.5 -73t76.5 -113.5t28 -148.5q0 -79 -28 -145t-76.5 -114t-115.5 -75t-145 -27t-144.5 25.5t-115.5 73t-76.5 114t-27.5 148.5zM304 339q-35 0 -68 -18t-54 -36q10 -40 31 -73.5t51 -57.5t67 -37
t78 -13q48 0 87.5 14.5t69 41t48.5 62.5t26 79q-28 -16 -58.5 -26t-57.5 -10q-35 0 -62 11.5t-52 25.5t-50 25.5t-56 11.5zM533 373q26 0 55 12.5t49 28.5q-10 41 -31 74.5t-51 57.5t-67 37t-79 13q-44 0 -82 -13.5t-68 -38.5t-50.5 -60.5t-28.5 -78.5q29 19 62 30t62 11
q35 0 63 -11.5t53.5 -25t52.5 -25t60 -11.5z" />
    <glyph glyph-name="afii10195" unicode="&#x473;" horiz-adv-x="577" 
d="M36 225q0 51 17.5 94t50 74.5t79.5 49.5t106 18q58 0 105 -18t79.5 -49.5t50 -74.5t17.5 -94t-17.5 -94t-50 -74.5t-79.5 -49.5t-105 -18q-59 0 -106 18t-79.5 49.5t-50 74.5t-17.5 94zM217 211q-16 0 -30 -6t-31 -23q12 -52 50 -76.5t83 -24.5q46 0 84 25.5t49 82.5
q-17 -15 -35.5 -21.5t-35.5 -6.5q-23 0 -40 8t-32.5 17t-30 17t-31.5 8zM366 239q14 0 28 5t28 19q-6 27 -19 46.5t-31 32.5t-39.5 19.5t-43.5 6.5q-46 0 -85 -25.5t-50 -82.5q18 14 36 21t32 7q24 0 43.5 -7.5t36.5 -17t32.5 -17t31.5 -7.5z" />
    <glyph glyph-name="afii10148" unicode="&#x474;" horiz-adv-x="661" 
d="M378 -2h-93l-288 702h131l207 -518l130 378q16 46 33.5 78t42 49.5t58.5 20.5t82 -9l-16 -107q-22 7 -36.5 4t-25.5 -15t-20.5 -32.5t-19.5 -49.5z" />
    <glyph glyph-name="afii10196" unicode="&#x475;" horiz-adv-x="492" 
d="M292 -2h-86l-209 452h137l85 -193q10 -20 19 -47.5t15 -53.5q6 26 14.5 53.5t16.5 49.5l30 79q13 36 28.5 62.5t37.5 41t53.5 16.5t78.5 -10l-17 -108q-19 7 -32.5 5.5t-23.5 -11t-18.5 -26.5t-18.5 -40z" />
    <glyph glyph-name="afii10050" unicode="&#x490;" horiz-adv-x="507" 
d="M97 700h280v117h115v-232h-272v-585h-123v700z" />
    <glyph glyph-name="afii10098" unicode="&#x491;" horiz-adv-x="374" 
d="M64 450h195v97h107v-205h-187v-342h-115v450z" />
    <glyph glyph-name="uni1E9E" unicode="&#x1e9e;" horiz-adv-x="674" 
d="M491 184q0 27 -17.5 52t-46.5 49t-66 47t-76 46l132 181q-11 16 -36 26.5t-54 10.5q-47 0 -77 -28.5t-30 -92.5v-476h-123v468q0 65 17.5 111t48.5 75.5t74.5 43.5t94.5 14q31 0 62.5 -7.5t62 -23t58 -39t50.5 -54.5l-135 -172q36 -19 70 -44.5t61 -57t43.5 -68.5
t16.5 -80q0 -41 -16 -73.5t-42 -55.5t-58 -35t-63 -12q-33 0 -59.5 5.5t-47.5 14.5t-37 20.5t-29 23.5l53 96q23 -20 43.5 -32.5t49.5 -12.5q31 0 53.5 21t22.5 59z" />
    <glyph glyph-name="uni2010" unicode="&#x2010;" horiz-adv-x="376" 
d="M62 327h252v-107h-252v107z" />
    <glyph glyph-name="uni2011" unicode="&#x2011;" horiz-adv-x="376" 
d="M62 327h252v-107h-252v107z" />
    <glyph glyph-name="figuredash" unicode="&#x2012;" horiz-adv-x="599" 
d="M85 404h429v-100h-429v100z" />
    <glyph glyph-name="endash" unicode="&#x2013;" horiz-adv-x="599" 
d="M85 320h429v-100h-429v100z" />
    <glyph glyph-name="emdash" unicode="&#x2014;" horiz-adv-x="814" 
d="M85 320h644v-100h-644v100z" />
    <glyph glyph-name="afii00208" unicode="&#x2015;" horiz-adv-x="814" 
d="M85 320h644v-100h-644v100z" />
    <glyph glyph-name="quoteleft" unicode="&#x2018;" horiz-adv-x="241" 
d="M81 494q-16 17 -25 42.5t-9 50.5q0 35 9.5 62.5t24.5 49t32.5 36.5t33.5 24l53 -49q-22 -18 -33.5 -44t-11.5 -54q0 -18 6 -34.5t17 -27.5z" />
    <glyph glyph-name="quoteright" unicode="&#x2019;" horiz-adv-x="241" 
d="M160 755q16 -17 25 -42.5t9 -50.5q0 -35 -9.5 -63t-24.5 -49t-32.5 -36t-33.5 -24l-53 49q22 18 33.5 43.5t11.5 53.5q0 19 -6 35t-17 27z" />
    <glyph glyph-name="quotesinglbase" unicode="&#x201a;" horiz-adv-x="241" 
d="M160 90q16 -17 25 -42.5t9 -50.5q0 -35 -9.5 -63t-24.5 -49t-32.5 -36t-33.5 -24l-53 49q22 18 33.5 43.5t11.5 53.5q0 39 -23 62z" />
    <glyph glyph-name="quotedblleft" unicode="&#x201c;" horiz-adv-x="404" 
d="M243 494q-16 17 -25 42.5t-9 50.5q0 35 9.5 62.5t24.5 49t32.5 36.5t33.5 24l53 -49q-22 -18 -33.5 -44t-11.5 -54q0 -18 6 -34.5t17 -27.5zM81 494q-16 17 -25 42.5t-9 50.5q0 35 9.5 62.5t24.5 49t32.5 36.5t33.5 24l53 -49q-22 -18 -33.5 -44t-11.5 -54q0 -18 6 -34.5
t17 -27.5z" />
    <glyph glyph-name="quotedblright" unicode="&#x201d;" horiz-adv-x="404" 
d="M322 755q16 -17 25 -42.5t9 -50.5q0 -35 -9.5 -63t-24.5 -49t-32.5 -36t-33.5 -24l-53 49q22 18 33.5 43.5t11.5 53.5q0 19 -6 35t-17 27zM160 755q16 -17 25 -42.5t9 -50.5q0 -35 -9.5 -63t-24.5 -49t-32.5 -36t-33.5 -24l-53 49q22 18 33.5 43.5t11.5 53.5q0 19 -6 35
t-17 27z" />
    <glyph glyph-name="quotedblbase" unicode="&#x201e;" horiz-adv-x="404" 
d="M322 90q16 -17 25 -42.5t9 -50.5q0 -35 -9.5 -63t-24.5 -49t-32.5 -36t-33.5 -24l-53 49q22 18 33.5 43.5t11.5 53.5q0 39 -23 62zM160 90q16 -17 25 -42.5t9 -50.5q0 -35 -9.5 -63t-24.5 -49t-32.5 -36t-33.5 -24l-53 49q22 18 33.5 43.5t11.5 53.5q0 39 -23 62z" />
    <glyph glyph-name="dagger" unicode="&#x2020;" horiz-adv-x="491" 
d="M40 495h152v205h107v-205h152v-100h-152v-495h-107v495h-152v100z" />
    <glyph glyph-name="daggerdbl" unicode="&#x2021;" horiz-adv-x="491" 
d="M40 495h152v205h107v-205h152v-100h-152v-160h152v-100h-152v-235h-107v235h-152v100h152v160h-152v100z" />
    <glyph glyph-name="bullet" unicode="&#x2022;" horiz-adv-x="285" 
d="M25 264q0 24 9.5 45.5t25 37.5t37 25.5t45.5 9.5t45.5 -9.5t37.5 -25.5t25.5 -37.5t9.5 -45.5t-9.5 -45t-25.5 -37t-37.5 -25.5t-45.5 -9.5t-45.5 9.5t-37 25.5t-25 37t-9.5 45z" />
    <glyph glyph-name="ellipsis" unicode="&#x2026;" horiz-adv-x="863" 
d="M655 75q0 13 5.5 26.5t16 24t25 17t33.5 6.5q16 0 29.5 -6.5t23 -17t15 -24t5.5 -26.5q0 -15 -5.5 -29.5t-15 -26t-23 -18t-29.5 -6.5q-38 0 -59 24.5t-21 55.5zM355 75q0 13 5.5 26.5t16 24t25 17t33.5 6.5q16 0 29.5 -6.5t23 -17t15 -24t5.5 -26.5q0 -15 -5.5 -29.5
t-15 -26t-23 -18t-29.5 -6.5q-38 0 -59 24.5t-21 55.5zM55 75q0 13 5.5 26.5t16 24t25 17t33.5 6.5q16 0 29.5 -6.5t23 -17t15 -24t5.5 -26.5q0 -15 -5.5 -29.5t-15 -26t-23 -18t-29.5 -6.5q-38 0 -59 24.5t-21 55.5z" />
    <glyph glyph-name="perthousand" unicode="&#x2030;" horiz-adv-x="1345" 
d="M913 169q0 40 14.5 73t41 56.5t62.5 36t79 12.5t79 -12.5t62 -36t41 -56.5t15 -73t-15 -73t-41 -56.5t-62 -36.5t-79 -13t-79 13t-62.5 36.5t-41 56.5t-14.5 73zM1021 169q0 -40 26 -63t63 -23q39 0 64.5 23t25.5 63q0 39 -26 62t-64 23t-63.5 -23t-25.5 -62zM675 711
l65 -49l-504 -673l-66 46zM37 531q0 40 14.5 73t41 56.5t62.5 36t79 12.5t79 -12.5t62 -36t41 -56.5t15 -73t-15 -73t-41 -56.5t-62 -36.5t-79 -13t-79 13t-62.5 36.5t-41 56.5t-14.5 73zM145 531q0 -40 26 -63t63 -23q39 0 64.5 23t25.5 63q0 39 -26 62t-64 23t-63.5 -23
t-25.5 -62zM479 169q0 40 14.5 73t41 56.5t62.5 36t79 12.5t79 -12.5t62 -36t41 -56.5t15 -73t-15 -73t-41 -56.5t-62 -36.5t-79 -13t-79 13t-62.5 36.5t-41 56.5t-14.5 73zM587 169q0 -40 26 -63t63 -23q39 0 64.5 23t25.5 63q0 39 -26 62t-64 23t-63.5 -23t-25.5 -62z" />
    <glyph glyph-name="guilsinglleft" unicode="&#x2039;" horiz-adv-x="351" 
d="M37 248v4l197 226l75 -67l-139 -161l138 -163l-78 -65z" />
    <glyph glyph-name="guilsinglright" unicode="&#x203a;" horiz-adv-x="351" 
d="M121 22l-78 65l138 163l-139 161l75 67l197 -226v-4z" />
    <glyph glyph-name="fraction" unicode="&#x2044;" horiz-adv-x="210" 
d="M325 711l65 -49l-504 -673l-66 46z" />
    <glyph glyph-name="uni2070" unicode="&#x2070;" horiz-adv-x="398" 
d="M35 525q0 37 10.5 70t31 57t51 38t71.5 14q40 0 71 -14.5t51.5 -39t31 -57t10.5 -68.5q0 -37 -10.5 -69.5t-30.5 -57t-51 -38.5t-71 -14q-41 0 -72 13.5t-51.5 37t-31 56.5t-10.5 72zM142 525q0 -53 17 -73.5t41 -20.5q29 0 42 21.5t13 72.5q0 52 -14 73t-42 21
t-42.5 -22t-14.5 -72z" />
    <glyph glyph-name="uni2074" unicode="&#x2074;" horiz-adv-x="373" 
d="M205 420h-193v67l155 213h95l-148 -202h91v77h92v-77h56v-78h-56v-70h-92v70z" />
    <glyph glyph-name="uni2075" unicode="&#x2075;" horiz-adv-x="347" 
d="M78 700h226v-78h-156l-8 -54q6 2 19 5t29 3q57 0 91.5 -28.5t34.5 -78.5q0 -61 -43 -93t-109 -32q-107 0 -146 57l51 54q12 -14 33 -24t45 -10q62 0 62 43q0 18 -18.5 30t-57.5 12q-18 0 -40.5 -2.5t-32.5 -5.5z" />
    <glyph glyph-name="uni2076" unicode="&#x2076;" horiz-adv-x="395" 
d="M31 484q0 45 19.5 84.5t54 69.5t82 48t102.5 20l20 -68q-65 -7 -108 -33.5t-62 -67.5q15 13 40.5 22.5t55.5 9.5q59 0 94.5 -29t35.5 -78q0 -26 -12 -48t-33.5 -37.5t-50.5 -24t-63 -8.5q-87 0 -131 38.5t-44 101.5zM139 469q1 -18 18 -33t49 -15q25 0 38.5 11.5
t13.5 27.5q0 17 -13.5 28t-40.5 11q-23 0 -39.5 -9.5t-25.5 -20.5z" />
    <glyph glyph-name="uni2077" unicode="&#x2077;" horiz-adv-x="329" 
d="M14 700h302v-61l-153 -289h-109l146 265h-186v85z" />
    <glyph glyph-name="uni2078" unicode="&#x2078;" horiz-adv-x="412" 
d="M211 565q23 0 35 9.5t12 22.5q0 14 -14 23t-39 9q-23 0 -37 -9t-14 -24q0 -14 13 -22.5t35 -8.5h9zM203 495q-26 0 -43.5 -10t-17.5 -27q0 -16 15.5 -26.5t48.5 -10.5q29 0 46 10t17 27q0 18 -16.5 27.5t-41.5 9.5h-8zM206 344q-74 0 -119 26t-45 71q0 35 18.5 56.5
t47.5 31.5v2q-23 10 -38.5 29t-15.5 54q0 42 42.5 67t109.5 25q33 0 61 -6.5t48 -18.5t31.5 -29t11.5 -38q0 -26 -15 -48.5t-47 -34.5v-1q32 -7 52.5 -27.5t20.5 -54.5q0 -51 -44 -77.5t-119 -26.5z" />
    <glyph glyph-name="uni2079" unicode="&#x2079;" horiz-adv-x="395" 
d="M364 553q0 -48 -19.5 -86t-54 -65t-82 -42t-104.5 -16l-16 70q70 6 117 33t51 66q-15 -18 -40.5 -29t-55.5 -11q-29 0 -53 8.5t-41 23.5t-26.5 35t-9.5 43q0 28 12 51t33.5 39t50.5 24.5t63 8.5q87 0 131 -40.5t44 -112.5zM256 573q-2 25 -18.5 40.5t-48.5 15.5
q-25 0 -38.5 -11.5t-13.5 -27.5q0 -17 13.5 -32t40.5 -15q23 0 39.5 9.5t25.5 20.5z" />
    <glyph glyph-name="uni207A" unicode="&#x207a;" horiz-adv-x="360" 
d="M42 569h98v94h78v-94h99v-78h-99v-96h-78v96h-98v78z" />
    <glyph glyph-name="uni207B" unicode="&#x207b;" horiz-adv-x="360" 
d="M42 569h275v-78h-275v78z" />
    <glyph glyph-name="uni207C" unicode="&#x207c;" horiz-adv-x="360" 
d="M42 494h275v-78h-275v78zM42 644h275v-78h-275v78z" />
    <glyph glyph-name="uni207D" unicode="&#x207d;" horiz-adv-x="235" 
d="M166 307q-39 19 -65 45t-41.5 54.5t-22.5 58.5t-7 58q0 55 31.5 112.5t105.5 102.5l52 -57q-45 -30 -67 -66.5t-22 -91.5q0 -56 28.5 -94.5t66.5 -63.5z" />
    <glyph glyph-name="uni207E" unicode="&#x207e;" horiz-adv-x="235" 
d="M69 738q38 -20 64 -45.5t42 -54t23 -58.5t7 -58q0 -55 -31.5 -112.5t-105.5 -102.5l-53 57q45 30 67.5 66.5t22.5 91.5q0 56 -28.5 94t-66.5 63z" />
    <glyph glyph-name="uni2080" unicode="&#x2080;" horiz-adv-x="398" 
d="M35 175q0 37 10.5 70t31 57t51 38t71.5 14q40 0 71 -14.5t51.5 -39t31 -57t10.5 -68.5q0 -37 -10.5 -69.5t-30.5 -57t-51 -38.5t-71 -14q-41 0 -72 13.5t-51.5 37t-31 56.5t-10.5 72zM142 175q0 -53 17 -73.5t41 -20.5q29 0 42 21.5t13 72.5q0 52 -14 73t-42 21
t-42.5 -22t-14.5 -72z" />
    <glyph glyph-name="uni2081" unicode="&#x2081;" horiz-adv-x="269" 
d="M129 349h72v-349h-100v234l-48 -28l-37 68z" />
    <glyph glyph-name="uni2082" unicode="&#x2082;" horiz-adv-x="363" 
d="M30 73q29 17 61 36.5t59 40t44.5 41t17.5 39.5q0 18 -11.5 28.5t-31.5 10.5q-21 0 -36 -16t-18 -34l-83 29q8 49 46.5 77.5t100.5 28.5q69 0 104.5 -31t35.5 -80q0 -33 -18 -59t-43.5 -45.5t-52.5 -33t-45 -20.5h175v-85h-305v73z" />
    <glyph glyph-name="uni2083" unicode="&#x2083;" horiz-adv-x="361" 
d="M175 -6q-51 0 -94 18t-64 56l58 53q10 -18 33.5 -32t49.5 -14q32 0 46.5 10t14.5 25q0 13 -13.5 22.5t-45.5 9.5h-30v70h28q23 0 35.5 9.5t12.5 24.5q0 13 -11.5 21t-33.5 8q-30 0 -51 -12.5t-34 -28.5l-48 55q17 26 53.5 46.5t99.5 20.5q58 0 95.5 -23.5t37.5 -65.5
q0 -32 -21 -53t-56 -29v-1q45 -3 67 -27t22 -56q0 -25 -12.5 -45t-33 -33.5t-48 -21t-57.5 -7.5z" />
    <glyph glyph-name="uni2084" unicode="&#x2084;" horiz-adv-x="373" 
d="M205 70h-193v67l155 213h95l-148 -202h91v77h92v-77h56v-78h-56v-70h-92v70z" />
    <glyph glyph-name="uni2085" unicode="&#x2085;" horiz-adv-x="347" 
d="M78 350h226v-78h-156l-8 -54q6 2 19 5t29 3q57 0 91.5 -28.5t34.5 -78.5q0 -61 -43 -93t-109 -32q-107 0 -146 57l51 54q12 -14 33 -24t45 -10q62 0 62 43q0 18 -18.5 30t-57.5 12q-18 0 -40.5 -2.5t-32.5 -5.5z" />
    <glyph glyph-name="uni2086" unicode="&#x2086;" horiz-adv-x="395" 
d="M31 134q0 45 19.5 84.5t54 69.5t82 48t102.5 20l20 -68q-65 -7 -108 -33.5t-62 -67.5q15 13 40.5 22.5t55.5 9.5q59 0 94.5 -29t35.5 -78q0 -26 -12 -48t-33.5 -37.5t-50.5 -24t-63 -8.5q-87 0 -131 38.5t-44 101.5zM139 119q1 -18 18 -33t49 -15q25 0 38.5 11.5
t13.5 27.5q0 17 -13.5 28t-40.5 11q-23 0 -39.5 -9.5t-25.5 -20.5z" />
    <glyph glyph-name="uni2087" unicode="&#x2087;" horiz-adv-x="329" 
d="M14 350h302v-61l-153 -289h-109l146 265h-186v85z" />
    <glyph glyph-name="uni2088" unicode="&#x2088;" horiz-adv-x="412" 
d="M211 215q23 0 35 9.5t12 22.5q0 14 -14 23t-39 9q-23 0 -37 -9t-14 -24q0 -14 13 -22.5t35 -8.5h9zM203 145q-26 0 -43.5 -10t-17.5 -27q0 -16 15.5 -26.5t48.5 -10.5q29 0 46 10t17 27q0 18 -16.5 27.5t-41.5 9.5h-8zM206 -6q-74 0 -119 26t-45 71q0 35 18.5 56.5
t47.5 31.5v2q-23 10 -38.5 29t-15.5 54q0 42 42.5 67t109.5 25q33 0 61 -6.5t48 -18.5t31.5 -29t11.5 -38q0 -26 -15 -48.5t-47 -34.5v-1q32 -7 52.5 -27.5t20.5 -54.5q0 -51 -44 -77.5t-119 -26.5z" />
    <glyph glyph-name="uni2089" unicode="&#x2089;" horiz-adv-x="395" 
d="M364 203q0 -48 -19.5 -86t-54 -65t-82 -42t-104.5 -16l-16 70q70 6 117 33t51 66q-15 -18 -40.5 -29t-55.5 -11q-29 0 -53 8.5t-41 23.5t-26.5 35t-9.5 43q0 28 12 51t33.5 39t50.5 24.5t63 8.5q87 0 131 -40.5t44 -112.5zM256 223q-2 25 -18.5 40.5t-48.5 15.5
q-25 0 -38.5 -11.5t-13.5 -27.5q0 -17 13.5 -32t40.5 -15q23 0 39.5 9.5t25.5 20.5z" />
    <glyph glyph-name="uni208A" unicode="&#x208a;" horiz-adv-x="360" 
d="M42 219h98v94h78v-94h99v-78h-99v-96h-78v96h-98v78z" />
    <glyph glyph-name="uni208B" unicode="&#x208b;" horiz-adv-x="360" 
d="M42 219h275v-78h-275v78z" />
    <glyph glyph-name="uni208C" unicode="&#x208c;" horiz-adv-x="360" 
d="M42 144h275v-78h-275v78zM42 294h275v-78h-275v78z" />
    <glyph glyph-name="uni208D" unicode="&#x208d;" horiz-adv-x="235" 
d="M166 -43q-39 19 -65 45t-41.5 54.5t-22.5 58.5t-7 58q0 55 31.5 112.5t105.5 102.5l52 -57q-45 -30 -67 -66.5t-22 -91.5q0 -56 28.5 -94.5t66.5 -63.5z" />
    <glyph glyph-name="uni208E" unicode="&#x208e;" horiz-adv-x="235" 
d="M69 388q38 -20 64 -45.5t42 -54t23 -58.5t7 -58q0 -55 -31.5 -112.5t-105.5 -102.5l-53 57q45 30 67.5 66.5t22.5 91.5q0 56 -28.5 94t-66.5 63z" />
    <glyph glyph-name="Euro" unicode="&#x20ac;" 
d="M53 490h75q17 49 46.5 89.5t70 69.5t92.5 45.5t114 16.5q37 0 73.5 -8t58.5 -20l-43 -106q-17 9 -41.5 14t-48.5 5q-57 0 -105.5 -27t-77.5 -79h250l-35 -93h-244q-3 -23 -3 -47v-18t2 -17h222l-31 -93h-163q29 -56 81.5 -87t119.5 -31q28 0 50.5 4t36.5 11l19 -111
q-17 -8 -47.5 -13.5t-68.5 -5.5q-60 0 -113 16t-96 46t-74.5 73.5t-48.5 97.5h-105l35 93h52q-1 8 -1 17v18q0 12 0.5 23.5t1.5 23.5h-89z" />
    <glyph glyph-name="uni20B4" unicode="&#x20b4;" horiz-adv-x="600" 
d="M68 494h292q3 15 3 28q-1 43 -21.5 58.5t-45.5 15.5q-36 0 -64 -12t-51 -32l-59 86q32 38 79.5 55.5t101.5 17.5q42 0 76 -11.5t58 -32.5t37 -50t13 -63q0 -14 -4.5 -33t-11.5 -27h61v-93h-117q-25 -26 -49 -44t-47 -38h213v-93h-295q-8 -10 -12.5 -22t-4.5 -26
q0 -34 27 -54t71 -20q32 0 65.5 13t65.5 45l60 -79q-33 -45 -86.5 -69.5t-120.5 -24.5q-36 0 -71.5 11t-63.5 32.5t-45 52.5t-17 72q0 17 5 36t14 33h-56v93h122q22 22 47 40.5t51 41.5h-220v93z" />
    <glyph glyph-name="uni20B6" unicode="&#x20b6;" horiz-adv-x="600" 
d="M13 390h98v310q15 0 40.5 0.5t54.5 0.5t57 0.5t46 0.5q78 0 130 -16t83.5 -43.5t44.5 -65t13 -80.5q0 -90 -65.5 -144.5t-189.5 -54.5h-92v-83h164v-92h-164v-123h-122v123h-98v92h98v83h-98v92zM322 587q-19 0 -41.5 -0.5t-47.5 -1.5v-195h88q27 0 50.5 5t41 16.5
t27.5 29.5t10 45q0 55 -32.5 78t-95.5 23z" />
    <glyph glyph-name="uni20B6" unicode="&#x20cf;" horiz-adv-x="600" 
d="M13 390h98v310q15 0 40.5 0.5t54.5 0.5t57 0.5t46 0.5q78 0 130 -16t83.5 -43.5t44.5 -65t13 -80.5q0 -90 -65.5 -144.5t-189.5 -54.5h-92v-83h164v-92h-164v-123h-122v123h-98v92h98v83h-98v92zM322 587q-19 0 -41.5 -0.5t-47.5 -1.5v-195h88q27 0 50.5 5t41 16.5
t27.5 29.5t10 45q0 55 -32.5 78t-95.5 23z" />
    <glyph glyph-name="uni20B6" unicode="&#x20ce;" horiz-adv-x="600" 
d="M13 390h98v310q15 0 40.5 0.5t54.5 0.5t57 0.5t46 0.5q78 0 130 -16t83.5 -43.5t44.5 -65t13 -80.5q0 -90 -65.5 -144.5t-189.5 -54.5h-92v-83h164v-92h-164v-123h-122v123h-98v92h98v83h-98v92zM322 587q-19 0 -41.5 -0.5t-47.5 -1.5v-195h88q27 0 50.5 5t41 16.5
t27.5 29.5t10 45q0 55 -32.5 78t-95.5 23z" />
    <glyph glyph-name="uni20B6" unicode="&#x20cd;" horiz-adv-x="600" 
d="M13 390h98v310q15 0 40.5 0.5t54.5 0.5t57 0.5t46 0.5q78 0 130 -16t83.5 -43.5t44.5 -65t13 -80.5q0 -90 -65.5 -144.5t-189.5 -54.5h-92v-83h164v-92h-164v-123h-122v123h-98v92h98v83h-98v92zM322 587q-19 0 -41.5 -0.5t-47.5 -1.5v-195h88q27 0 50.5 5t41 16.5
t27.5 29.5t10 45q0 55 -32.5 78t-95.5 23z" />
    <glyph glyph-name="uni20B6" unicode="&#x20cc;" horiz-adv-x="600" 
d="M13 390h98v310q15 0 40.5 0.5t54.5 0.5t57 0.5t46 0.5q78 0 130 -16t83.5 -43.5t44.5 -65t13 -80.5q0 -90 -65.5 -144.5t-189.5 -54.5h-92v-83h164v-92h-164v-123h-122v123h-98v92h98v83h-98v92zM322 587q-19 0 -41.5 -0.5t-47.5 -1.5v-195h88q27 0 50.5 5t41 16.5
t27.5 29.5t10 45q0 55 -32.5 78t-95.5 23z" />
    <glyph glyph-name="uni20B6" unicode="&#x20cb;" horiz-adv-x="600" 
d="M13 390h98v310q15 0 40.5 0.5t54.5 0.5t57 0.5t46 0.5q78 0 130 -16t83.5 -43.5t44.5 -65t13 -80.5q0 -90 -65.5 -144.5t-189.5 -54.5h-92v-83h164v-92h-164v-123h-122v123h-98v92h98v83h-98v92zM322 587q-19 0 -41.5 -0.5t-47.5 -1.5v-195h88q27 0 50.5 5t41 16.5
t27.5 29.5t10 45q0 55 -32.5 78t-95.5 23z" />
    <glyph glyph-name="uni20B6" unicode="&#x20ca;" horiz-adv-x="600" 
d="M13 390h98v310q15 0 40.5 0.5t54.5 0.5t57 0.5t46 0.5q78 0 130 -16t83.5 -43.5t44.5 -65t13 -80.5q0 -90 -65.5 -144.5t-189.5 -54.5h-92v-83h164v-92h-164v-123h-122v123h-98v92h98v83h-98v92zM322 587q-19 0 -41.5 -0.5t-47.5 -1.5v-195h88q27 0 50.5 5t41 16.5
t27.5 29.5t10 45q0 55 -32.5 78t-95.5 23z" />
    <glyph glyph-name="uni20B6" unicode="&#x20c9;" horiz-adv-x="600" 
d="M13 390h98v310q15 0 40.5 0.5t54.5 0.5t57 0.5t46 0.5q78 0 130 -16t83.5 -43.5t44.5 -65t13 -80.5q0 -90 -65.5 -144.5t-189.5 -54.5h-92v-83h164v-92h-164v-123h-122v123h-98v92h98v83h-98v92zM322 587q-19 0 -41.5 -0.5t-47.5 -1.5v-195h88q27 0 50.5 5t41 16.5
t27.5 29.5t10 45q0 55 -32.5 78t-95.5 23z" />
    <glyph glyph-name="uni20B6" unicode="&#x20c8;" horiz-adv-x="600" 
d="M13 390h98v310q15 0 40.5 0.5t54.5 0.5t57 0.5t46 0.5q78 0 130 -16t83.5 -43.5t44.5 -65t13 -80.5q0 -90 -65.5 -144.5t-189.5 -54.5h-92v-83h164v-92h-164v-123h-122v123h-98v92h98v83h-98v92zM322 587q-19 0 -41.5 -0.5t-47.5 -1.5v-195h88q27 0 50.5 5t41 16.5
t27.5 29.5t10 45q0 55 -32.5 78t-95.5 23z" />
    <glyph glyph-name="uni20B6" unicode="&#x20c7;" horiz-adv-x="600" 
d="M13 390h98v310q15 0 40.5 0.5t54.5 0.5t57 0.5t46 0.5q78 0 130 -16t83.5 -43.5t44.5 -65t13 -80.5q0 -90 -65.5 -144.5t-189.5 -54.5h-92v-83h164v-92h-164v-123h-122v123h-98v92h98v83h-98v92zM322 587q-19 0 -41.5 -0.5t-47.5 -1.5v-195h88q27 0 50.5 5t41 16.5
t27.5 29.5t10 45q0 55 -32.5 78t-95.5 23z" />
    <glyph glyph-name="uni20B6" unicode="&#x20c6;" horiz-adv-x="600" 
d="M13 390h98v310q15 0 40.5 0.5t54.5 0.5t57 0.5t46 0.5q78 0 130 -16t83.5 -43.5t44.5 -65t13 -80.5q0 -90 -65.5 -144.5t-189.5 -54.5h-92v-83h164v-92h-164v-123h-122v123h-98v92h98v83h-98v92zM322 587q-19 0 -41.5 -0.5t-47.5 -1.5v-195h88q27 0 50.5 5t41 16.5
t27.5 29.5t10 45q0 55 -32.5 78t-95.5 23z" />
    <glyph glyph-name="uni20B6" unicode="&#x20c5;" horiz-adv-x="600" 
d="M13 390h98v310q15 0 40.5 0.5t54.5 0.5t57 0.5t46 0.5q78 0 130 -16t83.5 -43.5t44.5 -65t13 -80.5q0 -90 -65.5 -144.5t-189.5 -54.5h-92v-83h164v-92h-164v-123h-122v123h-98v92h98v83h-98v92zM322 587q-19 0 -41.5 -0.5t-47.5 -1.5v-195h88q27 0 50.5 5t41 16.5
t27.5 29.5t10 45q0 55 -32.5 78t-95.5 23z" />
    <glyph glyph-name="uni20B6" unicode="&#x20c4;" horiz-adv-x="600" 
d="M13 390h98v310q15 0 40.5 0.5t54.5 0.5t57 0.5t46 0.5q78 0 130 -16t83.5 -43.5t44.5 -65t13 -80.5q0 -90 -65.5 -144.5t-189.5 -54.5h-92v-83h164v-92h-164v-123h-122v123h-98v92h98v83h-98v92zM322 587q-19 0 -41.5 -0.5t-47.5 -1.5v-195h88q27 0 50.5 5t41 16.5
t27.5 29.5t10 45q0 55 -32.5 78t-95.5 23z" />
    <glyph glyph-name="uni20B6" unicode="&#x20c3;" horiz-adv-x="600" 
d="M13 390h98v310q15 0 40.5 0.5t54.5 0.5t57 0.5t46 0.5q78 0 130 -16t83.5 -43.5t44.5 -65t13 -80.5q0 -90 -65.5 -144.5t-189.5 -54.5h-92v-83h164v-92h-164v-123h-122v123h-98v92h98v83h-98v92zM322 587q-19 0 -41.5 -0.5t-47.5 -1.5v-195h88q27 0 50.5 5t41 16.5
t27.5 29.5t10 45q0 55 -32.5 78t-95.5 23z" />
    <glyph glyph-name="uni20B6" unicode="&#x20c2;" horiz-adv-x="600" 
d="M13 390h98v310q15 0 40.5 0.5t54.5 0.5t57 0.5t46 0.5q78 0 130 -16t83.5 -43.5t44.5 -65t13 -80.5q0 -90 -65.5 -144.5t-189.5 -54.5h-92v-83h164v-92h-164v-123h-122v123h-98v92h98v83h-98v92zM322 587q-19 0 -41.5 -0.5t-47.5 -1.5v-195h88q27 0 50.5 5t41 16.5
t27.5 29.5t10 45q0 55 -32.5 78t-95.5 23z" />
    <glyph glyph-name="uni20B6" unicode="&#x20c1;" horiz-adv-x="600" 
d="M13 390h98v310q15 0 40.5 0.5t54.5 0.5t57 0.5t46 0.5q78 0 130 -16t83.5 -43.5t44.5 -65t13 -80.5q0 -90 -65.5 -144.5t-189.5 -54.5h-92v-83h164v-92h-164v-123h-122v123h-98v92h98v83h-98v92zM322 587q-19 0 -41.5 -0.5t-47.5 -1.5v-195h88q27 0 50.5 5t41 16.5
t27.5 29.5t10 45q0 55 -32.5 78t-95.5 23z" />
    <glyph glyph-name="uni20B6" unicode="&#x20c0;" horiz-adv-x="600" 
d="M13 390h98v310q15 0 40.5 0.5t54.5 0.5t57 0.5t46 0.5q78 0 130 -16t83.5 -43.5t44.5 -65t13 -80.5q0 -90 -65.5 -144.5t-189.5 -54.5h-92v-83h164v-92h-164v-123h-122v123h-98v92h98v83h-98v92zM322 587q-19 0 -41.5 -0.5t-47.5 -1.5v-195h88q27 0 50.5 5t41 16.5
t27.5 29.5t10 45q0 55 -32.5 78t-95.5 23z" />
    <glyph glyph-name="uni20B6" unicode="&#x20bf;" horiz-adv-x="600" 
d="M13 390h98v310q15 0 40.5 0.5t54.5 0.5t57 0.5t46 0.5q78 0 130 -16t83.5 -43.5t44.5 -65t13 -80.5q0 -90 -65.5 -144.5t-189.5 -54.5h-92v-83h164v-92h-164v-123h-122v123h-98v92h98v83h-98v92zM322 587q-19 0 -41.5 -0.5t-47.5 -1.5v-195h88q27 0 50.5 5t41 16.5
t27.5 29.5t10 45q0 55 -32.5 78t-95.5 23z" />
    <glyph glyph-name="uni20B6" unicode="&#x20be;" horiz-adv-x="600" 
d="M13 390h98v310q15 0 40.5 0.5t54.5 0.5t57 0.5t46 0.5q78 0 130 -16t83.5 -43.5t44.5 -65t13 -80.5q0 -90 -65.5 -144.5t-189.5 -54.5h-92v-83h164v-92h-164v-123h-122v123h-98v92h98v83h-98v92zM322 587q-19 0 -41.5 -0.5t-47.5 -1.5v-195h88q27 0 50.5 5t41 16.5
t27.5 29.5t10 45q0 55 -32.5 78t-95.5 23z" />
    <glyph glyph-name="uni20B6" unicode="&#x20bd;" horiz-adv-x="600" 
d="M13 390h98v310q15 0 40.5 0.5t54.5 0.5t57 0.5t46 0.5q78 0 130 -16t83.5 -43.5t44.5 -65t13 -80.5q0 -90 -65.5 -144.5t-189.5 -54.5h-92v-83h164v-92h-164v-123h-122v123h-98v92h98v83h-98v92zM322 587q-19 0 -41.5 -0.5t-47.5 -1.5v-195h88q27 0 50.5 5t41 16.5
t27.5 29.5t10 45q0 55 -32.5 78t-95.5 23z" />
    <glyph glyph-name="uni20B6" unicode="&#x20bc;" horiz-adv-x="600" 
d="M13 390h98v310q15 0 40.5 0.5t54.5 0.5t57 0.5t46 0.5q78 0 130 -16t83.5 -43.5t44.5 -65t13 -80.5q0 -90 -65.5 -144.5t-189.5 -54.5h-92v-83h164v-92h-164v-123h-122v123h-98v92h98v83h-98v92zM322 587q-19 0 -41.5 -0.5t-47.5 -1.5v-195h88q27 0 50.5 5t41 16.5
t27.5 29.5t10 45q0 55 -32.5 78t-95.5 23z" />
    <glyph glyph-name="uni20B6" unicode="&#x20bb;" horiz-adv-x="600" 
d="M13 390h98v310q15 0 40.5 0.5t54.5 0.5t57 0.5t46 0.5q78 0 130 -16t83.5 -43.5t44.5 -65t13 -80.5q0 -90 -65.5 -144.5t-189.5 -54.5h-92v-83h164v-92h-164v-123h-122v123h-98v92h98v83h-98v92zM322 587q-19 0 -41.5 -0.5t-47.5 -1.5v-195h88q27 0 50.5 5t41 16.5
t27.5 29.5t10 45q0 55 -32.5 78t-95.5 23z" />
    <glyph glyph-name="uni20B6" unicode="&#x20ba;" horiz-adv-x="600" 
d="M13 390h98v310q15 0 40.5 0.5t54.5 0.5t57 0.5t46 0.5q78 0 130 -16t83.5 -43.5t44.5 -65t13 -80.5q0 -90 -65.5 -144.5t-189.5 -54.5h-92v-83h164v-92h-164v-123h-122v123h-98v92h98v83h-98v92zM322 587q-19 0 -41.5 -0.5t-47.5 -1.5v-195h88q27 0 50.5 5t41 16.5
t27.5 29.5t10 45q0 55 -32.5 78t-95.5 23z" />
    <glyph glyph-name="uni20B6" unicode="&#x20b9;" horiz-adv-x="600" 
d="M13 390h98v310q15 0 40.5 0.5t54.5 0.5t57 0.5t46 0.5q78 0 130 -16t83.5 -43.5t44.5 -65t13 -80.5q0 -90 -65.5 -144.5t-189.5 -54.5h-92v-83h164v-92h-164v-123h-122v123h-98v92h98v83h-98v92zM322 587q-19 0 -41.5 -0.5t-47.5 -1.5v-195h88q27 0 50.5 5t41 16.5
t27.5 29.5t10 45q0 55 -32.5 78t-95.5 23z" />
    <glyph glyph-name="uni20B6" unicode="&#x20b7;" horiz-adv-x="600" 
d="M13 390h98v310q15 0 40.5 0.5t54.5 0.5t57 0.5t46 0.5q78 0 130 -16t83.5 -43.5t44.5 -65t13 -80.5q0 -90 -65.5 -144.5t-189.5 -54.5h-92v-83h164v-92h-164v-123h-122v123h-98v92h98v83h-98v92zM322 587q-19 0 -41.5 -0.5t-47.5 -1.5v-195h88q27 0 50.5 5t41 16.5
t27.5 29.5t10 45q0 55 -32.5 78t-95.5 23z" />
    <glyph glyph-name="afii61352" unicode="&#x2116;" horiz-adv-x="1189" 
d="M577 0l-365 485v-485h-115v700h98l365 -487v487h115v-700h-98zM730 480q0 40 14.5 73t41 56.5t62.5 36t79 12.5t79 -12.5t62 -36t41 -56.5t15 -73t-15 -73t-41 -56.5t-62 -36.5t-79 -13t-79 13t-62.5 36.5t-41 56.5t-14.5 73zM837 480q0 -40 26.5 -63t63.5 -23
q38 0 63.5 23t25.5 63q0 39 -25.5 62t-63.5 23t-64 -23t-26 -62zM767 253h319v-107h-319v107z" />
    <glyph glyph-name="trademark" unicode="&#x2122;" horiz-adv-x="865" 
d="M379 700h97l119 -108l113 108h94v-315h-109v179l-100 -97h-2l-104 97v-179h-108v315zM17 700h323v-104h-107v-211h-108v211h-108v104z" />
    <glyph glyph-name="arrowleft" unicode="&#x2190;" horiz-adv-x="643" 
d="M404 474l-144 -143h343v-115h-343l144 -145l-81 -81l-283 283l283 283z" />
    <glyph glyph-name="arrowup" unicode="&#x2191;" horiz-adv-x="646" 
d="M40 280l283 283l283 -283l-82 -81l-144 144v-343h-115v343l-144 -144z" />
    <glyph glyph-name="arrowright" unicode="&#x2192;" horiz-adv-x="643" 
d="M320 556l283 -283l-283 -283l-81 81l144 145h-343v115h343l-144 143z" />
    <glyph glyph-name="arrowdown" unicode="&#x2193;" horiz-adv-x="646" 
d="M121 344l144 -144v343h115v-343l144 144l82 -81l-283 -283l-283 283z" />
    <glyph glyph-name="partialdiff" unicode="&#x2202;" horiz-adv-x="594" 
d="M36 201q0 52 18 99t51 83t79.5 57t103.5 21t94 -20.5t54 -45.5q0 98 -59.5 153t-177.5 60l17 103q163 -3 252.5 -85.5t89.5 -236.5q0 -81 -18.5 -154t-55 -127.5t-92.5 -86.5t-131 -32q-52 0 -93.5 16.5t-71 45.5t-45 67.5t-15.5 82.5zM159 211q0 -23 8 -44t22.5 -37
t36 -25t48.5 -9q33 0 59.5 15.5t45.5 42t31 61.5t17 73q-24 29 -56.5 47t-77.5 18q-29 0 -53.5 -11t-42.5 -30.5t-28 -45.5t-10 -55z" />
    <glyph glyph-name="product" unicode="&#x220f;" horiz-adv-x="882" 
d="M662 585h-442v-785h-123v900h688v-900h-123v785z" />
    <glyph glyph-name="summation" unicode="&#x2211;" horiz-adv-x="642" 
d="M40 615v85h562v-115h-390l253 -335l-261 -335h398v-115h-562v84l283 366z" />
    <glyph glyph-name="minus" unicode="&#x2212;" 
d="M66 410h464v-100h-464v100z" />
    <glyph glyph-name="uni2215" unicode="&#x2215;" horiz-adv-x="359" 
d="M300 711l89 -33l-330 -886l-89 33z" />
    <glyph glyph-name="radical" unicode="&#x221a;" horiz-adv-x="623" 
d="M7 450h179l152 -256l122 506h293v-115h-193l-146 -587h-100l-207 337h-100v115z" />
    <glyph glyph-name="infinity" unicode="&#x221e;" horiz-adv-x="756" 
d="M552 168q-60 0 -102 27t-74 65q-29 -38 -67.5 -65t-96.5 -27q-32 0 -62 12t-53 34.5t-37.5 54.5t-14.5 72q0 34 12 65.5t34 56t53.5 39t70.5 14.5q55 0 93.5 -29t68.5 -68q14 19 30.5 37t37.5 31t47 21t59 8q36 0 65.5 -13.5t50.5 -37t32.5 -56.5t11.5 -72
q0 -33 -11 -63.5t-32 -54t-50.5 -37.5t-65.5 -14zM224 268q33 0 55 19t42 47q-23 34 -45.5 58t-50.5 24q-34 0 -53.5 -21.5t-19.5 -53.5q0 -35 21.5 -54t50.5 -19zM531 416q-31 0 -53.5 -21.5t-43.5 -52.5q23 -31 47.5 -52.5t56.5 -21.5q30 0 47.5 21.5t17.5 51.5
q0 29 -18 52t-54 23z" />
    <glyph glyph-name="integral" unicode="&#x222b;" horiz-adv-x="325" 
d="M184 -8q0 -45 -6 -81t-20.5 -62t-40 -40.5t-64.5 -15.5q-24 -1 -49 3q-23 3 -42 10.5t-30 17.5l31 91q12 -8 23.5 -12t27.5 -4q18 0 29 8t17 21.5t7.5 31.5t1.5 39v524q0 91 39.5 137t109.5 50q28 0 51 -4q29 -4 51 -14t35 -23l-39 -88q-8 8 -18.5 12.5t-25.5 6.5
q-11 2 -22 1.5t-20 -2.5q-19 -5 -32.5 -26t-13.5 -59v-522v0z" />
    <glyph glyph-name="approxequal" unicode="&#x2248;" 
d="M42 267q32 36 70 58t76 22q31 0 60 -10.5t58 -23.5t57.5 -23.5t57.5 -10.5q23 0 47 13t41 32l45 -79q-29 -27 -64 -46.5t-70 -19.5q-30 0 -59 10.5t-57 23.5t-55.5 23.5t-53.5 10.5q-32 0 -58 -17.5t-45 -36.5zM42 457q32 36 70 58t76 22q31 0 60 -10.5t58 -23.5
t57.5 -23.5t57.5 -10.5q23 0 47 13t41 32l45 -79q-29 -27 -64 -46.5t-70 -19.5q-30 0 -59 10.5t-57 23.5t-55.5 23.5t-53.5 10.5q-32 0 -58 -17.5t-45 -36.5z" />
    <glyph glyph-name="notequal" unicode="&#x2260;" 
d="M66 505h234l78 206l88 -33l-65 -173h129v-100h-166l-33 -90h199v-100h-237l-84 -226l-90 33l72 193h-125v100h163l34 90h-197v100z" />
    <glyph glyph-name="lessequal" unicode="&#x2264;" 
d="M49 347l464 -266v-110l-464 271v105zM49 432v49l464 269v-124l-306 -169l306 -171v-125z" />
    <glyph glyph-name="greaterequal" unicode="&#x2265;" 
d="M547 242l-465 -271v110l465 266v-105zM82 161v125l307 171l-307 169v124l465 -269v-49z" />
    <glyph glyph-name="lozenge" unicode="&#x25ca;" horiz-adv-x="488" 
d="M30 249l168 267h93l167 -256l-168 -262h-93zM244 103l98 157l-98 144l-98 -154z" />
    <glyph glyph-name="spade" unicode="&#x2660;" horiz-adv-x="632" 
d="M316 510q39 -25 84 -64t83.5 -82.5t63.5 -87t25 -77.5q0 -19 -7 -37.5t-21 -33.5t-36 -24t-53 -9q-48 0 -79 21.5t-52 50.5q13 -54 37 -96.5t70 -70.5h-230q38 27 64 68.5t41 95.5q-21 -29 -52 -49t-77 -20q-31 0 -53 9t-36.5 24t-21 33.5t-6.5 38.5q0 34 25 77
t63.5 86.5t83.5 82.5t84 64z" />
    <glyph glyph-name="club" unicode="&#x2663;" horiz-adv-x="612" 
d="M177 381q0 27 10 50.5t27.5 41t41 27.5t50.5 10t50.5 -10t41 -27.5t27.5 -41t10 -50.5q0 -5 -0.5 -9.5t-1.5 -9.5q25 -2 46.5 -13t37.5 -28t25.5 -39.5t9.5 -47.5q0 -27 -10 -50.5t-27.5 -41t-41 -27.5t-50.5 -10q-32 0 -59.5 14.5t-44.5 38.5q13 -48 36.5 -90t65.5 -68
h-230q35 24 60 67t40 89q-17 -22 -44.5 -36.5t-57.5 -14.5q-27 0 -50.5 10t-41 27.5t-27.5 41t-10 50.5q0 25 9 47.5t25 39.5t37.5 28t46.5 13q-1 5 -1 9.5v9.5z" />
    <glyph glyph-name="heart" unicode="&#x2665;" horiz-adv-x="649" 
d="M325 0q-41 31 -87.5 77t-86 97t-65.5 102.5t-26 93.5q0 24 7 47.5t21.5 41.5t37.5 29.5t55 11.5q27 0 48.5 -8.5t39 -23t31.5 -33.5t25 -39q10 20 24 39t31.5 33.5t39 23t48.5 8.5q32 0 55 -11.5t37.5 -29.5t21.5 -41t7 -47q0 -42 -26 -93.5t-65.5 -103t-86 -97.5
t-86.5 -77z" />
    <glyph glyph-name="diamond" unicode="&#x2666;" horiz-adv-x="583" 
d="M523 249q-64 -64 -121 -131t-111 -137q-103 136 -231 268q64 67 120.5 134t110.5 135q55 -70 112 -137t120 -132z" />
    <glyph glyph-name="uniF350" unicode="&#xf350;" horiz-adv-x="611" 
d="M251 526h109l245 -526h-131l-49 108h-247l-49 -108h-123zM229 222h145l-72 161z" />
    <glyph glyph-name="uniF351" unicode="&#xf351;" horiz-adv-x="539" 
d="M450 410h-250v-80q14 2 39.5 3t46.5 1q94 0 147.5 -41t53.5 -121q0 -91 -59 -133.5t-169 -42.5q-55 0 -105 2t-76 2v525h372v-115zM271 220q-14 0 -34 -0.5t-37 -3.5v-103q17 -1 34.5 -1.5t37.5 -0.5q53 0 73 14.5t20 40.5t-21.5 40t-72.5 14z" />
    <glyph glyph-name="uniF352" unicode="&#xf352;" horiz-adv-x="540" 
d="M78 523q12 1 35.5 1.5t51.5 1.5t57.5 1.5t52.5 0.5q52 0 89.5 -10t60.5 -28t34 -41.5t11 -50.5q0 -42 -20.5 -74t-60.5 -48v-1q46 -8 72.5 -36.5t26.5 -79.5q0 -41 -17 -72t-46.5 -51t-70 -30t-87.5 -10q-21 0 -48.5 0.5t-54.5 1t-50 1.5t-36 2v522zM200 210v-94
q8 -2 32 -3.5t45 -1.5q88 0 88 51q0 24 -22 36t-61 12h-82zM273 413h-17t-20.5 -0.5t-20 -1t-15.5 -1.5v-92h76q29 0 50.5 11t21.5 37q0 47 -75 47z" />
    <glyph glyph-name="uniF353" unicode="&#xf353;" horiz-adv-x="441" 
d="M78 525h348v-115h-226v-410h-122v525z" />
    <glyph glyph-name="uniF354" unicode="&#xf354;" horiz-adv-x="638" 
d="M9 115h63q9 10 22.5 35t26.5 64t23.5 91t14.5 115l5 105h376v-410h80v-205h-115v90h-381v-90h-115v205zM273 335q-9 -88 -29.5 -145.5t-36.5 -74.5h210v295h-134z" />
    <glyph glyph-name="uniF355" unicode="&#xf355;" horiz-adv-x="498" 
d="M78 525h359v-115h-237v-88h213v-115h-213v-92h246v-115h-368v525z" />
    <glyph glyph-name="uniF356" unicode="&#xf356;" horiz-adv-x="818" 
d="M17 525h148l183 -237v237h123v-237l183 237h148l-206 -249l215 -276h-148l-192 259v-259h-123v259l-192 -259h-148l215 274z" />
    <glyph glyph-name="uniF357" unicode="&#xf357;" horiz-adv-x="516" 
d="M247 -11q-43 0 -78.5 9t-63.5 23t-47.5 30.5t-31.5 32.5l67 83q26 -26 65 -44.5t90 -18.5q45 0 69 13.5t24 39.5q0 23 -20.5 37.5t-74.5 14.5h-78v115h74q31 0 54 12t23 34q0 24 -19.5 35.5t-52.5 11.5q-38 0 -73 -12.5t-59 -41.5l-71 83q29 37 82 61.5t125 24.5
q40 0 74.5 -9.5t60 -28.5t40.5 -46.5t15 -63.5q0 -35 -16.5 -65t-51.5 -46v-3q48 -11 69.5 -45.5t21.5 -79.5q0 -36 -16 -65t-44.5 -49.5t-68.5 -31t-88 -10.5z" />
    <glyph glyph-name="uniF358" unicode="&#xf358;" horiz-adv-x="663" 
d="M78 0v525h122v-330l278 330h107v-525h-122v330l-278 -330h-107z" />
    <glyph glyph-name="uniF359" unicode="&#xf359;" horiz-adv-x="663" 
d="M78 0v525h122v-330l278 330h107v-525h-122v330l-278 -330h-107zM273 700q0 -28 15.5 -40.5t44.5 -12.5q26 0 40.5 12.5t14.5 40.5h108q0 -65 -43.5 -101.5t-119.5 -36.5q-85 0 -126 36t-41 102h107z" />
    <glyph glyph-name="uniF35A" unicode="&#xf35a;" horiz-adv-x="586" 
d="M78 525h122v-238l203 238h159l-224 -242l240 -283h-166l-212 260v-260h-122v525z" />
    <glyph glyph-name="uniF35B" unicode="&#xf35b;" horiz-adv-x="613" 
d="M412 410h-146l-12 -99q-12 -103 -32 -167t-49.5 -98.5t-68 -44t-87.5 -1.5l2 118q18 -3 36.5 3t35.5 36.5t31 92.5t23 170l9 105h381v-525h-123v410z" />
    <glyph glyph-name="uniF35C" unicode="&#xf35c;" horiz-adv-x="761" 
d="M78 525h123l188 -219l178 219h116v-525h-122v338l-172 -202h-17l-172 199v-335h-122v525z" />
    <glyph glyph-name="uniF35D" unicode="&#xf35d;" horiz-adv-x="649" 
d="M449 210h-249v-210h-122v525h122v-200h249v200h122v-525h-122v210z" />
    <glyph glyph-name="uniF35E" unicode="&#xf35e;" horiz-adv-x="659" 
d="M35 261q0 57 21 106.5t60 86t93 57.5t120 21q64 0 118 -19t93.5 -54t61.5 -85t22 -113q0 -60 -22 -110t-61.5 -86t-93.5 -56t-118 -20q-63 0 -117 19t-93.5 54t-61.5 85.5t-22 113.5zM165 261q0 -33 12.5 -62t35 -50t52 -33t64.5 -12q40 0 71 12t52 33.5t31.5 50
t10.5 61.5q0 36 -12.5 64.5t-35 49t-52.5 31.5t-65 11q-36 0 -66 -11t-51.5 -31.5t-34 -49t-12.5 -64.5z" />
    <glyph glyph-name="uniF35F" unicode="&#xf35f;" horiz-adv-x="649" 
d="M449 410h-249v-410h-122v525h493v-525h-122v410z" />
    <glyph glyph-name="uniF360" unicode="&#xf360;" horiz-adv-x="521" 
d="M78 0v525q12 0 34.5 0.5t48 0.5t50.5 0.5t41 0.5q66 0 111 -15t72.5 -40.5t39 -59t11.5 -71.5q0 -40 -14.5 -74.5t-42 -60t-68 -40t-91.5 -14.5q-11 0 -32 0.5t-38 2.5v-155h-122zM265 412q-14 0 -32 -0.5t-33 -1.5v-139q16 -2 33 -3t33 -1q39 0 64.5 18t25.5 56
q0 71 -91 71z" />
    <glyph glyph-name="uniF361" unicode="&#xf361;" horiz-adv-x="549" 
d="M523 50q-14 -13 -34 -24t-45 -19.5t-53 -13t-57 -4.5q-68 0 -123.5 19.5t-94.5 55t-60 85.5t-21 112q0 54 18 103t55 86.5t92.5 59.5t130.5 22q59 0 105.5 -15.5t74.5 -38.5l-55 -92q-25 12 -53.5 21.5t-70.5 9.5q-36 0 -67 -10t-53 -29.5t-34.5 -49t-12.5 -67.5
q0 -35 12.5 -63.5t36 -49.5t56.5 -32.5t75 -11.5q33 0 67.5 9t63.5 29z" />
    <glyph glyph-name="uniF362" unicode="&#xf362;" horiz-adv-x="503" 
d="M9 525h485v-115h-182v-410h-122v410h-181v115z" />
    <glyph glyph-name="uniF363" unicode="&#xf363;" horiz-adv-x="567" 
d="M362 128q-29 -61 -69.5 -94.5t-99.5 -33.5q-25 0 -45.5 7.5t-32.5 15.5l43 104q12 -7 20 -9.5t21 -2.5q18 0 28.5 9.5t16.5 20.5l9 14l-244 366h154l152 -245l119 245h126z" />
    <glyph glyph-name="uniF364" unicode="&#xf364;" horiz-adv-x="705" 
d="M290 50q-59 1 -108 16t-83.5 43t-53.5 68.5t-19 92.5q0 51 19.5 91.5t54 68.5t83 43.5t107.5 16.5v41h123v-41q58 -1 107 -15.5t84 -42t54.5 -68t19.5 -94.5q0 -52 -19 -93t-54 -69t-84 -43t-108 -15v-56h-123v56zM548 270q0 18 -7.5 37t-23.5 34.5t-42 25.5t-62 11v-216
q72 2 103.5 32t31.5 76zM156 270q0 -45 33 -75.5t101 -32.5v216q-35 -1 -60 -11t-41.5 -25.5t-24.5 -34.5t-8 -37z" />
    <glyph glyph-name="uniF365" unicode="&#xf365;" horiz-adv-x="563" 
d="M361 268l199 -268h-152l-128 174l-125 -174h-152l199 268l-190 257h152l120 -167l117 167h151z" />
    <glyph glyph-name="uniF366" unicode="&#xf366;" horiz-adv-x="657" 
d="M78 525h122v-410h237v410h123v-410h79v-205h-114v90h-447v525z" />
    <glyph glyph-name="uniF367" unicode="&#xf367;" horiz-adv-x="576" 
d="M498 0h-122v201q-20 -13 -53 -22.5t-79 -9.5q-32 0 -65 8t-60 27.5t-44 52t-17 80.5v188h122v-144q0 -55 25.5 -76t64.5 -21q35 0 59.5 7t46.5 21v213h122v-525z" />
    <glyph glyph-name="uniF368" unicode="&#xf368;" horiz-adv-x="837" 
d="M78 525h122v-410h157v410h123v-410h157v410h122v-525h-681v525z" />
    <glyph glyph-name="uniF369" unicode="&#xf369;" horiz-adv-x="857" 
d="M78 525h122v-410h157v410h123v-410h157v410h122v-410h80v-205h-115v90h-646v525z" />
    <glyph glyph-name="uniF36A" unicode="&#xf36a;" horiz-adv-x="565" 
d="M7 525h244v-163q17 2 32 2.5t26 0.5q114 0 167.5 -48.5t53.5 -129.5q0 -84 -63 -136.5t-184 -52.5q-45 0 -87 1t-68 1v410h-121v115zM298 250q-19 0 -47 -3v-132q13 -2 27 -2h28q40 0 67 16t27 55q0 35 -27 50.5t-75 15.5z" />
    <glyph glyph-name="uniF36B" unicode="&#xf36b;" horiz-adv-x="736" 
d="M535 525h123v-525h-123v525zM247 250h-21.5t-25.5 -2v-133q13 -2 23.5 -2h22.5q46 0 70.5 17.5t24.5 53.5q0 34 -25.5 50t-68.5 16zM200 362q17 2 32 2.5t25 0.5q109 0 161.5 -48.5t52.5 -129.5q0 -42 -16 -77t-46.5 -59.5t-75.5 -38.5t-102 -14q-45 0 -86 1t-67 1v525
h122v-163z" />
    <glyph glyph-name="uniF36C" unicode="&#xf36c;" horiz-adv-x="515" 
d="M248 250q-10 0 -22 -0.5t-26 -1.5v-133q13 -1 24 -1.5t22 -0.5q48 0 76 16t28 55q0 35 -27 50.5t-75 15.5zM200 362q17 2 32 2.5t26 0.5q114 0 168 -48.5t54 -129.5q0 -42 -16.5 -77t-48 -59.5t-78 -38.5t-106.5 -14q-44 0 -85.5 1t-67.5 1v525h122v-163z" />
    <glyph glyph-name="uniF36D" unicode="&#xf36d;" horiz-adv-x="562" 
d="M154 325h240q-17 47 -59 70.5t-108 23.5q-51 0 -88.5 -9t-67.5 -29l-47 92q30 23 83 42t125 19q64 0 118 -19.5t93.5 -55t61.5 -86t22 -111.5q0 -63 -22 -113.5t-62.5 -85.5t-98 -53.5t-128.5 -18.5q-63 0 -116 16t-81 39l52 103q25 -17 63.5 -30t96.5 -13q62 0 107 24
t60 80h-244v115z" />
    <glyph glyph-name="uniF36E" unicode="&#xf36e;" horiz-adv-x="877" 
d="M78 525h122v-200h83q9 45 31.5 83.5t57 66.5t81 43.5t103.5 15.5q66 0 119 -19t90 -54t57 -85t20 -113q0 -60 -20 -110t-57 -86t-90 -56t-119 -20q-54 0 -100.5 15t-82.5 43t-59.5 69t-31.5 92h-82v-210h-122v525zM408 263q0 -34 11 -62.5t30.5 -49.5t47.5 -33t63 -12
q38 0 66.5 12t47.5 33.5t28.5 50t9.5 61.5q0 71 -41 113.5t-111 42.5q-68 0 -110 -42.5t-42 -113.5z" />
    <glyph glyph-name="uniF36F" unicode="&#xf36f;" horiz-adv-x="559" 
d="M358 160h-92l-110 -160h-145l136 187q-37 21 -63 57t-26 90q0 37 13.5 72t42.5 62t74.5 43.5t109.5 16.5q25 0 52 -0.5t51.5 -1t45.5 -1t34 -0.5v-525h-123v160zM358 275v135q-8 1 -30 2t-42 1q-48 0 -73 -19.5t-25 -51.5q0 -29 21 -45.5t47 -21.5h102z" />
    <glyph glyph-name="uniF371" unicode="&#xf371;" horiz-adv-x="498" 
d="M78 525h359v-115h-237v-88h213v-115h-213v-92h246v-115h-368v525zM108 645q0 28 19 44t46 16q21 0 39.5 -16t18.5 -44q0 -30 -18.5 -46t-39.5 -16q-27 0 -46 16t-19 46zM287 645q0 28 19 44t45 16q23 0 41.5 -16t18.5 -44q0 -30 -18.5 -46t-41.5 -16q-26 0 -45 16t-19 46
z" />
    <glyph glyph-name="uniF372" unicode="&#xf372;" horiz-adv-x="642" 
d="M607 160q0 -87 -41 -128t-113 -41q-36 0 -65.5 12t-40.5 25l40 94q11 -7 23.5 -11.5t26.5 -4.5q22 0 34.5 10.5t12.5 38.5t-20.5 41t-56.5 13q-32 0 -54.5 -8.5t-40.5 -16.5v-184h-122v410h-181v115h485v-115h-182v-107q23 8 50 14.5t68 6.5q36 0 68.5 -9t56.5 -28.5
t38 -50.5t14 -76z" />
    <glyph glyph-name="uniF373" unicode="&#xf373;" horiz-adv-x="441" 
d="M78 525h348v-115h-226v-410h-122v525zM231 570l-55 64l133 142l71 -88z" />
    <glyph glyph-name="uniF374" unicode="&#xf374;" horiz-adv-x="562" 
d="M409 207h-243q9 -27 25.5 -46.5t40 -31.5t52 -17.5t60.5 -5.5q54 0 92 13t63 30l44 -103q-28 -23 -80.5 -39t-115.5 -16q-72 0 -129.5 18.5t-98 53.5t-62.5 85.5t-22 114.5q0 61 22 111t61.5 85.5t94 55t118.5 19.5q72 0 124.5 -19t82.5 -42l-54 -92q-15 10 -34 17
t-39 11.5t-40 7t-36 2.5q-78 0 -118 -24.5t-53 -72.5h245v-115z" />
    <glyph glyph-name="uniF375" unicode="&#xf375;" horiz-adv-x="500" 
d="M335 151q0 19 -21.5 31t-53 22.5t-69 22.5t-69 31t-53 48t-21.5 74q0 30 11.5 57.5t37 48.5t66.5 33.5t100 12.5q24 0 52 -5.5t55.5 -15.5t51 -23t38.5 -29l-56 -91q-15 11 -34 20t-39 15.5t-39 10t-34 3.5q-38 0 -59 -10.5t-21 -32.5q0 -18 21.5 -28.5t53 -20t69 -21.5
t69 -31.5t53 -50t21.5 -77.5q0 -35 -15.5 -63.5t-43.5 -49t-67 -32t-86 -11.5q-32 0 -65 6.5t-64 18t-56.5 28.5t-40.5 38l70 83q12 -12 31.5 -22.5t42 -18.5t46.5 -13t45 -5q32 0 52.5 12t20.5 35z" />
    <glyph glyph-name="uniF376" unicode="&#xf376;" horiz-adv-x="297" 
d="M87 525h123v-525h-123v525z" />
    <glyph glyph-name="uniF377" unicode="&#xf377;" horiz-adv-x="322" 
d="M29 645q0 26 17 41t42 15q20 0 37 -15t17 -41q0 -29 -17 -44.5t-37 -15.5q-25 0 -42 15.5t-17 44.5zM181 645q0 26 17.5 41t41.5 15q21 0 37.5 -15t16.5 -41q0 -29 -16.5 -44.5t-37.5 -15.5q-24 0 -41.5 15.5t-17.5 44.5zM100 525h123v-525h-123v525z" />
    <glyph glyph-name="uniF378" unicode="&#xf378;" horiz-adv-x="336" 
d="M258 129q0 -68 -38 -103t-111 -35q-37 0 -66.5 11.5t-40.5 25.5l40 94q10 -7 23 -11.5t26 -4.5q45 0 45 44v375h122v-396z" />
    <glyph glyph-name="uniF379" unicode="&#xf379;" horiz-adv-x="840" 
d="M412 410h-143l-14 -99q-13 -103 -33.5 -167t-49.5 -98.5t-67.5 -44t-87.5 -1.5l2 122q18 -3 36.5 3t35.5 35t31 90.5t23 169.5l9 105h381v-163q17 2 31 2.5t25 0.5q109 0 161.5 -48.5t52.5 -129.5q0 -86 -62.5 -137.5t-177.5 -51.5q-45 0 -86 1t-67 1v410zM580 250
q-18 0 -45 -3v-131q22 -3 44 -3q47 0 71.5 17.5t24.5 53.5q0 34 -25.5 50t-69.5 16z" />
    <glyph glyph-name="uniF37A" unicode="&#xf37a;" horiz-adv-x="869" 
d="M78 525h122v-183h241v183h122v-178q17 2 31.5 2h25.5q108 0 161 -47t53 -122q0 -40 -16 -73.5t-46.5 -57.5t-75.5 -37.5t-102 -13.5q-35 0 -69 1t-60 1h-24v227h-241v-227h-122v525zM563 116q24 -3 45 -3q47 0 71.5 16.5t24.5 46.5q0 29 -25.5 44t-69.5 15q-18 0 -46 -3
v-116z" />
    <glyph glyph-name="uniF37B" unicode="&#xf37b;" horiz-adv-x="642" 
d="M9 525h485v-115h-182v-116q21 10 52 16.5t64 6.5q32 0 64 -8t57.5 -27.5t41.5 -51.5t16 -80v-150h-123v113q0 26 -6 43.5t-17 27.5t-26 14t-33 4q-29 0 -50.5 -5.5t-39.5 -15.5v-181h-122v410h-181v115z" />
    <glyph glyph-name="uniF37C" unicode="&#xf37c;" horiz-adv-x="586" 
d="M78 525h122v-238l203 238h159l-224 -242l240 -283h-166l-212 260v-260h-122v525zM266 570l-55 64l133 142l71 -88z" />
    <glyph glyph-name="uniF37E" unicode="&#xf37e;" horiz-adv-x="567" 
d="M362 128q-29 -61 -69.5 -94.5t-99.5 -33.5q-25 0 -45.5 7.5t-32.5 15.5l43 104q12 -7 20 -9.5t21 -2.5q18 0 28.5 9.5t16.5 20.5l9 14l-244 366h154l152 -245l119 245h126zM229 700q0 -28 15.5 -40.5t44.5 -12.5q26 0 40.5 12.5t14.5 40.5h108q0 -65 -43.5 -101.5
t-119.5 -36.5q-85 0 -126 36t-41 102h107z" />
    <glyph glyph-name="uniF37F" unicode="&#xf37f;" horiz-adv-x="641" 
d="M78 525h122v-410h241v410h122v-525h-185v-113h-115v113h-185v525z" />
    <glyph glyph-name="uniF381" unicode="&#xf381;" horiz-adv-x="527" 
d="M7 475h83v50h123v-50h123v-100h-123v-43q17 2 32 2.5t25 0.5q115 0 168.5 -41t53.5 -122q0 -85 -63.5 -129.5t-184.5 -44.5q-45 0 -86.5 1t-67.5 1v375h-83v100zM260 227q-10 0 -21.5 -0.5t-25.5 -0.5v-119q12 0 23 -1t22 -1q48 0 76 14.5t28 49.5q0 32 -27 45t-75 13z
" />
    <glyph glyph-name="uniF389" unicode="&#xf389;" horiz-adv-x="659" 
d="M35 261q0 57 21 106.5t60 86t93 57.5t120 21q64 0 118 -19t93.5 -54t61.5 -85t22 -113q0 -60 -22 -110t-61.5 -86t-93.5 -56t-118 -20q-63 0 -117 19t-93.5 54t-61.5 85.5t-22 113.5zM242 247q-40 0 -72 -28q7 -26 22 -47t36 -36t46.5 -23.5t54.5 -8.5q53 0 89 20t55 54
q-26 -12 -50 -12q-30 0 -54 12.5t-45 28t-41 28t-41 12.5zM433 274q13 0 28 5t29 16q-11 57 -55.5 89.5t-105.5 32.5q-49 0 -86.5 -20t-57.5 -56q31 14 58 14q32 0 57 -12.5t46.5 -28t42.5 -28t44 -12.5z" />
    <glyph glyph-name="uniF38A" unicode="&#xf38a;" horiz-adv-x="548" 
d="M325 0h-94l-237 525h139l149 -358l87 239q15 42 31.5 69.5t39 41.5t52.5 15.5t71 -7.5v-100q-32 6 -54 -10t-41 -61z" />
    <glyph glyph-name="uniF393" unicode="&#xf393;" horiz-adv-x="449" 
d="M78 525h241v82h115v-197h-234v-410h-122v525z" />
    <glyph glyph-name="uniF3CF" unicode="&#xf3cf;" horiz-adv-x="1003" 
d="M470 0l-277 326v-326h-115v525h98l278 -327v327h115v-525h-99zM606 361q0 32 13 58t36 44t54.5 28t69.5 10q37 0 69 -10t54.5 -28t35.5 -44t13 -58t-13 -58.5t-35.5 -45t-54.5 -28.5t-69 -10q-38 0 -69.5 10t-54.5 28.5t-36 45t-13 58.5zM714 361q0 -24 18.5 -37
t46.5 -13q29 0 47 13t18 37q0 23 -18 35.5t-47 12.5t-47 -12.5t-18 -35.5zM639 184h279v-107h-279v107z" />
    <glyph glyph-name="uniF3D0" unicode="&#xf3d0;" horiz-adv-x="450" 
d="M167 700q0 -28 15.5 -40.5t44.5 -12.5q26 0 40.5 12.5t14.5 40.5h108q0 -65 -43.5 -101.5t-119.5 -36.5q-85 0 -126 36t-41 102h107z" />
    <glyph glyph-name="uniF400" unicode="&#xf400;" horiz-adv-x="0" 
d="M-252 517l-69 48l105 165l90 -68z" />
    <glyph glyph-name="uniF401" unicode="&#xf401;" horiz-adv-x="0" 
d="M-460 731l-32 69l214 111l43 -99z" />
    <glyph glyph-name="uniF406" unicode="&#xf406;" horiz-adv-x="496" 
d="M110 900q9 -10 22 -21t30 -20.5t39.5 -15.5t51.5 -6q50 0 85 20t55 43l43 -60q-12 -20 -31 -38.5t-42.5 -33t-51.5 -23t-58 -8.5q-35 0 -65 9.5t-55 24.5t-43.5 33.5t-29.5 36.5z" />
    <glyph glyph-name="uniF407" unicode="&#xf407;" horiz-adv-x="392" 
d="M97 -105q13 -11 34 -22t40 -11q17 0 28 6.5t11 18.5q0 14 -9 21t-32 7h-6v85h58v-35q59 -3 85 -25t26 -60t-34.5 -63t-98.5 -25q-57 0 -89.5 16t-49.5 29z" />
    <glyph glyph-name="uniF408" unicode="&#xf408;" horiz-adv-x="478" 
d="M235 904h4l179 -111l-45 -65l-136 71l-136 -71l-41 64z" />
    <glyph glyph-name="uniF409" unicode="&#xf409;" horiz-adv-x="278" 
d="M198 -33q8 -5 14 -16.5t6 -32.5q0 -27 -11.5 -48.5t-29.5 -37t-40 -25.5t-43 -13l-34 50q26 11 34.5 25.5t8.5 34.5q0 26 -17 38z" />
    <glyph glyph-name="uniF40A" unicode="&#xf40a;" horiz-adv-x="273" 
d="M179 773q16 -17 25 -42.5t9 -50.5q0 -35 -9.5 -63t-24.5 -49t-32.5 -36t-33.5 -24l-53 49q22 18 33.5 43.5t11.5 53.5q0 19 -6 35t-17 27z" />
    <glyph glyph-name="uniF40B" unicode="&#xf40b;" horiz-adv-x="274" 
d="M60 831q0 33 23.5 52t55.5 19q29 0 52 -19t23 -52q0 -36 -23 -55.5t-52 -19.5q-32 0 -55.5 19.5t-23.5 55.5z" />
    <glyph glyph-name="uniF40C" unicode="&#xf40c;" horiz-adv-x="402" 
d="M60 800q0 28 11 48.5t29.5 33.5t44 19.5t54.5 6.5q30 0 56 -6.5t45.5 -19.5t30.5 -33.5t11 -48.5q0 -27 -11 -48t-30.5 -34.5t-45.5 -20.5t-56 -7q-29 0 -54.5 7t-44 20.5t-29.5 34.5t-11 48zM145 800q0 -24 16 -35.5t39 -11.5q24 0 40.5 11.5t16.5 35.5t-16.5 34.5
t-40.5 10.5q-23 0 -39 -10.5t-16 -34.5z" />
    <glyph glyph-name="uniF40D" unicode="&#xf40d;" horiz-adv-x="482" 
d="M60 826q22 25 52.5 39.5t59.5 14.5q22 0 40 -5.5t34 -12t32.5 -12t36.5 -5.5q17 0 37 6t39 26l31 -73q-41 -59 -115 -59q-19 0 -36 5.5t-34 12t-35.5 12t-39.5 5.5q-33 0 -66 -27z" />
    <glyph glyph-name="uniF40E" unicode="&#xf40e;" horiz-adv-x="357" 
d="M297 -168q-13 -13 -42 -22.5t-61 -9.5q-26 0 -50 5t-42.5 16.5t-30 29t-11.5 43.5q0 33 20.5 56.5t53 39t72.5 23t78 7.5v-20q-23 0 -42.5 -6t-34.5 -15.5t-23.5 -21.5t-8.5 -25q0 -23 15 -31.5t30 -8.5q12 0 20.5 2t21.5 8z" />
    <glyph glyph-name="uniF410" unicode="&#xf410;" horiz-adv-x="0" 
d="M-512 812l43 99l214 -111l-32 -69z" />
    <glyph glyph-name="uniF416" unicode="&#xf416;" horiz-adv-x="278" 
d="M198 -33q8 -5 14 -16.5t6 -32.5q0 -27 -11.5 -48.5t-29.5 -37t-40 -25.5t-43 -13l-34 50q26 11 34.5 25.5t8.5 34.5q0 26 -17 38z" />
    <glyph glyph-name="uniF418" unicode="&#xf418;" horiz-adv-x="273" 
d="M179 576q16 -17 25 -42.5t9 -50.5q0 -35 -9.5 -63t-24.5 -49t-32.5 -36t-33.5 -24l-53 49q22 18 33.5 43.5t11.5 53.5q0 19 -6 35t-17 27z" />
    <glyph glyph-name="uniF447" unicode="&#xf447;" horiz-adv-x="503" 
d="M159 -112q14 -11 32.5 -18.5t37.5 -7.5q17 0 28 6.5t11 18.5q0 14 -9 21t-32 7h-6v85h-31v410h-181v115h485v-115h-182v-410h-33v-35q104 -6 104 -85q0 -38 -34.5 -63t-103.5 -25q-48 0 -75.5 14.5t-44.5 27.5z" />
    <glyph glyph-name="uniF44E" unicode="&#xf44e;" horiz-adv-x="624" 
d="M456 324q-13 47 -56.5 70t-102.5 23q-46 0 -75 -8.5t-58 -28.5l-48 91q30 23 75.5 42t117.5 19q64 0 116 -19.5t88.5 -55t56 -86t19.5 -111.5q0 -63 -21 -113.5t-59 -85.5t-90 -53.5t-115 -18.5q-66 0 -120 22t-90 65t-51.5 105.5t-4.5 142.5h418zM303 104
q75 0 112.5 28.5t45.5 76.5h-296q0 -21 10 -40t27.5 -33.5t43 -23t57.5 -8.5z" />
    <glyph glyph-name="uniF639" unicode="&#xf639;" 
d="M63 350q0 80 14 146t43 113t73.5 73t104.5 26t104 -26t73 -73t43 -113t14 -146t-14 -146t-42.5 -113t-72 -73t-103.5 -26t-105 26t-74 73t-43.5 113t-14.5 146zM186 350q0 -129 28.5 -190t85.5 -61q60 0 85 60.5t25 190.5t-26 190t-86 60t-86 -61t-26 -189z" />
    <glyph glyph-name="uniF63A" unicode="&#xf63a;" 
d="M81 92q43 42 93.5 92t94 104t73 108.5t29.5 105.5q0 42 -22.5 66.5t-66.5 24.5q-37 0 -63.5 -24.5t-37.5 -69.5l-96 43q15 77 71 121.5t139 44.5q50 0 87.5 -15.5t62 -41t37 -58.5t12.5 -68q0 -49 -16 -96t-40.5 -89.5t-55 -80t-60 -67.5t-54.5 -52t-38 -33h290v-107
h-439v92z" />
    <glyph glyph-name="uniF63B" unicode="&#xf63b;" 
d="M292 -11q-81 0 -137.5 32t-84.5 86l65 84q26 -39 65 -63t85 -24q57 0 85 28.5t28 68.5q0 48 -34.5 73.5t-95.5 25.5h-50v115h45q21 0 40.5 6.5t34.5 19t24 30t9 40.5q0 38 -22 61.5t-67 23.5q-42 0 -74 -18.5t-58 -56.5l-64 81q29 54 82 81.5t125 27.5q45 0 82 -12.5
t63.5 -35.5t41 -56t14.5 -74q0 -119 -107 -166v-3q33 -6 58 -21t42 -37t25.5 -50t8.5 -59q0 -48 -17.5 -86.5t-48.5 -65.5t-73 -41.5t-90 -14.5z" />
    <glyph glyph-name="uniF63C" unicode="&#xf63c;" 
d="M355 162h-321v85l270 453h132l-253 -423h172v173h115v-173h89v-115h-89v-162h-115v162z" />
    <glyph glyph-name="uniF63D" unicode="&#xf63d;" 
d="M172 700h331v-115h-230l-20 -139q8 2 18.5 3t21.5 1q46 0 86.5 -15.5t70 -44.5t46.5 -70t17 -93q0 -57 -19 -101t-51.5 -74.5t-76.5 -46.5t-94 -16q-28 0 -57.5 6.5t-57 19t-51 31t-39.5 43.5l66 87q23 -33 62.5 -52.5t79.5 -19.5q51 0 83 33t32 85q0 53 -39 88.5
t-110 35.5q-34 0 -66.5 -5.5t-48.5 -12.5z" />
    <glyph glyph-name="uniF63E" unicode="&#xf63e;" 
d="M50 248q0 96 32 175t82.5 138.5t111.5 97.5t118 52l47 -87q-43 -13 -83 -35.5t-74 -54.5t-59.5 -73.5t-38.5 -92.5q22 30 56.5 47.5t87.5 17.5q40 0 75.5 -15.5t62.5 -43.5t42.5 -67.5t15.5 -87.5q0 -55 -19.5 -98t-51.5 -72t-72.5 -44.5t-82.5 -15.5q-59 0 -105 20.5
t-78.5 56t-49.5 82.5t-17 100zM172 247q0 -30 8.5 -56t24.5 -45.5t40 -30.5t56 -11q24 0 43 9t32.5 23.5t20.5 34t7 40.5q0 48 -28.5 81.5t-84.5 33.5q-24 0 -43 -7t-33.5 -18.5t-25 -25.5t-17.5 -28z" />
    <glyph glyph-name="uniF63F" unicode="&#xf63f;" 
d="M86 700h440v-77l-247 -623h-126l235 585h-302v115z" />
    <glyph glyph-name="uniF640" unicode="&#xf640;" 
d="M309 417q20 0 36.5 7.5t28.5 20t18.5 28.5t6.5 34q0 43 -28.5 66t-73.5 23q-46 0 -72.5 -25t-26.5 -64q0 -18 6.5 -34t18.5 -28.5t29 -20t37 -7.5h20zM291 302q-22 0 -42.5 -7t-36 -19.5t-25 -31t-9.5 -41.5q0 -42 31.5 -70.5t88.5 -28.5q63 0 92 28.5t28 70.5
q0 49 -32 74t-78 25h-17zM299 -11q-51 0 -95.5 13.5t-77 38t-51.5 60t-19 80.5q0 68 34 114t85 63v3q-40 17 -70 60.5t-30 105.5q0 41 17.5 75t47.5 58t70.5 37.5t87.5 13.5q46 0 86.5 -13.5t71 -37.5t48 -58t17.5 -75q0 -51 -28 -97t-79 -68v-3q26 -5 49 -19t40.5 -36
t27.5 -50.5t10 -62.5q0 -48 -18.5 -86t-51.5 -63.5t-77 -39t-95 -13.5z" />
    <glyph glyph-name="uniF641" unicode="&#xf641;" 
d="M542 444q0 -101 -28 -181.5t-76.5 -138t-114 -92t-140.5 -43.5l-38 91q109 22 174.5 84t86.5 160q-22 -30 -55 -46.5t-78 -16.5q-44 0 -82.5 16.5t-67 45.5t-45 68.5t-16.5 86.5q0 55 20.5 98.5t53.5 73.5t74.5 45.5t83.5 15.5q58 0 104.5 -20t78 -55t48.5 -84.5
t17 -107.5zM420 445q0 30 -8 57.5t-23.5 48t-39.5 33t-55 12.5q-24 0 -44.5 -9.5t-35 -24.5t-22.5 -35t-8 -41q0 -23 8 -44t23 -37.5t36.5 -26t49.5 -9.5q47 0 76 23.5t43 52.5z" />
    <glyph glyph-name="uniF643" unicode="&#xf643;" 
d="M33 250q0 51 17.5 98t51.5 83t83.5 58t112.5 22t112.5 -22t83.5 -58t51.5 -83t17.5 -98t-17.5 -98t-51.5 -83t-83.5 -58t-112.5 -22t-112.5 22t-83.5 58t-51.5 83t-17.5 98zM155 250q0 -30 10 -57t28.5 -46.5t45 -31t59.5 -11.5q35 0 61.5 11.5t44.5 31t27 46.5t9 57
q0 65 -38 105.5t-104 40.5t-104.5 -41t-38.5 -105z" />
    <glyph glyph-name="uniF644" unicode="&#xf644;" 
d="M287 508h80v-508h-123v362l-89 -51l-38 104z" />
    <glyph glyph-name="uniF645" unicode="&#xf645;" 
d="M81 85q39 16 89.5 39.5t95 52.5t75.5 63t31 72q0 37 -21.5 61t-62.5 24q-38 0 -69 -20.5t-49 -63.5l-74 74q10 28 30 51t46 39.5t57 25.5t63 9q51 0 88 -14t60.5 -37.5t35 -55t11.5 -66.5q0 -43 -17.5 -80t-43 -65.5t-53.5 -48.5t-50 -30h198v-115h-440v85z" />
    <glyph glyph-name="uniF646" unicode="&#xf646;" 
d="M292 -211q-81 0 -137.5 32t-84.5 86l65 84q26 -39 65 -63t85 -24q57 0 85 28.5t28 68.5q0 48 -34.5 73.5t-95.5 25.5h-50v115h45q21 0 40.5 6.5t34.5 19t24 30t9 40.5q0 38 -22 61.5t-67 23.5q-42 0 -74 -18.5t-58 -56.5l-64 81q29 54 82 81.5t125 27.5q45 0 82 -12.5
t63.5 -35.5t41 -56t14.5 -74q0 -119 -107 -166v-3q33 -6 58 -21t42 -37t25.5 -50t8.5 -59q0 -48 -17.5 -86.5t-48.5 -65.5t-73 -41.5t-90 -14.5z" />
    <glyph glyph-name="uniF647" unicode="&#xf647;" 
d="M354 0h-320v84l250 416h132l-233 -385h171v172h115v-172h90v-115h-90v-200h-115v200z" />
    <glyph glyph-name="uniF648" unicode="&#xf648;" 
d="M172 500h331v-115h-230l-20 -139q8 2 18.5 3t21.5 1q46 0 86.5 -15.5t70 -44.5t46.5 -70t17 -93q0 -57 -19 -101t-51.5 -74.5t-76.5 -46.5t-94 -16q-28 0 -57.5 6.5t-57 19t-51 31t-39.5 43.5l66 87q23 -33 62.5 -52.5t79.5 -19.5q51 0 83 33t32 85q0 53 -39 88.5
t-110 35.5q-34 0 -66.5 -5.5t-48.5 -12.5z" />
    <glyph glyph-name="uniF649" unicode="&#xf649;" 
d="M50 248q0 96 32 175t82.5 138.5t111.5 97.5t118 52l47 -87q-43 -13 -83 -35.5t-74 -54.5t-59.5 -73.5t-38.5 -92.5q22 30 56.5 47.5t87.5 17.5q40 0 75.5 -15.5t62.5 -43.5t42.5 -67.5t15.5 -87.5q0 -55 -19.5 -98t-51.5 -72t-72.5 -44.5t-82.5 -15.5q-59 0 -105 20.5
t-78.5 56t-49.5 82.5t-17 100zM172 247q0 -30 8.5 -56t24.5 -45.5t40 -30.5t56 -11q24 0 43 9t32.5 23.5t20.5 34t7 40.5q0 48 -28.5 81.5t-84.5 33.5q-24 0 -43 -7t-33.5 -18.5t-25 -25.5t-17.5 -28z" />
    <glyph glyph-name="uniF64A" unicode="&#xf64a;" 
d="M86 500h440v-77l-248 -623h-126l236 585h-302v115z" />
    <glyph glyph-name="uniF64B" unicode="&#xf64b;" 
d="M309 417q20 0 36.5 7.5t28.5 20t18.5 28.5t6.5 34q0 43 -28.5 66t-73.5 23t-72 -25t-27 -64q0 -18 6.5 -34t18.5 -28.5t29 -20t38 -7.5h19zM292 302q-22 0 -42.5 -7t-36 -19.5t-25 -31t-9.5 -41.5q0 -42 31 -70.5t88 -28.5q63 0 92.5 28.5t28.5 70.5q-1 49 -32.5 74
t-77.5 25h-17zM299 -11q-51 0 -95.5 13.5t-77 38t-51.5 60t-19 80.5q0 68 34.5 114t85.5 63v3q-41 17 -70.5 60.5t-29.5 105.5q0 41 17.5 75t47.5 58t70.5 37.5t86.5 13.5t87 -13.5t71.5 -37.5t48 -58t17.5 -75q0 -51 -28.5 -97t-79.5 -68v-3q26 -5 49 -19t40.5 -36
t27.5 -50.5t10 -62.5q0 -48 -18.5 -86t-51.5 -63.5t-77 -39t-95 -13.5z" />
    <glyph glyph-name="uniF64C" unicode="&#xf64c;" 
d="M542 244q0 -101 -28 -181.5t-76.5 -138t-114 -92t-140.5 -43.5l-38 91q109 22 174.5 84t86.5 160q-22 -30 -55 -46.5t-78 -16.5q-44 0 -82.5 16.5t-67 45.5t-45 68.5t-16.5 86.5q0 55 20.5 98.5t53.5 73.5t74.5 45.5t83.5 15.5q58 0 104.5 -20t78 -55t48.5 -84.5
t17 -107.5zM420 245q0 30 -8 57.5t-23.5 48t-39.5 33t-55 12.5q-24 0 -44.5 -9.5t-35 -24.5t-22.5 -35t-8 -41q0 -23 8 -44t23 -37.5t36.5 -26t49.5 -9.5q47 0 76 23.5t43 52.5z" />
    <glyph glyph-name="uniF66D" unicode="&#xf66d;" horiz-adv-x="611" 
d="M251 526h109l245 -526h-131l-49 108h-247l-49 -108h-123zM229 222h145l-72 161zM200 729q8 -9 18 -19t23.5 -18.5t30.5 -14t38 -5.5q38 0 67 17.5t45 37.5l40 -55q-10 -15 -24 -31.5t-32.5 -30t-43.5 -22t-57 -8.5q-33 0 -58.5 10t-45 24t-32.5 29.5t-20 27.5z" />
    <glyph glyph-name="uniF66E" unicode="&#xf66e;" horiz-adv-x="611" 
d="M251 526h109l245 -526h-131l-49 108h-247l-49 -108h-123zM229 222h145l-72 161zM166 690h279v-93h-279v93z" />
    <glyph glyph-name="uniF66F" unicode="&#xf66f;" horiz-adv-x="611" 
d="M598 -168q-13 -13 -42 -22.5t-61 -9.5q-26 0 -50 5t-42.5 16.5t-30 29t-11.5 43.5q0 41 32 68.5t79 41.5l-47 104h-247l-49 -108h-123l245 526h109l245 -526h-25q-22 0 -41 -6t-33 -16t-22 -22t-8 -24q0 -23 15 -31.5t30 -8.5q12 0 20.5 2t21.5 8zM229 222h145l-72 161z
" />
    <glyph glyph-name="uniF671" unicode="&#xf671;" horiz-adv-x="549" 
d="M523 50q-14 -13 -34 -24t-45 -19.5t-53 -13t-57 -4.5q-68 0 -123.5 19.5t-94.5 55t-60 85.5t-21 112q0 54 18 103t55 86.5t92.5 59.5t130.5 22q59 0 105.5 -15.5t74.5 -38.5l-55 -92q-25 12 -53.5 21.5t-70.5 9.5q-36 0 -67 -10t-53 -29.5t-34.5 -49t-12.5 -67.5
q0 -35 12.5 -63.5t36 -49.5t56.5 -32.5t75 -11.5q33 0 67.5 9t63.5 29zM294 570l-55 64l133 142l71 -88z" />
    <glyph glyph-name="uniF672" unicode="&#xf672;" horiz-adv-x="549" 
d="M523 50q-14 -13 -34 -24t-45 -19.5t-53 -13t-57 -4.5q-68 0 -123.5 19.5t-94.5 55t-60 85.5t-21 112q0 54 18 103t55 86.5t92.5 59.5t130.5 22q59 0 105.5 -15.5t74.5 -38.5l-55 -92q-25 12 -53.5 21.5t-70.5 9.5q-36 0 -67 -10t-53 -29.5t-34.5 -49t-12.5 -67.5
q0 -35 12.5 -63.5t36 -49.5t56.5 -32.5t75 -11.5q33 0 67.5 9t63.5 29zM156 686l54 67l104 -79l104 78l53 -67l-156 -121h-4z" />
    <glyph glyph-name="uniF673" unicode="&#xf673;" horiz-adv-x="549" 
d="M523 50q-14 -13 -34 -24t-45 -19.5t-53 -13t-57 -4.5q-68 0 -123.5 19.5t-94.5 55t-60 85.5t-21 112q0 54 18 103t55 86.5t92.5 59.5t130.5 22q59 0 105.5 -15.5t74.5 -38.5l-55 -92q-25 12 -53.5 21.5t-70.5 9.5q-36 0 -67 -10t-53 -29.5t-34.5 -49t-12.5 -67.5
q0 -35 12.5 -63.5t36 -49.5t56.5 -32.5t75 -11.5q33 0 67.5 9t63.5 29zM475 627l-54 -68l-106 80l-107 -78l-52 67l158 121h4z" />
    <glyph glyph-name="uniF674" unicode="&#xf674;" horiz-adv-x="549" 
d="M523 50q-14 -13 -34 -24t-45 -19.5t-53 -13t-57 -4.5q-68 0 -123.5 19.5t-94.5 55t-60 85.5t-21 112q0 54 18 103t55 86.5t92.5 59.5t130.5 22q59 0 105.5 -15.5t74.5 -38.5l-55 -92q-25 12 -53.5 21.5t-70.5 9.5q-36 0 -67 -10t-53 -29.5t-34.5 -49t-12.5 -67.5
q0 -35 12.5 -63.5t36 -49.5t56.5 -32.5t75 -11.5q33 0 67.5 9t63.5 29zM240 659q0 32 21.5 49.5t50.5 17.5q25 0 45.5 -17.5t20.5 -49.5q0 -35 -20.5 -53t-45.5 -18q-29 0 -50.5 18t-21.5 53z" />
    <glyph glyph-name="uniF675" unicode="&#xf675;" horiz-adv-x="622" 
d="M78 525h12q12 0 34 0.5t47 0.5t48.5 0.5t38.5 0.5q88 0 150.5 -19.5t102 -54.5t58 -83t18.5 -104q0 -58 -21 -107t-62.5 -85t-104.5 -56t-147 -20q-12 0 -31 0.5t-41 0.5t-45 0.5t-44 0.5h-13v525zM257 412h-28.5t-28.5 -2v-295q17 -2 29.5 -2h26.5q94 0 147.5 38.5
t53.5 114.5q0 73 -51.5 109.5t-148.5 36.5zM124 686l54 67l104 -79l104 78l53 -67l-156 -121h-4z" />
    </font>
</defs>
</svg>
