<?xml version="1.0" standalone="no"?>
<!DOCTYPE svg PUBLIC "-//W3C//DTD SVG 1.1//EN" "http://www.w3.org/Graphics/SVG/1.1/DTD/svg11.dtd" >
<svg xmlns="http://www.w3.org/2000/svg" xmlns:xlink="http://www.w3.org/1999/xlink" version="1.1">
<metadata>
Created by FontForge 20200314 at Wed May 27 18:17:48 2015
 By Unknown
Copyright (c) 2011 ParaType Inc., ParaType Ltd. All rights reserved.
</metadata>
<defs>
<font id="CirceW08-ExtraLight" horiz-adv-x="586" >
  <font-face 
    font-family="CirceW08-ExtraLight"
    font-weight="300"
    font-stretch="normal"
    units-per-em="1000"
    panose-1="2 11 3 2 2 2 3 2 2 3"
    ascent="800"
    descent="-200"
    x-height="450"
    cap-height="700"
    bbox="-500 -346 1689 994"
    underline-thickness="50"
    underline-position="-125"
    unicode-range="U+0020-FB02"
  />
<missing-glyph horiz-adv-x="243" 
 />
    <glyph glyph-name="uniF3D6" unicode="&#xf350;`" horiz-adv-x="560" 
d="M269 530h22l248 -530h-32l-88 189h-280l-88 -189h-30zM151 216h255l-127 275zM262 594l-16 15l114 142l18 -20z" />
    <glyph glyph-name="uniF3D7" unicode="&#xf355;`" horiz-adv-x="474" 
d="M93 525h311v-28h-282v-216h258v-28h-258v-225h290v-28h-319v525zM237 594l-16 15l114 142l18 -20z" />
    <glyph glyph-name="uniF3D8" unicode="&#xf358;`" horiz-adv-x="645" 
d="M93 0v525h29v-479l403 479h27v-525h-29v479l-403 -479h-27zM294 594l-16 15l114 142l18 -20z" />
    <glyph glyph-name="uniF3D9" unicode="&#xf35e;`" horiz-adv-x="647" 
d="M46 263q0 57 21 106t58 85t88 56.5t110 20.5t110 -20t88.5 -56t58.5 -85t21 -107t-21 -107.5t-58.5 -85.5t-88.5 -56.5t-110 -20.5t-109.5 20t-88 56t-58.5 85.5t-21 108.5zM77 263q0 -52 19 -96t52 -76.5t78 -51t97 -18.5q54 0 99 18.5t78 51t51.5 76.5t18.5 96t-19 96
t-52 76t-78.5 50t-97.5 18t-97 -18t-78 -50t-52 -76t-19 -96zM309 594l-16 15l114 142l18 -20z" />
    <glyph glyph-name="uniF3DA" unicode="&#xf363;`" horiz-adv-x="517" 
d="M304 118q-29 -60 -57.5 -89t-66.5 -29q-16 0 -31 4t-27 12l11 25q23 -14 47 -14q30 0 50 23t35 52l12 22l-262 401h36l241 -372l179 372h31zM244 594l-16 15l114 142l18 -20z" />
    <glyph glyph-name="uniF3DB" unicode="&#xf36b;`" horiz-adv-x="662" 
d="M539 525h30v-525h-30v525zM214 287q-37 0 -92 -3v-256q20 0 41 -1t47 -1q90 0 137 34.5t47 102.5q0 59 -45 91.5t-135 32.5zM122 312q28 2 51.5 2.5t40.5 0.5q108 0 159.5 -40.5t51.5 -112.5q0 -81 -59 -122.5t-159 -41.5q-32 0 -60.5 1t-53.5 1v525h29v-213zM284 594
l-16 15l114 142l18 -20z" />
    <glyph glyph-name="uniF3DC" unicode="&#xf36d;`" horiz-adv-x="551" 
d="M163 282h311q-3 51 -21.5 92t-51.5 69.5t-78.5 44t-101.5 15.5q-45 0 -86 -10t-74 -34l-13 21q32 26 79 39t95 13q64 0 116.5 -19t89.5 -53.5t57 -84.5t20 -111q0 -58 -20 -107.5t-57 -86t-89 -57t-116 -20.5q-106 0 -187 55l14 24q77 -50 175 -50q56 0 101.5 17.5
t77.5 48.5t50.5 73.5t20.5 92.5h-312v28zM224 594l-16 15l114 142l18 -20z" />
    <glyph glyph-name="uniF3DD" unicode="&#xf36e;`" horiz-adv-x="862" 
d="M93 525h29v-243h157q3 53 24 99t56 79.5t82.5 52.5t104.5 19q60 0 109.5 -20t85 -56t55.5 -85.5t20 -107.5t-20 -107.5t-55.5 -85.5t-85 -56.5t-109.5 -20.5q-57 0 -105.5 19.5t-83.5 54t-56 82.5t-22 105h-157v-254h-29v525zM310 263q0 -52 17.5 -96t49 -76.5t75 -50.5
t95.5 -18q53 0 96.5 18t75 50.5t49 76.5t17.5 96t-17.5 96t-49 76t-75.5 50t-96 18t-95.5 -18t-75 -50t-49 -76t-17.5 -96zM335 594l-16 15l114 142l18 -20z" />
    <glyph glyph-name="uniF3DE" unicode="&#xf36f;`" horiz-adv-x="497" 
d="M375 210h-142l-169 -210h-36l173 214q-24 6 -47 19.5t-41 32.5t-28.5 43.5t-10.5 52.5q0 35 12.5 65t38 52.5t64 35t89.5 12.5q33 0 67 -1t59 -1v-525h-29v210zM375 238v259q-20 0 -45.5 1t-54.5 1q-44 0 -76 -11t-53 -29.5t-31 -43.5t-10 -52q0 -24 10.5 -45.5t27.5 -38
t39.5 -27.5t45.5 -14h147zM254 594l-16 15l114 142l18 -20z" />
    <glyph glyph-name="uniF3DF" unicode="&#xf371;`" horiz-adv-x="474" 
d="M93 525h311v-28h-282v-216h258v-28h-258v-225h290v-28h-319v525zM137 667q0 8 6.5 14t15.5 6q8 0 14 -6t6 -14q0 -10 -6 -16t-14 -6q-9 0 -15.5 6t-6.5 16zM312 667q0 8 6.5 14t15.5 6q8 0 14 -6t6 -14q0 -10 -6 -16t-14 -6q-9 0 -15.5 6t-6.5 16zM194 594l-16 15
l114 142l18 -20z" />
    <glyph glyph-name="uniF460" unicode="&#x410;`" horiz-adv-x="690" 
d="M334 707h22l308 -707h-32l-113 260h-350l-112 -260h-31zM181 288h326l-163 375zM321 740l-9 18l165 94l11 -23z" />
    <glyph glyph-name="uniF461" unicode="&#x415;`" horiz-adv-x="575" 
d="M116 700h380v-28h-350v-302h320v-28h-320v-314h360v-28h-390v700zM256 740l-9 18l165 94l11 -23z" />
    <glyph glyph-name="uniF462" unicode="&#x418;`" horiz-adv-x="799" 
d="M116 0v700h30v-653l510 653h27v-700h-30v652l-510 -652h-27zM346 740l-9 18l165 94l11 -23z" />
    <glyph glyph-name="uniF463" unicode="&#x41e;`" horiz-adv-x="807" 
d="M57 350q0 76 26.5 141.5t73 114t109.5 76t137 27.5q73 0 136.5 -27t110 -75t73 -114t26.5 -143t-26.5 -142.5t-73 -113.5t-110 -75.5t-136.5 -27.5t-136.5 27t-110 75t-73 114t-26.5 143zM88 350q0 -71 24 -131t66.5 -104.5t100 -69.5t124.5 -25q68 0 125.5 25t99.5 69.5
t66 104.5t24 131t-24 131.5t-66.5 104.5t-100 69t-124.5 25t-124.5 -25t-100 -69t-66.5 -104.5t-24 -131.5zM356 740l-9 18l165 94l11 -23z" />
    <glyph glyph-name="uniF464" unicode="&#x423;`" horiz-adv-x="640" 
d="M375 156q-36 -81 -70 -118.5t-81 -37.5q-18 0 -37 5t-33 16l10 25q28 -19 59 -19q19 0 34.5 8.5t29 22.5t25 32.5t21.5 39.5l15 30l-329 540h33l310 -511l229 511h30zM298 740l-9 18l165 94l11 -23z" />
    <glyph glyph-name="uniF465" unicode="&#x42b;`" horiz-adv-x="815" 
d="M670 700h29v-700h-29v700zM262 387q-23 0 -52 -1t-64 -5v-353q25 0 51 -1t61 -1q115 0 175 47.5t60 141.5q0 81 -58 126.5t-173 45.5zM146 410q35 3 64.5 4t51.5 1q134 0 197.5 -53.5t63.5 -147.5q0 -108 -72.5 -162t-195.5 -54q-39 0 -73.5 1t-65.5 1v700h30v-290z
M349 740l-9 18l165 94l11 -23z" />
    <glyph glyph-name="uniF466" unicode="&#x42d;`" horiz-adv-x="683" 
d="M203 371h392q-3 71 -27 128.5t-66.5 97.5t-101 61.5t-130.5 21.5q-54 0 -103.5 -14t-91.5 -46l-13 21q40 35 97.5 51.5t115.5 16.5q80 0 144.5 -25t110.5 -71.5t70.5 -112t24.5 -147.5q0 -77 -24.5 -143t-70 -114.5t-109.5 -76.5t-143 -28q-132 0 -232 73l15 24
q97 -68 215 -68q71 0 129 24.5t99.5 68t65 102.5t25.5 128h-392v28zM251 740l-9 18l165 94l11 -23z" />
    <glyph glyph-name="uniF467" unicode="&#x42e;`" horiz-adv-x="1074" 
d="M116 700h30v-329h200q4 72 30 134t70 107t103.5 71t130.5 26q73 0 135 -27t106.5 -75t69.5 -114t25 -143t-25 -142.5t-69.5 -113.5t-106.5 -75.5t-135 -27.5q-72 0 -132.5 26.5t-105 73.5t-70 111.5t-26.5 140.5h-200v-343h-30v700zM376 350q0 -71 23 -131t63.5 -104.5
t96.5 -69.5t122 -25q68 0 124 25t96 69.5t62 104.5t22 131t-22.5 131.5t-63 104.5t-96 69t-122.5 25q-66 0 -122 -25t-96.5 -69t-63.5 -104.5t-23 -131.5zM506 740l-9 18l165 94l11 -23z" />
    <glyph glyph-name="uniF468" unicode="&#x42f;`" horiz-adv-x="608" 
d="M463 286h-177l-214 -286h-36l220 290q-31 7 -60.5 24.5t-52.5 43t-37 58t-14 70.5q0 46 16 85.5t47.5 68.5t79 45.5t110.5 16.5q37 0 76.5 -1t70.5 -1v-700h-29v286zM463 314v358q-25 0 -57 1t-66 1q-56 0 -97 -15t-67.5 -40.5t-39.5 -60t-13 -72.5q0 -33 13.5 -62.5
t35.5 -52.5t50 -38t58 -19h183zM322 740l-9 18l165 94l11 -23z" />
    <glyph glyph-name="uniF469" unicode="&#x401;`" horiz-adv-x="575" 
d="M164 796q0 9 6 15t15 6q8 0 13.5 -6t5.5 -15q0 -10 -5.5 -16t-13.5 -6q-9 0 -15 6t-6 16zM410 796q0 9 6.5 15t14.5 6t13.5 -6t5.5 -15q0 -10 -5.5 -16t-13.5 -6t-14.5 6t-6.5 16zM257 742l-11 9l141 101l21 -11zM116 700h380v-28h-350v-302h320v-28h-320v-314h360v-28
h-390v700z" />
    <glyph glyph-name="uniF46A" unicode="&#x430;`" horiz-adv-x="457" 
d="M82 418q32 20 66 30.5t72 10.5q45 0 76 -12t50 -35t27.5 -56t8.5 -75v-281h-28v78q-11 -15 -26 -30t-35.5 -27t-46.5 -19t-59 -7q-63 0 -101.5 35t-38.5 94q0 34 13 59.5t36 42.5t54.5 26t67.5 9q28 0 66 -7t70 -30q0 47 -3 85.5t-16 65.5t-41 42t-77 15q-38 0 -66 -9.5
t-60 -28.5zM193 22q34 0 59 8t44 20.5t33 27.5t25 29v90q-56 40 -134 40q-26 0 -52 -6.5t-46 -20t-32.5 -34.5t-12.5 -50q0 -50 33.5 -77t82.5 -27zM222 552l-18 12l109 146l21 -17z" />
    <glyph glyph-name="uniF46B" unicode="&#x435;`" horiz-adv-x="527" 
d="M452 59q-29 -34 -74 -51t-90 -17q-52 0 -95 16.5t-74.5 47t-49 74t-17.5 96.5q0 49 14 92t42 74.5t69.5 49.5t97.5 18q43 0 80 -14.5t64 -41t42 -63.5t15 -83q0 -9 -0.5 -16.5t-1.5 -14.5h-391q1 -97 56.5 -152.5t149.5 -55.5q48 0 87.5 17.5t64.5 44.5zM271 432
q-44 0 -78 -14t-58 -38t-37.5 -57.5t-16.5 -72.5h366q0 42 -12 75.5t-35.5 57.5t-56 36.5t-72.5 12.5zM256 552l-18 12l109 146l21 -17z" />
    <glyph glyph-name="uniF46C" unicode="&#x438;`" horiz-adv-x="561" 
d="M85 0v450h29v-409l334 409h28v-450h-28v409l-334 -409h-29zM262 552l-18 12l109 146l21 -17z" />
    <glyph glyph-name="uniF46D" unicode="&#x43e;`" horiz-adv-x="569" 
d="M52 225q0 51 17 93.5t48 74t73.5 49t93.5 17.5t94 -17.5t74 -49t48 -74t17 -93.5t-17 -93.5t-48 -74t-74 -49t-94 -17.5t-93.5 17.5t-73.5 49t-48 74t-17 93.5zM81 225q0 -45 15 -83t42 -65.5t64 -43t82 -15.5t82 15.5t64 43t42 65.5t15 83t-15 83t-42 65.5t-64 43
t-82 15.5q-44 0 -81.5 -15.5t-64.5 -43t-42 -65.5t-15 -83zM267 552l-18 12l109 146l21 -17z" />
    <glyph glyph-name="uniF46E" unicode="&#x443;`" horiz-adv-x="472" 
d="M271 0q-25 -60 -46 -99t-40.5 -61.5t-39 -31t-41.5 -8.5q-18 0 -35 5t-35 14l10 22q15 -7 28.5 -11t27.5 -4q38 0 69.5 34.5t64.5 115.5l10 24l-227 450h33l173 -345q19 -36 35 -73q7 19 14 37.5t15 37.5l136 343h32zM241 552l-18 12l109 146l21 -17z" />
    <glyph glyph-name="uniF46F" unicode="&#x44b;`" horiz-adv-x="603" 
d="M85 450h29v-165h81q52 0 86 -11t54.5 -30t29 -45t8.5 -56t-9 -56t-30.5 -45.5t-56.5 -30.5t-87 -11h-105v450zM114 258v-231h76q86 0 120 31t34 85t-35 84.5t-118 30.5h-77zM490 450h28v-450h-28v450zM276 552l-18 12l109 146l21 -17z" />
    <glyph glyph-name="uniF470" unicode="&#x44d;`" horiz-adv-x="491" 
d="M160 242h250q-3 45 -19.5 80t-43.5 59.5t-63.5 37.5t-79.5 13q-47 0 -86.5 -17.5t-65.5 -45.5l-13 20q29 35 74.5 52.5t90.5 17.5q51 0 94.5 -16.5t74.5 -47t48.5 -74t17.5 -96.5q0 -49 -17 -92t-46.5 -74.5t-70 -49.5t-86.5 -18q-51 0 -96 12t-77 43l14 22
q30 -27 71 -38.5t85 -11.5q40 0 74.5 15t61 41t42 62.5t17.5 80.5h-251v25zM204 552l-18 12l109 146l21 -17z" />
    <glyph glyph-name="uniF471" unicode="&#x44e;`" horiz-adv-x="742" 
d="M85 450h30v-206h128q3 47 20.5 86.5t46.5 68t69 44.5t87 16q49 0 90.5 -17.5t71 -49t46 -74t16.5 -93.5t-16.5 -93.5t-46.5 -74t-71 -49t-90 -17.5q-48 0 -88.5 16.5t-70 46.5t-46.5 71.5t-18 90.5h-128v-216h-30v450zM274 225q0 -45 14 -83t39.5 -65t61 -42t77.5 -15
q43 0 78.5 15t61 42t39.5 65t14 83t-14 82.5t-39.5 65t-61 42.5t-78.5 15q-42 0 -77.5 -15t-61 -42.5t-39.5 -65t-14 -82.5zM355 552l-18 12l109 146l21 -17z" />
    <glyph glyph-name="uniF472" unicode="&#x44f;`" horiz-adv-x="473" 
d="M388 450v-450h-28v183h-133l-145 -183h-36l152 189q-22 3 -43 12.5t-37.5 25.5t-26.5 38t-10 49t9 52t30 43.5t55 29.5t85 11h128zM110 314q0 -25 11 -44t27 -32.5t35 -20.5t36 -7h141v213h-105q-39 0 -67 -8.5t-45 -23.5t-25 -35t-8 -42zM269 552l-18 12l109 146l21 -17
z" />
    <glyph glyph-name="uniF473" unicode="&#x451;`" horiz-adv-x="527" 
d="M133 624q0 8 6 13.5t14 5.5q7 0 13 -5.5t6 -13.5q0 -9 -6 -15t-13 -6q-8 0 -14 6t-6 15zM360 624q0 8 6 13.5t14 5.5t13.5 -5.5t5.5 -13.5q0 -9 -5.5 -15t-13.5 -6t-14 6t-6 15zM227 552l-16 10l110 146l18 -15zM452 59q-29 -34 -74 -51t-90 -17q-52 0 -95 16.5t-74.5 47
t-49 74t-17.5 96.5q0 49 14 92t42 74.5t69.5 49.5t97.5 18q43 0 80 -14.5t64 -41t42 -63.5t15 -83q0 -9 -0.5 -16.5t-1.5 -14.5h-391q1 -97 56.5 -152.5t149.5 -55.5q48 0 87.5 17.5t64.5 44.5zM271 432q-44 0 -78 -14t-58 -38t-37.5 -57.5t-16.5 -72.5h366q0 42 -12 75.5
t-35.5 57.5t-56 36.5t-72.5 12.5z" />
    <glyph glyph-name="uniFB01" unicode="fi" horiz-adv-x="490" 
d="M365 423h-234v-423h-28v520q0 97 45 143t123 46q48 0 77.5 -14.5t46.5 -31.5l-19 -18q-19 15 -42.5 26t-59.5 11q-67 0 -105 -40.5t-38 -130.5v-61h262v-450h-28v423z" />
    <glyph glyph-name="uniFB02" unicode="fl" horiz-adv-x="549" 
d="M358 650q-18 13 -41 22.5t-56 9.5q-65 0 -97.5 -40t-32.5 -128v-64h134v-27h-134v-423h-28v523q0 94 39 140t114 46q40 0 67.5 -11t44.5 -24h18v-540q0 -57 16 -84t58 -27q20 0 39 7t30 16l10 -23q-15 -11 -37.5 -19t-49.5 -8q-51 0 -72.5 28.5t-21.5 88.5v537z" />
    <glyph glyph-name=".notdef" horiz-adv-x="243" 
 />
    <glyph glyph-name=".null" horiz-adv-x="0" 
 />
    <glyph glyph-name="nonmarkingreturn" horiz-adv-x="333" 
 />
    <glyph glyph-name="space" unicode=" " horiz-adv-x="243" 
 />
    <glyph glyph-name="exclam" unicode="!" horiz-adv-x="310" 
d="M140 700h30v-526h-30v526zM131 24q0 8 7 15t18 7q9 0 16 -7t7 -15q0 -10 -7 -17.5t-16 -7.5q-11 0 -18 7.5t-7 17.5z" />
    <glyph glyph-name="quotedbl" unicode="&#x22;" horiz-adv-x="389" 
d="M250 700h28v-195h-28v195zM111 700h28v-195h-28v195z" />
    <glyph glyph-name="numbersign" unicode="#" horiz-adv-x="674" 
d="M403 217h-232l-83 -226l-24 9l81 217h-105v26h114l80 214h-194v26h203l85 226l22 -9l-80 -217h232l84 226l23 -8l-81 -218h107v-26h-116l-79 -214h195v-26h-205l-83 -226l-24 9zM181 243h232l79 214h-232z" />
    <glyph glyph-name="dollar" unicode="$" 
d="M477 170q0 55 -28 87.5t-70 54t-91.5 37.5t-91.5 39t-70 58t-28 94q0 34 12.5 64.5t36.5 53t59 36t80 15.5v81h28v-82q52 -2 97 -21t72 -49l-17 -21q-32 32 -74.5 47.5t-93.5 15.5q-79 0 -124.5 -38.5t-45.5 -101.5q0 -41 16.5 -68t43 -46t60.5 -32.5t69.5 -26.5
t69.5 -28t60.5 -37t43 -53.5t16.5 -77.5q0 -39 -14.5 -70.5t-40.5 -54.5t-61.5 -37t-76.5 -17v-92h-28v91q-30 1 -61 8t-58.5 20t-50.5 31t-36 40l19 20q16 -21 38 -38t47.5 -28.5t52 -17.5t51.5 -6q36 0 70.5 9.5t60.5 28t42 46.5t16 66z" />
    <glyph glyph-name="percent" unicode="%" horiz-adv-x="827" 
d="M671 709l17 -13l-526 -705l-18 14zM56 546q0 34 12.5 62.5t34 49.5t51 32.5t64.5 11.5q34 0 64 -11.5t51.5 -32.5t34 -49.5t12.5 -62.5q0 -35 -12.5 -63.5t-34 -49.5t-51.5 -32.5t-64 -11.5q-35 0 -64.5 11.5t-51 32.5t-34 49.5t-12.5 63.5zM83 546q0 -30 11.5 -54.5
t30 -42t43 -27t50.5 -9.5q27 0 51.5 9.5t43 27t29.5 42t11 54.5t-11 54t-30 41.5t-43 27t-51 9.5t-51 -9.5t-43 -27t-30 -41.5t-11 -54zM446 156q0 34 12.5 62.5t34 49.5t51 32.5t64.5 11.5q34 0 64 -11.5t51.5 -32.5t34 -49.5t12.5 -62.5q0 -35 -12.5 -63.5t-34 -49.5
t-51.5 -32.5t-64 -11.5q-35 0 -64.5 11.5t-51 32.5t-34 49.5t-12.5 63.5zM473 156q0 -30 11.5 -54.5t30 -42t43 -27t50.5 -9.5q27 0 51.5 9.5t43 27t29.5 42t11 54.5t-11 54t-30 41.5t-43 27t-51 9.5t-51 -9.5t-43 -27t-30 -41.5t-11 -54z" />
    <glyph glyph-name="ampersand" unicode="&#x26;" horiz-adv-x="731" 
d="M526 119q-38 -57 -95 -92.5t-134 -35.5q-45 0 -84 15t-67.5 41t-44.5 62.5t-16 80.5t17 81.5t43 69.5t58.5 58t62.5 46q-24 4 -44 15t-34.5 28t-23 39t-8.5 48q0 28 11 52.5t29.5 42.5t43.5 28.5t53 10.5t52.5 -10.5t43 -28.5t29.5 -42.5t11 -52.5q0 -27 -9.5 -50
t-26.5 -41t-39.5 -28.5t-47.5 -11.5l221 -280q35 60 54 134.5t19 151.5h28q0 -84 -21 -165t-62 -145l111 -140h-36zM297 20q71 0 123.5 33.5t87.5 88.5l-225 286q-30 -21 -60 -46t-54 -54t-38.5 -62.5t-14.5 -70.5q0 -40 15 -72.5t40 -55t58 -35t68 -12.5zM183 575
q0 -23 8.5 -43t23.5 -35t35 -23.5t43 -8.5q22 0 42 8.5t35 23.5t23.5 35t8.5 43q0 22 -8.5 42t-23.5 35t-35 23.5t-42 8.5q-23 0 -43 -8.5t-35 -23.5t-23.5 -35t-8.5 -42z" />
    <glyph glyph-name="quotesingle" unicode="'" horiz-adv-x="250" 
d="M111 700h28v-195h-28v195z" />
    <glyph glyph-name="parenleft" unicode="(" horiz-adv-x="261" 
d="M242 -206q-57 49 -95.5 102t-62.5 107.5t-34 110.5t-10 111t10 110t34 109t63 107t96 105l18 -16q-54 -50 -91 -100.5t-59.5 -102t-32.5 -104.5t-10 -108q0 -111 45 -218.5t148 -196.5z" />
    <glyph glyph-name="parenright" unicode=")" horiz-adv-x="261" 
d="M0 -190q103 89 148 196.5t45 218.5q0 55 -10 108t-32.5 104.5t-59.5 102t-91 100.5l18 16q57 -52 96 -105t63 -107t34 -109t10 -110t-10 -111t-34 -110.5t-62.5 -107.5t-95.5 -102z" />
    <glyph glyph-name="asterisk" unicode="*" horiz-adv-x="449" 
d="M203 684q0 11 7 17.5t17 6.5q9 0 16.5 -6.5t7.5 -17.5q0 -9 -7.5 -16t-16.5 -7q-10 0 -17 7t-7 16zM202 446q0 10 7 17t17 7q9 0 16.5 -7t7.5 -17q0 -9 -7.5 -16t-16.5 -7q-10 0 -17 7t-7 16zM308 619q0 10 7 17t16 7q11 0 17.5 -7t6.5 -17t-6.5 -16.5t-17.5 -6.5
q-9 0 -16 6.5t-7 16.5zM308 512q0 9 7 16t16 7q11 0 17.5 -7t6.5 -16q0 -11 -6.5 -17.5t-17.5 -6.5q-9 0 -16 6.5t-7 17.5zM94 512q0 9 6.5 16t17.5 7q9 0 16 -7t7 -16q0 -11 -7 -17.5t-16 -6.5q-11 0 -17.5 6.5t-6.5 17.5zM94 619q0 10 6.5 17t17.5 7q9 0 16 -7t7 -17
t-7 -16.5t-16 -6.5q-11 0 -17.5 6.5t-6.5 16.5z" />
    <glyph glyph-name="plus" unicode="+" 
d="M73 373h206v206h26v-206h208v-26h-208v-208h-26v208h-206v26z" />
    <glyph glyph-name="comma" unicode="," horiz-adv-x="181" 
d="M65 21q0 10 7.5 16.5t19.5 6.5q18 0 33.5 -19.5t15.5 -55.5q0 -47 -26 -77t-61 -39l-7 15q11 3 23 10.5t21.5 19t16.5 26t8 32.5q1 26 -5 38t-13 16q-1 -5 -5 -7.5t-9 -2.5q-8 0 -13.5 6.5t-5.5 14.5z" />
    <glyph glyph-name="hyphen" unicode="-" horiz-adv-x="407" 
d="M93 284h221v-27h-221v27z" />
    <glyph glyph-name="period" unicode="." horiz-adv-x="162" 
d="M57 24q0 8 7 15t18 7q9 0 16 -7t7 -15q0 -10 -7 -17.5t-16 -7.5q-11 0 -18 7.5t-7 17.5z" />
    <glyph glyph-name="slash" unicode="/" horiz-adv-x="301" 
d="M308 709l23 -9l-337 -908l-24 9z" />
    <glyph glyph-name="zero" unicode="0" horiz-adv-x="579" 
d="M73 350q0 77 12 142.5t38 113.5t67 75t99 27t99 -27t67 -75t38 -113.5t12 -142.5t-11.5 -142.5t-37 -113.5t-66.5 -75t-99 -27t-99 27t-67.5 75t-39 113.5t-12.5 142.5zM103 350q0 -72 10.5 -133t33 -105t58 -68.5t86.5 -24.5t86.5 24.5t57.5 68.5t31.5 104.5t9.5 133.5
t-10 133.5t-32 104.5t-58 68.5t-87 24.5t-86.5 -24.5t-57.5 -68.5t-32 -105t-10 -133z" />
    <glyph glyph-name="one" unicode="1" horiz-adv-x="366" 
d="M205 707h19v-707h-29v664l-125 -102l-17 22z" />
    <glyph glyph-name="two" unicode="2" horiz-adv-x="531" 
d="M56 24l65 65t75.5 79.5t75.5 89.5t66 94.5t46.5 94t17.5 88.5q0 27 -9 53t-28 46.5t-47 33t-67 12.5q-24 0 -50.5 -7.5t-49 -24.5t-39 -43.5t-21.5 -64.5l-25 8q5 40 23.5 70.5t44.5 50t56.5 29.5t60.5 10q48 0 82 -15.5t56 -39.5t32.5 -53.5t10.5 -58.5q0 -49 -21 -102
t-53.5 -105.5t-72.5 -102t-77.5 -90t-68.5 -70.5t-46 -44h372v-27h-409v24z" />
    <glyph glyph-name="three" unicode="3" horiz-adv-x="534" 
d="M251 -9q-31 0 -60.5 6.5t-55.5 21.5t-47 38.5t-35 56.5l19 18q13 -31 33.5 -52.5t45 -34.5t51 -19t52.5 -6q40 0 72.5 13t55 35.5t35 53.5t12.5 67q0 34 -12.5 63t-34.5 49t-51 31.5t-62 11.5h-64v28h57q26 0 51 12t45 33.5t32 51t12 63.5q0 74 -42 111t-109 37
t-104.5 -29.5t-56.5 -74.5l-18 15q19 56 67 87t113 31q85 0 132 -46.5t47 -129.5q0 -26 -7.5 -52t-21.5 -48.5t-35.5 -41t-48.5 -28.5v-3q33 -5 59 -21t44 -39t27.5 -52t9.5 -59q0 -45 -15.5 -82t-43.5 -62.5t-65.5 -39.5t-82.5 -14z" />
    <glyph glyph-name="four" unicode="4" horiz-adv-x="528" 
d="M354 193h-327v17l320 490h33l-313 -478h287v228h28v-228h108v-29h-108v-193h-28v193z" />
    <glyph glyph-name="five" unicode="5" horiz-adv-x="520" 
d="M167 700h293v-28h-269l-34 -262q15 5 35.5 8.5t43.5 3.5q49 0 90 -15t70 -42.5t45.5 -66t16.5 -85.5q0 -51 -17 -92.5t-45.5 -70t-66 -44t-78.5 -15.5q-29 0 -57 6.5t-54 20.5t-48.5 36t-38.5 52l19 19q15 -27 35.5 -47t44.5 -33t49.5 -19t49.5 -6q37 0 69.5 14.5
t56.5 40t38 60.5t14 77q0 39 -14.5 72.5t-41 58.5t-63.5 39t-82 14q-28 0 -55 -5.5t-47 -12.5z" />
    <glyph glyph-name="six" unicode="6" horiz-adv-x="547" 
d="M57 248q0 96 30 175.5t78 139t107.5 97t118.5 49.5l13 -22q-53 -12 -105 -42.5t-95.5 -79.5t-74.5 -117t-40 -154q10 27 27.5 51t42.5 42t56.5 29t69.5 11q47 0 85 -16t64.5 -44.5t41 -68t14.5 -87.5q0 -47 -16.5 -87t-44.5 -69.5t-64.5 -46.5t-75.5 -17q-59 0 -102.5 21
t-72 56.5t-43 82t-14.5 97.5zM87 249q0 -44 12.5 -85t37 -73t62.5 -51.5t89 -19.5q35 0 66.5 15t55 40.5t37.5 60t14 73.5t-11.5 74t-34.5 61t-57.5 41t-79.5 15q-42 0 -75 -14t-57 -36t-38.5 -49t-20.5 -52z" />
    <glyph glyph-name="seven" unicode="7" horiz-adv-x="466" 
d="M37 700h391v-15l-274 -685h-32l269 672h-354v28z" />
    <glyph glyph-name="eight" unicode="8" horiz-adv-x="588" 
d="M312 374q25 0 51 11.5t46.5 31.5t33.5 48t13 61q0 37 -14 66t-37 48.5t-52.5 29.5t-60.5 10q-30 0 -59 -10.5t-51.5 -30t-36.5 -48t-14 -65.5q0 -33 13 -61t34 -48t46.5 -31.5t51.5 -11.5h36zM281 346q-36 0 -67.5 -12.5t-55.5 -34t-38 -51t-14 -63.5q0 -36 15.5 -66.5
t41 -52.5t59.5 -34t71 -12q38 0 72 11.5t60 33t41.5 52t15.5 68.5t-14 68t-37.5 50.5t-55 31.5t-65.5 11h-29zM294 -9q-42 0 -81 13t-69.5 37.5t-49 59.5t-18.5 80q0 31 10.5 59.5t30 52.5t47.5 41t63 24v3q-27 7 -50 24t-39.5 40t-26 49.5t-9.5 52.5q0 41 15 74.5t41 57.5
t61 37t74 13t74.5 -13t61.5 -37t41.5 -57.5t15.5 -74.5q0 -26 -8.5 -51t-25 -47t-39.5 -39.5t-53 -27.5v-3q33 -4 61 -19t48 -38t31 -53.5t11 -65.5q0 -45 -18.5 -81t-48.5 -60.5t-69 -37.5t-81 -13z" />
    <glyph glyph-name="nine" unicode="9" horiz-adv-x="546" 
d="M489 451q0 -97 -25.5 -177t-71 -139.5t-107 -96t-133.5 -47.5l-11 23q65 11 120.5 42.5t97 81t67 116.5t31.5 150q-20 -53 -70 -88.5t-125 -35.5q-48 0 -86 17t-65 46.5t-41.5 68t-14.5 81.5q0 47 18 86.5t48 68.5t67.5 45t76.5 16q58 0 100.5 -21t70 -56.5t40.5 -82
t13 -98.5zM459 450q0 43 -11 84.5t-34 74t-59.5 52t-87.5 19.5q-35 0 -68 -14.5t-58.5 -39t-41 -58.5t-15.5 -73q0 -36 11.5 -70t35 -60t58 -42t79.5 -16q42 0 74.5 13t56.5 33.5t39 46t21 50.5z" />
    <glyph glyph-name="colon" unicode=":" horiz-adv-x="324" 
d="M138 436q0 8 7 15t18 7q9 0 16 -7t7 -15q0 -10 -7 -17.5t-16 -7.5q-11 0 -18 7.5t-7 17.5zM138 24q0 8 7 15t18 7q9 0 16 -7t7 -15q0 -10 -7 -17.5t-16 -7.5q-11 0 -18 7.5t-7 17.5z" />
    <glyph glyph-name="semicolon" unicode=";" horiz-adv-x="326" 
d="M138 436q0 8 7 15t18 7q9 0 16 -7t7 -15q0 -10 -7 -17.5t-16 -7.5q-11 0 -18 7.5t-7 17.5zM137 21q0 10 7.5 16.5t19.5 6.5q18 0 33.5 -19.5t15.5 -55.5q0 -47 -26 -77t-61 -39l-7 15q11 3 23 10.5t21.5 19t16.5 26t8 32.5q1 26 -5 38t-13 16q-1 -5 -5 -7.5t-9 -2.5
q-8 0 -13.5 6.5t-5.5 14.5z" />
    <glyph glyph-name="less" unicode="&#x3c;" 
d="M70 356v12l403 256v-31l-363 -231l363 -233v-32z" />
    <glyph glyph-name="equal" unicode="=" 
d="M73 456h440v-26h-440v26zM73 290h440v-26h-440v26z" />
    <glyph glyph-name="greater" unicode="&#x3e;" 
d="M113 97v32l363 233l-363 231v31l403 -256v-12z" />
    <glyph glyph-name="question" unicode="?" horiz-adv-x="455" 
d="M388 535q0 31 -12 57.5t-33.5 46t-52 30.5t-66.5 11q-50 0 -92.5 -23t-73.5 -65l-18 17q27 44 77 72t110 28q46 0 81.5 -13.5t59.5 -37t36.5 -54t12.5 -64.5q0 -47 -15.5 -78.5t-38.5 -54.5t-50.5 -41t-50.5 -38t-38.5 -45t-15.5 -62q0 -20 4 -39l-26 -2q-3 13 -4 24
t-1 22q0 38 15.5 64t38.5 46.5t49.5 38.5t49.5 40t38.5 50t15.5 70zM171 24q0 8 7 15t18 7q9 0 16 -7t7 -15q0 -10 -7 -17.5t-16 -7.5q-11 0 -18 7.5t-7 17.5z" />
    <glyph glyph-name="at" unicode="@" horiz-adv-x="1021" 
d="M674 67q-13 -15 -31 -29t-39.5 -24.5t-45.5 -16.5t-48 -6q-51 0 -92 16.5t-70.5 47t-45.5 74t-16 96.5q0 49 18.5 92t51.5 74.5t78 49.5t97 18q49 0 92.5 -13t78.5 -35v-384h21q47 0 83.5 20t61 53.5t37.5 76.5t13 89q0 79 -30 146.5t-83 116t-126 76t-159 27.5
q-90 0 -166.5 -31.5t-132 -86t-87 -129t-31.5 -160.5q0 -85 31.5 -159t87 -129t132 -87t166.5 -32q57 0 108 12l5 -26q-27 -6 -55.5 -9.5t-57.5 -3.5q-97 0 -178.5 34t-140.5 92.5t-92 137.5t-33 170q0 90 33 169t92 138t140.5 93t178.5 34q91 0 169 -29t135 -81t89 -124
t32 -158q0 -50 -14 -97.5t-42 -85.5t-71 -61t-100 -23h-44v67zM514 18q25 0 50 7.5t46 19.5t38 26t26 28v294q-35 22 -72 30.5t-72 8.5q-45 0 -84 -16t-68 -44t-46 -66t-17 -82q0 -48 14 -86t40.5 -64.5t63 -41t81.5 -14.5z" />
    <glyph glyph-name="A" unicode="A" horiz-adv-x="690" 
d="M334 707h22l308 -707h-32l-113 260h-350l-112 -260h-31zM181 288h326l-163 375z" />
    <glyph glyph-name="B" unicode="B" horiz-adv-x="617" 
d="M116 700q15 0 36.5 0.5t45.5 0.5t49 0.5t46 0.5q63 0 104.5 -13t67 -36.5t36 -55t10.5 -67.5q0 -37 -12.5 -65.5t-33.5 -49.5t-48 -33.5t-56 -17.5v-2q86 -8 132.5 -51.5t46.5 -118.5q0 -52 -19 -88.5t-52 -60t-78 -34.5t-97 -11q-21 0 -46 0.5t-49 0.5t-46 0.5t-37 0.5
v700zM146 346v-318q12 0 30 -0.5t38 -0.5t41 -0.5t39 -0.5q101 0 158.5 41t57.5 127q0 72 -55 112t-159 40h-150zM291 674h-38.5t-40.5 -0.5t-37 -1t-29 -0.5v-299h156q37 0 69.5 10.5t57 30.5t38.5 48t14 64q0 72 -45 110t-145 38z" />
    <glyph glyph-name="C" unicode="C" horiz-adv-x="657" 
d="M619 67q-37 -36 -95.5 -56t-119.5 -20q-77 0 -141 25.5t-109.5 72.5t-71 113t-25.5 148q0 75 24 140.5t68.5 114t106.5 76.5t139 28q66 0 117.5 -15.5t93.5 -49.5l-15 -21q-39 31 -87 44t-108 13q-69 0 -126 -25.5t-97.5 -69.5t-62.5 -104.5t-22 -130.5
q0 -75 23.5 -135.5t65.5 -104t100.5 -67t128.5 -23.5q61 0 112 19t88 51z" />
    <glyph glyph-name="D" unicode="D" horiz-adv-x="735" 
d="M116 700h11q40 0 74.5 1.5t83.5 1.5q105 0 179.5 -28t122 -75t69.5 -109t22 -130q0 -75 -25 -141.5t-75.5 -115.5t-125.5 -77.5t-175 -28.5q-42 0 -77.5 1t-76.5 1h-7v700zM283 675q-23 0 -40.5 -0.5t-33 -1t-30.5 -1t-33 -0.5v-644q24 0 47.5 -0.5t42 -0.5t30 -0.5
t12.5 -0.5q92 0 161.5 26.5t115.5 72t69 106.5t23 130q0 64 -20.5 121t-64.5 100t-113 68t-166 25z" />
    <glyph glyph-name="E" unicode="E" horiz-adv-x="575" 
d="M116 700h380v-28h-350v-302h320v-28h-320v-314h360v-28h-390v700z" />
    <glyph glyph-name="F" unicode="F" horiz-adv-x="544" 
d="M116 700h388v-28h-358v-322h328v-28h-328v-322h-30v700z" />
    <glyph glyph-name="G" unicode="G" horiz-adv-x="727" 
d="M413 324h247v-237q-23 -23 -54.5 -41t-67 -30t-71.5 -18.5t-69 -6.5q-75 0 -138 25.5t-108 72.5t-70 113t-25 148q0 75 24 140.5t68.5 114t106.5 76.5t137 28q67 0 119 -15.5t95 -49.5l-15 -23q-38 32 -87.5 45.5t-107.5 13.5q-70 0 -127 -25.5t-97.5 -69.5t-62.5 -104.5
t-22 -130.5q0 -75 22.5 -135.5t64 -104t99 -67t126.5 -23.5q31 0 64 5.5t63.5 16t57.5 26t46 34.5v194h-218v28z" />
    <glyph glyph-name="H" unicode="H" horiz-adv-x="772" 
d="M627 343h-481v-343h-30v700h30v-329h481v329h29v-700h-29v343z" />
    <glyph glyph-name="I" unicode="I" horiz-adv-x="316" 
d="M143 700h30v-700h-30v700z" />
    <glyph glyph-name="J" unicode="J" horiz-adv-x="350" 
d="M233 150q0 -36 -6 -65t-20.5 -50t-39.5 -32.5t-63 -11.5q-27 0 -50 9t-37 20l12 23q12 -9 31.5 -16t40.5 -7q33 0 53 10.5t31 28.5t15 42.5t4 51.5v547h29v-550z" />
    <glyph glyph-name="K" unicode="K" horiz-adv-x="624" 
d="M233 367l356 -367h-43l-354 365l344 335h41zM116 700h30v-700h-30v700z" />
    <glyph glyph-name="L" unicode="L" horiz-adv-x="554" 
d="M116 700h30v-672h389v-28h-419v700z" />
    <glyph glyph-name="M" unicode="M" horiz-adv-x="877" 
d="M116 700h31l297 -405l288 405h29v-700h-29v655l-287 -404h-5l-294 401v-652h-30v700z" />
    <glyph glyph-name="N" unicode="N" horiz-adv-x="799" 
d="M659 0l-515 646v-646h-28v700h24l514 -648v648h29v-700h-24z" />
    <glyph glyph-name="O" unicode="O" horiz-adv-x="807" 
d="M57 350q0 76 26.5 141.5t73 114t109.5 76t137 27.5q73 0 136.5 -27t110 -75t73 -114t26.5 -143t-26.5 -142.5t-73 -113.5t-110 -75.5t-136.5 -27.5t-136.5 27t-110 75t-73 114t-26.5 143zM88 350q0 -71 24 -131t66.5 -104.5t100 -69.5t124.5 -25q68 0 125.5 25t99.5 69.5
t66 104.5t24 131t-24 131.5t-66.5 104.5t-100 69t-124.5 25t-124.5 -25t-100 -69t-66.5 -104.5t-24 -131.5z" />
    <glyph glyph-name="P" unicode="P" horiz-adv-x="575" 
d="M116 0v700q15 0 36.5 0.5t44.5 0.5t44 0.5t35 0.5q72 0 118.5 -18t73.5 -47.5t38 -66.5t11 -74q0 -39 -13.5 -77t-43 -67t-76.5 -47t-113 -18q-28 0 -60.5 1.5t-64.5 3.5v-292h-30zM279 674h-30.5t-36.5 -0.5t-36.5 -1t-29.5 -0.5v-352q32 -2 61.5 -3.5t61.5 -1.5
q55 0 96 14t68 38.5t40.5 57.5t13.5 72q0 37 -11.5 69.5t-36.5 56.5t-64.5 37.5t-95.5 13.5z" />
    <glyph glyph-name="Q" unicode="Q" horiz-adv-x="807" 
d="M57 350q0 76 26.5 141.5t73 114t109.5 76t137 27.5q73 0 136.5 -27t110 -75t73 -114t26.5 -143q0 -85 -31.5 -155t-86.5 -119l64 -76h-38l-48 58q-43 -32 -95 -49.5t-111 -17.5q-73 0 -136.5 27t-110 75t-73 114t-26.5 143zM88 350q0 -71 24 -131t66.5 -104.5t100 -69.5
t124.5 -25q54 0 101.5 16t85.5 45l-61 75l19 18l64 -76q50 45 78 109.5t28 142.5q0 71 -24 131.5t-66.5 104.5t-100 69t-124.5 25t-124.5 -25t-100 -69t-66.5 -104.5t-24 -131.5z" />
    <glyph glyph-name="R" unicode="R" horiz-adv-x="621" 
d="M116 0v700q15 0 37.5 0.5t45 0.5t41.5 0.5t27 0.5q72 0 118.5 -16.5t74 -43.5t38.5 -62.5t11 -73.5q0 -35 -13 -67t-36 -57.5t-55.5 -44t-72.5 -25.5l254 -312h-37l-249 306h-154v-306h-30zM265 674h-22.5t-32 -0.5l-35 -1t-29.5 -0.5v-338h136q36 0 71 12.5t63 35.5
t45 54.5t17 69.5q0 36 -11 66.5t-36 53t-66 35.5t-100 13z" />
    <glyph glyph-name="S" unicode="S" horiz-adv-x="543" 
d="M455 170q0 55 -28 87.5t-70 54t-91.5 37.5t-91.5 39t-70 58t-28 94q0 36 13 66.5t38.5 53.5t63 36t85.5 13q57 0 106 -19.5t78 -51.5l-17 -21q-32 32 -74.5 47.5t-93.5 15.5q-78 0 -123 -38.5t-45 -101.5q0 -41 16.5 -68t43 -46t60.5 -32.5t69.5 -26.5t69.5 -28t60.5 -37
t43 -53.5t16.5 -77.5q0 -41 -17 -74.5t-46.5 -57t-69.5 -36t-86 -12.5q-30 0 -61.5 7t-60 20t-52 31t-36.5 41l19 20q16 -21 38 -38t47.5 -28.5t52 -17.5t51.5 -6q36 0 70.5 9.5t61 28t42.5 46.5t16 66z" />
    <glyph glyph-name="T" unicode="T" horiz-adv-x="591" 
d="M10 700h571v-28h-271v-672h-29v672h-271v28z" />
    <glyph glyph-name="U" unicode="U" horiz-adv-x="751" 
d="M645 294q0 -80 -21 -137t-57 -93.5t-83 -53.5t-99 -17q-59 0 -110 19.5t-88.5 58t-59 96t-21.5 134.5v399h30v-395q0 -69 18.5 -122t52 -89t79 -54.5t99.5 -18.5q48 0 90 16.5t73 50.5t49 87t18 126v399h30v-406z" />
    <glyph glyph-name="V" unicode="V" horiz-adv-x="656" 
d="M341 -7h-19l-306 707h32l285 -660l276 660h31z" />
    <glyph glyph-name="W" unicode="W" horiz-adv-x="948" 
d="M725 0h-23l-226 647l-220 -647h-23l-216 700h33l197 -641l218 641h24l224 -642l188 642h29z" />
    <glyph glyph-name="X" unicode="X" horiz-adv-x="657" 
d="M348 356l274 -356h-36l-258 333l-257 -333h-36l275 356l-264 344h36l247 -321l248 321h36z" />
    <glyph glyph-name="Y" unicode="Y" horiz-adv-x="567" 
d="M297 311v-311h-29v311l-251 389h35l231 -361l233 361h34z" />
    <glyph glyph-name="Z" unicode="Z" horiz-adv-x="624" 
d="M60 700h514v-16l-491 -656h501v-28h-544v16l490 656h-470v28z" />
    <glyph glyph-name="bracketleft" unicode="[" horiz-adv-x="276" 
d="M60 650h213v-27h-185v-796h185v-27h-213v850z" />
    <glyph glyph-name="backslash" unicode="\" horiz-adv-x="301" 
d="M331 -199l-24 -9l-337 908l23 9z" />
    <glyph glyph-name="bracketright" unicode="]" horiz-adv-x="276" 
d="M216 -200h-213v27h184v796h-184v27h213v-850z" />
    <glyph glyph-name="asciicircum" unicode="^" horiz-adv-x="470" 
d="M227 708h17l171 -258h-32l-147 226l-150 -226h-31z" />
    <glyph glyph-name="underscore" unicode="_" horiz-adv-x="266" 
d="M0 -172h266v-28h-266v28z" />
    <glyph glyph-name="grave" unicode="`" horiz-adv-x="250" 
d="M60 693l21 17l109 -146l-18 -12z" />
    <glyph glyph-name="a" unicode="a" horiz-adv-x="457" 
d="M82 418q32 20 66 30.5t72 10.5q45 0 76 -12t50 -35t27.5 -56t8.5 -75v-281h-28v78q-11 -15 -26 -30t-35.5 -27t-46.5 -19t-59 -7q-63 0 -101.5 35t-38.5 94q0 34 13 59.5t36 42.5t54.5 26t67.5 9q28 0 66 -7t70 -30q0 47 -3 85.5t-16 65.5t-41 42t-77 15q-38 0 -66 -9.5
t-60 -28.5zM193 22q34 0 59 8t44 20.5t33 27.5t25 29v90q-56 40 -134 40q-26 0 -52 -6.5t-46 -20t-32.5 -34.5t-12.5 -50q0 -50 33.5 -77t82.5 -27z" />
    <glyph glyph-name="b" unicode="b" horiz-adv-x="550" 
d="M85 700h29v-316q27 32 74 53.5t96 21.5q51 0 90.5 -17t67.5 -47t42.5 -71.5t14.5 -91.5q0 -56 -18 -100.5t-50 -75.5t-76 -48t-97 -17q-104 0 -173 55v654zM279 432q-27 0 -52.5 -7.5t-47 -18.5t-38.5 -25.5t-27 -27.5v-289q38 -27 73 -36.5t73 -9.5q44 0 82.5 14.5
t66.5 41.5t44 66t16 88q0 46 -13 83.5t-37.5 64.5t-59.5 41.5t-80 14.5z" />
    <glyph glyph-name="c" unicode="c" horiz-adv-x="491" 
d="M453 64q-29 -36 -73.5 -54.5t-92.5 -18.5q-51 0 -94.5 16.5t-74.5 47t-48.5 74t-17.5 96.5q0 49 17 92t46.5 74.5t69.5 49.5t87 18q51 0 95.5 -12.5t76.5 -42.5l-14 -23q-32 28 -71 39.5t-82 11.5q-40 0 -75.5 -16t-62.5 -43.5t-42.5 -65.5t-15.5 -82q0 -48 16 -86
t43.5 -65t65.5 -41.5t83 -14.5q46 0 85.5 18t64.5 47z" />
    <glyph glyph-name="d" unicode="d" horiz-adv-x="553" 
d="M439 71q-27 -32 -70.5 -55.5t-93.5 -23.5q-51 0 -92 16.5t-70 46.5t-45 73t-16 96q0 52 18.5 95t51 74t77 48.5t96.5 17.5q84 0 144 -45v286h28v-700h-28v71zM279 19q25 0 49 7.5t45 19t38 25.5t28 28v287q-39 27 -74 36.5t-70 9.5q-45 0 -84 -15t-68 -42.5t-45.5 -65.5
t-16.5 -84q0 -48 14.5 -86t40.5 -64.5t62.5 -41t80.5 -14.5z" />
    <glyph glyph-name="e" unicode="e" horiz-adv-x="527" 
d="M452 59q-29 -34 -74 -51t-90 -17q-52 0 -95 16.5t-74.5 47t-49 74t-17.5 96.5q0 49 14 92t42 74.5t69.5 49.5t97.5 18q43 0 80 -14.5t64 -41t42 -63.5t15 -83q0 -9 -0.5 -16.5t-1.5 -14.5h-391q1 -97 56.5 -152.5t149.5 -55.5q48 0 87.5 17.5t64.5 44.5zM271 432
q-44 0 -78 -14t-58 -38t-37.5 -57.5t-16.5 -72.5h366q0 42 -12 75.5t-35.5 57.5t-56 36.5t-72.5 12.5z" />
    <glyph glyph-name="f" unicode="f" horiz-adv-x="338" 
d="M103 523q0 94 39 140t114 46q41 0 68 -11.5t44 -25.5l-11 -22q-19 14 -41.5 23t-56.5 9q-63 0 -95.5 -40t-32.5 -128v-64h191v-27h-191v-423h-28v523z" />
    <glyph glyph-name="g" unicode="g" horiz-adv-x="487" 
d="M17 -69q0 53 37.5 86.5t102.5 46.5q-17 19 -17 46q0 30 19 49q-44 19 -69 56t-25 86q0 34 12.5 63t35.5 50t54.5 33t70.5 12q68 0 113 -36l126 35v-27l-103 -28q37 -42 37 -102q0 -34 -12.5 -62.5t-35.5 -49.5t-54.5 -33t-70.5 -12q-33 0 -57 7q-8 -8 -11 -19t-3 -22
q0 -26 18 -42q13 2 26.5 3t27.5 1q49 0 90 -9t70 -27t45.5 -44.5t16.5 -60.5t-16.5 -60t-45.5 -43.5t-70 -26.5t-90 -9t-90 9t-70 26t-45.5 43t-16.5 61zM47 -69q0 -27 14 -47.5t39.5 -35t60.5 -22t78 -7.5t78.5 7.5t60.5 21.5t39 35t14 48t-14 48t-39 36t-60.5 22.5
t-78.5 7.5t-78 -7.5t-60.5 -22.5t-39.5 -36t-14 -48zM95 301q0 -28 10.5 -52t29 -41t45 -27t58.5 -10t58.5 10t45 27t29 41t10.5 52t-10.5 52t-29.5 41.5t-45.5 27.5t-57.5 10q-32 0 -58 -10t-45 -27.5t-29.5 -41.5t-10.5 -52z" />
    <glyph glyph-name="h" unicode="h" horiz-adv-x="553" 
d="M85 700h29v-318q14 16 33.5 30t42.5 24t48 16t49 6q96 0 143 -49t47 -155v-254h-28v248q0 94 -40.5 138.5t-126.5 44.5q-26 0 -51.5 -6.5t-48 -17.5t-40 -25t-28.5 -28v-354h-29v700z" />
    <glyph glyph-name="i" unicode="i" horiz-adv-x="255" 
d="M113 450h28v-450h-28v450zM105 629q0 9 7 15.5t16 6.5q8 0 14.5 -6.5t6.5 -15.5q0 -10 -6.5 -16.5t-14.5 -6.5q-9 0 -16 6.5t-7 16.5z" />
    <glyph glyph-name="j" unicode="j" horiz-adv-x="257" 
d="M143 -33q0 -83 -33 -129t-108 -46q-26 0 -48.5 8t-36.5 18l10 23q12 -8 31 -15t40 -7q63 0 90 38.5t27 110.5v482h28v-483zM106 629q0 9 7 15.5t16 6.5q8 0 14.5 -6.5t6.5 -15.5q0 -10 -6.5 -16.5t-14.5 -6.5q-9 0 -16 6.5t-7 16.5z" />
    <glyph glyph-name="k" unicode="k" horiz-adv-x="457" 
d="M189 237l244 -237h-40l-240 235l223 215h38zM85 700h29v-700h-29v700z" />
    <glyph glyph-name="l" unicode="l" horiz-adv-x="276" 
d="M85 700h29v-566q0 -57 15.5 -84t57.5 -27q21 0 39.5 7t30.5 16l9 -23q-14 -11 -36.5 -19t-50.5 -8q-50 0 -72 28.5t-22 88.5v587z" />
    <glyph glyph-name="m" unicode="m" horiz-adv-x="807" 
d="M731 0h-28v288q0 75 -32.5 109t-95.5 34q-54 0 -93 -24t-62 -60q2 -6 2 -14.5v-16.5v-316h-28v316q0 51 -32.5 83t-95.5 32q-26 0 -49.5 -7t-43 -18t-34.5 -25t-25 -29v-352h-29v450h29v-68q25 34 69 55t91 21q54 0 91.5 -22.5t50.5 -64.5q24 40 70.5 63.5t96.5 23.5
q32 0 59.5 -8t47 -27t30.5 -50t11 -77v-296z" />
    <glyph glyph-name="n" unicode="n" horiz-adv-x="553" 
d="M85 450h29v-68q13 16 32.5 29.5t42.5 24t48 16.5t50 6q96 0 143 -49t47 -155v-254h-28v248q0 94 -40.5 138.5t-126.5 44.5q-26 0 -51.5 -6.5t-47.5 -17.5t-40 -25t-29 -28v-354h-29v450z" />
    <glyph glyph-name="o" unicode="o" horiz-adv-x="569" 
d="M52 225q0 51 17 93.5t48 74t73.5 49t93.5 17.5t94 -17.5t74 -49t48 -74t17 -93.5t-17 -93.5t-48 -74t-74 -49t-94 -17.5t-93.5 17.5t-73.5 49t-48 74t-17 93.5zM81 225q0 -45 15 -83t42 -65.5t64 -43t82 -15.5t82 15.5t64 43t42 65.5t15 83t-15 83t-42 65.5t-64 43
t-82 15.5q-44 0 -81.5 -15.5t-64.5 -43t-42 -65.5t-15 -83z" />
    <glyph glyph-name="p" unicode="p" horiz-adv-x="552" 
d="M85 450h29v-66q13 16 32.5 30t42.5 24t48 15.5t50 5.5q50 0 90 -17t67.5 -47t42 -71.5t14.5 -91.5q0 -51 -16.5 -95.5t-46.5 -76.5t-72 -50.5t-94 -18.5q-46 0 -86.5 11t-71.5 34v-236h-29v650zM281 432q-27 0 -52 -6.5t-47 -17t-39.5 -24.5t-28.5 -28v-290
q39 -28 78.5 -38t78.5 -10q45 0 81.5 15.5t63 43.5t41 66.5t14.5 85.5q0 45 -12.5 82.5t-37 64.5t-60 41.5t-80.5 14.5z" />
    <glyph glyph-name="q" unicode="q" horiz-adv-x="553" 
d="M440 62q-27 -30 -71 -50.5t-91 -20.5q-51 0 -92.5 16.5t-71.5 47t-46 74t-16 96.5q0 49 18.5 92t51.5 74.5t78 49.5t97 18q49 0 92.5 -13t78.5 -35v-611h-28v262zM281 18q25 0 49.5 7t45.5 18t38 24.5t26 26.5v299q-35 22 -72 30.5t-72 8.5q-45 0 -84 -16t-68 -44
t-46 -66t-17 -82q0 -47 14 -85t40.5 -65t63.5 -41.5t82 -14.5z" />
    <glyph glyph-name="r" unicode="r" horiz-adv-x="320" 
d="M85 450h29v-65q20 30 51 51.5t76 21.5q28 0 43.5 -4.5t26.5 -12.5l-9 -27q-17 10 -29.5 13.5t-35.5 3.5q-24 0 -43 -7t-34 -18.5t-26 -25.5t-20 -28v-352h-29v450z" />
    <glyph glyph-name="s" unicode="s" horiz-adv-x="409" 
d="M323 114q0 33 -19 51.5t-47 30.5t-61 21.5t-61 24.5t-47 39t-19 65q0 50 37 81.5t100 31.5q41 0 75.5 -14t53.5 -34l-14 -21q-20 21 -50.5 32t-65.5 11q-50 0 -78.5 -25.5t-28.5 -60.5t19 -55t47 -32.5t61 -22t61 -23.5t47 -36.5t19 -61.5q0 -32 -12 -55.5t-33 -39
t-48.5 -23t-57.5 -7.5q-21 0 -43.5 5t-42.5 14t-35.5 20t-23.5 23l18 18q9 -12 24 -22t32.5 -17t36 -11t35.5 -4q23 0 44.5 6t38.5 18t27.5 30t10.5 43z" />
    <glyph glyph-name="t" unicode="t" horiz-adv-x="344" 
d="M75 575h29v-125h194v-27h-194v-243q0 -78 27 -118t90 -40q23 0 42 7.5t31 16.5l12 -23q-15 -11 -38 -19.5t-52 -8.5q-75 0 -108 44.5t-33 131.5v404z" />
    <glyph glyph-name="u" unicode="u" horiz-adv-x="547" 
d="M462 0h-28v78q-14 -17 -33.5 -32.5t-43 -27.5t-50.5 -19.5t-54 -7.5q-89 0 -133.5 49t-44.5 154v256h29v-249q0 -92 37.5 -137.5t120.5 -45.5q27 0 53.5 8.5t49 21t40.5 28.5t29 31v343h28v-450z" />
    <glyph glyph-name="v" unicode="v" horiz-adv-x="469" 
d="M246 -7h-17l-213 457h33l147 -318q11 -23 21.5 -47.5t21.5 -49.5q10 25 21 51t22 50l140 314h30z" />
    <glyph glyph-name="w" unicode="w" horiz-adv-x="684" 
d="M519 -7h-21l-135 356q-5 14 -10 28.5t-10 29.5q-6 -16 -11 -31t-11 -31l-132 -352h-19l-153 457h31l113 -342q6 -17 11 -33.5t10 -33.5q7 17 12.5 33.5t12.5 33.5l126 342h21l128 -340l26 -70q5 19 11 37.5t12 37.5l106 335h29z" />
    <glyph glyph-name="x" unicode="x" horiz-adv-x="485" 
d="M262 232l187 -232h-35l-172 212l-172 -212h-34l187 231l-177 219h35l161 -200l163 200h34z" />
    <glyph glyph-name="y" unicode="y" horiz-adv-x="472" 
d="M271 0q-25 -60 -46 -99t-40.5 -61.5t-39 -31t-41.5 -8.5q-18 0 -35 5t-35 14l10 22q15 -7 28.5 -11t27.5 -4q38 0 69.5 34.5t64.5 115.5l10 24l-227 450h33l173 -345q19 -36 35 -73q7 19 14 37.5t15 37.5l136 343h32z" />
    <glyph glyph-name="z" unicode="z" horiz-adv-x="478" 
d="M64 450h365v-16l-338 -407h333v-27h-375v16l336 407h-321v27z" />
    <glyph glyph-name="braceleft" unicode="{" horiz-adv-x="294" 
d="M110 114q0 30 -8.5 49t-21.5 30t-29 15t-31 4v26q13 0 29 4.5t29.5 17t22.5 34t9 54.5v179q0 57 23.5 90t85.5 33h55v-27h-50q-47 0 -66.5 -24.5t-19.5 -78.5v-180q0 -49 -20.5 -79t-54.5 -35q32 -4 53.5 -30t21.5 -84v-184q0 -54 23.5 -77.5t68.5 -23.5h44v-27h-52
q-56 0 -84 28.5t-28 91.5v194z" />
    <glyph glyph-name="bar" unicode="|" horiz-adv-x="315" 
d="M143 700h29v-700h-29v700z" />
    <glyph glyph-name="braceright" unicode="}" horiz-adv-x="294" 
d="M184 -80q0 -63 -28 -91.5t-84 -28.5h-52v27h44q45 0 68.5 23.5t23.5 77.5v184q0 58 21.5 84t53.5 30q-34 5 -54.5 35t-20.5 79v180q0 54 -19.5 78.5t-66.5 24.5h-50v27h55q62 0 85.5 -33t23.5 -90v-179q0 -33 9 -54.5t22.5 -34t29 -17t29.5 -4.5v-26q-15 0 -31 -4
t-29 -15t-21.5 -30t-8.5 -49v-194z" />
    <glyph glyph-name="asciitilde" unicode="~" 
d="M63 354q32 30 62 43.5t59 13.5q31 0 59.5 -11.5t57 -25.5t56.5 -25.5t57 -11.5q23 0 46.5 11t48.5 35l14 -20q-55 -52 -110 -52q-30 0 -58.5 11.5t-57 26t-57 26t-57.5 11.5q-52 0 -104 -51z" />
    <glyph glyph-name="uni00A0" unicode="&#xa0;" horiz-adv-x="243" 
 />
    <glyph glyph-name="exclamdown" unicode="&#xa1;" horiz-adv-x="310" 
d="M171 -242h-30v526h30v-526zM180 434q0 -8 -7 -15t-18 -7q-9 0 -16 7t-7 15q0 10 7 17.5t16 7.5q11 0 18 -7.5t7 -17.5z" />
    <glyph glyph-name="cent" unicode="&#xa2;" 
d="M495 64q-28 -35 -71 -53t-89 -20v-111h-28v112q-47 3 -86.5 21t-67.5 48t-43.5 71.5t-15.5 92.5q0 48 16.5 90t45 73.5t67.5 50t84 20.5v109h28v-110q45 -2 83.5 -14.5t67.5 -39.5l-14 -23q-32 28 -71 39.5t-82 11.5q-40 0 -75.5 -16t-62.5 -43.5t-42.5 -65.5t-15.5 -82
q0 -48 16 -86t43.5 -65t65.5 -41.5t83 -14.5q46 0 85.5 18t64.5 47z" />
    <glyph glyph-name="sterling" unicode="&#xa3;" 
d="M85 314h78q-8 22 -17.5 42.5t-18 43t-14.5 50t-6 64.5q0 36 13.5 71t39 62.5t63 44t85.5 16.5q57 0 105.5 -19.5t77.5 -51.5l-16 -21q-32 32 -75.5 48t-93.5 16q-39 0 -70 -14.5t-53 -37.5t-34 -53.5t-12 -61.5q0 -36 6 -62.5t15 -49t18.5 -43t17.5 -44.5h181v-24h-175
q6 -26 6 -57q0 -57 -15.5 -94.5t-35.5 -65.5q15 3 30 3q30 0 58.5 -8t56.5 -18t56 -18t56 -8t55.5 10.5t56.5 38.5l15 -21q-32 -31 -64.5 -43.5t-64.5 -12.5q-29 0 -57.5 8t-56.5 18t-56.5 18t-57.5 8t-58.5 -13t-59.5 -42l-15 22q18 17 36.5 29t35.5 20q26 30 41 70t15 96
q0 17 -2 31.5t-5 28.5h-85v24z" />
    <glyph glyph-name="currency" unicode="&#xa4;" 
d="M72 349q0 42 13.5 80.5t39.5 69.5l-95 96l18 18l95 -95q28 27 66 42.5t85 15.5t84.5 -15.5t66.5 -42.5l101 101l18 -18l-101 -102q26 -31 39.5 -69.5t13.5 -80.5t-13.5 -80.5t-39.5 -69.5l96 -98l-18 -18l-96 97q-28 -27 -66 -42.5t-85 -15.5t-85 15.5t-66 41.5
l-103 -102l-18 18l103 104q-26 31 -39.5 69.5t-13.5 80.5zM99 349q0 -40 13.5 -76.5t38.5 -64.5t61 -44.5t82 -16.5t82 16.5t61 44.5t38.5 64.5t13.5 76.5t-13.5 76.5t-38.5 64t-61 44t-82 16.5q-45 0 -81.5 -16.5t-61.5 -44t-38.5 -64t-13.5 -76.5z" />
    <glyph glyph-name="yen" unicode="&#xa5;" 
d="M73 335h189l-231 365h35l227 -361l228 361h34l-233 -365h190v-25h-205v-138h205v-24h-205v-148h-30v148h-204v24h204v138h-204v25z" />
    <glyph glyph-name="brokenbar" unicode="&#xa6;" horiz-adv-x="315" 
d="M143 440v260h29v-260h-29zM172 260v-260h-29v260h29z" />
    <glyph glyph-name="section" unicode="&#xa7;" horiz-adv-x="524" 
d="M76 249q0 35 11.5 65.5t32 54t49 38.5t62.5 20q-20 8 -38.5 20.5t-33.5 29t-24 38t-9 47.5q0 30 10.5 55.5t30 43.5t46 28.5t59.5 10.5q27 0 47.5 -5.5t35 -14.5t24.5 -19t17 -19l-17 -20q-7 8 -15.5 17t-21 16.5t-30 12.5t-41.5 5q-25 0 -46.5 -9t-37 -24t-24.5 -36
t-9 -45q0 -27 11 -48t28.5 -37t38.5 -27.5t42 -18.5q38 -2 70 -16t55 -38t36 -56t13 -69q0 -35 -11.5 -65t-32 -53.5t-49 -38.5t-62.5 -20q19 -8 37.5 -20.5t33 -29t23.5 -38t9 -46.5q0 -30 -10.5 -55.5t-30 -43.5t-46 -28.5t-59.5 -10.5q-27 0 -47.5 5.5t-35 14.5t-24.5 19
t-17 19l17 20q7 -8 15.5 -17t21 -16.5t30 -12.5t41.5 -5q25 0 46 9t37 24t25 36t9 45q0 26 -11 47t-28 37t-38.5 27t-42.5 18q-38 2 -69.5 16.5t-54 38t-35.5 55.5t-13 69zM104 249q0 -34 13 -62t35 -48.5t50.5 -32t59.5 -11.5q32 0 60.5 11.5t50.5 32t34.5 48.5t12.5 62
t-13 62.5t-34.5 49t-50.5 32t-60 11.5q-32 0 -60.5 -11.5t-50 -32t-34.5 -49t-13 -62.5z" />
    <glyph glyph-name="dieresis" unicode="&#xa8;" horiz-adv-x="374" 
d="M60 626q0 8 6.5 14.5t15.5 6.5q8 0 14 -6.5t6 -14.5q0 -11 -6 -17t-14 -6q-9 0 -15.5 6t-6.5 17zM271 626q0 8 6.5 14.5t15.5 6.5q8 0 14.5 -6.5t6.5 -14.5q0 -11 -6.5 -17t-14.5 -6q-9 0 -15.5 6t-6.5 17z" />
    <glyph glyph-name="copyright" unicode="&#xa9;" horiz-adv-x="1018" 
d="M79 221q0 89 32.5 167.5t90 137t136 92t171.5 33.5t171.5 -33.5t136 -92t90 -137t32.5 -167.5t-32.5 -167.5t-90 -137t-136 -92t-171.5 -33.5t-171.5 33.5t-136 92t-90 137t-32.5 167.5zM104 221q0 -84 30.5 -157.5t84.5 -128.5t128.5 -87t161.5 -32t161.5 32t128.5 87
t84.5 128.5t30.5 157.5t-30.5 157.5t-84.5 128.5t-128.5 87t-161.5 32t-161.5 -32t-128.5 -87t-84.5 -128.5t-30.5 -157.5zM683 64q-29 -36 -73.5 -54.5t-92.5 -18.5q-51 0 -94.5 16.5t-74.5 47t-48.5 74t-17.5 96.5q0 49 17 92t46.5 74.5t69.5 49.5t87 18q51 0 95.5 -12.5
t76.5 -42.5l-14 -23q-32 28 -71 39.5t-82 11.5q-40 0 -75.5 -16t-62.5 -43.5t-42.5 -65.5t-15.5 -82q0 -48 16 -86t43.5 -65t65.5 -41.5t83 -14.5q46 0 85.5 18t64.5 47z" />
    <glyph glyph-name="ordfeminine" unicode="&#xaa;" horiz-adv-x="395" 
d="M90 621q20 17 48.5 27t57.5 10q59 0 90.5 -30.5t31.5 -87.5v-189h-26v54q-16 -22 -44.5 -39.5t-79.5 -17.5q-26 0 -46.5 7.5t-34.5 20.5t-22 30t-8 36q0 47 33 72t90 25q34 0 61.5 -6.5t50.5 -21.5v23q0 51 -26 76t-75 25q-26 0 -45.5 -7.5t-41.5 -23.5zM176 371
q43 0 71.5 17t44.5 36v68q-20 12 -50.5 19.5t-56.5 7.5q-20 0 -38 -5t-32 -14.5t-22.5 -23.5t-8.5 -32q0 -16 7.5 -29.5t20 -23t29.5 -15t35 -5.5z" />
    <glyph glyph-name="guillemotleft" unicode="&#xab;" horiz-adv-x="485" 
d="M216 248v4l176 203l19 -17l-163 -188l161 -189l-18 -18zM56 248v4l176 203l19 -17l-163 -188l161 -189l-18 -18z" />
    <glyph glyph-name="logicalnot" unicode="&#xac;" 
d="M71 373h444v-157h-25v131h-419v26z" />
    <glyph glyph-name="uni00AD" unicode="&#xad;" horiz-adv-x="407" 
d="M93 284h221v-27h-221v27z" />
    <glyph glyph-name="registered" unicode="&#xae;" horiz-adv-x="551" 
d="M57 496q0 45 17 85t47 69.5t70 46.5t85 17t85 -17t69.5 -46.5t46.5 -69.5t17 -85t-17 -85t-46.5 -69.5t-69.5 -46.5t-85 -17t-85 17t-70 46.5t-47 69.5t-17 85zM82 496q0 -40 15.5 -75.5t41.5 -61.5t61.5 -41.5t75.5 -15.5t75.5 15.5t61.5 41.5t41.5 61.5t15.5 75.5
t-15.5 75.5t-41.5 61.5t-61.5 41.5t-75.5 15.5t-75.5 -15.5t-61.5 -41.5t-41.5 -61.5t-15.5 -75.5zM196 360v280h71q29 0 48 -6.5t30 -17.5t15.5 -25.5t4.5 -29.5q0 -27 -18.5 -49t-51.5 -30l97 -122h-28l-94 119h-52v-119h-22zM218 622v-125h54q12 0 25 4.5t23 12.5
t16.5 20t6.5 27q0 29 -20 45t-58 16h-47z" />
    <glyph glyph-name="macron" unicode="&#xaf;" horiz-adv-x="362" 
d="M60 649h242v-25h-242v25z" />
    <glyph glyph-name="degree" unicode="&#xb0;" horiz-adv-x="388" 
d="M57 570q0 28 10.5 53t29.5 43.5t43.5 29t53.5 10.5q28 0 53 -10.5t43.5 -28.5t29 -43t10.5 -53q0 -29 -10.5 -54t-29 -43.5t-43.5 -29.5t-53 -11q-29 0 -53.5 10.5t-43.5 29.5t-29.5 43.5t-10.5 53.5zM83 570q0 -23 9 -43t24 -35t35 -24t43 -9t43 9t35 24t24 35t9 43
t-9 43t-24 35t-35 24t-43 9t-43 -9t-35 -24t-24 -35t-9 -43z" />
    <glyph glyph-name="plusminus" unicode="&#xb1;" 
d="M73 447h206v205h26v-205h208v-26h-208v-153h-26v153h-206v26zM73 206h440v-26h-440v26z" />
    <glyph glyph-name="uni00B2" unicode="&#xb2;" horiz-adv-x="330" 
d="M42 370q25 18 60.5 44t68 56.5t55.5 64t23 67.5q0 32 -20.5 55.5t-65.5 23.5q-14 0 -29.5 -4t-28.5 -12.5t-22.5 -21t-12.5 -30.5l-22 7q3 21 14 36.5t27 26t35.5 16t38.5 5.5q30 0 51 -8.5t35 -22.5t20.5 -32.5t6.5 -38.5q0 -38 -25 -75t-58.5 -67.5t-66.5 -53.5
t-48 -33h218v-23h-254v20z" />
    <glyph glyph-name="uni00B3" unicode="&#xb3;" horiz-adv-x="335" 
d="M160 346q-38 0 -72.5 14.5t-51.5 49.5l17 13q14 -30 44.5 -42.5t61.5 -12.5q47 0 74 22.5t27 56.5q0 32 -26.5 51.5t-64.5 19.5h-38v21h34q15 0 29.5 5.5t25.5 15.5t18 23.5t7 29.5q0 35 -24.5 52t-62.5 17q-40 0 -62.5 -15t-33.5 -37l-15 14q12 28 42 44t72 16
q52 0 81.5 -22.5t29.5 -64.5q0 -27 -18 -51t-52 -34v-1q41 -5 63 -30t22 -56q0 -46 -36.5 -72.5t-90.5 -26.5z" />
    <glyph glyph-name="acute" unicode="&#xb4;" horiz-adv-x="250" 
d="M78 552l-18 12l109 146l21 -17z" />
    <glyph glyph-name="uni00B5" unicode="&#xb5;" horiz-adv-x="549" 
d="M463 0h-28v78q-14 -17 -33.5 -32.5t-43 -27.5t-50.5 -19.5t-54 -7.5q-108 0 -149 70v-261h-29v650h29v-249q0 -92 37.5 -137.5t120.5 -45.5q27 0 53.5 8.5t49 21t40.5 28.5t29 31v343h28v-450z" />
    <glyph glyph-name="uni00B5" unicode="&#x3bc;" horiz-adv-x="549" 
d="M463 0h-28v78q-14 -17 -33.5 -32.5t-43 -27.5t-50.5 -19.5t-54 -7.5q-108 0 -149 70v-261h-29v650h29v-249q0 -92 37.5 -137.5t120.5 -45.5q27 0 53.5 8.5t49 21t40.5 28.5t29 31v343h28v-450z" />
    <glyph glyph-name="paragraph" unicode="&#xb6;" horiz-adv-x="417" 
d="M56 481q0 103 53.5 161t149.5 58h120v-27h-94v-715q0 -38 -6.5 -68.5t-21.5 -52t-40.5 -33.5t-63.5 -12q-28 0 -51.5 9t-37.5 20l13 22q12 -9 32 -16.5t42 -7.5q34 0 54.5 11t32 30t15.5 44t4 53v306q-43 0 -79.5 15t-63.5 43t-42.5 68.5t-15.5 91.5z" />
    <glyph glyph-name="periodcentered" unicode="&#xb7;" horiz-adv-x="243" 
d="M97 295q0 8 7 15t18 7q9 0 16 -7t7 -15q0 -10 -7 -17.5t-16 -7.5q-11 0 -18 7.5t-7 17.5z" />
    <glyph glyph-name="cedilla" unicode="&#xb8;" horiz-adv-x="312" 
d="M70 -161q38 -20 73 -20t58 14.5t23 39.5t-18.5 39.5t-63.5 14.5h-6v73h19v-56q52 -1 74.5 -20.5t22.5 -51.5t-28 -52.5t-78 -20.5q-26 0 -46 6.5t-40 16.5z" />
    <glyph glyph-name="uni00B9" unicode="&#xb9;" horiz-adv-x="228" 
d="M125 703h17v-353h-25v320l-74 -49l-11 19z" />
    <glyph glyph-name="ordmasculine" unicode="&#xba;" horiz-adv-x="442" 
d="M59 502q0 34 12.5 62.5t34 49.5t51 32.5t64.5 11.5q34 0 64 -11.5t51.5 -32.5t34 -49.5t12.5 -62.5q0 -35 -12.5 -63.5t-34 -49.5t-51.5 -32.5t-64 -11.5q-35 0 -64.5 11.5t-51 32.5t-34 49.5t-12.5 63.5zM86 502q0 -30 11.5 -54.5t30 -42t43 -27t50.5 -9.5
q27 0 51.5 9.5t43 27t29.5 42t11 54.5t-11 54t-30 41.5t-43 27t-51 9.5t-51 -9.5t-43 -27t-30 -41.5t-11 -54z" />
    <glyph glyph-name="guillemotright" unicode="&#xbb;" horiz-adv-x="485" 
d="M254 43l-19 18l161 189l-163 188l19 17l176 -203v-4zM94 43l-19 18l161 189l-163 188l19 17l176 -203v-4z" />
    <glyph glyph-name="onequarter" unicode="&#xbc;" horiz-adv-x="643" 
d="M142 703h17v-353h-25v320l-74 -49l-11 19zM584 709l17 -13l-526 -705l-18 14zM535 93h-196v16l189 241h25l-184 -235h166v110h24v-110h64v-22h-64v-93h-24v93z" />
    <glyph glyph-name="onehalf" unicode="&#xbd;" horiz-adv-x="659" 
d="M142 703h17v-353h-25v320l-74 -49l-11 19zM550 709l17 -13l-526 -705l-18 14zM365 20q25 18 60.5 44t68 56.5t55.5 64t23 67.5q0 32 -20.5 55.5t-65.5 23.5q-14 0 -29.5 -4t-28.5 -12.5t-22.5 -21t-12.5 -30.5l-22 7q3 21 14 36.5t27 26t35.5 16t38.5 5.5q30 0 51 -8.5
t35 -22.5t20.5 -32.5t6.5 -38.5q0 -38 -25 -75t-58.5 -67.5t-66.5 -53.5t-48 -33h218v-23h-254v20z" />
    <glyph glyph-name="threequarters" unicode="&#xbe;" horiz-adv-x="679" 
d="M630 709l17 -13l-526 -705l-18 14zM570 93h-196v16l189 241h25l-184 -235h166v110h24v-110h64v-22h-64v-93h-24v93zM161 346q-38 0 -72.5 14.5t-51.5 49.5l17 13q14 -30 44.5 -42.5t61.5 -12.5q47 0 74 22.5t27 56.5q0 32 -26.5 51.5t-64.5 19.5h-38v21h34q15 0 29.5 5.5
t25.5 15.5t18 23.5t7 29.5q0 35 -24.5 52t-62.5 17q-40 0 -62.5 -15t-33.5 -37l-15 14q12 28 42 44t72 16q52 0 81.5 -22.5t29.5 -64.5q0 -27 -18 -51t-52 -34v-1q41 -5 63 -30t22 -56q0 -46 -36.5 -72.5t-90.5 -26.5z" />
    <glyph glyph-name="questiondown" unicode="&#xbf;" horiz-adv-x="455" 
d="M67 -77q0 -31 12 -57.5t33.5 -46t52 -30.5t66.5 -11q50 0 92.5 23t73.5 65l18 -17q-27 -44 -77 -72t-110 -28q-46 0 -81.5 13.5t-59.5 37t-36.5 54t-12.5 64.5q0 46 15.5 78t38.5 55t50.5 41t50.5 38t38.5 45t15.5 62q0 20 -4 39l26 2q3 -13 4 -24t1 -22q0 -38 -15.5 -64
t-38.5 -46.5t-49.5 -38.5t-49.5 -40t-38.5 -50.5t-15.5 -69.5zM284 434q0 -8 -7 -15t-18 -7q-9 0 -16 7t-7 15q0 10 7 17.5t16 7.5q11 0 18 -7.5t7 -17.5z" />
    <glyph glyph-name="Agrave" unicode="&#xc0;" horiz-adv-x="690" 
d="M334 707h22l308 -707h-32l-113 260h-350l-112 -260h-31zM181 288h326l-163 375zM206 829l11 23l165 -94l-10 -18z" />
    <glyph glyph-name="Aacute" unicode="&#xc1;" horiz-adv-x="690" 
d="M334 707h22l308 -707h-32l-113 260h-350l-112 -260h-31zM181 288h326l-163 375zM321 740l-9 18l165 94l11 -23z" />
    <glyph glyph-name="Acircumflex" unicode="&#xc2;" horiz-adv-x="690" 
d="M334 707h22l308 -707h-32l-113 260h-350l-112 -260h-31zM181 288h326l-163 375zM343 851h4l167 -93l-15 -18l-154 85l-155 -85l-13 17z" />
    <glyph glyph-name="Atilde" unicode="&#xc3;" horiz-adv-x="690" 
d="M334 707h22l308 -707h-32l-113 260h-350l-112 -260h-31zM181 288h326l-163 375zM182 790q20 18 40.5 26.5t40.5 8.5q22 0 42.5 -7.5t40 -16.5t39 -16.5t39.5 -7.5q17 0 35.5 7.5t37.5 27.5l11 -19q-21 -23 -42 -32t-43 -9q-21 0 -41 7.5t-40.5 16t-41 16t-41.5 7.5
q-33 0 -66 -27z" />
    <glyph glyph-name="Adieresis" unicode="&#xc4;" horiz-adv-x="690" 
d="M334 707h22l308 -707h-32l-113 260h-350l-112 -260h-31zM181 288h326l-163 375zM205 796q0 10 7 15.5t17 5.5q9 0 16 -5.5t7 -15.5q0 -11 -7 -16.5t-16 -5.5q-10 0 -17 5.5t-7 16.5zM439 796q0 10 7 15.5t17 5.5q8 0 15 -5.5t7 -15.5q0 -11 -7 -16.5t-15 -5.5
q-10 0 -17 5.5t-7 16.5z" />
    <glyph glyph-name="Aring" unicode="&#xc5;" horiz-adv-x="690" 
d="M244 779q0 42 29 61.5t71 19.5t72 -19.5t30 -61.5q0 -37 -24.5 -57.5t-61.5 -24.5l304 -697h-32l-113 260h-350l-112 -260h-31l303 697q-36 4 -60.5 24.5t-24.5 57.5zM181 288h326l-163 375zM267 779q0 -32 22.5 -48t54.5 -16q33 0 56 16t23 48q0 33 -23 47.5t-56 14.5
q-32 0 -54.5 -14.5t-22.5 -47.5z" />
    <glyph glyph-name="AE" unicode="&#xc6;" horiz-adv-x="964" 
d="M504 0v267h-276l-189 -267h-36l501 700h381v-28h-351v-302h321v-28h-321v-314h361v-28h-391zM248 295h256v361z" />
    <glyph glyph-name="Ccedilla" unicode="&#xc7;" horiz-adv-x="657" 
d="M318 -160q19 -10 38 -15.5t36 -5.5q35 0 58 14.5t23 39.5t-18.5 39.5t-63.5 14.5h-6v65q-73 3 -133.5 29.5t-103.5 73t-67 111t-24 144.5q0 75 24 140.5t68.5 114t106.5 76.5t139 28q66 0 117.5 -15.5t93.5 -49.5l-15 -21q-39 31 -87 44t-108 13q-69 0 -126 -25.5
t-97.5 -69.5t-62.5 -104.5t-22 -130.5q0 -75 23.5 -135.5t65.5 -104t100.5 -67t128.5 -23.5q61 0 112 19t88 51l13 -23q-37 -36 -95.5 -56t-119.5 -20v-47q53 -1 75.5 -20.5t22.5 -51.5t-28 -52.5t-77 -20.5q-27 0 -48 6.5t-41 17.5z" />
    <glyph glyph-name="Egrave" unicode="&#xc8;" horiz-adv-x="575" 
d="M116 700h380v-28h-350v-302h320v-28h-320v-314h360v-28h-390v700zM189 829l11 23l165 -94l-10 -18z" />
    <glyph glyph-name="Eacute" unicode="&#xc9;" horiz-adv-x="575" 
d="M116 700h380v-28h-350v-302h320v-28h-320v-314h360v-28h-390v700zM254 740l-9 18l165 94l11 -23z" />
    <glyph glyph-name="Ecircumflex" unicode="&#xca;" horiz-adv-x="575" 
d="M116 700h380v-28h-350v-302h320v-28h-320v-314h360v-28h-390v700zM306 851h4l167 -93l-15 -18l-154 85l-155 -85l-13 17z" />
    <glyph glyph-name="Edieresis" unicode="&#xcb;" horiz-adv-x="575" 
d="M116 700h380v-28h-350v-302h320v-28h-320v-314h360v-28h-390v700zM168 796q0 10 7 15.5t17 5.5q9 0 16 -5.5t7 -15.5q0 -11 -7 -16.5t-16 -5.5q-10 0 -17 5.5t-7 16.5zM402 796q0 10 7 15.5t17 5.5q8 0 15 -5.5t7 -15.5q0 -11 -7 -16.5t-15 -5.5q-10 0 -17 5.5t-7 16.5z
" />
    <glyph glyph-name="Igrave" unicode="&#xcc;" horiz-adv-x="316" 
d="M143 700h30v-700h-30v700zM7 829l11 23l165 -94l-10 -18z" />
    <glyph glyph-name="Iacute" unicode="&#xcd;" horiz-adv-x="316" 
d="M143 700h30v-700h-30v700zM142 740l-9 18l165 94l11 -23z" />
    <glyph glyph-name="Icircumflex" unicode="&#xce;" horiz-adv-x="316" 
d="M143 700h30v-700h-30v700zM156 851h4l167 -93l-15 -18l-154 85l-155 -85l-13 17z" />
    <glyph glyph-name="Idieresis" unicode="&#xcf;" horiz-adv-x="316" 
d="M143 700h30v-700h-30v700zM18 796q0 10 7 15.5t17 5.5q9 0 16 -5.5t7 -15.5q0 -11 -7 -16.5t-16 -5.5q-10 0 -17 5.5t-7 16.5zM252 796q0 10 7 15.5t17 5.5q8 0 15 -5.5t7 -15.5q0 -11 -7 -16.5t-15 -5.5q-10 0 -17 5.5t-7 16.5z" />
    <glyph glyph-name="Eth" unicode="&#xd0;" horiz-adv-x="761" 
d="M10 372h132v328h11q40 0 74.5 1.5t83.5 1.5q105 0 179.5 -28t122 -75t69.5 -109t22 -130q0 -75 -25 -141.5t-75.5 -115.5t-125.5 -77.5t-175 -28.5q-41 0 -77 1t-77 1h-7v345h-132v27zM309 675q-23 0 -40.5 -0.5t-33 -1t-30.5 -1t-33 -0.5v-300h206v-27h-206v-317
q24 0 47.5 -0.5t42 -0.5t30.5 -0.5t13 -0.5q92 0 161 26.5t115 72t69 106.5t23 130q0 64 -20.5 121t-64.5 100t-113 68t-166 25z" />
    <glyph glyph-name="Ntilde" unicode="&#xd1;" horiz-adv-x="799" 
d="M659 0l-515 646v-646h-28v700h24l514 -648v648h29v-700h-24zM241 790q20 18 40.5 26.5t40.5 8.5q22 0 42.5 -7.5t40 -16.5t39 -16.5t39.5 -7.5q17 0 35.5 7.5t37.5 27.5l11 -19q-21 -23 -42 -32t-43 -9q-21 0 -41 7.5t-40.5 16t-41 16t-41.5 7.5q-33 0 -66 -27z" />
    <glyph glyph-name="Ograve" unicode="&#xd2;" horiz-adv-x="807" 
d="M57 350q0 76 26.5 141.5t73 114t109.5 76t137 27.5q73 0 136.5 -27t110 -75t73 -114t26.5 -143t-26.5 -142.5t-73 -113.5t-110 -75.5t-136.5 -27.5t-136.5 27t-110 75t-73 114t-26.5 143zM88 350q0 -71 24 -131t66.5 -104.5t100 -69.5t124.5 -25q68 0 125.5 25t99.5 69.5
t66 104.5t24 131t-24 131.5t-66.5 104.5t-100 69t-124.5 25t-124.5 -25t-100 -69t-66.5 -104.5t-24 -131.5zM309 829l11 23l165 -94l-10 -18z" />
    <glyph glyph-name="Oacute" unicode="&#xd3;" horiz-adv-x="807" 
d="M57 350q0 76 26.5 141.5t73 114t109.5 76t137 27.5q73 0 136.5 -27t110 -75t73 -114t26.5 -143t-26.5 -142.5t-73 -113.5t-110 -75.5t-136.5 -27.5t-136.5 27t-110 75t-73 114t-26.5 143zM88 350q0 -71 24 -131t66.5 -104.5t100 -69.5t124.5 -25q68 0 125.5 25t99.5 69.5
t66 104.5t24 131t-24 131.5t-66.5 104.5t-100 69t-124.5 25t-124.5 -25t-100 -69t-66.5 -104.5t-24 -131.5zM356 740l-9 18l165 94l11 -23z" />
    <glyph glyph-name="Ocircumflex" unicode="&#xd4;" horiz-adv-x="807" 
d="M57 350q0 76 26.5 141.5t73 114t109.5 76t137 27.5q73 0 136.5 -27t110 -75t73 -114t26.5 -143t-26.5 -142.5t-73 -113.5t-110 -75.5t-136.5 -27.5t-136.5 27t-110 75t-73 114t-26.5 143zM88 350q0 -71 24 -131t66.5 -104.5t100 -69.5t124.5 -25q68 0 125.5 25t99.5 69.5
t66 104.5t24 131t-24 131.5t-66.5 104.5t-100 69t-124.5 25t-124.5 -25t-100 -69t-66.5 -104.5t-24 -131.5zM405 851h4l167 -93l-15 -18l-154 85l-155 -85l-13 17z" />
    <glyph glyph-name="Otilde" unicode="&#xd5;" horiz-adv-x="807" 
d="M57 350q0 76 26.5 141.5t73 114t109.5 76t137 27.5q73 0 136.5 -27t110 -75t73 -114t26.5 -143t-26.5 -142.5t-73 -113.5t-110 -75.5t-136.5 -27.5t-136.5 27t-110 75t-73 114t-26.5 143zM88 350q0 -71 24 -131t66.5 -104.5t100 -69.5t124.5 -25q68 0 125.5 25t99.5 69.5
t66 104.5t24 131t-24 131.5t-66.5 104.5t-100 69t-124.5 25t-124.5 -25t-100 -69t-66.5 -104.5t-24 -131.5zM243 790q20 18 40.5 26.5t40.5 8.5q22 0 42.5 -7.5t40 -16.5t39 -16.5t39.5 -7.5q17 0 35.5 7.5t37.5 27.5l11 -19q-21 -23 -42 -32t-43 -9q-21 0 -41 7.5t-40.5 16
t-41 16t-41.5 7.5q-33 0 -66 -27z" />
    <glyph glyph-name="Odieresis" unicode="&#xd6;" horiz-adv-x="807" 
d="M57 350q0 76 26.5 141.5t73 114t109.5 76t137 27.5q73 0 136.5 -27t110 -75t73 -114t26.5 -143t-26.5 -142.5t-73 -113.5t-110 -75.5t-136.5 -27.5t-136.5 27t-110 75t-73 114t-26.5 143zM88 350q0 -71 24 -131t66.5 -104.5t100 -69.5t124.5 -25q68 0 125.5 25t99.5 69.5
t66 104.5t24 131t-24 131.5t-66.5 104.5t-100 69t-124.5 25t-124.5 -25t-100 -69t-66.5 -104.5t-24 -131.5zM265 796q0 10 7 15.5t17 5.5q9 0 16 -5.5t7 -15.5q0 -11 -7 -16.5t-16 -5.5q-10 0 -17 5.5t-7 16.5zM499 796q0 10 7 15.5t17 5.5q8 0 15 -5.5t7 -15.5
q0 -11 -7 -16.5t-15 -5.5q-10 0 -17 5.5t-7 16.5z" />
    <glyph glyph-name="multiply" unicode="&#xd7;" 
d="M148 524l145 -146l145 146l18 -18l-145 -146l147 -146l-18 -18l-147 146l-147 -146l-18 18l147 146l-145 146z" />
    <glyph glyph-name="Oslash" unicode="&#xd8;" horiz-adv-x="807" 
d="M57 350q0 76 26.5 141.5t73 114t109.5 76t137 27.5q73 0 135 -26.5t109 -73.5l51 50l18 -17l-52 -51q40 -48 62.5 -109t22.5 -132q0 -77 -26.5 -142.5t-73 -113.5t-110 -75.5t-136.5 -27.5q-74 0 -137 27.5t-110 75.5l-50 -48l-18 19l50 49q-38 47 -59.5 107t-21.5 129z
M718 350q0 65 -20 120.5t-56 99.5l-464 -454q42 -45 99.5 -70.5t125.5 -25.5t125.5 25t99.5 69.5t66 104.5t24 131zM88 350q0 -63 19 -117.5t53 -97.5l465 453q-42 43 -99 67.5t-123 24.5q-67 0 -124.5 -25t-100 -69t-66.5 -104.5t-24 -131.5z" />
    <glyph glyph-name="Ugrave" unicode="&#xd9;" horiz-adv-x="751" 
d="M645 294q0 -80 -21 -137t-57 -93.5t-83 -53.5t-99 -17q-59 0 -110 19.5t-88.5 58t-59 96t-21.5 134.5v399h30v-395q0 -69 18.5 -122t52 -89t79 -54.5t99.5 -18.5q48 0 90 16.5t73 50.5t49 87t18 126v399h30v-406zM268 829l11 23l165 -94l-10 -18z" />
    <glyph glyph-name="Uacute" unicode="&#xda;" horiz-adv-x="751" 
d="M645 294q0 -80 -21 -137t-57 -93.5t-83 -53.5t-99 -17q-59 0 -110 19.5t-88.5 58t-59 96t-21.5 134.5v399h30v-395q0 -69 18.5 -122t52 -89t79 -54.5t99.5 -18.5q48 0 90 16.5t73 50.5t49 87t18 126v399h30v-406zM325 740l-9 18l165 94l11 -23z" />
    <glyph glyph-name="Ucircumflex" unicode="&#xdb;" horiz-adv-x="751" 
d="M645 294q0 -80 -21 -137t-57 -93.5t-83 -53.5t-99 -17q-59 0 -110 19.5t-88.5 58t-59 96t-21.5 134.5v399h30v-395q0 -69 18.5 -122t52 -89t79 -54.5t99.5 -18.5q48 0 90 16.5t73 50.5t49 87t18 126v399h30v-406zM373 851h4l167 -93l-15 -18l-154 85l-155 -85l-13 17z
" />
    <glyph glyph-name="Udieresis" unicode="&#xdc;" horiz-adv-x="751" 
d="M645 294q0 -80 -21 -137t-57 -93.5t-83 -53.5t-99 -17q-59 0 -110 19.5t-88.5 58t-59 96t-21.5 134.5v399h30v-395q0 -69 18.5 -122t52 -89t79 -54.5t99.5 -18.5q48 0 90 16.5t73 50.5t49 87t18 126v399h30v-406zM233 796q0 10 7 15.5t17 5.5q9 0 16 -5.5t7 -15.5
q0 -11 -7 -16.5t-16 -5.5q-10 0 -17 5.5t-7 16.5zM467 796q0 10 7 15.5t17 5.5q8 0 15 -5.5t7 -15.5q0 -11 -7 -16.5t-15 -5.5q-10 0 -17 5.5t-7 16.5z" />
    <glyph glyph-name="Yacute" unicode="&#xdd;" horiz-adv-x="567" 
d="M297 311v-311h-29v311l-251 389h35l231 -361l233 361h34zM240 740l-9 18l165 94l11 -23z" />
    <glyph glyph-name="Thorn" unicode="&#xde;" horiz-adv-x="575" 
d="M116 0v700h30v-109q14 0 32 0.5t36.5 0.5t35 0.5t26.5 0.5q72 0 118.5 -18t73.5 -47t38 -66t11 -75q0 -39 -13.5 -77t-43 -67t-76.5 -47t-113 -18q-28 0 -60.5 1.5t-64.5 3.5v-183h-30zM277 565h-30t-36.5 -0.5t-36 -1t-28.5 -0.5v-351q32 -2 61.5 -3.5t61.5 -1.5
q55 0 96 14t68 38.5t40.5 57.5t13.5 71q0 37 -11.5 69.5t-36.5 56.5t-65 37.5t-97 13.5z" />
    <glyph glyph-name="germandbls" unicode="&#xdf;" horiz-adv-x="539" 
d="M454 144q0 34 -15.5 58t-39.5 43t-51 35t-51 33.5t-39.5 39.5t-15.5 53q0 33 17.5 55t38.5 41t38.5 40t17.5 53q0 19 -8.5 35.5t-23 27.5t-33 17.5t-38.5 6.5q-66 0 -97.5 -40.5t-31.5 -131.5v-513h-29v522q0 97 41 143.5t120 46.5q27 0 51 -8t41.5 -23t27.5 -35t10 -44
q0 -36 -17.5 -59.5t-39 -43t-39 -38.5t-17.5 -47q0 -30 16 -50.5t39.5 -37t51 -32t51 -35t39.5 -46t16 -65.5q0 -34 -11.5 -62.5t-31.5 -48.5t-47 -31.5t-57 -11.5q-26 0 -48 7t-39 17.5t-30 24t-21 26.5l13 20q7 -10 18.5 -22t26.5 -22t33.5 -17t41.5 -7t45 9t39 25.5
t27.5 39.5t10.5 52z" />
    <glyph glyph-name="agrave" unicode="&#xe0;" horiz-adv-x="457" 
d="M82 418q32 20 66 30.5t72 10.5q45 0 76 -12t50 -35t27.5 -56t8.5 -75v-281h-28v78q-11 -15 -26 -30t-35.5 -27t-46.5 -19t-59 -7q-63 0 -101.5 35t-38.5 94q0 34 13 59.5t36 42.5t54.5 26t67.5 9q28 0 66 -7t70 -30q0 47 -3 85.5t-16 65.5t-41 42t-77 15q-38 0 -66 -9.5
t-60 -28.5zM193 22q34 0 59 8t44 20.5t33 27.5t25 29v90q-56 40 -134 40q-26 0 -52 -6.5t-46 -20t-32.5 -34.5t-12.5 -50q0 -50 33.5 -77t82.5 -27zM145 693l21 17l109 -146l-18 -12z" />
    <glyph glyph-name="aacute" unicode="&#xe1;" horiz-adv-x="457" 
d="M82 418q32 20 66 30.5t72 10.5q45 0 76 -12t50 -35t27.5 -56t8.5 -75v-281h-28v78q-11 -15 -26 -30t-35.5 -27t-46.5 -19t-59 -7q-63 0 -101.5 35t-38.5 94q0 34 13 59.5t36 42.5t54.5 26t67.5 9q28 0 66 -7t70 -30q0 47 -3 85.5t-16 65.5t-41 42t-77 15q-38 0 -66 -9.5
t-60 -28.5zM193 22q34 0 59 8t44 20.5t33 27.5t25 29v90q-56 40 -134 40q-26 0 -52 -6.5t-46 -20t-32.5 -34.5t-12.5 -50q0 -50 33.5 -77t82.5 -27zM202 552l-18 12l109 146l21 -17z" />
    <glyph glyph-name="acircumflex" unicode="&#xe2;" horiz-adv-x="457" 
d="M82 418q32 20 66 30.5t72 10.5q45 0 76 -12t50 -35t27.5 -56t8.5 -75v-281h-28v78q-11 -15 -26 -30t-35.5 -27t-46.5 -19t-59 -7q-63 0 -101.5 35t-38.5 94q0 34 13 59.5t36 42.5t54.5 26t67.5 9q28 0 66 -7t70 -30q0 47 -3 85.5t-16 65.5t-41 42t-77 15q-38 0 -66 -9.5
t-60 -28.5zM193 22q34 0 59 8t44 20.5t33 27.5t25 29v90q-56 40 -134 40q-26 0 -52 -6.5t-46 -20t-32.5 -34.5t-12.5 -50q0 -50 33.5 -77t82.5 -27zM351 577l-15 -18l-107 114l-108 -113l-16 17l122 131h4z" />
    <glyph glyph-name="atilde" unicode="&#xe3;" horiz-adv-x="457" 
d="M82 418q32 20 66 30.5t72 10.5q45 0 76 -12t50 -35t27.5 -56t8.5 -75v-281h-28v78q-11 -15 -26 -30t-35.5 -27t-46.5 -19t-59 -7q-63 0 -101.5 35t-38.5 94q0 34 13 59.5t36 42.5t54.5 26t67.5 9q28 0 66 -7t70 -30q0 47 -3 85.5t-16 65.5t-41 42t-77 15q-38 0 -66 -9.5
t-60 -28.5zM193 22q34 0 59 8t44 20.5t33 27.5t25 29v90q-56 40 -134 40q-26 0 -52 -6.5t-46 -20t-32.5 -34.5t-12.5 -50q0 -50 33.5 -77t82.5 -27zM83 601q29 26 51.5 36t41.5 10q18 0 31.5 -7.5t25.5 -16.5t24.5 -16.5t27.5 -7.5q16 0 33.5 9t42.5 32l12 -16
q-28 -27 -50.5 -38t-40.5 -11q-17 0 -29.5 7.5t-25 16t-25.5 16t-30 7.5q-15 0 -33.5 -8t-42.5 -28z" />
    <glyph glyph-name="adieresis" unicode="&#xe4;" horiz-adv-x="457" 
d="M82 418q32 20 66 30.5t72 10.5q45 0 76 -12t50 -35t27.5 -56t8.5 -75v-281h-28v78q-11 -15 -26 -30t-35.5 -27t-46.5 -19t-59 -7q-63 0 -101.5 35t-38.5 94q0 34 13 59.5t36 42.5t54.5 26t67.5 9q28 0 66 -7t70 -30q0 47 -3 85.5t-16 65.5t-41 42t-77 15q-38 0 -66 -9.5
t-60 -28.5zM193 22q34 0 59 8t44 20.5t33 27.5t25 29v90q-56 40 -134 40q-26 0 -52 -6.5t-46 -20t-32.5 -34.5t-12.5 -50q0 -50 33.5 -77t82.5 -27zM95 626q0 8 6.5 14.5t15.5 6.5q8 0 14 -6.5t6 -14.5q0 -11 -6 -17t-14 -6q-9 0 -15.5 6t-6.5 17zM306 626q0 8 6.5 14.5
t15.5 6.5q8 0 14.5 -6.5t6.5 -14.5q0 -11 -6.5 -17t-14.5 -6q-9 0 -15.5 6t-6.5 17z" />
    <glyph glyph-name="aring" unicode="&#xe5;" horiz-adv-x="457" 
d="M82 418q32 20 66 30.5t72 10.5q45 0 76 -12t50 -35t27.5 -56t8.5 -75v-281h-28v78q-11 -15 -26 -30t-35.5 -27t-46.5 -19t-59 -7q-63 0 -101.5 35t-38.5 94q0 34 13 59.5t36 42.5t54.5 26t67.5 9q28 0 66 -7t70 -30q0 47 -3 85.5t-16 65.5t-41 42t-77 15q-38 0 -66 -9.5
t-60 -28.5zM193 22q34 0 59 8t44 20.5t33 27.5t25 29v90q-56 40 -134 40q-26 0 -52 -6.5t-46 -20t-32.5 -34.5t-12.5 -50q0 -50 33.5 -77t82.5 -27zM124 614q0 41 28 69.5t70 28.5t70.5 -28.5t28.5 -69.5q0 -20 -7.5 -37.5t-21 -30.5t-31.5 -20.5t-39 -7.5t-38.5 7.5
t-31 20.5t-21 30.5t-7.5 37.5zM145 615q0 -33 22 -55.5t55 -22.5q32 0 55 22.5t23 55.5q0 32 -23 55t-55 23q-33 0 -55 -23t-22 -55z" />
    <glyph glyph-name="ae" unicode="&#xe6;" horiz-adv-x="801" 
d="M220 459q62 0 97.5 -22t50.5 -64q28 39 72.5 62.5t107.5 23.5q43 0 80 -14.5t64 -41t42.5 -63.5t15.5 -83q0 -9 -0.5 -16.5t-1.5 -14.5h-366v-113q26 -45 72 -70t109 -25q47 0 87 17.5t65 44.5l10 -21q-29 -34 -74 -51t-90 -17q-63 0 -112 23.5t-81 66.5
q-34 -40 -75.5 -63t-101.5 -23q-66 0 -105 35t-39 94q0 34 13 59.5t36 42.5t54.5 26t67.5 9q14 0 33 -1t38.5 -2.5t36.5 -3.5t28 -4q2 45 -3 79t-21 57t-43.5 34.5t-69.5 11.5q-38 0 -66 -9.5t-60 -28.5l-9 24q32 20 66 30.5t72 10.5zM382 250h339q0 85 -48 133.5t-129 48.5
q-60 0 -102 -25.5t-65 -68.5q2 -14 3.5 -28t1.5 -29v-31zM193 22q34 0 59 8t44 20.5t33 27.5t25 29v118q-36 5 -66 8.5t-68 3.5q-26 0 -52 -6.5t-46 -20t-32.5 -34.5t-12.5 -50q0 -50 33.5 -77t82.5 -27z" />
    <glyph glyph-name="ccedilla" unicode="&#xe7;" horiz-adv-x="491" 
d="M199 -161q38 -20 73 -20t58 14.5t23 39.5t-18.5 39.5t-63.5 14.5h-6v65q-47 3 -86.5 21t-67.5 48t-43.5 71.5t-15.5 92.5q0 49 17 92t46.5 74.5t69.5 49.5t87 18q51 0 95.5 -12.5t76.5 -42.5l-14 -23q-32 28 -71 39.5t-82 11.5q-40 0 -75.5 -16t-62.5 -43.5t-42.5 -65.5
t-15.5 -82q0 -48 16 -86t43.5 -65t65.5 -41.5t83 -14.5q46 0 85.5 18t64.5 47l14 -19q-29 -36 -73.5 -54.5t-92.5 -18.5h-3v-47q52 -1 74.5 -20.5t22.5 -51.5t-28 -52.5t-78 -20.5q-26 0 -46 6.5t-40 16.5z" />
    <glyph glyph-name="egrave" unicode="&#xe8;" horiz-adv-x="527" 
d="M452 59q-29 -34 -74 -51t-90 -17q-52 0 -95 16.5t-74.5 47t-49 74t-17.5 96.5q0 49 14 92t42 74.5t69.5 49.5t97.5 18q43 0 80 -14.5t64 -41t42 -63.5t15 -83q0 -9 -0.5 -16.5t-1.5 -14.5h-391q1 -97 56.5 -152.5t149.5 -55.5q48 0 87.5 17.5t64.5 44.5zM271 432
q-44 0 -78 -14t-58 -38t-37.5 -57.5t-16.5 -72.5h366q0 42 -12 75.5t-35.5 57.5t-56 36.5t-72.5 12.5zM174 693l21 17l109 -146l-18 -12z" />
    <glyph glyph-name="eacute" unicode="&#xe9;" horiz-adv-x="527" 
d="M452 59q-29 -34 -74 -51t-90 -17q-52 0 -95 16.5t-74.5 47t-49 74t-17.5 96.5q0 49 14 92t42 74.5t69.5 49.5t97.5 18q43 0 80 -14.5t64 -41t42 -63.5t15 -83q0 -9 -0.5 -16.5t-1.5 -14.5h-391q1 -97 56.5 -152.5t149.5 -55.5q48 0 87.5 17.5t64.5 44.5zM271 432
q-44 0 -78 -14t-58 -38t-37.5 -57.5t-16.5 -72.5h366q0 42 -12 75.5t-35.5 57.5t-56 36.5t-72.5 12.5zM265 552l-18 12l109 146l21 -17z" />
    <glyph glyph-name="ecircumflex" unicode="&#xea;" horiz-adv-x="527" 
d="M452 59q-29 -34 -74 -51t-90 -17q-52 0 -95 16.5t-74.5 47t-49 74t-17.5 96.5q0 49 14 92t42 74.5t69.5 49.5t97.5 18q43 0 80 -14.5t64 -41t42 -63.5t15 -83q0 -9 -0.5 -16.5t-1.5 -14.5h-391q1 -97 56.5 -152.5t149.5 -55.5q48 0 87.5 17.5t64.5 44.5zM271 432
q-44 0 -78 -14t-58 -38t-37.5 -57.5t-16.5 -72.5h366q0 42 -12 75.5t-35.5 57.5t-56 36.5t-72.5 12.5zM396 577l-15 -18l-107 114l-108 -113l-16 17l122 131h4z" />
    <glyph glyph-name="edieresis" unicode="&#xeb;" horiz-adv-x="527" 
d="M452 59q-29 -34 -74 -51t-90 -17q-52 0 -95 16.5t-74.5 47t-49 74t-17.5 96.5q0 49 14 92t42 74.5t69.5 49.5t97.5 18q43 0 80 -14.5t64 -41t42 -63.5t15 -83q0 -9 -0.5 -16.5t-1.5 -14.5h-391q1 -97 56.5 -152.5t149.5 -55.5q48 0 87.5 17.5t64.5 44.5zM271 432
q-44 0 -78 -14t-58 -38t-37.5 -57.5t-16.5 -72.5h366q0 42 -12 75.5t-35.5 57.5t-56 36.5t-72.5 12.5zM138 626q0 8 6.5 14.5t15.5 6.5q8 0 14 -6.5t6 -14.5q0 -11 -6 -17t-14 -6q-9 0 -15.5 6t-6.5 17zM349 626q0 8 6.5 14.5t15.5 6.5q8 0 14.5 -6.5t6.5 -14.5
q0 -11 -6.5 -17t-14.5 -6q-9 0 -15.5 6t-6.5 17z" />
    <glyph glyph-name="igrave" unicode="&#xec;" horiz-adv-x="255" 
d="M113 450h28v-450h-28v450zM22 693l21 17l109 -146l-18 -12z" />
    <glyph glyph-name="iacute" unicode="&#xed;" horiz-adv-x="255" 
d="M113 450h28v-450h-28v450zM118 552l-18 12l109 146l21 -17z" />
    <glyph glyph-name="icircumflex" unicode="&#xee;" horiz-adv-x="255" 
d="M113 450h28v-450h-28v450zM251 577l-15 -18l-107 114l-108 -113l-16 17l122 131h4z" />
    <glyph glyph-name="idieresis" unicode="&#xef;" horiz-adv-x="255" 
d="M113 450h28v-450h-28v450zM1 626q0 8 6.5 14.5t15.5 6.5q8 0 14 -6.5t6 -14.5q0 -11 -6 -17t-14 -6q-9 0 -15.5 6t-6.5 17zM212 626q0 8 6.5 14.5t15.5 6.5q8 0 14.5 -6.5t6.5 -14.5q0 -11 -6.5 -17t-14.5 -6q-9 0 -15.5 6t-6.5 17z" />
    <glyph glyph-name="eth" unicode="&#xf0;" horiz-adv-x="569" 
d="M198 566l113 60q-28 24 -58.5 42t-62.5 31l31 10q32 -14 60 -31.5t54 -38.5l104 55l10 -24l-93 -50q77 -71 119 -166t42 -198q0 -61 -17 -110t-48 -83.5t-74 -53t-94 -18.5t-93.5 17.5t-73.5 49t-48 74t-17 93.5t17 93.5t48 74t73.5 49t93.5 17.5q66 0 117 -34t78 -94
q-12 83 -51 153.5t-96 123.5l-124 -66zM81 225q0 -45 15 -83t42 -65.5t64 -43t82 -15.5t82.5 17t64.5 48t42 75.5t14 100.5q-4 31 -19.5 61.5t-41.5 55.5t-62 40.5t-80 15.5t-81.5 -15.5t-64.5 -43t-42 -65.5t-15 -83z" />
    <glyph glyph-name="ntilde" unicode="&#xf1;" horiz-adv-x="553" 
d="M85 450h29v-68q13 16 32.5 29.5t42.5 24t48 16.5t50 6q96 0 143 -49t47 -155v-254h-28v248q0 94 -40.5 138.5t-126.5 44.5q-26 0 -51.5 -6.5t-47.5 -17.5t-40 -25t-29 -28v-354h-29v450zM130 601q29 26 51.5 36t41.5 10q18 0 31.5 -7.5t25.5 -16.5t24.5 -16.5t27.5 -7.5
q16 0 33.5 9t42.5 32l12 -16q-28 -27 -50.5 -38t-40.5 -11q-17 0 -29.5 7.5t-25 16t-25.5 16t-30 7.5q-15 0 -33.5 -8t-42.5 -28z" />
    <glyph glyph-name="ograve" unicode="&#xf2;" horiz-adv-x="569" 
d="M52 225q0 51 17 93.5t48 74t73.5 49t93.5 17.5t94 -17.5t74 -49t48 -74t17 -93.5t-17 -93.5t-48 -74t-74 -49t-94 -17.5t-93.5 17.5t-73.5 49t-48 74t-17 93.5zM81 225q0 -45 15 -83t42 -65.5t64 -43t82 -15.5t82 15.5t64 43t42 65.5t15 83t-15 83t-42 65.5t-64 43
t-82 15.5q-44 0 -81.5 -15.5t-64.5 -43t-42 -65.5t-15 -83zM190 693l21 17l109 -146l-18 -12z" />
    <glyph glyph-name="oacute" unicode="&#xf3;" horiz-adv-x="569" 
d="M52 225q0 51 17 93.5t48 74t73.5 49t93.5 17.5t94 -17.5t74 -49t48 -74t17 -93.5t-17 -93.5t-48 -74t-74 -49t-94 -17.5t-93.5 17.5t-73.5 49t-48 74t-17 93.5zM81 225q0 -45 15 -83t42 -65.5t64 -43t82 -15.5t82 15.5t64 43t42 65.5t15 83t-15 83t-42 65.5t-64 43
t-82 15.5q-44 0 -81.5 -15.5t-64.5 -43t-42 -65.5t-15 -83zM267 552l-18 12l109 146l21 -17z" />
    <glyph glyph-name="ocircumflex" unicode="&#xf4;" horiz-adv-x="569" 
d="M52 225q0 51 17 93.5t48 74t73.5 49t93.5 17.5t94 -17.5t74 -49t48 -74t17 -93.5t-17 -93.5t-48 -74t-74 -49t-94 -17.5t-93.5 17.5t-73.5 49t-48 74t-17 93.5zM81 225q0 -45 15 -83t42 -65.5t64 -43t82 -15.5t82 15.5t64 43t42 65.5t15 83t-15 83t-42 65.5t-64 43
t-82 15.5q-44 0 -81.5 -15.5t-64.5 -43t-42 -65.5t-15 -83zM406 577l-15 -18l-107 114l-108 -113l-16 17l122 131h4z" />
    <glyph glyph-name="otilde" unicode="&#xf5;" horiz-adv-x="569" 
d="M52 225q0 51 17 93.5t48 74t73.5 49t93.5 17.5t94 -17.5t74 -49t48 -74t17 -93.5t-17 -93.5t-48 -74t-74 -49t-94 -17.5t-93.5 17.5t-73.5 49t-48 74t-17 93.5zM81 225q0 -45 15 -83t42 -65.5t64 -43t82 -15.5t82 15.5t64 43t42 65.5t15 83t-15 83t-42 65.5t-64 43
t-82 15.5q-44 0 -81.5 -15.5t-64.5 -43t-42 -65.5t-15 -83zM138 601q29 26 51.5 36t41.5 10q18 0 31.5 -7.5t25.5 -16.5t24.5 -16.5t27.5 -7.5q16 0 33.5 9t42.5 32l12 -16q-28 -27 -50.5 -38t-40.5 -11q-17 0 -29.5 7.5t-25 16t-25.5 16t-30 7.5q-15 0 -33.5 -8t-42.5 -28z
" />
    <glyph glyph-name="odieresis" unicode="&#xf6;" horiz-adv-x="569" 
d="M52 225q0 51 17 93.5t48 74t73.5 49t93.5 17.5t94 -17.5t74 -49t48 -74t17 -93.5t-17 -93.5t-48 -74t-74 -49t-94 -17.5t-93.5 17.5t-73.5 49t-48 74t-17 93.5zM81 225q0 -45 15 -83t42 -65.5t64 -43t82 -15.5t82 15.5t64 43t42 65.5t15 83t-15 83t-42 65.5t-64 43
t-82 15.5q-44 0 -81.5 -15.5t-64.5 -43t-42 -65.5t-15 -83zM159 626q0 8 6.5 14.5t15.5 6.5q8 0 14 -6.5t6 -14.5q0 -11 -6 -17t-14 -6q-9 0 -15.5 6t-6.5 17zM370 626q0 8 6.5 14.5t15.5 6.5q8 0 14.5 -6.5t6.5 -14.5q0 -11 -6.5 -17t-14.5 -6q-9 0 -15.5 6t-6.5 17z" />
    <glyph glyph-name="divide" unicode="&#xf7;" 
d="M271 575q0 8 6 14.5t17 6.5q9 0 15 -6.5t6 -14.5q0 -9 -6 -16t-15 -7q-11 0 -17 7t-6 16zM271 146q0 8 6 14.5t17 6.5q9 0 15 -6.5t6 -14.5q0 -9 -6 -16t-15 -7q-11 0 -17 7t-6 16zM73 373h440v-26h-440v26z" />
    <glyph glyph-name="oslash" unicode="&#xf8;" horiz-adv-x="569" 
d="M52 225q0 51 17 93.5t48 74t73.5 49t93.5 17.5q50 0 91.5 -17t72.5 -46l55 55l16 -18l-55 -55q25 -30 39 -69t14 -84q0 -51 -17 -93.5t-48 -74t-74 -49t-94 -17.5q-45 0 -84 13.5t-68 39.5l-57 -57l-17 19l55 55q-29 31 -45 72.5t-16 91.5zM81 225q0 -44 13.5 -80.5
t38.5 -63.5l295 295q-27 26 -63.5 41t-80.5 15t-81.5 -15.5t-64.5 -43t-42 -65.5t-15 -83zM487 225q0 39 -11.5 72.5t-31.5 59.5l-293 -294q54 -45 133 -45q45 0 82 15.5t64 43t42 65.5t15 83z" />
    <glyph glyph-name="ugrave" unicode="&#xf9;" horiz-adv-x="547" 
d="M462 0h-28v78q-14 -17 -33.5 -32.5t-43 -27.5t-50.5 -19.5t-54 -7.5q-89 0 -133.5 49t-44.5 154v256h29v-249q0 -92 37.5 -137.5t120.5 -45.5q27 0 53.5 8.5t49 21t40.5 28.5t29 31v343h28v-450zM179 693l21 17l109 -146l-18 -12z" />
    <glyph glyph-name="uacute" unicode="&#xfa;" horiz-adv-x="547" 
d="M462 0h-28v78q-14 -17 -33.5 -32.5t-43 -27.5t-50.5 -19.5t-54 -7.5q-89 0 -133.5 49t-44.5 154v256h29v-249q0 -92 37.5 -137.5t120.5 -45.5q27 0 53.5 8.5t49 21t40.5 28.5t29 31v343h28v-450zM257 552l-18 12l109 146l21 -17z" />
    <glyph glyph-name="ucircumflex" unicode="&#xfb;" horiz-adv-x="547" 
d="M462 0h-28v78q-14 -17 -33.5 -32.5t-43 -27.5t-50.5 -19.5t-54 -7.5q-89 0 -133.5 49t-44.5 154v256h29v-249q0 -92 37.5 -137.5t120.5 -45.5q27 0 53.5 8.5t49 21t40.5 28.5t29 31v343h28v-450zM391 577l-15 -18l-107 114l-108 -113l-16 17l122 131h4z" />
    <glyph glyph-name="udieresis" unicode="&#xfc;" horiz-adv-x="547" 
d="M462 0h-28v78q-14 -17 -33.5 -32.5t-43 -27.5t-50.5 -19.5t-54 -7.5q-89 0 -133.5 49t-44.5 154v256h29v-249q0 -92 37.5 -137.5t120.5 -45.5q27 0 53.5 8.5t49 21t40.5 28.5t29 31v343h28v-450zM147 626q0 8 6.5 14.5t15.5 6.5q8 0 14 -6.5t6 -14.5q0 -11 -6 -17t-14 -6
q-9 0 -15.5 6t-6.5 17zM358 626q0 8 6.5 14.5t15.5 6.5q8 0 14.5 -6.5t6.5 -14.5q0 -11 -6.5 -17t-14.5 -6q-9 0 -15.5 6t-6.5 17z" />
    <glyph glyph-name="yacute" unicode="&#xfd;" horiz-adv-x="472" 
d="M271 0q-25 -60 -46 -99t-40.5 -61.5t-39 -31t-41.5 -8.5q-18 0 -35 5t-35 14l10 22q15 -7 28.5 -11t27.5 -4q38 0 69.5 34.5t64.5 115.5l10 24l-227 450h33l173 -345q19 -36 35 -73q7 19 14 37.5t15 37.5l136 343h32zM218 552l-18 12l109 146l21 -17z" />
    <glyph glyph-name="thorn" unicode="&#xfe;" horiz-adv-x="552" 
d="M85 700h29v-314q28 32 75 52.5t98 20.5q50 0 90 -17t67.5 -47t42 -71.5t14.5 -91.5q0 -51 -16.5 -95.5t-46.5 -76.5t-72 -50.5t-94 -18.5q-46 0 -86.5 11t-71.5 34v-236h-29v900zM281 432q-27 0 -52 -6.5t-47 -17t-39.5 -24.5t-28.5 -28v-290q39 -28 78.5 -38t78.5 -10
q45 0 81.5 15.5t63 43.5t41 66.5t14.5 85.5q0 45 -12.5 82.5t-37 64.5t-60 41.5t-80.5 14.5z" />
    <glyph glyph-name="ydieresis" unicode="&#xff;" horiz-adv-x="472" 
d="M271 0q-25 -60 -46 -99t-40.5 -61.5t-39 -31t-41.5 -8.5q-18 0 -35 5t-35 14l10 22q15 -7 28.5 -11t27.5 -4q38 0 69.5 34.5t64.5 115.5l10 24l-227 450h33l173 -345q19 -36 35 -73q7 19 14 37.5t15 37.5l136 343h32zM111 626q0 8 6.5 14.5t15.5 6.5q8 0 14 -6.5t6 -14.5
q0 -11 -6 -17t-14 -6q-9 0 -15.5 6t-6.5 17zM322 626q0 8 6.5 14.5t15.5 6.5q8 0 14.5 -6.5t6.5 -14.5q0 -11 -6.5 -17t-14.5 -6q-9 0 -15.5 6t-6.5 17z" />
    <glyph glyph-name="Amacron" unicode="&#x100;" horiz-adv-x="690" 
d="M334 707h22l308 -707h-32l-113 260h-350l-112 -260h-31zM181 288h326l-163 375zM196 809h297v-24h-297v24z" />
    <glyph glyph-name="amacron" unicode="&#x101;" horiz-adv-x="457" 
d="M82 418q32 20 66 30.5t72 10.5q45 0 76 -12t50 -35t27.5 -56t8.5 -75v-281h-28v78q-11 -15 -26 -30t-35.5 -27t-46.5 -19t-59 -7q-63 0 -101.5 35t-38.5 94q0 34 13 59.5t36 42.5t54.5 26t67.5 9q28 0 66 -7t70 -30q0 47 -3 85.5t-16 65.5t-41 42t-77 15q-38 0 -66 -9.5
t-60 -28.5zM193 22q34 0 59 8t44 20.5t33 27.5t25 29v90q-56 40 -134 40q-26 0 -52 -6.5t-46 -20t-32.5 -34.5t-12.5 -50q0 -50 33.5 -77t82.5 -27zM108 649h242v-25h-242v25z" />
    <glyph glyph-name="Abreve" unicode="&#x102;" horiz-adv-x="690" 
d="M334 707h22l308 -707h-32l-113 260h-350l-112 -260h-31zM181 288h326l-163 375zM204 850q8 -9 20.5 -21t30.5 -22.5t40.5 -17.5t51.5 -7q50 0 85 21.5t55 46.5l13 -15q-11 -15 -25.5 -29t-34 -25t-43 -18t-50.5 -7q-32 0 -58 8.5t-45.5 20.5t-33 25.5t-20.5 24.5z" />
    <glyph glyph-name="abreve" unicode="&#x103;" horiz-adv-x="457" 
d="M82 418q32 20 66 30.5t72 10.5q45 0 76 -12t50 -35t27.5 -56t8.5 -75v-281h-28v78q-11 -15 -26 -30t-35.5 -27t-46.5 -19t-59 -7q-63 0 -101.5 35t-38.5 94q0 34 13 59.5t36 42.5t54.5 26t67.5 9q28 0 66 -7t70 -30q0 47 -3 85.5t-16 65.5t-41 42t-77 15q-38 0 -66 -9.5
t-60 -28.5zM193 22q34 0 59 8t44 20.5t33 27.5t25 29v90q-56 40 -134 40q-26 0 -52 -6.5t-46 -20t-32.5 -34.5t-12.5 -50q0 -50 33.5 -77t82.5 -27zM109 680q7 -9 18 -20.5t26 -22t34 -17.5t43 -7q42 0 70.5 21t48.5 46l12 -15q-10 -14 -22.5 -27.5t-28.5 -24.5t-36 -18
t-45 -7q-28 0 -50.5 8.5t-39 20.5t-27.5 25.5t-17 22.5z" />
    <glyph glyph-name="Aogonek" unicode="&#x104;" horiz-adv-x="690" 
d="M659 -186q-13 -7 -29.5 -10.5t-31.5 -3.5q-16 0 -34.5 4t-34.5 14.5t-26.5 28t-10.5 44.5q0 25 11.5 45t30.5 35.5t43 25t50 13.5l-108 250h-350l-112 -260h-31l308 707h22l308 -707h-15q-24 -1 -47 -8.5t-41.5 -21t-29.5 -32.5t-11 -41t9 -36t22 -22.5t27.5 -11.5
t24.5 -3q9 0 21.5 1.5t25.5 7.5zM181 288h326l-163 375z" />
    <glyph glyph-name="aogonek" unicode="&#x105;" horiz-adv-x="457" 
d="M387 -186q-13 -7 -29.5 -10.5t-31.5 -3.5q-16 0 -34.5 4t-34.5 14.5t-26.5 28t-10.5 44.5q0 24 11.5 44.5t30 35.5t42.5 25t50 14v68q-11 -15 -26 -30t-35.5 -27t-46.5 -19t-59 -7q-63 0 -101.5 35t-38.5 94q0 34 13 59.5t36 42.5t54.5 26t67.5 9q28 0 66 -7t70 -30
q0 47 -3 85.5t-16 65.5t-41 42t-77 15q-38 0 -66 -9.5t-60 -28.5l-9 24q32 20 66 30.5t72 10.5q45 0 76 -12t50 -35t27.5 -56t8.5 -75v-281q-24 0 -48 -7.5t-43 -21t-31 -32.5t-12 -42q0 -22 9 -36t22 -22.5t27.5 -11.5t24.5 -3q9 0 21.5 1.5t25.5 7.5zM193 22q34 0 59 8
t44 20.5t33 27.5t25 29v90q-56 40 -134 40q-26 0 -52 -6.5t-46 -20t-32.5 -34.5t-12.5 -50q0 -50 33.5 -77t82.5 -27z" />
    <glyph glyph-name="Cacute" unicode="&#x106;" horiz-adv-x="657" 
d="M619 67q-37 -36 -95.5 -56t-119.5 -20q-77 0 -141 25.5t-109.5 72.5t-71 113t-25.5 148q0 75 24 140.5t68.5 114t106.5 76.5t139 28q66 0 117.5 -15.5t93.5 -49.5l-15 -21q-39 31 -87 44t-108 13q-69 0 -126 -25.5t-97.5 -69.5t-62.5 -104.5t-22 -130.5
q0 -75 23.5 -135.5t65.5 -104t100.5 -67t128.5 -23.5q61 0 112 19t88 51zM342 740l-9 18l165 94l11 -23z" />
    <glyph glyph-name="cacute" unicode="&#x107;" horiz-adv-x="491" 
d="M453 64q-29 -36 -73.5 -54.5t-92.5 -18.5q-51 0 -94.5 16.5t-74.5 47t-48.5 74t-17.5 96.5q0 49 17 92t46.5 74.5t69.5 49.5t87 18q51 0 95.5 -12.5t76.5 -42.5l-14 -23q-32 28 -71 39.5t-82 11.5q-40 0 -75.5 -16t-62.5 -43.5t-42.5 -65.5t-15.5 -82q0 -48 16 -86
t43.5 -65t65.5 -41.5t83 -14.5q46 0 85.5 18t64.5 47zM259 552l-18 12l109 146l21 -17z" />
    <glyph glyph-name="Ccircumflex" unicode="&#x108;" horiz-adv-x="657" 
d="M619 67q-37 -36 -95.5 -56t-119.5 -20q-77 0 -141 25.5t-109.5 72.5t-71 113t-25.5 148q0 75 24 140.5t68.5 114t106.5 76.5t139 28q66 0 117.5 -15.5t93.5 -49.5l-15 -21q-39 31 -87 44t-108 13q-69 0 -126 -25.5t-97.5 -69.5t-62.5 -104.5t-22 -130.5
q0 -75 23.5 -135.5t65.5 -104t100.5 -67t128.5 -23.5q61 0 112 19t88 51zM393 851h4l167 -93l-15 -18l-154 85l-155 -85l-13 17z" />
    <glyph glyph-name="ccircumflex" unicode="&#x109;" horiz-adv-x="491" 
d="M453 64q-29 -36 -73.5 -54.5t-92.5 -18.5q-51 0 -94.5 16.5t-74.5 47t-48.5 74t-17.5 96.5q0 49 17 92t46.5 74.5t69.5 49.5t87 18q51 0 95.5 -12.5t76.5 -42.5l-14 -23q-32 28 -71 39.5t-82 11.5q-40 0 -75.5 -16t-62.5 -43.5t-42.5 -65.5t-15.5 -82q0 -48 16 -86
t43.5 -65t65.5 -41.5t83 -14.5q46 0 85.5 18t64.5 47zM400 577l-15 -18l-107 114l-108 -113l-16 17l122 131h4z" />
    <glyph glyph-name="Cdotaccent" unicode="&#x10a;" horiz-adv-x="657" 
d="M619 67q-37 -36 -95.5 -56t-119.5 -20q-77 0 -141 25.5t-109.5 72.5t-71 113t-25.5 148q0 75 24 140.5t68.5 114t106.5 76.5t139 28q66 0 117.5 -15.5t93.5 -49.5l-15 -21q-39 31 -87 44t-108 13q-69 0 -126 -25.5t-97.5 -69.5t-62.5 -104.5t-22 -130.5
q0 -75 23.5 -135.5t65.5 -104t100.5 -67t128.5 -23.5q61 0 112 19t88 51zM356 797q0 11 7 16.5t18 5.5q8 0 15 -5.5t7 -16.5t-7 -17.5t-15 -6.5q-11 0 -18 6.5t-7 17.5z" />
    <glyph glyph-name="cdotaccent" unicode="&#x10b;" horiz-adv-x="491" 
d="M453 64q-29 -36 -73.5 -54.5t-92.5 -18.5q-51 0 -94.5 16.5t-74.5 47t-48.5 74t-17.5 96.5q0 49 17 92t46.5 74.5t69.5 49.5t87 18q51 0 95.5 -12.5t76.5 -42.5l-14 -23q-32 28 -71 39.5t-82 11.5q-40 0 -75.5 -16t-62.5 -43.5t-42.5 -65.5t-15.5 -82q0 -48 16 -86
t43.5 -65t65.5 -41.5t83 -14.5q46 0 85.5 18t64.5 47zM262 629q0 9 7 15.5t16 6.5q8 0 14.5 -6.5t6.5 -15.5q0 -10 -6.5 -16.5t-14.5 -6.5q-9 0 -16 6.5t-7 16.5z" />
    <glyph glyph-name="Ccaron" unicode="&#x10c;" horiz-adv-x="657" 
d="M619 67q-37 -36 -95.5 -56t-119.5 -20q-77 0 -141 25.5t-109.5 72.5t-71 113t-25.5 148q0 75 24 140.5t68.5 114t106.5 76.5t139 28q66 0 117.5 -15.5t93.5 -49.5l-15 -21q-39 31 -87 44t-108 13q-69 0 -126 -25.5t-97.5 -69.5t-62.5 -104.5t-22 -130.5
q0 -75 23.5 -135.5t65.5 -104t100.5 -67t128.5 -23.5q61 0 112 19t88 51zM227 835l13 17l156 -85l154 85l14 -17l-166 -93h-4z" />
    <glyph glyph-name="ccaron" unicode="&#x10d;" horiz-adv-x="491" 
d="M453 64q-29 -36 -73.5 -54.5t-92.5 -18.5q-51 0 -94.5 16.5t-74.5 47t-48.5 74t-17.5 96.5q0 49 17 92t46.5 74.5t69.5 49.5t87 18q51 0 95.5 -12.5t76.5 -42.5l-14 -23q-32 28 -71 39.5t-82 11.5q-40 0 -75.5 -16t-62.5 -43.5t-42.5 -65.5t-15.5 -82q0 -48 16 -86
t43.5 -65t65.5 -41.5t83 -14.5q46 0 85.5 18t64.5 47zM162 691l16 18l108 -119l107 118l16 -17l-121 -131h-4z" />
    <glyph glyph-name="Dcaron" unicode="&#x10e;" horiz-adv-x="735" 
d="M116 700h11q40 0 74.5 1.5t83.5 1.5q105 0 179.5 -28t122 -75t69.5 -109t22 -130q0 -75 -25 -141.5t-75.5 -115.5t-125.5 -77.5t-175 -28.5q-42 0 -77.5 1t-76.5 1h-7v700zM283 675q-23 0 -40.5 -0.5t-33 -1t-30.5 -1t-33 -0.5v-644q24 0 47.5 -0.5t42 -0.5t30 -0.5
t12.5 -0.5q92 0 161.5 26.5t115.5 72t69 106.5t23 130q0 64 -20.5 121t-64.5 100t-113 68t-166 25zM168 835l13 17l156 -85l154 85l14 -17l-166 -93h-4z" />
    <glyph glyph-name="dcaron" unicode="&#x10f;" horiz-adv-x="553" 
d="M439 71q-27 -32 -70.5 -55.5t-93.5 -23.5q-51 0 -92 16.5t-70 46.5t-45 73t-16 96q0 52 18.5 95t51 74t77 48.5t96.5 17.5q84 0 144 -45v286h28v-700h-28v71zM279 19q25 0 49 7.5t45 19t38 25.5t28 28v287q-39 27 -74 36.5t-70 9.5q-45 0 -84 -15t-68 -42.5t-45.5 -65.5
t-16.5 -84q0 -48 14.5 -86t40.5 -64.5t62.5 -41t80.5 -14.5zM611 700q4 -8 6.5 -17.5t2.5 -24.5q0 -48 -19.5 -79t-45.5 -44l-12 15q23 14 36.5 42t13.5 63q0 27 -10 45h28z" />
    <glyph glyph-name="Dcroat" unicode="&#x110;" horiz-adv-x="761" 
d="M10 372h132v328h11q40 0 74.5 1.5t83.5 1.5q105 0 179.5 -28t122 -75t69.5 -109t22 -130q0 -75 -25 -141.5t-75.5 -115.5t-125.5 -77.5t-175 -28.5q-41 0 -77 1t-77 1h-7v345h-132v27zM309 675q-23 0 -40.5 -0.5t-33 -1t-30.5 -1t-33 -0.5v-300h206v-27h-206v-317
q24 0 47.5 -0.5t42 -0.5t30.5 -0.5t13 -0.5q92 0 161 26.5t115 72t69 106.5t23 130q0 64 -20.5 121t-64.5 100t-113 68t-166 25z" />
    <glyph glyph-name="dcroat" unicode="&#x111;" horiz-adv-x="553" 
d="M244 578h195v122h28v-122h113v-24h-113v-554h-28v71q-27 -32 -70.5 -55.5t-93.5 -23.5q-51 0 -92 16.5t-70 46.5t-45 73t-16 96q0 52 18.5 95t51 74t77 48.5t96.5 17.5q84 0 144 -45v140h-195v24zM279 19q25 0 49 7.5t45 19t38 25.5t28 28v287q-39 27 -74 36.5t-70 9.5
q-45 0 -84 -15t-68 -42.5t-45.5 -65.5t-16.5 -84q0 -48 14.5 -86t40.5 -64.5t62.5 -41t80.5 -14.5z" />
    <glyph glyph-name="Emacron" unicode="&#x112;" horiz-adv-x="575" 
d="M116 700h380v-28h-350v-302h320v-28h-320v-314h360v-28h-390v700zM157 809h297v-24h-297v24z" />
    <glyph glyph-name="emacron" unicode="&#x113;" horiz-adv-x="527" 
d="M452 59q-29 -34 -74 -51t-90 -17q-52 0 -95 16.5t-74.5 47t-49 74t-17.5 96.5q0 49 14 92t42 74.5t69.5 49.5t97.5 18q43 0 80 -14.5t64 -41t42 -63.5t15 -83q0 -9 -0.5 -16.5t-1.5 -14.5h-391q1 -97 56.5 -152.5t149.5 -55.5q48 0 87.5 17.5t64.5 44.5zM271 432
q-44 0 -78 -14t-58 -38t-37.5 -57.5t-16.5 -72.5h366q0 42 -12 75.5t-35.5 57.5t-56 36.5t-72.5 12.5zM144 649h242v-25h-242v25z" />
    <glyph glyph-name="Edotaccent" unicode="&#x116;" horiz-adv-x="575" 
d="M116 700h380v-28h-350v-302h320v-28h-320v-314h360v-28h-390v700zM285 797q0 11 7 16.5t18 5.5q8 0 15 -5.5t7 -16.5t-7 -17.5t-15 -6.5q-11 0 -18 6.5t-7 17.5z" />
    <glyph glyph-name="edotaccent" unicode="&#x117;" horiz-adv-x="527" 
d="M452 59q-29 -34 -74 -51t-90 -17q-52 0 -95 16.5t-74.5 47t-49 74t-17.5 96.5q0 49 14 92t42 74.5t69.5 49.5t97.5 18q43 0 80 -14.5t64 -41t42 -63.5t15 -83q0 -9 -0.5 -16.5t-1.5 -14.5h-391q1 -97 56.5 -152.5t149.5 -55.5q48 0 87.5 17.5t64.5 44.5zM271 432
q-44 0 -78 -14t-58 -38t-37.5 -57.5t-16.5 -72.5h366q0 42 -12 75.5t-35.5 57.5t-56 36.5t-72.5 12.5zM242 629q0 9 7 15.5t16 6.5q8 0 14.5 -6.5t6.5 -15.5q0 -10 -6.5 -16.5t-14.5 -6.5q-9 0 -16 6.5t-7 16.5z" />
    <glyph glyph-name="Eogonek" unicode="&#x118;" horiz-adv-x="575" 
d="M116 700h380v-28h-350v-302h320v-28h-320v-314h360v-28h-5q-24 -1 -47 -8.5t-41.5 -21t-29.5 -32.5t-11 -41t9 -36t22 -22.5t27.5 -11.5t24.5 -3q9 0 21.5 1.5t25.5 7.5l9 -19q-13 -7 -29.5 -10.5t-31.5 -3.5q-16 0 -34.5 4t-34.5 14.5t-26.5 28t-10.5 44.5q0 39 27 67
t66 42h-321v700z" />
    <glyph glyph-name="eogonek" unicode="&#x119;" horiz-adv-x="527" 
d="M452 59q-17 -20 -39 -33.5t-47 -21.5q-33 -21 -54.5 -47t-21.5 -60q0 -22 9 -36t22 -22.5t27 -11.5t25 -3q9 0 21.5 1.5t25.5 7.5l8 -19q-13 -7 -29.5 -10.5t-31.5 -3.5q-16 0 -34.5 4t-34.5 14.5t-26.5 28t-10.5 44.5q0 34 18 58.5t50 45.5q-19 -4 -41 -4
q-52 0 -95 16.5t-74.5 47t-49 74t-17.5 96.5q0 49 14 92t42 74.5t69.5 49.5t97.5 18q43 0 80 -14.5t64 -41t42 -63.5t15 -83q0 -9 -0.5 -16.5t-1.5 -14.5h-391q1 -97 56.5 -152.5t149.5 -55.5q48 0 87.5 17.5t64.5 44.5zM271 432q-44 0 -78 -14t-58 -38t-37.5 -57.5
t-16.5 -72.5h366q0 42 -12 75.5t-35.5 57.5t-56 36.5t-72.5 12.5z" />
    <glyph glyph-name="Ecaron" unicode="&#x11a;" horiz-adv-x="575" 
d="M116 700h380v-28h-350v-302h320v-28h-320v-314h360v-28h-390v700zM147 835l13 17l156 -85l154 85l14 -17l-166 -93h-4z" />
    <glyph glyph-name="ecaron" unicode="&#x11b;" horiz-adv-x="527" 
d="M452 59q-29 -34 -74 -51t-90 -17q-52 0 -95 16.5t-74.5 47t-49 74t-17.5 96.5q0 49 14 92t42 74.5t69.5 49.5t97.5 18q43 0 80 -14.5t64 -41t42 -63.5t15 -83q0 -9 -0.5 -16.5t-1.5 -14.5h-391q1 -97 56.5 -152.5t149.5 -55.5q48 0 87.5 17.5t64.5 44.5zM271 432
q-44 0 -78 -14t-58 -38t-37.5 -57.5t-16.5 -72.5h366q0 42 -12 75.5t-35.5 57.5t-56 36.5t-72.5 12.5zM151 691l16 18l108 -119l107 118l16 -17l-121 -131h-4z" />
    <glyph glyph-name="Gcircumflex" unicode="&#x11c;" horiz-adv-x="727" 
d="M413 324h247v-237q-23 -23 -54.5 -41t-67 -30t-71.5 -18.5t-69 -6.5q-75 0 -138 25.5t-108 72.5t-70 113t-25 148q0 75 24 140.5t68.5 114t106.5 76.5t137 28q67 0 119 -15.5t95 -49.5l-15 -23q-38 32 -87.5 45.5t-107.5 13.5q-70 0 -127 -25.5t-97.5 -69.5t-62.5 -104.5
t-22 -130.5q0 -75 22.5 -135.5t64 -104t99 -67t126.5 -23.5q31 0 64 5.5t63.5 16t57.5 26t46 34.5v194h-218v28zM393 851h4l167 -93l-15 -18l-154 85l-155 -85l-13 17z" />
    <glyph glyph-name="gcircumflex" unicode="&#x11d;" horiz-adv-x="487" 
d="M17 -69q0 53 37.5 86.5t102.5 46.5q-17 19 -17 46q0 30 19 49q-44 19 -69 56t-25 86q0 34 12.5 63t35.5 50t54.5 33t70.5 12q68 0 113 -36l126 35v-27l-103 -28q37 -42 37 -102q0 -34 -12.5 -62.5t-35.5 -49.5t-54.5 -33t-70.5 -12q-33 0 -57 7q-8 -8 -11 -19t-3 -22
q0 -26 18 -42q13 2 26.5 3t27.5 1q49 0 90 -9t70 -27t45.5 -44.5t16.5 -60.5t-16.5 -60t-45.5 -43.5t-70 -26.5t-90 -9t-90 9t-70 26t-45.5 43t-16.5 61zM47 -69q0 -27 14 -47.5t39.5 -35t60.5 -22t78 -7.5t78.5 7.5t60.5 21.5t39 35t14 48t-14 48t-39 36t-60.5 22.5
t-78.5 7.5t-78 -7.5t-60.5 -22.5t-39.5 -36t-14 -48zM95 301q0 -28 10.5 -52t29 -41t45 -27t58.5 -10t58.5 10t45 27t29 41t10.5 52t-10.5 52t-29.5 41.5t-45.5 27.5t-57.5 10q-32 0 -58 -10t-45 -27.5t-29.5 -41.5t-10.5 -52zM364 577l-15 -18l-107 114l-108 -113l-16 17
l122 131h4z" />
    <glyph glyph-name="Gbreve" unicode="&#x11e;" horiz-adv-x="727" 
d="M413 324h247v-237q-23 -23 -54.5 -41t-67 -30t-71.5 -18.5t-69 -6.5q-75 0 -138 25.5t-108 72.5t-70 113t-25 148q0 75 24 140.5t68.5 114t106.5 76.5t137 28q67 0 119 -15.5t95 -49.5l-15 -23q-38 32 -87.5 45.5t-107.5 13.5q-70 0 -127 -25.5t-97.5 -69.5t-62.5 -104.5
t-22 -130.5q0 -75 22.5 -135.5t64 -104t99 -67t126.5 -23.5q31 0 64 5.5t63.5 16t57.5 26t46 34.5v194h-218v28zM258 850q8 -9 20.5 -21t30.5 -22.5t40.5 -17.5t51.5 -7q50 0 85 21.5t55 46.5l13 -15q-11 -15 -25.5 -29t-34 -25t-43 -18t-50.5 -7q-32 0 -58 8.5t-45.5 20.5
t-33 25.5t-20.5 24.5z" />
    <glyph glyph-name="gbreve" unicode="&#x11f;" horiz-adv-x="487" 
d="M17 -69q0 53 37.5 86.5t102.5 46.5q-17 19 -17 46q0 30 19 49q-44 19 -69 56t-25 86q0 34 12.5 63t35.5 50t54.5 33t70.5 12q68 0 113 -36l126 35v-27l-103 -28q37 -42 37 -102q0 -34 -12.5 -62.5t-35.5 -49.5t-54.5 -33t-70.5 -12q-33 0 -57 7q-8 -8 -11 -19t-3 -22
q0 -26 18 -42q13 2 26.5 3t27.5 1q49 0 90 -9t70 -27t45.5 -44.5t16.5 -60.5t-16.5 -60t-45.5 -43.5t-70 -26.5t-90 -9t-90 9t-70 26t-45.5 43t-16.5 61zM47 -69q0 -27 14 -47.5t39.5 -35t60.5 -22t78 -7.5t78.5 7.5t60.5 21.5t39 35t14 48t-14 48t-39 36t-60.5 22.5
t-78.5 7.5t-78 -7.5t-60.5 -22.5t-39.5 -36t-14 -48zM95 301q0 -28 10.5 -52t29 -41t45 -27t58.5 -10t58.5 10t45 27t29 41t10.5 52t-10.5 52t-29.5 41.5t-45.5 27.5t-57.5 10q-32 0 -58 -10t-45 -27.5t-29.5 -41.5t-10.5 -52zM122 680q7 -9 18 -20.5t26 -22t34 -17.5t43 -7
q42 0 70.5 21t48.5 46l12 -15q-10 -14 -22.5 -27.5t-28.5 -24.5t-36 -18t-45 -7q-28 0 -50.5 8.5t-39 20.5t-27.5 25.5t-17 22.5z" />
    <glyph glyph-name="Gdotaccent" unicode="&#x120;" horiz-adv-x="727" 
d="M413 324h247v-237q-23 -23 -54.5 -41t-67 -30t-71.5 -18.5t-69 -6.5q-75 0 -138 25.5t-108 72.5t-70 113t-25 148q0 75 24 140.5t68.5 114t106.5 76.5t137 28q67 0 119 -15.5t95 -49.5l-15 -23q-38 32 -87.5 45.5t-107.5 13.5q-70 0 -127 -25.5t-97.5 -69.5t-62.5 -104.5
t-22 -130.5q0 -75 22.5 -135.5t64 -104t99 -67t126.5 -23.5q31 0 64 5.5t63.5 16t57.5 26t46 34.5v194h-218v28zM363 797q0 11 7 16.5t18 5.5q8 0 15 -5.5t7 -16.5t-7 -17.5t-15 -6.5q-11 0 -18 6.5t-7 17.5z" />
    <glyph glyph-name="gdotaccent" unicode="&#x121;" horiz-adv-x="487" 
d="M17 -69q0 53 37.5 86.5t102.5 46.5q-17 19 -17 46q0 30 19 49q-44 19 -69 56t-25 86q0 34 12.5 63t35.5 50t54.5 33t70.5 12q68 0 113 -36l126 35v-27l-103 -28q37 -42 37 -102q0 -34 -12.5 -62.5t-35.5 -49.5t-54.5 -33t-70.5 -12q-33 0 -57 7q-8 -8 -11 -19t-3 -22
q0 -26 18 -42q13 2 26.5 3t27.5 1q49 0 90 -9t70 -27t45.5 -44.5t16.5 -60.5t-16.5 -60t-45.5 -43.5t-70 -26.5t-90 -9t-90 9t-70 26t-45.5 43t-16.5 61zM47 -69q0 -27 14 -47.5t39.5 -35t60.5 -22t78 -7.5t78.5 7.5t60.5 21.5t39 35t14 48t-14 48t-39 36t-60.5 22.5
t-78.5 7.5t-78 -7.5t-60.5 -22.5t-39.5 -36t-14 -48zM95 301q0 -28 10.5 -52t29 -41t45 -27t58.5 -10t58.5 10t45 27t29 41t10.5 52t-10.5 52t-29.5 41.5t-45.5 27.5t-57.5 10q-32 0 -58 -10t-45 -27.5t-29.5 -41.5t-10.5 -52zM219 629q0 9 7 15.5t16 6.5q8 0 14.5 -6.5
t6.5 -15.5q0 -10 -6.5 -16.5t-14.5 -6.5q-9 0 -16 6.5t-7 16.5z" />
    <glyph glyph-name="Gcommaaccent" unicode="&#x122;" horiz-adv-x="727" 
d="M413 324h247v-237q-23 -23 -54.5 -41t-67 -30t-71.5 -18.5t-69 -6.5q-75 0 -138 25.5t-108 72.5t-70 113t-25 148q0 75 24 140.5t68.5 114t106.5 76.5t137 28q67 0 119 -15.5t95 -49.5l-15 -23q-38 32 -87.5 45.5t-107.5 13.5q-70 0 -127 -25.5t-97.5 -69.5t-62.5 -104.5
t-22 -130.5q0 -75 22.5 -135.5t64 -104t99 -67t126.5 -23.5q31 0 64 5.5t63.5 16t57.5 26t46 34.5v194h-218v28zM391 -64q17 -2 28.5 -15t11.5 -35q0 -38 -19.5 -57.5t-50.5 -29.5l-8 15q25 10 37.5 25.5t12.5 40.5q0 21 -9 31t-23 13z" />
    <glyph glyph-name="gcommaaccent" unicode="&#x123;" horiz-adv-x="487" 
d="M17 -69q0 53 37.5 86.5t102.5 46.5q-17 19 -17 46q0 30 19 49q-44 19 -69 56t-25 86q0 34 12.5 63t35.5 50t54.5 33t70.5 12q68 0 113 -36l126 35v-27l-103 -28q37 -42 37 -102q0 -34 -12.5 -62.5t-35.5 -49.5t-54.5 -33t-70.5 -12q-33 0 -57 7q-8 -8 -11 -19t-3 -22
q0 -26 18 -42q13 2 26.5 3t27.5 1q49 0 90 -9t70 -27t45.5 -44.5t16.5 -60.5t-16.5 -60t-45.5 -43.5t-70 -26.5t-90 -9t-90 9t-70 26t-45.5 43t-16.5 61zM47 -69q0 -27 14 -47.5t39.5 -35t60.5 -22t78 -7.5t78.5 7.5t60.5 21.5t39 35t14 48t-14 48t-39 36t-60.5 22.5
t-78.5 7.5t-78 -7.5t-60.5 -22.5t-39.5 -36t-14 -48zM95 301q0 -28 10.5 -52t29 -41t45 -27t58.5 -10t58.5 10t45 27t29 41t10.5 52t-10.5 52t-29.5 41.5t-45.5 27.5t-57.5 10q-32 0 -58 -10t-45 -27.5t-29.5 -41.5t-10.5 -52zM243 561q-17 2 -28.5 15t-11.5 35
q0 38 19.5 57.5t50.5 29.5l8 -15q-25 -10 -37.5 -25.5t-12.5 -40.5q0 -21 9 -31t23 -13z" />
    <glyph glyph-name="Hcircumflex" unicode="&#x124;" horiz-adv-x="772" 
d="M627 343h-481v-343h-30v700h30v-329h481v329h29v-700h-29v343zM384 851h4l167 -93l-15 -18l-154 85l-155 -85l-13 17z" />
    <glyph glyph-name="hcircumflex" unicode="&#x125;" horiz-adv-x="553" 
d="M85 700h29v-318q14 16 33.5 30t42.5 24t48 16t49 6q96 0 143 -49t47 -155v-254h-28v248q0 94 -40.5 138.5t-126.5 44.5q-26 0 -51.5 -6.5t-48 -17.5t-40 -25t-28.5 -28v-354h-29v700zM162 851h4l167 -93l-15 -18l-154 85l-155 -85l-13 17z" />
    <glyph glyph-name="Hbar" unicode="&#x126;" horiz-adv-x="782" 
d="M29 554h92v146h30v-146h481v146h29v-146h93v-27h-93v-527h-29v343h-481v-343h-30v527h-92v27zM632 371v156h-481v-156h481z" />
    <glyph glyph-name="hbar" unicode="&#x127;" horiz-adv-x="559" 
d="M-42 569h133v131h29v-131h182v-27h-182v-160q14 16 33.5 30t42.5 24t48 16t49 6q96 0 143 -49t47 -155v-254h-28v248q0 94 -40.5 138.5t-126.5 44.5q-26 0 -51.5 -6.5t-48 -17.5t-40 -25t-28.5 -28v-354h-29v542h-133v27z" />
    <glyph glyph-name="Imacron" unicode="&#x12a;" horiz-adv-x="316" 
d="M143 700h30v-700h-30v700zM11 809h297v-24h-297v24z" />
    <glyph glyph-name="imacron" unicode="&#x12b;" horiz-adv-x="255" 
d="M113 450h28v-450h-28v450zM6 649h242v-25h-242v25z" />
    <glyph glyph-name="Iogonek" unicode="&#x12e;" horiz-adv-x="316" 
d="M178 -186q-13 -7 -29.5 -10.5t-31.5 -3.5q-16 0 -34.5 4t-34.5 14.5t-26.5 28t-10.5 44.5q0 24 11 44.5t29.5 35.5t42 25t49.5 14v690h30v-700h-5q-24 -1 -47 -8.5t-41.5 -21t-29.5 -32.5t-11 -41t9 -36t22 -22.5t27.5 -11.5t24.5 -3q9 0 21.5 1.5t25.5 7.5z" />
    <glyph glyph-name="iogonek" unicode="&#x12f;" horiz-adv-x="255" 
d="M146 -186q-13 -7 -29.5 -10.5t-31.5 -3.5q-16 0 -34.5 4t-34.5 14.5t-26.5 28t-10.5 44.5q0 24 11.5 44.5t30 35.5t42.5 25t50 14v440h28v-450h-5q-24 -1 -47 -8.5t-41.5 -21t-29.5 -32.5t-11 -41t9 -36t22 -22.5t27.5 -11.5t24.5 -3q9 0 21.5 1.5t25.5 7.5zM104 629
q0 9 7 15.5t16 6.5q8 0 14.5 -6.5t6.5 -15.5q0 -10 -6.5 -16.5t-14.5 -6.5q-9 0 -16 6.5t-7 16.5z" />
    <glyph glyph-name="Idotaccent" unicode="&#x130;" horiz-adv-x="316" 
d="M143 700h30v-700h-30v700zM135 797q0 11 7 16.5t18 5.5q8 0 15 -5.5t7 -16.5t-7 -17.5t-15 -6.5q-11 0 -18 6.5t-7 17.5z" />
    <glyph glyph-name="dotlessi" unicode="&#x131;" horiz-adv-x="255" 
d="M113 450h28v-450h-28v450z" />
    <glyph glyph-name="Jcircumflex" unicode="&#x134;" horiz-adv-x="350" 
d="M233 150q0 -36 -6 -65t-20.5 -50t-39.5 -32.5t-63 -11.5q-27 0 -50 9t-37 20l12 23q12 -9 31.5 -16t40.5 -7q33 0 53 10.5t31 28.5t15 42.5t4 51.5v547h29v-550zM208 851h4l167 -93l-15 -18l-154 85l-155 -85l-13 17z" />
    <glyph glyph-name="jcircumflex" unicode="&#x135;" horiz-adv-x="255" 
d="M143 -33q0 -83 -33 -129t-108 -46q-26 0 -48.5 8t-36.5 18l10 23q12 -8 31 -15t40 -7q63 0 90 38.5t27 110.5v482h28v-483zM251 577l-15 -18l-107 114l-108 -113l-16 17l122 131h4z" />
    <glyph glyph-name="Kcommaaccent" unicode="&#x136;" horiz-adv-x="624" 
d="M233 367l356 -367h-43l-354 365l344 335h41zM116 700h30v-700h-30v700zM296 -64q17 -2 28.5 -15t11.5 -35q0 -38 -19.5 -57.5t-50.5 -29.5l-8 15q25 10 37.5 25.5t12.5 40.5q0 21 -9 31t-23 13z" />
    <glyph glyph-name="kcommaaccent" unicode="&#x137;" horiz-adv-x="457" 
d="M189 237l244 -237h-40l-240 235l223 215h38zM85 700h29v-700h-29v700zM216 -64q17 -2 28.5 -15t11.5 -35q0 -38 -19.5 -57.5t-50.5 -29.5l-8 15q25 10 37.5 25.5t12.5 40.5q0 21 -9 31t-23 13z" />
    <glyph glyph-name="Lacute" unicode="&#x139;" horiz-adv-x="554" 
d="M116 700h30v-672h389v-28h-419v700zM250 740l-9 18l165 94l11 -23z" />
    <glyph glyph-name="lacute" unicode="&#x13a;" horiz-adv-x="276" 
d="M85 700h29v-566q0 -57 15.5 -84t57.5 -27q21 0 39.5 7t30.5 16l9 -23q-14 -11 -36.5 -19t-50.5 -8q-50 0 -72 28.5t-22 88.5v587zM80 740l-9 18l165 94l11 -23z" />
    <glyph glyph-name="Lcommaaccent" unicode="&#x13b;" horiz-adv-x="554" 
d="M116 700h30v-672h389v-28h-419v700zM308 -64q17 -2 28.5 -15t11.5 -35q0 -38 -19.5 -57.5t-50.5 -29.5l-8 15q25 10 37.5 25.5t12.5 40.5q0 21 -9 31t-23 13z" />
    <glyph glyph-name="lcommaaccent" unicode="&#x13c;" horiz-adv-x="276" 
d="M85 700h29v-566q0 -57 15.5 -84t57.5 -27q21 0 39.5 7t30.5 16l9 -23q-14 -11 -36.5 -19t-50.5 -8q-50 0 -72 28.5t-22 88.5v587zM153 -64q17 -2 28.5 -15t11.5 -35q0 -38 -19.5 -57.5t-50.5 -29.5l-8 15q25 10 37.5 25.5t12.5 40.5q0 21 -9 31t-23 13z" />
    <glyph glyph-name="Lcaron" unicode="&#x13d;" horiz-adv-x="554" 
d="M116 700h30v-672h389v-28h-419v700zM385 700q4 -8 6.5 -17.5t2.5 -24.5q0 -48 -19.5 -79t-45.5 -44l-12 15q23 14 36.5 42t13.5 63q0 27 -10 45h28z" />
    <glyph glyph-name="lcaron" unicode="&#x13e;" horiz-adv-x="276" 
d="M85 700h29v-566q0 -57 15.5 -84t57.5 -27q21 0 39.5 7t30.5 16l9 -23q-14 -11 -36.5 -19t-50.5 -8q-50 0 -72 28.5t-22 88.5v587zM260 700q4 -8 6.5 -17.5t2.5 -24.5q0 -48 -19.5 -79t-45.5 -44l-12 15q23 14 36.5 42t13.5 63q0 27 -10 45h28z" />
    <glyph glyph-name="Ldot" unicode="&#x13f;" horiz-adv-x="554" 
d="M116 700h30v-672h389v-28h-419v700zM385 374q0 8 7 15t18 7q9 0 16 -7t7 -15q0 -10 -7 -17.5t-16 -7.5q-11 0 -18 7.5t-7 17.5z" />
    <glyph glyph-name="ldot" unicode="&#x140;" horiz-adv-x="285" 
d="M85 700h29v-566q0 -57 15.5 -84t57.5 -27q21 0 39.5 7t30.5 16l9 -23q-14 -11 -36.5 -19t-50.5 -8q-50 0 -72 28.5t-22 88.5v587zM223 308q0 9 7 15.5t16 6.5q8 0 14.5 -6.5t6.5 -15.5q0 -10 -6.5 -16.5t-14.5 -6.5q-9 0 -16 6.5t-7 16.5z" />
    <glyph glyph-name="Lslash" unicode="&#x141;" horiz-adv-x="564" 
d="M29 272l97 50v378h30v-362l196 102v-29l-196 -103v-280h389v-28h-419v292l-97 -51v31z" />
    <glyph glyph-name="lslash" unicode="&#x142;" horiz-adv-x="306" 
d="M19 282l86 45v373h29v-358l119 62v-29l-119 -63v-178q0 -57 15.5 -84t57.5 -27q21 0 39.5 7t30.5 16l9 -23q-14 -11 -36.5 -19t-50.5 -8q-50 0 -72 28.5t-22 88.5v184l-86 -45v30z" />
    <glyph glyph-name="Nacute" unicode="&#x143;" horiz-adv-x="799" 
d="M659 0l-515 646v-646h-28v700h24l514 -648v648h29v-700h-24zM371 740l-9 18l165 94l11 -23z" />
    <glyph glyph-name="nacute" unicode="&#x144;" horiz-adv-x="553" 
d="M85 450h29v-68q13 16 32.5 29.5t42.5 24t48 16.5t50 6q96 0 143 -49t47 -155v-254h-28v248q0 94 -40.5 138.5t-126.5 44.5q-26 0 -51.5 -6.5t-47.5 -17.5t-40 -25t-29 -28v-354h-29v450zM261 552l-18 12l109 146l21 -17z" />
    <glyph glyph-name="Ncommaaccent" unicode="&#x145;" horiz-adv-x="799" 
d="M659 0l-515 646v-646h-28v700h24l514 -648v648h29v-700h-24zM389 -64q17 -2 28.5 -15t11.5 -35q0 -38 -19.5 -57.5t-50.5 -29.5l-8 15q25 10 37.5 25.5t12.5 40.5q0 21 -9 31t-23 13z" />
    <glyph glyph-name="ncommaaccent" unicode="&#x146;" horiz-adv-x="553" 
d="M85 450h29v-68q13 16 32.5 29.5t42.5 24t48 16.5t50 6q96 0 143 -49t47 -155v-254h-28v248q0 94 -40.5 138.5t-126.5 44.5q-26 0 -51.5 -6.5t-47.5 -17.5t-40 -25t-29 -28v-354h-29v450zM273 -64q17 -2 28.5 -15t11.5 -35q0 -38 -19.5 -57.5t-50.5 -29.5l-8 15
q25 10 37.5 25.5t12.5 40.5q0 21 -9 31t-23 13z" />
    <glyph glyph-name="Ncaron" unicode="&#x147;" horiz-adv-x="799" 
d="M659 0l-515 646v-646h-28v700h24l514 -648v648h29v-700h-24zM230 835l13 17l156 -85l154 85l14 -17l-166 -93h-4z" />
    <glyph glyph-name="ncaron" unicode="&#x148;" horiz-adv-x="553" 
d="M85 450h29v-68q13 16 32.5 29.5t42.5 24t48 16.5t50 6q96 0 143 -49t47 -155v-254h-28v248q0 94 -40.5 138.5t-126.5 44.5q-26 0 -51.5 -6.5t-47.5 -17.5t-40 -25t-29 -28v-354h-29v450zM152 691l16 18l108 -119l107 118l16 -17l-121 -131h-4z" />
    <glyph glyph-name="Omacron" unicode="&#x14c;" horiz-adv-x="807" 
d="M57 350q0 76 26.5 141.5t73 114t109.5 76t137 27.5q73 0 136.5 -27t110 -75t73 -114t26.5 -143t-26.5 -142.5t-73 -113.5t-110 -75.5t-136.5 -27.5t-136.5 27t-110 75t-73 114t-26.5 143zM88 350q0 -71 24 -131t66.5 -104.5t100 -69.5t124.5 -25q68 0 125.5 25t99.5 69.5
t66 104.5t24 131t-24 131.5t-66.5 104.5t-100 69t-124.5 25t-124.5 -25t-100 -69t-66.5 -104.5t-24 -131.5zM256 809h297v-24h-297v24z" />
    <glyph glyph-name="omacron" unicode="&#x14d;" horiz-adv-x="569" 
d="M52 225q0 51 17 93.5t48 74t73.5 49t93.5 17.5t94 -17.5t74 -49t48 -74t17 -93.5t-17 -93.5t-48 -74t-74 -49t-94 -17.5t-93.5 17.5t-73.5 49t-48 74t-17 93.5zM81 225q0 -45 15 -83t42 -65.5t64 -43t82 -15.5t82 15.5t64 43t42 65.5t15 83t-15 83t-42 65.5t-64 43
t-82 15.5q-44 0 -81.5 -15.5t-64.5 -43t-42 -65.5t-15 -83zM164 649h242v-25h-242v25z" />
    <glyph glyph-name="Ohungarumlaut" unicode="&#x150;" horiz-adv-x="807" 
d="M57 350q0 76 26.5 141.5t73 114t109.5 76t137 27.5q73 0 136.5 -27t110 -75t73 -114t26.5 -143t-26.5 -142.5t-73 -113.5t-110 -75.5t-136.5 -27.5t-136.5 27t-110 75t-73 114t-26.5 143zM88 350q0 -71 24 -131t66.5 -104.5t100 -69.5t124.5 -25q68 0 125.5 25t99.5 69.5
t66 104.5t24 131t-24 131.5t-66.5 104.5t-100 69t-124.5 25t-124.5 -25t-100 -69t-66.5 -104.5t-24 -131.5zM477 740l-13 14l156 98l17 -19zM305 740l-13 14l148 98l21 -15z" />
    <glyph glyph-name="ohungarumlaut" unicode="&#x151;" horiz-adv-x="569" 
d="M52 225q0 51 17 93.5t48 74t73.5 49t93.5 17.5t94 -17.5t74 -49t48 -74t17 -93.5t-17 -93.5t-48 -74t-74 -49t-94 -17.5t-93.5 17.5t-73.5 49t-48 74t-17 93.5zM81 225q0 -45 15 -83t42 -65.5t64 -43t82 -15.5t82 15.5t64 43t42 65.5t15 83t-15 83t-42 65.5t-64 43
t-82 15.5q-44 0 -81.5 -15.5t-64.5 -43t-42 -65.5t-15 -83zM351 552l-18 12l111 145l20 -17zM207 552l-18 12l108 146l20 -15z" />
    <glyph glyph-name="OE" unicode="&#x152;" horiz-adv-x="1048" 
d="M589 43q-35 -24 -83 -38t-102 -14q-77 0 -141 25.5t-109.5 72.5t-71 113t-25.5 148q0 75 24 140.5t68.5 114t106.5 76.5t139 28q59 0 107 -12.5t87 -39.5v43h380v-28h-350v-302h320v-28h-320v-314h360v-28h-390v43zM406 20q57 0 102.5 15t80.5 42v547q-39 30 -86.5 43
t-106.5 13q-69 0 -126 -25.5t-97.5 -69.5t-62.5 -104.5t-22 -130.5q0 -75 23.5 -135.5t65.5 -104t100.5 -67t128.5 -23.5z" />
    <glyph glyph-name="oe" unicode="&#x153;" horiz-adv-x="847" 
d="M772 59q-29 -34 -74 -51t-90 -17q-50 0 -91 15t-73 43q-63 -58 -159 -58q-51 0 -94 17.5t-74 49t-48 74t-17 93.5t17 93.5t48 74t74 49t94 17.5q46 0 85.5 -15t68.5 -41q28 26 66.5 41t89.5 15q43 0 80 -14.5t64 -41t42 -63.5t15 -83q0 -9 -0.5 -16.5t-1.5 -14.5h-391
q1 -97 56.5 -152.5t149.5 -55.5q48 0 87.5 17.5t64.5 44.5zM285 18q42 0 77.5 13.5t61.5 37.5q-25 30 -38.5 69t-13.5 87q0 47 12.5 87t37.5 71q-26 23 -60.5 36t-76.5 13q-44 0 -81.5 -15.5t-64.5 -43t-42 -65.5t-15 -83t15 -83t42 -65.5t64 -43t82 -15.5zM591 432
q-44 0 -78 -14t-58 -38t-37.5 -57.5t-16.5 -72.5h367q0 85 -48 133.5t-129 48.5z" />
    <glyph glyph-name="Racute" unicode="&#x154;" horiz-adv-x="621" 
d="M116 0v700q15 0 37.5 0.5t45 0.5t41.5 0.5t27 0.5q72 0 118.5 -16.5t74 -43.5t38.5 -62.5t11 -73.5q0 -35 -13 -67t-36 -57.5t-55.5 -44t-72.5 -25.5l254 -312h-37l-249 306h-154v-306h-30zM265 674h-22.5t-32 -0.5l-35 -1t-29.5 -0.5v-338h136q36 0 71 12.5t63 35.5
t45 54.5t17 69.5q0 36 -11 66.5t-36 53t-66 35.5t-100 13zM219 740l-9 18l165 94l11 -23z" />
    <glyph glyph-name="racute" unicode="&#x155;" horiz-adv-x="320" 
d="M85 450h29v-65q20 30 51 51.5t76 21.5q28 0 43.5 -4.5t26.5 -12.5l-9 -27q-17 10 -29.5 13.5t-35.5 3.5q-24 0 -43 -7t-34 -18.5t-26 -25.5t-20 -28v-352h-29v450zM178 552l-18 12l109 146l21 -17z" />
    <glyph glyph-name="Rcommaaccent" unicode="&#x156;" horiz-adv-x="621" 
d="M116 0v700q15 0 37.5 0.5t45 0.5t41.5 0.5t27 0.5q72 0 118.5 -16.5t74 -43.5t38.5 -62.5t11 -73.5q0 -35 -13 -67t-36 -57.5t-55.5 -44t-72.5 -25.5l254 -312h-37l-249 306h-154v-306h-30zM265 674h-22.5t-32 -0.5l-35 -1t-29.5 -0.5v-338h136q36 0 71 12.5t63 35.5
t45 54.5t17 69.5q0 36 -11 66.5t-36 53t-66 35.5t-100 13zM294 -64q17 -2 28.5 -15t11.5 -35q0 -38 -19.5 -57.5t-50.5 -29.5l-8 15q25 10 37.5 25.5t12.5 40.5q0 21 -9 31t-23 13z" />
    <glyph glyph-name="rcommaaccent" unicode="&#x157;" horiz-adv-x="320" 
d="M85 450h29v-65q20 30 51 51.5t76 21.5q28 0 43.5 -4.5t26.5 -12.5l-9 -27q-17 10 -29.5 13.5t-35.5 3.5q-24 0 -43 -7t-34 -18.5t-26 -25.5t-20 -28v-352h-29v450zM140 -64q17 -2 28.5 -15t11.5 -35q0 -38 -19.5 -57.5t-50.5 -29.5l-8 15q25 10 37.5 25.5t12.5 40.5
q0 21 -9 31t-23 13z" />
    <glyph glyph-name="Rcaron" unicode="&#x158;" horiz-adv-x="621" 
d="M116 0v700q15 0 37.5 0.5t45 0.5t41.5 0.5t27 0.5q72 0 118.5 -16.5t74 -43.5t38.5 -62.5t11 -73.5q0 -35 -13 -67t-36 -57.5t-55.5 -44t-72.5 -25.5l254 -312h-37l-249 306h-154v-306h-30zM265 674h-22.5t-32 -0.5l-35 -1t-29.5 -0.5v-338h136q36 0 71 12.5t63 35.5
t45 54.5t17 69.5q0 36 -11 66.5t-36 53t-66 35.5t-100 13zM105 835l13 17l156 -85l154 85l14 -17l-166 -93h-4z" />
    <glyph glyph-name="rcaron" unicode="&#x159;" horiz-adv-x="320" 
d="M85 450h29v-65q20 30 51 51.5t76 21.5q28 0 43.5 -4.5t26.5 -12.5l-9 -27q-17 10 -29.5 13.5t-35.5 3.5q-24 0 -43 -7t-34 -18.5t-26 -25.5t-20 -28v-352h-29v450zM65 691l16 18l108 -119l107 118l16 -17l-121 -131h-4z" />
    <glyph glyph-name="Sacute" unicode="&#x15a;" horiz-adv-x="543" 
d="M455 170q0 55 -28 87.5t-70 54t-91.5 37.5t-91.5 39t-70 58t-28 94q0 36 13 66.5t38.5 53.5t63 36t85.5 13q57 0 106 -19.5t78 -51.5l-17 -21q-32 32 -74.5 47.5t-93.5 15.5q-78 0 -123 -38.5t-45 -101.5q0 -41 16.5 -68t43 -46t60.5 -32.5t69.5 -26.5t69.5 -28t60.5 -37
t43 -53.5t16.5 -77.5q0 -41 -17 -74.5t-46.5 -57t-69.5 -36t-86 -12.5q-30 0 -61.5 7t-60 20t-52 31t-36.5 41l19 20q16 -21 38 -38t47.5 -28.5t52 -17.5t51.5 -6q36 0 70.5 9.5t61 28t42.5 46.5t16 66zM236 740l-9 18l165 94l11 -23z" />
    <glyph glyph-name="sacute" unicode="&#x15b;" horiz-adv-x="409" 
d="M323 114q0 33 -19 51.5t-47 30.5t-61 21.5t-61 24.5t-47 39t-19 65q0 50 37 81.5t100 31.5q41 0 75.5 -14t53.5 -34l-14 -21q-20 21 -50.5 32t-65.5 11q-50 0 -78.5 -25.5t-28.5 -60.5t19 -55t47 -32.5t61 -22t61 -23.5t47 -36.5t19 -61.5q0 -32 -12 -55.5t-33 -39
t-48.5 -23t-57.5 -7.5q-21 0 -43.5 5t-42.5 14t-35.5 20t-23.5 23l18 18q9 -12 24 -22t32.5 -17t36 -11t35.5 -4q23 0 44.5 6t38.5 18t27.5 30t10.5 43zM194 552l-18 12l109 146l21 -17z" />
    <glyph glyph-name="Scircumflex" unicode="&#x15c;" horiz-adv-x="543" 
d="M455 170q0 55 -28 87.5t-70 54t-91.5 37.5t-91.5 39t-70 58t-28 94q0 36 13 66.5t38.5 53.5t63 36t85.5 13q57 0 106 -19.5t78 -51.5l-17 -21q-32 32 -74.5 47.5t-93.5 15.5q-78 0 -123 -38.5t-45 -101.5q0 -41 16.5 -68t43 -46t60.5 -32.5t69.5 -26.5t69.5 -28t60.5 -37
t43 -53.5t16.5 -77.5q0 -41 -17 -74.5t-46.5 -57t-69.5 -36t-86 -12.5q-30 0 -61.5 7t-60 20t-52 31t-36.5 41l19 20q16 -21 38 -38t47.5 -28.5t52 -17.5t51.5 -6q36 0 70.5 9.5t61 28t42.5 46.5t16 66zM269 851h4l167 -93l-15 -18l-154 85l-155 -85l-13 17z" />
    <glyph glyph-name="scircumflex" unicode="&#x15d;" horiz-adv-x="409" 
d="M323 114q0 33 -19 51.5t-47 30.5t-61 21.5t-61 24.5t-47 39t-19 65q0 50 37 81.5t100 31.5q41 0 75.5 -14t53.5 -34l-14 -21q-20 21 -50.5 32t-65.5 11q-50 0 -78.5 -25.5t-28.5 -60.5t19 -55t47 -32.5t61 -22t61 -23.5t47 -36.5t19 -61.5q0 -32 -12 -55.5t-33 -39
t-48.5 -23t-57.5 -7.5q-21 0 -43.5 5t-42.5 14t-35.5 20t-23.5 23l18 18q9 -12 24 -22t32.5 -17t36 -11t35.5 -4q23 0 44.5 6t38.5 18t27.5 30t10.5 43zM330 577l-15 -18l-107 114l-108 -113l-16 17l122 131h4z" />
    <glyph glyph-name="Scedilla" unicode="&#x15e;" horiz-adv-x="543" 
d="M186 -160q19 -10 38 -15.5t36 -5.5q35 0 58 14.5t23 39.5t-18.5 39.5t-63.5 14.5h-6v65q-29 1 -58.5 8.5t-55.5 20.5t-47.5 30.5t-34.5 38.5l19 20q16 -21 38 -38t47.5 -28.5t52 -17.5t51.5 -6q36 0 70.5 9.5t61 28t42.5 46.5t16 66q0 55 -28 87.5t-70 54t-91.5 37.5
t-91.5 39t-70 58t-28 94q0 36 13 66.5t38.5 53.5t63 36t85.5 13q57 0 106 -19.5t78 -51.5l-17 -21q-32 32 -74.5 47.5t-93.5 15.5q-78 0 -123 -38.5t-45 -101.5q0 -41 16.5 -68t43 -46t60.5 -32.5t69.5 -26.5t69.5 -28t60.5 -37t43 -53.5t16.5 -77.5q0 -41 -16.5 -74
t-45.5 -56t-68 -36t-84 -14v-47q53 -1 75.5 -20.5t22.5 -51.5t-28 -52.5t-77 -20.5q-27 0 -48 6.5t-41 17.5z" />
    <glyph glyph-name="scedilla" unicode="&#x15f;" horiz-adv-x="409" 
d="M119 -161q38 -20 73 -20t58 14.5t23 39.5t-18.5 39.5t-63.5 14.5h-6v65q-20 2 -40 7.5t-37.5 14t-31 18.5t-20.5 21l18 18q9 -12 24 -22t32.5 -17t36 -11t35.5 -4q23 0 44.5 6t38.5 18t27.5 30t10.5 43q0 33 -19 51.5t-47 30.5t-61 21.5t-61 24.5t-47 39t-19 65
q0 50 37 81.5t100 31.5q41 0 75.5 -14t53.5 -34l-14 -21q-20 21 -50.5 32t-65.5 11q-50 0 -78.5 -25.5t-28.5 -60.5t19 -55t47 -32.5t61 -22t61 -23.5t47 -36.5t19 -61.5q0 -32 -12 -55t-32.5 -38.5t-47 -23.5t-56.5 -8v-47q52 -1 74.5 -20.5t22.5 -51.5t-28 -52.5
t-78 -20.5q-26 0 -46 6.5t-40 16.5z" />
    <glyph glyph-name="Scaron" unicode="&#x160;" horiz-adv-x="543" 
d="M455 170q0 55 -28 87.5t-70 54t-91.5 37.5t-91.5 39t-70 58t-28 94q0 36 13 66.5t38.5 53.5t63 36t85.5 13q57 0 106 -19.5t78 -51.5l-17 -21q-32 32 -74.5 47.5t-93.5 15.5q-78 0 -123 -38.5t-45 -101.5q0 -41 16.5 -68t43 -46t60.5 -32.5t69.5 -26.5t69.5 -28t60.5 -37
t43 -53.5t16.5 -77.5q0 -41 -17 -74.5t-46.5 -57t-69.5 -36t-86 -12.5q-30 0 -61.5 7t-60 20t-52 31t-36.5 41l19 20q16 -21 38 -38t47.5 -28.5t52 -17.5t51.5 -6q36 0 70.5 9.5t61 28t42.5 46.5t16 66zM109 835l13 17l156 -85l154 85l14 -17l-166 -93h-4z" />
    <glyph glyph-name="scaron" unicode="&#x161;" horiz-adv-x="409" 
d="M323 114q0 33 -19 51.5t-47 30.5t-61 21.5t-61 24.5t-47 39t-19 65q0 50 37 81.5t100 31.5q41 0 75.5 -14t53.5 -34l-14 -21q-20 21 -50.5 32t-65.5 11q-50 0 -78.5 -25.5t-28.5 -60.5t19 -55t47 -32.5t61 -22t61 -23.5t47 -36.5t19 -61.5q0 -32 -12 -55.5t-33 -39
t-48.5 -23t-57.5 -7.5q-21 0 -43.5 5t-42.5 14t-35.5 20t-23.5 23l18 18q9 -12 24 -22t32.5 -17t36 -11t35.5 -4q23 0 44.5 6t38.5 18t27.5 30t10.5 43zM81 691l16 18l108 -119l107 118l16 -17l-121 -131h-4z" />
    <glyph glyph-name="Tcommaaccent" unicode="&#x162;" horiz-adv-x="591" 
d="M219 -160q19 -10 38 -15.5t36 -5.5q35 0 58 14.5t23 39.5t-18.5 39.5t-63.5 14.5h-6v73h-5v672h-271v28h571v-28h-271v-672h-5v-56q53 -1 75.5 -20.5t22.5 -51.5t-28 -52.5t-77 -20.5q-27 0 -48 6.5t-41 17.5z" />
    <glyph glyph-name="tcommaaccent" unicode="&#x163;" horiz-adv-x="344" 
d="M104 -161q38 -20 73 -20t58 14.5t23 39.5t-18.5 39.5t-63.5 14.5h-6v73q-51 13 -73 56t-22 115v404h29v-125h194v-27h-194v-243q0 -78 27 -118t90 -40q23 0 42 7.5t31 16.5l12 -23q-15 -11 -38 -19.5t-52 -8.5q-8 0 -14.5 0.5t-12.5 1.5v-53q52 -1 74.5 -20.5t22.5 -51.5
t-28 -52.5t-78 -20.5q-26 0 -46 6.5t-40 16.5z" />
    <glyph glyph-name="Tcaron" unicode="&#x164;" horiz-adv-x="591" 
d="M10 700h571v-28h-271v-672h-29v672h-271v28zM127 835l13 17l156 -85l154 85l14 -17l-166 -93h-4z" />
    <glyph glyph-name="tcaron" unicode="&#x165;" horiz-adv-x="344" 
d="M75 575h29v-125h194v-27h-194v-243q0 -78 27 -118t90 -40q23 0 42 7.5t31 16.5l12 -23q-15 -11 -38 -19.5t-52 -8.5q-75 0 -108 44.5t-33 131.5v404zM267 700q4 -8 6.5 -17.5t2.5 -24.5q0 -48 -19.5 -79t-45.5 -44l-12 15q23 14 36.5 42t13.5 63q0 27 -10 45h28z" />
    <glyph glyph-name="Umacron" unicode="&#x16a;" horiz-adv-x="751" 
d="M645 294q0 -80 -21 -137t-57 -93.5t-83 -53.5t-99 -17q-59 0 -110 19.5t-88.5 58t-59 96t-21.5 134.5v399h30v-395q0 -69 18.5 -122t52 -89t79 -54.5t99.5 -18.5q48 0 90 16.5t73 50.5t49 87t18 126v399h30v-406zM228 809h297v-24h-297v24z" />
    <glyph glyph-name="umacron" unicode="&#x16b;" horiz-adv-x="547" 
d="M462 0h-28v78q-14 -17 -33.5 -32.5t-43 -27.5t-50.5 -19.5t-54 -7.5q-89 0 -133.5 49t-44.5 154v256h29v-249q0 -92 37.5 -137.5t120.5 -45.5q27 0 53.5 8.5t49 21t40.5 28.5t29 31v343h28v-450zM152 649h242v-25h-242v25z" />
    <glyph glyph-name="Ubreve" unicode="&#x16c;" horiz-adv-x="751" 
d="M645 294q0 -80 -21 -137t-57 -93.5t-83 -53.5t-99 -17q-59 0 -110 19.5t-88.5 58t-59 96t-21.5 134.5v399h30v-395q0 -69 18.5 -122t52 -89t79 -54.5t99.5 -18.5q48 0 90 16.5t73 50.5t49 87t18 126v399h30v-406zM234 850q8 -9 20.5 -21t30.5 -22.5t40.5 -17.5t51.5 -7
q50 0 85 21.5t55 46.5l13 -15q-11 -15 -25.5 -29t-34 -25t-43 -18t-50.5 -7q-32 0 -58 8.5t-45.5 20.5t-33 25.5t-20.5 24.5z" />
    <glyph glyph-name="ubreve" unicode="&#x16d;" horiz-adv-x="547" 
d="M462 0h-28v78q-14 -17 -33.5 -32.5t-43 -27.5t-50.5 -19.5t-54 -7.5q-89 0 -133.5 49t-44.5 154v256h29v-249q0 -92 37.5 -137.5t120.5 -45.5q27 0 53.5 8.5t49 21t40.5 28.5t29 31v343h28v-450zM153 680q7 -9 18 -20.5t26 -22t34 -17.5t43 -7q42 0 70.5 21t48.5 46
l12 -15q-10 -14 -22.5 -27.5t-28.5 -24.5t-36 -18t-45 -7q-28 0 -50.5 8.5t-39 20.5t-27.5 25.5t-17 22.5z" />
    <glyph glyph-name="Uring" unicode="&#x16e;" horiz-adv-x="751" 
d="M645 294q0 -80 -21 -137t-57 -93.5t-83 -53.5t-99 -17q-59 0 -110 19.5t-88.5 58t-59 96t-21.5 134.5v399h30v-395q0 -69 18.5 -122t52 -89t79 -54.5t99.5 -18.5q48 0 90 16.5t73 50.5t49 87t18 126v399h30v-406zM275 779q0 42 29 61.5t71 19.5t72 -19.5t30 -61.5
q0 -41 -30 -62t-72 -21t-71 21t-29 62zM298 779q0 -32 22.5 -48t54.5 -16q33 0 56 16t23 48q0 33 -23 47.5t-56 14.5q-32 0 -54.5 -14.5t-22.5 -47.5z" />
    <glyph glyph-name="uring" unicode="&#x16f;" horiz-adv-x="547" 
d="M462 0h-28v78q-14 -17 -33.5 -32.5t-43 -27.5t-50.5 -19.5t-54 -7.5q-89 0 -133.5 49t-44.5 154v256h29v-249q0 -92 37.5 -137.5t120.5 -45.5q27 0 53.5 8.5t49 21t40.5 28.5t29 31v343h28v-450zM174 614q0 41 28 69.5t70 28.5t70.5 -28.5t28.5 -69.5q0 -20 -7.5 -37.5
t-21 -30.5t-31.5 -20.5t-39 -7.5t-38.5 7.5t-31 20.5t-21 30.5t-7.5 37.5zM195 615q0 -33 22 -55.5t55 -22.5q32 0 55 22.5t23 55.5q0 32 -23 55t-55 23q-33 0 -55 -23t-22 -55z" />
    <glyph glyph-name="Uhungarumlaut" unicode="&#x170;" horiz-adv-x="751" 
d="M645 294q0 -80 -21 -137t-57 -93.5t-83 -53.5t-99 -17q-59 0 -110 19.5t-88.5 58t-59 96t-21.5 134.5v399h30v-395q0 -69 18.5 -122t52 -89t79 -54.5t99.5 -18.5q48 0 90 16.5t73 50.5t49 87t18 126v399h30v-406zM436 740l-13 14l156 98l17 -19zM264 740l-13 14l148 98
l21 -15z" />
    <glyph glyph-name="uhungarumlaut" unicode="&#x171;" horiz-adv-x="547" 
d="M462 0h-28v78q-14 -17 -33.5 -32.5t-43 -27.5t-50.5 -19.5t-54 -7.5q-89 0 -133.5 49t-44.5 154v256h29v-249q0 -92 37.5 -137.5t120.5 -45.5q27 0 53.5 8.5t49 21t40.5 28.5t29 31v343h28v-450zM340 552l-18 12l111 145l20 -17zM196 552l-18 12l108 146l20 -15z" />
    <glyph glyph-name="Uogonek" unicode="&#x172;" horiz-adv-x="751" 
d="M645 294q0 -69 -15.5 -120.5t-42.5 -87.5t-64 -57.5t-79 -29.5q-37 -16 -63.5 -40t-26.5 -62q0 -22 9 -36t22 -22.5t27.5 -11.5t24.5 -3q9 0 21.5 1.5t25.5 7.5l9 -19q-13 -7 -29.5 -10.5t-31.5 -3.5q-16 0 -34.5 4t-34.5 14.5t-26.5 28t-10.5 44.5q0 36 22.5 61t57.5 42
q-5 -1 -10.5 -1h-10.5q-59 0 -110 19.5t-88.5 58t-59 96t-21.5 134.5v399h30v-395q0 -69 18.5 -122t52 -89t79 -54.5t99.5 -18.5q48 0 90 16.5t73 50.5t49 87t18 126v399h30v-406z" />
    <glyph glyph-name="uogonek" unicode="&#x173;" horiz-adv-x="547" 
d="M467 -186q-13 -7 -29.5 -10.5t-31.5 -3.5q-16 0 -34.5 4t-34.5 14.5t-26.5 28t-10.5 44.5q0 24 11.5 44.5t30 35.5t42.5 25t50 14v68q-14 -17 -33.5 -32.5t-43 -27.5t-50.5 -19.5t-54 -7.5q-89 0 -133.5 49t-44.5 154v256h29v-249q0 -92 37.5 -137.5t120.5 -45.5
q27 0 53.5 8.5t49 21t40.5 28.5t29 31v343h28v-450h-5q-24 -1 -47 -8.5t-41.5 -21t-29.5 -32.5t-11 -41t9 -36t22 -22.5t27.5 -11.5t24.5 -3q9 0 21.5 1.5t25.5 7.5z" />
    <glyph glyph-name="Ydieresis" unicode="&#x178;" horiz-adv-x="567" 
d="M297 311v-311h-29v311l-251 389h35l231 -361l233 361h34zM144 796q0 10 7 15.5t17 5.5q9 0 16 -5.5t7 -15.5q0 -11 -7 -16.5t-16 -5.5q-10 0 -17 5.5t-7 16.5zM378 796q0 10 7 15.5t17 5.5q8 0 15 -5.5t7 -15.5q0 -11 -7 -16.5t-15 -5.5q-10 0 -17 5.5t-7 16.5z" />
    <glyph glyph-name="Zacute" unicode="&#x179;" horiz-adv-x="624" 
d="M60 700h514v-16l-491 -656h501v-28h-544v16l490 656h-470v28zM275 740l-9 18l165 94l11 -23z" />
    <glyph glyph-name="zacute" unicode="&#x17a;" horiz-adv-x="478" 
d="M64 450h365v-16l-338 -407h333v-27h-375v16l336 407h-321v27zM230 552l-18 12l109 146l21 -17z" />
    <glyph glyph-name="Zdotaccent" unicode="&#x17b;" horiz-adv-x="624" 
d="M60 700h514v-16l-491 -656h501v-28h-544v16l490 656h-470v28zM280 797q0 11 7 16.5t18 5.5q8 0 15 -5.5t7 -16.5t-7 -17.5t-15 -6.5q-11 0 -18 6.5t-7 17.5z" />
    <glyph glyph-name="zdotaccent" unicode="&#x17c;" horiz-adv-x="478" 
d="M64 450h365v-16l-338 -407h333v-27h-375v16l336 407h-321v27zM215 629q0 9 7 15.5t16 6.5q8 0 14.5 -6.5t6.5 -15.5q0 -10 -6.5 -16.5t-14.5 -6.5q-9 0 -16 6.5t-7 16.5z" />
    <glyph glyph-name="Zcaron" unicode="&#x17d;" horiz-adv-x="624" 
d="M60 700h514v-16l-491 -656h501v-28h-544v16l490 656h-470v28zM142 835l13 17l156 -85l154 85l14 -17l-166 -93h-4z" />
    <glyph glyph-name="zcaron" unicode="&#x17e;" horiz-adv-x="478" 
d="M64 450h365v-16l-338 -407h333v-27h-375v16l336 407h-321v27zM117 691l16 18l108 -119l107 118l16 -17l-121 -131h-4z" />
    <glyph glyph-name="longs" unicode="&#x17f;" horiz-adv-x="252" 
d="M103 523q0 94 39 140t114 46q41 0 68 -11.5t44 -25.5l-11 -22q-19 14 -41.5 23t-56.5 9q-63 0 -95.5 -40t-32.5 -128v-514h-28v523z" />
    <glyph glyph-name="uni018F" unicode="&#x18f;" horiz-adv-x="778" 
d="M688 371q-3 71 -27 128t-66 97.5t-100 62t-130 21.5q-54 0 -104 -14t-92 -46l-13 21q40 35 98 51.5t116 16.5q80 0 144.5 -25t110.5 -71.5t70.5 -112t24.5 -147.5q0 -77 -23.5 -143t-67 -114.5t-106 -76.5t-140.5 -28t-140.5 28.5t-106 79.5t-66 120.5t-21.5 151.5h639z
M382 20q72 0 128 25t95.5 68.5t60.5 102.5t23 127h-609q1 -67 22.5 -126t60.5 -102.5t94.5 -69t124.5 -25.5z" />
    <glyph glyph-name="florin" unicode="&#x192;" 
d="M328 450h183v-27h-188l-82 -456q-8 -42 -19.5 -74.5t-30.5 -55t-46 -34t-64 -11.5q-27 0 -49 8t-36 18l10 23q12 -8 30.5 -15t39.5 -7q32 0 55 10t39 29t26 47.5t17 65.5l81 452h-171v27h176l13 73q17 95 56 140.5t114 45.5q41 0 68.5 -11.5t44.5 -25.5l-12 -22
q-18 14 -40.5 23t-56.5 9q-63 0 -96.5 -40t-49.5 -128z" />
    <glyph glyph-name="uni01DD" unicode="&#x1dd;" horiz-adv-x="527" 
d="M76 391q15 17 35.5 29.5t43.5 21t47 13t47 4.5q52 0 93.5 -16.5t71 -47t45.5 -74t16 -96.5q0 -49 -14 -92t-41.5 -74.5t-68 -49.5t-93.5 -18q-46 0 -84 14.5t-65.5 41t-43 63.5t-15.5 83q0 9 1 20.5t1 19.5h392q0 41 -13.5 77t-38.5 63t-61.5 43t-82.5 16
q-48 0 -92 -17.5t-69 -44.5zM261 18q42 0 75.5 14.5t57.5 40t37.5 60t14.5 75.5h-367q-2 -93 47.5 -141.5t134.5 -48.5z" />
    <glyph glyph-name="Scommaaccent" unicode="&#x218;" horiz-adv-x="543" 
d="M455 170q0 55 -28 87.5t-70 54t-91.5 37.5t-91.5 39t-70 58t-28 94q0 36 13 66.5t38.5 53.5t63 36t85.5 13q57 0 106 -19.5t78 -51.5l-17 -21q-32 32 -74.5 47.5t-93.5 15.5q-78 0 -123 -38.5t-45 -101.5q0 -41 16.5 -68t43 -46t60.5 -32.5t69.5 -26.5t69.5 -28t60.5 -37
t43 -53.5t16.5 -77.5q0 -41 -17 -74.5t-46.5 -57t-69.5 -36t-86 -12.5q-30 0 -61.5 7t-60 20t-52 31t-36.5 41l19 20q16 -21 38 -38t47.5 -28.5t52 -17.5t51.5 -6q36 0 70.5 9.5t61 28t42.5 46.5t16 66zM263 -64q17 -2 28.5 -15t11.5 -35q0 -38 -19.5 -57.5t-50.5 -29.5
l-8 15q25 10 37.5 25.5t12.5 40.5q0 21 -9 31t-23 13z" />
    <glyph glyph-name="scommaaccent" unicode="&#x219;" horiz-adv-x="409" 
d="M323 114q0 33 -19 51.5t-47 30.5t-61 21.5t-61 24.5t-47 39t-19 65q0 50 37 81.5t100 31.5q41 0 75.5 -14t53.5 -34l-14 -21q-20 21 -50.5 32t-65.5 11q-50 0 -78.5 -25.5t-28.5 -60.5t19 -55t47 -32.5t61 -22t61 -23.5t47 -36.5t19 -61.5q0 -32 -12 -55.5t-33 -39
t-48.5 -23t-57.5 -7.5q-21 0 -43.5 5t-42.5 14t-35.5 20t-23.5 23l18 18q9 -12 24 -22t32.5 -17t36 -11t35.5 -4q23 0 44.5 6t38.5 18t27.5 30t10.5 43zM203 -64q17 -2 28.5 -15t11.5 -35q0 -38 -19.5 -57.5t-50.5 -29.5l-8 15q25 10 37.5 25.5t12.5 40.5q0 21 -9 31t-23 13
z" />
    <glyph glyph-name="uni021A" unicode="&#x21a;" horiz-adv-x="591" 
d="M10 700h571v-28h-271v-672h-29v672h-271v28zM293 -64q17 -2 28.5 -15t11.5 -35q0 -38 -19.5 -57.5t-50.5 -29.5l-8 15q25 10 37.5 25.5t12.5 40.5q0 21 -9 31t-23 13z" />
    <glyph glyph-name="uni021B" unicode="&#x21b;" horiz-adv-x="344" 
d="M75 575h29v-125h194v-27h-194v-243q0 -78 27 -118t90 -40q23 0 42 7.5t31 16.5l12 -23q-15 -11 -38 -19.5t-52 -8.5q-75 0 -108 44.5t-33 131.5v404zM190 -64q17 -2 28.5 -15t11.5 -35q0 -38 -19.5 -57.5t-50.5 -29.5l-8 15q25 10 37.5 25.5t12.5 40.5q0 21 -9 31t-23 13
z" />
    <glyph glyph-name="uni0237" unicode="&#x237;" horiz-adv-x="255" 
d="M143 -33q0 -83 -33 -129t-108 -46q-26 0 -48.5 8t-36.5 18l10 23q12 -8 31 -15t40 -7q63 0 90 38.5t27 110.5v482h28v-483z" />
    <glyph glyph-name="uni0259" unicode="&#x259;" horiz-adv-x="527" 
d="M76 391q15 17 35.5 29.5t43.5 21t47 13t47 4.5q52 0 93.5 -16.5t71 -47t45.5 -74t16 -96.5q0 -49 -14 -92t-41.5 -74.5t-68 -49.5t-93.5 -18q-46 0 -84 14.5t-65.5 41t-43 63.5t-15.5 83q0 9 1 20.5t1 19.5h392q0 41 -13.5 77t-38.5 63t-61.5 43t-82.5 16
q-48 0 -92 -17.5t-69 -44.5zM261 18q42 0 75.5 14.5t57.5 40t37.5 60t14.5 75.5h-367q-2 -93 47.5 -141.5t134.5 -48.5z" />
    <glyph glyph-name="afii57929" unicode="&#x2bc;" horiz-adv-x="197" 
d="M114 649q9 -10 16 -26.5t7 -38.5q0 -45 -17.5 -73t-47.5 -44l-12 15q24 14 37 39t13 57q0 20 -6.5 33.5t-13.5 20.5z" />
    <glyph glyph-name="circumflex" unicode="&#x2c6;" horiz-adv-x="366" 
d="M306 577l-15 -18l-107 114l-108 -113l-16 17l122 131h4z" />
    <glyph glyph-name="caron" unicode="&#x2c7;" horiz-adv-x="367" 
d="M60 691l16 18l108 -119l107 118l16 -17l-121 -131h-4z" />
    <glyph glyph-name="breve" unicode="&#x2d8;" horiz-adv-x="386" 
d="M74 680q7 -9 18 -20.5t26 -22t34 -17.5t43 -7q42 0 70.5 21t48.5 46l12 -15q-10 -14 -22.5 -27.5t-28.5 -24.5t-36 -18t-45 -7q-28 0 -50.5 8.5t-39 20.5t-27.5 25.5t-17 22.5z" />
    <glyph glyph-name="dotaccent" unicode="&#x2d9;" horiz-adv-x="164" 
d="M60 629q0 9 7 15.5t16 6.5q8 0 14.5 -6.5t6.5 -15.5q0 -10 -6.5 -16.5t-14.5 -6.5q-9 0 -16 6.5t-7 16.5z" />
    <glyph glyph-name="ring" unicode="&#x2da;" horiz-adv-x="317" 
d="M60 614q0 41 28 69.5t70 28.5t70.5 -28.5t28.5 -69.5q0 -20 -7.5 -37.5t-21 -30.5t-31.5 -20.5t-39 -7.5t-38.5 7.5t-31 20.5t-21 30.5t-7.5 37.5zM81 615q0 -33 22 -55.5t55 -22.5q32 0 55 22.5t23 55.5q0 32 -23 55t-55 23q-33 0 -55 -23t-22 -55z" />
    <glyph glyph-name="ogonek" unicode="&#x2db;" horiz-adv-x="287" 
d="M227 -186q-13 -7 -29.5 -10.5t-31.5 -3.5q-16 0 -34.5 4t-34.5 14.5t-26.5 28t-10.5 44.5q0 28 14.5 50t37.5 38t52 24.5t58 8.5v-12q-24 0 -48 -7.5t-43 -21t-31 -32.5t-12 -42q0 -22 9 -36t22 -22.5t27.5 -11.5t24.5 -3q9 0 21.5 1.5t25.5 7.5z" />
    <glyph glyph-name="tilde" unicode="&#x2dc;" horiz-adv-x="410" 
d="M60 601q29 26 51.5 36t41.5 10q18 0 31.5 -7.5t25.5 -16.5t24.5 -16.5t27.5 -7.5q16 0 33.5 9t42.5 32l12 -16q-28 -27 -50.5 -38t-40.5 -11q-17 0 -29.5 7.5t-25 16t-25.5 16t-30 7.5q-15 0 -33.5 -8t-42.5 -28z" />
    <glyph glyph-name="hungarumlaut" unicode="&#x2dd;" horiz-adv-x="395" 
d="M222 552l-18 12l111 145l20 -17zM78 552l-18 12l108 146l20 -15z" />
    <glyph glyph-name="gravecomb" unicode="&#x300;" horiz-adv-x="0" 
d="M-369 693l21 17l109 -146l-18 -12z" />
    <glyph glyph-name="acutecomb" unicode="&#x301;" horiz-adv-x="0" 
d="M-284 552l-18 12l109 146l21 -17z" />
    <glyph glyph-name="Delta" unicode="&#x394;" horiz-adv-x="704" 
d="M340 708h16l310 -708h-629zM81 28h541l-274 628z" />
    <glyph glyph-name="Delta" unicode="&#x2206;" horiz-adv-x="704" 
d="M340 708h16l310 -708h-629zM81 28h541l-274 628z" />
    <glyph glyph-name="Omega" unicode="&#x3a9;" horiz-adv-x="807" 
d="M90 28h187q-47 16 -87 46.5t-69 73.5t-45.5 95.5t-16.5 111.5q0 76 26.5 141t73 112t109.5 74t136 27t136 -27t109 -74t72.5 -112t26.5 -141q0 -60 -16.5 -112.5t-46 -95t-69.5 -73t-87 -46.5h188v-28h-246v28q54 12 99.5 41.5t78 72.5t50.5 96.5t18 113.5
q0 69 -23.5 129t-65.5 104.5t-99.5 69.5t-124.5 25q-68 0 -125.5 -25.5t-99.5 -69.5t-65.5 -104t-23.5 -130q0 -59 18 -112.5t50 -96.5t77.5 -72.5t99.5 -41.5v-28h-245v28z" />
    <glyph glyph-name="Omega" unicode="&#x2126;" horiz-adv-x="807" 
d="M90 28h187q-47 16 -87 46.5t-69 73.5t-45.5 95.5t-16.5 111.5q0 76 26.5 141t73 112t109.5 74t136 27t136 -27t109 -74t72.5 -112t26.5 -141q0 -60 -16.5 -112.5t-46 -95t-69.5 -73t-87 -46.5h188v-28h-246v28q54 12 99.5 41.5t78 72.5t50.5 96.5t18 113.5
q0 69 -23.5 129t-65.5 104.5t-99.5 69.5t-124.5 25q-68 0 -125.5 -25.5t-99.5 -69.5t-65.5 -104t-23.5 -130q0 -59 18 -112.5t50 -96.5t77.5 -72.5t99.5 -41.5v-28h-245v28z" />
    <glyph glyph-name="pi" unicode="&#x3c0;" horiz-adv-x="647" 
d="M54 450h538v-27h-109v-307q0 -50 10.5 -71.5t42.5 -21.5q17 0 35 7t29 16l9 -23q-14 -11 -36 -19t-45 -8q-38 0 -55.5 23.5t-17.5 76.5v327h-264v-84q0 -104 -11 -170t-30.5 -104t-48 -52.5t-62.5 -14.5l-2 28q28 0 51.5 13.5t40 48t25.5 93t9 148.5v94h-109v27z" />
    <glyph glyph-name="afii10023" unicode="&#x401;" horiz-adv-x="575" 
d="M116 700h380v-28h-350v-302h320v-28h-320v-314h360v-28h-390v700zM168 796q0 10 7 15.5t17 5.5q9 0 16 -5.5t7 -15.5q0 -11 -7 -16.5t-16 -5.5q-10 0 -17 5.5t-7 16.5zM402 796q0 10 7 15.5t17 5.5q8 0 15 -5.5t7 -15.5q0 -11 -7 -16.5t-15 -5.5q-10 0 -17 5.5t-7 16.5z
" />
    <glyph glyph-name="afii10051" unicode="&#x402;" horiz-adv-x="758" 
d="M701 205q0 -59 -12.5 -99.5t-34.5 -66t-52.5 -37t-65.5 -11.5q-29 0 -53.5 11t-32.5 18l12 23q12 -9 31.5 -16t40.5 -7q61 0 99 43t38 141q0 101 -46.5 146t-135.5 45q-34 0 -60.5 -6.5t-48 -16.5t-38.5 -21t-32 -20v-331h-29v672h-271v28h571v-28h-271v-313
q15 10 33.5 21.5t41 21t50 15.5t60.5 6q45 0 82.5 -11.5t65 -37t43 -67.5t15.5 -102z" />
    <glyph glyph-name="afii10052" unicode="&#x403;" horiz-adv-x="501" 
d="M116 700h383v-28h-353v-672h-30v700zM276 740l-9 18l165 94l11 -23z" />
    <glyph glyph-name="afii10053" unicode="&#x404;" horiz-adv-x="682" 
d="M479 343h-392q1 -73 25.5 -132.5t68 -102t103.5 -65.5t132 -23q60 0 109 17t97 51l14 -24q-50 -36 -103.5 -54.5t-119.5 -18.5q-79 0 -144.5 25.5t-112.5 73t-73 113.5t-26 147q0 77 24.5 143t70.5 114t110.5 75t144.5 27q58 0 116 -16.5t98 -51.5l-15 -21
q-42 32 -91.5 46t-103.5 14q-72 0 -130 -23t-100 -64t-66.5 -98t-27.5 -124h392v-28z" />
    <glyph glyph-name="afii10054" unicode="&#x405;" horiz-adv-x="543" 
d="M455 170q0 55 -28 87.5t-70 54t-91.5 37.5t-91.5 39t-70 58t-28 94q0 36 13 66.5t38.5 53.5t63 36t85.5 13q57 0 106 -19.5t78 -51.5l-17 -21q-32 32 -74.5 47.5t-93.5 15.5q-78 0 -123 -38.5t-45 -101.5q0 -41 16.5 -68t43 -46t60.5 -32.5t69.5 -26.5t69.5 -28t60.5 -37
t43 -53.5t16.5 -77.5q0 -41 -17 -74.5t-46.5 -57t-69.5 -36t-86 -12.5q-30 0 -61.5 7t-60 20t-52 31t-36.5 41l19 20q16 -21 38 -38t47.5 -28.5t52 -17.5t51.5 -6q36 0 70.5 9.5t61 28t42.5 46.5t16 66z" />
    <glyph glyph-name="afii10055" unicode="&#x406;" horiz-adv-x="316" 
d="M143 700h30v-700h-30v700z" />
    <glyph glyph-name="afii10056" unicode="&#x407;" horiz-adv-x="316" 
d="M67 796q0 9 7 15t16 6q8 0 14 -6t6 -15q0 -10 -6 -16t-14 -6q-9 0 -16 6t-7 16zM207 796q0 9 6.5 15t15.5 6q8 0 14.5 -6t6.5 -15q0 -10 -6.5 -16t-14.5 -6q-9 0 -15.5 6t-6.5 16zM143 700h30v-700h-30v700z" />
    <glyph glyph-name="afii10057" unicode="&#x408;" horiz-adv-x="350" 
d="M233 150q0 -36 -6 -65t-20.5 -50t-39.5 -32.5t-63 -11.5q-27 0 -50 9t-37 20l12 23q12 -9 31.5 -16t40.5 -7q33 0 53 10.5t31 28.5t15 42.5t4 51.5v547h29v-550z" />
    <glyph glyph-name="afii10058" unicode="&#x409;" horiz-adv-x="1041" 
d="M576 672h-328l-11 -132q-10 -125 -24 -214t-31.5 -149.5t-36.5 -96t-39 -53.5t-39.5 -23t-37.5 -4v29q11 0 26 4t32.5 21t35 51t34 93t30.5 147.5t23 214.5l10 140h386v-290q35 3 64 4t52 1q134 0 197.5 -53.5t63.5 -147.5q0 -108 -72.5 -162t-196.5 -54q-39 0 -73 1
t-65 1v672zM722 387q-23 0 -52 -1t-64 -5v-353q25 0 51 -1t61 -1q115 0 175 47.5t60 141.5q0 81 -58 126.5t-173 45.5z" />
    <glyph glyph-name="afii10059" unicode="&#x40a;" horiz-adv-x="1082" 
d="M116 700h30v-303h471v303h29v-302q72 6 117 6q134 0 197.5 -51.5t63.5 -143.5q0 -107 -72.5 -159t-196.5 -52q-32 0 -59.5 1t-53.5 1h-25v369h-471v-369h-30v700zM646 28q26 0 52 -1t61 -1q115 0 174.5 45.5t59.5 137.5q0 81 -57.5 124t-172.5 43q-23 0 -52.5 -1
t-64.5 -5v-342z" />
    <glyph glyph-name="afii10060" unicode="&#x40b;" horiz-adv-x="758" 
d="M10 700h571v-28h-271v-314q28 22 77.5 43.5t116.5 21.5q44 0 80.5 -13t62.5 -40t40 -69.5t14 -101.5v-199h-29v195q0 102 -45.5 151t-129.5 49q-34 0 -61.5 -6.5t-50.5 -16.5t-41.5 -21.5t-33.5 -20.5v-330h-29v672h-271v28z" />
    <glyph glyph-name="afii10061" unicode="&#x40c;" horiz-adv-x="624" 
d="M233 367l356 -367h-43l-354 365l344 335h41zM116 700h30v-700h-30v700zM284 740l-9 18l165 94l11 -23z" />
    <glyph glyph-name="afii10062" unicode="&#x40e;" horiz-adv-x="640" 
d="M375 156q-36 -81 -70 -118.5t-81 -37.5q-18 0 -37 5t-33 16l10 25q28 -19 59 -19q19 0 34.5 8.5t29 22.5t25 32.5t21.5 39.5l15 30l-329 540h33l310 -511l229 511h30zM191 845q20 -32 55.5 -54t84.5 -22q48 0 86 21.5t51 54.5h28q-6 -22 -22 -40t-38.5 -31t-49.5 -20.5
t-55 -7.5q-61 0 -106 28.5t-62 70.5h28z" />
    <glyph glyph-name="afii10145" unicode="&#x40f;" horiz-adv-x="761" 
d="M116 700h30v-672h469v672h30v-700h-251v-159h-28v159h-250v700z" />
    <glyph glyph-name="afii10017" unicode="&#x410;" horiz-adv-x="690" 
d="M334 707h22l308 -707h-32l-113 260h-350l-112 -260h-31zM181 288h326l-163 375z" />
    <glyph glyph-name="afii10018" unicode="&#x411;" horiz-adv-x="608" 
d="M116 700h377v-28h-347v-268q35 3 69.5 4.5t57.5 1.5q131 0 194.5 -53t63.5 -145q0 -108 -72 -161t-195 -53q-41 0 -79 1t-69 1v700zM273 382q-24 0 -58 -1t-69 -5v-348q26 0 56.5 -1t65.5 -1q115 0 174 47t59 138q0 79 -56.5 125t-171.5 46z" />
    <glyph glyph-name="afii10019" unicode="&#x412;" horiz-adv-x="617" 
d="M116 700q15 0 36.5 0.5t45.5 0.5t49 0.5t46 0.5q63 0 104.5 -13t67 -36.5t36 -55t10.5 -67.5q0 -37 -12.5 -65.5t-33.5 -49.5t-48 -33.5t-56 -17.5v-2q86 -8 132.5 -51.5t46.5 -118.5q0 -52 -19 -88.5t-52 -60t-78 -34.5t-97 -11q-21 0 -46 0.5t-49 0.5t-46 0.5t-37 0.5
v700zM146 346v-318q12 0 30 -0.5t38 -0.5t41 -0.5t39 -0.5q101 0 158.5 41t57.5 127q0 72 -55 112t-159 40h-150zM291 674h-38.5t-40.5 -0.5t-37 -1t-29 -0.5v-299h156q37 0 69.5 10.5t57 30.5t38.5 48t14 64q0 72 -45 110t-145 38z" />
    <glyph glyph-name="afii10020" unicode="&#x413;" horiz-adv-x="501" 
d="M116 700h383v-28h-353v-672h-30v700z" />
    <glyph glyph-name="afii10021" unicode="&#x414;" horiz-adv-x="738" 
d="M19 28h75q11 14 29.5 51t37 101.5t35 158.5t23.5 221l8 140h378v-672h95v-165h-28v137h-625v-137h-28v165zM247 542q-8 -124 -23.5 -215t-33.5 -153.5t-35.5 -98t-27.5 -47.5h449v644h-320z" />
    <glyph glyph-name="afii10022" unicode="&#x415;" horiz-adv-x="575" 
d="M116 700h380v-28h-350v-302h320v-28h-320v-314h360v-28h-390v700z" />
    <glyph glyph-name="afii10024" unicode="&#x416;" horiz-adv-x="904" 
d="M549 366l321 -366h-40l-318 365l307 335h40zM437 700h30v-700h-30v700zM46 700h39l307 -335l-318 -365h-39l320 365z" />
    <glyph glyph-name="afii10025" unicode="&#x417;" horiz-adv-x="569" 
d="M261 -9q-30 0 -62 7.5t-61.5 21t-53 31.5t-37.5 39l18 18q18 -21 42.5 -37.5t50.5 -28t52 -17t47 -5.5q47 0 85 12.5t64.5 36t41 56t14.5 73.5q0 68 -43.5 107t-115.5 39h-93v28h86q25 0 50 12t45 33.5t32 50.5t12 63q0 37 -12.5 65t-35 47t-52.5 28t-64 9
q-65 0 -108 -22t-78 -59l-18 17q35 45 88.5 69t114.5 24q89 0 141.5 -46.5t52.5 -131.5q0 -25 -7 -50t-21.5 -47.5t-35 -41t-47.5 -29.5v-3q33 -3 58.5 -18t43 -37.5t27 -50.5t9.5 -58q0 -48 -17.5 -86.5t-48.5 -64.5t-73 -40t-91 -14z" />
    <glyph glyph-name="afii10026" unicode="&#x418;" horiz-adv-x="799" 
d="M116 0v700h30v-653l510 653h27v-700h-30v652l-510 -652h-27z" />
    <glyph glyph-name="afii10027" unicode="&#x419;" horiz-adv-x="799" 
d="M116 0v700h30v-653l510 653h27v-700h-30v652l-510 -652h-27zM258 845q20 -32 55.5 -54t84.5 -22q48 0 86 21.5t51 54.5h28q-6 -22 -22 -40t-38.5 -31t-49.5 -20.5t-55 -7.5q-61 0 -106 28.5t-62 70.5h28z" />
    <glyph glyph-name="afii10028" unicode="&#x41a;" horiz-adv-x="624" 
d="M233 367l356 -367h-43l-354 365l344 335h41zM116 700h30v-700h-30v700z" />
    <glyph glyph-name="afii10029" unicode="&#x41b;" horiz-adv-x="722" 
d="M576 672h-328l-11 -132q-10 -125 -24 -214t-31.5 -149.5t-36.5 -96t-39 -53.5t-39.5 -23t-37.5 -4v29q11 0 26 4t32.5 21t35 51t34 93t30.5 147.5t23 214.5l10 140h386v-700h-30v672z" />
    <glyph glyph-name="afii10030" unicode="&#x41c;" horiz-adv-x="877" 
d="M116 700h31l297 -405l288 405h29v-700h-29v655l-287 -404h-5l-294 401v-652h-30v700z" />
    <glyph glyph-name="afii10031" unicode="&#x41d;" horiz-adv-x="772" 
d="M627 343h-481v-343h-30v700h30v-329h481v329h29v-700h-29v343z" />
    <glyph glyph-name="afii10032" unicode="&#x41e;" horiz-adv-x="807" 
d="M57 350q0 76 26.5 141.5t73 114t109.5 76t137 27.5q73 0 136.5 -27t110 -75t73 -114t26.5 -143t-26.5 -142.5t-73 -113.5t-110 -75.5t-136.5 -27.5t-136.5 27t-110 75t-73 114t-26.5 143zM88 350q0 -71 24 -131t66.5 -104.5t100 -69.5t124.5 -25q68 0 125.5 25t99.5 69.5
t66 104.5t24 131t-24 131.5t-66.5 104.5t-100 69t-124.5 25t-124.5 -25t-100 -69t-66.5 -104.5t-24 -131.5z" />
    <glyph glyph-name="afii10033" unicode="&#x41f;" horiz-adv-x="771" 
d="M625 672h-479v-672h-30v700h539v-700h-30v672z" />
    <glyph glyph-name="afii10034" unicode="&#x420;" horiz-adv-x="575" 
d="M116 0v700q15 0 36.5 0.5t44.5 0.5t44 0.5t35 0.5q72 0 118.5 -18t73.5 -47.5t38 -66.5t11 -74q0 -39 -13.5 -77t-43 -67t-76.5 -47t-113 -18q-28 0 -60.5 1.5t-64.5 3.5v-292h-30zM279 674h-30.5t-36.5 -0.5t-36.5 -1t-29.5 -0.5v-352q32 -2 61.5 -3.5t61.5 -1.5
q55 0 96 14t68 38.5t40.5 57.5t13.5 72q0 37 -11.5 69.5t-36.5 56.5t-64.5 37.5t-95.5 13.5z" />
    <glyph glyph-name="afii10035" unicode="&#x421;" horiz-adv-x="657" 
d="M619 67q-37 -36 -95.5 -56t-119.5 -20q-77 0 -141 25.5t-109.5 72.5t-71 113t-25.5 148q0 75 24 140.5t68.5 114t106.5 76.5t139 28q66 0 117.5 -15.5t93.5 -49.5l-15 -21q-39 31 -87 44t-108 13q-69 0 -126 -25.5t-97.5 -69.5t-62.5 -104.5t-22 -130.5
q0 -75 23.5 -135.5t65.5 -104t100.5 -67t128.5 -23.5q61 0 112 19t88 51z" />
    <glyph glyph-name="afii10036" unicode="&#x422;" horiz-adv-x="591" 
d="M10 700h571v-28h-271v-672h-29v672h-271v28z" />
    <glyph glyph-name="afii10037" unicode="&#x423;" horiz-adv-x="640" 
d="M375 156q-36 -81 -70 -118.5t-81 -37.5q-18 0 -37 5t-33 16l10 25q28 -19 59 -19q19 0 34.5 8.5t29 22.5t25 32.5t21.5 39.5l15 30l-329 540h33l310 -511l229 511h30z" />
    <glyph glyph-name="afii10038" unicode="&#x424;" horiz-adv-x="827" 
d="M398 83h-9q-75 0 -138 18.5t-108.5 53.5t-70.5 87t-25 118t24.5 118t70 87t109.5 53.5t142 18.5h5v71h29v-71h5q80 0 144.5 -18.5t109.5 -54t69 -87t24 -117.5t-25 -117.5t-70.5 -87t-108.5 -54t-138 -18.5h-10v-91h-29v91zM427 610v-500h10q67 0 124 15.5t98.5 47
t65 78.5t23.5 109q0 61 -23 108t-64 78.5t-99.5 47.5t-128.5 16h-6zM78 360q0 -62 23.5 -108.5t65 -78t98.5 -47.5t125 -16h8v500h-6q-69 0 -127 -16.5t-99.5 -48t-64.5 -78t-23 -107.5z" />
    <glyph glyph-name="afii10039" unicode="&#x425;" horiz-adv-x="657" 
d="M348 356l274 -356h-36l-258 333l-257 -333h-36l275 356l-264 344h36l247 -321l248 321h36z" />
    <glyph glyph-name="afii10040" unicode="&#x426;" horiz-adv-x="783" 
d="M116 700h30v-672h474v672h30v-672h95v-165h-28v137h-601v700z" />
    <glyph glyph-name="afii10041" unicode="&#x427;" horiz-adv-x="624" 
d="M508 0h-30v334q-15 -11 -37.5 -22t-50 -20.5t-58.5 -15.5t-64 -6q-44 0 -82 13t-66 40t-43.5 69.5t-15.5 101.5v206h30v-202q0 -101 50 -150t134 -49q33 0 63 6.5t56.5 16t47.5 20.5t36 21v337h30v-700z" />
    <glyph glyph-name="afii10042" unicode="&#x428;" horiz-adv-x="991" 
d="M116 700h29v-672h336v672h29v-672h336v672h29v-700h-759v700z" />
    <glyph glyph-name="afii10043" unicode="&#x429;" horiz-adv-x="1008" 
d="M116 700h29v-672h336v672h29v-672h336v672h29v-672h95v-165h-28v137h-826v700z" />
    <glyph glyph-name="afii10044" unicode="&#x42a;" horiz-adv-x="664" 
d="M1 700h217v-290q35 3 68.5 4t56.5 1q135 0 199 -54t64 -147q0 -54 -19 -94.5t-54 -67.5t-85 -40.5t-113 -13.5q-39 0 -77.5 1t-69.5 1v672h-187v28zM343 387q-23 0 -56.5 -1t-68.5 -5v-353q25 0 55.5 -1t65.5 -1q115 0 175.5 47.5t60.5 141.5q0 81 -58.5 126.5
t-173.5 45.5z" />
    <glyph glyph-name="afii10045" unicode="&#x42b;" horiz-adv-x="815" 
d="M670 700h29v-700h-29v700zM262 387q-23 0 -52 -1t-64 -5v-353q25 0 51 -1t61 -1q115 0 175 47.5t60 141.5q0 81 -58 126.5t-173 45.5zM146 410q35 3 64.5 4t51.5 1q134 0 197.5 -53.5t63.5 -147.5q0 -108 -72.5 -162t-195.5 -54q-39 0 -73.5 1t-65.5 1v700h30v-290z" />
    <glyph glyph-name="afii10046" unicode="&#x42c;" horiz-adv-x="591" 
d="M271 387q-23 0 -56.5 -1t-68.5 -5v-353q25 0 55.5 -1t65.5 -1q115 0 175.5 47.5t60.5 141.5q0 81 -58.5 126.5t-173.5 45.5zM146 410q35 3 68.5 4t56.5 1q134 0 198 -54t64 -147q0 -54 -19 -94.5t-54 -67.5t-85 -40.5t-112 -13.5q-39 0 -77.5 1t-69.5 1v700h30v-290z" />
    <glyph glyph-name="afii10047" unicode="&#x42d;" horiz-adv-x="683" 
d="M203 371h392q-3 71 -27 128.5t-66.5 97.5t-101 61.5t-130.5 21.5q-54 0 -103.5 -14t-91.5 -46l-13 21q40 35 97.5 51.5t115.5 16.5q80 0 144.5 -25t110.5 -71.5t70.5 -112t24.5 -147.5q0 -77 -24.5 -143t-70 -114.5t-109.5 -76.5t-143 -28q-132 0 -232 73l15 24
q97 -68 215 -68q71 0 129 24.5t99.5 68t65 102.5t25.5 128h-392v28z" />
    <glyph glyph-name="afii10048" unicode="&#x42e;" horiz-adv-x="1074" 
d="M116 700h30v-329h200q4 72 30 134t70 107t103.5 71t130.5 26q73 0 135 -27t106.5 -75t69.5 -114t25 -143t-25 -142.5t-69.5 -113.5t-106.5 -75.5t-135 -27.5q-72 0 -132.5 26.5t-105 73.5t-70 111.5t-26.5 140.5h-200v-343h-30v700zM376 350q0 -71 23 -131t63.5 -104.5
t96.5 -69.5t122 -25q68 0 124 25t96 69.5t62 104.5t22 131t-22.5 131.5t-63 104.5t-96 69t-122.5 25q-66 0 -122 -25t-96.5 -69t-63.5 -104.5t-23 -131.5z" />
    <glyph glyph-name="afii10049" unicode="&#x42f;" horiz-adv-x="608" 
d="M463 286h-177l-214 -286h-36l220 290q-31 7 -60.5 24.5t-52.5 43t-37 58t-14 70.5q0 46 16 85.5t47.5 68.5t79 45.5t110.5 16.5q37 0 76.5 -1t70.5 -1v-700h-29v286zM463 314v358q-25 0 -57 1t-66 1q-56 0 -97 -15t-67.5 -40.5t-39.5 -60t-13 -72.5q0 -33 13.5 -62.5
t35.5 -52.5t50 -38t58 -19h183z" />
    <glyph glyph-name="afii10065" unicode="&#x430;" horiz-adv-x="457" 
d="M82 418q32 20 66 30.5t72 10.5q45 0 76 -12t50 -35t27.5 -56t8.5 -75v-281h-28v78q-11 -15 -26 -30t-35.5 -27t-46.5 -19t-59 -7q-63 0 -101.5 35t-38.5 94q0 34 13 59.5t36 42.5t54.5 26t67.5 9q28 0 66 -7t70 -30q0 47 -3 85.5t-16 65.5t-41 42t-77 15q-38 0 -66 -9.5
t-60 -28.5zM193 22q34 0 59 8t44 20.5t33 27.5t25 29v90q-56 40 -134 40q-26 0 -52 -6.5t-46 -20t-32.5 -34.5t-12.5 -50q0 -50 33.5 -77t82.5 -27z" />
    <glyph glyph-name="afii10066" unicode="&#x431;" horiz-adv-x="558" 
d="M464 691q-18 -29 -41.5 -39.5t-54 -15.5t-67.5 -10t-80 -24q-42 -18 -69 -50.5t-42.5 -72.5t-22 -83.5t-8.5 -82.5h2q12 32 33.5 57t49 42.5t60 27t65.5 9.5q51 0 91.5 -16.5t68.5 -46.5t42.5 -72t14.5 -93q0 -47 -17 -89t-47 -73.5t-71 -49.5t-89 -18q-52 0 -94.5 19
t-73 54t-47 86t-16.5 116q0 41 4 94.5t20.5 105t49 96t89.5 67.5q43 18 79 23t64.5 9.5t51 13t39.5 34.5zM81 262q0 -59 15.5 -104.5t42 -76.5t63 -47t78.5 -16t78 16t62.5 43t41.5 64t15 79q0 45 -13 82t-38 63.5t-60.5 41.5t-81.5 15q-44 0 -79.5 -14.5t-61.5 -37.5
t-41.5 -51.5t-20.5 -56.5z" />
    <glyph glyph-name="afii10067" unicode="&#x432;" horiz-adv-x="479" 
d="M85 450q29 0 62 1.5t76 1.5q90 0 135 -27t45 -87q0 -37 -23 -67.5t-73 -37.5v-2q63 -8 89 -36t26 -75q0 -60 -48.5 -92t-147.5 -32q-42 0 -76 1.5t-65 1.5v450zM114 217v-191q24 0 50.5 -1t61.5 -1q81 0 123.5 24.5t42.5 75.5q0 48 -38 70.5t-112 22.5h-128zM224 426
q-36 0 -62 -1t-48 -2v-182h137q57 0 89.5 26t32.5 69q0 27 -12 44.5t-32 27.5t-47.5 14t-57.5 4z" />
    <glyph glyph-name="afii10068" unicode="&#x433;" horiz-adv-x="346" 
d="M85 450h260v-27h-231v-423h-29v450z" />
    <glyph glyph-name="afii10069" unicode="&#x434;" horiz-adv-x="513" 
d="M10 27h55q10 12 22 37t23 61t19.5 84t12.5 107l7 134h270v-423h75v-144h-27v117h-430v-117h-27v144zM169 306q-4 -54 -12.5 -100.5t-19 -82.5t-22 -60.5t-20.5 -35.5h296v396h-215z" />
    <glyph glyph-name="afii10070" unicode="&#x435;" horiz-adv-x="527" 
d="M452 59q-29 -34 -74 -51t-90 -17q-52 0 -95 16.5t-74.5 47t-49 74t-17.5 96.5q0 49 14 92t42 74.5t69.5 49.5t97.5 18q43 0 80 -14.5t64 -41t42 -63.5t15 -83q0 -9 -0.5 -16.5t-1.5 -14.5h-391q1 -97 56.5 -152.5t149.5 -55.5q48 0 87.5 17.5t64.5 44.5zM271 432
q-44 0 -78 -14t-58 -38t-37.5 -57.5t-16.5 -72.5h366q0 42 -12 75.5t-35.5 57.5t-56 36.5t-72.5 12.5z" />
    <glyph glyph-name="afii10072" unicode="&#x436;" horiz-adv-x="635" 
d="M405 234l203 -234h-35l-201 234l189 216h35zM302 450h28v-450h-28v450zM35 450h36l188 -216l-198 -234h-35l201 234z" />
    <glyph glyph-name="afii10073" unicode="&#x437;" horiz-adv-x="455" 
d="M215 -9q-20 0 -45 4.5t-48.5 12t-44 18.5t-31.5 25l15 22q14 -14 33 -24.5t39.5 -17t40.5 -10t36 -3.5q71 0 114.5 29.5t43.5 80.5q0 42 -32 65.5t-86 23.5h-76v24h71q21 0 39.5 7.5t33 21t23 31.5t8.5 39q0 45 -35 68.5t-95 23.5q-50 0 -84.5 -15t-60.5 -38l-13 21
q28 29 71 44t91 15q76 0 115.5 -31t39.5 -85q0 -33 -19 -63t-64 -47v-2q51 -4 76.5 -35.5t25.5 -70.5q0 -32 -13.5 -56.5t-37.5 -42t-57.5 -26.5t-73.5 -9z" />
    <glyph glyph-name="afii10074" unicode="&#x438;" horiz-adv-x="561" 
d="M85 0v450h29v-409l334 409h28v-450h-28v409l-334 -409h-29z" />
    <glyph glyph-name="afii10075" unicode="&#x439;" horiz-adv-x="561" 
d="M85 0v450h29v-409l334 409h28v-450h-28v409l-334 -409h-29zM182 687q0 -40 28.5 -66.5t76.5 -26.5q45 0 73 26.5t28 66.5h25q0 -25 -9.5 -46.5t-26 -37t-40 -24.5t-50.5 -9q-61 0 -95.5 33t-34.5 84h25z" />
    <glyph glyph-name="afii10076" unicode="&#x43a;" horiz-adv-x="472" 
d="M189 235l258 -235h-42l-254 234l239 216h40zM85 450h29v-450h-29v450z" />
    <glyph glyph-name="afii10077" unicode="&#x43b;" horiz-adv-x="523" 
d="M410 422h-217l-7 -118q-7 -102 -23.5 -162.5t-37.5 -92.5t-44 -41.5t-42 -9.5l-2 28q10 0 28.5 7.5t37 37t34.5 86t21 153.5l8 140h272v-450h-28v422z" />
    <glyph glyph-name="afii10078" unicode="&#x43c;" horiz-adv-x="618" 
d="M85 450h28l200 -275l194 275h26v-450h-28v408l-192 -272h-3l-196 272v-408h-29v450z" />
    <glyph glyph-name="afii10079" unicode="&#x43d;" horiz-adv-x="555" 
d="M441 216h-327v-216h-29v450h29v-207h327v207h29v-450h-29v216z" />
    <glyph glyph-name="afii10080" unicode="&#x43e;" horiz-adv-x="569" 
d="M52 225q0 51 17 93.5t48 74t73.5 49t93.5 17.5t94 -17.5t74 -49t48 -74t17 -93.5t-17 -93.5t-48 -74t-74 -49t-94 -17.5t-93.5 17.5t-73.5 49t-48 74t-17 93.5zM81 225q0 -45 15 -83t42 -65.5t64 -43t82 -15.5t82 15.5t64 43t42 65.5t15 83t-15 83t-42 65.5t-64 43
t-82 15.5q-44 0 -81.5 -15.5t-64.5 -43t-42 -65.5t-15 -83z" />
    <glyph glyph-name="afii10081" unicode="&#x43f;" horiz-adv-x="550" 
d="M436 423h-322v-423h-29v450h380v-450h-29v423z" />
    <glyph glyph-name="afii10082" unicode="&#x440;" horiz-adv-x="552" 
d="M85 450h29v-66q13 16 32.5 30t42.5 24t48 15.5t50 5.5q50 0 90 -17t67.5 -47t42 -71.5t14.5 -91.5q0 -51 -16.5 -95.5t-46.5 -76.5t-72 -50.5t-94 -18.5q-46 0 -86.5 11t-71.5 34v-236h-29v650zM281 432q-27 0 -52 -6.5t-47 -17t-39.5 -24.5t-28.5 -28v-290
q39 -28 78.5 -38t78.5 -10q45 0 81.5 15.5t63 43.5t41 66.5t14.5 85.5q0 45 -12.5 82.5t-37 64.5t-60 41.5t-80.5 14.5z" />
    <glyph glyph-name="afii10083" unicode="&#x441;" horiz-adv-x="491" 
d="M453 64q-29 -36 -73.5 -54.5t-92.5 -18.5q-51 0 -94.5 16.5t-74.5 47t-48.5 74t-17.5 96.5q0 49 17 92t46.5 74.5t69.5 49.5t87 18q51 0 95.5 -12.5t76.5 -42.5l-14 -23q-32 28 -71 39.5t-82 11.5q-40 0 -75.5 -16t-62.5 -43.5t-42.5 -65.5t-15.5 -82q0 -48 16 -86
t43.5 -65t65.5 -41.5t83 -14.5q46 0 85.5 18t64.5 47z" />
    <glyph glyph-name="afii10084" unicode="&#x442;" horiz-adv-x="433" 
d="M11 450h410v-28h-191v-422h-28v422h-191v28z" />
    <glyph glyph-name="afii10085" unicode="&#x443;" horiz-adv-x="472" 
d="M271 0q-25 -60 -46 -99t-40.5 -61.5t-39 -31t-41.5 -8.5q-18 0 -35 5t-35 14l10 22q15 -7 28.5 -11t27.5 -4q38 0 69.5 34.5t64.5 115.5l10 24l-227 450h33l173 -345q19 -36 35 -73q7 19 14 37.5t15 37.5l136 343h32z" />
    <glyph glyph-name="afii10086" unicode="&#x444;" horiz-adv-x="656" 
d="M314 -9h-18q-57 0 -102.5 17.5t-77 49t-48 74.5t-16.5 93q0 46 16.5 88t48 74.5t76.5 52t102 19.5h19v241h28v-241h21q53 0 97.5 -18t76.5 -49.5t50 -74.5t18 -92q0 -50 -16.5 -93t-48 -74.5t-76.5 -49t-101 -17.5h-21v-191h-28v191zM81 225q0 -45 15 -83t43 -65.5
t68.5 -43t91.5 -15.5h15v414h-20q-49 0 -88.5 -16t-67 -44t-42.5 -66t-15 -81zM342 432v-414h17q51 0 91 15.5t68 43t42.5 65.5t14.5 83q0 40 -14.5 77.5t-41.5 66.5t-66.5 46t-89.5 17h-21z" />
    <glyph glyph-name="afii10087" unicode="&#x445;" horiz-adv-x="485" 
d="M262 232l187 -232h-35l-172 212l-172 -212h-34l187 231l-177 219h35l161 -200l163 200h34z" />
    <glyph glyph-name="afii10088" unicode="&#x446;" horiz-adv-x="557" 
d="M85 450h29v-423h321v423h28v-423h75v-144h-27v117h-426v450z" />
    <glyph glyph-name="afii10089" unicode="&#x447;" horiz-adv-x="469" 
d="M384 0h-28v203q-24 -18 -61.5 -30.5t-82.5 -12.5q-73 0 -114.5 39t-41.5 128v123h30v-123q0 -72 34.5 -106t99.5 -34q49 0 83.5 14.5t52.5 28.5v220h28v-450z" />
    <glyph glyph-name="afii10090" unicode="&#x448;" horiz-adv-x="696" 
d="M85 450h28v-423h221v423h28v-423h221v423h28v-450h-526v450z" />
    <glyph glyph-name="afii10091" unicode="&#x449;" horiz-adv-x="705" 
d="M85 450h28v-423h221v423h28v-423h221v423h28v-423h75v-144h-27v117h-574v450z" />
    <glyph glyph-name="afii10092" unicode="&#x44a;" horiz-adv-x="492" 
d="M1 450h176v-165h91q52 0 86 -11t54.5 -30t29 -45t8.5 -56t-9 -56t-30.5 -45.5t-56.5 -30.5t-87 -11h-114v423h-148v27zM177 258v-231h86q86 0 119.5 31t33.5 85t-34.5 84.5t-117.5 30.5h-87z" />
    <glyph glyph-name="afii10093" unicode="&#x44b;" horiz-adv-x="603" 
d="M85 450h29v-165h81q52 0 86 -11t54.5 -30t29 -45t8.5 -56t-9 -56t-30.5 -45.5t-56.5 -30.5t-87 -11h-105v450zM114 258v-231h76q86 0 120 31t34 85t-35 84.5t-118 30.5h-77zM490 450h28v-450h-28v450z" />
    <glyph glyph-name="afii10094" unicode="&#x44c;" horiz-adv-x="428" 
d="M85 450h29v-165h90q52 0 86 -11t54.5 -30t29 -45t8.5 -56t-9 -56t-30 -45.5t-56 -30.5t-87 -11h-115v450zM114 258v-231h85q86 0 120 31t34 85t-34.5 84.5t-118.5 30.5h-86z" />
    <glyph glyph-name="afii10095" unicode="&#x44d;" horiz-adv-x="491" 
d="M160 242h250q-3 45 -19.5 80t-43.5 59.5t-63.5 37.5t-79.5 13q-47 0 -86.5 -17.5t-65.5 -45.5l-13 20q29 35 74.5 52.5t90.5 17.5q51 0 94.5 -16.5t74.5 -47t48.5 -74t17.5 -96.5q0 -49 -17 -92t-46.5 -74.5t-70 -49.5t-86.5 -18q-51 0 -96 12t-77 43l14 22
q30 -27 71 -38.5t85 -11.5q40 0 74.5 15t61 41t42 62.5t17.5 80.5h-251v25z" />
    <glyph glyph-name="afii10096" unicode="&#x44e;" horiz-adv-x="742" 
d="M85 450h30v-206h128q3 47 20.5 86.5t46.5 68t69 44.5t87 16q49 0 90.5 -17.5t71 -49t46 -74t16.5 -93.5t-16.5 -93.5t-46.5 -74t-71 -49t-90 -17.5q-48 0 -88.5 16.5t-70 46.5t-46.5 71.5t-18 90.5h-128v-216h-30v450zM274 225q0 -45 14 -83t39.5 -65t61 -42t77.5 -15
q43 0 78.5 15t61 42t39.5 65t14 83t-14 82.5t-39.5 65t-61 42.5t-78.5 15q-42 0 -77.5 -15t-61 -42.5t-39.5 -65t-14 -82.5z" />
    <glyph glyph-name="afii10097" unicode="&#x44f;" horiz-adv-x="473" 
d="M388 450v-450h-28v183h-133l-145 -183h-36l152 189q-22 3 -43 12.5t-37.5 25.5t-26.5 38t-10 49t9 52t30 43.5t55 29.5t85 11h128zM110 314q0 -25 11 -44t27 -32.5t35 -20.5t36 -7h141v213h-105q-39 0 -67 -8.5t-45 -23.5t-25 -35t-8 -42z" />
    <glyph glyph-name="afii10071" unicode="&#x451;" horiz-adv-x="527" 
d="M452 59q-29 -34 -74 -51t-90 -17q-52 0 -95 16.5t-74.5 47t-49 74t-17.5 96.5q0 49 14 92t42 74.5t69.5 49.5t97.5 18q43 0 80 -14.5t64 -41t42 -63.5t15 -83q0 -9 -0.5 -16.5t-1.5 -14.5h-391q1 -97 56.5 -152.5t149.5 -55.5q48 0 87.5 17.5t64.5 44.5zM271 432
q-44 0 -78 -14t-58 -38t-37.5 -57.5t-16.5 -72.5h366q0 42 -12 75.5t-35.5 57.5t-56 36.5t-72.5 12.5zM140 626q0 8 6.5 14.5t15.5 6.5q8 0 14 -6.5t6 -14.5q0 -11 -6 -17t-14 -6q-9 0 -15.5 6t-6.5 17zM351 626q0 8 6.5 14.5t15.5 6.5q8 0 14.5 -6.5t6.5 -14.5
q0 -11 -6.5 -17t-14.5 -6q-9 0 -15.5 6t-6.5 17z" />
    <glyph glyph-name="afii10099" unicode="&#x452;" horiz-adv-x="606" 
d="M1 525h149v175h28v-175h213v-24h-213v-201q28 32 76 53.5t98 21.5q95 0 142.5 -48.5t47.5 -154.5q0 -52 -10.5 -106t-32.5 -104t-57 -92.5t-84 -69.5h-34q55 32 91 75.5t58 92t31 99t9 97.5q0 94 -40.5 139t-125.5 45q-27 0 -52.5 -7t-48 -18t-40 -25t-28.5 -28v-270h-28
v501h-149v24z" />
    <glyph glyph-name="afii10100" unicode="&#x453;" horiz-adv-x="346" 
d="M85 450h260v-27h-231v-423h-29v450zM210 552l-18 12l109 146l21 -17z" />
    <glyph glyph-name="afii10101" unicode="&#x454;" horiz-adv-x="491" 
d="M331 217h-251q1 -47 17.5 -84t44 -62.5t65 -39t81.5 -13.5q35 0 74.5 11.5t69.5 38.5l13 -22q-32 -31 -75.5 -43t-87.5 -12q-50 0 -92.5 17t-73 48t-47.5 74t-17 95q0 53 17.5 96.5t48.5 74t74.5 47t94.5 16.5q45 0 90.5 -17.5t74.5 -52.5l-13 -20q-26 28 -65.5 45.5
t-86.5 17.5q-43 0 -79.5 -13t-64 -37.5t-44 -59.5t-19.5 -80h251v-25z" />
    <glyph glyph-name="afii10102" unicode="&#x455;" horiz-adv-x="409" 
d="M323 114q0 33 -19 51.5t-47 30.5t-61 21.5t-61 24.5t-47 39t-19 65q0 50 37 81.5t100 31.5q41 0 75.5 -14t53.5 -34l-14 -21q-20 21 -50.5 32t-65.5 11q-50 0 -78.5 -25.5t-28.5 -60.5t19 -55t47 -32.5t61 -22t61 -23.5t47 -36.5t19 -61.5q0 -32 -12 -55.5t-33 -39
t-48.5 -23t-57.5 -7.5q-21 0 -43.5 5t-42.5 14t-35.5 20t-23.5 23l18 18q9 -12 24 -22t32.5 -17t36 -11t35.5 -4q23 0 44.5 6t38.5 18t27.5 30t10.5 43z" />
    <glyph glyph-name="afii10103" unicode="&#x456;" horiz-adv-x="255" 
d="M113 450h28v-450h-28v450zM105 629q0 9 7 15.5t16 6.5q8 0 14.5 -6.5t6.5 -15.5q0 -10 -6.5 -16.5t-14.5 -6.5q-9 0 -16 6.5t-7 16.5z" />
    <glyph glyph-name="afii10104" unicode="&#x457;" horiz-adv-x="261" 
d="M51 625q0 8 6 14t15 6q7 0 13 -6t6 -14q0 -9 -6 -15t-13 -6q-9 0 -15 6t-6 15zM171 625q0 8 6.5 14t14.5 6t14 -6t6 -14q0 -9 -6 -15t-14 -6t-14.5 6t-6.5 15zM116 450h28v-450h-28v450z" />
    <glyph glyph-name="afii10105" unicode="&#x458;" horiz-adv-x="255" 
d="M143 -33q0 -83 -33 -129t-108 -46q-26 0 -48.5 8t-36.5 18l10 23q12 -8 31 -15t40 -7q63 0 90 38.5t27 110.5v482h28v-483zM106 629q0 9 7 15.5t16 6.5q8 0 14.5 -6.5t6.5 -15.5q0 -10 -6.5 -16.5t-14.5 -6.5q-9 0 -16 6.5t-7 16.5z" />
    <glyph glyph-name="afii10106" unicode="&#x459;" horiz-adv-x="741" 
d="M410 422h-217l-7 -118q-7 -102 -23.5 -162.5t-37.5 -92.5t-44 -41.5t-42 -9.5l-2 28q10 0 28.5 7.5t37 37t34.5 86t21 153.5l8 140h272v-165h79q52 0 86 -11t54.5 -30t29 -45t8.5 -56t-9 -56t-30.5 -45.5t-56.5 -30.5t-87 -11h-102v422zM438 258v-231h74q86 0 120 31
t34 85t-35 84.5t-118 30.5h-75z" />
    <glyph glyph-name="afii10107" unicode="&#x45a;" horiz-adv-x="773" 
d="M85 450h29v-190h327v190h29v-182h79q52 0 86 -9.5t54.5 -27.5t29 -42.5t8.5 -54.5t-9 -54.5t-30.5 -42t-56.5 -27.5t-87 -10h-103v233h-327v-233h-29v450zM470 241v-214h74q86 0 119.5 27t33.5 80q0 54 -34.5 80.5t-117.5 26.5h-75z" />
    <glyph glyph-name="afii10108" unicode="&#x45b;" horiz-adv-x="606" 
d="M1 525h149v175h28v-175h213v-24h-213v-201q28 32 76 53.5t98 21.5q95 0 142.5 -49t47.5 -155v-171h-29v166q0 93 -40.5 137.5t-125.5 44.5q-27 0 -52.5 -7t-48 -18t-40 -25t-28.5 -28v-270h-28v501h-149v24z" />
    <glyph glyph-name="afii10109" unicode="&#x45c;" horiz-adv-x="472" 
d="M189 235l258 -235h-42l-254 234l239 216h40zM85 450h29v-450h-29v450zM227 552l-18 12l109 146l21 -17z" />
    <glyph glyph-name="afii10110" unicode="&#x45e;" horiz-adv-x="472" 
d="M271 0q-25 -60 -46 -99t-40.5 -61.5t-39 -31t-41.5 -8.5q-18 0 -35 5t-35 14l10 22q15 -7 28.5 -11t27.5 -4q38 0 69.5 34.5t64.5 115.5l10 24l-227 450h33l173 -345q19 -36 35 -73q7 19 14 37.5t15 37.5l136 343h32zM139 687q0 -40 28.5 -66.5t76.5 -26.5q45 0 73 26.5
t28 66.5h25q0 -25 -9.5 -46.5t-26 -37t-40 -24.5t-50.5 -9q-61 0 -95.5 33t-34.5 84h25z" />
    <glyph glyph-name="afii10193" unicode="&#x45f;" horiz-adv-x="540" 
d="M85 450h29v-423h312v423h29v-450h-172v-136h-26v136h-172v450z" />
    <glyph glyph-name="afii10146" unicode="&#x462;" horiz-adv-x="626" 
d="M180 570h173v-28h-173v-138q36 3 69.5 4.5t56.5 1.5q134 0 198 -53t64 -145q0 -54 -19 -94t-54 -67t-85 -40t-112 -13q-39 0 -77.5 1t-69.5 1v542h-148v28h148v130h29v-130zM306 382q-23 0 -57 -1t-69 -5v-348q26 0 56.5 -1t64.5 -1q115 0 175.5 46t60.5 140
q0 82 -58 126t-173 44z" />
    <glyph glyph-name="afii10194" unicode="&#x463;" horiz-adv-x="491" 
d="M1 450h148v250h28v-250h168v-27h-168v-145h90q52 0 86 -10.5t54.5 -29.5t29 -44.5t8.5 -55.5t-9 -55t-30 -43.5t-56 -29t-87 -10.5h-114v423h-148v27zM177 251v-224h89q42 0 71 8t46.5 22.5t25 35t7.5 46.5q0 52 -33.5 82t-115.5 30h-90z" />
    <glyph glyph-name="afii10147" unicode="&#x472;" horiz-adv-x="807" 
d="M57 350q0 76 26.5 141.5t73 114t109.5 76t137 27.5q73 0 136.5 -27t110 -75t73 -114t26.5 -143t-26.5 -142.5t-73 -113.5t-110 -75.5t-136.5 -27.5t-136.5 27t-110 75t-73 114t-26.5 143zM263 385q-24 0 -49 -7t-48 -18t-43 -24.5t-33 -26.5q7 -63 33.5 -116t68 -91.5
t95.5 -60t116 -21.5q68 0 125.5 25t99.5 69.5t66 104.5t24 131q0 2 -0.5 3.5t-0.5 3.5q-31 -24 -75.5 -44t-89.5 -20q-46 0 -80 14.5t-65.5 31.5t-65 31.5t-78.5 14.5zM88 342q33 27 79.5 48.5t97.5 21.5q46 0 80.5 -14.5t66.5 -31.5t65 -31.5t77 -14.5q23 0 46 6t44.5 16
t40 21.5t31.5 23.5q-6 64 -32.5 117.5t-68 92.5t-95.5 61t-117 22q-67 0 -124.5 -25t-100 -69t-66.5 -104.5t-24 -131.5v-8z" />
    <glyph glyph-name="afii10195" unicode="&#x473;" horiz-adv-x="569" 
d="M52 225q0 51 17 93.5t48 74t73.5 49t93.5 17.5t94 -17.5t74 -49t48 -74t17 -93.5t-17 -93.5t-48 -74t-74 -49t-94 -17.5t-93.5 17.5t-73.5 49t-48 74t-17 93.5zM179 250q-23 0 -48 -9.5t-50 -31.5q3 -42 19 -77.5t42.5 -60.5t62.5 -39t79 -14q42 0 77.5 13.5t62.5 38.5
t43 59.5t19 75.5q-23 -17 -45.5 -24t-42.5 -7q-30 0 -57.5 12t-54 26t-53 26t-54.5 12zM401 201q20 0 42 7.5t44 26.5q-2 43 -17.5 79.5t-42.5 62.5t-63.5 40.5t-79.5 14.5q-42 0 -78 -14t-63 -39.5t-43 -61t-19 -77.5q26 20 51.5 28.5t48.5 8.5q30 0 58 -12t54.5 -26
t53 -26t54.5 -12z" />
    <glyph glyph-name="afii10148" unicode="&#x474;" horiz-adv-x="655" 
d="M341 -7h-19l-306 707h32l284 -658l174 499q21 61 40.5 96t39 51t41 16.5t48.5 -7.5l-6 -27q-26 10 -45 5.5t-35 -24t-31 -54.5t-33 -86z" />
    <glyph glyph-name="afii10196" unicode="&#x475;" horiz-adv-x="475" 
d="M255 -7h-18l-221 457h33l154 -318q12 -23 22 -46t21 -47q10 25 18.5 48.5t17.5 48.5l78 200q17 46 32.5 72t31 37.5t33 10.5t38.5 -9l-7 -26q-18 10 -32 7t-26 -17t-24 -38t-25 -55z" />
    <glyph glyph-name="afii10050" unicode="&#x490;" horiz-adv-x="501" 
d="M116 700h354v136h29v-164h-353v-672h-30v700z" />
    <glyph glyph-name="afii10098" unicode="&#x491;" horiz-adv-x="346" 
d="M85 450h233v116h27v-143h-231v-423h-29v450z" />
    <glyph glyph-name="uni1E9E" unicode="&#x1e9e;" horiz-adv-x="600" 
d="M510 157q0 40 -18.5 76.5t-49.5 71t-71.5 67t-83.5 65.5l137 205q-18 14 -48 26t-70 12q-33 0 -62.5 -10t-51 -31t-34 -53.5t-12.5 -78.5v-510h-30v516q0 50 15 87t40.5 61t60 36t74.5 12q48 0 85 -15t72 -44l-140 -205q41 -30 80 -62.5t70 -68.5t49.5 -76t18.5 -84
q0 -37 -13.5 -67t-36 -51.5t-51 -33t-58.5 -11.5q-54 0 -86 18.5t-57 41.5l17 21q23 -20 49.5 -36t71.5 -16q24 0 47.5 9.5t42.5 27t31 43t12 57.5z" />
    <glyph glyph-name="uni2010" unicode="&#x2010;" horiz-adv-x="407" 
d="M93 284h221v-27h-221v27z" />
    <glyph glyph-name="uni2011" unicode="&#x2011;" horiz-adv-x="407" 
d="M93 284h221v-27h-221v27z" />
    <glyph glyph-name="figuredash" unicode="&#x2012;" horiz-adv-x="587" 
d="M97 367h392v-26h-392v26z" />
    <glyph glyph-name="endash" unicode="&#x2013;" horiz-adv-x="587" 
d="M97 283h392v-26h-392v26z" />
    <glyph glyph-name="emdash" unicode="&#x2014;" horiz-adv-x="789" 
d="M97 283h595v-26h-595v26z" />
    <glyph glyph-name="afii00208" unicode="&#x2015;" horiz-adv-x="789" 
d="M97 283h595v-26h-595v26z" />
    <glyph glyph-name="quoteleft" unicode="&#x2018;" horiz-adv-x="237" 
d="M114 538q-9 10 -16 26t-7 39q0 45 17.5 73t47.5 43l12 -15q-25 -14 -37.5 -38.5t-12.5 -56.5q0 -21 6 -34.5t13 -20.5z" />
    <glyph glyph-name="quoteright" unicode="&#x2019;" horiz-adv-x="237" 
d="M123 719q9 -10 16 -26.5t7 -38.5q0 -45 -17.5 -73t-47.5 -44l-12 15q24 14 37 39t13 57q0 20 -6.5 33.5t-13.5 20.5z" />
    <glyph glyph-name="quotesinglbase" unicode="&#x201a;" horiz-adv-x="237" 
d="M123 54q9 -10 16 -26.5t7 -38.5q0 -45 -17.5 -73t-47.5 -44l-12 15q24 14 37 39t13 57q0 20 -6.5 33.5t-13.5 20.5z" />
    <glyph glyph-name="quotedblleft" unicode="&#x201c;" horiz-adv-x="356" 
d="M233 538q-9 10 -16 26t-7 39q0 45 17.5 73t47.5 43l12 -15q-25 -14 -37.5 -38.5t-12.5 -56.5q0 -21 6 -34.5t13 -20.5zM114 538q-9 10 -16 26t-7 39q0 45 17.5 73t47.5 43l12 -15q-25 -14 -37.5 -38.5t-12.5 -56.5q0 -21 6 -34.5t13 -20.5z" />
    <glyph glyph-name="quotedblright" unicode="&#x201d;" horiz-adv-x="356" 
d="M242 719q9 -10 16 -26.5t7 -38.5q0 -45 -17.5 -73t-47.5 -44l-12 15q24 14 37 39t13 57q0 20 -6.5 33.5t-13.5 20.5zM123 719q9 -10 16 -26.5t7 -38.5q0 -45 -17.5 -73t-47.5 -44l-12 15q24 14 37 39t13 57q0 20 -6.5 33.5t-13.5 20.5z" />
    <glyph glyph-name="quotedblbase" unicode="&#x201e;" horiz-adv-x="356" 
d="M242 54q9 -10 16 -26.5t7 -38.5q0 -45 -17.5 -73t-47.5 -44l-12 15q24 14 37 39t13 57q0 20 -6.5 33.5t-13.5 20.5zM123 54q9 -10 16 -26.5t7 -38.5q0 -45 -17.5 -73t-47.5 -44l-12 15q24 14 37 39t13 57q0 20 -6.5 33.5t-13.5 20.5z" />
    <glyph glyph-name="dagger" unicode="&#x2020;" horiz-adv-x="411" 
d="M40 458h152v242h27v-242h152v-26h-152v-532h-27v532h-152v26z" />
    <glyph glyph-name="daggerdbl" unicode="&#x2021;" horiz-adv-x="411" 
d="M40 458h152v242h27v-242h152v-26h-152v-234h152v-26h-152v-272h-27v272h-152v26h152v234h-152v26z" />
    <glyph glyph-name="bullet" unicode="&#x2022;" horiz-adv-x="148" 
d="M37 261q0 15 11 26t26 11t26 -11t11 -26t-11 -26t-26 -11t-26 11t-11 26z" />
    <glyph glyph-name="ellipsis" unicode="&#x2026;" horiz-adv-x="832" 
d="M692 24q0 8 7 15t18 7q9 0 16 -7t7 -15q0 -10 -7 -17.5t-16 -7.5q-11 0 -18 7.5t-7 17.5zM392 24q0 8 7 15t18 7q9 0 16 -7t7 -15q0 -10 -7 -17.5t-16 -7.5q-11 0 -18 7.5t-7 17.5zM92 24q0 8 7 15t18 7q9 0 16 -7t7 -15q0 -10 -7 -17.5t-16 -7.5q-11 0 -18 7.5t-7 17.5z
" />
    <glyph glyph-name="perthousand" unicode="&#x2030;" horiz-adv-x="1233" 
d="M852 156q0 34 12.5 62.5t34 49.5t51 32.5t64.5 11.5q34 0 64 -11.5t51.5 -32.5t34 -49.5t12.5 -62.5q0 -35 -12.5 -63.5t-34 -49.5t-51.5 -32.5t-64 -11.5q-35 0 -64.5 11.5t-51 32.5t-34 49.5t-12.5 63.5zM879 156q0 -30 11.5 -54.5t30 -42t43 -27t50.5 -9.5
q27 0 51.5 9.5t43 27t29.5 42t11 54.5t-11 54t-30 41.5t-43 27t-51 9.5t-51 -9.5t-43 -27t-30 -41.5t-11 -54zM671 709l17 -13l-526 -705l-18 14zM56 546q0 34 12.5 62.5t34 49.5t51 32.5t64.5 11.5q34 0 64 -11.5t51.5 -32.5t34 -49.5t12.5 -62.5q0 -35 -12.5 -63.5
t-34 -49.5t-51.5 -32.5t-64 -11.5q-35 0 -64.5 11.5t-51 32.5t-34 49.5t-12.5 63.5zM83 546q0 -30 11.5 -54.5t30 -42t43 -27t50.5 -9.5q27 0 51.5 9.5t43 27t29.5 42t11 54.5t-11 54t-30 41.5t-43 27t-51 9.5t-51 -9.5t-43 -27t-30 -41.5t-11 -54zM446 156q0 34 12.5 62.5
t34 49.5t51 32.5t64.5 11.5q34 0 64 -11.5t51.5 -32.5t34 -49.5t12.5 -62.5q0 -35 -12.5 -63.5t-34 -49.5t-51.5 -32.5t-64 -11.5q-35 0 -64.5 11.5t-51 32.5t-34 49.5t-12.5 63.5zM473 156q0 -30 11.5 -54.5t30 -42t43 -27t50.5 -9.5q27 0 51.5 9.5t43 27t29.5 42t11 54.5
t-11 54t-30 41.5t-43 27t-51 9.5t-51 -9.5t-43 -27t-30 -41.5t-11 -54z" />
    <glyph glyph-name="guilsinglleft" unicode="&#x2039;" horiz-adv-x="325" 
d="M56 248v4l176 203l19 -17l-163 -188l161 -189l-18 -18z" />
    <glyph glyph-name="guilsinglright" unicode="&#x203a;" horiz-adv-x="325" 
d="M94 43l-19 18l161 189l-163 188l19 17l176 -203v-4z" />
    <glyph glyph-name="fraction" unicode="&#x2044;" horiz-adv-x="184" 
d="M347 709l17 -13l-526 -705l-18 14z" />
    <glyph glyph-name="uni2070" unicode="&#x2070;" horiz-adv-x="363" 
d="M47 525q0 38 8.5 71t25.5 57t42.5 37.5t58.5 13.5t58.5 -14t42 -38t25 -56.5t8.5 -70.5t-8.5 -70.5t-25 -56.5t-41.5 -38t-58 -14q-34 0 -59.5 13.5t-42.5 37.5t-25.5 57t-8.5 71zM74 525q0 -70 28 -113t81 -43q55 0 80.5 43t25.5 113t-27 113t-80 43q-54 0 -81 -43
t-27 -113z" />
    <glyph glyph-name="uni2074" unicode="&#x2074;" horiz-adv-x="323" 
d="M215 443h-196v16l189 241h25l-184 -235h166v110h24v-110h64v-22h-64v-93h-24v93z" />
    <glyph glyph-name="uni2075" unicode="&#x2075;" horiz-adv-x="322" 
d="M100 700h182v-22h-164l-19 -122q9 2 22.5 4.5t27.5 2.5q60 0 96 -28.5t36 -76.5q0 -26 -10.5 -47t-27.5 -35.5t-40 -22t-48 -7.5q-38 0 -71 13t-52 44l15 15q17 -26 46.5 -38.5t58.5 -12.5q44 0 73 25.5t29 64.5q0 36 -31 60.5t-85 24.5q-17 0 -33.5 -2.5t-29.5 -5.5z
" />
    <glyph glyph-name="uni2076" unicode="&#x2076;" horiz-adv-x="359" 
d="M47 476q0 48 18.5 87.5t48 69t67 48t76.5 23.5l6 -18q-32 -5 -63.5 -19.5t-57 -38t-43.5 -55.5t-24 -72q12 26 42 45t75 19q58 0 91 -30.5t33 -78.5q0 -23 -10 -43t-27.5 -35t-40 -23.5t-47.5 -8.5q-37 0 -64 10.5t-45 28t-26.5 41t-8.5 50.5zM74 473q0 -20 7 -39
t21.5 -34t36.5 -24t51 -9q20 0 38 7t31.5 19t21.5 28t8 34q0 37 -26 63.5t-78 26.5q-24 0 -43 -7t-33 -17.5t-23 -23t-12 -24.5z" />
    <glyph glyph-name="uni2077" unicode="&#x2077;" horiz-adv-x="289" 
d="M23 700h243v-15l-164 -335h-28l161 327h-212v23z" />
    <glyph glyph-name="uni2078" unicode="&#x2078;" horiz-adv-x="366" 
d="M194 540q15 0 30 5.5t26.5 15t19 22.5t7.5 28q0 17 -8 30.5t-21.5 22.5t-30 14t-34.5 5q-36 0 -64.5 -18.5t-28.5 -53.5q0 -15 7.5 -28t19 -22.5t26.5 -15t30 -5.5h21zM176 520q-21 0 -39.5 -6t-32.5 -16t-22 -23.5t-8 -29.5q0 -17 9 -31.5t24 -25t34.5 -16t41.5 -5.5
t41.5 5.5t34.5 15.5t24 24.5t9 32.5q0 35 -29.5 55t-69.5 20h-17zM184 346q-27 0 -51 6.5t-43 18.5t-30 29.5t-11 40.5q0 31 23 55.5t65 32.5v2q-32 8 -52.5 31.5t-20.5 51.5q0 42 34.5 66t84.5 24q25 0 46.5 -6.5t38 -18t26 -28t9.5 -37.5q0 -26 -19.5 -49t-55.5 -34v-1
q40 -5 65 -29t25 -59q0 -23 -11 -41t-29.5 -30t-42.5 -18.5t-51 -6.5z" />
    <glyph glyph-name="uni2079" unicode="&#x2079;" horiz-adv-x="359" 
d="M312 572q0 -48 -16.5 -88.5t-46 -70t-69.5 -47t-87 -20.5l-3 18q41 5 76 21t61 41t41 56.5t16 66.5q-13 -26 -42.5 -45.5t-74.5 -19.5q-59 0 -92 30.5t-33 78.5q0 24 10.5 44t27.5 35t40 23.5t48 8.5q36 0 63 -10.5t45 -28.5t27 -42t9 -51zM285 575q0 21 -7 40.5
t-21.5 34.5t-36.5 24t-52 9q-20 0 -38 -7t-31.5 -19t-21.5 -28t-8 -34q0 -37 26.5 -64t78.5 -27q24 0 42.5 6.5t32.5 17t23 23t13 24.5z" />
    <glyph glyph-name="uni207A" unicode="&#x207a;" horiz-adv-x="360" 
d="M49 541h119v119h22v-119h121v-22h-121v-120h-22v120h-119v22z" />
    <glyph glyph-name="uni207B" unicode="&#x207b;" horiz-adv-x="360" 
d="M49 541h262v-22h-262v22z" />
    <glyph glyph-name="uni207C" unicode="&#x207c;" horiz-adv-x="360" 
d="M49 478h262v-22h-262v22zM49 604h262v-22h-262v22z" />
    <glyph glyph-name="uni207D" unicode="&#x207d;" horiz-adv-x="180" 
d="M154 307q-34 19 -57.5 45t-38.5 54.5t-21.5 58.5t-6.5 58q0 55 28.5 112t96.5 103l14 -15q-60 -41 -86.5 -93t-26.5 -107q0 -56 27 -110t87 -91z" />
    <glyph glyph-name="uni207E" unicode="&#x207e;" horiz-adv-x="180" 
d="M26 738q34 -20 57.5 -45.5t38.5 -54t21.5 -58.5t6.5 -58q0 -55 -28.5 -112t-96.5 -103l-14 15q60 41 86.5 93t26.5 107q0 56 -27.5 110t-86.5 91z" />
    <glyph glyph-name="uni2080" unicode="&#x2080;" horiz-adv-x="363" 
d="M47 175q0 38 8.5 71t25.5 57t42.5 37.5t58.5 13.5t58.5 -14t42 -38t25 -56.5t8.5 -70.5t-8.5 -70.5t-25 -56.5t-41.5 -38t-58 -14q-34 0 -59.5 13.5t-42.5 37.5t-25.5 57t-8.5 71zM74 175q0 -70 28 -113t81 -43q55 0 80.5 43t25.5 113t-27 113t-80 43q-54 0 -81 -43
t-27 -113z" />
    <glyph glyph-name="uni2081" unicode="&#x2081;" horiz-adv-x="228" 
d="M125 353h17v-353h-25v320l-74 -49l-11 19z" />
    <glyph glyph-name="uni2082" unicode="&#x2082;" horiz-adv-x="330" 
d="M42 20q25 18 60.5 44t68 56.5t55.5 64t23 67.5q0 32 -20.5 55.5t-65.5 23.5q-14 0 -29.5 -4t-28.5 -12.5t-22.5 -21t-12.5 -30.5l-22 7q3 21 14 36.5t27 26t35.5 16t38.5 5.5q30 0 51 -8.5t35 -22.5t20.5 -32.5t6.5 -38.5q0 -38 -25 -75t-58.5 -67.5t-66.5 -53.5t-48 -33
h218v-23h-254v20z" />
    <glyph glyph-name="uni2083" unicode="&#x2083;" horiz-adv-x="335" 
d="M160 -4q-38 0 -72.5 14.5t-51.5 49.5l17 13q14 -30 44.5 -42.5t61.5 -12.5q47 0 74 22.5t27 56.5q0 32 -26.5 51.5t-64.5 19.5h-38v21h34q15 0 29.5 5.5t25.5 15.5t18 23.5t7 29.5q0 35 -24.5 52t-62.5 17q-40 0 -62.5 -15t-33.5 -37l-15 14q12 28 42 44t72 16
q52 0 81.5 -22.5t29.5 -64.5q0 -27 -18 -51t-52 -34v-1q41 -5 63 -30t22 -56q0 -46 -36.5 -72.5t-90.5 -26.5z" />
    <glyph glyph-name="uni2084" unicode="&#x2084;" horiz-adv-x="323" 
d="M215 93h-196v16l189 241h25l-184 -235h166v110h24v-110h64v-22h-64v-93h-24v93z" />
    <glyph glyph-name="uni2085" unicode="&#x2085;" horiz-adv-x="322" 
d="M100 350h182v-22h-164l-19 -122q9 2 22.5 4.5t27.5 2.5q60 0 96 -28.5t36 -76.5q0 -26 -10.5 -47t-27.5 -35.5t-40 -22t-48 -7.5q-38 0 -71 13t-52 44l15 15q17 -26 46.5 -38.5t58.5 -12.5q44 0 73 25.5t29 64.5q0 36 -31 60.5t-85 24.5q-17 0 -33.5 -2.5t-29.5 -5.5z
" />
    <glyph glyph-name="uni2086" unicode="&#x2086;" horiz-adv-x="359" 
d="M47 126q0 48 18.5 87.5t48 69t67 48t76.5 23.5l6 -18q-32 -5 -63.5 -19.5t-57 -38t-43.5 -55.5t-24 -72q12 26 42 45t75 19q58 0 91 -30.5t33 -78.5q0 -23 -10 -43t-27.5 -35t-40 -23.5t-47.5 -8.5q-37 0 -64 10.5t-45 28t-26.5 41t-8.5 50.5zM74 123q0 -20 7 -39
t21.5 -34t36.5 -24t51 -9q20 0 38 7t31.5 19t21.5 28t8 34q0 37 -26 63.5t-78 26.5q-24 0 -43 -7t-33 -17.5t-23 -23t-12 -24.5z" />
    <glyph glyph-name="uni2087" unicode="&#x2087;" horiz-adv-x="289" 
d="M23 350h243v-15l-164 -335h-28l161 327h-212v23z" />
    <glyph glyph-name="uni2088" unicode="&#x2088;" horiz-adv-x="366" 
d="M194 190q15 0 30 5.5t26.5 15t19 22.5t7.5 28q0 17 -8 30.5t-21.5 22.5t-30 14t-34.5 5q-36 0 -64.5 -18.5t-28.5 -53.5q0 -15 7.5 -28t19 -22.5t26.5 -15t30 -5.5h21zM176 170q-21 0 -39.5 -6t-32.5 -16t-22 -23.5t-8 -29.5q0 -17 9 -31.5t24 -25t34.5 -16t41.5 -5.5
t41.5 5.5t34.5 15.5t24 24.5t9 32.5q0 35 -29.5 55t-69.5 20h-17zM184 -4q-27 0 -51 6.5t-43 18.5t-30 29.5t-11 40.5q0 31 23 55.5t65 32.5v2q-32 8 -52.5 31.5t-20.5 51.5q0 42 34.5 66t84.5 24q25 0 46.5 -6.5t38 -18t26 -28t9.5 -37.5q0 -26 -19.5 -49t-55.5 -34v-1
q40 -5 65 -29t25 -59q0 -23 -11 -41t-29.5 -30t-42.5 -18.5t-51 -6.5z" />
    <glyph glyph-name="uni2089" unicode="&#x2089;" horiz-adv-x="359" 
d="M312 222q0 -48 -16.5 -88.5t-46 -70t-69.5 -47t-87 -20.5l-3 18q41 5 76 21t61 41t41 56.5t16 66.5q-13 -26 -42.5 -45.5t-74.5 -19.5q-59 0 -92 30.5t-33 78.5q0 24 10.5 44t27.5 35t40 23.5t48 8.5q36 0 63 -10.5t45 -28.5t27 -42t9 -51zM285 225q0 21 -7 40.5
t-21.5 34.5t-36.5 24t-52 9q-20 0 -38 -7t-31.5 -19t-21.5 -28t-8 -34q0 -37 26.5 -64t78.5 -27q24 0 42.5 6.5t32.5 17t23 23t13 24.5z" />
    <glyph glyph-name="uni208A" unicode="&#x208a;" horiz-adv-x="360" 
d="M49 191h119v119h22v-119h121v-22h-121v-120h-22v120h-119v22z" />
    <glyph glyph-name="uni208B" unicode="&#x208b;" horiz-adv-x="360" 
d="M49 191h262v-22h-262v22z" />
    <glyph glyph-name="uni208C" unicode="&#x208c;" horiz-adv-x="360" 
d="M49 128h262v-22h-262v22zM49 254h262v-22h-262v22z" />
    <glyph glyph-name="uni208D" unicode="&#x208d;" horiz-adv-x="180" 
d="M154 -43q-34 19 -57.5 45t-38.5 54.5t-21.5 58.5t-6.5 58q0 55 28.5 112t96.5 103l14 -15q-60 -41 -86.5 -93t-26.5 -107q0 -56 27 -110t87 -91z" />
    <glyph glyph-name="uni208E" unicode="&#x208e;" horiz-adv-x="180" 
d="M26 388q34 -20 57.5 -45.5t38.5 -54t21.5 -58.5t6.5 -58q0 -55 -28.5 -112t-96.5 -103l-14 15q60 41 86.5 93t26.5 107q0 56 -27.5 110t-86.5 91z" />
    <glyph glyph-name="Euro" unicode="&#x20ac;" 
d="M30 453h76q14 56 43 103t71 81t95 53t115 19q38 0 76.5 -8.5t60.5 -20.5l-11 -27q-24 11 -55.5 19t-70.5 8q-55 0 -102.5 -16.5t-85 -46.5t-64.5 -72t-40 -92h366l-9 -25h-363q-7 -35 -7 -78q0 -16 1 -31t3 -29h332l-8 -24h-320q12 -57 39.5 -102.5t67 -77.5t90.5 -49
t111 -17q71 0 111 23l6 -28q-8 -6 -22.5 -10.5t-31 -7.5t-33.5 -4.5t-31 -1.5q-66 0 -123 19t-101 54.5t-73.5 86.5t-41.5 115h-81l10 24h67q-3 28 -3 60q0 43 7 78h-81z" />
    <glyph glyph-name="uni20B4" unicode="&#x20b4;" horiz-adv-x="600" 
d="M80 453h325q19 23 29.5 50t6.5 61q0 54 -36.5 85t-96.5 31q-97 0 -158 -62l-16 21q29 32 73.5 51t98.5 19q81 0 125 -41t44 -105q0 -34 -11 -61.5t-30 -48.5h86v-24h-103q-21 -21 -46.5 -37.5t-52.5 -32.5t-53 -32.5t-48 -35.5h303v-24h-326q-21 -23 -34.5 -50.5
t-13.5 -64.5q0 -34 14.5 -59t37.5 -41t53 -24t60 -8q48 0 93.5 21.5t73.5 65.5l17 -20q-29 -47 -79 -71.5t-110 -24.5q-37 0 -71 10.5t-60 30.5t-41.5 49.5t-15.5 67.5q0 37 12.5 66t33.5 52h-84v24h103q21 20 47 37t53 33t53 32t47 36h-303v24z" />
    <glyph glyph-name="uni20B6" unicode="&#x20b6;" horiz-adv-x="600" 
d="M29 349h117v351q15 0 36.5 0.5t44.5 0.5t44 0.5t35 0.5q71 0 117.5 -15.5t74 -41.5t38.5 -60t11 -72q0 -39 -13.5 -73.5t-43 -60t-76.5 -40.5t-114 -15h-125v-138h188v-24h-188v-162h-29v162h-117v24h117v138h-117v25zM309 674h-31t-36.5 -0.5t-36.5 -1t-30 -0.5v-323
h124q112 0 164.5 43.5t52.5 120.5q0 37 -11.5 66.5t-36 50.5t-64 32.5t-95.5 11.5z" />
    <glyph glyph-name="uni20B6" unicode="&#x20cf;" horiz-adv-x="600" 
d="M29 349h117v351q15 0 36.5 0.5t44.5 0.5t44 0.5t35 0.5q71 0 117.5 -15.5t74 -41.5t38.5 -60t11 -72q0 -39 -13.5 -73.5t-43 -60t-76.5 -40.5t-114 -15h-125v-138h188v-24h-188v-162h-29v162h-117v24h117v138h-117v25zM309 674h-31t-36.5 -0.5t-36.5 -1t-30 -0.5v-323
h124q112 0 164.5 43.5t52.5 120.5q0 37 -11.5 66.5t-36 50.5t-64 32.5t-95.5 11.5z" />
    <glyph glyph-name="uni20B6" unicode="&#x20ce;" horiz-adv-x="600" 
d="M29 349h117v351q15 0 36.5 0.5t44.5 0.5t44 0.5t35 0.5q71 0 117.5 -15.5t74 -41.5t38.5 -60t11 -72q0 -39 -13.5 -73.5t-43 -60t-76.5 -40.5t-114 -15h-125v-138h188v-24h-188v-162h-29v162h-117v24h117v138h-117v25zM309 674h-31t-36.5 -0.5t-36.5 -1t-30 -0.5v-323
h124q112 0 164.5 43.5t52.5 120.5q0 37 -11.5 66.5t-36 50.5t-64 32.5t-95.5 11.5z" />
    <glyph glyph-name="uni20B6" unicode="&#x20cd;" horiz-adv-x="600" 
d="M29 349h117v351q15 0 36.5 0.5t44.5 0.5t44 0.5t35 0.5q71 0 117.5 -15.5t74 -41.5t38.5 -60t11 -72q0 -39 -13.5 -73.5t-43 -60t-76.5 -40.5t-114 -15h-125v-138h188v-24h-188v-162h-29v162h-117v24h117v138h-117v25zM309 674h-31t-36.5 -0.5t-36.5 -1t-30 -0.5v-323
h124q112 0 164.5 43.5t52.5 120.5q0 37 -11.5 66.5t-36 50.5t-64 32.5t-95.5 11.5z" />
    <glyph glyph-name="uni20B6" unicode="&#x20cc;" horiz-adv-x="600" 
d="M29 349h117v351q15 0 36.5 0.5t44.5 0.5t44 0.5t35 0.5q71 0 117.5 -15.5t74 -41.5t38.5 -60t11 -72q0 -39 -13.5 -73.5t-43 -60t-76.5 -40.5t-114 -15h-125v-138h188v-24h-188v-162h-29v162h-117v24h117v138h-117v25zM309 674h-31t-36.5 -0.5t-36.5 -1t-30 -0.5v-323
h124q112 0 164.5 43.5t52.5 120.5q0 37 -11.5 66.5t-36 50.5t-64 32.5t-95.5 11.5z" />
    <glyph glyph-name="uni20B6" unicode="&#x20cb;" horiz-adv-x="600" 
d="M29 349h117v351q15 0 36.5 0.5t44.5 0.5t44 0.5t35 0.5q71 0 117.5 -15.5t74 -41.5t38.5 -60t11 -72q0 -39 -13.5 -73.5t-43 -60t-76.5 -40.5t-114 -15h-125v-138h188v-24h-188v-162h-29v162h-117v24h117v138h-117v25zM309 674h-31t-36.5 -0.5t-36.5 -1t-30 -0.5v-323
h124q112 0 164.5 43.5t52.5 120.5q0 37 -11.5 66.5t-36 50.5t-64 32.5t-95.5 11.5z" />
    <glyph glyph-name="uni20B6" unicode="&#x20ca;" horiz-adv-x="600" 
d="M29 349h117v351q15 0 36.5 0.5t44.5 0.5t44 0.5t35 0.5q71 0 117.5 -15.5t74 -41.5t38.5 -60t11 -72q0 -39 -13.5 -73.5t-43 -60t-76.5 -40.5t-114 -15h-125v-138h188v-24h-188v-162h-29v162h-117v24h117v138h-117v25zM309 674h-31t-36.5 -0.5t-36.5 -1t-30 -0.5v-323
h124q112 0 164.5 43.5t52.5 120.5q0 37 -11.5 66.5t-36 50.5t-64 32.5t-95.5 11.5z" />
    <glyph glyph-name="uni20B6" unicode="&#x20c9;" horiz-adv-x="600" 
d="M29 349h117v351q15 0 36.5 0.5t44.5 0.5t44 0.5t35 0.5q71 0 117.5 -15.5t74 -41.5t38.5 -60t11 -72q0 -39 -13.5 -73.5t-43 -60t-76.5 -40.5t-114 -15h-125v-138h188v-24h-188v-162h-29v162h-117v24h117v138h-117v25zM309 674h-31t-36.5 -0.5t-36.5 -1t-30 -0.5v-323
h124q112 0 164.5 43.5t52.5 120.5q0 37 -11.5 66.5t-36 50.5t-64 32.5t-95.5 11.5z" />
    <glyph glyph-name="uni20B6" unicode="&#x20c8;" horiz-adv-x="600" 
d="M29 349h117v351q15 0 36.5 0.5t44.5 0.5t44 0.5t35 0.5q71 0 117.5 -15.5t74 -41.5t38.5 -60t11 -72q0 -39 -13.5 -73.5t-43 -60t-76.5 -40.5t-114 -15h-125v-138h188v-24h-188v-162h-29v162h-117v24h117v138h-117v25zM309 674h-31t-36.5 -0.5t-36.5 -1t-30 -0.5v-323
h124q112 0 164.5 43.5t52.5 120.5q0 37 -11.5 66.5t-36 50.5t-64 32.5t-95.5 11.5z" />
    <glyph glyph-name="uni20B6" unicode="&#x20c7;" horiz-adv-x="600" 
d="M29 349h117v351q15 0 36.5 0.5t44.5 0.5t44 0.5t35 0.5q71 0 117.5 -15.5t74 -41.5t38.5 -60t11 -72q0 -39 -13.5 -73.5t-43 -60t-76.5 -40.5t-114 -15h-125v-138h188v-24h-188v-162h-29v162h-117v24h117v138h-117v25zM309 674h-31t-36.5 -0.5t-36.5 -1t-30 -0.5v-323
h124q112 0 164.5 43.5t52.5 120.5q0 37 -11.5 66.5t-36 50.5t-64 32.5t-95.5 11.5z" />
    <glyph glyph-name="uni20B6" unicode="&#x20c6;" horiz-adv-x="600" 
d="M29 349h117v351q15 0 36.5 0.5t44.5 0.5t44 0.5t35 0.5q71 0 117.5 -15.5t74 -41.5t38.5 -60t11 -72q0 -39 -13.5 -73.5t-43 -60t-76.5 -40.5t-114 -15h-125v-138h188v-24h-188v-162h-29v162h-117v24h117v138h-117v25zM309 674h-31t-36.5 -0.5t-36.5 -1t-30 -0.5v-323
h124q112 0 164.5 43.5t52.5 120.5q0 37 -11.5 66.5t-36 50.5t-64 32.5t-95.5 11.5z" />
    <glyph glyph-name="uni20B6" unicode="&#x20c5;" horiz-adv-x="600" 
d="M29 349h117v351q15 0 36.5 0.5t44.5 0.5t44 0.5t35 0.5q71 0 117.5 -15.5t74 -41.5t38.5 -60t11 -72q0 -39 -13.5 -73.5t-43 -60t-76.5 -40.5t-114 -15h-125v-138h188v-24h-188v-162h-29v162h-117v24h117v138h-117v25zM309 674h-31t-36.5 -0.5t-36.5 -1t-30 -0.5v-323
h124q112 0 164.5 43.5t52.5 120.5q0 37 -11.5 66.5t-36 50.5t-64 32.5t-95.5 11.5z" />
    <glyph glyph-name="uni20B6" unicode="&#x20c4;" horiz-adv-x="600" 
d="M29 349h117v351q15 0 36.5 0.5t44.5 0.5t44 0.5t35 0.5q71 0 117.5 -15.5t74 -41.5t38.5 -60t11 -72q0 -39 -13.5 -73.5t-43 -60t-76.5 -40.5t-114 -15h-125v-138h188v-24h-188v-162h-29v162h-117v24h117v138h-117v25zM309 674h-31t-36.5 -0.5t-36.5 -1t-30 -0.5v-323
h124q112 0 164.5 43.5t52.5 120.5q0 37 -11.5 66.5t-36 50.5t-64 32.5t-95.5 11.5z" />
    <glyph glyph-name="uni20B6" unicode="&#x20c3;" horiz-adv-x="600" 
d="M29 349h117v351q15 0 36.5 0.5t44.5 0.5t44 0.5t35 0.5q71 0 117.5 -15.5t74 -41.5t38.5 -60t11 -72q0 -39 -13.5 -73.5t-43 -60t-76.5 -40.5t-114 -15h-125v-138h188v-24h-188v-162h-29v162h-117v24h117v138h-117v25zM309 674h-31t-36.5 -0.5t-36.5 -1t-30 -0.5v-323
h124q112 0 164.5 43.5t52.5 120.5q0 37 -11.5 66.5t-36 50.5t-64 32.5t-95.5 11.5z" />
    <glyph glyph-name="uni20B6" unicode="&#x20c2;" horiz-adv-x="600" 
d="M29 349h117v351q15 0 36.5 0.5t44.5 0.5t44 0.5t35 0.5q71 0 117.5 -15.5t74 -41.5t38.5 -60t11 -72q0 -39 -13.5 -73.5t-43 -60t-76.5 -40.5t-114 -15h-125v-138h188v-24h-188v-162h-29v162h-117v24h117v138h-117v25zM309 674h-31t-36.5 -0.5t-36.5 -1t-30 -0.5v-323
h124q112 0 164.5 43.5t52.5 120.5q0 37 -11.5 66.5t-36 50.5t-64 32.5t-95.5 11.5z" />
    <glyph glyph-name="uni20B6" unicode="&#x20c1;" horiz-adv-x="600" 
d="M29 349h117v351q15 0 36.5 0.5t44.5 0.5t44 0.5t35 0.5q71 0 117.5 -15.5t74 -41.5t38.5 -60t11 -72q0 -39 -13.5 -73.5t-43 -60t-76.5 -40.5t-114 -15h-125v-138h188v-24h-188v-162h-29v162h-117v24h117v138h-117v25zM309 674h-31t-36.5 -0.5t-36.5 -1t-30 -0.5v-323
h124q112 0 164.5 43.5t52.5 120.5q0 37 -11.5 66.5t-36 50.5t-64 32.5t-95.5 11.5z" />
    <glyph glyph-name="uni20B6" unicode="&#x20c0;" horiz-adv-x="600" 
d="M29 349h117v351q15 0 36.5 0.5t44.5 0.5t44 0.5t35 0.5q71 0 117.5 -15.5t74 -41.5t38.5 -60t11 -72q0 -39 -13.5 -73.5t-43 -60t-76.5 -40.5t-114 -15h-125v-138h188v-24h-188v-162h-29v162h-117v24h117v138h-117v25zM309 674h-31t-36.5 -0.5t-36.5 -1t-30 -0.5v-323
h124q112 0 164.5 43.5t52.5 120.5q0 37 -11.5 66.5t-36 50.5t-64 32.5t-95.5 11.5z" />
    <glyph glyph-name="uni20B6" unicode="&#x20bf;" horiz-adv-x="600" 
d="M29 349h117v351q15 0 36.5 0.5t44.5 0.5t44 0.5t35 0.5q71 0 117.5 -15.5t74 -41.5t38.5 -60t11 -72q0 -39 -13.5 -73.5t-43 -60t-76.5 -40.5t-114 -15h-125v-138h188v-24h-188v-162h-29v162h-117v24h117v138h-117v25zM309 674h-31t-36.5 -0.5t-36.5 -1t-30 -0.5v-323
h124q112 0 164.5 43.5t52.5 120.5q0 37 -11.5 66.5t-36 50.5t-64 32.5t-95.5 11.5z" />
    <glyph glyph-name="uni20B6" unicode="&#x20be;" horiz-adv-x="600" 
d="M29 349h117v351q15 0 36.5 0.5t44.5 0.5t44 0.5t35 0.5q71 0 117.5 -15.5t74 -41.5t38.5 -60t11 -72q0 -39 -13.5 -73.5t-43 -60t-76.5 -40.5t-114 -15h-125v-138h188v-24h-188v-162h-29v162h-117v24h117v138h-117v25zM309 674h-31t-36.5 -0.5t-36.5 -1t-30 -0.5v-323
h124q112 0 164.5 43.5t52.5 120.5q0 37 -11.5 66.5t-36 50.5t-64 32.5t-95.5 11.5z" />
    <glyph glyph-name="uni20B6" unicode="&#x20bd;" horiz-adv-x="600" 
d="M29 349h117v351q15 0 36.5 0.5t44.5 0.5t44 0.5t35 0.5q71 0 117.5 -15.5t74 -41.5t38.5 -60t11 -72q0 -39 -13.5 -73.5t-43 -60t-76.5 -40.5t-114 -15h-125v-138h188v-24h-188v-162h-29v162h-117v24h117v138h-117v25zM309 674h-31t-36.5 -0.5t-36.5 -1t-30 -0.5v-323
h124q112 0 164.5 43.5t52.5 120.5q0 37 -11.5 66.5t-36 50.5t-64 32.5t-95.5 11.5z" />
    <glyph glyph-name="uni20B6" unicode="&#x20bc;" horiz-adv-x="600" 
d="M29 349h117v351q15 0 36.5 0.5t44.5 0.5t44 0.5t35 0.5q71 0 117.5 -15.5t74 -41.5t38.5 -60t11 -72q0 -39 -13.5 -73.5t-43 -60t-76.5 -40.5t-114 -15h-125v-138h188v-24h-188v-162h-29v162h-117v24h117v138h-117v25zM309 674h-31t-36.5 -0.5t-36.5 -1t-30 -0.5v-323
h124q112 0 164.5 43.5t52.5 120.5q0 37 -11.5 66.5t-36 50.5t-64 32.5t-95.5 11.5z" />
    <glyph glyph-name="uni20B6" unicode="&#x20bb;" horiz-adv-x="600" 
d="M29 349h117v351q15 0 36.5 0.5t44.5 0.5t44 0.5t35 0.5q71 0 117.5 -15.5t74 -41.5t38.5 -60t11 -72q0 -39 -13.5 -73.5t-43 -60t-76.5 -40.5t-114 -15h-125v-138h188v-24h-188v-162h-29v162h-117v24h117v138h-117v25zM309 674h-31t-36.5 -0.5t-36.5 -1t-30 -0.5v-323
h124q112 0 164.5 43.5t52.5 120.5q0 37 -11.5 66.5t-36 50.5t-64 32.5t-95.5 11.5z" />
    <glyph glyph-name="uni20B6" unicode="&#x20ba;" horiz-adv-x="600" 
d="M29 349h117v351q15 0 36.5 0.5t44.5 0.5t44 0.5t35 0.5q71 0 117.5 -15.5t74 -41.5t38.5 -60t11 -72q0 -39 -13.5 -73.5t-43 -60t-76.5 -40.5t-114 -15h-125v-138h188v-24h-188v-162h-29v162h-117v24h117v138h-117v25zM309 674h-31t-36.5 -0.5t-36.5 -1t-30 -0.5v-323
h124q112 0 164.5 43.5t52.5 120.5q0 37 -11.5 66.5t-36 50.5t-64 32.5t-95.5 11.5z" />
    <glyph glyph-name="uni20B6" unicode="&#x20b9;" horiz-adv-x="600" 
d="M29 349h117v351q15 0 36.5 0.5t44.5 0.5t44 0.5t35 0.5q71 0 117.5 -15.5t74 -41.5t38.5 -60t11 -72q0 -39 -13.5 -73.5t-43 -60t-76.5 -40.5t-114 -15h-125v-138h188v-24h-188v-162h-29v162h-117v24h117v138h-117v25zM309 674h-31t-36.5 -0.5t-36.5 -1t-30 -0.5v-323
h124q112 0 164.5 43.5t52.5 120.5q0 37 -11.5 66.5t-36 50.5t-64 32.5t-95.5 11.5z" />
    <glyph glyph-name="uni20B6" unicode="&#x20b7;" horiz-adv-x="600" 
d="M29 349h117v351q15 0 36.5 0.5t44.5 0.5t44 0.5t35 0.5q71 0 117.5 -15.5t74 -41.5t38.5 -60t11 -72q0 -39 -13.5 -73.5t-43 -60t-76.5 -40.5t-114 -15h-125v-138h188v-24h-188v-162h-29v162h-117v24h117v138h-117v25zM309 674h-31t-36.5 -0.5t-36.5 -1t-30 -0.5v-323
h124q112 0 164.5 43.5t52.5 120.5q0 37 -11.5 66.5t-36 50.5t-64 32.5t-95.5 11.5z" />
    <glyph glyph-name="afii61352" unicode="&#x2116;" horiz-adv-x="1157" 
d="M639 0l-495 646v-646h-28v700h24l494 -648v648h29v-700h-24zM755 502q0 34 12.5 62.5t34 49.5t51 32.5t64.5 11.5q34 0 64 -11.5t51.5 -32.5t34 -49.5t12.5 -62.5q0 -35 -12.5 -63.5t-34 -49.5t-51.5 -32.5t-64 -11.5q-35 0 -64.5 11.5t-51 32.5t-34 49.5t-12.5 63.5z
M782 502q0 -30 11.5 -54.5t30 -42t43 -27t50.5 -9.5q27 0 51.5 9.5t43 27t29.5 42t11 54.5t-11 54t-30 41.5t-43 27t-51 9.5t-51 -9.5t-43 -27t-30 -41.5t-11 -54zM786 271h262v-27h-262v27z" />
    <glyph glyph-name="trademark" unicode="&#x2122;" horiz-adv-x="820" 
d="M383 700h26l153 -186l148 186h24v-315h-27v279l-145 -184h-2l-150 184v-279h-27v315zM11 700h311v-26h-142v-289h-27v289h-142v26z" />
    <glyph glyph-name="arrowleft" unicode="&#x2190;" horiz-adv-x="643" 
d="M343 535l-248 -247h508v-28h-510l250 -250l-20 -20l-283 283l283 282z" />
    <glyph glyph-name="arrowup" unicode="&#x2191;" horiz-adv-x="645" 
d="M40 280l282 283l283 -283l-20 -20l-250 250v-510h-28v508l-247 -248z" />
    <glyph glyph-name="arrowright" unicode="&#x2192;" horiz-adv-x="643" 
d="M320 555l283 -282l-283 -283l-20 20l250 250h-510v28h508l-248 247z" />
    <glyph glyph-name="arrowdown" unicode="&#x2193;" horiz-adv-x="645" 
d="M60 283l247 -248v508h28v-510l250 250l20 -20l-283 -283l-282 283z" />
    <glyph glyph-name="partialdiff" unicode="&#x2202;" horiz-adv-x="578" 
d="M52 204q0 51 18.5 97t51 81.5t76.5 56t96 20.5q45 0 79.5 -12t59.5 -31t41 -42t23 -44q0 61 -14.5 121.5t-49 109.5t-90.5 82t-140 39l5 27q76 -5 135.5 -34t100 -78t62 -117t21.5 -150q0 -62 -18 -122.5t-52 -108.5t-83.5 -78t-113.5 -30q-45 0 -83 16t-65.5 44.5
t-43.5 67.5t-16 85zM81 206q0 -38 13 -72.5t37 -60t57.5 -40.5t74.5 -15q52 0 94 25t71.5 64.5t46.5 89t21 98.5q-10 25 -26.5 49.5t-40.5 44t-57 31.5t-77 12q-45 0 -84 -18.5t-68 -49.5t-45.5 -72t-16.5 -86z" />
    <glyph glyph-name="product" unicode="&#x220f;" horiz-adv-x="876" 
d="M731 672h-585v-872h-30v900h644v-900h-29v872z" />
    <glyph glyph-name="summation" unicode="&#x2211;" horiz-adv-x="624" 
d="M40 684v16h544v-28h-499l315 -422l-317 -422h501v-28h-544v16l324 434z" />
    <glyph glyph-name="minus" unicode="&#x2212;" 
d="M73 373h440v-26h-440v26z" />
    <glyph glyph-name="uni2215" unicode="&#x2215;" horiz-adv-x="301" 
d="M308 709l23 -9l-337 -908l-24 9z" />
    <glyph glyph-name="radical" unicode="&#x221a;" horiz-adv-x="573" 
d="M1 450h135l194 -402l142 652h256v-28h-231l-151 -679h-20l-209 429h-116v28z" />
    <glyph glyph-name="infinity" unicode="&#x221e;" horiz-adv-x="731" 
d="M540 205q-29 0 -53.5 10t-46 26t-40 37t-36.5 44q-16 -23 -32.5 -44t-36 -37t-43 -26t-52.5 -10q-24 0 -49.5 9t-46.5 26.5t-34 42.5t-13 58q0 27 10.5 52t30 44t46.5 30.5t59 11.5q26 0 48 -9.5t41.5 -25.5t37.5 -37t35 -43q15 22 32 43t37.5 37t46 25.5t58.5 9.5
q63 0 99 -39.5t36 -102.5q0 -23 -8.5 -46.5t-25 -42.5t-41.5 -31t-59 -12zM534 453q-27 0 -49 -9t-40 -24t-34 -35t-31 -41q17 -22 34.5 -42.5t37 -36t41 -25t47.5 -9.5q27 0 47.5 10t33.5 25.5t19.5 34t6.5 36.5q0 24 -7.5 45t-21.5 36.5t-35 25t-49 9.5zM201 231
q26 0 47 9t38.5 24.5t32.5 35.5t30 42q-17 21 -33.5 41t-34 35.5t-37 25t-41.5 9.5q-27 0 -48.5 -9t-37.5 -24.5t-24.5 -36t-8.5 -42.5q0 -27 11.5 -48t28.5 -34.5t38 -20.5t39 -7z" />
    <glyph glyph-name="integral" unicode="&#x222b;" horiz-adv-x="338" 
d="M131 -29q0 -72 -23.5 -118t-78.5 -57q-21 -4 -46 -3q-24 0 -44.5 7.5t-33.5 17.5l10 23q12 -8 31 -15t39 -7q64 0 91 40t27 113v551q0 158 113 181q19 4 46 4q39 -1 64.5 -12t41.5 -24l-11 -22q-18 13 -39.5 22t-54.5 9q-43 0 -72 -16q-29 -17 -44.5 -54t-15.5 -97v-543
v0z" />
    <glyph glyph-name="approxequal" unicode="&#x2248;" 
d="M63 271q32 30 62 43.5t59 13.5q31 0 59.5 -11.5t57 -25.5t56.5 -25.5t57 -11.5q23 0 46.5 11t48.5 35l14 -20q-55 -52 -110 -52q-30 0 -58.5 11.5t-57 26t-57 26t-57.5 11.5q-52 0 -104 -51zM63 437q32 30 62 43.5t59 13.5q31 0 59.5 -11.5t57 -25.5t56.5 -25.5t57 -11.5
q23 0 46.5 11t48.5 35l14 -20q-55 -52 -110 -52q-30 0 -58.5 11.5t-57 26t-57 26t-57.5 11.5q-52 0 -104 -51z" />
    <glyph glyph-name="notequal" unicode="&#x2260;" 
d="M73 456h236l95 253l23 -9l-91 -244h177v-26h-186l-52 -140h238v-26h-248l-101 -273l-23 10l97 263h-165v26h175l52 140h-227v26z" />
    <glyph glyph-name="lessequal" unicode="&#x2264;" 
d="M70 302l403 -258v-29l-403 258v29zM70 439v12l403 256v-31l-363 -231l363 -233v-32z" />
    <glyph glyph-name="greaterequal" unicode="&#x2265;" 
d="M516 273l-403 -258v29l403 258v-29zM113 180v32l363 233l-363 231v31l403 -256v-12z" />
    <glyph glyph-name="lozenge" unicode="&#x25ca;" horiz-adv-x="463" 
d="M55 249l168 269h18l167 -258l-168 -267h-18zM232 24l147 236l-147 227l-148 -237z" />
    <glyph glyph-name="spade" unicode="&#x2660;" horiz-adv-x="632" 
d="M316 510q39 -25 84 -64t83.5 -82.5t63.5 -87t25 -77.5q0 -19 -7 -37.5t-21 -33.5t-36 -24t-53 -9q-48 0 -79 21.5t-52 50.5q13 -54 37 -96.5t70 -70.5h-230q38 27 64 68.5t41 95.5q-21 -29 -52 -49t-77 -20q-31 0 -53 9t-36.5 24t-21 33.5t-6.5 38.5q0 34 25 77
t63.5 86.5t83.5 82.5t84 64z" />
    <glyph glyph-name="club" unicode="&#x2663;" horiz-adv-x="612" 
d="M177 381q0 27 10 50.5t27.5 41t41 27.5t50.5 10t50.5 -10t41 -27.5t27.5 -41t10 -50.5q0 -5 -0.5 -9.5t-1.5 -9.5q25 -2 46.5 -13t37.5 -28t25.5 -39.5t9.5 -47.5q0 -27 -10 -50.5t-27.5 -41t-41 -27.5t-50.5 -10q-32 0 -59.5 14.5t-44.5 38.5q13 -48 36.5 -90t65.5 -68
h-230q35 24 60 67t40 89q-17 -22 -44.5 -36.5t-57.5 -14.5q-27 0 -50.5 10t-41 27.5t-27.5 41t-10 50.5q0 25 9 47.5t25 39.5t37.5 28t46.5 13q-1 5 -1 9.5v9.5z" />
    <glyph glyph-name="heart" unicode="&#x2665;" horiz-adv-x="649" 
d="M325 0q-41 31 -87.5 77t-86 97t-65.5 102.5t-26 93.5q0 24 7 47.5t21.5 41.5t37.5 29.5t55 11.5q27 0 48.5 -8.5t39 -23t31.5 -33.5t25 -39q10 20 24 39t31.5 33.5t39 23t48.5 8.5q32 0 55 -11.5t37.5 -29.5t21.5 -41t7 -47q0 -42 -26 -93.5t-65.5 -103t-86 -97.5
t-86.5 -77z" />
    <glyph glyph-name="diamond" unicode="&#x2666;" horiz-adv-x="583" 
d="M523 249q-64 -64 -121 -131t-111 -137q-103 136 -231 268q64 67 120.5 134t110.5 135q55 -70 112 -137t120 -132z" />
    <glyph glyph-name="uniF350" unicode="&#xf350;" horiz-adv-x="560" 
d="M269 530h22l248 -530h-32l-88 189h-280l-88 -189h-30zM151 216h255l-127 275z" />
    <glyph glyph-name="uniF351" unicode="&#xf351;" horiz-adv-x="495" 
d="M93 525h310v-28h-281v-192q28 2 56 3t48 1q105 0 156 -39.5t51 -109.5q0 -83 -57.5 -122.5t-156.5 -39.5q-35 0 -68 1t-58 1v525zM225 282q-20 0 -47.5 -1t-55.5 -4v-249q21 0 46 -1t54 -1q90 0 136 33.5t46 99.5q0 58 -44 90.5t-135 32.5z" />
    <glyph glyph-name="uniF352" unicode="&#xf352;" horiz-adv-x="502" 
d="M93 525q12 0 30 0.5t38.5 0.5t41.5 0.5t38 0.5q51 0 84.5 -10t54 -27.5t29 -41t8.5 -50.5t-9.5 -49t-26 -37.5t-38 -25.5t-45.5 -13v-1q69 -7 105.5 -38.5t36.5 -88.5q0 -39 -15 -67t-41.5 -45.5t-63 -26t-79.5 -8.5q-17 0 -38 0.5t-41 0.5t-38.5 0.5t-30.5 0.5v525z
M122 256v-228q9 0 23.5 -0.5t31 -0.5t33.5 -0.5t31 -0.5q80 0 125 29t45 91q0 53 -43 81.5t-124 28.5h-122zM240 499h-31t-33 -0.5t-30.5 -1t-23.5 -0.5v-215h126q28 0 53.5 8t45 22t30.5 34.5t11 45.5q0 53 -34.5 80t-113.5 27z" />
    <glyph glyph-name="uniF353" unicode="&#xf353;" horiz-adv-x="407" 
d="M93 525h312v-28h-283v-497h-29v525z" />
    <glyph glyph-name="uniF354" unicode="&#xf354;" horiz-adv-x="597" 
d="M15 28h61q9 10 23.5 38t29.5 75.5t28 116.5t18 162l6 105h309v-497h77v-130h-28v102h-496v-102h-28v130zM204 402q-6 -90 -18.5 -156.5t-27 -111.5t-28 -71t-21.5 -35h352v469h-251z" />
    <glyph glyph-name="uniF355" unicode="&#xf355;" horiz-adv-x="474" 
d="M93 525h311v-28h-282v-216h258v-28h-258v-225h290v-28h-319v525z" />
    <glyph glyph-name="uniF356" unicode="&#xf356;" horiz-adv-x="733" 
d="M451 275l255 -275h-39l-252 274l243 251h40zM352 525h30v-525h-30v525zM36 525h39l244 -251l-253 -274h-39l255 274z" />
    <glyph glyph-name="uniF357" unicode="&#xf357;" horiz-adv-x="464" 
d="M214 -7q-26 0 -52.5 6t-50 16t-43 23.5t-30.5 29.5l17 19q15 -16 34 -28t40.5 -20.5t43 -13t40.5 -4.5q75 0 117 35t42 93q0 49 -33.5 77.5t-91.5 28.5h-77v27h71q20 0 39.5 8.5t35 24t25 36.5t9.5 45q0 54 -36.5 80.5t-91.5 26.5q-52 0 -88 -16t-63 -45l-18 19
q29 34 72.5 52t94.5 18q73 0 116.5 -35t43.5 -100q0 -37 -22 -72.5t-65 -51.5v-3q26 -2 46 -13t34 -27.5t21.5 -38t7.5 -43.5q0 -36 -14 -65t-39 -48.5t-59.5 -30t-75.5 -10.5z" />
    <glyph glyph-name="uniF358" unicode="&#xf358;" horiz-adv-x="645" 
d="M93 0v525h29v-479l403 479h27v-525h-29v479l-403 -479h-27z" />
    <glyph glyph-name="uniF359" unicode="&#xf359;" horiz-adv-x="645" 
d="M93 0v525h29v-479l403 479h27v-525h-29v479l-403 -479h-27zM217 650q0 -40 27.5 -61.5t75.5 -21.5q45 0 72 21.5t27 61.5h27q0 -51 -35.5 -78.5t-90.5 -27.5q-61 0 -95.5 27.5t-34.5 78.5h27z" />
    <glyph glyph-name="uniF35A" unicode="&#xf35a;" horiz-adv-x="508" 
d="M198 276l284 -276h-43l-281 274l273 251h42zM93 525h29v-525h-29v525z" />
    <glyph glyph-name="uniF35B" unicode="&#xf35b;" horiz-adv-x="583" 
d="M461 497h-258l-9 -99q-12 -138 -31.5 -218t-43 -120.5t-48.5 -51t-48 -8.5v29q9 -1 21.5 2t26 15.5t27.5 37.5t27 68.5t24 109t18 158.5l8 105h315v-525h-29v497z" />
    <glyph glyph-name="uniF35C" unicode="&#xf35c;" horiz-adv-x="710" 
d="M93 525h30l237 -297l228 297h29v-525h-30v481l-227 -295h-4l-234 292v-478h-29v525z" />
    <glyph glyph-name="uniF35D" unicode="&#xf35d;" horiz-adv-x="626" 
d="M504 254h-382v-254h-29v525h29v-243h382v243h29v-525h-29v254z" />
    <glyph glyph-name="uniF35E" unicode="&#xf35e;" horiz-adv-x="647" 
d="M46 263q0 57 21 106t58 85t88 56.5t110 20.5t110 -20t88.5 -56t58.5 -85t21 -107t-21 -107.5t-58.5 -85.5t-88.5 -56.5t-110 -20.5t-109.5 20t-88 56t-58.5 85.5t-21 108.5zM77 263q0 -52 19 -96t52 -76.5t78 -51t97 -18.5q54 0 99 18.5t78 51t51.5 76.5t18.5 96t-19 96
t-52 76t-78.5 50t-97.5 18t-97 -18t-78 -50t-52 -76t-19 -96z" />
    <glyph glyph-name="uniF35F" unicode="&#xf35f;" horiz-adv-x="625" 
d="M503 497h-381v-497h-29v525h439v-525h-29v497z" />
    <glyph glyph-name="uniF360" unicode="&#xf360;" horiz-adv-x="466" 
d="M93 0v525q12 0 29.5 0.5t36.5 0.5t36.5 0.5t28.5 0.5q58 0 96 -13.5t60.5 -36t31.5 -51t9 -57.5q0 -31 -11 -60t-35 -51.5t-62 -36t-92 -13.5q-22 0 -47.5 1t-51.5 3v-212h-29zM227 499h-24t-29 -0.5t-29 -1t-23 -0.5v-257q26 -2 49 -3t49 -1q43 0 75 10t53 28t31.5 42.5
t10.5 52.5q0 27 -9 51t-28.5 41.5t-50.5 27.5t-75 10z" />
    <glyph glyph-name="uniF361" unicode="&#xf361;" horiz-adv-x="530" 
d="M499 50q-30 -27 -77.5 -42t-95.5 -15q-63 0 -114.5 19t-88 54.5t-57 85t-20.5 111.5q0 56 19 105t54.5 85t86 57t112.5 21q103 0 171 -48l-16 -22q-31 23 -69 32.5t-85 9.5q-55 0 -99.5 -18.5t-76 -50.5t-49 -76t-17.5 -95q0 -55 18.5 -99.5t51.5 -76t79 -49t102 -17.5
q48 0 88.5 14.5t70.5 37.5z" />
    <glyph glyph-name="uniF362" unicode="&#xf362;" horiz-adv-x="477" 
d="M8 525h461v-28h-216v-497h-29v497h-216v28z" />
    <glyph glyph-name="uniF363" unicode="&#xf363;" horiz-adv-x="517" 
d="M304 118q-29 -60 -57.5 -89t-66.5 -29q-16 0 -31 4t-27 12l11 25q23 -14 47 -14q30 0 50 23t35 52l12 22l-262 401h36l241 -372l179 372h31z" />
    <glyph glyph-name="uniF364" unicode="&#xf364;" horiz-adv-x="668" 
d="M318 60h-6q-61 0 -111.5 14t-86.5 41t-56 66t-20 89t20 89t56 66t87.5 41t114.5 14h2v51h30v-51h3q64 0 116 -14t88 -41t55.5 -66t19.5 -89t-20 -89t-56.5 -66t-87 -41t-111.5 -14h-7v-66h-30v66zM348 453v-366h7q53 0 97.5 11.5t77 35t51 57.5t18.5 79q0 44 -18 78
t-50 57.5t-78 35.5t-101 12h-4zM68 270q0 -44 18.5 -78.5t51 -57.5t77 -35t97.5 -12h6v366h-3q-55 0 -100.5 -12.5t-78 -35.5t-50.5 -57.5t-18 -77.5z" />
    <glyph glyph-name="uniF365" unicode="&#xf365;" horiz-adv-x="530" 
d="M284 267l220 -267h-37l-203 244l-201 -244h-37l220 267l-211 258h37l193 -235l195 235h36z" />
    <glyph glyph-name="uniF366" unicode="&#xf366;" horiz-adv-x="634" 
d="M93 525h29v-497h375v497h30v-497h77v-130h-28v102h-483v525z" />
    <glyph glyph-name="uniF367" unicode="&#xf367;" horiz-adv-x="508" 
d="M415 0h-30v247q-25 -15 -69.5 -31t-97.5 -16q-36 0 -66.5 9.5t-53 30t-35.5 52.5t-13 76v157h29v-150q0 -74 39.5 -110t105.5 -36q53 0 94.5 15.5t66.5 30.5v250h30v-525z" />
    <glyph glyph-name="uniF368" unicode="&#xf368;" horiz-adv-x="801" 
d="M93 525h29v-497h263v497h30v-497h263v497h30v-525h-615v525z" />
    <glyph glyph-name="uniF369" unicode="&#xf369;" horiz-adv-x="814" 
d="M93 525h29v-497h263v497h30v-497h263v497h30v-497h76v-130h-28v102h-663v525z" />
    <glyph glyph-name="uniF36A" unicode="&#xf36a;" horiz-adv-x="536" 
d="M1 525h178v-213q29 2 55 2.5t44 0.5q109 0 160.5 -40.5t51.5 -112.5q0 -81 -58.5 -122.5t-160.5 -41.5q-33 0 -64.5 1t-56.5 1v497h-149v28zM277 287q-18 0 -44 -1t-54 -3v-255q20 0 44.5 -1t51.5 -1q89 0 136.5 34t47.5 103q0 60 -45.5 92t-136.5 32z" />
    <glyph glyph-name="uniF36B" unicode="&#xf36b;" horiz-adv-x="662" 
d="M539 525h30v-525h-30v525zM214 287q-37 0 -92 -3v-256q20 0 41 -1t47 -1q90 0 137 34.5t47 102.5q0 59 -45 91.5t-135 32.5zM122 312q28 2 51.5 2.5t40.5 0.5q108 0 159.5 -40.5t51.5 -112.5q0 -81 -59 -122.5t-159 -41.5q-32 0 -60.5 1t-53.5 1v525h29v-213z" />
    <glyph glyph-name="uniF36C" unicode="&#xf36c;" horiz-adv-x="479" 
d="M220 287q-19 0 -44.5 -0.5t-53.5 -2.5v-256q20 0 44 -1t50 -1q90 0 138 34t48 103q0 60 -45.5 92t-136.5 32zM122 312q28 2 55 2.5t44 0.5q109 0 160.5 -40.5t51.5 -112.5q0 -81 -59 -122.5t-161 -41.5q-32 0 -63.5 1t-56.5 1v525h29v-213z" />
    <glyph glyph-name="uniF36D" unicode="&#xf36d;" horiz-adv-x="551" 
d="M163 282h311q-3 51 -21.5 92t-51.5 69.5t-78.5 44t-101.5 15.5q-45 0 -86 -10t-74 -34l-13 21q32 26 79 39t95 13q64 0 116.5 -19t89.5 -53.5t57 -84.5t20 -111q0 -58 -20 -107.5t-57 -86t-89 -57t-116 -20.5q-106 0 -187 55l14 24q77 -50 175 -50q56 0 101.5 17.5
t77.5 48.5t50.5 73.5t20.5 92.5h-312v28z" />
    <glyph glyph-name="uniF36E" unicode="&#xf36e;" horiz-adv-x="862" 
d="M93 525h29v-243h157q3 53 24 99t56 79.5t82.5 52.5t104.5 19q60 0 109.5 -20t85 -56t55.5 -85.5t20 -107.5t-20 -107.5t-55.5 -85.5t-85 -56.5t-109.5 -20.5q-57 0 -105.5 19.5t-83.5 54t-56 82.5t-22 105h-157v-254h-29v525zM310 263q0 -52 17.5 -96t49 -76.5t75 -50.5
t95.5 -18q53 0 96.5 18t75 50.5t49 76.5t17.5 96t-17.5 96t-49 76t-75.5 50t-96 18t-95.5 -18t-75 -50t-49 -76t-17.5 -96z" />
    <glyph glyph-name="uniF36F" unicode="&#xf36f;" horiz-adv-x="497" 
d="M375 210h-142l-169 -210h-36l173 214q-24 6 -47 19.5t-41 32.5t-28.5 43.5t-10.5 52.5q0 35 12.5 65t38 52.5t64 35t89.5 12.5q33 0 67 -1t59 -1v-525h-29v210zM375 238v259q-20 0 -45.5 1t-54.5 1q-44 0 -76 -11t-53 -29.5t-31 -43.5t-10 -52q0 -24 10.5 -45.5t27.5 -38
t39.5 -27.5t45.5 -14h147z" />
    <glyph glyph-name="uniF371" unicode="&#xf371;" horiz-adv-x="474" 
d="M93 525h311v-28h-282v-216h258v-28h-258v-225h290v-28h-319v525zM135 667q0 8 6.5 14t15.5 6q8 0 14 -6t6 -14q0 -10 -6 -16t-14 -6q-9 0 -15.5 6t-6.5 16zM310 667q0 8 6.5 14t15.5 6q8 0 14 -6t6 -14q0 -10 -6 -16t-14 -6q-9 0 -15.5 6t-6.5 16z" />
    <glyph glyph-name="uniF372" unicode="&#xf372;" horiz-adv-x="612" 
d="M566 155q0 -44 -10 -75t-28 -50.5t-42.5 -28t-53.5 -8.5q-23 0 -43.5 9t-27.5 14l12 23q9 -7 24.5 -12t32.5 -5q47 0 77 30.5t30 101.5q0 72 -36.5 104t-105.5 32q-27 0 -48 -5t-38 -12t-30.5 -15t-25.5 -14v-244h-29v497h-216v28h461v-28h-216v-225q26 16 60 31t87 15
q36 0 66.5 -8.5t52.5 -28t34.5 -50.5t12.5 -76z" />
    <glyph glyph-name="uniF373" unicode="&#xf373;" horiz-adv-x="407" 
d="M93 525h312v-28h-283v-497h-29v525zM220 594l-16 15l114 142l18 -20z" />
    <glyph glyph-name="uniF374" unicode="&#xf374;" horiz-adv-x="550" 
d="M388 253h-313q1 -53 20.5 -96t53.5 -73t81 -46t104 -16q50 0 89.5 12.5t77.5 37.5l13 -24q-40 -27 -83 -41t-97 -14q-64 0 -117 19.5t-91 54.5t-59 85t-21 111q0 58 20 107.5t57 85.5t89 56t116 20q48 0 95 -13t79 -39l-14 -21q-33 24 -74.5 34t-84.5 10
q-57 0 -102.5 -16.5t-78 -45.5t-51.5 -69.5t-22 -89.5h313v-29z" />
    <glyph glyph-name="uniF375" unicode="&#xf375;" horiz-adv-x="462" 
d="M385 130q0 39 -24 62.5t-60 39t-78.5 27.5t-78.5 29t-60 43.5t-24 70.5q0 55 44.5 92t131.5 37q22 0 46 -4t45.5 -11.5t40 -17.5t30.5 -23l-15 -21q-26 25 -68 37t-82 12q-65 0 -103.5 -27.5t-38.5 -73.5q0 -38 24 -60t60 -37t78.5 -27t78.5 -29.5t60 -45t24 -74.5
q0 -32 -14 -57t-38 -42.5t-56 -27t-67 -9.5q-66 0 -117.5 20t-79.5 52l19 20q29 -29 73.5 -46.5t104.5 -17.5q26 0 51.5 7t46 20.5t33.5 34t13 47.5z" />
    <glyph glyph-name="uniF376" unicode="&#xf376;" horiz-adv-x="257" 
d="M114 525h29v-525h-29v525z" />
    <glyph glyph-name="uniF377" unicode="&#xf377;" horiz-adv-x="261" 
d="M51 666q0 8 6.5 14t14.5 6t14 -6t6 -14q0 -9 -6 -15t-14 -6t-14.5 6t-6.5 15zM172 666q0 8 6.5 14t14.5 6t13.5 -6t5.5 -14q0 -9 -5.5 -15t-13.5 -6t-14.5 6t-6.5 15zM116 525h29v-525h-29v525z" />
    <glyph glyph-name="uniF378" unicode="&#xf378;" horiz-adv-x="285" 
d="M192 114q0 -55 -22.5 -88t-83.5 -33q-23 0 -42 7t-30 16l11 23q10 -7 25 -12t32 -5q25 0 41 7.5t24.5 20.5t11.5 30t3 37v408h30v-411z" />
    <glyph glyph-name="uniF379" unicode="&#xf379;" horiz-adv-x="838" 
d="M461 497h-257l-9 -99q-12 -138 -32 -218t-43.5 -120.5t-48.5 -51t-48 -8.5v29q9 0 21.5 3t26 15.5t27.5 37.5t27 68.5t24 108.5t18 158l8 105h315v-213q28 2 51 2.5t41 0.5q108 0 159 -40.5t51 -112.5q0 -81 -58.5 -122.5t-159.5 -41.5q-32 0 -60.5 1t-52.5 1v497z
M581 287q-19 0 -41 -1t-50 -3v-255q20 0 40.5 -1t46.5 -1q90 0 137 34.5t47 102.5q0 59 -45 91.5t-135 32.5z" />
    <glyph glyph-name="uniF37A" unicode="&#xf37a;" horiz-adv-x="872" 
d="M93 525h29v-224h374v224h29v-223q28 2 51 3t41 1q108 0 159 -39t51 -108q0 -81 -58.5 -121t-159.5 -40q-26 0 -49.5 1t-43.5 1h-20v273h-374v-273h-29v525zM525 28q20 0 40.5 -1t46.5 -1q90 0 137 33t47 99q0 58 -45 89.5t-135 31.5q-19 0 -41.5 -1t-49.5 -4v-246z" />
    <glyph glyph-name="uniF37B" unicode="&#xf37b;" horiz-adv-x="612" 
d="M8 525h461v-28h-216v-227q23 17 62 32t92 15q35 0 64.5 -9.5t50.5 -29.5t32.5 -52t11.5 -77v-149h-29v144q0 74 -35.5 109.5t-101.5 35.5q-53 0 -88.5 -16.5t-58.5 -30.5v-242h-29v497h-216v28z" />
    <glyph glyph-name="uniF37C" unicode="&#xf37c;" horiz-adv-x="508" 
d="M198 276l284 -276h-43l-281 274l273 251h42zM93 525h29v-525h-29v525zM243 594l-16 15l114 142l18 -20z" />
    <glyph glyph-name="uniF37E" unicode="&#xf37e;" horiz-adv-x="517" 
d="M304 118q-29 -60 -57.5 -89t-66.5 -29q-16 0 -31 4t-27 12l11 25q23 -14 47 -14q30 0 50 23t35 52l12 22l-262 401h36l241 -372l179 372h31zM165 650q0 -40 27.5 -61.5t75.5 -21.5q45 0 72 21.5t27 61.5h27q0 -51 -35.5 -78.5t-90.5 -27.5q-61 0 -95.5 27.5t-34.5 78.5
h27z" />
    <glyph glyph-name="uniF37F" unicode="&#xf37f;" horiz-adv-x="617" 
d="M93 525h29v-497h373v497h29v-525h-201v-119h-29v119h-201v525z" />
    <glyph glyph-name="uniF381" unicode="&#xf381;" horiz-adv-x="498" 
d="M1 430h111v95h29v-95h142v-26h-142v-98q28 2 54.5 3t43.5 1q109 0 161 -39.5t52 -110.5q0 -81 -59 -121.5t-161 -40.5q-32 0 -63.5 1t-56.5 1v404h-111v26zM239 283q-19 0 -45 -0.5t-53 -2.5v-253q20 0 44 -1t50 -1q90 0 138 34t48 101q0 59 -45.5 91t-136.5 32z" />
    <glyph glyph-name="uniF389" unicode="&#xf389;" horiz-adv-x="647" 
d="M46 263q0 57 21 106t58 85t88 56.5t110 20.5t110 -20t88.5 -56t58.5 -85t21 -107t-21 -107.5t-58.5 -85.5t-88.5 -56.5t-110 -20.5t-109.5 20t-88 56t-58.5 85.5t-21 108.5zM197 298q-31 0 -62.5 -14.5t-57.5 -38.5q3 -48 23.5 -89t53 -71t76 -47t93.5 -17
q52 0 96.5 17.5t77 48t52 73t21.5 92.5q-26 -23 -55.5 -35t-57.5 -12q-36 0 -68.5 14.5t-63.5 32t-62.5 32t-65.5 14.5zM459 232q27 0 57 13t53 35q-3 48 -23 89t-53 71t-76.5 46.5t-93.5 16.5q-51 0 -94.5 -17t-76.5 -47.5t-52.5 -72t-22.5 -90.5q29 23 60.5 36t60.5 13
q37 0 69.5 -14.5t64 -32t62.5 -32t65 -14.5z" />
    <glyph glyph-name="uniF38A" unicode="&#xf38a;" horiz-adv-x="530" 
d="M278 -5h-20l-246 530h33l224 -487l141 365q26 68 52 98t59 30q18 0 36 -7v-25q-40 17 -68 -13t-54 -96z" />
    <glyph glyph-name="uniF393" unicode="&#xf393;" horiz-adv-x="408" 
d="M93 525h285v101h28v-129h-284v-497h-29v525z" />
    <glyph glyph-name="uniF3CF" unicode="&#xf3cf;" horiz-adv-x="935" 
d="M512 0l-391 475v-475h-28v525h23l392 -476v476h28v-525h-24zM608 376q0 26 10 48t28 37.5t42.5 24.5t52.5 9t52 -9t42 -24.5t28 -37.5t10 -48t-10 -48t-28 -38t-42 -25t-52 -9t-52.5 9t-42.5 25t-28 38t-10 48zM635 376q0 -22 9 -39.5t24 -30t34 -19.5t39 -7q21 0 40 7
t34 19.5t23.5 30t8.5 39.5q0 21 -9 38.5t-23.5 30t-33.5 19.5t-40 7t-40 -7t-34 -19.5t-23.5 -30t-8.5 -38.5zM633 202h215v-27h-215v27z" />
    <glyph glyph-name="uniF3D0" unicode="&#xf3d0;" horiz-adv-x="376" 
d="M87 650q0 -40 27.5 -61.5t75.5 -21.5q45 0 72 21.5t27 61.5h27q0 -51 -35.5 -78.5t-90.5 -27.5q-61 0 -95.5 27.5t-34.5 78.5h27z" />
    <glyph glyph-name="uniF400" unicode="&#xf400;" horiz-adv-x="0" 
d="M-284 552l-18 12l109 146l21 -17z" />
    <glyph glyph-name="uniF401" unicode="&#xf401;" horiz-adv-x="0" 
d="M-430 740l-9 18l165 94l11 -23z" />
    <glyph glyph-name="uniF406" unicode="&#xf406;" horiz-adv-x="430" 
d="M74 850q8 -9 20.5 -21t30.5 -22.5t40.5 -17.5t51.5 -7q50 0 85 21.5t55 46.5l13 -15q-11 -15 -25.5 -29t-34 -25t-43 -18t-50.5 -7q-32 0 -58 8.5t-45.5 20.5t-33 25.5t-20.5 24.5z" />
    <glyph glyph-name="uniF407" unicode="&#xf407;" horiz-adv-x="314" 
d="M70 -160q19 -10 38 -15.5t36 -5.5q35 0 58 14.5t23 39.5t-18.5 39.5t-63.5 14.5h-6v73h19v-56q53 -1 75.5 -20.5t22.5 -51.5t-28 -52.5t-77 -20.5q-27 0 -48 6.5t-41 17.5z" />
    <glyph glyph-name="uniF408" unicode="&#xf408;" horiz-adv-x="457" 
d="M226 851h4l167 -93l-15 -18l-154 85l-155 -85l-13 17z" />
    <glyph glyph-name="uniF409" unicode="&#xf409;" horiz-adv-x="198" 
d="M98 -64q17 -2 28.5 -15t11.5 -35q0 -38 -19.5 -57.5t-50.5 -29.5l-8 15q25 10 37.5 25.5t12.5 40.5q0 21 -9 31t-23 13z" />
    <glyph glyph-name="uniF40A" unicode="&#xf40a;" horiz-adv-x="197" 
d="M114 737q9 -10 16 -26.5t7 -38.5q0 -45 -17.5 -73t-47.5 -44l-12 15q24 14 37 39t13 57q0 20 -6.5 33.5t-13.5 20.5z" />
    <glyph glyph-name="uniF40B" unicode="&#xf40b;" horiz-adv-x="167" 
d="M60 797q0 11 7 16.5t18 5.5q8 0 15 -5.5t7 -16.5t-7 -17.5t-15 -6.5q-11 0 -18 6.5t-7 17.5z" />
    <glyph glyph-name="uniF40C" unicode="&#xf40c;" horiz-adv-x="322" 
d="M60 779q0 42 29 61.5t71 19.5t72 -19.5t30 -61.5q0 -41 -30 -62t-72 -21t-71 21t-29 62zM83 779q0 -32 22.5 -48t54.5 -16q33 0 56 16t23 48q0 33 -23 47.5t-56 14.5q-32 0 -54.5 -14.5t-22.5 -47.5z" />
    <glyph glyph-name="uniF40D" unicode="&#xf40d;" horiz-adv-x="446" 
d="M60 790q20 18 40.5 26.5t40.5 8.5q22 0 42.5 -7.5t40 -16.5t39 -16.5t39.5 -7.5q17 0 35.5 7.5t37.5 27.5l11 -19q-21 -23 -42 -32t-43 -9q-21 0 -41 7.5t-40.5 16t-41 16t-41.5 7.5q-33 0 -66 -27z" />
    <glyph glyph-name="uniF40E" unicode="&#xf40e;" horiz-adv-x="287" 
d="M227 -186q-13 -7 -29.5 -10.5t-31.5 -3.5q-16 0 -34.5 4t-34.5 14.5t-26.5 28t-10.5 44.5q0 28 14.5 50t37.5 38t52 24.5t58 8.5v-12q-24 0 -48 -7.5t-43 -21t-31 -32.5t-12 -42q0 -22 9 -36t22 -22.5t27.5 -11.5t24.5 -3q9 0 21.5 1.5t25.5 7.5z" />
    <glyph glyph-name="uniF410" unicode="&#xf410;" horiz-adv-x="0" 
d="M-500 829l11 23l165 -94l-10 -18z" />
    <glyph glyph-name="uniF416" unicode="&#xf416;" horiz-adv-x="198" 
d="M98 -64q17 -2 28.5 -15t11.5 -35q0 -38 -19.5 -57.5t-50.5 -29.5l-8 15q25 10 37.5 25.5t12.5 40.5q0 21 -9 31t-23 13z" />
    <glyph glyph-name="uniF418" unicode="&#xf418;" horiz-adv-x="197" 
d="M114 547q9 -10 16 -26.5t7 -38.5q0 -45 -17.5 -73t-47.5 -44l-12 15q24 14 37 39t13 57q0 20 -6.5 33.5t-13.5 20.5z" />
    <glyph glyph-name="uniF447" unicode="&#xf447;" horiz-adv-x="477" 
d="M163 -161q38 -20 73 -20t58 14.5t23 39.5t-18.5 39.5t-63.5 14.5h-6v73h-5v497h-216v28h461v-28h-216v-497h-5v-56q52 -1 74.5 -20.5t22.5 -51.5t-28 -52.5t-78 -20.5q-26 0 -46 6.5t-40 16.5z" />
    <glyph glyph-name="uniF44E" unicode="&#xf44e;" horiz-adv-x="622" 
d="M545 282q-3 51 -21.5 91.5t-51.5 69.5t-78 44.5t-100 15.5q-45 0 -84 -10.5t-72 -34.5l-13 22q32 26 78 38.5t94 12.5q64 0 115.5 -18.5t88 -53.5t56 -84.5t19.5 -110.5q0 -58 -18.5 -107.5t-53.5 -86t-85 -57t-113 -20.5t-113 21.5t-84.5 60t-52.5 91.5t-16 116h505z
M305 21q57 0 101.5 18t75 49.5t46.5 74t17 91.5h-475q1 -48 18 -90.5t47 -74t73 -50t97 -18.5z" />
    <glyph glyph-name="uniF639" unicode="&#xf639;" 
d="M77 350q0 77 12 142.5t38 113.5t67 75t99 27t99 -27t67 -75t38 -113.5t12 -142.5t-12 -142.5t-37.5 -113.5t-66 -75t-98.5 -27t-99 27t-67.5 75t-39 113.5t-12.5 142.5zM107 350q0 -72 10.5 -133t33 -105t58 -68.5t86.5 -24.5t86 24.5t57 68.5t31.5 104.5t9.5 133.5
t-10 133.5t-32 104.5t-57.5 68.5t-86.5 24.5t-86.5 -24.5t-57.5 -68.5t-32 -105t-10 -133z" />
    <glyph glyph-name="uniF63A" unicode="&#xf63a;" 
d="M88 24l65 65t75.5 79.5t75.5 89.5t66 94.5t47 94t18 88.5q0 27 -9.5 53t-28 46.5t-47 33t-66.5 12.5q-25 0 -51 -7.5t-49 -24.5t-39.5 -43.5t-21.5 -64.5l-25 8q5 40 23.5 70.5t44.5 50t56.5 29.5t60.5 10q48 0 82.5 -15.5t56 -39.5t32 -53.5t10.5 -58.5q0 -49 -21 -102
t-53.5 -105.5t-72 -102t-77 -90t-68.5 -70.5t-46 -44h371v-27h-409v24z" />
    <glyph glyph-name="uniF63B" unicode="&#xf63b;" 
d="M285 -9q-31 0 -61 6.5t-56 21.5t-47 38.5t-34 56.5l18 18q13 -31 33.5 -52.5t45 -34.5t51 -19t52.5 -6q40 0 72.5 13t55 35.5t35 53.5t12.5 67q0 34 -12.5 63t-34.5 49t-51 31.5t-62 11.5h-64v28h57q26 0 51 12t45 33.5t32 51t12 63.5q0 74 -42 111t-109 37t-104.5 -29.5
t-55.5 -74.5l-19 15q19 56 67 87t113 31q85 0 132 -46.5t47 -129.5q0 -26 -7.5 -52t-21.5 -48.5t-35 -41t-48 -28.5v-3q33 -5 58.5 -21t43.5 -39t27.5 -52t9.5 -59q0 -45 -15.5 -82t-43 -62.5t-65.5 -39.5t-82 -14z" />
    <glyph glyph-name="uniF63C" unicode="&#xf63c;" 
d="M397 193h-327v17l320 490h33l-313 -478h287v228h28v-228h108v-29h-108v-193h-28v193z" />
    <glyph glyph-name="uniF63D" unicode="&#xf63d;" 
d="M189 700h294v-28h-270l-34 -262q16 5 36.5 8.5t43.5 3.5q49 0 90 -15t70 -42.5t45.5 -66t16.5 -85.5q0 -51 -17 -92.5t-45.5 -70t-66 -44t-78.5 -15.5q-29 0 -57 6.5t-54 20.5t-48.5 36t-38.5 52l19 19q15 -27 35.5 -47t44.5 -33t49.5 -19t49.5 -6q37 0 69.5 14.5
t56.5 40t37.5 60.5t13.5 77q0 39 -14.5 72.5t-40.5 58.5t-63 39t-82 14q-29 0 -56 -5.5t-47 -12.5z" />
    <glyph glyph-name="uniF63E" unicode="&#xf63e;" 
d="M75 248q0 96 30 175.5t78 139t107.5 97t118.5 49.5l12 -22q-52 -12 -104.5 -42.5t-96 -79.5t-74 -117t-39.5 -154q10 27 27.5 51t42 42t56.5 29t70 11q47 0 85 -16t64.5 -44.5t41 -68t14.5 -87.5q0 -47 -17 -87t-44.5 -69.5t-64 -46.5t-75.5 -17q-59 0 -102.5 21
t-72 56.5t-43 82t-14.5 97.5zM104 249q0 -44 12.5 -85t37 -73t62.5 -51.5t89 -19.5q35 0 66.5 15t55 40.5t37.5 60t14 73.5t-11.5 74t-34.5 61t-57.5 41t-79.5 15q-42 0 -74.5 -14t-56.5 -36t-39 -49t-21 -52z" />
    <glyph glyph-name="uniF63F" unicode="&#xf63f;" 
d="M103 700h390v-15l-274 -685h-31l269 672h-354v28z" />
    <glyph glyph-name="uniF640" unicode="&#xf640;" 
d="M311 374q25 0 51 11.5t47 31.5t34 48t13 61q0 37 -14 66t-37.5 48.5t-53 29.5t-59.5 10q-31 0 -60 -10.5t-51.5 -30t-36 -48t-13.5 -65.5q0 -33 13 -61t34 -48t46.5 -31.5t51.5 -11.5h35zM280 346q-35 0 -67 -12.5t-56 -34t-38 -51t-14 -63.5q0 -36 15.5 -66.5
t41.5 -52.5t60 -34t71 -12t71.5 11.5t60.5 33t41.5 52t15.5 68.5t-14 68t-37.5 50.5t-55 31.5t-65.5 11h-30zM294 -9q-42 0 -81 13t-69.5 37.5t-49 59.5t-18.5 80q0 31 10.5 59.5t30 52.5t47 41t62.5 24v3q-27 7 -50 24t-39.5 40t-25.5 49.5t-9 52.5q0 41 15 74.5t41 57.5
t61 37t74 13t74.5 -13t61.5 -37t41.5 -57.5t15.5 -74.5q0 -26 -8.5 -51t-25 -47t-40 -39.5t-53.5 -27.5v-3q33 -4 61 -19t48.5 -38t31.5 -53.5t11 -65.5q0 -45 -18.5 -81t-48.5 -60.5t-69 -37.5t-81 -13z" />
    <glyph glyph-name="uniF641" unicode="&#xf641;" 
d="M511 451q0 -97 -25.5 -177t-70.5 -139.5t-107 -96t-134 -47.5l-11 23q65 11 120.5 42.5t97 81t67 116.5t31.5 150q-20 -53 -69.5 -88.5t-124.5 -35.5q-48 0 -86.5 17t-65.5 46.5t-41.5 68t-14.5 81.5q0 47 18 86.5t48 68.5t67.5 45t76.5 16q58 0 100.5 -21t70 -56.5
t40.5 -82t13 -98.5zM481 450q0 43 -11 84.5t-34 74t-59.5 52t-87.5 19.5q-35 0 -68 -14.5t-58.5 -39t-41 -58.5t-15.5 -73q0 -36 11.5 -70t35 -60t58 -42t79.5 -16q42 0 74.5 13t56.5 33.5t39 46t21 50.5z" />
    </font>
</defs>
</svg>
